<svg width="390" height="422" viewBox="0 0 390 422" fill="none" xmlns="http://www.w3.org/2000/svg">
<mask id="mask0_1564_4673" style="mask-type:alpha" maskUnits="userSpaceOnUse" x="-488" y="0" width="1366" height="422">
<rect x="-488" width="1366" height="422" fill="#F1EDE5"/>
</mask>
<g mask="url(#mask0_1564_4673)">
<path opacity="0.06" fill-rule="evenodd" clip-rule="evenodd" d="M-488 993H878V358.052C537.082 143.916 68.2136 99.6129 -310.193 257.457C-372.669 283.511 -432.971 314.785 -488 352.06V993Z" fill="#1D5556"/>
<path fill-rule="evenodd" clip-rule="evenodd" d="M466.786 264.683C374.823 272.875 287.978 280.61 193.837 275.418H193.822C101.351 270.321 25.7531 261.19 -62.7997 245.028C-166.229 226.141 -285.27 241.434 -367.983 281.919C-434.378 314.405 -476.635 361.947 -488 411.758H-488V411.76V982.899H878V411.76C878 411.759 878 411.758 878 411.758C862.058 378.065 832.86 346.566 791.414 321.138C718.803 276.601 608.424 252.38 503.539 261.441C491.179 262.51 478.938 263.601 466.786 264.683Z" fill="#1D5556"/>
</g>
</svg>
