<svg width="1366" height="422" viewBox="0 0 1366 422" fill="none" xmlns="http://www.w3.org/2000/svg">
<mask id="mask0_1211_4027" style="mask-type:alpha" maskUnits="userSpaceOnUse" x="0" y="0" width="1366" height="422">
<rect width="1366" height="422" fill="#F1EDE5"/>
</mask>
<g mask="url(#mask0_1211_4027)">
<path opacity="0.06" fill-rule="evenodd" clip-rule="evenodd" d="M0 993H1366V358.052C1025.08 143.916 556.214 99.6129 177.807 257.457C115.331 283.511 55.0293 314.785 0 352.06V993Z" fill="#1D5556"/>
<path fill-rule="evenodd" clip-rule="evenodd" d="M954.786 264.683C862.823 272.875 775.978 280.61 681.837 275.418H681.822C589.351 270.321 513.753 261.19 425.2 245.028C321.771 226.141 202.73 241.434 120.017 281.919C53.6218 314.405 11.3647 361.947 0.000396851 411.758H0V411.76V982.899H1366V411.76C1366 411.759 1366 411.758 1366 411.758C1350.06 378.065 1320.86 346.566 1279.41 321.138C1206.8 276.601 1096.42 252.38 991.539 261.441C979.179 262.51 966.938 263.601 954.786 264.683Z" fill="#1D5556"/>
</g>
</svg>
