<svg width="401" height="107" viewBox="0 0 401 107" fill="none" xmlns="http://www.w3.org/2000/svg">
<mask id="path-1-inside-1_1148_4635" fill="white">
<path fill-rule="evenodd" clip-rule="evenodd" d="M396 93C398.761 93 401 90.7615 401 88V4.99999C401 2.23857 398.761 -7.4337e-06 396 -7.19228e-06L4.99999 2.699e-05C2.23858 2.72314e-05 -7.93462e-06 2.23861 -7.69321e-06 5.00003L0 88.0001C0 90.7615 2.23856 93.0001 5 93.0001H20V107L36.8 93.0001L396 93Z"/>
</mask>
<path d="M396 93V91V93ZM396 -7.19228e-06V1.99999V-7.19228e-06ZM4.99999 2.699e-05V-1.99997V2.699e-05ZM-7.69321e-06 5.00003H-2.00001H-7.69321e-06ZM0 88.0001H2H0ZM20 93.0001H22V91.0001H20V93.0001ZM20 107H18V111.27L21.2804 108.536L20 107ZM36.8 93.0001V91.0001H36.0759L35.5196 91.4636L36.8 93.0001ZM399 88C399 89.6569 397.657 91 396 91V95C399.866 95 403 91.866 403 88H399ZM399 4.99999V88H403V4.99999H399ZM396 1.99999C397.657 1.99999 399 3.34314 399 4.99999H403C403 1.134 399.866 -2.00001 396 -2.00001V1.99999ZM4.99999 2.00003L396 1.99999V-2.00001L4.99999 -1.99997V2.00003ZM1.99999 5.00003C1.99999 3.34318 3.34315 2.00003 4.99999 2.00003V-1.99997C1.13401 -1.99997 -2.00001 1.13403 -2.00001 5.00003H1.99999ZM2 88.0001L1.99999 5.00003H-2.00001L-2 88.0001H2ZM5 91.0001C3.34313 91.0001 2 89.6569 2 88.0001H-2C-2 91.8661 1.13398 95.0001 5 95.0001V91.0001ZM20 91.0001H5V95.0001H20V91.0001ZM22 107V93.0001H18V107H22ZM35.5196 91.4636L18.7196 105.464L21.2804 108.536L38.0803 94.5365L35.5196 91.4636ZM396 91L36.8 91.0001V95.0001L396 95V91Z" fill="#1D5556" mask="url(#path-1-inside-1_1148_4635)"/>
</svg>
