<svg width="1366" height="1376" viewBox="0 0 1366 1376" fill="none" xmlns="http://www.w3.org/2000/svg">
<path opacity="0.06" fill-rule="evenodd" clip-rule="evenodd" d="M1366 817.052V1376H0V811.06C55.0293 773.785 115.331 742.511 177.807 716.457C556.214 558.613 1025.08 602.916 1366 817.052Z" fill="#1C5253"/>
<path d="M740.634 78.5583C740.377 77.1131 740.216 75.6678 740.248 74.1261C740.344 61.6323 750.59 51.5795 763.084 51.6758C768.897 51.74 774.164 53.9562 778.147 57.5855C783.382 46.537 794.72 38.9251 807.76 39.0214C825.681 39.182 840.102 53.8277 839.942 71.7494C839.942 74.5115 839.556 77.1452 838.882 79.7146C844.053 81.0314 848.678 83.633 852.403 87.1659C856.225 70.6895 869.554 57.8745 886.255 54.8233C885.87 52.832 885.677 50.8086 885.709 48.721C885.838 31.4095 900.034 17.4704 917.345 17.631C925.375 17.6952 932.698 20.7785 938.19 25.821C945.448 10.5008 961.122 -0.0337778 979.204 0.126811C1004.03 0.351635 1023.98 20.6179 1023.75 45.445C1023.72 49.267 1023.21 52.9284 1022.31 56.4613C1040.93 61.1827 1054.65 78.1408 1054.46 98.2144C1054.26 121.821 1034.96 140.77 1011.35 140.578L745.933 139.711C728.911 139.55 715.196 125.643 715.357 108.588C715.485 93.5574 726.373 81.1278 740.634 78.5262V78.5583Z" fill="#FAFAFA"/>
<path d="M426.34 147.85C426.147 146.822 426.051 145.73 426.051 144.638C426.115 135.549 433.534 128.258 442.624 128.355C446.831 128.387 450.653 130.025 453.544 132.658C457.366 124.629 465.556 119.105 475.03 119.201C488.038 119.329 498.476 129.96 498.38 142.936C498.38 144.927 498.091 146.854 497.609 148.717C501.335 149.649 504.707 151.576 507.437 154.145C510.199 142.197 519.867 132.883 532.007 130.699C531.75 129.254 531.59 127.776 531.622 126.267C531.718 113.709 541.996 103.592 554.586 103.688C560.432 103.752 565.731 105.968 569.714 109.63C574.981 98.5171 586.351 90.8731 599.455 91.0016C617.473 91.1622 631.958 105.872 631.797 123.89C631.797 126.652 631.412 129.318 630.737 131.887C644.259 135.324 654.183 147.625 654.055 162.207C653.894 179.325 639.923 193.072 622.804 192.943L430.194 192.301C417.829 192.205 407.904 182.088 408.001 169.722C408.097 158.802 415.998 149.777 426.34 147.914V147.85Z" fill="#FAFAFA"/>
<g opacity="0.1">
<ellipse cx="779" cy="688.5" rx="86" ry="20.5" fill="#1A1A1A"/>
<ellipse cx="605.5" cy="690.5" rx="58.5" ry="16.5" fill="#1A1A1A"/>
<ellipse cx="517.5" cy="679.5" rx="14.5" ry="3.5" fill="#1A1A1A"/>
</g>
<g clip-path="url(#clip0_1555_1616)">
<path d="M576.208 644.695C576.208 644.695 578.496 659.476 577.664 662.807C576.831 666.138 574.541 676.963 579.537 680.502C584.533 684.041 595.523 691.439 598.69 695.699C602.506 700.834 616.107 707.218 637.827 701.736C652.086 698.138 644.04 677.102 633.664 674.27C625.394 672.013 617.009 664.856 620.132 647.907L576.208 644.695Z" fill="#1A1A1A"/>
<path d="M553.116 568.221C553.116 568.221 557.021 582.658 559.134 585.365C561.246 588.071 567.731 597.036 564.6 602.298C561.47 607.561 554.427 618.781 553.26 623.959C551.855 630.2 551.221 665.305 513.674 662.256C499.016 661.065 501.324 644.979 506.335 635.462C511.669 625.335 524.004 603.202 514.271 588.977L553.114 568.221H553.116Z" fill="#1A1A1A"/>
<path d="M648.861 355.118C648.861 355.118 655.523 373.437 650.943 399.252C646.363 425.066 651.717 434.642 650.705 443.802C649.693 452.962 650.11 484.189 644.697 510.003C639.285 535.817 644.697 539.98 644.697 547.891C644.697 555.802 636.786 584.947 632.206 600.352C627.627 615.758 627.627 621.849 627.627 628.379C627.627 634.91 631.929 646.915 628.459 649.066C624.99 651.217 616.107 653.091 607.294 651.634C598.481 650.176 603.547 650.454 597.024 650.801C590.501 651.148 577.294 649.575 575.212 647.771C573.13 645.967 573.176 642.081 572.529 641.017C571.881 639.953 573.778 609.235 578.08 598.826C582.382 588.417 583.215 559.966 582.382 557.19C581.55 554.414 589.738 537.899 587.656 531.376C585.574 524.853 580.023 509.031 582.799 504.59C585.574 500.149 585.991 488.63 585.158 479.053C584.325 469.477 585.019 453.933 585.991 447.271C586.962 440.61 588.35 436.446 585.436 429.646C582.521 422.845 582.937 414.379 581.411 411.881C579.884 409.383 578.913 407.024 576.97 410.354C575.027 413.685 573.084 426.454 571.696 432.699C570.308 438.944 569.753 456.848 569.475 462.677C569.198 468.506 567.116 473.502 565.728 478.221C564.34 482.939 562.675 495.569 562.675 502.092C562.675 508.615 560.732 520.273 558.511 524.575C556.291 528.878 553.099 545.948 554.07 557.745C555.042 569.542 556.429 578.84 557.401 580.228C557.401 580.228 540.33 610.761 530.615 611.872C520.9 612.982 524.231 612.982 517.569 614.647C510.908 616.313 509.52 619.644 507.854 615.48C506.189 611.316 507.438 600.352 508.271 593.968C509.103 587.584 509.52 576.204 506.744 562.603C503.968 549.002 506.33 542.34 504.385 537.621C502.44 532.902 500.637 518.885 502.58 510.835C504.523 502.786 503.087 466.979 502.139 460.04C501.193 453.1 497.534 450.047 502.139 431.45C506.744 412.853 506.466 381.765 506.466 378.156C506.466 374.548 504.801 370.107 504.801 370.107L542.551 333.189L628.876 343.46L648.861 355.118Z" fill="#1A1A1A"/>
<path d="M575.859 149.537C575.859 149.537 588.697 129.205 589.322 125.666C589.946 122.127 613.47 142.112 613.47 142.112L629.014 149.537L630.479 158.9L626.169 166.886L607.433 169.523L586.893 167.094L574.888 157.309L575.859 149.537Z" fill="#974430"/>
<path d="M581.966 155.267C581.966 155.267 606.184 175.461 626.377 153.186L634.705 177.924V238.123L624.712 350.747C624.712 350.747 591.82 370.941 539.983 339.297L544.771 282.673L551.225 223.342L572.251 171.297L581.966 155.267Z" fill="white"/>
<path d="M618.328 175.945C618.328 175.945 610.833 200.233 611.805 229.794C612.776 259.356 613.748 286.141 614.164 292.664C614.581 299.187 618.05 331.524 619.299 334.3C620.548 337.076 622.214 348.179 623.047 351.371C623.879 354.563 632.9 381.21 630.957 389.259C630.957 389.259 641.366 385.929 649.231 367.054C649.231 367.054 669.031 358.726 672.732 346.328C672.732 346.328 694.521 306.959 698.13 286.974C701.738 266.989 699.101 247.42 696.881 242.84C694.66 238.26 691.19 203.148 690.08 199.123C688.97 195.098 685.223 181.636 670.373 171.504C655.522 161.373 637.897 147.217 637.897 147.217L626.933 157.903L618.328 175.945Z" fill="#41A5B4"/>
<path d="M567.255 144.441C567.255 144.441 547.825 150.826 543.106 151.381C538.387 151.936 518.68 161.689 509.797 176.243C500.915 190.796 479.82 242.979 477.044 248.808C474.268 254.637 469.549 268.238 469.272 272.68C468.994 277.121 468.439 282.95 470.66 287.391C472.88 291.832 473.991 297.383 473.991 300.992C473.991 304.6 475.934 308.209 478.432 310.984C480.93 313.76 485.649 322.643 486.481 326.529C487.314 330.415 490.922 336.521 493.976 341.517C497.029 346.514 500.206 351.232 499.866 355.118C499.527 359.004 498.54 362.89 499.866 364.556C501.193 366.221 503.691 375.381 507.299 374.132C510.908 372.883 551.155 334.856 554.209 326.39C557.262 317.924 562.536 301.131 564.618 293.081C566.7 285.032 572.806 272.124 573.639 268.238C574.472 264.352 580.717 240.481 580.994 236.734C581.272 232.987 586.268 213.973 586.268 208.699C586.268 203.425 589.322 184.828 588.766 182.608C588.211 180.387 589.044 158.875 581.966 155.267C574.888 151.658 567.255 144.441 567.255 144.441Z" fill="#41A5B4"/>
<path d="M581.966 155.267C581.966 155.267 571.418 152.908 567.949 167.897C567.949 167.897 554.903 152.908 571.835 135.004C571.835 135.004 579.745 126.816 587.656 129.592C587.656 129.592 585.991 140.814 579.607 148.457C579.607 148.457 578.496 151.798 581.966 155.267Z" fill="#347983"/>
<path d="M626.377 153.185C626.377 153.185 619.438 171.782 618.328 175.945C617.218 180.109 632.762 138.612 643.032 169.006C643.032 169.006 651.359 158.736 637.897 147.217L626.377 153.185Z" fill="#347983"/>
<path d="M641.921 131.358C641.921 131.358 660.796 102.805 649.138 79.4888C637.48 56.1728 603.196 54.2298 588.834 77.5458C574.472 100.862 590.293 122.235 590.293 122.235C590.293 122.235 612.776 147.698 641.921 131.358Z" fill="#974430"/>
<path d="M598.898 112.104C598.898 112.104 598.801 114.288 599.731 116.406C600.679 118.571 608.162 126.638 611.718 129.016C615.275 131.395 619.338 128.345 620.965 126.26C624.897 121.217 643.124 124.085 643.587 130.423C644.077 137.137 635.967 161.095 618.976 153.601C601.984 146.106 587.795 138.057 587.656 126.815C587.517 115.573 588.834 109.05 588.834 109.05C588.834 109.05 598.863 105.789 599.037 109.328L598.898 112.104Z" fill="#D7D7D7"/>
<path d="M587.17 120.663C591.535 120.663 595.074 114.967 595.074 107.941C595.074 100.915 591.535 95.2188 587.17 95.2188C582.806 95.2188 579.267 100.915 579.267 107.941C579.267 114.967 582.806 120.663 587.17 120.663Z" fill="#974430"/>
<path d="M533.825 206.682C535.033 216.333 532.252 226.216 528.057 234.992C525.762 231.977 524.26 228.365 523.743 224.61C522.201 225.95 523.103 228.423 523.857 230.32C527.793 240.222 524.21 251.351 520.625 261.386C517.991 268.761 515.191 276.4 509.616 281.9C513.581 281.258 516.527 285.73 517.026 289.716C517.525 293.702 516.794 297.978 518.576 301.578C519.618 303.685 521.438 305.345 522.398 307.49C523.792 310.607 523.169 314.229 523.79 317.587C524.472 321.276 526.627 324.524 527.701 328.119C529.819 335.213 528 344.066 533.393 349.14C531.645 328.06 526.754 307.244 518.936 287.59C517.849 284.859 516.685 281.996 517.047 279.082C517.34 276.734 518.593 274.635 519.668 272.528C527.481 257.223 526.714 238.98 532.186 222.692C533.956 217.424 534.513 212.196 533.823 206.682H533.825Z" fill="#347983"/>
<path d="M532.668 206.681C533.821 216.269 531.149 225.803 527.059 234.407H529.056C526.816 231.42 525.395 227.998 524.859 224.303C524.728 223.401 523.489 223.249 522.926 223.792C521.652 225.024 521.583 226.737 521.978 228.374C522.433 230.257 523.323 232.002 523.768 233.896C524.744 238.033 524.532 242.376 523.768 246.528C522.99 250.761 521.681 254.878 520.268 258.936C518.967 262.669 517.664 266.424 516.039 270.033C514.217 274.077 511.958 277.93 508.801 281.082C507.904 281.978 508.861 283.16 509.927 283.015C511.995 282.736 513.649 284.411 514.595 286.049C515.779 288.096 516 290.342 516.072 292.663C516.151 295.242 516.093 297.902 516.87 300.392C517.646 302.883 519.456 304.725 520.804 306.948C522.224 309.294 522.194 311.965 522.331 314.616C522.467 317.266 523.044 319.788 524.09 322.284C525.137 324.78 526.263 326.97 526.876 329.491C527.408 331.679 527.608 333.926 527.822 336.162C528.293 341.074 528.832 346.34 532.579 349.958C533.25 350.606 534.642 350.182 534.553 349.141C532.888 329.279 528.518 309.66 521.494 291.003C519.854 286.645 517.014 281.843 518.736 277.115C519.524 274.95 520.8 272.97 521.745 270.869C522.689 268.768 523.47 266.727 524.166 264.595C526.993 255.927 528.077 246.829 529.692 237.889C530.613 232.79 531.741 227.751 533.36 222.826C535.074 217.612 535.637 212.13 534.981 206.681C534.806 205.222 532.491 205.204 532.668 206.681C533.258 211.573 532.878 216.46 531.456 221.182C530.128 225.592 528.875 229.953 527.988 234.481C526.226 243.471 525.237 252.634 522.706 261.459C522.101 263.57 521.407 265.657 520.596 267.699C519.724 269.89 518.63 271.953 517.579 274.058C516.528 276.163 515.729 278.298 515.838 280.65C515.948 283.002 516.81 285.342 517.693 287.57C521.347 296.784 524.405 306.221 526.777 315.848C529.472 326.783 531.3 337.918 532.24 349.141L534.214 348.324C530.874 345.099 530.525 340.243 530.108 335.879C529.885 333.535 529.663 331.17 529.108 328.876C528.47 326.247 527.228 323.849 526.195 321.362C525.69 320.146 525.243 318.897 524.973 317.604C524.676 316.183 524.651 314.726 524.586 313.28C524.46 310.533 524.144 307.875 522.633 305.508C521.122 303.141 519.354 301.331 518.788 298.538C518.221 295.745 518.516 293.077 518.258 290.365C517.814 285.696 514.757 280.047 509.314 280.785L510.439 282.718C516.045 277.121 518.911 269.609 521.531 262.292C524.345 254.433 527.286 246.083 526.654 237.601C526.479 235.238 526.031 232.888 525.222 230.658C524.721 229.276 523.236 226.709 524.565 225.427L522.631 224.916C523.192 228.777 524.721 232.453 527.061 235.573C527.529 236.196 528.645 236.441 529.058 235.573C533.312 226.62 536.182 216.668 534.983 206.679C534.808 205.22 532.493 205.202 532.67 206.679L532.668 206.681Z" fill="#347983"/>
<path d="M533.676 350.216C533.676 350.216 528.531 349.18 523.674 353.76C518.816 358.34 504.992 368.898 506.422 374.237C507.852 379.576 533.676 350.217 533.676 350.217V350.216Z" fill="#974430"/>
<path d="M649.231 367.053C657.928 362.304 654.004 323.77 654.004 323.77L660.102 326.975L669.262 337.662L672.177 342.658L672.736 346.264C672.736 346.264 670.835 356.259 653.277 365.095L649.229 367.053H649.231Z" fill="#974430"/>
<path d="M657.627 220.235C660.295 230.202 662.294 240.351 663.607 250.584C664.012 253.742 664.351 256.942 663.959 260.099C663.564 263.291 662.439 266.342 661.776 269.488C659.626 279.693 662.439 290.289 661.673 300.69C661.141 307.911 658.851 314.997 655.056 321.163C654.414 322.204 653.703 323.428 654.131 324.575C654.439 325.402 655.255 325.907 656.004 326.375C663.47 331.046 669.411 338.108 672.736 346.262C674.116 343.777 673.43 342.152 672.138 340.342C669.008 335.955 665.877 331.57 662.747 327.183C661.766 325.808 660.756 324.367 660.496 322.697C659.975 319.359 662.514 316.435 664.013 313.408C666.003 309.397 666.226 304.765 666.305 300.289C666.417 293.969 666.315 287.644 665.997 281.331C665.791 277.226 665.498 273.074 666.253 269.033C667.333 263.26 670.538 257.653 669.492 251.874C669.031 249.335 667.757 246.926 667.807 244.345C667.923 238.506 674.665 234.1 674.012 228.298C671.159 226.393 669.137 234.453 666.055 232.949C665.498 232.677 665.135 232.126 664.831 231.586C663.703 229.587 662.961 227.374 662.655 225.1C662.429 223.421 662.406 221.613 661.432 220.227C660.459 218.841 658.036 218.367 657.184 219.83" fill="#347983"/>
<path d="M632.552 92.2806C634.761 93.3857 637.158 94.1197 639.622 94.3517C642.21 94.5959 644.78 94.177 647.323 93.7327C648.168 93.5856 647.907 92.277 647.06 92.4252C644.629 92.8495 642.191 93.2554 639.717 93.0216C637.366 92.8 635.102 92.0764 632.996 91.0233C632.229 90.6401 631.794 91.9015 632.552 92.2806Z" fill="#A84E39"/>
<path d="M633.61 95.6793C636.674 97.977 640.619 97.725 644.227 97.4121C645.08 97.3379 644.813 96.0312 643.964 96.1045C640.716 96.3872 637.123 96.6487 634.363 94.5787C633.674 94.0619 632.925 95.1661 633.61 95.6793Z" fill="#A84E39"/>
</g>
<g clip-path="url(#clip1_1555_1616)">
<path d="M798.273 638.963C798.273 638.963 797.995 653.952 797.162 655.756C796.33 657.56 825.891 657.977 825.891 657.977C825.891 657.977 826.724 641.877 828.528 639.657C830.332 637.436 798.273 638.963 798.273 638.963Z" fill="#FECC8D"/>
<path d="M760.091 629.475C760.091 629.475 760.369 644.463 761.201 646.268C762.034 648.072 732.473 648.488 732.473 648.488C732.473 648.488 731.64 632.389 729.836 630.169C728.032 627.948 760.091 629.475 760.091 629.475Z" fill="#FECC8D"/>
<path d="M851.844 476.722C851.844 476.722 850.179 510.03 848.513 521.688C846.848 533.346 849.068 541.118 848.513 552.776C847.958 564.434 842.241 589.416 842.324 594.412C842.407 599.408 843.906 639.934 842.324 641.599C840.741 643.265 801.465 649.371 797.093 641.599C792.721 633.827 789.807 602.601 792.097 591.775C794.387 580.95 795.219 553.887 793.97 547.85C792.721 541.812 791.472 507.046 793.346 499.76C795.219 492.474 791.952 470.615 791.295 469.366C790.638 468.117 851.844 476.722 851.844 476.722Z" fill="#4B034F"/>
<path d="M726.567 351.425L831.234 339.75L792.652 465.49L788.974 411.215C788.974 411.215 789.807 413.158 783.7 435.641C777.594 458.125 768.156 490.601 768.156 490.601C768.615 499.067 765.643 532.325 764.394 538.362C763.144 544.399 763.977 571.463 766.267 582.288C768.557 593.113 765.643 624.34 761.271 632.112C756.899 639.884 717.623 633.778 716.04 632.112C714.458 630.447 715.957 589.921 716.04 584.925C716.123 579.929 713.336 557.634 712.781 545.976C712.225 534.318 715.279 522.868 713.613 511.21C711.948 499.552 716.32 447.448 716.32 447.448L726.567 351.425Z" fill="#4B034F"/>
<path d="M768.229 101.93C768.229 101.93 750.459 101.722 747.336 119.417C744.214 137.112 741.662 150.68 748.585 159.435C755.509 168.19 752.038 169.38 755.723 174.168C759.409 178.956 765.448 183.916 775.024 181.955C784.6 179.995 775.024 142.162 775.024 142.162L778.355 105.052L768.229 101.93Z" fill="#040C21"/>
<path d="M773.985 171.532C773.985 171.532 775.105 184.439 768.231 188.464L769.822 193.599L791.889 198.456L807.554 191.101L816.176 179.72L811.18 165.842L812.013 151.726L802.02 146.967L793.554 151.726L780.092 164.87L773.985 171.532Z" fill="#F1B378"/>
<path d="M767.532 188.741C767.532 188.741 796.679 202.967 812.466 178.506L817.564 184.023L820.201 209.42L817.009 240.925L818.258 300.325L818.397 341.128L807.849 361.391H802.857C802.857 361.391 783.423 368.469 774.957 368.191C766.491 367.914 752.751 362.64 749.975 362.64C747.2 362.64 749.975 340.712 749.975 340.712L746.089 305.738V250.917L749.281 229.544L760.083 191.378L767.532 188.741Z" fill="#FAFAFA"/>
<path d="M767.532 188.742C773.361 186.868 773.985 176.459 773.985 176.459C773.985 176.459 738.595 198.11 737.554 201.649C736.513 205.188 745.048 203.939 747.963 203.939C750.877 203.939 760.037 232.875 760.037 232.875L767.532 188.742Z" fill="#173D3E"/>
<path d="M804.171 220.385C804.171 220.385 805.837 239.954 802.922 254.943C800.008 269.932 806.253 281.174 805.837 285.753C805.42 290.333 799.215 308.445 805.856 321.352C812.498 334.259 802.298 360.49 801.257 368.4C800.216 376.311 797.301 422.943 793.554 432.311C789.807 441.679 785.227 473.323 789.182 476.862C793.138 480.401 856.008 488.103 860.171 482.066C864.335 476.029 875.16 421.486 870.441 369.58C865.723 317.674 866.555 325.724 866.555 325.724C866.555 325.724 893.202 330.72 896.533 304.628C899.864 278.537 883.765 257.164 882.655 250.224C881.544 243.285 879.046 217.748 868.498 208.866C857.951 199.984 826.028 181.957 826.028 181.957L804.171 220.385Z" fill="#1D5556"/>
<path d="M795.081 656.171C795.081 656.171 804.657 637.852 827.695 656.171C827.695 656.171 830.055 669.772 832.136 673.936C834.218 678.1 841.574 695.725 833.802 699.75C826.03 703.775 808.82 707.106 795.081 698.224C795.081 698.224 791.611 693.366 795.081 684.9C798.55 676.434 795.081 656.171 795.081 656.171Z" fill="#1A1A1A"/>
<path d="M763.283 646.685C763.283 646.685 753.707 628.365 730.669 646.685C730.669 646.685 728.309 660.286 726.227 664.45C724.146 668.613 716.79 686.239 724.562 690.264C732.334 694.289 749.543 697.62 763.283 688.737C763.283 688.737 766.753 683.88 763.283 675.414C759.814 666.948 763.283 646.685 763.283 646.685Z" fill="#1A1A1A"/>
<path d="M841.435 243.492C841.435 243.492 837.272 232.111 834.926 232.875C832.491 233.667 832.376 235.211 832.414 236.899C832.462 239.112 832.553 238.704 833.455 245.643C834.357 252.582 834.982 256.191 834.704 257.856C834.426 259.522 841.435 243.492 841.435 243.492Z" fill="#F1B378"/>
<path d="M763.576 115.463C763.576 115.463 745.257 125.039 751.086 155.017C756.915 184.995 774.055 176.816 783.908 171.542C793.762 166.268 801.633 153.074 803.699 147.8C805.767 142.526 787.659 117.961 787.659 117.961L763.574 115.463H763.576Z" fill="#FECC8D"/>
<path d="M760.083 217.47L756.915 202.064C756.915 202.064 745.048 200.191 742.342 200.399C740.613 200.532 735.31 206.619 731.709 210.993C731.709 210.993 724.791 216.914 721.669 231.695C718.546 246.476 701.475 277.286 700.434 294.357C699.394 311.428 699.596 344.987 703.925 358.337C705.425 363.954 709.132 373.97 709.658 375.894C710.282 378.184 710.074 389.009 710.491 396.295C710.907 403.582 697.375 451.046 706.535 458.124C715.695 465.202 748.587 461.039 753.167 459.79C757.747 458.541 757.331 414.407 756.976 407.329C756.62 400.251 751.296 362.987 753.867 349.663C756.44 336.34 754.416 312.816 754 306.778C753.584 300.741 754 272.637 757.331 263.269C760.662 253.901 760.037 232.875 760.037 232.875L760.083 217.47Z" fill="#1D5556"/>
<path d="M801.727 154.677C803.856 154.677 805.582 152.951 805.582 150.822C805.582 148.693 803.856 146.967 801.727 146.967C799.598 146.967 797.872 148.693 797.872 150.822C797.872 152.951 799.598 154.677 801.727 154.677Z" fill="white"/>
<path d="M838.729 238.705C838.729 238.705 838.619 248.489 834.926 254.11C831.232 259.731 830.498 268.058 834.926 272.43C839.353 276.801 841.435 277.009 841.435 277.009C841.435 277.009 856.008 266.184 856.84 260.355C857.673 254.526 851.22 225.797 846.848 223.924C842.476 222.05 838.729 225.381 838.312 229.753C837.896 234.125 838.781 237.432 838.729 238.705Z" fill="#FECC8D"/>
<path d="M804.171 220.384C822.907 181.247 808.335 172.295 808.335 172.295C808.335 172.295 837.272 179.165 834.773 205.604C834.773 205.604 834.982 211.433 828.32 207.685C821.658 203.938 817.138 202.144 812.082 208.102C807.026 214.06 804.171 220.384 804.171 220.384Z" fill="#173D3E"/>
<path d="M765.866 101.514C765.866 101.514 750.392 118.515 770.03 120.25C786.019 121.663 788.855 129.202 795.636 140.86C802.417 152.518 806.253 150.853 808.543 153.559C810.833 156.265 798.165 169.3 812.915 176.459C827.665 183.618 833.206 166.466 834.926 165.841C836.645 165.217 864.921 151.406 844.936 129.547C844.936 129.547 838.891 124.483 834.912 113.797C831.377 104.303 795.497 67.5811 765.866 101.514Z" fill="#040C21"/>
<path d="M707.405 369.223C707.405 369.223 725.231 360.456 727.313 345.676C727.313 345.676 733.766 354.419 733.558 355.877C733.35 357.334 718.159 371.403 709.207 374.472C709.207 374.472 708.38 372.049 707.405 369.223Z" fill="#FECC8D"/>
<path d="M856.914 258.699C856.443 262.227 852.241 267.562 849.554 269.895C845.776 273.177 841.167 274.64 837.387 277.921C836.63 278.578 835.809 279.369 835.81 280.371C835.814 281.857 837.495 282.64 838.764 283.415C844.415 286.867 844.506 294.924 847.655 300.751C849.88 304.867 853.7 307.889 856.249 311.81C859.443 316.725 861.07 323.431 866.498 325.644C861.887 321.376 861.725 314.175 858.6 308.724C856.788 305.563 853.882 302.739 853.731 299.097C853.627 296.572 854.863 293.781 853.477 291.669C851.95 292.983 849.489 291.89 848.278 290.279C847.068 288.667 846.485 286.618 845.098 285.157C843.471 283.445 842.239 283.027 841.431 280.809C840.855 279.228 841.237 278.765 842.32 277.478C843.403 276.19 846.268 274.565 847.7 273.684C850.107 272.204 851.545 270.59 853.344 268.41C855.142 266.23 857.324 261.49 856.91 258.695L856.914 258.699Z" fill="#173D3E"/>
<path d="M727.307 345.675C729.113 337.824 724.392 329.863 724.77 321.817C724.88 319.469 725.426 317.168 725.848 314.856C727 308.538 727.243 302.092 727.484 295.673C727.565 293.485 727.648 291.294 727.494 289.112C727.147 284.198 725.996 279.848 725.456 274.954C724.576 266.975 726.503 258.534 730.709 251.697C725.759 257.883 726.293 263.436 723.157 268.876C720.021 274.316 719.211 277.174 721.667 278.325C722.804 278.859 723.556 280 724.284 281.022C725.133 282.213 725.3 283.741 725.441 285.199C726.397 295.079 727.311 305.332 724.001 314.691C723.44 316.277 722.756 317.848 722.58 319.523C722.399 321.264 722.779 323.01 723.157 324.718C724.622 331.335 727.23 336.972 727.307 345.677V345.675Z" fill="#173D3E"/>
<path d="M779.962 155.466C781.001 156.578 781.275 158.204 780.733 159.663C780.504 160.279 781.494 160.513 781.721 159.9C782.391 158.096 781.971 156.096 780.701 154.737C780.266 154.271 779.527 155.001 779.962 155.467L779.962 155.466Z" fill="#F1B378"/>
</g>
<defs>
<clipPath id="clip0_1555_1616">
<rect width="230.909" height="642.839" fill="white" transform="translate(469 61)"/>
</clipPath>
<clipPath id="clip1_1555_1616">
<rect width="197.076" height="616.445" fill="white" transform="translate(699.91 87.4062)"/>
</clipPath>
</defs>
</svg>
