<svg width="1366" height="688" viewBox="0 0 1366 688" fill="none" xmlns="http://www.w3.org/2000/svg">
<path fill-rule="evenodd" clip-rule="evenodd" d="M848.455 27.3661C791.493 32.464 736.094 37.4221 681.837 37.4221C590 37.4221 520 32.0001 421 13.9214C317.571 -4.96602 143 -7.07099 82 22.9253C24.9126 56.3075 23.9982 57.5967 2.25814 88.2477C1.52977 89.2747 0.778021 90.3345 0 91.4297V687.43H1366V91.4297C1334.5 68.1509 1267.5 44.3392 1225 36.4226C1218.96 35.2967 1212.85 34.0545 1206.48 32.7567C1170.67 25.4656 1126.26 16.4221 1035 16.4221C970.738 16.4221 908.722 21.9724 848.455 27.3661Z" fill="#1D5556"/>
</svg>
