<svg width="112" height="74" viewBox="0 0 112 74" fill="none" xmlns="http://www.w3.org/2000/svg">
<path fill-rule="evenodd" clip-rule="evenodd" d="M10 0C4.47715 0 0 4.47715 0 10V61V62V72.5858C0 73.4767 1.07714 73.9229 1.70711 73.2929L13 62H102C107.523 62 112 57.5228 112 52V10C112 4.47715 107.523 0 102 0H10Z" fill="#FAFAFA"/>
<path fill-rule="evenodd" clip-rule="evenodd" d="M10 0C4.47715 0 0 4.47715 0 10V61V62V72.5858C0 73.4767 1.07714 73.9229 1.70711 73.2929L13 62H102C107.523 62 112 57.5228 112 52V10C112 4.47715 107.523 0 102 0H10Z" fill="#698F3F" fill-opacity="0.4"/>
<path d="M19.32 21.424C19.6933 21.7867 19.88 22.2453 19.88 22.8C19.88 23.1627 19.7893 23.488 19.608 23.776C19.4373 24.064 19.224 24.304 18.968 24.496C18.7227 24.688 18.472 24.8693 18.216 25.04C17.96 25.2107 17.7413 25.408 17.56 25.632C17.3893 25.8453 17.304 26.0747 17.304 26.32C17.304 26.6507 17.432 26.9227 17.688 27.136C17.9547 27.36 18.3333 27.472 18.824 27.472C19.72 27.472 20.4613 27.0987 21.048 26.352L22.136 27.552C21.272 28.608 20.1093 29.136 18.648 29.136C17.656 29.136 16.8667 28.9013 16.28 28.432C15.6933 27.9627 15.4 27.36 15.4 26.624C15.4 26.1867 15.496 25.792 15.688 25.44C15.8907 25.088 16.1307 24.8053 16.408 24.592C16.6853 24.368 16.9627 24.16 17.24 23.968C17.5173 23.776 17.752 23.568 17.944 23.344C18.1467 23.12 18.248 22.88 18.248 22.624C18.248 22.3147 18.1307 22.0747 17.896 21.904L19.32 21.424ZM17.96 18.432C18.184 18.208 18.4453 18.096 18.744 18.096C19.0427 18.096 19.304 18.208 19.528 18.432C19.752 18.656 19.864 18.9173 19.864 19.216C19.864 19.5147 19.752 19.776 19.528 20C19.304 20.224 19.0427 20.336 18.744 20.336C18.4453 20.336 18.184 20.224 17.96 20C17.736 19.776 17.624 19.5147 17.624 19.216C17.624 18.9173 17.736 18.656 17.96 18.432ZM27.6158 26.192C26.0158 26.192 24.6824 25.68 23.6158 24.656C22.5491 23.6213 22.0158 22.2933 22.0158 20.672C22.0158 19.0507 22.5491 17.728 23.6158 16.704C24.6824 15.6693 26.0158 15.152 27.6158 15.152C29.4931 15.152 30.9171 15.9467 31.8878 17.536L30.3038 18.368C30.0371 17.9093 29.6584 17.536 29.1678 17.248C28.6878 16.96 28.1704 16.816 27.6158 16.816C26.5598 16.816 25.6798 17.1787 24.9758 17.904C24.2824 18.6293 23.9358 19.552 23.9358 20.672C23.9358 21.7813 24.2824 22.704 24.9758 23.44C25.6798 24.1653 26.5598 24.528 27.6158 24.528C28.1704 24.528 28.6878 24.384 29.1678 24.096C29.6584 23.7973 30.0371 23.424 30.3038 22.976L31.9038 23.776C30.8798 25.3867 29.4504 26.192 27.6158 26.192ZM39.722 25.024C38.9967 25.8027 38.0367 26.192 36.842 26.192C35.6473 26.192 34.6873 25.8027 33.962 25.024C33.2367 24.2347 32.874 23.2693 32.874 22.128C32.874 20.976 33.2367 20.016 33.962 19.248C34.6873 18.4693 35.6473 18.08 36.842 18.08C38.0367 18.08 38.9967 18.4693 39.722 19.248C40.4473 20.016 40.81 20.976 40.81 22.128C40.81 23.2693 40.4473 24.2347 39.722 25.024ZM36.842 24.704C37.5353 24.704 38.0793 24.4587 38.474 23.968C38.8687 23.4667 39.066 22.8533 39.066 22.128C39.066 21.4133 38.8687 20.8107 38.474 20.32C38.0793 19.8187 37.5353 19.568 36.842 19.568C36.1593 19.568 35.6153 19.8187 35.21 20.32C34.8153 20.8107 34.618 21.4133 34.618 22.128C34.618 22.8533 34.8153 23.4667 35.21 23.968C35.6153 24.4587 36.1593 24.704 36.842 24.704ZM39.482 14.8L36.842 17.104H35.642L37.882 14.8H39.482ZM53.6935 26H52.0135V20.96C52.0135 20.032 51.5868 19.568 50.7335 19.568C50.3815 19.568 50.0402 19.6693 49.7095 19.872C49.3788 20.0747 49.1228 20.3147 48.9415 20.592V26H47.2615V20.96C47.2615 20.032 46.8402 19.568 45.9975 19.568C45.6455 19.568 45.3042 19.6693 44.9735 19.872C44.6535 20.0747 44.3975 20.3147 44.2055 20.592V26H42.5255V18.272H44.2055V19.312C44.4188 19.024 44.7602 18.7467 45.2295 18.48C45.6988 18.2133 46.2002 18.08 46.7335 18.08C47.2882 18.08 47.7468 18.208 48.1095 18.464C48.4722 18.7093 48.7175 19.0507 48.8455 19.488C49.0802 19.1147 49.4375 18.7893 49.9175 18.512C50.4082 18.224 50.9255 18.08 51.4695 18.08C52.1842 18.08 52.7335 18.2773 53.1175 18.672C53.5015 19.0667 53.6935 19.648 53.6935 20.416V26ZM62.2533 25.024C61.5279 25.8027 60.5679 26.192 59.3733 26.192C58.1786 26.192 57.2186 25.8027 56.4933 25.024C55.7679 24.2347 55.4053 23.2693 55.4053 22.128C55.4053 20.976 55.7679 20.016 56.4933 19.248C57.2186 18.4693 58.1786 18.08 59.3733 18.08C60.5679 18.08 61.5279 18.4693 62.2533 19.248C62.9786 20.016 63.3413 20.976 63.3413 22.128C63.3413 23.2693 62.9786 24.2347 62.2533 25.024ZM59.3733 24.704C60.0666 24.704 60.6106 24.4587 61.0053 23.968C61.3999 23.4667 61.5973 22.8533 61.5973 22.128C61.5973 21.4133 61.3999 20.8107 61.0053 20.32C60.6106 19.8187 60.0666 19.568 59.3733 19.568C58.6906 19.568 58.1466 19.8187 57.7413 20.32C57.3466 20.8107 57.1493 21.4133 57.1493 22.128C57.1493 22.8533 57.3466 23.4667 57.7413 23.968C58.1466 24.4587 58.6906 24.704 59.3733 24.704ZM71.1658 26.192C70.5151 26.192 70.0191 26.0213 69.6778 25.68C69.3471 25.3387 69.1818 24.8427 69.1818 24.192V15.328H70.8618V23.776C70.8618 24.0533 70.9258 24.2773 71.0538 24.448C71.1818 24.6187 71.3631 24.704 71.5978 24.704C71.9284 24.704 72.1791 24.608 72.3498 24.416L72.7498 25.696C72.3764 26.0267 71.8484 26.192 71.1658 26.192ZM77.3439 26.192C76.1599 26.192 75.1892 25.8187 74.4319 25.072C73.6745 24.3253 73.2959 23.344 73.2959 22.128C73.2959 20.9973 73.6639 20.0427 74.3999 19.264C75.1465 18.4747 76.0852 18.08 77.2159 18.08C78.3572 18.08 79.2745 18.4747 79.9679 19.264C80.6612 20.0427 81.0079 21.0453 81.0079 22.272V22.688H75.0559C75.1199 23.296 75.3705 23.8027 75.8079 24.208C76.2452 24.6133 76.8105 24.816 77.5039 24.816C78.3999 24.816 79.1359 24.528 79.7119 23.952L80.4799 25.056C79.6692 25.8133 78.6239 26.192 77.3439 26.192ZM79.3919 21.488C79.3599 20.9547 79.1572 20.4853 78.7839 20.08C78.4212 19.664 77.8932 19.456 77.1999 19.456C76.5385 19.456 76.0212 19.664 75.6479 20.08C75.2745 20.4853 75.0719 20.9547 75.0399 21.488H79.3919ZM86.2501 26.192C85.0661 26.192 84.0955 25.8187 83.3381 25.072C82.5808 24.3253 82.2021 23.344 82.2021 22.128C82.2021 20.9973 82.5701 20.0427 83.3061 19.264C84.0528 18.4747 84.9915 18.08 86.1221 18.08C87.2635 18.08 88.1808 18.4747 88.8741 19.264C89.5675 20.0427 89.9141 21.0453 89.9141 22.272V22.688H83.9621C84.0261 23.296 84.2768 23.8027 84.7141 24.208C85.1515 24.6133 85.7168 24.816 86.4101 24.816C87.3061 24.816 88.0421 24.528 88.6181 23.952L89.3861 25.056C88.5755 25.8133 87.5301 26.192 86.2501 26.192ZM88.2981 21.488C88.2661 20.9547 88.0635 20.4853 87.6901 20.08C87.3275 19.664 86.7995 19.456 86.1061 19.456C85.4448 19.456 84.9275 19.664 84.5541 20.08C84.1808 20.4853 83.9781 20.9547 83.9461 21.488H88.2981ZM93.2524 26H91.5724V18.272H93.2524V19.392C93.5617 19.008 93.935 18.6933 94.3724 18.448C94.8204 18.2027 95.2844 18.08 95.7644 18.08V19.744C95.615 19.712 95.4444 19.696 95.2524 19.696C94.8897 19.696 94.5057 19.8027 94.1004 20.016C93.7057 20.2187 93.423 20.4587 93.2524 20.736V26ZM18.072 47.192C17.4213 47.192 16.9253 47.0213 16.584 46.68C16.2533 46.3387 16.088 45.8427 16.088 45.192V36.328H17.768V44.776C17.768 45.0533 17.832 45.2773 17.96 45.448C18.088 45.6187 18.2693 45.704 18.504 45.704C18.8347 45.704 19.0853 45.608 19.256 45.416L19.656 46.696C19.2827 47.0267 18.7547 47.192 18.072 47.192ZM27.7861 47H26.1061V45.944C25.4661 46.776 24.6395 47.192 23.6261 47.192C22.6235 47.192 21.8021 46.8293 21.1621 46.104C20.5221 45.3787 20.2021 44.3867 20.2021 43.128C20.2021 41.9013 20.5221 40.92 21.1621 40.184C21.8021 39.448 22.6235 39.08 23.6261 39.08C24.6501 39.08 25.4768 39.5013 26.1061 40.344V39.272H27.7861V47ZM24.1221 45.704C24.5061 45.704 24.8848 45.6027 25.2581 45.4C25.6315 45.1973 25.9141 44.952 26.1061 44.664V41.608C25.9141 41.32 25.6315 41.0747 25.2581 40.872C24.8848 40.6693 24.5061 40.568 24.1221 40.568C23.4608 40.568 22.9275 40.808 22.5221 41.288C22.1275 41.7573 21.9301 42.3707 21.9301 43.128C21.9301 43.8853 22.1275 44.504 22.5221 44.984C22.9275 45.464 23.4608 45.704 24.1221 45.704ZM37.24 50.136C35.928 50.136 34.8453 49.752 33.992 48.984L34.776 47.768C35.3627 48.4293 36.184 48.76 37.24 48.76C37.88 48.76 38.4187 48.5893 38.856 48.248C39.304 47.9067 39.528 47.3573 39.528 46.6V45.72C38.8773 46.584 38.0507 47.016 37.048 47.016C36.0347 47.016 35.208 46.664 34.568 45.96C33.9387 45.256 33.624 44.2853 33.624 43.048C33.624 41.8107 33.9387 40.84 34.568 40.136C35.1973 39.432 36.024 39.08 37.048 39.08C38.072 39.08 38.8987 39.5013 39.528 40.344V39.272H41.208V46.6C41.208 47.2613 41.0907 47.832 40.856 48.312C40.632 48.8027 40.3173 49.1707 39.912 49.416C39.5173 49.672 39.1013 49.8533 38.664 49.96C38.2267 50.0773 37.752 50.136 37.24 50.136ZM37.544 45.512C37.928 45.512 38.3013 45.416 38.664 45.224C39.0373 45.0213 39.3253 44.776 39.528 44.488V41.592C39.3253 41.304 39.0373 41.064 38.664 40.872C38.3013 40.6693 37.928 40.568 37.544 40.568C36.872 40.568 36.3387 40.7973 35.944 41.256C35.5493 41.704 35.352 42.3013 35.352 43.048C35.352 43.7947 35.5493 44.392 35.944 44.84C36.3387 45.288 36.872 45.512 37.544 45.512ZM45.0649 47H43.3849V39.272H45.0649V40.392C45.3742 40.008 45.7475 39.6933 46.1849 39.448C46.6329 39.2027 47.0969 39.08 47.5769 39.08V40.744C47.4275 40.712 47.2569 40.696 47.0649 40.696C46.7022 40.696 46.3182 40.8027 45.9129 41.016C45.5182 41.2187 45.2355 41.4587 45.0649 41.736V47ZM55.2518 35.8L52.6118 38.104H51.4118L53.6518 35.8H55.2518ZM56.0518 47H54.3718V45.944C53.7318 46.776 52.9051 47.192 51.8918 47.192C50.8891 47.192 50.0678 46.8293 49.4278 46.104C48.7878 45.3787 48.4678 44.3867 48.4678 43.128C48.4678 41.9013 48.7878 40.92 49.4278 40.184C50.0678 39.448 50.8891 39.08 51.8918 39.08C52.9158 39.08 53.7424 39.5013 54.3718 40.344V39.272H56.0518V47ZM52.3878 45.704C52.7718 45.704 53.1504 45.6027 53.5238 45.4C53.8971 45.1973 54.1798 44.952 54.3718 44.664V41.608C54.1798 41.32 53.8971 41.0747 53.5238 40.872C53.1504 40.6693 52.7718 40.568 52.3878 40.568C51.7264 40.568 51.1931 40.808 50.7878 41.288C50.3931 41.7573 50.1957 42.3707 50.1957 43.128C50.1957 43.8853 50.3931 44.504 50.7878 44.984C51.1931 45.464 51.7264 45.704 52.3878 45.704ZM60.3246 47H58.6446V40.728H57.3646V39.272H58.6446V38.84C58.6446 37.9973 58.8686 37.3413 59.3166 36.872C59.7646 36.4027 60.3513 36.168 61.0766 36.168C61.6313 36.168 62.0846 36.264 62.4366 36.456L62.0686 37.72C61.8873 37.6027 61.6633 37.544 61.3966 37.544C60.682 37.544 60.3246 37.976 60.3246 38.84V39.272H61.8926V40.728H60.3246V47ZM64.7566 38.024C64.554 38.2267 64.3086 38.328 64.0206 38.328C63.7326 38.328 63.4873 38.2267 63.2846 38.024C63.082 37.8213 62.9806 37.576 62.9806 37.288C62.9806 37 63.082 36.7547 63.2846 36.552C63.4873 36.3493 63.7326 36.248 64.0206 36.248C64.3086 36.248 64.554 36.3493 64.7566 36.552C64.9593 36.7547 65.0606 37 65.0606 37.288C65.0606 37.576 64.9593 37.8213 64.7566 38.024ZM64.8526 47H63.1726V39.272H64.8526V47ZM70.5455 47.192C69.3828 47.192 68.4282 46.808 67.6815 46.04C66.9348 45.272 66.5615 44.3013 66.5615 43.128C66.5615 41.9547 66.9348 40.9893 67.6815 40.232C68.4282 39.464 69.3828 39.08 70.5455 39.08C71.8362 39.08 72.8228 39.5387 73.5055 40.456L72.4015 41.464C71.9748 40.8667 71.3828 40.568 70.6255 40.568C69.9322 40.568 69.3668 40.808 68.9295 41.288C68.5028 41.7573 68.2895 42.3707 68.2895 43.128C68.2895 43.8853 68.5028 44.504 68.9295 44.984C69.3668 45.464 69.9322 45.704 70.6255 45.704C71.3722 45.704 71.9642 45.3947 72.4015 44.776L73.5055 45.816C72.8122 46.7333 71.8255 47.192 70.5455 47.192ZM82.1143 47H80.4343V45.944C79.7943 46.776 78.9676 47.192 77.9543 47.192C76.9516 47.192 76.1303 46.8293 75.4903 46.104C74.8503 45.3787 74.5303 44.3867 74.5303 43.128C74.5303 41.9013 74.8503 40.92 75.4903 40.184C76.1303 39.448 76.9516 39.08 77.9543 39.08C78.9783 39.08 79.8049 39.5013 80.4343 40.344V39.272H82.1143V47ZM78.4503 45.704C78.8343 45.704 79.2129 45.6027 79.5863 45.4C79.9596 45.1973 80.2423 44.952 80.4343 44.664V41.608C80.2423 41.32 79.9596 41.0747 79.5863 40.872C79.2129 40.6693 78.8343 40.568 78.4503 40.568C77.7889 40.568 77.2556 40.808 76.8503 41.288C76.4556 41.7573 76.2582 42.3707 76.2582 43.128C76.2582 43.8853 76.4556 44.504 76.8503 44.984C77.2556 45.464 77.7889 45.704 78.4503 45.704ZM85.8209 43.864C85.4475 43.5013 85.2609 43.0427 85.2609 42.488C85.2609 42.1253 85.3462 41.8 85.5169 41.512C85.6982 41.224 85.9115 40.984 86.1569 40.792C86.4129 40.6 86.6689 40.4187 86.9249 40.248C87.1809 40.0773 87.3942 39.8853 87.5649 39.672C87.7462 39.4587 87.8369 39.2293 87.8369 38.984C87.8369 38.6533 87.7035 38.3813 87.4369 38.168C87.1809 37.944 86.8075 37.832 86.3169 37.832C85.4102 37.832 84.6689 38.2053 84.0929 38.952L83.0049 37.752C83.8582 36.696 85.0209 36.168 86.4929 36.168C87.4849 36.168 88.2742 36.4027 88.8609 36.872C89.4475 37.3413 89.7409 37.944 89.7409 38.68C89.7409 39.1173 89.6395 39.512 89.4369 39.864C89.2449 40.2053 89.0102 40.488 88.7329 40.712C88.4555 40.9253 88.1782 41.128 87.9009 41.32C87.6235 41.512 87.3835 41.72 87.1809 41.944C86.9889 42.168 86.8929 42.408 86.8929 42.664C86.8929 42.9733 87.0102 43.2133 87.2449 43.384L85.8209 43.864ZM87.1809 46.84C86.9569 47.064 86.6955 47.176 86.3969 47.176C86.0982 47.176 85.8369 47.064 85.6129 46.84C85.3889 46.616 85.2769 46.3493 85.2769 46.04C85.2769 45.7413 85.3889 45.4853 85.6129 45.272C85.8369 45.048 86.0982 44.936 86.3969 44.936C86.6955 44.936 86.9569 45.048 87.1809 45.272C87.4049 45.4853 87.5169 45.7413 87.5169 46.04C87.5169 46.3493 87.4049 46.616 87.1809 46.84Z" fill="#1D5556"/>
</svg>
