<svg width="184" height="32" viewBox="0 0 184 32" fill="none" xmlns="http://www.w3.org/2000/svg">
<path d="M25.0581 0C27.2742 0 29.0708 1.79087 29.0708 4C29.0708 6.20913 27.2742 8 25.0581 8C22.842 8 21.0454 6.20913 21.0454 4C21.0454 1.79087 22.842 0 25.0581 0ZM28.0676 9H27.3554C25.9314 9.65269 24.2462 9.68087 22.7608 9H22.0486C20.3865 9 19.0391 10.3431 19.0391 12V20.5C19.0391 21.3284 19.7128 22 20.5438 22H21.547V30.5C21.547 31.3284 22.2207 32 23.0518 32H27.0645C27.8955 32 28.5692 31.3284 28.5692 30.5V22H29.5724C30.4035 22 31.0772 21.3284 31.0772 20.5V12C31.0772 10.3431 29.7298 9 28.0676 9Z" fill="#1D5556"/>
<path d="M6.01905 0C8.23519 0 10.0317 1.79087 10.0317 4C10.0317 6.20913 8.23519 8 6.01905 8C3.80291 8 2.00635 6.20913 2.00635 4C2.00635 1.79087 3.80291 0 6.01905 0ZM9.02857 9H8.31632C6.89237 9.65269 5.2071 9.68087 3.72178 9H3.00952C1.34739 9 0 10.3431 0 12V20.5C0 21.3284 0.673694 22 1.50476 22H2.50794V30.5C2.50794 31.3284 3.18163 32 4.0127 32H8.0254C8.85646 32 9.53016 31.3284 9.53016 30.5V22H10.5333C11.3644 22 12.0381 21.3284 12.0381 20.5V12C12.0381 10.3431 10.6907 9 9.02857 9Z" fill="#1D5556"/>
<path opacity="0.2" d="M63.1362 0C65.3524 0 67.1489 1.79087 67.1489 4C67.1489 6.20913 65.3524 8 63.1362 8C60.9201 8 59.1235 6.20913 59.1235 4C59.1235 1.79087 60.9201 0 63.1362 0ZM66.1458 9H65.4335C64.0096 9.65269 62.3243 9.68087 60.839 9H60.1267C58.4646 9 57.1172 10.3431 57.1172 12V20.5C57.1172 21.3284 57.7909 22 58.6219 22H59.6251V30.5C59.6251 31.3284 60.2988 32 61.1299 32H65.1426C65.9737 32 66.6473 31.3284 66.6473 30.5V22H67.6505C68.4816 22 69.1553 21.3284 69.1553 20.5V12C69.1553 10.3431 67.8079 9 66.1458 9Z" fill="#1A1A1A"/>
<path opacity="0.2" d="M101.214 0C103.43 0 105.227 1.79087 105.227 4C105.227 6.20913 103.43 8 101.214 8C98.9982 8 97.2017 6.20913 97.2017 4C97.2017 1.79087 98.9982 0 101.214 0ZM104.224 9H103.512C102.088 9.65269 100.402 9.68087 98.9171 9H98.2048C96.5427 9 95.1953 10.3431 95.1953 12V20.5C95.1953 21.3284 95.869 22 96.7001 22H97.7032V30.5C97.7032 31.3284 98.3769 32 99.208 32H103.221C104.052 32 104.725 31.3284 104.725 30.5V22H105.729C106.56 22 107.233 21.3284 107.233 20.5V12C107.233 10.3431 105.886 9 104.224 9Z" fill="#1A1A1A"/>
<path opacity="0.2" d="M139.292 0C141.509 0 143.305 1.79087 143.305 4C143.305 6.20913 141.509 8 139.292 8C137.076 8 135.28 6.20913 135.28 4C135.28 1.79087 137.076 0 139.292 0ZM142.302 9H141.59C140.166 9.65269 138.481 9.68087 136.995 9H136.283C134.621 9 133.273 10.3431 133.273 12V20.5C133.273 21.3284 133.947 22 134.778 22H135.781V30.5C135.781 31.3284 136.455 32 137.286 32H141.299C142.13 32 142.804 31.3284 142.804 30.5V22H143.807C144.638 22 145.312 21.3284 145.312 20.5V12C145.312 10.3431 143.964 9 142.302 9Z" fill="#1A1A1A"/>
<path opacity="0.2" d="M177.371 0C179.587 0 181.383 1.79087 181.383 4C181.383 6.20913 179.587 8 177.371 8C175.154 8 173.358 6.20913 173.358 4C173.358 1.79087 175.154 0 177.371 0ZM180.38 9H179.668C178.244 9.65269 176.559 9.68087 175.073 9H174.361C172.699 9 171.352 10.3431 171.352 12V20.5C171.352 21.3284 172.025 22 172.856 22H173.859V30.5C173.859 31.3284 174.533 32 175.364 32H179.377C180.208 32 180.882 31.3284 180.882 30.5V22H181.885C182.716 22 183.39 21.3284 183.39 20.5V12C183.39 10.3431 182.042 9 180.38 9Z" fill="#1A1A1A"/>
<path opacity="0.2" d="M44.0972 0C46.3133 0 48.1099 1.79087 48.1099 4C48.1099 6.20913 46.3133 8 44.0972 8C41.881 8 40.0845 6.20913 40.0845 4C40.0845 1.79087 41.881 0 44.0972 0ZM47.1067 9H46.3944C44.9705 9.65269 43.2852 9.68087 41.7999 9H41.0876C39.4255 9 38.0781 10.3431 38.0781 12V20.5C38.0781 21.3284 38.7518 22 39.5829 22H40.5861V30.5C40.5861 31.3284 41.2598 32 42.0908 32H46.1035C46.9346 32 47.6083 31.3284 47.6083 30.5V22H48.6115C49.4425 22 50.1162 21.3284 50.1162 20.5V12C50.1162 10.3431 48.7688 9 47.1067 9Z" fill="#1A1A1A"/>
<path opacity="0.2" d="M82.1753 0C84.3914 0 86.188 1.79087 86.188 4C86.188 6.20913 84.3914 8 82.1753 8C79.9592 8 78.1626 6.20913 78.1626 4C78.1626 1.79087 79.9592 0 82.1753 0ZM85.1848 9H84.4726C83.0486 9.65269 81.3634 9.68087 79.878 9H79.1658C77.5036 9 76.1562 10.3431 76.1562 12V20.5C76.1562 21.3284 76.8299 22 77.661 22H78.6642V30.5C78.6642 31.3284 79.3379 32 80.1689 32H84.1816C85.0127 32 85.6864 31.3284 85.6864 30.5V22H86.6896C87.5206 22 88.1943 21.3284 88.1943 20.5V12C88.1943 10.3431 86.847 9 85.1848 9Z" fill="#1A1A1A"/>
<path opacity="0.2" d="M120.253 0C122.47 0 124.266 1.79087 124.266 4C124.266 6.20913 122.47 8 120.253 8C118.037 8 116.241 6.20913 116.241 4C116.241 1.79087 118.037 0 120.253 0ZM123.263 9H122.551C121.127 9.65269 119.441 9.68087 117.956 9H117.244C115.582 9 114.234 10.3431 114.234 12V20.5C114.234 21.3284 114.908 22 115.739 22H116.742V30.5C116.742 31.3284 117.416 32 118.247 32H122.26C123.091 32 123.765 31.3284 123.765 30.5V22H124.768C125.599 22 126.272 21.3284 126.272 20.5V12C126.272 10.3431 124.925 9 123.263 9Z" fill="#1A1A1A"/>
<path opacity="0.2" d="M158.332 0C160.548 0 162.344 1.79087 162.344 4C162.344 6.20913 160.548 8 158.332 8C156.115 8 154.319 6.20913 154.319 4C154.319 1.79087 156.115 0 158.332 0ZM161.341 9H160.629C159.205 9.65269 157.52 9.68087 156.034 9H155.322C153.66 9 152.312 10.3431 152.312 12V20.5C152.312 21.3284 152.986 22 153.817 22H154.82V30.5C154.82 31.3284 155.494 32 156.325 32H160.338C161.169 32 161.843 31.3284 161.843 30.5V22H162.846C163.677 22 164.351 21.3284 164.351 20.5V12C164.351 10.3431 163.003 9 161.341 9Z" fill="#1A1A1A"/>
</svg>
