<svg width="80" height="80" viewBox="0 0 80 80" fill="none" xmlns="http://www.w3.org/2000/svg">
<circle opacity="0.1" cx="40" cy="40" r="40" fill="#1D5556"/>
<path d="M40.4718 68L41.7602 67.1572C42.8446 66.4486 68.3116 49.6191 68.3116 34.443C68.3116 23.6474 60.6404 18 53.0657 18C48.2236 18 43.6874 20.26 40.4718 24.1681C37.2723 20.2654 32.7308 18 27.8778 18C20.3032 18 12.632 23.6474 12.632 34.443C12.632 49.6191 38.099 66.4486 39.1834 67.1572L40.4718 68Z" fill="#B6174B"/>
<g opacity="0.2">
<path d="M26.6217 18.0586C25.8164 18.3109 25.0595 18.6867 24.3724 19.2342C23.1538 20.2113 22.3324 21.607 21.7527 23.0564C19.6215 28.371 20.4428 34.4908 22.6116 39.7893C24.7804 45.0878 28.1892 49.7689 31.3726 54.5306C34.3412 58.9648 37.1488 63.517 40.2517 67.8492L39.1834 67.1514C38.099 66.4427 12.632 49.6132 12.632 34.4372C12.632 24.2428 19.4765 18.6491 26.6217 18.0586Z" fill="#FAFAFA"/>
</g>
<path d="M11 45.6043H40.4718L44.3047 30.8148L46.393 58.1822L50.2796 35.5979L52.8134 50.6773L56.3994 27.6797L58.638 45.8996H69.0953" stroke="#FAFAFA" stroke-width="2.02" stroke-linecap="round" stroke-linejoin="round"/>
</svg>
