<svg width="80" height="80" viewBox="0 0 80 80" fill="none" xmlns="http://www.w3.org/2000/svg">
<circle opacity="0.1" cx="40" cy="40" r="40" fill="#1D5556"/>
<path opacity="0.4" d="M58.3566 41.7406C58.9088 43.438 52.5853 47.0195 44.2285 49.7429C35.8718 52.4663 28.6492 53.2945 28.0971 51.597C27.5449 49.8996 33.8684 46.3181 42.2252 43.5947C50.5819 40.8713 57.8045 40.0431 58.3566 41.7406Z" fill="#1A1A1A"/>
<path d="M42.2254 43.6027C50.5822 40.8793 57.8048 40.0511 58.3569 41.7486L54.6598 30.3998C54.1077 28.7024 46.8851 29.5343 38.5283 32.254C30.1716 34.9774 23.8443 38.5588 24.4002 40.2563L28.0973 51.605C27.5452 49.9076 33.8687 46.3261 42.2254 43.6027Z" fill="#1A1A1A"/>
<path d="M71.2874 25.3725L35.1855 22L21.5909 33.9942L8 45.992L9.33932 46.1748L9.39901 46.1226L26.84 47.7529L24.3964 40.258C23.8442 38.5605 30.1677 34.9791 38.5245 32.2557C46.8812 29.5323 54.1038 28.704 54.656 30.4015L57.0996 37.8965L70.2353 26.3052L70.3136 26.3127L71.2874 25.3763V25.3725Z" fill="#1A1A1A"/>
<path opacity="0.2" d="M54.5252 30.1648C54.4879 30.12 54.4469 30.079 54.4021 30.0417C54.3872 30.0305 54.3723 30.0155 54.3574 30.0043C54.2939 29.9558 54.2193 29.9111 54.1372 29.87C54.1223 29.8626 54.1037 29.8551 54.0887 29.8477C54.0179 29.8141 53.9395 29.7842 53.8537 29.7581C53.8239 29.7469 53.794 29.7395 53.7642 29.7283C53.6746 29.7022 53.5776 29.676 53.4769 29.6537C53.4583 29.6499 53.4396 29.6462 53.421 29.6425C53.2978 29.6164 53.1673 29.5977 53.0255 29.579C52.9919 29.5753 52.9546 29.5716 52.921 29.5679C52.8091 29.5567 52.6897 29.5455 52.5704 29.538C52.5293 29.538 52.4883 29.5305 52.4472 29.5305C52.2868 29.5231 52.1227 29.5156 51.9473 29.5156C51.772 29.5156 51.5892 29.5156 51.4026 29.5231C51.3541 29.5231 51.3057 29.5231 51.2534 29.5268C51.0967 29.5343 50.9363 29.5417 50.7722 29.5529C50.7311 29.5529 50.6901 29.5567 50.6491 29.5604C50.4401 29.5753 50.2275 29.594 50.0074 29.6126C49.9738 29.6126 49.9402 29.6201 49.9066 29.6238C49.7164 29.6425 49.5224 29.6649 49.3247 29.6872C49.265 29.6947 49.209 29.7022 49.1493 29.7096C48.9367 29.7357 48.7166 29.7656 48.4927 29.7992C48.4703 29.7992 48.4517 29.8066 48.433 29.8066C48.1831 29.8439 47.9294 29.885 47.672 29.9297C47.616 29.9372 47.5638 29.9484 47.5078 29.9596C47.2952 29.9969 47.0788 30.0342 46.8587 30.0752C46.799 30.0864 46.7393 30.0976 46.6796 30.1088C46.4073 30.161 46.1312 30.217 45.8477 30.273L49.5448 41.6217C54.4432 40.5995 57.991 40.5696 58.3716 41.7374L54.6745 30.3886C54.6521 30.3215 54.6185 30.2618 54.5775 30.2058C54.5663 30.1909 54.5513 30.1722 54.5402 30.1573L54.5252 30.1648Z" fill="#FAFAFA"/>
<path d="M22.9447 59C22.4221 59 21.9967 58.5917 22 58.094L22.1039 32.8996C22.1039 32.402 22.5327 31.9968 23.0553 32C23.5779 32 24.0033 32.4083 24 32.906L23.8961 58.1004C23.8961 58.598 23.4673 59.0032 22.9447 59Z" fill="#FAFAFA"/>
<path d="M23.7932 66.8629L21.5287 66.8555C20.4393 66.8517 19.7006 65.74 20.1185 64.7327L22.1293 59.8828H23.2411L25.2146 64.7514C25.625 65.7624 24.8788 66.8667 23.7895 66.8629H23.7932Z" fill="#FAFAFA"/>
<path d="M24.8958 60.216C24.8921 61.436 23.8997 62.4171 22.6798 62.4134C21.4599 62.4097 20.4787 61.4173 20.4824 60.1974C20.4862 58.9775 21.4785 57.9963 22.6985 58C23.9184 58.0037 24.8996 58.9961 24.8958 60.216Z" fill="#1A1A1A"/>
</svg>
