<svg width="520" height="15" viewBox="0 0 520 15" fill="none" xmlns="http://www.w3.org/2000/svg">
<rect y="1" width="13" height="13" rx="2" fill="#1D5556"/>
<path d="M37.62 14H35.96V2.78L31.44 14H30.76L26.22 2.78V14H24.56V0.659999H26.94L31.1 10.94L35.24 0.659999H37.62V14ZM48.2519 -9.53674e-07L44.8719 2.88H43.7319L46.6919 -9.53674e-07H48.2519ZM49.1719 14H47.6719V12.56C46.8452 13.68 45.7585 14.24 44.4119 14.24C43.1319 14.24 42.0919 13.7867 41.2919 12.88C40.5052 11.96 40.1119 10.7267 40.1119 9.18C40.1119 7.64667 40.5119 6.42 41.3119 5.5C42.1119 4.56667 43.1452 4.1 44.4119 4.1C45.7452 4.1 46.8319 4.66667 47.6719 5.8V4.34H49.1719V14ZM44.7919 12.9C45.3652 12.9 45.9185 12.7533 46.4519 12.46C46.9985 12.1533 47.4052 11.7867 47.6719 11.36V7C47.4052 6.56 46.9985 6.19333 46.4519 5.9C45.9185 5.59333 45.3652 5.44 44.7919 5.44C43.8319 5.44 43.0719 5.79333 42.5119 6.5C41.9519 7.19333 41.6719 8.08667 41.6719 9.18C41.6719 10.2733 41.9519 11.1667 42.5119 11.86C43.0719 12.5533 43.8319 12.9 44.7919 12.9ZM55.2558 14.24C53.6291 14.24 52.3291 13.7333 51.3558 12.72L52.1158 11.64C52.4491 12.0267 52.9024 12.3533 53.4758 12.62C54.0624 12.8867 54.6691 13.02 55.2958 13.02C56.0158 13.02 56.5758 12.8667 56.9758 12.56C57.3891 12.2533 57.5958 11.8533 57.5958 11.36C57.5958 10.9333 57.3891 10.6 56.9758 10.36C56.5624 10.1067 56.0624 9.92 55.4758 9.8C54.8891 9.66667 54.3024 9.52 53.7158 9.36C53.1424 9.18667 52.6491 8.9 52.2358 8.5C51.8224 8.08667 51.6158 7.54667 51.6158 6.88C51.6158 6.09333 51.9358 5.43333 52.5758 4.9C53.2158 4.36667 54.0891 4.1 55.1958 4.1C56.6758 4.1 57.8691 4.56667 58.7758 5.5L58.0758 6.54C57.3958 5.72667 56.4358 5.32 55.1958 5.32C54.5424 5.32 54.0224 5.46667 53.6358 5.76C53.2491 6.04 53.0558 6.4 53.0558 6.84C53.0558 7.16 53.2024 7.42667 53.4958 7.64C53.7891 7.85333 54.1558 8.00667 54.5958 8.1C55.0491 8.19333 55.5291 8.31333 56.0358 8.46C56.5558 8.60667 57.0358 8.77333 57.4758 8.96C57.9291 9.13333 58.3024 9.42667 58.5958 9.84C58.8891 10.24 59.0358 10.7333 59.0358 11.32C59.0358 12.1733 58.7024 12.8733 58.0358 13.42C57.3824 13.9667 56.4558 14.24 55.2558 14.24ZM75.1484 14H73.6484V12.56C72.8218 13.68 71.7351 14.24 70.3884 14.24C69.1084 14.24 68.0684 13.7867 67.2684 12.88C66.4818 11.96 66.0884 10.7267 66.0884 9.18C66.0884 7.64667 66.4884 6.42 67.2884 5.5C68.0884 4.56667 69.1218 4.1 70.3884 4.1C71.7218 4.1 72.8084 4.66667 73.6484 5.8V0.659999H75.1484V14ZM70.7684 12.9C71.3418 12.9 71.8951 12.7533 72.4284 12.46C72.9751 12.1533 73.3818 11.7867 73.6484 11.36V7C73.3818 6.56 72.9751 6.19333 72.4284 5.9C71.8951 5.59333 71.3418 5.44 70.7684 5.44C69.8084 5.44 69.0484 5.79333 68.4884 6.5C67.9284 7.19333 67.6484 8.08667 67.6484 9.18C67.6484 10.2733 67.9284 11.1667 68.4884 11.86C69.0484 12.5533 69.8084 12.9 70.7684 12.9ZM82.5323 14.24C81.079 14.24 79.8923 13.7733 78.9723 12.84C78.0523 11.8933 77.5923 10.6667 77.5923 9.16C77.5923 7.74667 78.0457 6.55333 78.9523 5.58C79.859 4.59333 80.9923 4.1 82.3523 4.1C83.779 4.1 84.9057 4.59333 85.7323 5.58C86.5723 6.55333 86.9923 7.78667 86.9923 9.28V9.66H79.1923C79.259 10.6067 79.599 11.4 80.2123 12.04C80.839 12.68 81.6523 13 82.6523 13C83.8523 13 84.8523 12.5867 85.6523 11.76L86.3723 12.74C85.3457 13.74 84.0657 14.24 82.5323 14.24ZM85.5123 8.54C85.499 7.72667 85.219 6.99333 84.6723 6.34C84.1257 5.67333 83.3457 5.34 82.3323 5.34C81.3723 5.34 80.6123 5.66667 80.0523 6.32C79.5057 6.97333 79.2123 7.71333 79.1723 8.54H85.5123ZM99.2777 14.24C98.371 14.24 97.5777 14.0533 96.8977 13.68C96.2177 13.3067 95.6777 12.7933 95.2777 12.14C94.891 11.4867 94.5977 10.76 94.3977 9.96C94.211 9.16 94.1177 8.28667 94.1177 7.34C94.1177 5.39333 94.5777 3.76 95.4977 2.44C96.431 1.12 97.7843 0.459999 99.5577 0.459999C101.104 0.459999 102.331 0.993333 103.238 2.06L102.398 3.3C101.624 2.39333 100.678 1.94 99.5577 1.94C98.3443 1.94 97.411 2.45333 96.7577 3.48C96.1177 4.50667 95.7977 5.74 95.7977 7.18V7.7C96.131 7.16667 96.6443 6.68667 97.3377 6.26C98.0443 5.83333 98.791 5.62 99.5777 5.62C100.844 5.62 101.884 5.99333 102.698 6.74C103.524 7.47333 103.938 8.52 103.938 9.88C103.938 11.08 103.511 12.1067 102.658 12.96C101.804 13.8133 100.678 14.24 99.2777 14.24ZM99.1977 12.76C100.158 12.76 100.904 12.4667 101.438 11.88C101.984 11.2933 102.258 10.6467 102.258 9.94C102.258 9.00667 101.971 8.29333 101.398 7.8C100.824 7.30667 100.091 7.06 99.1977 7.06C98.5443 7.06 97.9177 7.24667 97.3177 7.62C96.7177 7.98 96.231 8.45333 95.8577 9.04C95.9377 10.0267 96.251 10.8933 96.7977 11.64C97.3443 12.3867 98.1443 12.76 99.1977 12.76ZM111.034 14.24C110.154 14.24 109.374 14.04 108.694 13.64C108.027 13.2267 107.494 12.68 107.094 12C106.707 11.32 106.414 10.5867 106.214 9.8C106.027 9.01333 105.934 8.19333 105.934 7.34C105.934 6.48667 106.027 5.66667 106.214 4.88C106.414 4.09333 106.707 3.36667 107.094 2.7C107.494 2.02 108.027 1.48 108.694 1.08C109.374 0.666666 110.154 0.459999 111.034 0.459999C111.901 0.459999 112.674 0.666666 113.354 1.08C114.034 1.48 114.567 2.02 114.954 2.7C115.354 3.36667 115.647 4.09333 115.834 4.88C116.034 5.66667 116.134 6.48667 116.134 7.34C116.134 8.19333 116.034 9.01333 115.834 9.8C115.647 10.5867 115.354 11.32 114.954 12C114.567 12.68 114.034 13.2267 113.354 13.64C112.674 14.04 111.901 14.24 111.034 14.24ZM109.034 11.94C109.567 12.4867 110.234 12.76 111.034 12.76C111.834 12.76 112.501 12.4867 113.034 11.94C113.567 11.38 113.934 10.7133 114.134 9.94C114.334 9.16667 114.434 8.3 114.434 7.34C114.434 6.38 114.334 5.51333 114.134 4.74C113.934 3.96667 113.567 3.30667 113.034 2.76C112.501 2.21333 111.834 1.94 111.034 1.94C110.234 1.94 109.567 2.21333 109.034 2.76C108.501 3.30667 108.134 3.96667 107.934 4.74C107.734 5.51333 107.634 6.38 107.634 7.34C107.634 8.3 107.734 9.16667 107.934 9.94C108.134 10.7133 108.501 11.38 109.034 11.94Z" fill="#1A1A1A"/>
<rect x="138" y="1" width="13" height="13" rx="2" fill="#FAAA8D"/>
<path d="M169.64 14H167.98V10.62H161.64V9.24L167.36 0.659999H169.64V9.16H171.52V10.62H169.64V14ZM167.98 9.16V2.2L163.3 9.16H167.98ZM177.372 14H175.712V2.84L173.572 5.12L172.572 4.1L175.912 0.659999H177.372V14ZM189.505 9.82H184.705V8.5H189.505V9.82ZM201.457 14.24C200.551 14.24 199.757 14.0533 199.077 13.68C198.397 13.3067 197.857 12.7933 197.457 12.14C197.071 11.4867 196.777 10.76 196.577 9.96C196.391 9.16 196.297 8.28667 196.297 7.34C196.297 5.39333 196.757 3.76 197.677 2.44C198.611 1.12 199.964 0.459999 201.737 0.459999C203.284 0.459999 204.511 0.993333 205.417 2.06L204.577 3.3C203.804 2.39333 202.857 1.94 201.737 1.94C200.524 1.94 199.591 2.45333 198.937 3.48C198.297 4.50667 197.977 5.74 197.977 7.18V7.7C198.311 7.16667 198.824 6.68667 199.517 6.26C200.224 5.83333 200.971 5.62 201.757 5.62C203.024 5.62 204.064 5.99333 204.877 6.74C205.704 7.47333 206.117 8.52 206.117 9.88C206.117 11.08 205.691 12.1067 204.837 12.96C203.984 13.8133 202.857 14.24 201.457 14.24ZM201.377 12.76C202.337 12.76 203.084 12.4667 203.617 11.88C204.164 11.2933 204.437 10.6467 204.437 9.94C204.437 9.00667 204.151 8.29333 203.577 7.8C203.004 7.30667 202.271 7.06 201.377 7.06C200.724 7.06 200.097 7.24667 199.497 7.62C198.897 7.98 198.411 8.45333 198.037 9.04C198.117 10.0267 198.431 10.8933 198.977 11.64C199.524 12.3867 200.324 12.76 201.377 12.76ZM213.214 14.24C212.334 14.24 211.554 14.04 210.874 13.64C210.207 13.2267 209.674 12.68 209.274 12C208.887 11.32 208.594 10.5867 208.394 9.8C208.207 9.01333 208.114 8.19333 208.114 7.34C208.114 6.48667 208.207 5.66667 208.394 4.88C208.594 4.09333 208.887 3.36667 209.274 2.7C209.674 2.02 210.207 1.48 210.874 1.08C211.554 0.666666 212.334 0.459999 213.214 0.459999C214.08 0.459999 214.854 0.666666 215.534 1.08C216.214 1.48 216.747 2.02 217.134 2.7C217.534 3.36667 217.827 4.09333 218.014 4.88C218.214 5.66667 218.314 6.48667 218.314 7.34C218.314 8.19333 218.214 9.01333 218.014 9.8C217.827 10.5867 217.534 11.32 217.134 12C216.747 12.68 216.214 13.2267 215.534 13.64C214.854 14.04 214.08 14.24 213.214 14.24ZM211.214 11.94C211.747 12.4867 212.414 12.76 213.214 12.76C214.014 12.76 214.68 12.4867 215.214 11.94C215.747 11.38 216.114 10.7133 216.314 9.94C216.514 9.16667 216.614 8.3 216.614 7.34C216.614 6.38 216.514 5.51333 216.314 4.74C216.114 3.96667 215.747 3.30667 215.214 2.76C214.68 2.21333 214.014 1.94 213.214 1.94C212.414 1.94 211.747 2.21333 211.214 2.76C210.68 3.30667 210.314 3.96667 210.114 4.74C209.914 5.51333 209.814 6.38 209.814 7.34C209.814 8.3 209.914 9.16667 210.114 9.94C210.314 10.7133 210.68 11.38 211.214 11.94Z" fill="#1A1A1A"/>
<rect x="240" y="1" width="13" height="13" rx="2" fill="#B6174B"/>
<path d="M273.24 14H264.08V12.66C266.813 10.5267 268.733 8.88 269.84 7.72C270.947 6.56 271.5 5.44667 271.5 4.38C271.5 3.58 271.22 2.97333 270.66 2.56C270.113 2.14667 269.46 1.94 268.7 1.94C267.167 1.94 265.96 2.5 265.08 3.62L264.06 2.56C264.567 1.89333 265.227 1.38 266.04 1.02C266.867 0.646666 267.753 0.459999 268.7 0.459999C269.913 0.459999 270.96 0.799999 271.84 1.48C272.733 2.16 273.18 3.12667 273.18 4.38C273.18 5.62 272.647 6.86 271.58 8.1C270.513 9.32667 268.887 10.8 266.7 12.52H273.24V14ZM280.938 14.24C280.031 14.24 279.238 14.0533 278.558 13.68C277.878 13.3067 277.338 12.7933 276.938 12.14C276.551 11.4867 276.258 10.76 276.058 9.96C275.871 9.16 275.778 8.28667 275.778 7.34C275.778 5.39333 276.238 3.76 277.158 2.44C278.091 1.12 279.444 0.459999 281.218 0.459999C282.764 0.459999 283.991 0.993333 284.898 2.06L284.058 3.3C283.284 2.39333 282.338 1.94 281.218 1.94C280.004 1.94 279.071 2.45333 278.418 3.48C277.778 4.50667 277.458 5.74 277.458 7.18V7.7C277.791 7.16667 278.304 6.68667 278.998 6.26C279.704 5.83333 280.451 5.62 281.238 5.62C282.504 5.62 283.544 5.99333 284.358 6.74C285.184 7.47333 285.598 8.52 285.598 9.88C285.598 11.08 285.171 12.1067 284.318 12.96C283.464 13.8133 282.338 14.24 280.938 14.24ZM280.858 12.76C281.818 12.76 282.564 12.4667 283.098 11.88C283.644 11.2933 283.918 10.6467 283.918 9.94C283.918 9.00667 283.631 8.29333 283.058 7.8C282.484 7.30667 281.751 7.06 280.858 7.06C280.204 7.06 279.578 7.24667 278.978 7.62C278.378 7.98 277.891 8.45333 277.518 9.04C277.598 10.0267 277.911 10.8933 278.458 11.64C279.004 12.3867 279.804 12.76 280.858 12.76ZM297.15 9.82H292.35V8.5H297.15V9.82ZM311.562 14H309.902V10.62H303.562V9.24L309.282 0.659999H311.562V9.16H313.442V10.62H311.562V14ZM309.902 9.16V2.2L305.222 9.16H309.902ZM320.194 14.24C319.314 14.24 318.534 14.04 317.854 13.64C317.188 13.2267 316.654 12.68 316.254 12C315.868 11.32 315.574 10.5867 315.374 9.8C315.188 9.01333 315.094 8.19333 315.094 7.34C315.094 6.48667 315.188 5.66667 315.374 4.88C315.574 4.09333 315.868 3.36667 316.254 2.7C316.654 2.02 317.188 1.48 317.854 1.08C318.534 0.666666 319.314 0.459999 320.194 0.459999C321.061 0.459999 321.834 0.666666 322.514 1.08C323.194 1.48 323.728 2.02 324.114 2.7C324.514 3.36667 324.808 4.09333 324.994 4.88C325.194 5.66667 325.294 6.48667 325.294 7.34C325.294 8.19333 325.194 9.01333 324.994 9.8C324.808 10.5867 324.514 11.32 324.114 12C323.728 12.68 323.194 13.2267 322.514 13.64C321.834 14.04 321.061 14.24 320.194 14.24ZM318.194 11.94C318.728 12.4867 319.394 12.76 320.194 12.76C320.994 12.76 321.661 12.4867 322.194 11.94C322.728 11.38 323.094 10.7133 323.294 9.94C323.494 9.16667 323.594 8.3 323.594 7.34C323.594 6.38 323.494 5.51333 323.294 4.74C323.094 3.96667 322.728 3.30667 322.194 2.76C321.661 2.21333 320.994 1.94 320.194 1.94C319.394 1.94 318.728 2.21333 318.194 2.76C317.661 3.30667 317.294 3.96667 317.094 4.74C316.894 5.51333 316.794 6.38 316.794 7.34C316.794 8.3 316.894 9.16667 317.094 9.94C317.294 10.7133 317.661 11.38 318.194 11.94Z" fill="#1A1A1A"/>
<rect x="347" y="1" width="13" height="13" rx="2" fill="#4B034F"/>
<path d="M375.22 14H373.56V2.84L371.42 5.12L370.42 4.1L373.76 0.659999H375.22V14ZM382.157 14.22C380.637 14.22 379.404 13.6867 378.457 12.62L379.297 11.38C380.071 12.2867 381.024 12.74 382.157 12.74C383.011 12.74 383.731 12.4733 384.317 11.94C384.904 11.4067 385.317 10.76 385.557 10C385.797 9.24 385.917 8.40667 385.917 7.5C385.917 7.27333 385.911 7.1 385.897 6.98C385.564 7.51333 385.051 7.99333 384.357 8.42C383.664 8.84667 382.924 9.06 382.137 9.06C380.871 9.06 379.824 8.69333 378.997 7.96C378.171 7.21333 377.757 6.16 377.757 4.8C377.757 3.6 378.184 2.57333 379.037 1.72C379.891 0.866666 381.024 0.439999 382.437 0.439999C383.331 0.439999 384.117 0.626666 384.797 0.999999C385.477 1.37333 386.017 1.88667 386.417 2.54C386.817 3.19333 387.111 3.92 387.297 4.72C387.497 5.52 387.597 6.39333 387.597 7.34C387.597 8.59333 387.411 9.72667 387.037 10.74C386.664 11.74 386.057 12.5733 385.217 13.24C384.377 13.8933 383.357 14.22 382.157 14.22ZM382.517 7.62C383.171 7.62 383.797 7.44 384.397 7.08C385.011 6.70667 385.497 6.22 385.857 5.62C385.817 5.18 385.724 4.75333 385.577 4.34C385.444 3.92667 385.251 3.53333 384.997 3.16C384.744 2.78667 384.397 2.48667 383.957 2.26C383.531 2.03333 383.044 1.92 382.497 1.92C381.551 1.92 380.804 2.21333 380.257 2.8C379.711 3.37333 379.437 4.02 379.437 4.74C379.437 5.67333 379.724 6.38667 380.297 6.88C380.871 7.37333 381.611 7.62 382.517 7.62ZM399.17 9.82H394.37V8.5H399.17V9.82ZM415.181 14H406.021V12.66C408.755 10.5267 410.675 8.88 411.781 7.72C412.888 6.56 413.441 5.44667 413.441 4.38C413.441 3.58 413.161 2.97333 412.601 2.56C412.055 2.14667 411.401 1.94 410.641 1.94C409.108 1.94 407.901 2.5 407.021 3.62L406.001 2.56C406.508 1.89333 407.168 1.38 407.981 1.02C408.808 0.646666 409.695 0.459999 410.641 0.459999C411.855 0.459999 412.901 0.799999 413.781 1.48C414.675 2.16 415.121 3.12667 415.121 4.38C415.121 5.62 414.588 6.86 413.521 8.1C412.455 9.32667 410.828 10.8 408.641 12.52H415.181V14ZM422.719 14.24C420.666 14.24 419.099 13.5267 418.019 12.1L419.039 10.98C419.959 12.1667 421.186 12.76 422.719 12.76C423.626 12.76 424.366 12.4867 424.939 11.94C425.513 11.3933 425.799 10.7133 425.799 9.9C425.799 9.03333 425.513 8.34 424.939 7.82C424.379 7.28667 423.646 7.02 422.739 7.02C421.553 7.02 420.526 7.43333 419.659 8.26L418.439 7.84V0.659999H426.599V2.14H420.099V6.78C420.926 5.98 421.966 5.58 423.219 5.58C424.406 5.58 425.413 5.96 426.239 6.72C427.066 7.48 427.479 8.52 427.479 9.84C427.479 11.16 427.026 12.2267 426.119 13.04C425.226 13.84 424.093 14.24 422.719 14.24Z" fill="#1A1A1A"/>
<rect x="449" y="1" width="13" height="13" rx="2" fill="#41A5B4"/>
<path d="M478.12 14.24C477.24 14.24 476.46 14.04 475.78 13.64C475.113 13.2267 474.58 12.68 474.18 12C473.793 11.32 473.5 10.5867 473.3 9.8C473.113 9.01333 473.02 8.19333 473.02 7.34C473.02 6.48667 473.113 5.66667 473.3 4.88C473.5 4.09333 473.793 3.36667 474.18 2.7C474.58 2.02 475.113 1.48 475.78 1.08C476.46 0.666666 477.24 0.459999 478.12 0.459999C478.987 0.459999 479.76 0.666666 480.44 1.08C481.12 1.48 481.653 2.02 482.04 2.7C482.44 3.36667 482.733 4.09333 482.92 4.88C483.12 5.66667 483.22 6.48667 483.22 7.34C483.22 8.19333 483.12 9.01333 482.92 9.8C482.733 10.5867 482.44 11.32 482.04 12C481.653 12.68 481.12 13.2267 480.44 13.64C479.76 14.04 478.987 14.24 478.12 14.24ZM476.12 11.94C476.653 12.4867 477.32 12.76 478.12 12.76C478.92 12.76 479.587 12.4867 480.12 11.94C480.653 11.38 481.02 10.7133 481.22 9.94C481.42 9.16667 481.52 8.3 481.52 7.34C481.52 6.38 481.42 5.51333 481.22 4.74C481.02 3.96667 480.653 3.30667 480.12 2.76C479.587 2.21333 478.92 1.94 478.12 1.94C477.32 1.94 476.653 2.21333 476.12 2.76C475.587 3.30667 475.22 3.96667 475.02 4.74C474.82 5.51333 474.72 6.38 474.72 7.34C474.72 8.3 474.82 9.16667 475.02 9.94C475.22 10.7133 475.587 11.38 476.12 11.94ZM490.266 14.24C488.213 14.24 486.646 13.5267 485.566 12.1L486.586 10.98C487.506 12.1667 488.733 12.76 490.266 12.76C491.173 12.76 491.913 12.4867 492.486 11.94C493.059 11.3933 493.346 10.7133 493.346 9.9C493.346 9.03333 493.059 8.34 492.486 7.82C491.926 7.28667 491.193 7.02 490.286 7.02C489.099 7.02 488.073 7.43333 487.206 8.26L485.986 7.84V0.659999H494.146V2.14H487.646V6.78C488.473 5.98 489.513 5.58 490.766 5.58C491.953 5.58 492.959 5.96 493.786 6.72C494.613 7.48 495.026 8.52 495.026 9.84C495.026 11.16 494.573 12.2267 493.666 13.04C492.773 13.84 491.639 14.24 490.266 14.24ZM506.439 14H504.779V2.84L502.639 5.12L501.639 4.1L504.979 0.659999H506.439V14ZM517.216 13.26C516.309 13.9133 515.176 14.24 513.816 14.24C512.456 14.24 511.316 13.9133 510.396 13.26C509.489 12.6067 509.036 11.7267 509.036 10.62C509.036 9.78 509.336 9.05333 509.936 8.44C510.549 7.82667 511.309 7.38667 512.216 7.12C511.363 6.88 510.656 6.49333 510.096 5.96C509.536 5.41333 509.256 4.73333 509.256 3.92C509.256 2.8 509.709 1.94667 510.616 1.36C511.523 0.759999 512.589 0.459999 513.816 0.459999C515.043 0.459999 516.109 0.759999 517.016 1.36C517.936 1.94667 518.396 2.8 518.396 3.92C518.396 4.73333 518.109 5.41333 517.536 5.96C516.976 6.49333 516.269 6.88 515.416 7.12C516.323 7.38667 517.076 7.82667 517.676 8.44C518.289 9.05333 518.596 9.78 518.596 10.62C518.596 11.7133 518.136 12.5933 517.216 13.26ZM513.816 6.44C514.083 6.4 514.349 6.33333 514.616 6.24C514.896 6.14667 515.209 6.02 515.556 5.86C515.903 5.68667 516.183 5.45333 516.396 5.16C516.609 4.85333 516.716 4.51333 516.716 4.14C516.716 3.47333 516.436 2.94 515.876 2.54C515.329 2.14 514.643 1.94 513.816 1.94C512.989 1.94 512.303 2.14 511.756 2.54C511.209 2.92667 510.936 3.46 510.936 4.14C510.936 4.51333 511.043 4.85333 511.256 5.16C511.469 5.45333 511.749 5.68667 512.096 5.86C512.443 6.02 512.749 6.14667 513.016 6.24C513.283 6.33333 513.549 6.4 513.816 6.44ZM513.816 12.76C514.669 12.76 515.396 12.5467 515.996 12.12C516.609 11.6933 516.916 11.1333 516.916 10.44C516.916 9.90667 516.703 9.44 516.276 9.04C515.863 8.62667 515.436 8.34 514.996 8.18C514.569 8.00667 514.176 7.9 513.816 7.86C513.456 7.9 513.056 8.00667 512.616 8.18C512.189 8.34 511.763 8.62667 511.336 9.04C510.923 9.44 510.716 9.90667 510.716 10.44C510.716 11.1333 511.016 11.6933 511.616 12.12C512.216 12.5467 512.949 12.76 513.816 12.76Z" fill="#1A1A1A"/>
</svg>
