<svg width="585" height="15" viewBox="0 0 585 15" fill="none" xmlns="http://www.w3.org/2000/svg">
<path d="M2.576 11H1.248V0.327999H5.536C6.57067 0.327999 7.38667 0.637333 7.984 1.256C8.58133 1.87467 8.88 2.63733 8.88 3.544C8.88 4.45067 8.576 5.21333 7.968 5.832C7.37067 6.45067 6.56 6.76 5.536 6.76H2.576V11ZM5.376 5.576C6.00533 5.576 6.51733 5.38933 6.912 5.016C7.30667 4.632 7.504 4.14133 7.504 3.544C7.504 2.94667 7.30667 2.46133 6.912 2.088C6.51733 1.704 6.00533 1.512 5.376 1.512H2.576V5.576H5.376ZM16.5315 10.024C15.8382 10.8027 14.9155 11.192 13.7635 11.192C12.6115 11.192 11.6835 10.8027 10.9795 10.024C10.2862 9.24533 9.9395 8.28 9.9395 7.128C9.9395 5.976 10.2862 5.016 10.9795 4.248C11.6835 3.46933 12.6115 3.08 13.7635 3.08C14.9155 3.08 15.8382 3.46933 16.5315 4.248C17.2355 5.016 17.5875 5.976 17.5875 7.128C17.5875 8.28 17.2355 9.24533 16.5315 10.024ZM11.8915 9.256C12.3502 9.832 12.9742 10.12 13.7635 10.12C14.5528 10.12 15.1768 9.832 15.6355 9.256C16.0942 8.66933 16.3235 7.96 16.3235 7.128C16.3235 6.296 16.0942 5.592 15.6355 5.016C15.1768 4.44 14.5528 4.152 13.7635 4.152C12.9742 4.152 12.3502 4.44 11.8915 5.016C11.4328 5.592 11.2035 6.296 11.2035 7.128C11.2035 7.96 11.4328 8.66933 11.8915 9.256ZM20.7438 11H19.5438V3.272H20.7438V4.504C21.4798 3.56533 22.3384 3.096 23.3198 3.096V4.328C23.1278 4.30667 22.9731 4.296 22.8558 4.296C22.4824 4.296 22.0824 4.424 21.6558 4.68C21.2291 4.92533 20.9251 5.208 20.7438 5.528V11ZM28.233 11.192C27.0917 11.192 26.1637 10.808 25.449 10.04C24.7343 9.26133 24.377 8.29067 24.377 7.128C24.377 5.96533 24.7343 5 25.449 4.232C26.1637 3.464 27.0917 3.08 28.233 3.08C29.4277 3.08 30.3717 3.528 31.065 4.424L30.265 5.144C29.785 4.48267 29.129 4.152 28.297 4.152C27.497 4.152 26.8517 4.43467 26.361 5C25.8703 5.55467 25.625 6.264 25.625 7.128C25.625 8.00267 25.8703 8.72267 26.361 9.288C26.8517 9.84267 27.497 10.12 28.297 10.12C29.1077 10.12 29.7637 9.784 30.265 9.112L31.065 9.848C30.3717 10.744 29.4277 11.192 28.233 11.192ZM36.2665 11.192C35.1038 11.192 34.1545 10.8187 33.4185 10.072C32.6825 9.31467 32.3145 8.33333 32.3145 7.128C32.3145 5.99733 32.6772 5.04267 33.4025 4.264C34.1278 3.47467 35.0345 3.08 36.1225 3.08C37.2638 3.08 38.1652 3.47467 38.8265 4.264C39.4985 5.04267 39.8345 6.02933 39.8345 7.224V7.528H33.5945C33.6478 8.28533 33.9198 8.92 34.4105 9.432C34.9118 9.944 35.5625 10.2 36.3625 10.2C37.3225 10.2 38.1225 9.86933 38.7625 9.208L39.3385 9.992C38.5172 10.792 37.4932 11.192 36.2665 11.192ZM38.6505 6.632C38.6398 5.98133 38.4158 5.39467 37.9785 4.872C37.5412 4.33867 36.9172 4.072 36.1065 4.072C35.3385 4.072 34.7305 4.33333 34.2825 4.856C33.8452 5.37867 33.6105 5.97067 33.5785 6.632H38.6505ZM48.1941 11H47.0101V5.944C47.0101 5.29333 46.8608 4.83467 46.5621 4.568C46.2635 4.29067 45.8315 4.152 45.2661 4.152C44.8181 4.152 44.3861 4.26933 43.9701 4.504C43.5541 4.73867 43.2235 5.02133 42.9781 5.352V11H41.7781V3.272H42.9781V4.392C43.2768 4.02933 43.6768 3.72 44.1781 3.464C44.6795 3.208 45.2021 3.08 45.7461 3.08C47.3781 3.08 48.1941 3.912 48.1941 5.576V11ZM52.5743 11.192C51.4223 11.192 50.8463 10.5893 50.8463 9.384V4.328H49.5663V3.272H50.8463V1.16H52.0623V3.272H53.6302V4.328H52.0623V9.128C52.0623 9.42667 52.1263 9.66667 52.2543 9.848C52.3929 10.0293 52.5849 10.12 52.8303 10.12C53.1716 10.12 53.4436 10.008 53.6463 9.784L53.9983 10.696C53.6463 11.0267 53.1716 11.192 52.5743 11.192ZM62.1094 11H60.9094V9.848C60.248 10.744 59.3787 11.192 58.3014 11.192C57.2774 11.192 56.4454 10.8293 55.8054 10.104C55.176 9.368 54.8614 8.38133 54.8614 7.144C54.8614 5.91733 55.1814 4.936 55.8214 4.2C56.4614 3.45333 57.288 3.08 58.3014 3.08C59.368 3.08 60.2374 3.53333 60.9094 4.44V3.272H62.1094V11ZM58.6054 10.12C59.064 10.12 59.5067 10.0027 59.9334 9.768C60.3707 9.52267 60.696 9.22933 60.9094 8.888V5.4C60.696 5.048 60.3707 4.75467 59.9334 4.52C59.5067 4.27467 59.064 4.152 58.6054 4.152C57.8374 4.152 57.2294 4.43467 56.7814 5C56.3334 5.55467 56.1094 6.26933 56.1094 7.144C56.1094 8.01867 56.3334 8.73333 56.7814 9.288C57.2294 9.84267 57.8374 10.12 58.6054 10.12ZM65.6805 1.944C65.5312 2.09333 65.3445 2.168 65.1205 2.168C64.8965 2.168 64.7045 2.09333 64.5445 1.944C64.3845 1.784 64.3045 1.592 64.3045 1.368C64.3045 1.144 64.3845 0.952 64.5445 0.792C64.7045 0.631999 64.8965 0.551999 65.1205 0.551999C65.3445 0.551999 65.5312 0.631999 65.6805 0.792C65.8405 0.952 65.9205 1.144 65.9205 1.368C65.9205 1.592 65.8405 1.784 65.6805 1.944ZM63.4245 14.136C62.7845 14.136 62.2245 13.944 61.7445 13.56L62.1605 12.664C62.4805 12.984 62.8485 13.144 63.2645 13.144C63.6485 13.144 63.9525 13.0267 64.1765 12.792C64.4005 12.568 64.5125 12.2213 64.5125 11.752V3.272H65.7125V11.752C65.7125 12.52 65.5152 13.1067 65.1205 13.512C64.7258 13.928 64.1605 14.136 63.4245 14.136ZM71.6102 11.192C70.4476 11.192 69.4983 10.8187 68.7623 10.072C68.0263 9.31467 67.6583 8.33333 67.6583 7.128C67.6583 5.99733 68.0209 5.04267 68.7463 4.264C69.4716 3.47467 70.3783 3.08 71.4663 3.08C72.6076 3.08 73.5089 3.47467 74.1703 4.264C74.8423 5.04267 75.1783 6.02933 75.1783 7.224V7.528H68.9383C68.9916 8.28533 69.2636 8.92 69.7543 9.432C70.2556 9.944 70.9063 10.2 71.7063 10.2C72.6663 10.2 73.4663 9.86933 74.1063 9.208L74.6823 9.992C73.8609 10.792 72.8369 11.192 71.6102 11.192ZM73.9943 6.632C73.9836 5.98133 73.7596 5.39467 73.3223 4.872C72.8849 4.33867 72.2609 4.072 71.4503 4.072C70.6823 4.072 70.0743 4.33333 69.6263 4.856C69.1889 5.37867 68.9543 5.97067 68.9223 6.632H73.9943ZM88.0625 11H86.8625V9.848C86.2012 10.744 85.3318 11.192 84.2545 11.192C83.2305 11.192 82.3985 10.8293 81.7585 10.104C81.1292 9.368 80.8145 8.38133 80.8145 7.144C80.8145 5.91733 81.1345 4.936 81.7745 4.2C82.4145 3.45333 83.2412 3.08 84.2545 3.08C85.3212 3.08 86.1905 3.53333 86.8625 4.44V0.327999H88.0625V11ZM84.5585 10.12C85.0172 10.12 85.4598 10.0027 85.8865 9.768C86.3238 9.52267 86.6492 9.22933 86.8625 8.888V5.4C86.6492 5.048 86.3238 4.75467 85.8865 4.52C85.4598 4.27467 85.0172 4.152 84.5585 4.152C83.7905 4.152 83.1825 4.43467 82.7345 5C82.2865 5.55467 82.0625 6.26933 82.0625 7.144C82.0625 8.01867 82.2865 8.73333 82.7345 9.288C83.1825 9.84267 83.7905 10.12 84.5585 10.12ZM93.9696 11.192C92.807 11.192 91.8576 10.8187 91.1216 10.072C90.3856 9.31467 90.0176 8.33333 90.0176 7.128C90.0176 5.99733 90.3803 5.04267 91.1056 4.264C91.831 3.47467 92.7376 3.08 93.8256 3.08C94.967 3.08 95.8683 3.47467 96.5296 4.264C97.2016 5.04267 97.5376 6.02933 97.5376 7.224V7.528H91.2976C91.351 8.28533 91.623 8.92 92.1136 9.432C92.615 9.944 93.2656 10.2 94.0656 10.2C95.0256 10.2 95.8256 9.86933 96.4656 9.208L97.0416 9.992C96.2203 10.792 95.1963 11.192 93.9696 11.192ZM96.3536 6.632C96.343 5.98133 96.119 5.39467 95.6816 4.872C95.2443 4.33867 94.6203 4.072 93.8096 4.072C93.0416 4.072 92.4336 4.33333 91.9856 4.856C91.5483 5.37867 91.3136 5.97067 91.2816 6.632H96.3536ZM107.43 11.192C106.374 11.192 105.505 10.7387 104.822 9.832V13.944H103.622V3.272H104.822V4.424C105.11 4.01867 105.483 3.69333 105.942 3.448C106.401 3.20267 106.897 3.08 107.43 3.08C108.454 3.08 109.281 3.448 109.91 4.184C110.55 4.90933 110.87 5.89067 110.87 7.128C110.87 8.36533 110.55 9.352 109.91 10.088C109.281 10.824 108.454 11.192 107.43 11.192ZM107.126 10.12C107.883 10.12 108.486 9.84267 108.934 9.288C109.382 8.72267 109.606 8.00267 109.606 7.128C109.606 6.25333 109.382 5.53867 108.934 4.984C108.486 4.42933 107.883 4.152 107.126 4.152C106.667 4.152 106.219 4.27467 105.782 4.52C105.355 4.75467 105.035 5.04267 104.822 5.384V8.872C105.035 9.224 105.355 9.52267 105.782 9.768C106.219 10.0027 106.667 10.12 107.126 10.12ZM116.282 11.192C115.119 11.192 114.17 10.8187 113.434 10.072C112.698 9.31467 112.33 8.33333 112.33 7.128C112.33 5.99733 112.693 5.04267 113.418 4.264C114.143 3.47467 115.05 3.08 116.138 3.08C117.279 3.08 118.181 3.47467 118.842 4.264C119.514 5.04267 119.85 6.02933 119.85 7.224V7.528H113.61C113.663 8.28533 113.935 8.92 114.426 9.432C114.927 9.944 115.578 10.2 116.378 10.2C117.338 10.2 118.138 9.86933 118.778 9.208L119.354 9.992C118.533 10.792 117.509 11.192 116.282 11.192ZM118.666 6.632C118.655 5.98133 118.431 5.39467 117.994 4.872C117.557 4.33867 116.933 4.072 116.122 4.072C115.354 4.072 114.746 4.33333 114.298 4.856C113.861 5.37867 113.626 5.97067 113.594 6.632H118.666ZM122.994 11H121.794V3.272H122.994V4.504C123.73 3.56533 124.588 3.096 125.57 3.096V4.328C125.378 4.30667 125.223 4.296 125.106 4.296C124.732 4.296 124.332 4.424 123.906 4.68C123.479 4.92533 123.175 5.208 122.994 5.528V11ZM129.539 11.192C128.238 11.192 127.198 10.7867 126.419 9.976L127.027 9.112C127.294 9.42133 127.656 9.68267 128.115 9.896C128.584 10.1093 129.07 10.216 129.571 10.216C130.147 10.216 130.595 10.0933 130.915 9.848C131.246 9.60267 131.411 9.28267 131.411 8.888C131.411 8.54667 131.246 8.28 130.915 8.088C130.584 7.88533 130.184 7.736 129.715 7.64C129.246 7.53333 128.776 7.416 128.307 7.288C127.848 7.14933 127.454 6.92 127.123 6.6C126.792 6.26933 126.627 5.83733 126.627 5.304C126.627 4.67467 126.883 4.14667 127.395 3.72C127.907 3.29333 128.606 3.08 129.491 3.08C130.675 3.08 131.63 3.45333 132.355 4.2L131.795 5.032C131.251 4.38133 130.483 4.056 129.491 4.056C128.968 4.056 128.552 4.17333 128.243 4.408C127.934 4.632 127.779 4.92 127.779 5.272C127.779 5.528 127.896 5.74133 128.131 5.912C128.366 6.08267 128.659 6.20533 129.011 6.28C129.374 6.35467 129.758 6.45067 130.163 6.568C130.579 6.68533 130.963 6.81867 131.315 6.968C131.678 7.10667 131.976 7.34133 132.211 7.672C132.446 7.992 132.563 8.38667 132.563 8.856C132.563 9.53867 132.296 10.0987 131.763 10.536C131.24 10.9733 130.499 11.192 129.539 11.192ZM140.657 10.024C139.963 10.8027 139.041 11.192 137.889 11.192C136.737 11.192 135.809 10.8027 135.105 10.024C134.411 9.24533 134.065 8.28 134.065 7.128C134.065 5.976 134.411 5.016 135.105 4.248C135.809 3.46933 136.737 3.08 137.889 3.08C139.041 3.08 139.963 3.46933 140.657 4.248C141.361 5.016 141.713 5.976 141.713 7.128C141.713 8.28 141.361 9.24533 140.657 10.024ZM136.017 9.256C136.475 9.832 137.099 10.12 137.889 10.12C138.678 10.12 139.302 9.832 139.761 9.256C140.219 8.66933 140.449 7.96 140.449 7.128C140.449 6.296 140.219 5.592 139.761 5.016C139.302 4.44 138.678 4.152 137.889 4.152C137.099 4.152 136.475 4.44 136.017 5.016C135.558 5.592 135.329 6.296 135.329 7.128C135.329 7.96 135.558 8.66933 136.017 9.256ZM150.085 11H148.901V5.944C148.901 5.29333 148.751 4.83467 148.453 4.568C148.154 4.29067 147.722 4.152 147.157 4.152C146.709 4.152 146.277 4.26933 145.861 4.504C145.445 4.73867 145.114 5.02133 144.869 5.352V11H143.669V3.272H144.869V4.392C145.167 4.02933 145.567 3.72 146.069 3.464C146.57 3.208 147.093 3.08 147.637 3.08C149.269 3.08 150.085 3.912 150.085 5.576V11ZM159.297 11H158.097V9.848C157.436 10.744 156.566 11.192 155.489 11.192C154.465 11.192 153.633 10.8293 152.993 10.104C152.364 9.368 152.049 8.38133 152.049 7.144C152.049 5.91733 152.369 4.936 153.009 4.2C153.649 3.45333 154.476 3.08 155.489 3.08C156.556 3.08 157.425 3.53333 158.097 4.44V3.272H159.297V11ZM155.793 10.12C156.252 10.12 156.694 10.0027 157.121 9.768C157.558 9.52267 157.884 9.22933 158.097 8.888V5.4C157.884 5.048 157.558 4.75467 157.121 4.52C156.694 4.27467 156.252 4.152 155.793 4.152C155.025 4.152 154.417 4.43467 153.969 5C153.521 5.55467 153.297 6.26933 153.297 7.144C153.297 8.01867 153.521 8.73333 153.969 9.288C154.417 9.84267 155.025 10.12 155.793 10.12ZM164.164 11.192C162.863 11.192 161.823 10.7867 161.044 9.976L161.652 9.112C161.919 9.42133 162.281 9.68267 162.74 9.896C163.209 10.1093 163.695 10.216 164.196 10.216C164.772 10.216 165.22 10.0933 165.54 9.848C165.871 9.60267 166.036 9.28267 166.036 8.888C166.036 8.54667 165.871 8.28 165.54 8.088C165.209 7.88533 164.809 7.736 164.34 7.64C163.871 7.53333 163.401 7.416 162.932 7.288C162.473 7.14933 162.079 6.92 161.748 6.6C161.417 6.26933 161.252 5.83733 161.252 5.304C161.252 4.67467 161.508 4.14667 162.02 3.72C162.532 3.29333 163.231 3.08 164.116 3.08C165.3 3.08 166.255 3.45333 166.98 4.2L166.42 5.032C165.876 4.38133 165.108 4.056 164.116 4.056C163.593 4.056 163.177 4.17333 162.868 4.408C162.559 4.632 162.404 4.92 162.404 5.272C162.404 5.528 162.521 5.74133 162.756 5.912C162.991 6.08267 163.284 6.20533 163.636 6.28C163.999 6.35467 164.383 6.45067 164.788 6.568C165.204 6.68533 165.588 6.81867 165.94 6.968C166.303 7.10667 166.601 7.34133 166.836 7.672C167.071 7.992 167.188 8.38667 167.188 8.856C167.188 9.53867 166.921 10.0987 166.388 10.536C165.865 10.9733 165.124 11.192 164.164 11.192ZM183.806 11H182.606V5.752C182.606 4.68533 182.131 4.152 181.182 4.152C180.798 4.152 180.414 4.26933 180.03 4.504C179.646 4.728 179.347 5.00533 179.134 5.336V11H177.934V5.752C177.934 4.68533 177.459 4.152 176.51 4.152C176.137 4.152 175.758 4.26933 175.374 4.504C175.001 4.73867 174.702 5.02133 174.478 5.352V11H173.278V3.272H174.478V4.392C174.681 4.08267 175.017 3.78933 175.486 3.512C175.966 3.224 176.467 3.08 176.99 3.08C177.545 3.08 177.998 3.21333 178.35 3.48C178.702 3.74667 178.937 4.09333 179.054 4.52C179.289 4.136 179.646 3.8 180.126 3.512C180.606 3.224 181.113 3.08 181.646 3.08C183.086 3.08 183.806 3.85867 183.806 5.416V11ZM193 11H191.8V9.848C191.139 10.744 190.269 11.192 189.192 11.192C188.168 11.192 187.336 10.8293 186.696 10.104C186.067 9.368 185.752 8.38133 185.752 7.144C185.752 5.91733 186.072 4.936 186.712 4.2C187.352 3.45333 188.179 3.08 189.192 3.08C190.259 3.08 191.128 3.53333 191.8 4.44V3.272H193V11ZM189.496 10.12C189.955 10.12 190.397 10.0027 190.824 9.768C191.261 9.52267 191.587 9.22933 191.8 8.888V5.4C191.587 5.048 191.261 4.75467 190.824 4.52C190.397 4.27467 189.955 4.152 189.496 4.152C188.728 4.152 188.12 4.43467 187.672 5C187.224 5.55467 187 6.26933 187 7.144C187 8.01867 187.224 8.73333 187.672 9.288C188.12 9.84267 188.728 10.12 189.496 10.12ZM198.283 14.136C197.088 14.136 196.102 13.7467 195.323 12.968L195.931 12.104C196.486 12.7973 197.27 13.144 198.283 13.144C199.008 13.144 199.579 12.9467 199.995 12.552C200.411 12.1573 200.619 11.608 200.619 10.904V9.752C200.299 10.1147 199.894 10.4187 199.403 10.664C198.923 10.9093 198.411 11.032 197.867 11.032C196.224 11.032 195.403 10.2107 195.403 8.568V3.272H196.603V8.2C196.603 8.85067 196.752 9.30933 197.051 9.576C197.35 9.84267 197.782 9.976 198.347 9.976C198.784 9.976 199.211 9.864 199.627 9.64C200.054 9.40533 200.384 9.128 200.619 8.808V3.272H201.819V10.904C201.819 11.9493 201.483 12.7493 200.811 13.304C200.139 13.8587 199.296 14.136 198.283 14.136ZM210.36 10.024C209.666 10.8027 208.744 11.192 207.592 11.192C206.44 11.192 205.512 10.8027 204.808 10.024C204.114 9.24533 203.768 8.28 203.768 7.128C203.768 5.976 204.114 5.016 204.808 4.248C205.512 3.46933 206.44 3.08 207.592 3.08C208.744 3.08 209.666 3.46933 210.36 4.248C211.064 5.016 211.416 5.976 211.416 7.128C211.416 8.28 211.064 9.24533 210.36 10.024ZM205.72 9.256C206.178 9.832 206.802 10.12 207.592 10.12C208.381 10.12 209.005 9.832 209.464 9.256C209.922 8.66933 210.152 7.96 210.152 7.128C210.152 6.296 209.922 5.592 209.464 5.016C209.005 4.44 208.381 4.152 207.592 4.152C206.802 4.152 206.178 4.44 205.72 5.016C205.261 5.592 205.032 6.296 205.032 7.128C205.032 7.96 205.261 8.66933 205.72 9.256ZM214.572 11H213.372V3.272H214.572V4.504C215.308 3.56533 216.167 3.096 217.148 3.096V4.328C216.956 4.30667 216.801 4.296 216.684 4.296C216.311 4.296 215.911 4.424 215.484 4.68C215.057 4.92533 214.753 5.208 214.572 5.528V11ZM222.157 11.192C220.994 11.192 220.045 10.8187 219.309 10.072C218.573 9.31467 218.205 8.33333 218.205 7.128C218.205 5.99733 218.568 5.04267 219.293 4.264C220.018 3.47467 220.925 3.08 222.013 3.08C223.154 3.08 224.056 3.47467 224.717 4.264C225.389 5.04267 225.725 6.02933 225.725 7.224V7.528H219.485C219.538 8.28533 219.81 8.92 220.301 9.432C220.802 9.944 221.453 10.2 222.253 10.2C223.213 10.2 224.013 9.86933 224.653 9.208L225.229 9.992C224.408 10.792 223.384 11.192 222.157 11.192ZM224.541 6.632C224.53 5.98133 224.306 5.39467 223.869 4.872C223.432 4.33867 222.808 4.072 221.997 4.072C221.229 4.072 220.621 4.33333 220.173 4.856C219.736 5.37867 219.501 5.97067 219.469 6.632H224.541ZM230.133 11.192C228.831 11.192 227.791 10.7867 227.013 9.976L227.621 9.112C227.887 9.42133 228.25 9.68267 228.709 9.896C229.178 10.1093 229.663 10.216 230.165 10.216C230.741 10.216 231.189 10.0933 231.509 9.848C231.839 9.60267 232.005 9.28267 232.005 8.888C232.005 8.54667 231.839 8.28 231.509 8.088C231.178 7.88533 230.778 7.736 230.309 7.64C229.839 7.53333 229.37 7.416 228.901 7.288C228.442 7.14933 228.047 6.92 227.717 6.6C227.386 6.26933 227.221 5.83733 227.221 5.304C227.221 4.67467 227.477 4.14667 227.989 3.72C228.501 3.29333 229.199 3.08 230.085 3.08C231.269 3.08 232.223 3.45333 232.949 4.2L232.389 5.032C231.845 4.38133 231.077 4.056 230.085 4.056C229.562 4.056 229.146 4.17333 228.837 4.408C228.527 4.632 228.373 4.92 228.373 5.272C228.373 5.528 228.49 5.74133 228.725 5.912C228.959 6.08267 229.253 6.20533 229.605 6.28C229.967 6.35467 230.351 6.45067 230.757 6.568C231.173 6.68533 231.557 6.81867 231.909 6.968C232.271 7.10667 232.57 7.34133 232.805 7.672C233.039 7.992 233.157 8.38667 233.157 8.856C233.157 9.53867 232.89 10.0987 232.357 10.536C231.834 10.9733 231.093 11.192 230.133 11.192Z" fill="#1A1A1A"/>
<path d="M295.896 11.192C295.192 11.192 294.568 11.032 294.024 10.712C293.491 10.3813 293.064 9.944 292.744 9.4C292.435 8.856 292.2 8.26933 292.04 7.64C291.891 7.01067 291.816 6.35467 291.816 5.672C291.816 4.98933 291.891 4.33333 292.04 3.704C292.2 3.07467 292.435 2.49333 292.744 1.96C293.064 1.416 293.491 0.983999 294.024 0.664C294.568 0.333333 295.192 0.167999 295.896 0.167999C296.589 0.167999 297.208 0.333333 297.752 0.664C298.296 0.983999 298.723 1.416 299.032 1.96C299.352 2.49333 299.587 3.07467 299.736 3.704C299.896 4.33333 299.976 4.98933 299.976 5.672C299.976 6.35467 299.896 7.01067 299.736 7.64C299.587 8.26933 299.352 8.856 299.032 9.4C298.723 9.944 298.296 10.3813 297.752 10.712C297.208 11.032 296.589 11.192 295.896 11.192ZM294.296 9.352C294.723 9.78933 295.256 10.008 295.896 10.008C296.536 10.008 297.069 9.78933 297.496 9.352C297.923 8.904 298.216 8.37067 298.376 7.752C298.536 7.13333 298.616 6.44 298.616 5.672C298.616 4.904 298.536 4.21067 298.376 3.592C298.216 2.97333 297.923 2.44533 297.496 2.008C297.069 1.57067 296.536 1.352 295.896 1.352C295.256 1.352 294.723 1.57067 294.296 2.008C293.869 2.44533 293.576 2.97333 293.416 3.592C293.256 4.21067 293.176 4.904 293.176 5.672C293.176 6.44 293.256 7.13333 293.416 7.752C293.576 8.37067 293.869 8.904 294.296 9.352ZM305.725 4.696C305.245 5.18667 304.626 5.432 303.869 5.432C303.112 5.432 302.493 5.18667 302.013 4.696C301.533 4.19467 301.293 3.57067 301.293 2.824C301.293 2.056 301.533 1.42133 302.013 0.919999C302.493 0.418666 303.112 0.167999 303.869 0.167999C304.626 0.167999 305.245 0.418666 305.725 0.919999C306.205 1.42133 306.445 2.056 306.445 2.824C306.445 3.57067 306.205 4.19467 305.725 4.696ZM303.725 11H302.845L309.661 0.327999H310.557L303.725 11ZM311.277 10.456C310.808 10.9467 310.194 11.192 309.437 11.192C308.68 11.192 308.061 10.9413 307.581 10.44C307.101 9.93867 306.861 9.31467 306.861 8.568C306.861 7.81067 307.101 7.18133 307.581 6.68C308.061 6.17867 308.68 5.928 309.437 5.928C310.184 5.928 310.797 6.17867 311.277 6.68C311.757 7.18133 311.997 7.81067 311.997 8.568C311.997 9.32533 311.757 9.95467 311.277 10.456ZM302.701 4.104C303.01 4.44533 303.4 4.616 303.869 4.616C304.338 4.616 304.722 4.44533 305.021 4.104C305.33 3.76267 305.485 3.336 305.485 2.824C305.485 2.29067 305.336 1.85333 305.037 1.512C304.738 1.16 304.349 0.983999 303.869 0.983999C303.4 0.983999 303.01 1.16 302.701 1.512C302.402 1.85333 302.253 2.29067 302.253 2.824C302.253 3.336 302.402 3.76267 302.701 4.104ZM308.253 9.864C308.562 10.2053 308.957 10.376 309.437 10.376C309.917 10.376 310.306 10.2053 310.605 9.864C310.904 9.52267 311.053 9.09067 311.053 8.568C311.053 8.04533 310.904 7.61333 310.605 7.272C310.306 6.92 309.917 6.744 309.437 6.744C308.957 6.744 308.562 6.92 308.253 7.272C307.954 7.61333 307.805 8.04533 307.805 8.568C307.805 9.09067 307.954 9.52267 308.253 9.864Z" fill="#1A1A1A"/>
<path d="M552.176 11H550.848V2.072L549.136 3.896L548.336 3.08L551.008 0.327999H552.176V11ZM558.318 11.192C557.614 11.192 556.99 11.032 556.446 10.712C555.913 10.3813 555.486 9.944 555.166 9.4C554.857 8.856 554.622 8.26933 554.462 7.64C554.313 7.01067 554.238 6.35467 554.238 5.672C554.238 4.98933 554.313 4.33333 554.462 3.704C554.622 3.07467 554.857 2.49333 555.166 1.96C555.486 1.416 555.913 0.983999 556.446 0.664C556.99 0.333333 557.614 0.167999 558.318 0.167999C559.011 0.167999 559.63 0.333333 560.174 0.664C560.718 0.983999 561.145 1.416 561.454 1.96C561.774 2.49333 562.009 3.07467 562.158 3.704C562.318 4.33333 562.398 4.98933 562.398 5.672C562.398 6.35467 562.318 7.01067 562.158 7.64C562.009 8.26933 561.774 8.856 561.454 9.4C561.145 9.944 560.718 10.3813 560.174 10.712C559.63 11.032 559.011 11.192 558.318 11.192ZM556.718 9.352C557.145 9.78933 557.678 10.008 558.318 10.008C558.958 10.008 559.491 9.78933 559.918 9.352C560.345 8.904 560.638 8.37067 560.798 7.752C560.958 7.13333 561.038 6.44 561.038 5.672C561.038 4.904 560.958 4.21067 560.798 3.592C560.638 2.97333 560.345 2.44533 559.918 2.008C559.491 1.57067 558.958 1.352 558.318 1.352C557.678 1.352 557.145 1.57067 556.718 2.008C556.291 2.44533 555.998 2.97333 555.838 3.592C555.678 4.21067 555.598 4.904 555.598 5.672C555.598 6.44 555.678 7.13333 555.838 7.752C555.998 8.37067 556.291 8.904 556.718 9.352ZM568.115 11.192C567.411 11.192 566.787 11.032 566.243 10.712C565.709 10.3813 565.283 9.944 564.963 9.4C564.653 8.856 564.419 8.26933 564.259 7.64C564.109 7.01067 564.035 6.35467 564.035 5.672C564.035 4.98933 564.109 4.33333 564.259 3.704C564.419 3.07467 564.653 2.49333 564.963 1.96C565.283 1.416 565.709 0.983999 566.243 0.664C566.787 0.333333 567.411 0.167999 568.115 0.167999C568.808 0.167999 569.427 0.333333 569.971 0.664C570.515 0.983999 570.941 1.416 571.251 1.96C571.571 2.49333 571.805 3.07467 571.955 3.704C572.115 4.33333 572.195 4.98933 572.195 5.672C572.195 6.35467 572.115 7.01067 571.955 7.64C571.805 8.26933 571.571 8.856 571.251 9.4C570.941 9.944 570.515 10.3813 569.971 10.712C569.427 11.032 568.808 11.192 568.115 11.192ZM566.515 9.352C566.941 9.78933 567.475 10.008 568.115 10.008C568.755 10.008 569.288 9.78933 569.715 9.352C570.141 8.904 570.435 8.37067 570.595 7.752C570.755 7.13333 570.835 6.44 570.835 5.672C570.835 4.904 570.755 4.21067 570.595 3.592C570.435 2.97333 570.141 2.44533 569.715 2.008C569.288 1.57067 568.755 1.352 568.115 1.352C567.475 1.352 566.941 1.57067 566.515 2.008C566.088 2.44533 565.795 2.97333 565.635 3.592C565.475 4.21067 565.395 4.904 565.395 5.672C565.395 6.44 565.475 7.13333 565.635 7.752C565.795 8.37067 566.088 8.904 566.515 9.352ZM577.944 4.696C577.464 5.18667 576.845 5.432 576.088 5.432C575.33 5.432 574.712 5.18667 574.232 4.696C573.752 4.19467 573.512 3.57067 573.512 2.824C573.512 2.056 573.752 1.42133 574.232 0.919999C574.712 0.418666 575.33 0.167999 576.088 0.167999C576.845 0.167999 577.464 0.418666 577.944 0.919999C578.424 1.42133 578.664 2.056 578.664 2.824C578.664 3.57067 578.424 4.19467 577.944 4.696ZM575.944 11H575.064L581.88 0.327999H582.776L575.944 11ZM583.496 10.456C583.026 10.9467 582.413 11.192 581.656 11.192C580.898 11.192 580.28 10.9413 579.8 10.44C579.32 9.93867 579.08 9.31467 579.08 8.568C579.08 7.81067 579.32 7.18133 579.8 6.68C580.28 6.17867 580.898 5.928 581.656 5.928C582.402 5.928 583.016 6.17867 583.496 6.68C583.976 7.18133 584.216 7.81067 584.216 8.568C584.216 9.32533 583.976 9.95467 583.496 10.456ZM574.92 4.104C575.229 4.44533 575.618 4.616 576.088 4.616C576.557 4.616 576.941 4.44533 577.24 4.104C577.549 3.76267 577.704 3.336 577.704 2.824C577.704 2.29067 577.554 1.85333 577.256 1.512C576.957 1.16 576.568 0.983999 576.088 0.983999C575.618 0.983999 575.229 1.16 574.92 1.512C574.621 1.85333 574.472 2.29067 574.472 2.824C574.472 3.336 574.621 3.76267 574.92 4.104ZM580.472 9.864C580.781 10.2053 581.176 10.376 581.656 10.376C582.136 10.376 582.525 10.2053 582.824 9.864C583.122 9.52267 583.272 9.09067 583.272 8.568C583.272 8.04533 583.122 7.61333 582.824 7.272C582.525 6.92 582.136 6.744 581.656 6.744C581.176 6.744 580.781 6.92 580.472 7.272C580.173 7.61333 580.024 8.04533 580.024 8.568C580.024 9.09067 580.173 9.52267 580.472 9.864Z" fill="#1A1A1A"/>
<rect x="323" width="215" height="11" rx="5.5" fill="url(#paint0_linear_1555_1992)"/>
<defs>
<linearGradient id="paint0_linear_1555_1992" x1="538" y1="5.5" x2="323" y2="5.5" gradientUnits="userSpaceOnUse">
<stop stop-color="#1D5556"/>
<stop offset="1" stop-color="#90EE90"/>
</linearGradient>
</defs>
</svg>
