<svg width="557" height="54" viewBox="0 0 557 54" fill="none" xmlns="http://www.w3.org/2000/svg">
<path d="M27.8789 23.456H16.5939V36.144H12.0799V23.456H0.794879V19.369H12.0799V7.108H16.5939V19.369H27.8789V23.456ZM48.982 42.732C45.1594 42.732 41.9467 41.756 39.344 39.804C36.782 37.8113 34.952 35.29 33.854 32.24C32.756 29.1493 32.207 25.6317 32.207 21.687C32.207 15.587 33.7727 10.5647 36.904 6.62C40.0354 2.67533 44.4477 0.702997 50.141 0.702997C54.899 0.702997 58.7827 2.20766 61.792 5.217L58.498 10.585C56.2207 8.22633 53.435 7.047 50.141 7.047C46.847 7.047 44.224 8.34833 42.272 10.951C40.3607 13.5537 39.405 16.7257 39.405 20.467V21.626C40.4624 20.1213 41.9874 18.7997 43.98 17.661C45.9727 16.4817 48.0874 15.892 50.324 15.892C54.1874 15.892 57.4204 17.051 60.023 19.369C62.6664 21.687 63.988 24.92 63.988 29.068C63.988 32.9313 62.585 36.1847 59.779 38.828C57.0137 41.4307 53.4147 42.732 48.982 42.732ZM48.555 36.388C51.0764 36.388 53.069 35.656 54.533 34.192C55.997 32.728 56.729 31.1013 56.729 29.312C56.729 26.9533 55.936 25.164 54.35 23.944C52.764 22.6833 50.7917 22.053 48.433 22.053C46.6844 22.053 45.017 22.48 43.431 23.334C41.845 24.188 40.5437 25.347 39.527 26.811C39.7304 29.373 40.564 31.6097 42.028 33.521C43.5327 35.4323 45.7084 36.388 48.555 36.388ZM85.1298 42.732C82.3644 42.732 79.9041 42.122 77.7488 40.902C75.6341 39.682 73.9464 38.0553 72.6858 36.022C71.4251 33.9887 70.4694 31.752 69.8188 29.312C69.1681 26.872 68.8428 24.3303 68.8428 21.687C68.8428 19.0437 69.1478 16.502 69.7578 14.062C70.4084 11.622 71.3641 9.38533 72.6248 7.352C73.9261 5.31867 75.6341 3.71233 77.7488 2.533C79.9041 1.313 82.3644 0.702997 85.1298 0.702997C88.7491 0.702997 91.8194 1.76033 94.3408 3.875C96.8621 5.98967 98.6514 8.59233 99.7088 11.683C100.807 14.733 101.356 18.0677 101.356 21.687C101.356 25.2657 100.807 28.6003 99.7088 31.691C98.6514 34.7817 96.8621 37.4047 94.3408 39.56C91.8194 41.6747 88.7491 42.732 85.1298 42.732ZM78.2978 32.24C79.7618 35.0053 82.0391 36.388 85.1298 36.388C88.2204 36.388 90.4774 35.0053 91.9008 32.24C93.3648 29.4747 94.0968 25.957 94.0968 21.687C94.0968 18.9217 93.8121 16.502 93.2428 14.428C92.7141 12.3133 91.7584 10.5647 90.3758 9.182C88.9931 7.75867 87.2444 7.047 85.1298 7.047C83.0151 7.047 81.2461 7.75867 79.8228 9.182C78.4401 10.5647 77.4641 12.3133 76.8948 14.428C76.3661 16.502 76.1018 18.9217 76.1018 21.687C76.1018 25.957 76.8338 29.4747 78.2978 32.24Z" fill="#1A1A1A"/>
<path d="M134.967 42H121.12L130.087 1.313H143.69C148.326 1.313 152.291 2.96 155.585 6.254C158.919 9.548 160.587 13.696 160.587 18.698C160.587 21.5447 160.058 24.3303 159.001 27.055C157.984 29.739 156.459 32.2197 154.426 34.497C152.433 36.7337 149.749 38.5433 146.374 39.926C142.998 41.3087 139.196 42 134.967 42ZM134.174 5.827L127.159 37.486H135.821C141.636 37.486 146.333 35.6967 149.912 32.118C153.49 28.4987 155.28 24.1067 155.28 18.942C155.28 15.16 154.08 12.0287 151.681 9.548C149.322 7.06733 146.333 5.827 142.714 5.827H134.174ZM186.951 42H182.376L183.108 38.828C180.424 41.4307 177.374 42.732 173.958 42.732C171.192 42.732 168.834 42 166.882 40.536C164.97 39.0313 164.015 36.9167 164.015 34.192C164.015 30.8573 165.072 28.214 167.187 26.262C169.342 24.2693 171.965 23.273 175.056 23.273C179.488 23.273 182.986 24.737 185.548 27.665L186.646 22.724C186.768 22.236 186.829 21.6463 186.829 20.955C186.829 19.369 186.117 18.088 184.694 17.112C183.27 16.136 181.379 15.648 179.021 15.648C175.849 15.648 172.961 16.807 170.359 19.125L168.895 15.831C172.189 13.147 175.828 11.805 179.814 11.805C183.189 11.805 185.975 12.5167 188.171 13.94C190.407 15.3227 191.526 17.3967 191.526 20.162C191.526 20.5687 191.404 21.504 191.16 22.968L186.951 42ZM175.727 39.438C178.817 39.438 181.481 38.2587 183.718 35.9L184.999 30.41C183.494 27.848 180.647 26.567 176.459 26.567C174.181 26.567 172.331 27.2583 170.908 28.641C169.525 29.983 168.834 31.7113 168.834 33.826C168.834 35.6153 169.464 36.998 170.725 37.974C171.985 38.95 173.653 39.438 175.727 39.438ZM204.782 42.732C200.268 42.732 198.011 40.9427 198.011 37.364C198.011 36.876 198.072 36.3067 198.194 35.656L202.464 16.563H197.584L198.499 12.537H203.379L205.148 4.485H209.662L207.893 12.537H213.932L213.017 16.563H207.039L202.952 34.741C202.912 34.9443 202.891 35.3307 202.891 35.9C202.891 37.73 203.867 38.645 205.819 38.645C206.877 38.645 207.812 38.3197 208.625 37.669L209.113 41.329C207.893 42.2643 206.45 42.732 204.782 42.732ZM228.447 42.732C224.299 42.732 221.005 41.5323 218.565 39.133C216.166 36.7337 214.966 33.5617 214.966 29.617C214.966 24.859 216.532 20.711 219.663 17.173C222.835 13.5943 226.739 11.805 231.375 11.805C235.523 11.805 238.797 13.0047 241.196 15.404C243.636 17.8033 244.856 20.955 244.856 24.859C244.856 29.6577 243.27 33.8463 240.098 37.425C236.967 40.963 233.083 42.732 228.447 42.732ZM228.569 38.645C231.822 38.645 234.547 37.2827 236.743 34.558C238.939 31.7927 240.037 28.6207 240.037 25.042C240.037 22.236 239.264 20.0197 237.719 18.393C236.174 16.7257 234.018 15.892 231.253 15.892C228 15.892 225.275 17.2747 223.079 20.04C220.883 22.7647 219.785 25.9163 219.785 29.495C219.785 32.301 220.558 34.5377 222.103 36.205C223.648 37.8317 225.804 38.645 228.569 38.645ZM260.061 42.732C254.571 42.732 250.423 40.9833 247.617 37.486L250.545 34.375C251.399 35.6357 252.721 36.7337 254.51 37.669C256.299 38.5637 258.231 39.011 260.305 39.011C262.338 39.011 263.965 38.5027 265.185 37.486C266.446 36.4693 267.076 35.2493 267.076 33.826C267.076 32.8093 266.547 31.9147 265.49 31.142C264.433 30.3693 263.131 29.7187 261.586 29.19C260.081 28.6207 258.556 28.031 257.011 27.421C255.506 26.7703 254.225 25.896 253.168 24.798C252.111 23.7 251.582 22.3987 251.582 20.894C251.582 18.332 252.578 16.1767 254.571 14.428C256.564 12.6793 259.288 11.805 262.745 11.805C265.144 11.805 267.361 12.2727 269.394 13.208C271.427 14.1027 272.973 15.2413 274.03 16.624L271.346 19.613C270.655 18.4743 269.475 17.5187 267.808 16.746C266.141 15.9327 264.372 15.526 262.501 15.526C260.59 15.526 259.044 15.953 257.865 16.807C256.726 17.661 256.157 18.7387 256.157 20.04C256.157 20.9753 256.686 21.809 257.743 22.541C258.8 23.273 260.081 23.9033 261.586 24.432C263.131 24.9607 264.656 25.5503 266.161 26.201C267.706 26.8517 269.008 27.7667 270.065 28.946C271.122 30.0847 271.651 31.447 271.651 33.033C271.651 35.717 270.614 38.0147 268.54 39.926C266.466 41.7967 263.64 42.732 260.061 42.732ZM308.717 42.732C306.48 42.732 304.447 42.2643 302.617 41.329C300.827 40.353 299.445 39.0313 298.469 37.364L294.931 53.224H290.356L299.384 12.537H303.959L303.044 16.746C305.687 13.452 308.92 11.805 312.743 11.805C316.199 11.805 318.965 12.8827 321.039 15.038C323.113 17.1933 324.15 20.162 324.15 23.944C324.15 28.9867 322.706 33.3787 319.819 37.12C316.972 40.8613 313.271 42.732 308.717 42.732ZM308.107 38.645C311.36 38.645 314.044 37.2623 316.159 34.497C318.273 31.7317 319.331 28.4987 319.331 24.798C319.331 22.0733 318.578 19.918 317.074 18.332C315.569 16.7053 313.576 15.892 311.096 15.892C309.347 15.892 307.659 16.38 306.033 17.356C304.447 18.2913 303.125 19.4707 302.068 20.894L299.201 33.887C299.973 35.2697 301.132 36.4083 302.678 37.303C304.264 38.1977 306.073 38.645 308.107 38.645ZM335.695 42.732C333.621 42.732 331.974 42.305 330.754 41.451C329.534 40.5563 328.924 39.316 328.924 37.73C328.924 36.998 329.005 36.3067 329.168 35.656L336.732 1.313H341.307L333.926 34.741C333.804 35.229 333.743 35.6967 333.743 36.144C333.743 37.8113 334.76 38.645 336.793 38.645C337.85 38.645 338.786 38.3197 339.599 37.669L340.087 41.329C338.908 42.2643 337.444 42.732 335.695 42.732ZM367.449 42H362.874L363.606 38.828C360.922 41.4307 357.872 42.732 354.456 42.732C351.69 42.732 349.332 42 347.38 40.536C345.468 39.0313 344.513 36.9167 344.513 34.192C344.513 30.8573 345.57 28.214 347.685 26.262C349.84 24.2693 352.463 23.273 355.554 23.273C359.986 23.273 363.484 24.737 366.046 27.665L367.144 22.724C367.266 22.236 367.327 21.6463 367.327 20.955C367.327 19.369 366.615 18.088 365.192 17.112C363.768 16.136 361.877 15.648 359.519 15.648C356.347 15.648 353.459 16.807 350.857 19.125L349.393 15.831C352.687 13.147 356.326 11.805 360.312 11.805C363.687 11.805 366.473 12.5167 368.669 13.94C370.905 15.3227 372.024 17.3967 372.024 20.162C372.024 20.5687 371.902 21.504 371.658 22.968L367.449 42ZM356.225 39.438C359.315 39.438 361.979 38.2587 364.216 35.9L365.497 30.41C363.992 27.848 361.145 26.567 356.957 26.567C354.679 26.567 352.829 27.2583 351.406 28.641C350.023 29.983 349.332 31.7113 349.332 33.826C349.332 35.6153 349.962 36.998 351.223 37.974C352.483 38.95 354.151 39.438 356.225 39.438ZM385.28 42.732C380.766 42.732 378.509 40.9427 378.509 37.364C378.509 36.876 378.57 36.3067 378.692 35.656L382.962 16.563H378.082L378.997 12.537H383.877L385.646 4.485H390.16L388.391 12.537H394.43L393.515 16.563H387.537L383.45 34.741C383.41 34.9443 383.389 35.3307 383.389 35.9C383.389 37.73 384.365 38.645 386.317 38.645C387.375 38.645 388.31 38.3197 389.123 37.669L389.611 41.329C388.391 42.2643 386.948 42.732 385.28 42.732ZM409.86 42.732C405.427 42.732 401.91 41.5527 399.307 39.194C396.745 36.7947 395.464 33.6227 395.464 29.678C395.464 24.7573 397.07 20.5483 400.283 17.051C403.496 13.5537 407.42 11.805 412.056 11.805C415.919 11.805 418.99 13.0047 421.267 15.404C423.585 17.8033 424.744 20.894 424.744 24.676C424.744 25.896 424.581 27.2583 424.256 28.763H400.283C400.202 29.0883 400.161 29.556 400.161 30.166C400.161 32.606 401.035 34.68 402.784 36.388C404.533 38.096 406.993 38.95 410.165 38.95C413.459 38.95 416.285 37.974 418.644 36.022L420.23 39.255C417.139 41.573 413.683 42.732 409.86 42.732ZM420.352 25.347H420.535C420.535 25.2657 420.535 25.103 420.535 24.859C420.576 24.5743 420.596 24.371 420.596 24.249C420.596 21.687 419.803 19.613 418.217 18.027C416.672 16.4003 414.476 15.587 411.629 15.587C408.986 15.587 406.627 16.563 404.553 18.515C402.479 20.4263 401.198 22.7037 400.71 25.347H420.352ZM451.979 42H447.404L448.136 38.828C445.452 41.4307 442.402 42.732 438.986 42.732C436.221 42.732 433.862 42 431.91 40.536C429.999 39.0313 429.043 36.9167 429.043 34.192C429.043 30.8573 430.1 28.214 432.215 26.262C434.37 24.2693 436.993 23.273 440.084 23.273C444.517 23.273 448.014 24.737 450.576 27.665L451.674 22.724C451.796 22.236 451.857 21.6463 451.857 20.955C451.857 19.369 451.145 18.088 449.722 17.112C448.299 16.136 446.408 15.648 444.049 15.648C440.877 15.648 437.99 16.807 435.387 19.125L433.923 15.831C437.217 13.147 440.857 11.805 444.842 11.805C448.217 11.805 451.003 12.5167 453.199 13.94C455.436 15.3227 456.554 17.3967 456.554 20.162C456.554 20.5687 456.432 21.504 456.188 22.968L451.979 42ZM440.755 39.438C443.846 39.438 446.509 38.2587 448.746 35.9L450.027 30.41C448.522 27.848 445.676 26.567 441.487 26.567C439.21 26.567 437.359 27.2583 435.936 28.641C434.553 29.983 433.862 31.7113 433.862 33.826C433.862 35.6153 434.492 36.998 435.753 37.974C437.014 38.95 438.681 39.438 440.755 39.438ZM477.497 11.805C479.733 11.805 481.746 12.293 483.536 13.269C485.366 14.2043 486.769 15.5057 487.745 17.173L491.283 1.313H495.858L486.83 42H482.255L483.17 37.791C480.526 41.085 477.293 42.732 473.471 42.732C470.055 42.732 467.289 41.6543 465.175 39.499C463.101 37.3437 462.064 34.375 462.064 30.593C462.064 25.5503 463.487 21.1583 466.334 17.417C469.221 13.6757 472.942 11.805 477.497 11.805ZM478.107 15.892C474.853 15.892 472.169 17.2747 470.055 20.04C467.94 22.8053 466.883 26.0383 466.883 29.739C466.883 32.4637 467.635 34.6393 469.14 36.266C470.644 37.852 472.637 38.645 475.118 38.645C476.866 38.645 478.534 38.1773 480.12 37.242C481.746 36.266 483.088 35.0663 484.146 33.643L487.013 20.65C486.24 19.2673 485.061 18.1287 483.475 17.234C481.929 16.3393 480.14 15.892 478.107 15.892ZM510.631 42.732C506.483 42.732 503.189 41.5323 500.749 39.133C498.35 36.7337 497.15 33.5617 497.15 29.617C497.15 24.859 498.716 20.711 501.847 17.173C505.019 13.5943 508.923 11.805 513.559 11.805C517.707 11.805 520.981 13.0047 523.38 15.404C525.82 17.8033 527.04 20.955 527.04 24.859C527.04 29.6577 525.454 33.8463 522.282 37.425C519.151 40.963 515.267 42.732 510.631 42.732ZM510.753 38.645C514.007 38.645 516.731 37.2827 518.927 34.558C521.123 31.7927 522.221 28.6207 522.221 25.042C522.221 22.236 521.449 20.0197 519.903 18.393C518.358 16.7257 516.203 15.892 513.437 15.892C510.184 15.892 507.459 17.2747 505.263 20.04C503.067 22.7647 501.969 25.9163 501.969 29.495C501.969 32.301 502.742 34.5377 504.287 36.205C505.833 37.8317 507.988 38.645 510.753 38.645ZM542.246 42.732C536.756 42.732 532.608 40.9833 529.802 37.486L532.73 34.375C533.584 35.6357 534.905 36.7337 536.695 37.669C538.484 38.5637 540.416 39.011 542.49 39.011C544.523 39.011 546.15 38.5027 547.37 37.486C548.63 36.4693 549.261 35.2493 549.261 33.826C549.261 32.8093 548.732 31.9147 547.675 31.142C546.617 30.3693 545.316 29.7187 543.771 29.19C542.266 28.6207 540.741 28.031 539.196 27.421C537.691 26.7703 536.41 25.896 535.353 24.798C534.295 23.7 533.767 22.3987 533.767 20.894C533.767 18.332 534.763 16.1767 536.756 14.428C538.748 12.6793 541.473 11.805 544.93 11.805C547.329 11.805 549.545 12.2727 551.579 13.208C553.612 14.1027 555.157 15.2413 556.215 16.624L553.531 19.613C552.839 18.4743 551.66 17.5187 549.993 16.746C548.325 15.9327 546.556 15.526 544.686 15.526C542.774 15.526 541.229 15.953 540.05 16.807C538.911 17.661 538.342 18.7387 538.342 20.04C538.342 20.9753 538.87 21.809 539.928 22.541C540.985 23.273 542.266 23.9033 543.771 24.432C545.316 24.9607 546.841 25.5503 548.346 26.201C549.891 26.8517 551.192 27.7667 552.25 28.946C553.307 30.0847 553.836 31.447 553.836 33.033C553.836 35.717 552.799 38.0147 550.725 39.926C548.651 41.7967 545.824 42.732 542.246 42.732Z" fill="#1D5556"/>
</svg>
