<svg width="109" height="20" viewBox="0 0 109 20" fill="none" xmlns="http://www.w3.org/2000/svg">
<path d="M58.2255 8.07995H55.2092V0H58.2134C59.4733 0 60.4908 0.37553 61.2661 1.12659C62.0495 1.87765 62.4412 2.84676 62.4412 4.03392C62.4412 5.22915 62.0535 6.2023 61.2782 6.95336C60.503 7.70442 59.4854 8.07995 58.2255 8.07995ZM58.2134 6.83222C59.0614 6.83222 59.7357 6.56572 60.2364 6.03271C60.7372 5.4997 60.9875 4.83343 60.9875 4.03392C60.9875 3.22633 60.7412 2.56007 60.2486 2.03513C59.764 1.5102 59.0897 1.24773 58.2255 1.24773H56.6265V6.83222H58.2134Z" fill="#1D5556"/>
<path d="M69.1639 8.07995H67.8919V7.28044C67.4074 7.91036 66.7815 8.22532 66.0143 8.22532C65.2552 8.22532 64.6333 7.95074 64.1488 7.40158C63.6642 6.85241 63.4219 6.10135 63.4219 5.1484C63.4219 4.21967 63.6642 3.47668 64.1488 2.91944C64.6333 2.3622 65.2552 2.08359 66.0143 2.08359C66.7896 2.08359 67.4155 2.40258 67.8919 3.04058V2.22895H69.1639V8.07995ZM66.3898 7.09873C66.6806 7.09873 66.9672 7.02201 67.2499 6.86856C67.5326 6.71512 67.7466 6.52938 67.8919 6.31133V3.99758C67.7466 3.77953 67.5326 3.59378 67.2499 3.44034C66.9672 3.2869 66.6806 3.21018 66.3898 3.21018C65.8891 3.21018 65.4853 3.39188 65.1784 3.7553C64.8796 4.11064 64.7302 4.57501 64.7302 5.1484C64.7302 5.72179 64.8796 6.19019 65.1784 6.5536C65.4853 6.91702 65.8891 7.09873 66.3898 7.09873Z" fill="#1D5556"/>
<path d="M72.5807 8.22532C71.5793 8.22532 71.0786 7.72057 71.0786 6.71108V3.33131H70.1094V2.22895H71.0786V0.629922H72.3505V2.22895H73.5377V3.33131H72.3505V6.39612C72.3505 6.6061 72.399 6.77569 72.4959 6.90491C72.5928 7.03412 72.7301 7.09873 72.9077 7.09873C73.15 7.09873 73.3358 7.02604 73.465 6.88068L73.7678 7.84979C73.4852 8.10014 73.0895 8.22532 72.5807 8.22532Z" fill="#1D5556"/>
<path d="M79.5139 7.34101C78.9647 7.93055 78.2379 8.22532 77.3334 8.22532C76.4289 8.22532 75.702 7.93055 75.1529 7.34101C74.6037 6.74339 74.3291 6.01252 74.3291 5.1484C74.3291 4.2762 74.6037 3.54936 75.1529 2.9679C75.702 2.37836 76.4289 2.08359 77.3334 2.08359C78.2379 2.08359 78.9647 2.37836 79.5139 2.9679C80.063 3.54936 80.3376 4.2762 80.3376 5.1484C80.3376 6.01252 80.063 6.74339 79.5139 7.34101ZM77.3334 7.09873C77.8583 7.09873 78.2702 6.91298 78.569 6.54149C78.8678 6.16192 79.0172 5.69756 79.0172 5.1484C79.0172 4.60731 78.8678 4.15102 78.569 3.77953C78.2702 3.39996 77.8583 3.21018 77.3334 3.21018C76.8165 3.21018 76.4046 3.39996 76.0978 3.77953C75.799 4.15102 75.6495 4.60731 75.6495 5.1484C75.6495 5.69756 75.799 6.16192 76.0978 6.54149C76.4046 6.91298 76.8165 7.09873 77.3334 7.09873Z" fill="#1D5556"/>
<path d="M83.6474 8.22532C82.6056 8.22532 81.7697 7.91843 81.1398 7.30466L81.7212 6.39612C81.9393 6.62225 82.23 6.81607 82.5934 6.97759C82.9649 7.13103 83.3324 7.20775 83.6958 7.20775C84.0673 7.20775 84.354 7.13911 84.5559 7.00182C84.7578 6.85645 84.8587 6.66667 84.8587 6.43247C84.8587 6.22249 84.7376 6.06097 84.4953 5.94791C84.253 5.82677 83.9583 5.7339 83.611 5.66929C83.2637 5.59661 82.9165 5.51181 82.5692 5.4149C82.222 5.30991 81.9272 5.12821 81.6849 4.86978C81.4426 4.61135 81.3215 4.27216 81.3215 3.85221C81.3215 3.3515 81.5274 2.93156 81.9393 2.59237C82.3512 2.25318 82.9124 2.08359 83.6231 2.08359C84.5196 2.08359 85.2747 2.35413 85.8884 2.89522L85.3554 3.79164C84.9274 3.32324 84.35 3.08904 83.6231 3.08904C83.3001 3.08904 83.0376 3.15768 82.8357 3.29497C82.6419 3.43226 82.545 3.6059 82.545 3.81587C82.545 4.00162 82.6661 4.14698 82.9084 4.25197C83.1507 4.35696 83.4455 4.44579 83.7927 4.51847C84.14 4.58308 84.4872 4.66788 84.8345 4.77287C85.1818 4.87785 85.4765 5.06764 85.7188 5.34222C85.9611 5.6168 86.0822 5.9681 86.0822 6.39612C86.0822 6.93721 85.8682 7.37735 85.4402 7.71654C85.0122 8.05572 84.4146 8.22532 83.6474 8.22532Z" fill="#1D5556"/>
<path d="M58.3225 17.9164C57.5714 17.9164 56.9455 17.5974 56.4448 16.9594V20H55.1729V11.92H56.4448V12.7196C56.9132 12.0896 57.5391 11.7747 58.3225 11.7747C59.0897 11.7747 59.7115 12.0493 60.188 12.5984C60.6725 13.1476 60.9148 13.8946 60.9148 14.8395C60.9148 15.7844 60.6725 16.5354 60.188 17.0927C59.7115 17.6418 59.0897 17.9164 58.3225 17.9164ZM57.9469 16.7898C58.4476 16.7898 58.8474 16.6081 59.1462 16.2447C59.4531 15.8813 59.6065 15.4129 59.6065 14.8395C59.6065 14.2661 59.4531 13.8017 59.1462 13.4464C58.8474 13.083 58.4476 12.9013 57.9469 12.9013C57.6562 12.9013 57.3695 12.978 57.0868 13.1314C56.8042 13.2768 56.5902 13.4585 56.4448 13.6766V15.9903C56.5902 16.2164 56.8042 16.4062 57.0868 16.5597C57.3695 16.7131 57.6562 16.7898 57.9469 16.7898Z" fill="#1D5556"/>
<path d="M63.6901 17.9164C63.1975 17.9164 62.822 17.7872 62.5635 17.5288C62.3132 17.2703 62.188 16.8948 62.188 16.4022V9.6911H63.46V16.0872C63.46 16.2972 63.5084 16.4668 63.6053 16.596C63.7022 16.7252 63.8395 16.7898 64.0172 16.7898C64.2676 16.7898 64.4573 16.7171 64.5866 16.5718L64.8894 17.5409C64.6067 17.7912 64.207 17.9164 63.6901 17.9164Z" fill="#1D5556"/>
<path d="M71.0449 17.771H69.7729V16.9715C69.2883 17.6015 68.6625 17.9164 67.8953 17.9164C67.1361 17.9164 66.5143 17.6418 66.0297 17.0927C65.5452 16.5435 65.3029 15.7924 65.3029 14.8395C65.3029 13.9108 65.5452 13.1678 66.0297 12.6105C66.5143 12.0533 67.1361 11.7747 67.8953 11.7747C68.6705 11.7747 69.2964 12.0937 69.7729 12.7317V11.92H71.0449V17.771ZM68.2708 16.7898C68.5615 16.7898 68.8482 16.7131 69.1309 16.5597C69.4135 16.4062 69.6275 16.2205 69.7729 16.0024V13.6887C69.6275 13.4706 69.4135 13.2849 69.1309 13.1314C68.8482 12.978 68.5615 12.9013 68.2708 12.9013C67.7701 12.9013 67.3663 13.083 67.0594 13.4464C66.7606 13.8017 66.6112 14.2661 66.6112 14.8395C66.6112 15.4129 66.7606 15.8813 67.0594 16.2447C67.3663 16.6081 67.7701 16.7898 68.2708 16.7898Z" fill="#1D5556"/>
<path d="M74.4616 17.9164C73.4602 17.9164 72.9595 17.4117 72.9595 16.4022V13.0224H71.9904V11.92H72.9595V10.321H74.2315V11.92H75.4186V13.0224H74.2315V16.0872C74.2315 16.2972 74.2799 16.4668 74.3768 16.596C74.4737 16.7252 74.611 16.7898 74.7887 16.7898C75.031 16.7898 75.2167 16.7171 75.3459 16.5718L75.6488 17.5409C75.3661 17.7912 74.9704 17.9164 74.4616 17.9164Z" fill="#1D5556"/>
<path d="M79.2749 17.9164C78.3785 17.9164 77.6436 17.6338 77.0702 17.0684C76.4968 16.5031 76.2101 15.7601 76.2101 14.8395C76.2101 13.9834 76.4887 13.2606 77.046 12.6711C77.6113 12.0735 78.322 11.7747 79.178 11.7747C80.0421 11.7747 80.7366 12.0735 81.2616 12.6711C81.7865 13.2606 82.049 14.0198 82.049 14.9485V15.2635H77.5426C77.5911 15.7238 77.7809 16.1074 78.112 16.4143C78.4431 16.7212 78.8711 16.8746 79.396 16.8746C80.0744 16.8746 80.6317 16.6566 81.0678 16.2205L81.6492 17.0563C81.0355 17.6297 80.244 17.9164 79.2749 17.9164ZM80.8255 14.3549C80.8013 13.9511 80.6478 13.5958 80.3652 13.2889C80.0906 12.974 79.6908 12.8165 79.1659 12.8165C78.6652 12.8165 78.2735 12.974 77.9908 13.2889C77.7082 13.5958 77.5547 13.9511 77.5305 14.3549H80.8255Z" fill="#1D5556"/>
<path d="M88.6951 17.771H87.4232V16.9715C86.9386 17.6015 86.3128 17.9164 85.5455 17.9164C84.7864 17.9164 84.1646 17.6418 83.68 17.0927C83.1954 16.5435 82.9532 15.7924 82.9532 14.8395C82.9532 13.9108 83.1954 13.1678 83.68 12.6105C84.1646 12.0533 84.7864 11.7747 85.5455 11.7747C86.3208 11.7747 86.9467 12.0937 87.4232 12.7317V11.92H88.6951V17.771ZM85.9211 16.7898C86.2118 16.7898 86.4985 16.7131 86.7812 16.5597C87.0638 16.4062 87.2778 16.2205 87.4232 16.0024V13.6887C87.2778 13.4706 87.0638 13.2849 86.7812 13.1314C86.4985 12.978 86.2118 12.9013 85.9211 12.9013C85.4204 12.9013 85.0166 13.083 84.7097 13.4464C84.4109 13.8017 84.2615 14.2661 84.2615 14.8395C84.2615 15.4129 84.4109 15.8813 84.7097 16.2447C85.0166 16.6081 85.4204 16.7898 85.9211 16.7898Z" fill="#1D5556"/>
<path d="M95.734 17.771H94.462V16.9715C93.9775 17.6015 93.3516 17.9164 92.5844 17.9164C91.8252 17.9164 91.2034 17.6418 90.7188 17.0927C90.2343 16.5435 89.992 15.7924 89.992 14.8395C89.992 13.9108 90.2343 13.1678 90.7188 12.6105C91.2034 12.0533 91.8252 11.7747 92.5844 11.7747C93.3677 11.7747 93.9936 12.0937 94.462 12.7317V9.6911H95.734V17.771ZM92.9599 16.7898C93.2506 16.7898 93.5373 16.7131 93.82 16.5597C94.1026 16.4062 94.3166 16.2205 94.462 16.0024V13.6887C94.3166 13.4706 94.1026 13.2849 93.82 13.1314C93.5373 12.978 93.2506 12.9013 92.9599 12.9013C92.4592 12.9013 92.0554 13.083 91.7485 13.4464C91.4497 13.8017 91.3003 14.2661 91.3003 14.8395C91.3003 15.4129 91.4497 15.8813 91.7485 16.2447C92.0554 16.6081 92.4592 16.7898 92.9599 16.7898Z" fill="#1D5556"/>
<path d="M102.216 17.0321C101.666 17.6216 100.94 17.9164 100.035 17.9164C99.1306 17.9164 98.4037 17.6216 97.8546 17.0321C97.3054 16.4345 97.0308 15.7036 97.0308 14.8395C97.0308 13.9673 97.3054 13.2405 97.8546 12.659C98.4037 12.0695 99.1306 11.7747 100.035 11.7747C100.94 11.7747 101.666 12.0695 102.216 12.659C102.765 13.2405 103.039 13.9673 103.039 14.8395C103.039 15.7036 102.765 16.4345 102.216 17.0321ZM100.035 16.7898C100.56 16.7898 100.972 16.6041 101.271 16.2326C101.569 15.853 101.719 15.3887 101.719 14.8395C101.719 14.2984 101.569 13.8421 101.271 13.4706C100.972 13.0911 100.56 12.9013 100.035 12.9013C99.5182 12.9013 99.1063 13.0911 98.7994 13.4706C98.5006 13.8421 98.3512 14.2984 98.3512 14.8395C98.3512 15.3887 98.5006 15.853 98.7994 16.2326C99.1063 16.6041 99.5182 16.7898 100.035 16.7898Z" fill="#1D5556"/>
<path d="M106.349 17.9164C105.307 17.9164 104.471 17.6095 103.841 16.9958L104.423 16.0872C104.641 16.3133 104.932 16.5072 105.295 16.6687C105.667 16.8221 106.034 16.8988 106.397 16.8988C106.769 16.8988 107.056 16.8302 107.258 16.6929C107.459 16.5475 107.56 16.3578 107.56 16.1236C107.56 15.9136 107.439 15.7521 107.197 15.639C106.955 15.5179 106.66 15.425 106.313 15.3604C105.965 15.2877 105.618 15.2029 105.271 15.106C104.924 15.001 104.629 14.8193 104.387 14.5609C104.144 14.3024 104.023 13.9633 104.023 13.5433C104.023 13.0426 104.229 12.6227 104.641 12.2835C105.053 11.9443 105.614 11.7747 106.325 11.7747C107.221 11.7747 107.976 12.0452 108.59 12.5863L108.057 13.4827C107.629 13.0143 107.052 12.7801 106.325 12.7801C106.002 12.7801 105.739 12.8488 105.537 12.9861C105.344 13.1234 105.247 13.297 105.247 13.507C105.247 13.6927 105.368 13.8381 105.61 13.9431C105.852 14.0481 106.147 14.1369 106.494 14.2096C106.842 14.2742 107.189 14.359 107.536 14.464C107.883 14.5689 108.178 14.7587 108.421 15.0333C108.663 15.3079 108.784 15.6592 108.784 16.0872C108.784 16.6283 108.57 17.0684 108.142 17.4076C107.714 17.7468 107.116 17.9164 106.349 17.9164Z" fill="#1D5556"/>
<path d="M13.1689 11.2046H8.06556V16.9521H5.1033V11.2046H0V8.53411H5.1033V2.98984H8.06556V8.53411H13.1689V11.2046Z" fill="#1D5556"/>
<path d="M23.6639 20C20.7114 20 18.4922 19.0808 17.0062 17.2424C15.5202 15.3846 14.7771 12.9753 14.7771 10.0145C14.7771 6.93759 15.6473 4.49927 17.3875 2.69956C19.1472 0.899855 21.5131 0 24.4851 0C26.8315 0 28.8063 0.619255 30.4097 1.85776L28.2393 5.6894C27.1834 4.83793 25.9321 4.41219 24.4851 4.41219C23.2338 4.41219 22.1486 4.82825 21.2296 5.66038C20.3302 6.47315 19.8804 7.52782 19.8804 8.82438V9.0566C20.3693 8.39865 21.0536 7.86647 21.9335 7.46009C22.8134 7.0537 23.7324 6.85051 24.6904 6.85051C26.5675 6.85051 28.1611 7.42138 29.4711 8.56313C30.8007 9.68553 31.4655 11.2337 31.4655 13.2075C31.4655 15.2008 30.7323 16.836 29.2658 18.1132C27.7994 19.3711 25.9321 20 23.6639 20ZM23.3413 15.5878C24.2407 15.5878 24.9642 15.3653 25.5117 14.9202C26.0787 14.4751 26.3622 13.9623 26.3622 13.3817C26.3622 12.627 26.0396 12.0561 25.3944 11.6691C24.7687 11.2821 24.0257 11.0885 23.1653 11.0885C21.7966 11.0885 20.7017 11.5239 19.8804 12.3948C19.9587 13.285 20.2813 14.0397 20.8483 14.6589C21.4153 15.2782 22.2463 15.5878 23.3413 15.5878Z" fill="#1D5556"/>
<path d="M44.9625 19.1582C43.8871 19.7194 42.6553 20 41.267 20C39.8787 20 38.6371 19.7194 37.5422 19.1582C36.4668 18.597 35.5869 17.8423 34.9025 16.894C34.2377 15.9458 33.7294 14.8911 33.3774 13.73C33.045 12.5496 32.8788 11.3014 32.8788 9.98549C32.8788 8.20513 33.1721 6.57958 33.7587 5.10885C34.3453 3.63812 35.2838 2.41896 36.5743 1.45138C37.8843 0.483793 39.4486 0 41.267 0C43.0854 0 44.6399 0.483793 45.9304 1.45138C47.2404 2.41896 48.1887 3.63812 48.7753 5.10885C49.3619 6.57958 49.6552 8.20513 49.6552 9.98549C49.6552 11.3014 49.4792 12.5496 49.1272 13.73C48.7948 14.8911 48.2865 15.9458 47.6021 16.894C46.9373 17.8423 46.0574 18.597 44.9625 19.1582ZM37.9821 9.98549C37.9821 13.7204 39.0771 15.5878 41.267 15.5878C43.4569 15.5878 44.5519 13.7204 44.5519 9.98549C44.5519 6.26996 43.4569 4.41219 41.267 4.41219C39.0771 4.41219 37.9821 6.26996 37.9821 9.98549Z" fill="#1D5556"/>
</svg>
