<svg width="130" height="20" viewBox="0 0 130 20" fill="none" xmlns="http://www.w3.org/2000/svg">
<g clip-path="url(#clip0_1211_4148)">
<path d="M37.7733 17.5895H37.7534C37.6711 17.5895 37.5913 17.6097 37.4892 17.6097C37.0405 17.6097 36.6941 17.3629 36.6941 16.3761C36.6941 15.5729 36.6941 14.6263 36.6941 13.5765C36.6941 10.7946 36.7115 7.3354 36.7315 5.58315C36.724 4.70703 36.3701 3.72266 35.1039 3.72266C34.922 3.72266 34.6353 3.7428 34.431 3.7428C34.0222 3.7428 33.8004 4.05246 33.8004 4.35961C33.8004 4.62647 33.9823 4.89333 34.3712 4.89333H34.411C34.6154 4.87319 34.6553 4.87319 34.7375 4.87319C35.5526 4.87319 35.5526 5.22314 35.5526 6.62292C35.5526 7.81625 35.5326 9.46276 35.5326 10.5126C35.5326 10.7795 35.5127 10.8827 35.4703 10.8827C35.4279 10.8827 35.3681 10.7795 35.2659 10.636C34.573 9.72962 33.3518 9.15561 32.0482 9.15561C29.4013 9.15561 27.4248 11.1521 27.4273 14.0322C27.4273 17.0155 29.4038 18.949 32.0532 18.9465C33.277 18.9465 34.598 18.3901 35.4554 17.2194C35.4952 17.1792 35.5177 17.1565 35.5376 17.1565C35.5974 17.1565 35.6174 17.2371 35.6398 17.3629C35.7844 18.4531 36.6392 18.8232 37.4941 18.8232C37.7583 18.8232 38.3092 18.7602 38.3092 18.1862C38.3092 17.8765 38.1247 17.5895 37.7783 17.5895H37.7733ZM32.0906 17.8186C30.0543 17.8186 28.6286 16.3786 28.6286 14.0322C28.6286 11.6656 30.0319 10.2256 32.0906 10.2256C34.0247 10.2256 35.5326 11.7261 35.5326 14.0297C35.5326 16.3131 34.0048 17.8161 32.0906 17.8161V17.8186Z" fill="#FAFAFA"/>
<path d="M48.6003 17.5941C47.7629 17.297 47.6158 16.791 47.6158 15.2477C47.6158 14.4446 47.6582 13.3444 47.7205 12.647C47.7404 12.4356 47.7404 12.2442 47.7404 12.0554C47.7404 9.68636 46.4195 8.82031 44.4729 8.82031C42.6734 8.82031 40.9162 9.72916 40.9162 10.5348C40.9162 10.8721 41.1879 11.1063 41.502 11.1063C41.649 11.1063 41.816 11.0433 41.9406 10.8948C42.4216 10.3661 43.2591 9.88022 44.3907 9.88022C46.0855 9.88022 46.5665 10.7891 46.5665 11.9522C46.5665 12.0579 46.5466 12.1838 46.5466 12.2896C46.5466 12.4381 46.4618 12.501 46.2126 12.5438C45.3328 12.6924 43.6379 13.0096 42.3419 13.4099C40.7916 13.8958 40.1012 14.9758 40.1037 16.0307C40.1037 17.4909 41.3823 18.9486 43.4959 18.9486C44.7097 18.9486 46.0506 18.3343 46.6762 17.3197C46.6961 17.2769 46.7385 17.2568 46.7609 17.2568C46.8033 17.2568 46.8232 17.2996 46.8432 17.3625C47.0326 18.1455 47.7853 18.7144 48.3935 18.7144C48.7499 18.7144 48.9592 18.4174 48.9592 18.1228C48.9592 17.9113 48.8546 17.6797 48.6028 17.5941H48.6003ZM46.5266 14.1274C46.5266 17.3826 44.5402 17.8282 43.471 17.8282C42.0702 17.8282 41.2328 16.9395 41.2328 16.0533C41.2328 14.573 42.97 14.15 46.255 13.6214H46.3173C46.4643 13.6214 46.5266 13.6843 46.5266 13.8555V14.1299V14.1274Z" fill="#FAFAFA"/>
<path d="M55.756 17.7399H55.6713C55.4619 17.76 55.2725 17.7827 55.0856 17.7827C53.4531 17.7827 53.4107 16.6623 53.4107 15.0133C53.4107 13.4474 53.473 11.2722 53.473 10.4666C53.473 10.2123 53.473 10.1695 53.807 10.1695H55.6489C56.0477 10.1695 56.2346 9.89507 56.2346 9.59799C56.2346 9.32358 56.0452 9.04664 55.6489 9.04916H53.787C53.5154 9.04916 53.473 9.04916 53.473 8.81754C53.473 8.81754 53.5154 7.12572 53.5154 6.51395C53.5154 6.07085 53.2213 5.85938 52.9097 5.85938C52.6156 5.85938 52.3016 6.07085 52.3016 6.47367V7.00236C52.3016 7.74253 52.2816 8.75712 52.2816 8.84272C52.2816 9.03154 52.2417 9.05419 52.0523 9.05419H50.8385C50.4397 9.05419 50.2528 9.32861 50.2528 9.60555C50.2528 9.90262 50.4422 10.177 50.8385 10.177H52.0723C52.2193 10.177 52.2816 10.1972 52.2816 10.4087V10.746C52.2816 11.7833 52.2418 14.3613 52.2418 15.7132C52.2418 16.6447 52.2418 18.9483 54.9211 18.9483C55.7585 18.9483 56.2595 18.8426 56.2595 18.2912C56.2595 18.0168 56.0701 17.7424 55.756 17.7424V17.7399Z" fill="#FAFAFA"/>
<path d="M66.765 17.5941C65.9276 17.297 65.7805 16.791 65.7805 15.2477C65.7805 14.4446 65.8229 13.3444 65.8852 12.647C65.9051 12.4356 65.9051 12.2442 65.9051 12.0554C65.9051 9.68636 64.5841 8.82031 62.6376 8.82031C60.8381 8.82031 59.0809 9.72916 59.0809 10.5348C59.0809 10.8721 59.3526 11.1063 59.6666 11.1063C59.8137 11.1063 59.9807 11.0433 60.1053 10.8948C60.5863 10.3661 61.4238 9.88022 62.5553 9.88022C64.2502 9.88022 64.7312 10.7891 64.7312 11.9522C64.7312 12.0579 64.7112 12.1863 64.7112 12.2896C64.7112 12.4381 64.6265 12.501 64.3773 12.5438C63.4975 12.6924 61.8026 13.0096 60.5066 13.4099C58.9563 13.8958 58.2659 14.9758 58.2684 16.0307C58.2684 17.4909 59.547 18.9486 61.6605 18.9486C62.8743 18.9486 64.2153 18.3343 64.8409 17.3197C64.8608 17.2769 64.9032 17.2568 64.9256 17.2568C64.968 17.2568 64.9879 17.2996 65.0078 17.3625C65.1973 18.1455 65.95 18.7144 66.5581 18.7144C66.9145 18.7144 67.1239 18.4174 67.1239 18.1228C67.1239 17.9113 67.0192 17.6797 66.7675 17.5941H66.765ZM64.6913 14.1274C64.6913 17.3826 62.7049 17.8282 61.6356 17.8282C60.2349 17.8282 59.3974 16.9395 59.3974 16.0533C59.3974 14.573 61.1346 14.15 64.4196 13.6214H64.482C64.629 13.6214 64.6913 13.6843 64.6913 13.8555V14.1299V14.1274Z" fill="#FAFAFA"/>
<path d="M73.8384 13.5993C73.1904 13.2619 72.186 12.839 71.6003 12.5646C70.9099 12.2272 70.5734 11.6759 70.5734 11.1698C70.5734 10.4725 71.1815 9.81537 72.2682 9.81537C72.3928 9.81537 74.2572 9.81537 74.2572 11.5072C74.2572 11.8873 74.5513 12.056 74.8429 12.056C74.9276 12.056 75.3663 11.9931 75.3663 11.55V11.5072C75.3463 11.0213 75.3464 10.7041 75.3464 10.407C75.3464 10.0898 75.3463 9.79523 75.3663 9.34962V9.32947C75.3663 8.99212 75.1146 8.82092 74.8429 8.82092C74.6335 8.82092 74.4267 8.92666 74.3619 9.15828C74.3419 9.22122 74.3619 9.41256 74.2572 9.41256C74.2148 9.41256 74.1724 9.41255 74.1326 9.36976C73.8185 9.118 73.0434 8.80078 72.2907 8.80078C70.4288 8.80078 69.4443 10.0067 69.4443 11.2328C69.4443 12.1643 69.9902 13.0933 71.1417 13.5792C73.5693 14.5938 74.4915 15.0998 74.4915 16.2201C74.4915 17.2347 73.4671 17.849 72.3978 17.849C71.204 17.849 70.1572 17.1516 70.1572 16.4542C70.1572 16.3057 70.1995 16.2 70.1995 16.0514C70.1995 15.6713 69.9278 15.4799 69.6337 15.4799C69.3396 15.4799 69.048 15.6713 69.048 16.0313V16.0741C69.068 16.5801 69.0904 16.8973 69.0904 17.2146C69.0904 17.5318 69.0705 17.849 69.0505 18.3147V18.3575C69.0505 18.6949 69.3222 18.8636 69.5939 18.8636C69.8456 18.8636 70.0948 18.8006 70.0948 18.2719C70.0948 18.209 70.1148 18.1662 70.1572 18.1662C70.1995 18.1662 70.2618 18.209 70.3042 18.2518C70.7429 18.632 71.4981 18.9492 72.3978 18.9492C74.7831 18.9492 75.7028 17.3832 75.7028 16.2201C75.7028 15.2685 75.137 14.2765 73.8384 13.5993Z" fill="#FAFAFA"/>
<path d="M87.128 17.8035C87.0034 17.8035 86.8987 17.8237 86.814 17.8237C86.6046 17.8237 86.4152 17.7809 86.2058 17.5694C82.4174 14.0599 81.8715 13.5538 81.8715 13.4053C81.8715 13.3424 81.9139 13.2794 82.0385 13.1938C83.0629 12.5166 84.6755 11.4164 85.9092 10.5705C86.0563 10.4648 86.2656 10.3792 86.4326 10.3792C86.7267 10.3792 86.5572 10.3993 86.8513 10.3993H86.8713C87.2476 10.3993 87.457 10.1249 87.457 9.85047C87.457 9.34192 87.0607 9.27898 86.8488 9.29912C86.3055 9.31926 85.802 9.32178 85.3434 9.32178C84.8848 9.32178 84.4013 9.32178 83.8779 9.30164H83.8355C83.4592 9.30164 83.2698 9.57605 83.2698 9.85299C83.2698 10.359 83.7707 10.359 84.1496 10.359C84.2543 10.359 84.2966 10.3792 84.2966 10.422C84.2966 10.4421 84.2767 10.4849 84.2119 10.5277C80.907 12.8338 80.8222 12.854 80.5929 12.854C80.3835 12.854 80.2365 12.7482 80.2365 12.5166C80.2365 12.5166 80.2764 8.03529 80.2764 5.30622C80.2764 4.84299 80.1293 3.72014 78.4145 3.72266C77.6818 3.72266 77.3054 3.7856 77.3054 4.33443C77.3054 4.63151 77.5148 4.92607 77.8911 4.92607H78.3722C78.8956 4.94621 79.0626 5.18034 79.0626 5.77198C79.0626 6.91496 79.085 8.32985 79.085 9.81019C79.085 12.3882 79.0651 15.2431 79.0252 17.4637C79.0252 17.6953 78.8781 17.8237 78.6688 17.8237C78.3348 17.8237 78.2924 17.8035 78.0407 17.8035H78.0207C77.622 17.8035 77.4126 18.1006 77.4126 18.3952C77.4126 18.6268 77.5596 18.9667 78.0407 18.944C78.5217 18.9239 79.0252 18.9012 79.5461 18.9012C80.0894 18.9012 80.6353 18.9213 81.1786 18.944H81.1986C81.5973 18.944 81.8042 18.6696 81.8042 18.3725C81.8042 18.0754 81.5949 17.801 81.1961 17.801H81.1761C80.882 17.8212 80.9045 17.8212 80.5904 17.8212C80.3387 17.8212 80.234 17.6726 80.234 17.4611C80.2141 16.4466 80.2141 15.7693 80.2116 15.2633C80.2116 14.1631 80.2315 13.9743 80.5456 13.9743C80.7549 13.9743 80.9643 13.9944 81.1736 14.2286C81.8217 14.9033 83.5389 16.512 84.6481 17.6097C84.668 17.6298 84.6904 17.6726 84.6904 17.6953C84.6904 17.7179 84.6904 17.8438 84.1446 17.8438C83.9975 17.8438 83.5788 17.8438 83.5813 18.3952C83.5813 18.6696 83.7682 18.944 84.1471 18.944H84.1895C84.6705 18.9239 85.1316 18.9012 85.5927 18.9012C86.0538 18.9012 86.5547 18.9213 87.0981 18.944H87.118C87.5168 18.944 87.7037 18.6469 87.7037 18.3524C87.7037 17.9923 87.452 17.7809 87.118 17.8035H87.128Z" fill="#FAFAFA"/>
<path d="M97.5088 16.239C97.3618 16.239 97.2147 16.302 97.0901 16.4279C96.4421 17.168 95.5847 17.8226 94.0544 17.8251C92.0455 17.8251 90.5376 16.4102 90.5376 14.1041C90.5376 13.807 90.5799 13.724 90.7893 13.724C91.2504 13.724 93.0275 13.7441 94.5977 13.7441C95.3728 13.7441 96.0832 13.7441 96.5642 13.724C97.631 13.6812 98.0921 13.0895 98.0921 12.3066C98.0921 11.1006 96.8359 8.83984 93.9671 8.83984C91.4971 8.83984 89.3013 10.869 89.3013 13.9581C89.3013 16.9389 91.375 18.948 94.0319 18.9454C96.6689 18.9454 98.1344 17.3367 98.1344 16.8508C98.1344 16.5135 97.8204 16.239 97.5063 16.239H97.5088ZM93.992 9.89723C96.128 9.89723 96.8608 11.4833 96.8608 12.0951C96.8608 12.4324 96.6714 12.6666 96.1704 12.6867C95.5847 12.7069 94.4133 12.7069 93.3241 12.7094C90.8965 12.7094 90.7071 12.7094 90.7071 12.4979C90.7071 11.7149 91.9832 9.89723 93.992 9.89723Z" fill="#FAFAFA"/>
<path d="M105.21 17.7424H105.126C104.916 17.7625 104.727 17.7852 104.54 17.7852C102.907 17.7852 102.865 16.6649 102.865 15.0158C102.865 13.4524 102.927 11.2747 102.927 10.4716C102.927 10.2173 102.927 10.1745 103.261 10.1745H105.103C105.502 10.1745 105.689 9.9001 105.689 9.60303C105.689 9.32861 105.5 9.05168 105.103 9.05168H103.241C102.97 9.05168 102.927 9.05168 102.927 8.82006C102.927 8.82006 102.97 7.12824 102.97 6.51395C102.97 6.07085 102.676 5.85938 102.362 5.85938C102.067 5.85938 101.756 6.07085 101.756 6.47367V7.00236C101.756 7.74253 101.736 8.75712 101.736 8.84272C101.736 9.03154 101.694 9.05419 101.507 9.05419H100.293C99.8941 9.05419 99.7072 9.33113 99.7072 9.60555C99.7072 9.90262 99.8966 10.177 100.293 10.177H101.527C101.674 10.177 101.736 10.1972 101.736 10.4087V10.746C101.736 11.7833 101.696 14.3613 101.696 15.7157C101.696 16.6447 101.696 18.9508 104.375 18.9483C105.213 18.9483 105.714 18.8426 105.714 18.2937C105.714 18.0193 105.524 17.7449 105.21 17.7449V17.7424Z" fill="#FAFAFA"/>
<path d="M115.781 16.2607C115.594 16.2607 115.404 16.3438 115.237 16.578C114.652 17.3811 113.625 17.804 112.558 17.804C110.15 17.804 108.917 15.7975 108.917 13.8716C108.917 11.5252 110.507 9.87614 112.558 9.87614C113.375 9.87614 114.171 10.1279 114.694 10.7422C114.946 11.0393 114.881 11.2935 114.903 11.7366C114.926 12.074 115.217 12.2427 115.489 12.2427C115.803 12.2427 116.095 12.074 116.095 11.714V11.6712C116.075 11.1853 116.075 10.8479 116.075 10.5307C116.075 10.1934 116.075 9.87614 116.095 9.43053V9.38773C116.095 9.02771 115.801 8.85904 115.487 8.85904C115.257 8.85904 115.006 8.96477 114.986 9.21905C114.966 9.32479 114.943 9.45067 114.881 9.45067C114.839 9.45067 114.819 9.43053 114.776 9.40787C114.171 9.04785 113.311 8.77344 112.411 8.77344C109.774 8.77344 107.703 10.994 107.703 13.9546C107.703 16.4697 109.4 18.9445 112.623 18.942C114.883 18.942 116.451 17.5246 116.451 16.9128C116.451 16.5528 116.137 16.2582 115.781 16.2582V16.2607Z" fill="#FAFAFA"/>
<path d="M128.442 17.8002H128.422C128.128 17.8002 128.151 17.8204 127.836 17.8204C127.585 17.8204 127.48 17.6718 127.48 17.4402C127.48 15.7711 127.458 13.3391 127.438 12.4504C127.353 10.1468 125.678 9.06672 123.941 9.06923C122.769 9.06923 121.576 9.55513 120.843 10.5068C120.8 10.5496 120.78 10.5697 120.758 10.5697C120.736 10.5697 120.716 10.5269 120.716 10.464C120.716 10.1669 120.736 8.26612 120.736 6.55416C120.736 6.13121 120.736 5.72839 120.736 5.34824C120.736 4.48219 120.297 3.84776 119.312 3.74202C119.145 3.72188 118.956 3.69922 118.789 3.69922C117.889 3.69922 117.722 3.97364 117.722 4.33365C117.722 4.63073 117.932 4.92528 118.308 4.92528H118.328C118.509 4.91186 118.663 4.90514 118.789 4.90514C119.335 4.92528 119.499 5.22236 119.499 5.77119C119.499 7.04006 119.522 8.75202 119.522 10.5496C119.522 13.0848 119.502 15.7509 119.482 17.4629C119.482 17.6945 119.357 17.8229 119.148 17.8229C118.814 17.8229 118.749 17.8027 118.477 17.8027H118.458C118.059 17.8027 117.852 18.0998 117.852 18.3944C117.852 18.626 117.999 18.9634 118.48 18.9432C118.961 18.9231 119.484 18.9004 120.008 18.9004C120.531 18.9004 121.097 18.9206 121.64 18.9432H121.66C122.059 18.9432 122.268 18.6461 122.266 18.3717C122.266 18.0344 121.994 17.7801 121.638 17.8002C121.344 17.8204 121.366 17.8204 121.052 17.8204C120.8 17.8204 120.696 17.6718 120.696 17.4604C120.696 16.4659 120.676 15.5369 120.673 14.7539C120.673 13.9936 120.693 13.3592 120.693 12.9564C120.756 11.2872 122.346 10.187 123.811 10.187C125.005 10.187 126.114 10.9272 126.219 12.6795C126.239 13.0823 126.261 14.0742 126.261 15.1744C126.261 15.9574 126.241 16.7605 126.241 17.4578C126.241 17.6693 126.117 17.8179 125.907 17.8179C125.573 17.8179 125.551 17.7977 125.279 17.7977H125.259C124.861 17.7977 124.654 18.0948 124.654 18.3893C124.654 18.621 124.801 18.9608 125.282 18.9407C125.763 18.918 126.266 18.8979 126.79 18.8979C127.313 18.8979 127.879 18.918 128.422 18.9407H128.442C128.838 18.9407 129.05 18.6663 129.048 18.3692C129.048 18.0721 128.838 17.7977 128.44 17.7977L128.442 17.8002Z" fill="#FAFAFA"/>
<path d="M22.9609 14.5089L20.5657 12.7037V1.94358C20.5657 0.871085 19.7033 0 18.6416 0H2.99921C1.93745 0 1.07507 0.871085 1.07507 1.94358V13.4036C1.07507 14.4761 1.93745 15.3472 2.99921 15.3472H9.98045L6.43126 18.0159C6.20445 18.1871 6.1571 18.5118 6.32658 18.7409C6.49606 18.97 6.81758 19.0179 7.04439 18.8467L10.8403 15.9892L14.6363 18.8467C14.7285 18.9146 14.8357 18.9499 14.9428 18.9499C15.0999 18.9499 15.2519 18.8769 15.3541 18.7409C15.5236 18.5118 15.4762 18.1871 15.2494 18.0159L11.7002 15.3472H18.6391C19.5513 15.3472 20.314 14.7027 20.5109 13.8417L22.4001 15.2641C22.4824 15.3271 22.5796 15.3573 22.6768 15.3573C22.8188 15.3573 22.9584 15.2918 23.0506 15.1685C23.2027 14.9595 23.1603 14.6649 22.9559 14.5114L22.9609 14.5089ZM19.636 12.0039L14.7883 8.35336C14.5814 8.19978 14.2898 8.24258 14.1378 8.44903C13.9857 8.65798 14.0281 8.95254 14.2325 9.10611L19.636 13.1745V13.4011C19.636 13.955 19.1899 14.4031 19.0005 14.4031H3.35812C2.45338 14.4031 2.00973 13.9525 2.00973 13.4011V1.94358C2.00973 1.38971 2.45587 0.941578 3.00171 0.941578H18.6441C19.1924 0.941578 19.636 1.39223 19.636 1.94358V12.0039Z" fill="#FAFAFA"/>
</g>
<defs>
<clipPath id="clip0_1211_4148">
<rect width="128.421" height="20" fill="white" transform="translate(0.629211)"/>
</clipPath>
</defs>
</svg>
