<svg width="184" height="55" viewBox="0 0 184 55" fill="none" xmlns="http://www.w3.org/2000/svg">
<g clip-path="url(#clip0_1211_4113)">
<path d="M55.5326 49.5613C55.3425 49.1132 54.8674 48.8009 54.3788 48.8009C53.9987 48.8009 53.7136 48.9367 53.0077 49.3305C46.0713 48.5972 9.48846 31.6645 5.25327 27.1563C5.22612 27.1156 5.1854 27.0885 5.14467 27.0613C4.80532 26.7761 5.0225 25.7577 5.10395 25.3232L5.14467 25.1331C5.7148 22.1594 12.0269 13.1431 23.7687 17.4475C23.9994 17.529 18.8955 14.0664 18.0674 14.0664C17.4294 14.0664 13.3979 14.338 11.3753 14.7318C11.1445 14.7725 10.9816 14.8132 10.9273 14.8132C10.8459 14.8132 10.7509 14.8404 10.6694 14.8811C8.28034 15.7773 6.40709 16.7143 4.91391 17.8006C4.5474 18.0993 4.39809 18.561 4.47953 18.9955C2.25334 20.6657 1.1674 22.2544 1.1674 22.2544V22.2001C0.923058 22.6754 0.705869 23.1642 0.502254 23.6802C-0.203611 25.4726 -0.176462 27.781 0.542977 28.9216C3.05423 32.9952 15.5019 39.418 25.4926 44.0891C34.9132 48.4886 47.2387 53.6078 49.0169 53.6078C49.044 53.6078 49.1119 53.6078 49.1391 53.6078C50.4286 53.5127 52.044 52.6844 53.605 51.8018C54.053 51.7747 54.4195 51.666 54.7181 51.4895C54.7996 51.4352 54.881 51.3809 54.9489 51.2994C55.2611 50.9735 55.8448 50.3625 55.5054 49.5613" fill="#1D5556"/>
<path d="M2.48411 49.5613C2.67415 49.1132 3.14925 48.8009 3.63792 48.8009C4.01801 48.8009 4.30307 48.9367 5.00893 49.3305C11.9454 48.5972 48.5282 31.6645 52.7634 27.1563C52.7906 27.1156 52.8313 27.0885 52.872 27.0613C53.2114 26.7761 52.9942 25.7577 52.9127 25.3232L52.872 25.1331C52.3019 22.1594 45.9898 13.1431 34.248 17.4475C34.0173 17.529 37.8859 14.0664 38.7004 14.0664C39.3384 14.0664 44.6052 14.338 46.6278 14.7318C46.8586 14.7725 47.0215 14.8132 47.0758 14.8132C47.1572 14.8132 47.2522 14.8404 47.3337 14.8811C49.7228 15.7773 51.596 16.7143 53.0892 17.8006C53.4557 18.0993 53.605 18.561 53.5236 18.9955C55.7498 20.6657 56.8357 22.2544 56.8357 22.2544V22.2001C57.08 22.6754 57.2972 23.1642 57.5009 23.6802C58.2067 25.4726 58.1931 27.781 57.4601 28.9216C54.9489 32.9952 42.5012 39.418 32.5105 44.0891C23.0899 48.4886 10.7644 53.6078 8.98621 53.6078C8.95906 53.6078 8.89119 53.6078 8.86404 53.6078C7.57448 53.5127 5.95913 52.6844 4.38451 51.8018C3.93656 51.7747 3.57005 51.666 3.27142 51.4895C3.18997 51.4352 3.10853 51.3809 3.04065 51.2994C2.72844 50.9735 2.14475 50.3625 2.48411 49.5613Z" fill="#1D5556"/>
<path d="M57.5551 47.1603C57.5009 46.9702 57.433 46.7665 57.3651 46.5357C57.3651 46.5085 57.3515 46.4814 57.338 46.4542C54.0122 37.2478 44.8631 25.4343 34.0444 18.7671C32.144 17.5993 30.1893 16.5809 28.2075 15.7662C24.8817 14.2046 19.2484 13.0233 17.0901 13.1591C12.8006 13.227 8.94548 14.707 4.94106 17.7894C4.94106 17.7894 4.94106 17.803 4.92748 17.803C3.27142 19.0251 2.09045 20.4373 1.18097 22.2025V22.2568C1.18097 22.2568 2.26692 20.6681 4.4931 18.9979C7.22154 16.9475 11.6468 14.7749 17.891 15.2638C22.1805 15.7662 28.0853 20.0707 30.5287 21.9717C30.9087 22.2433 31.2752 22.5148 31.6418 22.8C42.4198 31.1238 49.9942 45.721 50.4151 48.9391V49.0613C50.4965 49.523 50.5101 49.7674 50.3743 49.9168C50.2929 50.0119 50.0214 50.2427 49.2612 50.4056C47.2522 50.7859 41.9854 51.2475 29.0083 45.6938C29.0083 45.6938 39.0126 50.3377 46.1799 52.7819C46.5871 53.0535 47.2522 53.23 48.2703 53.5016C49.2341 53.7596 50.673 54.0855 52.0847 54.1805C52.3562 54.1941 52.6277 54.2077 52.872 54.2077C56.8086 54.2077 57.7316 51.9672 57.9352 50.6229C58.1388 49.1292 57.8809 48.2602 57.5551 47.1603Z" fill="#1D5556"/>
<path d="M0.0678682 50.6229C0.271483 51.9672 1.19454 54.2077 5.13109 54.2077C5.389 54.2077 5.64692 54.2077 5.9184 54.1805C7.33013 54.0855 8.76901 53.7596 9.73279 53.5016C10.7373 53.23 11.416 53.0535 11.8232 52.7819C18.9905 50.3377 29.0355 45.6802 29.0355 45.6802C16.0584 51.2339 10.7509 50.7859 8.74186 50.4056C7.9817 50.2427 7.71021 50.0119 7.62877 49.9168C7.49303 49.7539 7.49303 49.523 7.57447 49.0613V48.9391C8.00885 45.7074 15.5969 31.1238 26.3749 22.8C26.7414 22.5148 27.1079 22.2433 27.488 21.9717C29.945 20.0707 35.8498 15.7662 40.1257 15.2638C46.3563 14.7749 50.7951 16.9475 53.5236 18.9979C55.7498 20.6681 56.8357 22.2568 56.8357 22.2568V22.2025C55.9262 20.4237 54.7453 19.0115 53.0892 17.803C53.0892 17.803 53.0892 17.7894 53.0756 17.7894C49.0848 14.6935 45.2161 13.227 40.9266 13.1591C38.7683 13.0233 33.1349 14.2046 29.8092 15.7662C27.8274 16.5809 25.8727 17.5993 23.9723 18.7671C13.1399 25.4343 3.99085 37.2478 0.665139 46.4542C0.665139 46.4814 0.651564 46.5085 0.63799 46.5357C0.570118 46.7665 0.515821 46.9702 0.447949 47.1603C0.122166 48.2602 -0.135747 49.1292 0.0678682 50.6229Z" fill="#1D5556"/>
<path d="M35.0218 5.93392C35.0218 9.20641 32.3205 11.8678 29.0083 11.8678C25.6962 11.8678 22.9949 9.20641 22.9949 5.93392C22.9949 2.66144 25.6826 0 29.0083 0C32.334 0 35.0218 2.66144 35.0218 5.93392Z" fill="#1D5556"/>
<path d="M70.8444 11.9765V0.855469H77.2243V2.82439H73.0706V5.33646H77.1157V7.29181H73.0706V11.9765H70.8444Z" fill="#1D5556"/>
<path d="M83.197 11.978V10.9596C82.7627 11.5706 81.8803 12.1817 80.8351 12.1817C79.3283 12.1817 78.6632 11.3669 78.6632 9.99549V3.92578H80.6586V9.24866C80.6586 10.1041 81.0523 10.4164 81.731 10.4164C82.4097 10.4164 82.9255 9.9276 83.197 9.45234V3.92578H85.2196V11.978H83.197Z" fill="#1D5556"/>
<path d="M91.5588 11.9746V6.6925C91.5588 5.82346 91.1652 5.49757 90.4865 5.49757C89.8078 5.49757 89.2919 6.01356 89.0069 6.5024V11.9882H87.0114V3.92243H89.0069V4.968C89.4413 4.32979 90.3507 3.71875 91.396 3.71875C92.9027 3.71875 93.5678 4.57421 93.5678 5.93209V11.9611H91.5724L91.5588 11.9746Z" fill="#1D5556"/>
<path d="M99.9885 9.45083V6.42277C99.717 5.90677 99.1333 5.48583 98.5903 5.48583C97.5451 5.48583 97.0021 6.5314 97.0021 7.93001C97.0021 9.32862 97.5315 10.4013 98.5903 10.4013C99.1469 10.4013 99.7306 9.9804 99.9885 9.45083ZM99.9885 11.9765V10.9581C99.4862 11.7592 98.7261 12.1802 97.9388 12.1802C96.1198 12.1802 94.9388 10.5914 94.9388 7.94359C94.9388 5.29573 96.1198 3.72059 97.9388 3.72059C98.7261 3.72059 99.4998 4.1008 99.9885 4.95626V0.855469H101.984V11.9765H99.9885Z" fill="#1D5556"/>
<path d="M108.445 9.44899V6.4345C108.174 5.91851 107.59 5.49757 107.047 5.49757C106.002 5.49757 105.459 6.52956 105.459 7.92817C105.459 9.32678 105.988 10.3995 107.047 10.3995C107.604 10.3995 108.187 9.97857 108.445 9.44899ZM108.445 11.9746V10.9562C107.943 11.7574 107.183 12.1783 106.396 12.1783C104.577 12.1783 103.396 10.5896 103.396 7.94175C103.396 5.29389 104.577 3.71875 106.396 3.71875C107.183 3.71875 107.957 4.09896 108.445 4.95442V3.92243H110.441V11.9746H108.445Z" fill="#1D5556"/>
<path d="M111.839 7.94175C111.839 5.49757 113.318 3.71875 115.545 3.71875C116.807 3.71875 117.662 4.23474 118.11 4.80505L117.146 6.19009C116.78 5.72841 116.346 5.48399 115.775 5.48399C114.622 5.48399 113.902 6.51598 113.902 7.92817C113.902 9.34036 114.622 10.3995 115.775 10.3995C116.346 10.3995 116.78 10.1551 117.146 9.67983L118.11 11.0784C117.662 11.6623 116.807 12.1647 115.545 12.1647C113.332 12.1647 111.839 10.3995 111.839 7.92817" fill="#1D5556"/>
<path d="M119.332 3.92446H121.327V11.9767H119.332V3.92446ZM119.128 1.81975C119.128 1.15439 119.685 0.597656 120.323 0.597656C120.961 0.597656 121.545 1.15439 121.545 1.81975C121.545 2.48511 120.988 3.01468 120.323 3.01468C119.658 3.01468 119.128 2.48511 119.128 1.81975Z" fill="#1D5556"/>
<path d="M126.513 2.70032H125.182L126.988 0.296875H128.766L126.513 2.70032ZM127.965 7.94172C127.965 6.62458 127.476 5.49755 126.377 5.49755C125.277 5.49755 124.789 6.63816 124.789 7.94172C124.789 9.24529 125.291 10.4131 126.377 10.4131C127.463 10.4131 127.965 9.27244 127.965 7.94172ZM122.712 7.94172C122.712 5.67407 124.001 3.71873 126.377 3.71873C128.752 3.71873 130.042 5.67407 130.042 7.94172C130.042 10.2094 128.78 12.1783 126.377 12.1783C123.974 12.1783 122.712 10.2094 122.712 7.94172Z" fill="#1D5556"/>
<path d="M135.974 11.9746V6.6925C135.974 5.82346 135.58 5.49757 134.902 5.49757C134.223 5.49757 133.707 6.01356 133.422 6.5024V11.9882H131.427V3.92243H133.422V4.968C133.856 4.32979 134.766 3.71875 135.811 3.71875C137.304 3.71875 137.983 4.57421 137.983 5.93209V11.9611H135.988L135.974 11.9746Z" fill="#1D5556"/>
<path d="M70.2743 31.1361L71.8761 28.5697C72.7855 29.6017 74.2516 30.3485 75.8805 30.3485C77.3872 30.3485 78.1474 29.5338 78.1474 28.5154C78.1474 25.5959 70.763 26.6415 70.763 21.047C70.763 18.4535 72.7855 16.2266 76.1927 16.2266C78.2153 16.2266 79.9528 16.8919 81.2016 18.0597L79.6406 20.5853C78.6496 19.6213 77.3737 19.1732 76.1112 19.1732C74.8488 19.1732 74.1294 19.8657 74.1294 20.8569C74.1294 23.4505 81.4867 22.7172 81.4867 28.2438C81.4867 31.1089 79.532 33.2815 75.8805 33.2815C73.3828 33.2815 71.5503 32.4668 70.2471 31.1361" fill="#1D5556"/>
<path d="M90.4186 29.262V24.7946C90.0249 24.0342 89.1562 23.4096 88.3417 23.4096C86.7807 23.4096 85.9934 24.944 85.9934 27.0215C85.9934 29.0991 86.7807 30.6742 88.3417 30.6742C89.1562 30.6742 90.0249 30.0496 90.4186 29.262ZM90.4186 32.9962V31.4889C89.672 32.6703 88.5453 33.2949 87.3779 33.2949C84.6902 33.2949 82.9256 30.9458 82.9256 27.0215C82.9256 23.0973 84.6767 20.7617 87.3779 20.7617C88.5453 20.7617 89.6992 21.332 90.4186 22.5949V21.0605H93.3778V32.9962H90.4186Z" fill="#1D5556"/>
<path d="M96.0791 30.1312V16.5117H99.0383V29.4387C99.0383 30.1991 99.3369 30.6744 99.9206 30.6744C100.274 30.6744 100.64 30.525 100.789 30.3349L101.414 32.6026C100.966 32.9964 100.206 33.2951 99.1197 33.2951C97.0429 33.2951 96.0791 32.2359 96.0791 30.1312Z" fill="#1D5556"/>
<path d="M109.518 29.2622V24.7676C109.124 24.0072 108.255 23.3826 107.441 23.3826C105.88 23.3826 105.092 24.9441 105.092 27.0217C105.092 29.0992 105.88 30.6744 107.441 30.6744C108.255 30.6744 109.124 30.0498 109.518 29.2622ZM109.518 32.9963V31.4891C108.771 32.6705 107.644 33.2951 106.477 33.2951C103.789 33.2951 102.025 30.946 102.025 27.0217C102.025 23.0974 103.776 20.7619 106.477 20.7619C107.644 20.7619 108.798 21.3322 109.518 22.595V16.5117H112.477V32.9963H109.518Z" fill="#1D5556"/>
<path d="M122.047 29.262V24.7946C121.653 24.0342 120.784 23.4096 119.97 23.4096C118.409 23.4096 117.622 24.944 117.622 27.0215C117.622 29.0991 118.409 30.6742 119.97 30.6742C120.784 30.6742 121.653 30.0496 122.047 29.262ZM122.047 32.9962V31.4889C121.3 32.6703 120.174 33.2949 119.006 33.2949C116.318 33.2949 114.554 30.9458 114.554 27.0215C114.554 23.0973 116.305 20.7617 119.006 20.7617C120.174 20.7617 121.327 21.332 122.047 22.5949V21.0605H125.006V32.9962H122.047Z" fill="#1D5556"/>
<path d="M127.694 32.9962V21.0605H130.653V22.6899C131.318 21.6308 132.648 20.7617 133.911 20.7617V23.6812C133.707 23.6268 133.463 23.5861 133.218 23.5861C132.282 23.5861 131.142 24.2243 130.653 25.039V32.9962H127.694Z" fill="#1D5556"/>
<path d="M135.608 32.9962V21.0605H138.567V22.6899C139.232 21.6308 140.562 20.7617 141.825 20.7617V23.6812C141.621 23.6268 141.377 23.5861 141.132 23.5861C140.196 23.5861 139.055 24.2243 138.567 25.039V32.9962H135.608Z" fill="#1D5556"/>
<path d="M143.508 21.0619H146.467V32.9977H143.508V21.0619ZM143.209 17.9388C143.209 16.9475 144.024 16.1328 144.987 16.1328C145.951 16.1328 146.793 16.9475 146.793 17.9388C146.793 18.93 145.978 19.7176 144.987 19.7176C143.996 19.7176 143.209 18.93 143.209 17.9388Z" fill="#1D5556"/>
<path d="M156.01 29.262V24.7946C155.616 24.0342 154.747 23.4096 153.933 23.4096C152.372 23.4096 151.584 24.944 151.584 27.0215C151.584 29.0991 152.372 30.6742 153.933 30.6742C154.747 30.6742 155.616 30.0496 156.01 29.262ZM156.01 32.9962V31.4889C155.263 32.6703 154.136 33.2949 152.969 33.2949C150.281 33.2949 148.517 30.9458 148.517 27.0215C148.517 23.0973 150.268 20.7617 152.969 20.7617C154.136 20.7617 155.29 21.332 156.01 22.5949V21.0605H158.969V32.9962H156.01Z" fill="#1D5556"/>
<path d="M168.539 28.8954V24.7675C168.145 24.007 167.276 23.3824 166.462 23.3824C164.901 23.3824 164.114 24.7675 164.114 26.845C164.114 28.9226 164.901 30.2804 166.462 30.2804C167.276 30.2804 168.145 29.6558 168.539 28.8954ZM161.575 36.2823L162.743 34.0146C163.584 34.8836 164.616 35.3182 165.851 35.3182C167.209 35.3182 168.539 34.5713 168.539 32.6024V31.0409C167.792 32.2222 166.666 32.9011 165.498 32.9011C162.81 32.9011 161.046 30.7557 161.046 26.845C161.046 22.9343 162.77 20.7617 165.498 20.7617C166.666 20.7617 167.792 21.332 168.539 22.5949V21.0605H171.498V32.6024C171.498 36.7032 168.661 37.8438 165.987 37.8438C164.209 37.8438 162.824 37.4229 161.562 36.2823" fill="#1D5556"/>
<path d="M181.041 29.262V24.7946C180.647 24.0342 179.778 23.4096 178.964 23.4096C177.403 23.4096 176.616 24.944 176.616 27.0215C176.616 29.0991 177.403 30.6742 178.964 30.6742C179.778 30.6742 180.647 30.0496 181.041 29.262ZM181.041 32.9962V31.4889C180.294 32.6703 179.168 33.2949 178 33.2949C175.312 33.2949 173.548 30.9458 173.548 27.0215C173.548 23.0973 175.299 20.7617 178 20.7617C179.168 20.7617 180.321 21.332 181.041 22.5949V21.0605H184V32.9962H181.041Z" fill="#1D5556"/>
<path d="M70.6815 45.7892C70.6815 40.7786 73.3692 37.2617 77.6994 37.2617C80.8351 37.2617 82.369 39.3121 83.2106 41.2131L80.4686 42.4217C79.9799 41.1181 79.0162 40.1947 77.6994 40.1947C75.4325 40.1947 74.0615 42.5167 74.0615 45.7756C74.0615 49.0345 75.419 51.3565 77.6994 51.3565C79.0569 51.3565 80.0207 50.3245 80.4958 48.953L83.2378 50.1344C82.4233 52.0897 80.8894 54.2895 77.6994 54.2895C73.3692 54.2895 70.6815 50.759 70.6815 45.762" fill="#1D5556"/>
<path d="M92.1968 48.0411C92.1968 46.0857 91.4774 44.402 89.8485 44.402C88.2195 44.402 87.5001 46.0857 87.5001 48.0411C87.5001 49.9964 88.2467 51.6938 89.8485 51.6938C91.4502 51.6938 92.1968 50.01 92.1968 48.0411ZM84.4187 48.0411C84.4187 44.6735 86.3191 41.7812 89.8485 41.7812C93.3778 41.7812 95.2782 44.6735 95.2782 48.0411C95.2782 51.4086 93.4049 54.3145 89.8485 54.3145C86.292 54.3145 84.4187 51.395 84.4187 48.0411Z" fill="#1D5556"/>
<path d="M104.074 54.0157V46.1808C104.074 44.8908 103.477 44.402 102.5 44.402C101.522 44.402 100.721 45.1624 100.301 45.882V54.0157H97.3415V42.08H100.301V43.6415C100.939 42.7046 102.296 41.7812 103.83 41.7812C106.056 41.7812 107.047 43.0441 107.047 45.0673V54.0157H104.088H104.074Z" fill="#1D5556"/>
<path d="M109.097 48.0411C109.097 44.402 111.296 41.7812 114.581 41.7812C116.454 41.7812 117.717 42.5417 118.382 43.3835L116.943 45.4339C116.4 44.7414 115.762 44.402 114.92 44.402C113.21 44.402 112.151 45.9364 112.151 48.0411C112.151 50.1458 113.21 51.6938 114.92 51.6938C115.762 51.6938 116.4 51.3271 116.943 50.6346L118.382 52.7122C117.717 53.5812 116.454 54.3145 114.581 54.3145C111.296 54.3145 109.097 51.6938 109.097 48.0411Z" fill="#1D5556"/>
<path d="M126.934 54.0159V46.1266C126.934 44.8638 126.336 44.4021 125.359 44.4021C124.382 44.4021 123.581 45.1625 123.187 45.8822V54.0159H120.201V37.5312H123.187V43.6417C123.811 42.7048 125.169 41.7814 126.689 41.7814C128.915 41.7814 129.906 42.9899 129.906 45.0132V54.0159H126.947H126.934Z" fill="#1D5556"/>
<path d="M139.435 50.2816V45.8141C139.042 45.0537 138.173 44.4291 137.359 44.4291C135.798 44.4291 135.01 45.9635 135.01 48.0411C135.01 50.1186 135.798 51.6938 137.359 51.6938C138.173 51.6938 139.042 51.0691 139.435 50.2816ZM139.435 54.0157V52.5085C138.689 53.6898 137.562 54.3145 136.395 54.3145C133.707 54.3145 131.942 51.9653 131.942 48.0411C131.942 44.1168 133.694 41.7812 136.395 41.7812C137.562 41.7812 138.716 42.3516 139.435 43.6144V42.08H142.395V54.0157H139.435Z" fill="#1D5556"/>
</g>
<defs>
<clipPath id="clip0_1211_4113">
<rect width="184" height="54.3151" fill="white"/>
</clipPath>
</defs>
</svg>
