<svg width="102" height="30" viewBox="0 0 102 30" fill="none" xmlns="http://www.w3.org/2000/svg">
<g clip-path="url(#clip0_1214_4185)">
<path d="M30.6725 27.3745C30.5675 27.127 30.3051 26.9545 30.0352 26.9545C29.8252 26.9545 29.6678 27.0295 29.2779 27.247C25.4467 26.842 5.2408 17.4895 2.90156 14.9995C2.88657 14.977 2.86408 14.962 2.84158 14.947C2.65414 14.7895 2.77411 14.227 2.81909 13.987L2.84158 13.882C3.15648 12.2395 6.64284 7.25953 13.1282 9.63703C13.2557 9.68203 10.4366 7.76953 9.97925 7.76953C9.62686 7.76953 7.40009 7.91953 6.28296 8.13703C6.1555 8.15953 6.06553 8.18203 6.03554 8.18203C5.99055 8.18203 5.93807 8.19703 5.89308 8.21953C4.57352 8.71453 3.53885 9.23203 2.71412 9.83203C2.51169 9.99703 2.42922 10.252 2.4742 10.492C1.24461 11.4145 0.644803 12.292 0.644803 12.292V12.262C0.509847 12.5245 0.389886 12.7945 0.277423 13.0795C-0.112449 14.0695 -0.0974543 15.3445 0.299916 15.9745C1.68696 18.2245 8.56221 21.772 14.0804 24.352C19.2837 26.782 26.0915 29.6095 27.0736 29.6095C27.0886 29.6095 27.1261 29.6095 27.1411 29.6095C27.8534 29.557 28.7456 29.0995 29.6078 28.612C29.8552 28.597 30.0577 28.537 30.2226 28.4395C30.2676 28.4095 30.3126 28.3795 30.3501 28.3345C30.5225 28.1545 30.8449 27.817 30.6575 27.3745" fill="#FAFAFA"/>
<path d="M1.37207 27.3745C1.47703 27.127 1.73944 26.9545 2.00936 26.9545C2.21929 26.9545 2.37674 27.0295 2.76661 27.247C6.59785 26.842 26.8037 17.4895 29.143 14.9995C29.158 14.977 29.1805 14.962 29.2029 14.947C29.3904 14.7895 29.2704 14.227 29.2254 13.987L29.2029 13.882C28.8881 12.2395 25.4017 7.25953 18.9163 9.63703C18.7889 9.68203 20.9257 7.76953 21.3755 7.76953C21.7279 7.76953 24.6369 7.91953 25.7541 8.13703C25.8815 8.15953 25.9715 8.18203 26.0015 8.18203C26.0465 8.18203 26.099 8.19703 26.1439 8.21953C27.4635 8.71453 28.4982 9.23203 29.3229 9.83203C29.5253 9.99703 29.6078 10.252 29.5628 10.492C30.7924 11.4145 31.3922 12.292 31.3922 12.292V12.262C31.5272 12.5245 31.6471 12.7945 31.7596 13.0795C32.1495 14.0695 32.142 15.3445 31.7371 15.9745C30.3501 18.2245 23.4748 21.772 17.9566 24.352C12.7533 26.782 5.94557 29.6095 4.96339 29.6095C4.94839 29.6095 4.91091 29.6095 4.89591 29.6095C4.18364 29.557 3.29144 29.0995 2.42172 28.612C2.1743 28.597 1.97187 28.537 1.80692 28.4395C1.76194 28.4095 1.71695 28.3795 1.67946 28.3345C1.50702 28.1545 1.18463 27.817 1.37207 27.3745Z" fill="#FAFAFA"/>
<path d="M31.7896 26.0476C31.7596 25.9426 31.7221 25.8301 31.6846 25.7026C31.6846 25.6876 31.6771 25.6726 31.6696 25.6576C29.8327 20.5726 24.7794 14.0476 18.8038 10.3651C17.7542 9.72009 16.6745 9.15759 15.5799 8.70759C13.743 7.84509 10.6315 7.19259 9.4394 7.26759C7.07018 7.30509 4.94088 8.12259 2.7291 9.82509C2.7291 9.82509 2.7291 9.83259 2.72161 9.83259C1.8069 10.5076 1.15462 11.2876 0.652283 12.2626V12.2926C0.652283 12.2926 1.25209 11.4151 2.48168 10.4926C3.98869 9.36009 6.43289 8.16009 9.88176 8.43009C12.251 8.70759 15.5124 11.0851 16.862 12.1351C17.0719 12.2851 17.2743 12.4351 17.4768 12.5926C23.4298 17.1901 27.6135 25.2526 27.8459 27.0301V27.0976C27.8909 27.3526 27.8984 27.4876 27.8234 27.5701C27.7784 27.6226 27.6284 27.7501 27.2086 27.8401C26.0989 28.0501 23.1899 28.3051 16.0222 25.2376C16.0222 25.2376 21.5479 27.8026 25.5066 29.1526C25.7316 29.3026 26.0989 29.4001 26.6613 29.5501C27.1936 29.6926 27.9883 29.8726 28.7681 29.9251C28.918 29.9326 29.068 29.9401 29.2029 29.9401C31.3772 29.9401 31.8871 28.7026 31.9995 27.9601C32.112 27.1351 31.9695 26.6551 31.7896 26.0476Z" fill="#FAFAFA"/>
<path d="M0.0375138 27.9601C0.149977 28.7026 0.65981 29.9401 2.8341 29.9401C2.97655 29.9401 3.119 29.9401 3.26896 29.9251C4.0487 29.8726 4.84344 29.6926 5.37577 29.5501C5.93058 29.4001 6.30546 29.3026 6.53039 29.1526C10.4891 27.8026 16.0373 25.2301 16.0373 25.2301C8.86962 28.2976 5.93808 28.0501 4.82844 27.8401C4.40858 27.7501 4.25863 27.6226 4.21365 27.5701C4.13867 27.4801 4.13867 27.3526 4.18366 27.0976V27.0301C4.42358 25.2451 8.6147 17.1901 14.5678 12.5926C14.7702 12.4351 14.9726 12.2851 15.1826 12.1351C16.5396 11.0851 19.801 8.70759 22.1628 8.43009C25.6041 8.16009 28.0558 9.36009 29.5628 10.4926C30.7924 11.4151 31.3922 12.2926 31.3922 12.2926V12.2626C30.8899 11.2801 30.2376 10.5001 29.3229 9.83259C29.3229 9.83259 29.3229 9.82509 29.3154 9.82509C27.1111 8.11509 24.9743 7.30509 22.6051 7.26759C21.413 7.19259 18.3015 7.84509 16.4646 8.70759C15.37 9.15759 14.2903 9.72009 13.2407 10.3651C7.25765 14.0476 2.2043 20.5726 0.367406 25.6576C0.367406 25.6726 0.359908 25.6876 0.352411 25.7026C0.314923 25.8301 0.284933 25.9426 0.247445 26.0476C0.067504 26.6551 -0.0749493 27.1351 0.0375138 27.9601Z" fill="#FAFAFA"/>
<path d="M19.3437 3.2775C19.3437 5.085 17.8517 6.555 16.0223 6.555C14.1929 6.555 12.7009 5.085 12.7009 3.2775C12.7009 1.47 14.1854 0 16.0223 0C17.8592 0 19.3437 1.47 19.3437 3.2775Z" fill="#FAFAFA"/>
<path d="M39.1297 6.61516V0.472656H42.6535V1.56016H40.3593V2.94766H42.5936V4.02766H40.3593V6.61516H39.1297Z" fill="#FAFAFA"/>
<path d="M45.9524 6.61547V6.05297C45.7125 6.39047 45.2252 6.72797 44.6478 6.72797C43.8156 6.72797 43.4482 6.27797 43.4482 5.52047V2.16797H44.5504V5.10797C44.5504 5.58047 44.7678 5.75297 45.1427 5.75297C45.5176 5.75297 45.8025 5.48297 45.9524 5.22047V2.16797H47.0696V6.61547H45.9524Z" fill="#FAFAFA"/>
<path d="M50.5709 6.61469V3.69719C50.5709 3.21719 50.3535 3.03719 49.9786 3.03719C49.6038 3.03719 49.3189 3.32219 49.1614 3.59219V6.62219H48.0593V2.16719H49.1614V2.74469C49.4013 2.39219 49.9037 2.05469 50.481 2.05469C51.3132 2.05469 51.6806 2.52719 51.6806 3.27719V6.60719H50.5784L50.5709 6.61469Z" fill="#FAFAFA"/>
<path d="M55.2269 5.22016V3.54766C55.0769 3.26266 54.7545 3.03016 54.4546 3.03016C53.8773 3.03016 53.5774 3.60766 53.5774 4.38016C53.5774 5.15266 53.8698 5.74516 54.4546 5.74516C54.762 5.74516 55.0844 5.51266 55.2269 5.22016ZM55.2269 6.61516V6.05266C54.9495 6.49516 54.5296 6.72766 54.0948 6.72766C53.0901 6.72766 52.4378 5.85016 52.4378 4.38766C52.4378 2.92516 53.0901 2.05516 54.0948 2.05516C54.5296 2.05516 54.957 2.26516 55.2269 2.73766V0.472656H56.329V6.61516H55.2269Z" fill="#FAFAFA"/>
<path d="M59.8979 5.21969V3.55469C59.7479 3.26969 59.4255 3.03719 59.1256 3.03719C58.5483 3.03719 58.2484 3.60719 58.2484 4.37969C58.2484 5.15219 58.5408 5.74469 59.1256 5.74469C59.433 5.74469 59.7554 5.51219 59.8979 5.21969ZM59.8979 6.61469V6.05219C59.6204 6.49469 59.2006 6.72719 58.7657 6.72719C57.7611 6.72719 57.1088 5.84969 57.1088 4.38719C57.1088 2.92469 57.7611 2.05469 58.7657 2.05469C59.2006 2.05469 59.6279 2.26469 59.8979 2.73719V2.16719H61V6.61469H59.8979Z" fill="#FAFAFA"/>
<path d="M61.7723 4.38719C61.7723 3.03719 62.5895 2.05469 63.8191 2.05469C64.5164 2.05469 64.9887 2.33969 65.2361 2.65469L64.7038 3.41969C64.5014 3.16469 64.2615 3.02969 63.9466 3.02969C63.3093 3.02969 62.9119 3.59969 62.9119 4.37969C62.9119 5.15969 63.3093 5.74469 63.9466 5.74469C64.2615 5.74469 64.5014 5.60969 64.7038 5.34719L65.2361 6.11969C64.9887 6.44219 64.5164 6.71969 63.8191 6.71969C62.597 6.71969 61.7723 5.74469 61.7723 4.37969" fill="#FAFAFA"/>
<path d="M65.9109 2.16563H67.0131V6.61313H65.9109V2.16563ZM65.7985 1.00313C65.7985 0.635625 66.1059 0.328125 66.4582 0.328125C66.8106 0.328125 67.133 0.635625 67.133 1.00313C67.133 1.37063 66.8256 1.66313 66.4582 1.66313C66.0909 1.66313 65.7985 1.37063 65.7985 1.00313Z" fill="#FAFAFA"/>
<path d="M69.8771 1.49156H69.1423L70.1395 0.164062H71.1217L69.8771 1.49156ZM70.6793 4.38656C70.6793 3.65906 70.4094 3.03656 69.8021 3.03656C69.1948 3.03656 68.9249 3.66656 68.9249 4.38656C68.9249 5.10656 69.2023 5.75156 69.8021 5.75156C70.4019 5.75156 70.6793 5.12156 70.6793 4.38656ZM67.7778 4.38656C67.7778 3.13406 68.49 2.05406 69.8021 2.05406C71.1142 2.05406 71.8264 3.13406 71.8264 4.38656C71.8264 5.63906 71.1292 6.72656 69.8021 6.72656C68.475 6.72656 67.7778 5.63906 67.7778 4.38656Z" fill="#FAFAFA"/>
<path d="M75.1029 6.61469V3.69719C75.1029 3.21719 74.8855 3.03719 74.5106 3.03719C74.1357 3.03719 73.8508 3.32219 73.6934 3.59219V6.62219H72.5912V2.16719H73.6934V2.74469C73.9333 2.39219 74.4356 2.05469 75.013 2.05469C75.8377 2.05469 76.2126 2.52719 76.2126 3.27719V6.60719H75.1104L75.1029 6.61469Z" fill="#FAFAFA"/>
<path d="M38.8148 17.1959L39.6995 15.7784C40.2018 16.3484 41.0116 16.7609 41.9113 16.7609C42.7435 16.7609 43.1634 16.3109 43.1634 15.7484C43.1634 14.1359 39.0847 14.7134 39.0847 11.6234C39.0847 10.1909 40.2018 8.96094 42.0837 8.96094C43.2009 8.96094 44.1605 9.32844 44.8503 9.97344L43.9881 11.3684C43.4408 10.8359 42.736 10.5884 42.0387 10.5884C41.3415 10.5884 40.9441 10.9709 40.9441 11.5184C40.9441 12.9509 45.0078 12.5459 45.0078 15.5984C45.0078 17.1809 43.9281 18.3809 41.9113 18.3809C40.5317 18.3809 39.5196 17.9309 38.7998 17.1959" fill="#FAFAFA"/>
<path d="M49.9411 16.1637V13.6962C49.7237 13.2763 49.2439 12.9312 48.794 12.9312C47.9318 12.9312 47.4969 13.7787 47.4969 14.9262C47.4969 16.0737 47.9318 16.9437 48.794 16.9437C49.2439 16.9437 49.7237 16.5987 49.9411 16.1637ZM49.9411 18.2262V17.3938C49.5288 18.0462 48.9065 18.3912 48.2617 18.3912C46.7772 18.3912 45.8025 17.0937 45.8025 14.9262C45.8025 12.7587 46.7697 11.4688 48.2617 11.4688C48.9065 11.4688 49.5438 11.7837 49.9411 12.4812V11.6338H51.5756V18.2262H49.9411Z" fill="#FAFAFA"/>
<path d="M53.0676 16.6436V9.12109H54.7021V16.2611C54.7021 16.6811 54.867 16.9436 55.1894 16.9436C55.3844 16.9436 55.5868 16.8611 55.6693 16.7561L56.0142 18.0086C55.7667 18.2261 55.3469 18.3911 54.7471 18.3911C53.6 18.3911 53.0676 17.8061 53.0676 16.6436Z" fill="#FAFAFA"/>
<path d="M60.4902 16.1636V13.6811C60.2728 13.2611 59.7929 12.9161 59.3431 12.9161C58.4809 12.9161 58.046 13.7786 58.046 14.9261C58.046 16.0736 58.4809 16.9436 59.3431 16.9436C59.7929 16.9436 60.2728 16.5986 60.4902 16.1636ZM60.4902 18.2261V17.3936C60.0778 18.0461 59.4555 18.3911 58.8108 18.3911C57.3262 18.3911 56.3516 17.0936 56.3516 14.9261C56.3516 12.7586 57.3187 11.4686 58.8108 11.4686C59.4555 11.4686 60.0928 11.7836 60.4902 12.4811V9.12109H62.1247V18.2261H60.4902Z" fill="#FAFAFA"/>
<path d="M67.4104 16.1637V13.6962C67.193 13.2763 66.7132 12.9312 66.2633 12.9312C65.4011 12.9312 64.9662 13.7787 64.9662 14.9262C64.9662 16.0737 65.4011 16.9437 66.2633 16.9437C66.7132 16.9437 67.193 16.5987 67.4104 16.1637ZM67.4104 18.2262V17.3938C66.9981 18.0462 66.3758 18.3912 65.731 18.3912C64.2465 18.3912 63.2718 17.0937 63.2718 14.9262C63.2718 12.7587 64.239 11.4688 65.731 11.4688C66.3758 11.4688 67.0131 11.7837 67.4104 12.4812V11.6338H69.0449V18.2262H67.4104Z" fill="#FAFAFA"/>
<path d="M70.5294 18.2262V11.6338H72.1639V12.5337C72.5313 11.9487 73.266 11.4688 73.9633 11.4688V13.0813C73.8508 13.0513 73.7159 13.0288 73.5809 13.0288C73.0636 13.0288 72.4338 13.3813 72.1639 13.8313V18.2262H70.5294Z" fill="#FAFAFA"/>
<path d="M74.9005 18.2262V11.6338H76.5349V12.5337C76.9023 11.9487 77.6371 11.4688 78.3343 11.4688V13.0813C78.2219 13.0513 78.0869 13.0288 77.952 13.0288C77.4346 13.0288 76.8048 13.3813 76.5349 13.8313V18.2262H74.9005Z" fill="#FAFAFA"/>
<path d="M79.2641 11.6327H80.8985V18.2252H79.2641V11.6327ZM79.0991 9.90766C79.0991 9.36016 79.549 8.91016 80.0813 8.91016C80.6136 8.91016 81.0785 9.36016 81.0785 9.90766C81.0785 10.4552 80.6286 10.8902 80.0813 10.8902C79.534 10.8902 79.0991 10.4552 79.0991 9.90766Z" fill="#FAFAFA"/>
<path d="M86.1693 16.1637V13.6962C85.9519 13.2763 85.472 12.9312 85.0222 12.9312C84.1599 12.9312 83.7251 13.7787 83.7251 14.9262C83.7251 16.0737 84.1599 16.9437 85.0222 16.9437C85.472 16.9437 85.9519 16.5987 86.1693 16.1637ZM86.1693 18.2262V17.3938C85.7569 18.0462 85.1346 18.3912 84.4898 18.3912C83.0053 18.3912 82.0306 17.0937 82.0306 14.9262C82.0306 12.7587 82.9978 11.4688 84.4898 11.4688C85.1346 11.4688 85.7719 11.7837 86.1693 12.4812V11.6338H87.8037V18.2262H86.1693Z" fill="#FAFAFA"/>
<path d="M93.0895 15.9613V13.6812C92.8721 13.2612 92.3922 12.9162 91.9424 12.9162C91.0802 12.9162 90.6453 13.6813 90.6453 14.8288C90.6453 15.9763 91.0802 16.7262 91.9424 16.7262C92.3922 16.7262 92.8721 16.3813 93.0895 15.9613ZM89.2433 20.0412L89.8881 18.7887C90.3529 19.2687 90.9227 19.5087 91.605 19.5087C92.3548 19.5087 93.0895 19.0963 93.0895 18.0087V17.1463C92.6772 17.7988 92.0548 18.1737 91.4101 18.1737C89.9255 18.1737 88.9509 16.9888 88.9509 14.8288C88.9509 12.6688 89.9031 11.4688 91.4101 11.4688C92.0548 11.4688 92.6772 11.7837 93.0895 12.4812V11.6338H94.724V18.0087C94.724 20.2738 93.157 20.9038 91.68 20.9038C90.6978 20.9038 89.933 20.6712 89.2358 20.0412" fill="#FAFAFA"/>
<path d="M99.9947 16.1637V13.6962C99.7773 13.2763 99.2975 12.9312 98.8476 12.9312C97.9854 12.9312 97.5505 13.7787 97.5505 14.9262C97.5505 16.0737 97.9854 16.9437 98.8476 16.9437C99.2975 16.9437 99.7773 16.5987 99.9947 16.1637ZM99.9947 18.2262V17.3938C99.5824 18.0462 98.9601 18.3912 98.3153 18.3912C96.8308 18.3912 95.8561 17.0937 95.8561 14.9262C95.8561 12.7587 96.8233 11.4688 98.3153 11.4688C98.9601 11.4688 99.5974 11.7837 99.9947 12.4812V11.6338H101.629V18.2262H99.9947Z" fill="#FAFAFA"/>
<path d="M39.0397 25.2881C39.0397 22.5206 40.5242 20.5781 42.916 20.5781C44.6479 20.5781 45.4951 21.7106 45.96 22.7606L44.4455 23.4281C44.1756 22.7081 43.6432 22.1981 42.916 22.1981C41.6639 22.1981 40.9066 23.4806 40.9066 25.2806C40.9066 27.0806 41.6564 28.3631 42.916 28.3631C43.6657 28.3631 44.198 27.7931 44.4605 27.0356L45.975 27.6881C45.5251 28.7681 44.6779 29.9831 42.916 29.9831C40.5242 29.9831 39.0397 28.0331 39.0397 25.2731" fill="#FAFAFA"/>
<path d="M50.9233 26.5356C50.9233 25.4556 50.5259 24.5256 49.6262 24.5256C48.7265 24.5256 48.3291 25.4556 48.3291 26.5356C48.3291 27.6156 48.7415 28.5531 49.6262 28.5531C50.5109 28.5531 50.9233 27.6231 50.9233 26.5356ZM46.6272 26.5356C46.6272 24.6756 47.6769 23.0781 49.6262 23.0781C51.5756 23.0781 52.6252 24.6756 52.6252 26.5356C52.6252 28.3956 51.5906 30.0006 49.6262 30.0006C47.6619 30.0006 46.6272 28.3881 46.6272 26.5356Z" fill="#FAFAFA"/>
<path d="M57.4837 29.8356V25.5081C57.4837 24.7956 57.1538 24.5256 56.614 24.5256C56.0741 24.5256 55.6318 24.9456 55.3994 25.3431V29.8356H53.7649V23.2431H55.3994V24.1056C55.7517 23.5881 56.5015 23.0781 57.3487 23.0781C58.5783 23.0781 59.1256 23.7756 59.1256 24.8931V29.8356H57.4912H57.4837Z" fill="#FAFAFA"/>
<path d="M60.2578 26.5356C60.2578 24.5256 61.4724 23.0781 63.2868 23.0781C64.3214 23.0781 65.0187 23.4981 65.3861 23.9631L64.5913 25.0956C64.2914 24.7131 63.939 24.5256 63.4742 24.5256C62.5295 24.5256 61.9447 25.3731 61.9447 26.5356C61.9447 27.6981 62.5295 28.5531 63.4742 28.5531C63.939 28.5531 64.2914 28.3506 64.5913 27.9681L65.3861 29.1156C65.0187 29.5956 64.3214 30.0006 63.2868 30.0006C61.4724 30.0006 60.2578 28.5531 60.2578 26.5356Z" fill="#FAFAFA"/>
<path d="M70.1095 29.8355V25.478C70.1095 24.7805 69.7796 24.5255 69.2398 24.5255C68.7 24.5255 68.2576 24.9455 68.0402 25.343V29.8355H66.3907V20.7305H68.0402V24.1055C68.3851 23.588 69.1348 23.078 69.9746 23.078C71.2042 23.078 71.7515 23.7455 71.7515 24.863V29.8355H70.117H70.1095Z" fill="#FAFAFA"/>
<path d="M77.0147 27.7731V25.3056C76.7973 24.8856 76.3175 24.5406 75.8676 24.5406C75.0054 24.5406 74.5705 25.3881 74.5705 26.5356C74.5705 27.6831 75.0054 28.5531 75.8676 28.5531C76.3175 28.5531 76.7973 28.2081 77.0147 27.7731ZM77.0147 29.8356V29.0031C76.6024 29.6556 75.9801 30.0006 75.3353 30.0006C73.8508 30.0006 72.8761 28.7031 72.8761 26.5356C72.8761 24.3681 73.8433 23.0781 75.3353 23.0781C75.9801 23.0781 76.6174 23.3931 77.0147 24.0906V23.2431H78.6492V29.8356H77.0147Z" fill="#FAFAFA"/>
</g>
<defs>
<clipPath id="clip0_1214_4185">
<rect width="101.629" height="30" fill="white"/>
</clipPath>
</defs>
</svg>
