<svg width="129" height="230" viewBox="0 0 129 230" fill="none" xmlns="http://www.w3.org/2000/svg">
<path d="M31.7632 94.3068C38.8587 87.933 45.9581 81.5517 53.0611 75.1818C54.1918 78.9519 55.652 82.6149 57.8049 86.0528C58.955 83.7956 62.3623 82.6886 62.3767 80.8004C61.1552 77.041 60.5197 72.7082 60.6395 68.3812C65.1454 64.3367 69.6552 60.2848 74.1612 56.2404C76.937 53.7501 79.7167 51.2522 82.5338 48.7924C84.428 54.4679 86.7843 59.9807 89.3168 65.1474C90.4669 62.8902 93.8743 61.7832 93.1219 61.3998C91.8945 55.4386 89.707 49.5947 88.5132 43.6791C96.1982 37.2645 104.216 31.3132 113.013 26.5838C114.189 25.9507 115.561 25.3229 116.815 25.7819C118.061 26.237 118.72 27.5865 119.118 28.8509C121.954 37.7549 118.354 47.3124 114.619 55.8719C105.828 76.0437 95.9187 95.8821 83.4357 113.964C76.0891 111.642 69.3062 109.181 62.953 103.849C62.1863 105.354 59.9147 106.092 60.2837 107.228C64.5932 113.632 70.7833 118.558 77.8212 121.746C76.8904 122.978 75.9483 124.194 74.9912 125.403C69.6033 132.201 63.7307 138.668 57.4123 144.651C50.6704 142.76 43.8491 140.393 38.5498 135.021C35.9236 132.735 35.7259 136.396 35.1282 138.016C39.0013 144.197 44.6348 147.817 50.8454 150.545C43.6424 156.646 35.9118 162.109 27.6479 166.683C19.6684 171.109 8.25449 177.718 -0.800608 179.066C-11.4928 180.65 -9.67577 172.639 -7.37575 164.182C-5.72828 158.102 -5.82301 151.685 -4.71089 145.485C-0.936915 124.463 15.8761 108.597 31.7631 94.3257L31.7632 94.3068Z" fill="#FAAA8D"/>
<path d="M105.881 52.1284C105.683 46.9002 104.026 41.8383 101.056 37.5294C100.654 42.7833 102.441 48.1482 105.881 52.1284Z" fill="#B6174B"/>
<path d="M100.064 63.7862C99.6852 57.0346 97.8092 50.4492 94.5536 44.5254C94.4151 51.3071 96.3726 58.1047 100.064 63.7862Z" fill="#B6174B"/>
<path d="M86.2629 77.9071C85.447 71.4732 82.8729 65.3092 78.8441 60.2331C79.6487 66.6707 82.2455 72.8273 86.2629 77.9071Z" fill="#B6174B"/>
<path d="M79.6502 83.3156C79.0082 76.8566 76.5673 70.5614 72.6754 65.3655C73.306 71.8282 75.7696 78.116 79.6502 83.3156Z" fill="#B6174B"/>
<path d="M72.6923 89.1048C72.4863 82.4225 70.512 75.8627 66.9674 70.1898C67.1509 76.8417 69.1702 83.4622 72.6923 89.1048Z" fill="#B6174B"/>
<path d="M56.7578 102.578C56.0256 99.0484 54.6263 95.8239 53.2576 92.5581C51.969 89.6744 50.3369 85.791 48.9044 82.9666C48.4224 90.2366 52.0094 97.2769 56.7617 102.57L56.7578 102.578Z" fill="#B6174B"/>
<path d="M50.0382 108.288C50.0408 103.967 48.509 99.7938 45.6826 96.5245C45.1852 100.849 46.8507 105.318 50.0382 108.288Z" fill="#B6174B"/>
<path d="M44.1841 113.267C43.3405 110.979 41.6836 106.363 40.8854 104.061C39.7344 100.963 38.5425 97.7967 36.4061 95.1633C37.1344 101.695 38.7214 109.033 44.188 113.259L44.1841 113.267Z" fill="#B6174B"/>
<path d="M35.7179 120.524C34.4715 114.581 32.535 109.007 29.7815 103.586C29.0741 109.699 31.355 116.178 35.7179 120.524Z" fill="#B6174B"/>
<path d="M25.8056 129.86C26.1109 124.965 23.5164 120.496 21.0354 116.493C20.2036 115.131 19.2304 113.99 18.5997 112.494C18.172 114.115 18.7595 115.826 19.2388 117.359C20.866 121.885 23.3709 125.729 25.8017 129.868L25.8056 129.86Z" fill="#B6174B"/>
<path d="M19.3805 140.366C18.5676 133.535 16.3593 126.951 12.8656 121.029C12.987 127.915 15.3214 134.81 19.3805 140.366Z" fill="#B6174B"/>
<path d="M13.3205 149.117C12.481 143.306 10.8569 136.375 9.72998 130.607C9.2848 128.561 8.86617 126.499 8.27405 124.406C7.39208 128.648 7.66854 133.016 8.49757 137.23C9.38707 141.436 10.8437 145.552 13.313 149.113L13.3205 149.117Z" fill="#B6174B"/>
<path d="M6.43989 158.956C6.20764 153.739 5.29572 147.512 4.7385 142.319C4.50328 140.474 4.28324 138.618 3.88986 136.712C2.60446 140.369 2.4501 144.28 2.85539 148.098C3.32115 151.908 4.35749 155.677 6.42852 158.96L6.43989 158.956Z" fill="#B6174B"/>
<path d="M0.808879 165.677C0.481167 164.571 0.653865 163.712 0.66545 162.685C0.68204 159.509 0.0868937 156.324 -1.73561 153.633C-2.76908 156.442 -2.30096 164.414 0.808879 165.677Z" fill="#B6174B"/>
<path d="M102.998 57.9379C105.301 60.0023 108.29 58.284 110.427 56.7859C108.079 54.7929 105.195 56.5271 102.998 57.9379Z" fill="#B6174B"/>
<path d="M108.198 47.4909C110.52 48.5698 113.173 47.7893 114.515 45.6016C112.247 44.4929 109.491 45.3254 108.198 47.4909Z" fill="#B6174B"/>
<path d="M95.5382 69.3775C98.6601 71.5463 103.063 71.61 106.236 69.5117C102.765 68.1409 99.0413 68.1012 95.5382 69.3775Z" fill="#B6174B"/>
<path d="M89.1453 75.1898C92.4437 77.9793 96.9049 79.3237 101.195 78.7898C97.8519 75.9773 93.4771 74.6864 89.1453 75.1898Z" fill="#B6174B"/>
<path d="M82.09 81.7832C83.4295 83.9347 85.6852 85.2737 88.0668 85.9564C90.4742 86.7187 92.782 86.1887 95.245 86.0979C94.3839 85.1094 93.0501 84.6952 91.9459 84.3884C88.8099 83.5866 85.2875 82.4458 82.09 81.7832Z" fill="#B6174B"/>
<path d="M70.6615 92.9602C74.7241 96.0728 80.0726 97.4428 85.1318 96.6277C80.7671 94.0152 75.7425 92.7534 70.6615 92.9602Z" fill="#B6174B"/>
<path d="M65.1035 97.0032C69.6457 101.109 75.3539 103.856 81.4042 104.816C76.8658 100.703 71.15 97.9706 65.1035 97.0032Z" fill="#B6174B"/>
<path d="M46.6274 110.795C50.4839 112.21 53.5518 115.005 57.3006 116.669C60.999 118.506 64.7632 120.14 68.8347 121.077C67.2441 119.679 65.5383 118.526 63.8057 117.425C60.3176 115.249 56.6569 113.413 52.8428 111.896C50.9375 111.152 48.723 110.346 46.6311 110.806L46.6274 110.795Z" fill="#B6174B"/>
<path d="M38.9805 118.102C43.8292 122.126 49.4192 125.013 55.2171 127.379C57.0964 128.062 59.5422 129.251 61.5143 128.152C59.3392 128.124 57.9079 126.637 56.1144 125.6C50.7537 122.357 45.1023 119.591 38.9805 118.102Z" fill="#B6174B"/>
<path d="M30.6831 124.157C37.2854 126.526 42.0886 131.57 48.5794 134.195C50.7821 135.061 53.21 135.616 55.5613 135.317C53.3352 134.552 51.3637 133.567 49.4616 132.408C43.6866 129.01 37.8698 123.668 30.6831 124.157Z" fill="#B6174B"/>
<path d="M15.6245 145.06C22.8352 149.862 31.8327 152.125 40.4574 151.25C32.2709 148.623 24.0837 146.594 15.6245 145.06Z" fill="#B6174B"/>
<path d="M8.65092 154.301C12.0167 159.153 23.3179 160.912 28.9548 160.619C25.7656 158.861 22.3024 157.883 18.8348 156.988C17.131 156.556 15.427 156.162 13.7155 155.764C12.1965 155.378 10.0536 155.082 8.65092 154.301Z" fill="#B6174B"/>
<path d="M2.42984 162.884C5.60795 166.095 10.3338 167.404 14.7546 167.116C16.2359 166.999 17.7186 166.693 19.0945 166.039C17.6209 165.639 16.2292 165.394 14.849 165.127C10.9265 164.455 6.37992 163.408 2.42232 162.88L2.42984 162.884Z" fill="#B6174B"/>
<path d="M-4.15403 171.471C-0.375453 173.69 4.49872 173.871 8.4223 171.918C4.37038 170.384 -0.00179068 170.241 -4.15403 171.471Z" fill="#B6174B"/>
<path d="M111.179 37.7883C108.522 44.0825 106.075 50.4274 102.684 56.3384C99.3243 62.1703 95.0247 67.3908 90.2904 72.1623C83.8708 78.5488 76.9637 84.4784 70.1916 90.5336C63.5791 96.4616 56.2313 102.735 49.3048 108.238C42.176 114.026 34.6286 119.241 28.1394 125.838C24.8814 129.163 22.0061 132.816 19.3152 136.553C13.937 144.058 9.23262 151.84 3.83015 159.057C-6.73163 173.796 -19.9875 186.736 -33.6992 198.524C-14.2811 186.734 2.30302 169.178 14.5275 149.837C19.3706 142.173 24.1274 134.456 30.1269 127.685C45.6996 111.035 64.3632 97.6383 82.2238 83.5666C92.9282 74.9091 102.764 64.2169 107.449 51.0421C109.08 46.7265 110.348 42.3214 111.503 37.8965C111.561 37.7081 111.256 37.6 111.179 37.7883Z" fill="#B6174B"/>
</svg>
