<svg width="113" height="270" viewBox="0 0 113 270" fill="none" xmlns="http://www.w3.org/2000/svg">
<path d="M-50.9612 266.866C-22.5676 255.869 -3.65954 228.044 5.6473 199.049C14.9541 170.054 16.3534 139.224 20.4156 109.046C24.4872 78.8662 31.8187 47.9058 50.7774 24.082" stroke="#698F3F" stroke-width="4.62" stroke-linecap="round" stroke-linejoin="round"/>
<path d="M54.8111 31.1269C59.0571 20.9938 61.8183 10.0898 67.9297 0.945312C55.7852 6.91717 45.2349 16.0995 37.6409 27.3107C32.6726 34.6376 28.8634 43.5632 30.7936 52.2112C32.4552 59.6611 42.1518 50.3713 44.5204 47.8731C49.0452 43.082 52.2785 37.1632 54.8111 31.1269Z" fill="#698F3F"/>
<path d="M25.5968 59.9106C23.8257 54.5159 21.3776 49.3285 20.1955 43.7723C18.1246 34.0374 20.2264 23.4826 25.8825 15.2973C26.662 14.1597 27.4259 12.3858 26.2733 11.6286C25.3081 10.9904 24.0828 11.8744 23.2981 12.7321C11.343 25.7001 5.54855 44.1217 7.9335 61.6038C8.83663 68.2306 11.0871 75.0638 16.2214 79.3581C18.0898 80.9177 20.461 82.1192 22.8703 81.8023C30.8266 80.7604 27.1565 64.6581 25.6061 59.9088L25.5968 59.9106Z" fill="#698F3F"/>
<path d="M37.5523 61.5914C41.7398 59.8388 46.3212 59.2312 50.6167 57.7388C58.3003 55.0734 64.9249 49.463 68.8152 42.3235C69.3319 41.3817 69.8362 40.3744 70.7325 39.7956C71.6271 39.2075 73.0557 39.2821 73.5482 40.2338C73.8735 40.8689 73.6902 41.6305 73.4815 42.3099C68.9022 57.1177 57.0833 68.4226 45.1727 78.3405C41.548 81.3606 36.7416 84.4815 32.4811 82.4702C22.3857 77.7134 30.7759 64.4412 37.571 61.5878L37.5523 61.5914Z" fill="#698F3F"/>
<path d="M14.2592 90.6412C10.3915 86.133 5.16 83.0488 0.826104 78.9884C-6.80446 71.8311 -11.4215 61.5481 -11.6844 51.0885C-12.148 56.9023 -12.6117 62.716 -13.0754 68.5298C-13.6258 75.4063 -14.079 82.7389 -10.7344 88.7617C-7.6089 94.4003 -1.85607 97.6266 3.66445 100.5C9.31321 103.437 14.5161 107.786 19.916 110.586C23.821 105.846 17.5114 94.4151 14.2668 90.6301L14.2592 90.6412Z" fill="#698F3F"/>
<path d="M11.7324 121.446C8.00797 117.937 3.38081 115.579 -0.999732 112.942C-3.94667 111.163 -6.80481 109.242 -9.56119 107.194C-14.9181 103.204 -20.3235 97.7989 -20.1498 91.1303C-20.1599 95.9755 -19.8603 100.82 -19.2564 105.634C-18.5275 111.403 -17.1204 117.526 -12.8134 121.447C-9.62154 124.351 -5.30288 125.605 -1.157 126.766C1.98546 127.645 5.12792 128.525 8.26103 129.406C10.4206 130.009 12.7306 130.689 14.5822 132.01C16.3336 133.262 17.2675 135.505 17.6774 132.491C18.1944 128.672 14.264 123.837 11.7324 121.446Z" fill="#698F3F"/>
<path d="M0.85073 140.369C-5.54528 138.739 -12.4053 140.597 -18.842 139.158C-27.0891 137.321 -33.4836 130.043 -35.6525 121.867C-35.518 129.436 -35.1647 137.64 -30.3541 143.479C-27.5265 146.908 -23.4224 149.114 -19.1461 150.298C-14.8604 151.481 -10.3789 151.716 -5.9368 151.746C-1.97796 151.78 2.04921 151.667 5.85234 152.758C9.80995 153.898 12.8223 156.371 14.5938 160.051C16.695 157.875 13.0321 150.344 11.6159 148.214C9.10827 144.433 5.27113 141.498 0.841384 140.371L0.85073 140.369Z" fill="#698F3F"/>
<path d="M-2.03372 166.59C-5.2695 165.477 -8.72306 165.248 -12.0895 164.615C-19.1687 163.261 -25.8783 159.996 -31.2963 155.233C-31.7116 160.592 -30.1666 166.272 -26.3022 170.006C-22.9359 173.264 -18.229 174.724 -13.6237 175.604C-9.01855 176.483 -4.28666 176.912 0.0979347 178.561C4.48432 180.219 8.61058 183.398 9.93903 187.9C9.41382 186.121 10.3514 183.384 10.2434 181.458C10.1201 179.35 9.5094 177.53 8.49054 175.653C6.2396 171.493 2.44685 168.133 -2.04307 166.592L-2.03372 166.59Z" fill="#698F3F"/>
<path d="M31.2532 92.1282C35.1904 90.8886 39.3642 90.6304 43.4276 89.9478C48.9836 89.0176 54.4736 87.2379 59.1514 84.103C63.8293 80.968 67.6566 76.3785 69.2457 70.9785C67.9143 77.7724 66.5065 84.7747 62.6718 90.5376C58.8372 96.3006 51.9207 100.592 45.1307 99.2302C41.2412 98.4459 37.7664 95.9352 33.8091 95.7063C29.9115 95.4853 26.261 97.5127 23.0309 99.7112C22.4138 100.13 21.9254 100.311 21.3565 99.8193C23.8999 96.2123 26.8615 93.5228 31.255 92.1376L31.2532 92.1282Z" fill="#698F3F"/>
<path d="M27.7837 113.481C32.0498 111.936 36.6666 111.816 41.1979 111.654C45.7292 111.492 50.3637 111.261 54.5565 109.537C59.1985 107.629 63.0603 103.876 65.0965 99.291C64.6552 104.161 62.9876 108.849 60.9971 113.319C60.1159 115.29 59.1564 117.256 57.7683 118.908C55.186 122.009 51.2483 123.801 47.2478 124.306C43.2474 124.812 39.1578 124.095 35.3317 122.834C32.8195 122.008 30.3465 120.933 27.702 120.781C25.7047 120.67 23.8109 121.15 21.8748 121.56C19.7238 122.011 18.595 122.49 19.5965 119.934C20.8073 116.854 24.8574 114.537 27.7744 113.483L27.7837 113.481Z" fill="#698F3F"/>
<path d="M30.0375 136.64C35.0271 136.09 40.0173 137.361 45.0219 137.747C50.0283 138.143 55.5696 137.438 59.0403 133.818C57.581 137.421 55.7508 140.959 53.0181 143.73C50.2854 146.502 46.5423 148.45 42.6586 148.352C39.3681 148.267 36.2902 146.765 33.392 145.19C31.5751 144.201 29.7399 143.168 27.715 142.762C23.8255 141.978 20.4485 144.825 17.0018 144.43C16.2935 140.081 26.9732 136.976 30.0375 136.64Z" fill="#698F3F"/>
<path d="M24.1197 163.307C29.0881 163.555 34.042 164.939 38.9619 164.228C43.1198 163.633 47.0397 161.496 49.7942 158.333C49.7592 161.837 47.9528 165.196 45.3004 167.477C42.6481 169.759 39.22 171.027 35.7446 171.441C32.9322 171.777 30.0567 171.583 27.2833 172.173C24.2203 172.819 21.3569 174.405 18.2337 174.636C14.5859 174.909 10.7064 172.612 12.5407 168.792C14.6767 164.324 19.5803 163.073 24.1197 163.307Z" fill="#698F3F"/>
</svg>
