<svg width="126" height="214" viewBox="0 0 126 214" fill="none" xmlns="http://www.w3.org/2000/svg">
<path d="M87.7854 161.217C83.9123 159.825 80.012 157.851 77.7396 154.414C75.4672 150.977 75.449 145.777 78.6628 143.203C81.345 141.046 85.1663 141.331 88.586 141.729C78.7445 142.27 68.7737 137.438 63.1056 129.38C61.5609 127.186 60.2985 124.678 60.2003 121.991C60.1021 119.303 61.4005 116.447 63.8283 115.312C66.678 113.984 69.9943 115.292 72.8588 116.595C65.3756 114.294 59.198 108.153 56.8406 100.695C56.0116 98.0576 55.6371 95.1874 56.4147 92.5397C57.1922 89.892 59.273 87.5027 61.9833 86.9399C65.2836 86.2517 68.4802 88.2672 71.2081 90.2462C64.9182 85.1579 61.1053 77.1553 61.1114 69.0618C61.1162 66.2253 61.7758 63.0372 64.1533 61.489C68.014 58.9787 72.8946 62.4229 76.1707 65.6623C71.999 58.5795 67.7093 51.104 67.4554 42.8818C67.4049 41.2875 67.546 39.5692 68.5149 38.2964C70.0383 36.2885 73.1355 36.1042 75.4067 37.2016C77.6779 38.2989 79.2985 40.352 80.854 42.3361C75.5418 32.7091 72.9174 21.6327 73.3055 10.6559C73.4226 7.5051 74.2703 3.71413 77.2745 2.75302C79.6191 2.00473 82.0726 3.43864 83.9484 5.03861C93.6118 13.2484 97.445 26.2358 100.809 38.4708C101.151 35.1344 102.34 31.8906 104.248 29.1248C104.726 28.4278 105.279 27.7375 106.05 27.3804C107.325 26.7834 108.859 27.2679 110.039 28.0506C113.729 30.4791 115.097 35.2584 115.269 39.6661C115.436 44.0827 114.698 48.5346 115.395 52.8955C114.901 48.9389 116.067 44.8086 118.559 41.6979C119.107 41.0164 119.749 40.3512 120.564 40.0401C122.284 39.3759 124.191 40.3907 125.6 41.5919C130.429 45.7235 132.666 52.2649 132.945 58.6266C133.219 64.9747 131.764 71.2664 130.316 77.4598C131.463 74.4205 132.662 71.3068 134.78 68.847C136.904 66.3785 140.181 64.6561 143.376 65.2621C146.374 65.831 148.663 68.289 150.235 70.8955C153.679 76.6096 154.685 83.7493 152.944 90.1934C151.599 95.182 148.69 99.8058 148.459 104.962C149.141 100.15 153.935 96.3484 158.795 96.6242C163.646 96.8953 167.932 101.064 168.525 105.892C169.06 110.257 166.915 114.497 164.443 118.14C159.809 124.958 153.758 130.821 146.789 135.224C150.198 133.448 154.271 137.57 153.968 141.404C153.665 145.238 150.758 148.296 147.994 150.965C140.368 158.319 131.275 166.395 120.032 165.341C109.208 164.331 98.1691 164.965 87.7847 161.239L87.7854 161.217Z" fill="#37BBF9"/>
<path d="M92.7431 49.174C91.1769 42.1875 90.2683 35.2029 90.0404 28.0508C95.5344 33.2673 96.7348 42.7483 92.7431 49.174Z" fill="#2AA4DD"/>
<path d="M99.0666 64.7519C98.1589 61.4585 98.085 58.4093 98.1208 55.1353C98.246 51.864 98.4762 48.8196 99.5577 45.5859C103.231 51.2309 103.002 59.2954 99.0666 64.7519Z" fill="#2AA4DD"/>
<path d="M102.25 75.6977C104.721 64.3316 107.534 53.2174 108.958 41.7079C109.091 40.1325 108.981 38.5633 108.119 37.043C108.857 37.4857 109.503 38.1852 109.948 38.9816C111.274 41.3301 111.316 44.2262 111.392 46.7653C111.429 56.9943 108.58 67.5437 102.241 75.693L102.25 75.6977Z" fill="#2AA4DD"/>
<path d="M104.279 87.9641C105.399 82.1277 107.49 75.5196 109 69.8023C109.579 67.7974 110.145 65.7742 110.974 63.6426C111.819 65.7663 112.105 67.9986 112.123 70.2228C112.046 76.8243 109.512 83.7055 104.279 87.9641Z" fill="#2AA4DD"/>
<path d="M106.021 102.79C107.516 101.596 108.059 99.8896 108.791 98.1712C109.526 96.4886 110.212 94.7912 110.876 93.093C115.009 82.8596 117.237 72.3273 118.97 61.4043C121.835 72.4969 119.398 84.6649 113.698 94.4754C112.728 96.1106 111.669 97.6984 110.465 99.1745C109.299 100.602 107.943 102.405 106.012 102.785L106.021 102.79Z" fill="#2AA4DD"/>
<path d="M107.826 117.921C109.725 113.231 112.884 109.514 114.731 104.921C116.741 100.427 118.177 95.5215 121.16 91.392C121.135 102.791 117.982 111.837 107.826 117.921Z" fill="#2AA4DD"/>
<path d="M110.372 127.286C115.836 120.847 120.81 114.348 124.904 107.057C129.059 99.7996 132.102 92.2044 134.834 84.2152C135.37 101.367 125.356 118.941 110.372 127.286Z" fill="#2AA4DD"/>
<path d="M112.398 139.664C117.487 132.171 122.515 124.895 126.987 117.092C131.529 109.327 135.326 101.343 139.289 93.1988C137.178 111.153 126.901 128.879 112.398 139.664Z" fill="#2AA4DD"/>
<path d="M116.053 148.172C119.226 145.588 121.457 142.075 124.292 139.15C132.5 130.166 140.632 121.449 146.047 110.395C144.962 123.109 135.839 133.542 126.462 141.407C123.175 143.885 120.101 147.001 116.044 148.168L116.053 148.172Z" fill="#2AA4DD"/>
<path d="M118.768 155.788C125.591 150.137 132.004 144.401 137.77 137.761C143.579 131.166 148.419 124.05 153.119 116.54C149.287 134.022 135.582 149.654 118.772 155.78L118.768 155.788Z" fill="#2AA4DD"/>
<path d="M121.803 161.522C124.966 159.022 128.121 157.188 131.427 155.118C134.772 153.102 137.838 151.118 141.499 149.443C138.445 156.975 129.885 162.203 121.79 161.526L121.803 161.522Z" fill="#2AA4DD"/>
<path d="M87.4854 43.8357C80.5795 42.5722 76.152 33.7279 79.3202 27.4609C81.982 33.2768 84.4241 38.2137 87.4854 43.8357Z" fill="#2AA4DD"/>
<path d="M96.7272 56.1005C89.8991 60.432 81.0764 55.9566 76.282 50.5374C75.6119 49.7567 74.3384 48.5148 75.0953 47.4459C75.1923 48.2363 76.0099 48.4264 76.6384 48.6511C77.8563 49.068 79.0932 49.5974 80.2453 50.1152C85.4861 52.5948 90.8448 55.3196 96.7272 56.1005Z" fill="#2AA4DD"/>
<path d="M99.8505 65.616C94.9415 68.3229 88.6514 67.7087 83.7885 65.1599C80.7979 63.437 79.5571 60.5094 76.8102 58.5655C80.0299 58.027 82.8318 60.6704 85.5365 61.7853C90.223 63.5011 94.8694 64.4685 99.8505 65.616Z" fill="#2AA4DD"/>
<path d="M72.6509 69.8186C80.0604 72.4888 87.341 74.2378 95.1772 74.3213C97.7346 74.3802 100.325 74.2523 103.116 74.1304C94.0334 80.667 79.5722 78.6081 72.6557 69.8098L72.6509 69.8186Z" fill="#2AA4DD"/>
<path d="M68.8235 74.9468C78.3282 84.8654 90.6812 87.6976 103.715 90.0447C90.7761 93.7674 73.5061 88.5504 68.8235 74.9468Z" fill="#2AA4DD"/>
<path d="M79.1617 92.4125C83.6917 93.3853 87.7564 94.6529 92.1502 95.6888C96.5284 96.7958 100.716 97.5614 105.179 98.8052C96.4735 102.342 85.2421 99.5571 79.1529 92.4077L79.1617 92.4125Z" fill="#2AA4DD"/>
<path d="M65.4085 93.8915C72.0567 96.7311 78.3819 99.7489 85.1601 101.988C91.9186 104.286 98.6606 105.643 105.855 106.391C91.6899 110.999 75.1917 104.516 65.3997 93.8867L65.4085 93.8915Z" fill="#2AA4DD"/>
<path d="M67.7994 105.886C70.8199 107.954 74.0495 109.022 77.3854 110.272C87.2002 114.044 96.9607 117.684 107.674 116.579C97.7604 122.339 85.2547 118.482 76.043 113.104C72.9339 111.306 69.5815 109.116 67.7906 105.881L67.7994 105.886Z" fill="#2AA4DD"/>
<path d="M70.0253 121.291C76.884 123.233 83.473 125.064 90.429 126.15C97.383 127.303 104.205 127.647 111.327 127.959C97.9527 133.356 81.0294 130.597 70.0253 121.291Z" fill="#2AA4DD"/>
<path d="M76.6797 133.15C82.6651 134.078 88.3132 135.062 94.2619 135.424C100.204 135.862 105.928 135.672 111.993 135.586C101.286 141.68 86.4588 140.639 76.6797 133.15Z" fill="#2AA4DD"/>
<path d="M87.4651 145.415C92.1864 145.231 96.5299 145.411 101.13 145.24C105.737 145.142 110.063 144.721 114.78 144.648C107.203 150.541 95.3595 150.856 87.4651 145.415Z" fill="#2AA4DD"/>
<path d="M83.0311 152.116C93.6468 154.547 104.253 154.928 115.055 155.597C116.556 155.678 118.021 155.615 119.496 154.921C117.543 157.686 113.59 157.92 110.554 158.433C101.15 159.595 90.5376 158.404 83.0359 152.107L83.0311 152.116Z" fill="#2AA4DD"/>
<path d="M84.786 25.2588C86.9193 33.1751 89.6391 40.7824 93.2724 47.916C97.1347 55.1729 101.432 62.6979 102.692 70.928C104.196 79.1072 104.647 87.3219 105.66 95.4416C107.586 111.593 111.245 127.542 116.506 142.898C124.676 165.363 140.166 188.7 133.961 213.672C133.926 213.801 133.789 213.886 133.652 213.846C133.532 213.816 133.455 213.706 133.463 213.585C134.788 188.418 118.809 167.634 112.014 144.365C106.981 128.586 106.782 111.842 104.056 95.6573C101.874 83.865 99.2463 71.6968 94.8542 60.6344C93.2522 56.9219 91.3299 53.2982 89.7434 49.5146C86.5258 41.7984 84.5272 33.5685 84.2835 25.3063C84.2651 25.0239 84.7148 24.948 84.7779 25.2317L84.786 25.2588Z" fill="#2AA4DD"/>
</svg>
