<svg width="129" height="226" viewBox="0 0 129 226" fill="none" xmlns="http://www.w3.org/2000/svg">
<path d="M-50.9035 266.866C-22.5099 255.869 -3.6018 228.044 5.70504 199.049C15.0119 170.054 16.4112 139.224 20.4734 109.046C24.5449 78.8662 31.8765 47.9058 50.8352 24.082" stroke="#698F3F" stroke-width="4.62" stroke-linecap="round" stroke-linejoin="round"/>
<path d="M54.8689 31.1269C59.1148 20.9938 61.8761 10.0898 67.9874 0.945312C55.843 6.91717 45.2927 16.0995 37.6986 27.3107C32.7303 34.6376 28.9211 43.5632 30.8513 52.2112C32.5129 59.6611 42.2095 50.3713 44.5781 47.8731C49.103 43.082 52.3362 37.1632 54.8689 31.1269Z" fill="#698F3F"/>
<path d="M25.6545 59.9106C23.8834 54.5159 21.4354 49.3285 20.2533 43.7723C18.1824 34.0374 20.2842 23.4826 25.9402 15.2973C26.7197 14.1597 27.4837 12.3858 26.331 11.6286C25.3658 10.9904 24.1406 11.8744 23.3558 12.7321C11.4007 25.7001 5.60629 44.1217 7.99124 61.6038C8.89436 68.2306 11.1448 75.0638 16.2791 79.3581C18.1475 80.9177 20.5188 82.1192 22.9281 81.8023C30.8843 80.7604 27.2142 64.6581 25.6638 59.9088L25.6545 59.9106Z" fill="#698F3F"/>
<path d="M37.61 61.5914C41.7975 59.8388 46.3789 59.2312 50.6744 57.7388C58.358 55.0734 64.9826 49.463 68.8729 42.3235C69.3897 41.3817 69.8939 40.3744 70.7903 39.7956C71.6849 39.2075 73.1134 39.2821 73.606 40.2338C73.9312 40.8689 73.748 41.6305 73.5393 42.3099C68.9599 57.1177 57.141 68.4226 45.2304 78.3405C41.6058 81.3606 36.7993 84.4815 32.5389 82.4702C22.4434 77.7134 30.8336 64.4412 37.6287 61.5878L37.61 61.5914Z" fill="#698F3F"/>
<path d="M14.317 90.6412C10.4493 86.133 5.21774 83.0488 0.883844 78.9884C-6.74672 71.8311 -11.3638 61.5481 -11.6266 51.0885C-12.0903 56.9023 -12.554 62.716 -13.0176 68.5298C-13.568 75.4063 -14.0212 82.7389 -10.6767 88.7617C-7.55116 94.4003 -1.79833 97.6266 3.72219 100.5C9.37095 103.437 14.5739 107.786 19.9737 110.586C23.8787 105.846 17.5691 94.4151 14.3245 90.6301L14.317 90.6412Z" fill="#698F3F"/>
<path d="M11.7901 121.444C8.06571 117.935 3.43855 115.577 -0.941993 112.94C-3.88894 111.161 -6.74707 109.24 -9.50345 107.192C-14.8603 103.202 -20.2658 97.797 -20.0921 91.1283C-20.1022 95.9736 -19.8026 100.818 -19.1987 105.632C-18.4698 111.401 -17.0627 117.524 -12.7556 121.445C-9.56381 124.349 -5.24514 125.603 -1.09926 126.764C2.0432 127.643 5.18566 128.523 8.31877 129.404C10.4783 130.007 12.7883 130.687 14.64 132.008C16.3914 133.26 17.3253 135.503 17.7352 132.489C18.2522 128.67 14.3218 123.835 11.7901 121.444Z" fill="#698F3F"/>
<path d="M0.908469 140.369C-5.48754 138.739 -12.3476 140.597 -18.7843 139.158C-27.0313 137.321 -33.4258 130.043 -35.5948 121.867C-35.4603 129.436 -35.1069 137.64 -30.2963 143.479C-27.4687 146.908 -23.3646 149.114 -19.0883 150.298C-14.8027 151.481 -10.3212 151.716 -5.87906 151.746C-1.92022 151.78 2.10695 151.667 5.91008 152.758C9.86769 153.898 12.8801 156.371 14.6516 160.051C16.7527 157.875 13.0898 150.344 11.6737 148.214C9.166 144.433 5.32887 141.498 0.899124 140.371L0.908469 140.369Z" fill="#698F3F"/>
<path d="M-1.97598 166.59C-5.21176 165.477 -8.66532 165.248 -12.0317 164.615C-19.1109 163.261 -25.8206 159.996 -31.2385 155.233C-31.6538 160.592 -30.1089 166.272 -26.2445 170.006C-22.8782 173.264 -18.1712 174.724 -13.566 175.604C-8.96081 176.483 -4.22892 176.912 0.155674 178.561C4.54206 180.219 8.66832 183.398 9.99677 187.9C9.47156 186.121 10.4092 183.384 10.3012 181.458C10.1778 179.35 9.56713 177.53 8.54828 175.653C6.29734 171.493 2.50459 168.133 -1.98533 166.592L-1.97598 166.59Z" fill="#698F3F"/>
<path d="M31.311 92.1263C35.2481 90.8867 39.422 90.6285 43.4853 89.9458C49.0414 89.0156 54.5313 87.236 59.2092 84.101C63.887 80.9661 67.7143 76.3766 69.3035 70.9766C67.972 77.7705 66.5642 84.7727 62.7296 90.5357C58.8949 96.2987 51.9784 100.59 45.1885 99.2283C41.299 98.4439 37.8242 95.9333 33.8669 95.7044C29.9692 95.4834 26.3188 97.5107 23.0887 99.7093C22.4716 100.128 21.9832 100.309 21.4143 99.8174C23.9577 96.2104 26.9192 93.5209 31.3128 92.1356L31.311 92.1263Z" fill="#698F3F"/>
<path d="M27.8415 113.483C32.1075 111.938 36.7243 111.818 41.2556 111.656C45.7869 111.494 50.4214 111.263 54.6142 109.539C59.2563 107.631 63.1181 103.878 65.1542 99.293C64.7129 104.163 63.0453 108.851 61.0549 113.321C60.1737 115.292 59.2141 117.258 57.8261 118.91C55.2437 122.011 51.306 123.803 47.3056 124.308C43.3052 124.814 39.2155 124.097 35.3895 122.836C32.8772 122.01 30.4042 120.935 27.7598 120.783C25.7624 120.672 23.8687 121.152 21.9325 121.562C19.7815 122.013 18.6527 122.491 19.6542 119.936C20.865 116.856 24.9151 114.539 27.8321 113.485L27.8415 113.483Z" fill="#698F3F"/>
<path d="M30.0953 136.64C35.0849 136.09 40.0751 137.361 45.0797 137.747C50.0861 138.143 55.6273 137.438 59.0981 133.818C57.6387 137.421 55.8086 140.959 53.0758 143.73C50.3431 146.502 46.6 148.45 42.7163 148.352C39.4258 148.267 36.3479 146.765 33.4498 145.19C31.6328 144.201 29.7976 143.168 27.7727 142.762C23.8832 141.978 20.5062 144.825 17.0596 144.43C16.3512 140.081 27.0309 136.976 30.0953 136.64Z" fill="#698F3F"/>
<path d="M24.1775 163.305C29.1459 163.553 34.0997 164.937 39.0197 164.226C43.1775 163.631 47.0975 161.494 49.8519 158.331C49.8169 161.835 48.0106 165.194 45.3582 167.475C42.7058 169.757 39.2778 171.025 35.8024 171.439C32.9899 171.775 30.1144 171.581 27.341 172.171C24.278 172.817 21.4147 174.403 18.2915 174.634C14.6436 174.907 10.7642 172.61 12.5984 168.79C14.7344 164.322 19.6381 163.071 24.1775 163.305Z" fill="#698F3F"/>
<path d="M31.8209 132.311C38.9164 125.937 46.0158 119.556 53.1188 113.186C54.2496 116.956 55.7097 120.619 57.8626 124.057C59.0128 121.8 62.4201 120.692 62.4344 118.804C61.213 115.045 60.5775 110.712 60.6972 106.385C65.2032 102.341 69.713 98.2887 74.219 94.2443C76.9948 91.754 79.7744 89.2561 82.5916 86.7963C84.4858 92.4718 86.842 97.9846 89.3746 103.151C90.5247 100.894 93.932 99.7871 93.1796 99.4037C91.9522 93.4425 89.7647 87.5986 88.571 81.683C96.2559 75.2684 104.273 69.3171 113.071 64.5877C114.247 63.9547 115.618 63.3268 116.873 63.7858C118.119 64.2409 118.777 65.5904 119.176 66.8548C122.012 75.7588 118.412 85.3163 114.676 93.8758C105.886 114.048 95.9765 133.886 83.4935 151.968C76.1468 149.646 69.3639 147.185 63.0108 141.853C62.244 143.358 59.9725 144.096 60.3415 145.232C64.6509 151.636 70.841 156.562 77.879 159.75C76.9481 160.982 76.0061 162.198 75.049 163.407C69.661 170.205 63.7884 176.671 57.47 182.655C50.7282 180.764 43.9068 178.397 38.6076 173.025C35.9814 170.739 35.7836 174.4 35.1859 176.02C39.059 182.201 44.6925 185.82 50.9031 188.549C43.7002 194.65 35.9696 200.113 27.7057 204.687C19.7261 209.113 8.31223 215.722 -0.742869 217.07C-11.435 218.654 -9.61803 210.643 -7.31801 202.185C-5.67054 196.106 -5.76527 189.689 -4.65315 183.489C-0.879176 162.467 15.9338 146.601 31.8208 132.33L31.8209 132.311Z" fill="#FAAA8D"/>
<path d="M105.939 90.1343C105.741 84.906 104.083 79.8442 101.114 75.5352C100.711 80.7891 102.498 86.1541 105.939 90.1343Z" fill="#B6174B"/>
<path d="M100.122 101.792C99.743 95.0405 97.867 88.455 94.6113 82.5313C94.4729 89.3129 96.4303 96.1105 100.122 101.792Z" fill="#B6174B"/>
<path d="M86.3206 115.913C85.5047 109.479 82.9306 103.315 78.9019 98.2389C79.7064 104.677 82.3032 110.833 86.3206 115.913Z" fill="#B6174B"/>
<path d="M79.7079 121.32C79.0659 114.861 76.625 108.565 72.7331 103.369C73.3638 109.832 75.8274 116.12 79.7079 121.32Z" fill="#B6174B"/>
<path d="M72.7501 127.111C72.5441 120.428 70.5697 113.869 67.0251 108.196C67.2087 114.848 69.2279 121.468 72.7501 127.111Z" fill="#B6174B"/>
<path d="M56.8156 140.583C56.0833 137.054 54.6841 133.83 53.3153 130.564C52.0268 127.68 50.3946 123.797 48.9621 120.972C48.4801 128.242 52.0672 135.283 56.8194 140.576L56.8156 140.583Z" fill="#B6174B"/>
<path d="M50.0959 146.295C50.0985 141.975 48.5668 137.802 45.7403 134.532C45.2429 138.856 46.9084 143.325 50.0959 146.295Z" fill="#B6174B"/>
<path d="M44.2419 151.273C43.3982 148.985 41.7414 144.369 40.9431 142.067C39.7922 138.969 38.6002 135.803 36.4638 133.169C37.1921 139.701 38.7791 147.039 44.2457 151.265L44.2419 151.273Z" fill="#B6174B"/>
<path d="M35.7756 158.53C34.5292 152.587 32.5927 147.013 29.8392 141.592C29.1319 147.705 31.4128 154.184 35.7756 158.53Z" fill="#B6174B"/>
<path d="M25.8633 167.868C26.1687 162.972 23.5741 158.504 21.0932 154.501C20.2613 153.139 19.2881 151.998 18.6575 150.502C18.2297 152.122 18.8172 153.834 19.2965 155.367C20.9238 159.892 23.4286 163.737 25.8595 167.876L25.8633 167.868Z" fill="#B6174B"/>
<path d="M19.4382 178.372C18.6253 171.541 16.417 164.957 12.9234 159.035C13.0448 165.921 15.3791 172.816 19.4382 178.372Z" fill="#B6174B"/>
<path d="M13.3783 187.123C12.5387 181.312 10.9146 174.381 9.78772 168.613C9.34254 166.567 8.92391 164.505 8.33179 162.412C7.44982 166.654 7.72628 171.022 8.55531 175.235C9.44481 179.442 10.9015 183.558 13.3707 187.119L13.3783 187.123Z" fill="#B6174B"/>
<path d="M6.49763 196.96C6.26538 191.743 5.35346 185.516 4.79624 180.323C4.56101 178.478 4.34098 176.622 3.9476 174.716C2.6622 178.373 2.50784 182.284 2.91312 186.102C3.37889 189.912 4.41523 193.681 6.48626 196.964L6.49763 196.96Z" fill="#B6174B"/>
<path d="M0.866618 203.681C0.538906 202.575 0.711604 201.716 0.723189 200.688C0.739779 197.513 0.144633 194.328 -1.67787 191.637C-2.71134 194.446 -2.24322 202.418 0.866618 203.681Z" fill="#B6174B"/>
<path d="M103.056 95.9418C105.359 98.0062 108.348 96.2879 110.485 94.7898C108.136 92.7968 105.253 94.531 103.056 95.9418Z" fill="#B6174B"/>
<path d="M108.256 85.4987C110.578 86.5776 113.231 85.7971 114.573 83.6094C112.304 82.5007 109.549 83.3333 108.256 85.4987Z" fill="#B6174B"/>
<path d="M95.596 107.385C98.7178 109.554 103.121 109.618 106.294 107.52C102.822 106.149 99.099 106.109 95.596 107.385Z" fill="#B6174B"/>
<path d="M89.2031 113.196C92.5014 115.985 96.9627 117.33 101.253 116.796C97.9096 113.983 93.5348 112.692 89.2031 113.196Z" fill="#B6174B"/>
<path d="M82.1478 119.789C83.4872 121.941 85.743 123.28 88.1245 123.962C90.532 124.725 92.8397 124.195 95.3027 124.104C94.4416 123.115 93.1079 122.701 92.0037 122.394C88.8677 121.592 85.3453 120.452 82.1478 119.789Z" fill="#B6174B"/>
<path d="M70.7192 130.968C74.7818 134.081 80.1303 135.451 85.1896 134.636C80.8248 132.023 75.8003 130.761 70.7192 130.968Z" fill="#B6174B"/>
<path d="M65.1613 135.009C69.7035 139.115 75.4116 141.862 81.4619 142.822C76.9236 138.709 71.2078 135.976 65.1613 135.009Z" fill="#B6174B"/>
<path d="M46.6852 148.802C50.5416 150.218 53.6096 153.013 57.3584 154.677C61.0568 156.514 64.8209 158.148 68.8925 159.085C67.3018 157.687 65.5961 156.533 63.8634 155.433C60.3753 153.257 56.7147 151.42 52.9006 149.903C50.9953 149.16 48.7808 148.354 46.6888 148.814L46.6852 148.802Z" fill="#B6174B"/>
<path d="M39.0382 156.107C43.8869 160.132 49.477 163.019 55.2749 165.385C57.1542 166.068 59.5999 167.257 61.5721 166.158C59.397 166.13 57.9657 164.643 56.1721 163.606C50.8114 160.362 45.16 157.597 39.0382 156.107Z" fill="#B6174B"/>
<path d="M30.7408 162.165C37.3431 164.534 42.1463 169.578 48.6372 172.203C50.8399 173.069 53.2677 173.624 55.619 173.325C53.3929 172.56 51.4215 171.574 49.5193 170.416C43.7444 167.018 37.9276 161.675 30.7408 162.165Z" fill="#B6174B"/>
<path d="M15.6822 183.064C22.893 187.866 31.8904 190.129 40.5152 189.254C32.3287 186.627 24.1414 184.598 15.6822 183.064Z" fill="#B6174B"/>
<path d="M8.70866 192.307C12.0745 197.159 23.3757 198.918 29.0125 198.625C25.8234 196.867 22.3601 195.889 18.8925 194.994C17.1888 194.562 15.4848 194.168 13.7732 193.77C12.2542 193.384 10.1114 193.088 8.70866 192.307Z" fill="#B6174B"/>
<path d="M2.48758 200.887C5.66569 204.099 10.3915 205.408 14.8123 205.12C16.2936 205.003 17.7763 204.697 19.1522 204.043C17.6786 203.643 16.2869 203.398 14.9067 203.131C10.9842 202.459 6.43766 201.412 2.48006 200.884L2.48758 200.887Z" fill="#B6174B"/>
<path d="M-4.09629 209.475C-0.317713 211.694 4.55646 211.875 8.48004 209.922C4.42812 208.388 0.0559486 208.245 -4.09629 209.475Z" fill="#B6174B"/>
<path d="M111.237 75.7941C108.58 82.0883 106.133 88.4332 102.742 94.3442C99.3821 100.176 95.0824 105.397 90.3481 110.168C83.9285 116.555 77.0214 122.484 70.2493 128.539C63.6368 134.467 56.2891 140.741 49.3626 146.244C42.2337 152.032 34.6863 157.247 28.1971 163.844C24.9391 167.169 22.0638 170.822 19.3729 174.559C13.9947 182.064 9.29036 189.845 3.88789 197.063C-6.67389 211.802 -19.9298 224.742 -33.6414 236.53C-14.2234 224.74 2.36076 207.184 14.5852 187.843C19.4284 180.179 24.1851 172.462 30.1846 165.691C45.7573 149.041 64.421 135.644 82.2815 121.573C92.9859 112.915 102.822 102.223 107.507 89.0479C109.137 84.7324 110.406 80.3272 111.561 75.9023C111.619 75.714 111.314 75.6059 111.237 75.7941Z" fill="#B6174B"/>
</svg>
