<svg width="126" height="179" viewBox="0 0 126 179" fill="none" xmlns="http://www.w3.org/2000/svg">
<path d="M87.843 161.217C83.9699 159.825 80.0697 157.851 77.7972 154.414C75.5248 150.977 75.5066 145.777 78.7204 143.203C81.4026 141.046 85.2239 141.331 88.6436 141.729C78.8021 142.27 68.8313 137.438 63.1632 129.38C61.6185 127.186 60.3561 124.678 60.2579 121.991C60.1597 119.303 61.4581 116.447 63.8859 115.312C66.7356 113.984 70.0519 115.292 72.9164 116.595C65.4332 114.294 59.2556 108.153 56.8982 100.695C56.0693 98.0576 55.6947 95.1874 56.4723 92.5397C57.2499 89.892 59.3306 87.5027 62.0409 86.9399C65.3412 86.2517 68.5378 88.2672 71.2657 90.2462C64.9759 85.1579 61.1629 77.1553 61.1691 69.0618C61.1738 66.2253 61.8334 63.0372 64.211 61.489C68.0716 58.9787 72.9522 62.4229 76.2284 65.6623C72.0566 58.5795 67.7669 51.104 67.513 42.8818C67.4625 41.2875 67.6037 39.5692 68.5725 38.2964C70.096 36.2885 73.1931 36.1042 75.4643 37.2016C77.7355 38.2989 79.3561 40.352 80.9116 42.3361C75.5994 32.7091 72.975 21.6327 73.3631 10.6559C73.4802 7.5051 74.328 3.71413 77.3322 2.75302C79.6767 2.00473 82.1302 3.43864 84.006 5.03861C93.6695 13.2484 97.5026 26.2358 100.866 38.4708C101.208 35.1344 102.397 31.8906 104.306 29.1248C104.783 28.4278 105.336 27.7375 106.108 27.3804C107.383 26.7834 108.916 27.2679 110.096 28.0506C113.786 30.4791 115.155 35.2584 115.327 39.6661C115.494 44.0827 114.756 48.5346 115.452 52.8955C114.958 48.9389 116.125 44.8086 118.617 41.6979C119.165 41.0164 119.807 40.3512 120.622 40.0401C122.342 39.3759 124.249 40.3907 125.658 41.5919C130.486 45.7235 132.724 52.2649 133.002 58.6266C133.277 64.9747 131.821 71.2664 130.373 77.4598C131.521 74.4205 132.719 71.3068 134.838 68.847C136.961 66.3785 140.239 64.6561 143.433 65.2621C146.432 65.831 148.72 68.289 150.293 70.8955C153.736 76.6096 154.743 83.7493 153.001 90.1934C151.657 95.182 148.748 99.8058 148.517 104.962C149.199 100.15 153.993 96.3484 158.852 96.6242C163.703 96.8953 167.989 101.064 168.582 105.892C169.118 110.257 166.973 114.497 164.501 118.14C159.866 124.958 153.816 130.821 146.847 135.224C150.256 133.448 154.328 137.57 154.025 141.404C153.722 145.238 150.816 148.296 148.051 150.965C140.425 158.319 131.333 166.395 120.09 165.341C109.266 164.331 98.2267 164.965 87.8423 161.239L87.843 161.217Z" fill="#37BBF9"/>
<path d="M92.8007 49.174C91.2345 42.1875 90.3259 35.2029 90.098 28.0508C95.5921 33.2673 96.7924 42.7483 92.8007 49.174Z" fill="#2AA4DD"/>
<path d="M99.1242 64.748C98.2165 61.4546 98.1426 58.4054 98.1784 55.1314C98.3036 51.8601 98.5338 48.8157 99.6154 45.582C103.289 51.227 103.06 59.2915 99.1242 64.748Z" fill="#2AA4DD"/>
<path d="M102.307 75.6938C104.779 64.3277 107.592 53.2135 109.016 41.704C109.148 40.1286 109.039 38.5594 108.176 37.0391C108.915 37.4818 109.56 38.1813 110.006 38.9777C111.331 41.3262 111.374 44.2223 111.45 46.7614C111.487 56.9904 108.637 67.5398 102.299 75.6891L102.307 75.6938Z" fill="#2AA4DD"/>
<path d="M104.337 87.9622C105.456 82.1258 107.547 75.5177 109.057 69.8003C109.636 67.7954 110.203 65.7722 111.032 63.6406C111.876 65.7644 112.163 67.9967 112.181 70.2209C112.103 76.8224 109.57 83.7035 104.337 87.9622Z" fill="#2AA4DD"/>
<path d="M106.079 102.788C107.573 101.594 108.117 99.8876 108.849 98.1692C109.584 96.4866 110.27 94.7892 110.934 93.0911C115.067 82.8577 117.294 72.3253 119.027 61.4023C121.893 72.4949 119.456 84.6629 113.756 94.4734C112.785 96.1086 111.726 97.6964 110.523 99.1725C109.357 100.601 108.001 102.403 106.07 102.784L106.079 102.788Z" fill="#2AA4DD"/>
<path d="M107.883 117.921C109.783 113.231 112.941 109.514 114.789 104.921C116.798 100.427 118.234 95.5215 121.218 91.392C121.193 102.791 118.039 111.837 107.883 117.921Z" fill="#2AA4DD"/>
<path d="M110.43 127.286C115.894 120.847 120.867 114.348 124.961 107.057C129.117 99.7996 132.159 92.2044 134.892 84.2152C135.427 101.367 125.414 118.941 110.43 127.286Z" fill="#2AA4DD"/>
<path d="M112.456 139.662C117.544 132.169 122.573 124.893 127.044 117.09C131.586 109.326 135.383 101.341 139.346 93.1968C137.236 111.151 126.958 128.877 112.456 139.662Z" fill="#2AA4DD"/>
<path d="M116.11 148.17C119.284 145.586 121.515 142.074 124.35 139.148C132.557 130.164 140.689 121.447 146.104 110.393C145.02 123.107 135.896 133.54 126.519 141.405C123.232 143.883 120.159 146.999 116.101 148.166L116.11 148.17Z" fill="#2AA4DD"/>
<path d="M118.825 155.788C125.648 150.137 132.062 144.401 137.828 137.761C143.636 131.166 148.477 124.05 153.177 116.54C149.345 134.022 135.64 149.654 118.83 155.78L118.825 155.788Z" fill="#2AA4DD"/>
<path d="M121.861 161.52C125.023 159.02 128.179 157.186 131.485 155.116C134.829 153.1 137.896 151.116 141.557 149.441C138.503 156.973 129.943 162.201 121.847 161.524L121.861 161.52Z" fill="#2AA4DD"/>
<path d="M87.543 43.8318C80.6371 42.5683 76.2096 33.724 79.3778 27.457C82.0396 33.2729 84.4817 38.2097 87.543 43.8318Z" fill="#2AA4DD"/>
<path d="M96.7848 56.0966C89.9567 60.4281 81.134 55.9527 76.3396 50.5335C75.6696 49.7528 74.396 48.5109 75.1529 47.442C75.25 48.2324 76.0675 48.4225 76.6961 48.6472C77.9139 49.0641 79.1508 49.5935 80.303 50.1113C85.5437 52.5909 90.9024 55.3157 96.7848 56.0966Z" fill="#2AA4DD"/>
<path d="M99.9081 65.616C94.9991 68.3229 88.709 67.7087 83.8461 65.1599C80.8555 63.437 79.6147 60.5094 76.8678 58.5655C80.0875 58.027 82.8894 60.6704 85.5941 61.7853C90.2806 63.5011 94.927 64.4685 99.9081 65.616Z" fill="#2AA4DD"/>
<path d="M72.7086 69.8147C80.118 72.4848 87.3986 74.2339 95.2348 74.3173C97.7922 74.3763 100.382 74.2484 103.173 74.1265C94.091 80.6631 79.6298 78.6042 72.7133 69.8059L72.7086 69.8147Z" fill="#2AA4DD"/>
<path d="M68.8811 74.9468C78.3858 84.8654 90.7388 87.6976 103.773 90.0447C90.8337 93.7674 73.5637 88.5504 68.8811 74.9468Z" fill="#2AA4DD"/>
<path d="M79.2194 92.4086C83.7493 93.3814 87.814 94.649 92.2078 95.6849C96.586 96.7919 100.773 97.5575 105.237 98.8013C96.5311 102.338 85.2997 99.5531 79.2106 92.4038L79.2194 92.4086Z" fill="#2AA4DD"/>
<path d="M65.4661 93.8895C72.1143 96.7292 78.4395 99.747 85.2177 101.986C91.9762 104.284 98.7182 105.641 105.913 106.389C91.7475 110.997 75.2493 104.514 65.4573 93.8848L65.4661 93.8895Z" fill="#2AA4DD"/>
<path d="M67.857 105.884C70.8775 107.952 74.1071 109.02 77.443 110.27C87.2578 114.042 97.0184 117.682 107.731 116.577C97.818 122.337 85.3123 118.48 76.1007 113.102C72.9915 111.304 69.6391 109.114 67.8482 105.879L67.857 105.884Z" fill="#2AA4DD"/>
<path d="M70.0829 121.291C76.9416 123.233 83.5306 125.064 90.4866 126.15C97.4406 127.303 104.262 127.647 111.385 127.959C98.0103 133.356 81.087 130.597 70.0829 121.291Z" fill="#2AA4DD"/>
<path d="M76.7373 133.149C82.7227 134.076 88.3708 135.06 94.3195 135.422C100.261 135.86 105.985 135.67 112.05 135.584C101.344 141.678 86.5164 140.637 76.7373 133.149Z" fill="#2AA4DD"/>
<path d="M87.5227 145.415C92.244 145.231 96.5875 145.411 101.188 145.24C105.794 145.142 110.12 144.721 114.838 144.648C107.261 150.541 95.4171 150.856 87.5227 145.415Z" fill="#2AA4DD"/>
<path d="M83.0888 152.112C93.7044 154.543 104.31 154.924 115.113 155.593C116.614 155.674 118.079 155.611 119.554 154.917C117.601 157.682 113.647 157.916 110.612 158.429C101.208 159.591 90.5953 158.4 83.0935 152.103L83.0888 152.112Z" fill="#2AA4DD"/>
<path d="M84.8436 25.2608C86.9769 33.177 89.6967 40.7843 93.33 47.918C97.1923 55.1749 101.489 62.6998 102.75 70.9299C104.253 79.1091 104.704 87.3238 105.717 95.4435C107.643 111.595 111.303 127.544 116.563 142.9C124.733 165.365 140.224 188.702 134.019 213.674C133.984 213.803 133.847 213.888 133.71 213.848C133.59 213.818 133.512 213.708 133.521 213.587C134.845 188.42 118.867 167.636 112.072 144.367C107.039 128.588 106.84 111.844 104.114 95.6593C101.931 83.8669 99.3039 71.6988 94.9118 60.6364C93.3098 56.9239 91.3875 53.3002 89.8011 49.5166C86.5835 41.8003 84.5848 33.5704 84.3411 25.3083C84.3227 25.0259 84.7724 24.9499 84.8355 25.2337L84.8436 25.2608Z" fill="#2AA4DD"/>
</svg>
