<svg width="62" height="62" viewBox="0 0 62 62" fill="none" xmlns="http://www.w3.org/2000/svg">
<mask id="mask0_1241_2494" style="mask-type:alpha" maskUnits="userSpaceOnUse" x="0" y="0" width="62" height="62">
<circle cx="31" cy="31" r="31" fill="#D9D9D9"/>
</mask>
<g mask="url(#mask0_1241_2494)">
<path d="M52.2802 33.8705C52.2802 33.8705 52.1229 38.8583 46.8202 40.0133C46.8202 40.0133 45.3444 43.9458 39.4121 43.4207C39.4121 43.4207 39.4121 43.4203 39.4121 43.4199C39.3932 43.3896 38.7452 40.7786 39.6805 39.1469C39.6805 39.1469 41.8069 40.0919 42.4062 37.8829C42.4984 37.5424 42.6786 37.2033 42.7963 36.8096C42.8275 36.7068 42.8574 36.6014 42.8864 36.4933C42.9655 36.2007 43.0366 35.8888 43.099 35.5567C43.1047 35.5255 43.1109 35.4938 43.1166 35.4622C43.458 33.5739 43.5089 31.0469 42.9698 27.6754C42.9698 27.6754 42.7853 27.5981 42.4787 27.4527C42.1738 27.3081 41.7485 27.0959 41.2643 26.8253C39.489 25.8324 36.9259 24.0509 36.6364 21.921C35.9058 23.5628 34.3053 24.6787 31.1227 24.2627C26.2105 23.6208 23.687 26.2133 22.4015 28.783C22.0382 28.6477 21.6564 28.5756 21.2619 28.5756C20.9908 28.5756 20.7254 28.6095 20.4684 28.6745C20.4553 28.678 20.4421 28.6811 20.4293 28.6846C19.6737 28.8858 18.9874 29.3546 18.4251 30.0166C17.8768 30.662 17.4458 31.4906 17.1826 32.4339C17.1805 32.4418 17.1783 32.4492 17.1761 32.4571C16.9915 33.1232 16.8909 33.8454 16.8909 34.6002C16.8909 37.9273 18.8477 40.6248 21.2619 40.6248C21.3866 40.6248 21.5105 40.6178 21.6327 40.6033C21.641 40.6024 21.6489 40.6015 21.6573 40.6002C21.7425 40.5901 21.8269 40.5761 21.9108 40.5589H21.9112C21.9288 40.5554 21.9464 40.5515 21.9635 40.5475C22.1757 40.5005 22.3831 40.4324 22.5838 40.3441C22.5917 40.3406 22.5996 40.3371 22.6076 40.3335C22.8567 40.7953 23.1462 41.2421 23.4827 41.6612C23.5135 41.6994 23.5447 41.7372 23.5758 41.775C23.7819 42.0219 24.0046 42.2578 24.2454 42.4806C24.2454 42.4806 23.4867 42.9981 23.8412 43.5728C24.5604 44.7383 22.3593 47.3067 19.1526 46.3656C19.1526 46.3656 14.5625 48.3264 12.2226 44.7379C12.2226 44.7379 5.44977 42.7429 7.23479 36.0228C7.23479 36.0228 2.92974 29.67 8.7048 25.155C8.7048 25.155 7.60207 16.6499 16.8909 14.4361C16.8909 14.4361 24.8012 4.15432 35.7432 10.1394C35.7432 10.1394 43.461 6.83163 46.8211 14.4444C46.8211 14.4444 55.2211 15.9672 53.0688 24.9445C53.0688 24.9445 56.0611 29.9846 52.2811 33.8696L52.2802 33.8705Z" fill="#767676"/>
<path d="M40.5912 42.5434C41.2054 41.4055 41.574 40.1798 41.7936 39.0753C42.1877 37.0944 42.1038 35.5026 42.1038 35.5026C42.1038 35.5026 41.9307 33.2568 40.7972 30.9929C41.1605 30.8576 41.5423 30.7855 41.9369 30.7855C42.2079 30.7855 42.4733 30.8193 42.7303 30.8844C42.7435 30.8879 42.7567 30.8909 42.7694 30.8945L38.3629 23.598L28.9519 19.3848L26.6401 19.9801L26.0712 20.1268L23.9588 20.6707L23.8648 20.6949L21.1554 21.393C21.1554 21.393 21.0135 22.5792 20.8 24.355C20.7969 24.3782 20.7943 24.4015 20.7912 24.4248C20.6577 25.5324 20.4969 26.8627 20.3251 28.2747C20.2812 28.635 20.2368 29.0009 20.1915 29.3695C19.9231 31.571 19.6384 33.8789 19.3963 35.7939C19.395 35.8067 19.3933 35.8194 19.3915 35.8321C19.3384 36.253 19.2874 36.655 19.2391 37.032C19.1152 37.9959 19.0089 38.799 18.9306 39.3521C18.8731 39.7602 18.8309 40.0322 18.8081 40.1324C18.8015 40.1609 18.7962 40.1754 18.7931 40.1754C18.675 40.1754 23.1245 43.2863 23.1245 43.2863C23.1245 43.2863 24.0542 44.5907 23.7866 45.6297V45.6306C23.6759 46.0603 23.3609 46.4443 22.6918 46.6723L21.7859 46.9482C21.7859 46.9482 21.7859 46.9486 21.7854 46.9491L19.384 50.295L19.069 57.5401L20.3686 62.8561L25.6538 63.3319L28.4453 63.5836L33.0474 63.9979L34.5833 58.8792L37.6151 54.4296L37.1428 50.6496C37.1428 50.6496 36.9069 50.4949 36.6358 50.1404C36.2809 49.6756 35.8657 48.8681 35.8433 47.6173C35.8433 47.6173 37.2013 46.2593 38.9538 44.6904" fill="#FECC8D"/>
<path d="M30.4726 60.8599L24.4876 60.4922L15.1689 81.3351L18.789 87.6857L24.9203 88.6351L33.1768 68.1573L30.4726 60.8599Z" fill="#E3DAED"/>
<path d="M10.9168 36.0834C10.9168 36.0834 11.074 41.0711 16.3768 42.2262C16.3768 42.2262 17.8525 46.1586 23.7849 45.6336C23.7849 45.6336 23.7849 45.6332 23.7849 45.6328C23.8038 45.6024 24.4518 42.9915 23.5164 41.3598C23.5164 41.3598 21.3901 42.3048 20.7908 40.0958C20.6986 39.7553 20.5184 39.4162 20.4007 39.0225C20.3695 38.9197 20.3396 38.8143 20.3106 38.7062C20.2315 38.4136 20.1604 38.1017 20.098 37.7695C20.0923 37.7384 20.0861 37.7067 20.0804 37.6751C19.739 35.7868 19.6881 33.2598 20.2271 29.8883C20.2271 29.8883 20.4117 29.811 20.7183 29.6656C21.0232 29.521 21.4485 29.3088 21.9326 29.0382C23.708 28.0453 26.2711 26.2638 26.5606 24.1339C27.2912 25.7757 28.8917 26.8916 32.0742 26.4756C36.9865 25.8337 39.51 28.4262 40.7955 30.9959C41.1588 30.8606 41.5406 30.7885 41.9351 30.7885C42.2062 30.7885 42.4715 30.8223 42.7286 30.8874C42.7417 30.8909 42.7549 30.894 42.7677 30.8975C43.5233 31.0987 44.2096 31.5675 44.7719 32.2295C45.3202 32.8749 45.7512 33.7035 46.0143 34.6468C46.0165 34.6547 46.0187 34.6621 46.0209 34.67C46.2055 35.3361 46.3061 36.0583 46.3061 36.8131C46.3061 40.1402 44.3493 42.8377 41.9351 42.8377C41.8103 42.8377 41.6865 42.8307 41.5643 42.8162C41.556 42.8153 41.5481 42.8144 41.5397 42.8131C41.4545 42.803 41.3701 42.7889 41.2862 42.7718H41.2858C41.2682 42.7683 41.2506 42.7643 41.2335 42.7604C41.0213 42.7134 40.8139 42.6453 40.6132 42.557C40.6053 42.5535 40.5973 42.5499 40.5894 42.5464C40.3403 43.0082 40.0508 43.455 39.7143 43.8741C39.6835 43.9123 39.6523 43.9501 39.6211 43.9879C39.4151 44.2348 39.1924 44.4707 38.9516 44.6935C38.9516 44.6935 39.7103 45.211 39.3558 45.7856C38.6366 46.9512 40.8377 49.5196 44.0444 48.5785C44.0444 48.5785 48.6345 50.5392 50.9744 46.9508C50.9744 46.9508 57.7472 44.9557 55.9622 38.2357C55.9622 38.2357 60.2672 31.8829 54.4922 27.3679C54.4922 27.3679 55.5949 18.8628 46.3061 16.649C46.3061 16.649 38.3958 6.36721 27.4538 12.3523C27.4538 12.3523 19.736 9.04452 16.3759 16.6573C16.3759 16.6573 7.97586 18.18 10.1282 27.1574C10.1282 27.1574 7.13585 32.1975 10.9159 36.0825L10.9168 36.0834Z" fill="#767676"/>
<path d="M15.3674 34.2453C15.3674 34.2892 15.3674 34.3332 15.3687 34.3771C15.4127 37.2108 16.8765 39.563 18.8188 40.1359C19.1154 40.2233 19.4229 40.2695 19.7384 40.2695C20.0538 40.2695 20.378 40.2207 20.6816 40.1289C20.8855 40.0669 21.0836 39.9857 21.2756 39.8859C21.2809 39.8833 21.2861 39.8807 21.291 39.878C22.9385 39.0152 24.1089 36.8185 24.1089 34.2453C24.1089 32.111 23.3036 30.2359 22.0892 29.1653C21.5682 28.7066 20.972 28.3956 20.3319 28.2761C20.1377 28.2396 19.9396 28.2207 19.7384 28.2207C19.5714 28.2207 19.4071 28.2334 19.245 28.2585C19.1738 28.5467 19.1119 28.8388 19.0591 29.1341C18.9045 29.9877 18.8237 30.8681 18.8237 31.7683C18.8237 33.1865 19.024 34.5564 19.3966 35.8489C19.3438 36.2671 19.2933 36.6669 19.245 37.0425C18.1049 34.9689 17.4543 32.5692 17.4543 30.0123C17.4543 29.8889 17.4556 29.7663 17.4586 29.6437C17.4635 29.4561 17.4714 29.2694 17.4828 29.0836C16.2404 30.1173 15.4017 31.9783 15.3687 34.1135C15.3679 34.157 15.3674 34.2014 15.3674 34.2453Z" fill="#FAFAFA"/>
<path d="M15.366 34.2445C15.366 34.2884 15.366 34.3323 15.3673 34.3763C15.417 37.0751 16.9845 39.2542 18.9374 39.3517C18.9826 39.3544 19.0283 39.3557 19.0744 39.3557C19.4971 39.3557 19.903 39.2582 20.2813 39.0789C20.3582 39.0424 20.4333 39.0029 20.5076 38.9599C20.5563 38.9317 20.6051 38.9019 20.653 38.8707C21.9117 38.0535 22.7829 36.2891 22.7829 34.2445C22.7829 32.1998 21.9661 30.5475 20.772 29.6987C20.5888 29.5682 20.3964 29.4584 20.1969 29.3714C19.8428 29.2163 19.4659 29.1328 19.0744 29.1328C19.0687 29.1328 19.0635 29.1328 19.0578 29.1328C18.9031 29.9864 18.8223 30.8669 18.8223 31.7671C18.8223 33.1852 19.0226 34.5551 19.3952 35.8476C19.3424 36.2659 19.2919 36.6656 19.2436 37.0413C18.1035 34.9676 17.4529 32.568 17.4529 30.011C17.4529 29.8876 17.4542 29.765 17.4573 29.6424C16.2464 30.4526 15.4034 32.144 15.3673 34.1122C15.3665 34.1557 15.366 34.2001 15.366 34.244V34.2445Z" fill="#FAFAFA"/>
<path d="M17.4558 30.0098C17.4558 32.5668 18.1065 34.9664 19.2466 37.0401C19.2949 36.6644 19.3454 36.2646 19.3981 35.8464C19.0256 34.5539 18.8253 33.184 18.8253 31.7659C18.8253 30.8657 18.9061 29.9852 19.0607 29.1316C19.1135 28.8364 19.1754 28.5442 19.2466 28.256C19.5822 26.8827 20.1112 25.5888 20.8018 24.4074C21.6159 23.013 22.6549 21.7749 23.8666 20.7473C24.5458 20.1714 25.2791 19.6613 26.0576 19.2268C26.1024 19.2018 26.1472 19.1767 26.1925 19.1526C28.0979 18.117 30.2664 17.5314 32.5672 17.5314C36.4966 17.5314 40.0407 19.2395 42.5454 21.9784C40.0702 18.233 35.911 15.7754 31.1982 15.7754C29.6505 15.7754 28.162 16.0407 26.7737 16.5297C26.75 16.5376 26.7263 16.5464 26.7025 16.5552C21.59 18.3872 17.8469 23.2573 17.4844 29.0811C17.473 29.2669 17.4651 29.4536 17.4602 29.6412C17.4572 29.7638 17.4558 29.8864 17.4558 30.0098Z" fill="#FAFAFA"/>
<path d="M44.9404 30.0061C44.9404 30.7591 44.8837 31.499 44.7752 32.2203C45.3235 32.8657 45.7545 33.6943 46.0177 34.6376C46.0198 34.6455 46.022 34.6529 46.0242 34.6608C46.211 33.7251 46.3094 32.7554 46.3094 31.7621V31.7296C46.3094 31.6813 46.3089 31.6329 46.3085 31.5846C46.2646 27.863 44.842 24.4854 42.5451 21.9746C44.0565 24.2605 44.9404 27.0265 44.9404 30.0061Z" fill="#FAFAFA"/>
<path d="M40.5927 42.5411C40.6007 42.5446 40.6086 42.5481 40.6165 42.5517C40.8172 42.64 41.0246 42.7081 41.2368 42.7551C41.2539 42.759 41.2715 42.763 41.2891 42.7665H41.2895C41.3734 42.7836 41.4578 42.7977 41.543 42.8078C41.5514 42.8091 41.5593 42.81 41.5676 42.8109C41.6898 42.8254 41.8137 42.8324 41.9384 42.8324C44.3526 42.8324 46.3094 40.1349 46.3094 36.8078C46.3094 36.053 46.2088 35.3308 46.0242 34.6647C46.022 34.6568 46.0198 34.6493 46.0177 34.6414C45.7545 33.6982 45.3235 32.8696 44.7752 32.2242C44.2129 31.5621 43.5266 31.0934 42.771 30.8922C42.7582 30.8886 42.745 30.8856 42.7319 30.8821C42.4749 30.817 42.2095 30.7832 41.9384 30.7832C41.5439 30.7832 41.1621 30.8553 40.7988 30.9906C41.9323 33.2545 42.1054 35.5003 42.1054 35.5003C42.1054 35.5003 42.1893 37.0921 41.7952 39.073C41.5755 40.1775 41.2069 41.4032 40.5927 42.5411Z" fill="#FAFAFA"/>
<path d="M42.105 35.4985C42.105 35.4985 42.1836 44.2272 40.254 46.3531C38.3245 48.4791 33.5599 47.3768 33.5599 47.3768L42.1045 35.498L42.105 35.4985Z" fill="#FECC8D"/>
<path d="M23.478 41.3828C26.2373 46.6807 31.9767 47.6741 35.8398 47.6741C35.8398 48.7337 36.4284 49.808 36.7228 50.2127L35.8398 57.9388L30.2107 63.016L24.361 63.6782L19.7253 55.8417C19.1366 53.156 18.7319 47.6299 21.8224 47.0119C24.9128 46.3938 24.2138 43.0016 23.478 41.3828Z" fill="#F1B378"/>
<path d="M36.6292 50.1387C36.6292 50.1387 35.7628 54.4305 31.6282 55.6514C27.4937 56.8724 28.7932 66.6766 27.9268 71.1261C27.0605 75.5757 24.1073 88.5304 24.1073 88.5304C24.1073 88.5304 46.8837 92.1922 45.0723 85.9708L42.7887 78.4894C42.7887 78.4894 44.915 75.733 44.7182 74.158C44.7182 74.158 47.2778 86.6404 55.3892 87.1522C63.5007 87.664 79.0149 85.0653 79.0149 85.0653C79.0149 85.0653 80.7476 79.2771 75.8649 75.7334C75.8649 75.7334 67.5566 74.4339 58.3033 76.2848C58.3033 76.2848 55.2319 49.3909 47.3173 50.4541C39.4027 51.5173 36.6292 50.1391 36.6292 50.1391V50.1387Z" fill="#4B034F"/>
<path d="M7.9237 63.9985C4.11731 64.0284 -3.65277 62.3673 -3.65277 62.3673C-18.852 59.4536 -37.0435 30.7861 -37.0435 30.7861C-34.2085 25.5084 -27.7964 24.4707 -27.7964 24.4707C-27.7964 24.4707 -11.5279 41.813 -4.40711 45.7846C2.71362 49.7562 13.1764 47.7888 13.1764 47.7888C18.7414 47.3688 21.7865 46.9488 21.7865 46.9488C21.7865 46.9488 20.1183 53.1101 24.7265 54.9289C28.7165 56.5039 24.2709 67.8269 23.7288 69.3145C21.8177 74.5579 19.7357 88.5604 20.059 87.8839C20.059 87.8839 3.41042 86.6397 5.30044 83.5946C7.19046 80.5496 8.34151 77.3662 9.13319 73.4095C9.13319 73.4095 7.63287 70.3698 7.67241 68.2038C7.71195 66.0379 7.9237 63.9985 7.9237 63.9985Z" fill="#4B034F"/>
<path d="M33.4433 42.46C33.4433 42.46 36.5833 39.9725 39.8696 42.1394C39.8696 42.1394 37.1439 45.9048 33.4433 42.46Z" fill="white"/>
<path d="M32.8694 41.9256C32.6401 42.171 32.5795 42.5301 32.6991 42.8521C32.7497 42.9881 32.5313 43.0396 32.481 42.9043C32.3332 42.5062 32.4259 42.0646 32.7062 41.7646C32.8023 41.6619 32.9654 41.823 32.8693 41.9258L32.8694 41.9256Z" fill="#F1B378"/>
</g>
</svg>
