<svg width="112" height="74" viewBox="0 0 112 74" fill="none" xmlns="http://www.w3.org/2000/svg">
<path fill-rule="evenodd" clip-rule="evenodd" d="M10 0C4.47715 0 0 4.47715 0 10V61V62V72.5858C0 73.4767 1.07714 73.9229 1.70711 73.2929L13 62H102C107.523 62 112 57.5228 112 52V10C112 4.47715 107.523 0 102 0H10Z" fill="#FAFAFA"/>
<path fill-rule="evenodd" clip-rule="evenodd" d="M10 0C4.47715 0 0 4.47715 0 10V61V62V72.5858C0 73.4767 1.07714 73.9229 1.70711 73.2929L13 62H102C107.523 62 112 57.5228 112 52V10C112 4.47715 107.523 0 102 0H10Z" fill="#698F3F" fill-opacity="0.4"/>
<path d="M10.32 22.424C10.6933 22.7867 10.88 23.2453 10.88 23.8C10.88 24.1627 10.7893 24.488 10.608 24.776C10.4373 25.064 10.224 25.304 9.968 25.496C9.72267 25.688 9.472 25.8693 9.216 26.04C8.96 26.2107 8.74133 26.408 8.56 26.632C8.38933 26.8453 8.304 27.0747 8.304 27.32C8.304 27.6507 8.432 27.9227 8.688 28.136C8.95467 28.36 9.33333 28.472 9.824 28.472C10.72 28.472 11.4613 28.0987 12.048 27.352L13.136 28.552C12.272 29.608 11.1093 30.136 9.648 30.136C8.656 30.136 7.86667 29.9013 7.28 29.432C6.69333 28.9627 6.4 28.36 6.4 27.624C6.4 27.1867 6.496 26.792 6.688 26.44C6.89067 26.088 7.13067 25.8053 7.408 25.592C7.68533 25.368 7.96267 25.16 8.24 24.968C8.51733 24.776 8.752 24.568 8.944 24.344C9.14667 24.12 9.248 23.88 9.248 23.624C9.248 23.3147 9.13067 23.0747 8.896 22.904L10.32 22.424ZM8.96 19.432C9.184 19.208 9.44533 19.096 9.744 19.096C10.0427 19.096 10.304 19.208 10.528 19.432C10.752 19.656 10.864 19.9173 10.864 20.216C10.864 20.5147 10.752 20.776 10.528 21C10.304 21.224 10.0427 21.336 9.744 21.336C9.44533 21.336 9.184 21.224 8.96 21C8.736 20.776 8.624 20.5147 8.624 20.216C8.624 19.9173 8.736 19.656 8.96 19.432ZM18.4718 27.192C16.8824 27.192 15.5758 26.6747 14.5518 25.64C13.5278 24.5947 13.0158 23.272 13.0158 21.672C13.0158 20.072 13.5278 18.7547 14.5518 17.72C15.5758 16.6747 16.8824 16.152 18.4718 16.152C20.0611 16.152 21.3678 16.6747 22.3918 17.72C23.4158 18.7547 23.9278 20.072 23.9278 21.672C23.9278 23.1973 23.4531 24.4773 22.5038 25.512L23.3838 26.504L22.0878 27.592L21.1597 26.552C20.3598 26.9787 19.4638 27.192 18.4718 27.192ZM18.4718 25.528C19.0158 25.528 19.5171 25.4213 19.9758 25.208L18.6478 23.704L19.9598 22.616L21.2878 24.12C21.7678 23.4373 22.0078 22.6213 22.0078 21.672C22.0078 20.552 21.6824 19.6293 21.0318 18.904C20.3811 18.1787 19.5278 17.816 18.4718 17.816C17.4051 17.816 16.5464 18.1787 15.8958 18.904C15.2558 19.6293 14.9358 20.552 14.9358 21.672C14.9358 22.792 15.2558 23.7147 15.8958 24.44C16.5464 25.1653 17.4051 25.528 18.4718 25.528ZM32.5621 27H30.8821V25.976C30.1568 26.7867 29.2501 27.192 28.1621 27.192C27.3408 27.192 26.7168 26.984 26.2901 26.568C25.8741 26.1413 25.6661 25.5333 25.6661 24.744V19.272H27.3461V24.12C27.3461 24.696 27.4795 25.1067 27.7461 25.352C28.0128 25.5867 28.4021 25.704 28.9141 25.704C29.3088 25.704 29.6821 25.608 30.0341 25.416C30.3861 25.2133 30.6688 24.9733 30.8821 24.696V19.272H32.5621V27ZM38.3283 27.192C37.1443 27.192 36.1736 26.8187 35.4163 26.072C34.6589 25.3253 34.2803 24.344 34.2803 23.128C34.2803 21.9973 34.6483 21.0427 35.3843 20.264C36.1309 19.4747 37.0696 19.08 38.2003 19.08C39.3416 19.08 40.2589 19.4747 40.9523 20.264C41.6456 21.0427 41.9923 22.0453 41.9923 23.272V23.688H36.0403C36.1043 24.296 36.3549 24.8027 36.7923 25.208C37.2296 25.6133 37.7949 25.816 38.4883 25.816C39.3843 25.816 40.1203 25.528 40.6963 24.952L41.4643 26.056C40.6536 26.8133 39.6083 27.192 38.3283 27.192ZM40.3763 22.488C40.3443 21.9547 40.1416 21.4853 39.7683 21.08C39.4056 20.664 38.8776 20.456 38.1843 20.456C37.5229 20.456 37.0056 20.664 36.6323 21.08C36.2589 21.4853 36.0563 21.9547 36.0243 22.488H40.3763ZM40.8563 15.8L38.2163 18.104H37.0163L39.2563 15.8H40.8563ZM50.4315 27.192C49.0555 27.192 47.9515 26.7867 47.1195 25.976L47.8875 24.776C48.1755 25.0747 48.5595 25.3307 49.0395 25.544C49.5302 25.7467 50.0155 25.848 50.4955 25.848C50.9862 25.848 51.3648 25.7573 51.6315 25.576C51.8982 25.384 52.0315 25.1333 52.0315 24.824C52.0315 24.5467 51.8715 24.3333 51.5515 24.184C51.2315 24.024 50.8422 23.9013 50.3835 23.816C49.9248 23.72 49.4662 23.608 49.0075 23.48C48.5488 23.3413 48.1595 23.1013 47.8395 22.76C47.5195 22.4187 47.3595 21.9707 47.3595 21.416C47.3595 20.7547 47.6315 20.2 48.1755 19.752C48.7195 19.304 49.4608 19.08 50.3995 19.08C51.5835 19.08 52.5808 19.4373 53.3915 20.152L52.6875 21.336C52.1222 20.7173 51.3595 20.408 50.3995 20.408C49.9728 20.408 49.6262 20.4987 49.3595 20.68C49.1035 20.8613 48.9755 21.0907 48.9755 21.368C48.9755 21.6133 49.1355 21.8053 49.4555 21.944C49.7755 22.0827 50.1648 22.2 50.6235 22.296C51.0822 22.3813 51.5408 22.4933 51.9995 22.632C52.4582 22.7707 52.8475 23.0213 53.1675 23.384C53.4875 23.7467 53.6475 24.2107 53.6475 24.776C53.6475 25.4907 53.3648 26.072 52.7995 26.52C52.2342 26.968 51.4448 27.192 50.4315 27.192ZM56.9064 18.024C56.7037 18.2267 56.4584 18.328 56.1704 18.328C55.8824 18.328 55.637 18.2267 55.4344 18.024C55.2317 17.8213 55.1304 17.576 55.1304 17.288C55.1304 17 55.2317 16.7547 55.4344 16.552C55.637 16.3493 55.8824 16.248 56.1704 16.248C56.4584 16.248 56.7037 16.3493 56.9064 16.552C57.109 16.7547 57.2104 17 57.2104 17.288C57.2104 17.576 57.109 17.8213 56.9064 18.024ZM57.0024 27H55.3224V19.272H57.0024V27ZM62.3338 30.136C61.0218 30.136 59.9391 29.752 59.0858 28.984L59.8698 27.768C60.4564 28.4293 61.2778 28.76 62.3338 28.76C62.9738 28.76 63.5124 28.5893 63.9498 28.248C64.3978 27.9067 64.6218 27.3573 64.6218 26.6V25.72C63.9711 26.584 63.1444 27.016 62.1418 27.016C61.1284 27.016 60.3018 26.664 59.6618 25.96C59.0324 25.256 58.7178 24.2853 58.7178 23.048C58.7178 21.8107 59.0324 20.84 59.6618 20.136C60.2911 19.432 61.1178 19.08 62.1418 19.08C63.1658 19.08 63.9924 19.5013 64.6218 20.344V19.272H66.3018V26.6C66.3018 27.2613 66.1844 27.832 65.9498 28.312C65.7258 28.8027 65.4111 29.1707 65.0058 29.416C64.6111 29.672 64.1951 29.8533 63.7578 29.96C63.3204 30.0773 62.8458 30.136 62.3338 30.136ZM62.6378 25.512C63.0218 25.512 63.3951 25.416 63.7578 25.224C64.1311 25.0213 64.4191 24.776 64.6218 24.488V21.592C64.4191 21.304 64.1311 21.064 63.7578 20.872C63.3951 20.6693 63.0218 20.568 62.6378 20.568C61.9658 20.568 61.4324 20.7973 61.0378 21.256C60.6431 21.704 60.4457 22.3013 60.4457 23.048C60.4457 23.7947 60.6431 24.392 61.0378 24.84C61.4324 25.288 61.9658 25.512 62.6378 25.512ZM75.3906 27H73.7106V22.168C73.7106 21.592 73.572 21.1813 73.2946 20.936C73.028 20.6907 72.644 20.568 72.1426 20.568C71.748 20.568 71.3746 20.6693 71.0226 20.872C70.6706 21.064 70.3826 21.304 70.1586 21.592V27H68.4786V19.272H70.1586V20.312C70.4466 19.9707 70.8306 19.6827 71.3106 19.448C71.8013 19.2027 72.3293 19.08 72.8946 19.08C73.716 19.08 74.3346 19.2933 74.7506 19.72C75.1773 20.1467 75.3906 20.76 75.3906 21.56V27ZM79.1564 18.024C78.9537 18.2267 78.7084 18.328 78.4204 18.328C78.1324 18.328 77.887 18.2267 77.6844 18.024C77.4817 17.8213 77.3804 17.576 77.3804 17.288C77.3804 17 77.4817 16.7547 77.6844 16.552C77.887 16.3493 78.1324 16.248 78.4204 16.248C78.7084 16.248 78.9537 16.3493 79.1564 16.552C79.359 16.7547 79.4604 17 79.4604 17.288C79.4604 17.576 79.359 17.8213 79.1564 18.024ZM79.2524 27H77.5724V19.272H79.2524V27ZM83.5278 27H81.8478V20.728H80.5678V19.272H81.8478V18.84C81.8478 17.9973 82.0718 17.3413 82.5198 16.872C82.9678 16.4027 83.5544 16.168 84.2798 16.168C84.8344 16.168 85.2878 16.264 85.6398 16.456L85.2718 17.72C85.0904 17.6027 84.8664 17.544 84.5998 17.544C83.8851 17.544 83.5278 17.976 83.5278 18.84V19.272H85.0958V20.728H83.5278V27ZM87.9598 18.024C87.7571 18.2267 87.5118 18.328 87.2238 18.328C86.9358 18.328 86.6904 18.2267 86.4878 18.024C86.2851 17.8213 86.1838 17.576 86.1838 17.288C86.1838 17 86.2851 16.7547 86.4878 16.552C86.6904 16.3493 86.9358 16.248 87.2238 16.248C87.5118 16.248 87.7571 16.3493 87.9598 16.552C88.1624 16.7547 88.2638 17 88.2638 17.288C88.2638 17.576 88.1624 17.8213 87.9598 18.024ZM88.0558 27H86.3758V19.272H88.0558V27ZM93.7486 27.192C92.586 27.192 91.6313 26.808 90.8846 26.04C90.138 25.272 89.7646 24.3013 89.7646 23.128C89.7646 21.9547 90.138 20.9893 90.8846 20.232C91.6313 19.464 92.586 19.08 93.7486 19.08C95.0393 19.08 96.026 19.5387 96.7086 20.456L95.6046 21.464C95.178 20.8667 94.586 20.568 93.8286 20.568C93.1353 20.568 92.57 20.808 92.1326 21.288C91.706 21.7573 91.4926 22.3707 91.4926 23.128C91.4926 23.8853 91.706 24.504 92.1326 24.984C92.57 25.464 93.1353 25.704 93.8286 25.704C94.5753 25.704 95.1673 25.3947 95.6046 24.776L96.7086 25.816C96.0153 26.7333 95.0286 27.192 93.7486 27.192ZM105.317 27H103.637V25.944C102.997 26.776 102.171 27.192 101.157 27.192C100.155 27.192 99.3334 26.8293 98.6934 26.104C98.0534 25.3787 97.7334 24.3867 97.7334 23.128C97.7334 21.9013 98.0534 20.92 98.6934 20.184C99.3334 19.448 100.155 19.08 101.157 19.08C102.181 19.08 103.008 19.5013 103.637 20.344V19.272H105.317V27ZM101.653 25.704C102.037 25.704 102.416 25.6027 102.789 25.4C103.163 25.1973 103.445 24.952 103.637 24.664V21.608C103.445 21.32 103.163 21.0747 102.789 20.872C102.416 20.6693 102.037 20.568 101.653 20.568C100.992 20.568 100.459 20.808 100.053 21.288C99.6587 21.7573 99.4614 22.3707 99.4614 23.128C99.4614 23.8853 99.6587 24.504 100.053 24.984C100.459 25.464 100.992 25.704 101.653 25.704ZM10.672 46.192C9.488 46.192 8.51733 45.8187 7.76 45.072C7.00267 44.3253 6.624 43.344 6.624 42.128C6.624 40.9973 6.992 40.0427 7.728 39.264C8.47467 38.4747 9.41333 38.08 10.544 38.08C11.6853 38.08 12.6027 38.4747 13.296 39.264C13.9893 40.0427 14.336 41.0453 14.336 42.272V42.688H8.384C8.448 43.296 8.69867 43.8027 9.136 44.208C9.57333 44.6133 10.1387 44.816 10.832 44.816C11.728 44.816 12.464 44.528 13.04 43.952L13.808 45.056C12.9973 45.8133 11.952 46.192 10.672 46.192ZM12.72 41.488C12.688 40.9547 12.4853 40.4853 12.112 40.08C11.7493 39.664 11.2213 39.456 10.528 39.456C9.86667 39.456 9.34933 39.664 8.976 40.08C8.60267 40.4853 8.4 40.9547 8.368 41.488H12.72ZM18.6503 46.192C17.2743 46.192 16.1703 45.7867 15.3383 44.976L16.1063 43.776C16.3943 44.0747 16.7783 44.3307 17.2582 44.544C17.7489 44.7467 18.2343 44.848 18.7143 44.848C19.2049 44.848 19.5836 44.7573 19.8503 44.576C20.1169 44.384 20.2503 44.1333 20.2503 43.824C20.2503 43.5467 20.0903 43.3333 19.7703 43.184C19.4503 43.024 19.0609 42.9013 18.6023 42.816C18.1436 42.72 17.6849 42.608 17.2263 42.48C16.7676 42.3413 16.3783 42.1013 16.0583 41.76C15.7383 41.4187 15.5783 40.9707 15.5783 40.416C15.5783 39.7547 15.8503 39.2 16.3943 38.752C16.9383 38.304 17.6796 38.08 18.6183 38.08C19.8023 38.08 20.7996 38.4373 21.6103 39.152L20.9063 40.336C20.3409 39.7173 19.5783 39.408 18.6183 39.408C18.1916 39.408 17.8449 39.4987 17.5783 39.68C17.3223 39.8613 17.1943 40.0907 17.1943 40.368C17.1943 40.6133 17.3543 40.8053 17.6743 40.944C17.9943 41.0827 18.3836 41.2 18.8423 41.296C19.3009 41.3813 19.7596 41.4933 20.2183 41.632C20.6769 41.7707 21.0663 42.0213 21.3863 42.384C21.7063 42.7467 21.8663 43.2107 21.8663 43.776C21.8663 44.4907 21.5836 45.072 21.0183 45.52C20.4529 45.968 19.6636 46.192 18.6503 46.192ZM25.8771 46.192C24.5545 46.192 23.8931 45.5253 23.8931 44.192V39.728H22.6131V38.272H23.8931V36.16H25.5731V38.272H27.1411V39.728H25.5731V43.776C25.5731 44.0533 25.6371 44.2773 25.7651 44.448C25.8931 44.6187 26.0745 44.704 26.3091 44.704C26.6291 44.704 26.8745 44.608 27.0451 44.416L27.4451 45.696C27.0718 46.0267 26.5491 46.192 25.8771 46.192ZM35.0345 45.024C34.3092 45.8027 33.3492 46.192 32.1545 46.192C30.9598 46.192 29.9998 45.8027 29.2745 45.024C28.5492 44.2347 28.1865 43.2693 28.1865 42.128C28.1865 40.976 28.5492 40.016 29.2745 39.248C29.9998 38.4693 30.9598 38.08 32.1545 38.08C33.3492 38.08 34.3092 38.4693 35.0345 39.248C35.7598 40.016 36.1225 40.976 36.1225 42.128C36.1225 43.2693 35.7598 44.2347 35.0345 45.024ZM32.1545 44.704C32.8478 44.704 33.3918 44.4587 33.7865 43.968C34.1812 43.4667 34.3785 42.8533 34.3785 42.128C34.3785 41.4133 34.1812 40.8107 33.7865 40.32C33.3918 39.8187 32.8478 39.568 32.1545 39.568C31.4718 39.568 30.9278 39.8187 30.5225 40.32C30.1278 40.8107 29.9305 41.4133 29.9305 42.128C29.9305 42.8533 30.1278 43.4667 30.5225 43.968C30.9278 44.4587 31.4718 44.704 32.1545 44.704ZM38.9771 42.864C38.6038 42.5013 38.4171 42.0427 38.4171 41.488C38.4171 41.1253 38.5025 40.8 38.6731 40.512C38.8545 40.224 39.0678 39.984 39.3131 39.792C39.5691 39.6 39.8251 39.4187 40.0811 39.248C40.3371 39.0773 40.5505 38.8853 40.7211 38.672C40.9025 38.4587 40.9931 38.2293 40.9931 37.984C40.9931 37.6533 40.8598 37.3813 40.5931 37.168C40.3371 36.944 39.9638 36.832 39.4731 36.832C38.5665 36.832 37.8251 37.2053 37.2491 37.952L36.1611 36.752C37.0145 35.696 38.1771 35.168 39.6491 35.168C40.6411 35.168 41.4305 35.4027 42.0171 35.872C42.6038 36.3413 42.8971 36.944 42.8971 37.68C42.8971 38.1173 42.7958 38.512 42.5931 38.864C42.4011 39.2053 42.1665 39.488 41.8891 39.712C41.6118 39.9253 41.3345 40.128 41.0571 40.32C40.7798 40.512 40.5398 40.72 40.3371 40.944C40.1451 41.168 40.0491 41.408 40.0491 41.664C40.0491 41.9733 40.1665 42.2133 40.4011 42.384L38.9771 42.864ZM40.3371 45.84C40.1131 46.064 39.8518 46.176 39.5531 46.176C39.2545 46.176 38.9931 46.064 38.7691 45.84C38.5451 45.616 38.4331 45.3493 38.4331 45.04C38.4331 44.7413 38.5451 44.4853 38.7691 44.272C38.9931 44.048 39.2545 43.936 39.5531 43.936C39.8518 43.936 40.1131 44.048 40.3371 44.272C40.5611 44.4853 40.6731 44.7413 40.6731 45.04C40.6731 45.3493 40.5611 45.616 40.3371 45.84Z" fill="#1D5556"/>
</svg>
