<svg width="287" height="149" viewBox="0 0 287 149" fill="none" xmlns="http://www.w3.org/2000/svg">
<path d="M27.9375 0C38.2237 0 46.5625 8.33876 46.5625 18.625C46.5625 28.9112 38.2237 37.25 27.9375 37.25C17.6513 37.25 9.3125 28.9112 9.3125 18.625C9.3125 8.33876 17.6513 0 27.9375 0ZM41.9062 41.9062H38.6003C31.9911 44.9453 24.1688 45.0766 17.2747 41.9062H13.9688C6.25393 41.9062 0 48.1602 0 55.875V95.4531C0 99.3105 3.12696 102.438 6.98438 102.438H11.6406V142.016C11.6406 145.873 14.7676 149 18.625 149H37.25C41.1074 149 44.2344 145.873 44.2344 142.016V102.438H48.8906C52.748 102.438 55.875 99.3105 55.875 95.4531V55.875C55.875 48.1602 49.6211 41.9062 41.9062 41.9062Z" fill="#698F3F"/>
<path fill-rule="evenodd" clip-rule="evenodd" d="M46.5625 18.625C46.5625 8.33876 38.2237 0 27.9375 0C17.6513 0 9.3125 8.33876 9.3125 18.625C9.3125 28.9112 17.6513 37.25 27.9375 37.25C38.2237 37.25 46.5625 28.9112 46.5625 18.625ZM38.6003 41.9062H41.9062C49.6211 41.9062 55.875 48.1602 55.875 55.875V65.8085H0V55.875C0 48.1602 6.25393 41.9062 13.9688 41.9062H17.2747C24.1688 45.0766 31.9911 44.9453 38.6003 41.9062Z" fill="#1D5556"/>
<path fill-rule="evenodd" clip-rule="evenodd" d="M0 95.4534V65.8086H55.875V95.4534C55.875 96.8889 55.4419 98.2232 54.6994 99.3329H1.17564C0.433052 98.2232 0 96.8889 0 95.4534ZM18.526 149C18.559 149 18.592 149 18.625 149H37.25C37.283 149 37.316 149 37.349 149H18.526Z" fill="#B6174B"/>
<path fill-rule="evenodd" clip-rule="evenodd" d="M54.7652 99.3359H1.24146C2.49432 101.208 4.62828 102.441 7.05019 102.441H11.7064V132.861H44.3002V102.441H48.9564C51.3783 102.441 53.5123 101.208 54.7652 99.3359Z" fill="#41A5B4"/>
<path d="M95.575 43H92.65V39.225H84.7V36.875L91.55 26.325H95.575V36.65H97.8V39.225H95.575V43ZM92.65 36.65V28.95L87.575 36.65H92.65ZM110.077 43H107.152V39.225H99.202V36.875L106.052 26.325H110.077V36.65H112.302V39.225H110.077V43ZM107.152 36.65V28.95L102.077 36.65H107.152ZM117.954 42.05C117.954 42.9 117.737 43.7 117.304 44.45C116.887 45.2 116.329 45.825 115.629 46.325L114.429 45.35C114.846 45.1 115.229 44.75 115.579 44.3C115.946 43.85 116.162 43.4167 116.229 43C116.129 43.05 115.987 43.075 115.804 43.075C115.387 43.075 115.037 42.925 114.754 42.625C114.471 42.325 114.329 41.9417 114.329 41.475C114.329 41.0083 114.496 40.6083 114.829 40.275C115.162 39.9417 115.562 39.775 116.029 39.775C116.562 39.775 117.012 39.9833 117.379 40.4C117.762 40.8 117.954 41.35 117.954 42.05ZM130.707 43H127.782V39.225H119.832V36.875L126.682 26.325H130.707V36.65H132.932V39.225H130.707V43ZM127.782 36.65V28.95L122.707 36.65H127.782ZM138.484 34.35C137.267 34.35 136.267 33.9583 135.484 33.175C134.717 32.3917 134.334 31.4083 134.334 30.225C134.334 29.0417 134.717 28.0583 135.484 27.275C136.267 26.475 137.267 26.075 138.484 26.075C139.717 26.075 140.717 26.4667 141.484 27.25C142.25 28.0333 142.634 29.025 142.634 30.225C142.634 31.4083 142.25 32.3917 141.484 33.175C140.717 33.9583 139.717 34.35 138.484 34.35ZM138.534 43H136.859L147.509 26.325H149.209L138.534 43ZM150.434 42.125C149.667 42.9083 148.675 43.3 147.459 43.3C146.242 43.3 145.242 42.9083 144.459 42.125C143.692 41.3417 143.309 40.3583 143.309 39.175C143.309 37.9917 143.692 37.0083 144.459 36.225C145.242 35.425 146.242 35.025 147.459 35.025C148.675 35.025 149.667 35.425 150.434 36.225C151.217 37.0083 151.609 37.9917 151.609 39.175C151.609 40.3583 151.217 41.3417 150.434 42.125ZM138.484 32.675C139.134 32.675 139.667 32.45 140.084 32C140.5 31.5333 140.709 30.9417 140.709 30.225C140.709 29.4917 140.5 28.8917 140.084 28.425C139.667 27.9583 139.134 27.725 138.484 27.725C137.85 27.725 137.325 27.9583 136.909 28.425C136.492 28.8917 136.284 29.4917 136.284 30.225C136.284 30.9417 136.492 31.5333 136.909 32C137.325 32.45 137.85 32.675 138.484 32.675ZM145.859 40.95C146.275 41.4 146.809 41.625 147.459 41.625C148.109 41.625 148.642 41.4 149.059 40.95C149.475 40.4833 149.684 39.8917 149.684 39.175C149.684 38.4417 149.475 37.8417 149.059 37.375C148.642 36.9083 148.109 36.675 147.459 36.675C146.809 36.675 146.275 36.9083 145.859 37.375C145.442 37.8417 145.234 38.4417 145.234 39.175C145.234 39.8917 145.442 40.4833 145.859 40.95Z" fill="black"/>
<path d="M171.999 43H170.671V34.024L167.055 43H166.511L162.879 34.024V43H161.551V32.328H163.455L166.783 40.552L170.095 32.328H171.999V43ZM181.24 43H180.04V41.848C179.379 42.744 178.51 43.192 177.432 43.192C176.408 43.192 175.576 42.8293 174.936 42.104C174.307 41.368 173.992 40.3813 173.992 39.144C173.992 37.9173 174.312 36.936 174.952 36.2C175.592 35.4533 176.419 35.08 177.432 35.08C178.499 35.08 179.368 35.5333 180.04 36.44V35.272H181.24V43ZM177.736 42.12C178.195 42.12 178.638 42.0027 179.064 41.768C179.502 41.5227 179.827 41.2293 180.04 40.888V37.4C179.827 37.048 179.502 36.7547 179.064 36.52C178.638 36.2747 178.195 36.152 177.736 36.152C176.968 36.152 176.36 36.4347 175.912 37C175.464 37.5547 175.24 38.2693 175.24 39.144C175.24 40.0187 175.464 40.7333 175.912 41.288C176.36 41.8427 176.968 42.12 177.736 42.12ZM186.523 46.136C185.329 46.136 184.342 45.7467 183.563 44.968L184.171 44.104C184.726 44.7973 185.51 45.144 186.523 45.144C187.249 45.144 187.819 44.9467 188.235 44.552C188.651 44.1573 188.859 43.608 188.859 42.904V41.752C188.539 42.1147 188.134 42.4187 187.643 42.664C187.163 42.9093 186.651 43.032 186.107 43.032C184.465 43.032 183.643 42.2107 183.643 40.568V35.272H184.843V40.2C184.843 40.8507 184.993 41.3093 185.291 41.576C185.59 41.8427 186.022 41.976 186.587 41.976C187.025 41.976 187.451 41.864 187.867 41.64C188.294 41.4053 188.625 41.128 188.859 40.808V35.272H190.059V42.904C190.059 43.9493 189.723 44.7493 189.051 45.304C188.379 45.8587 187.537 46.136 186.523 46.136ZM198.6 42.024C197.907 42.8027 196.984 43.192 195.832 43.192C194.68 43.192 193.752 42.8027 193.048 42.024C192.355 41.2453 192.008 40.28 192.008 39.128C192.008 37.976 192.355 37.016 193.048 36.248C193.752 35.4693 194.68 35.08 195.832 35.08C196.984 35.08 197.907 35.4693 198.6 36.248C199.304 37.016 199.656 37.976 199.656 39.128C199.656 40.28 199.304 41.2453 198.6 42.024ZM193.96 41.256C194.419 41.832 195.043 42.12 195.832 42.12C196.621 42.12 197.245 41.832 197.704 41.256C198.163 40.6693 198.392 39.96 198.392 39.128C198.392 38.296 198.163 37.592 197.704 37.016C197.245 36.44 196.621 36.152 195.832 36.152C195.043 36.152 194.419 36.44 193.96 37.016C193.501 37.592 193.272 38.296 193.272 39.128C193.272 39.96 193.501 40.6693 193.96 41.256ZM202.812 43H201.612V35.272H202.812V36.504C203.548 35.5653 204.407 35.096 205.388 35.096V36.328C205.196 36.3067 205.041 36.296 204.924 36.296C204.551 36.296 204.151 36.424 203.724 36.68C203.297 36.9253 202.993 37.208 202.812 37.528V43ZM210.397 43.192C209.235 43.192 208.285 42.8187 207.549 42.072C206.813 41.3147 206.445 40.3333 206.445 39.128C206.445 37.9973 206.808 37.0427 207.533 36.264C208.259 35.4747 209.165 35.08 210.253 35.08C211.395 35.08 212.296 35.4747 212.957 36.264C213.629 37.0427 213.965 38.0293 213.965 39.224V39.528H207.725C207.779 40.2853 208.051 40.92 208.541 41.432C209.043 41.944 209.693 42.2 210.493 42.2C211.453 42.2 212.253 41.8693 212.893 41.208L213.469 41.992C212.648 42.792 211.624 43.192 210.397 43.192ZM212.781 38.632C212.771 37.9813 212.547 37.3947 212.109 36.872C211.672 36.3387 211.048 36.072 210.237 36.072C209.469 36.072 208.861 36.3333 208.413 36.856C207.976 37.3787 207.741 37.9707 207.709 38.632H212.781ZM218.373 43.192C217.072 43.192 216.032 42.7867 215.253 41.976L215.861 41.112C216.128 41.4213 216.49 41.6827 216.949 41.896C217.418 42.1093 217.904 42.216 218.405 42.216C218.981 42.216 219.429 42.0933 219.749 41.848C220.08 41.6027 220.245 41.2827 220.245 40.888C220.245 40.5467 220.08 40.28 219.749 40.088C219.418 39.8853 219.018 39.736 218.549 39.64C218.08 39.5333 217.61 39.416 217.141 39.288C216.682 39.1493 216.288 38.92 215.957 38.6C215.626 38.2693 215.461 37.8373 215.461 37.304C215.461 36.6747 215.717 36.1467 216.229 35.72C216.741 35.2933 217.44 35.08 218.325 35.08C219.509 35.08 220.464 35.4533 221.189 36.2L220.629 37.032C220.085 36.3813 219.317 36.056 218.325 36.056C217.802 36.056 217.386 36.1733 217.077 36.408C216.768 36.632 216.613 36.92 216.613 37.272C216.613 37.528 216.73 37.7413 216.965 37.912C217.2 38.0827 217.493 38.2053 217.845 38.28C218.208 38.3547 218.592 38.4507 218.997 38.568C219.413 38.6853 219.797 38.8187 220.149 38.968C220.512 39.1067 220.81 39.3413 221.045 39.672C221.28 39.992 221.397 40.3867 221.397 40.856C221.397 41.5387 221.13 42.0987 220.597 42.536C220.074 42.9733 219.333 43.192 218.373 43.192ZM234.287 43H233.087V41.848C232.426 42.744 231.556 43.192 230.479 43.192C229.455 43.192 228.623 42.8293 227.983 42.104C227.354 41.368 227.039 40.3813 227.039 39.144C227.039 37.9173 227.359 36.936 227.999 36.2C228.639 35.4533 229.466 35.08 230.479 35.08C231.546 35.08 232.415 35.5333 233.087 36.44V32.328H234.287V43ZM230.783 42.12C231.242 42.12 231.684 42.0027 232.111 41.768C232.548 41.5227 232.874 41.2293 233.087 40.888V37.4C232.874 37.048 232.548 36.7547 232.111 36.52C231.684 36.2747 231.242 36.152 230.783 36.152C230.015 36.152 229.407 36.4347 228.959 37C228.511 37.5547 228.287 38.2693 228.287 39.144C228.287 40.0187 228.511 40.7333 228.959 41.288C229.407 41.8427 230.015 42.12 230.783 42.12ZM240.194 43.192C239.032 43.192 238.082 42.8187 237.346 42.072C236.61 41.3147 236.242 40.3333 236.242 39.128C236.242 37.9973 236.605 37.0427 237.33 36.264C238.056 35.4747 238.962 35.08 240.05 35.08C241.192 35.08 242.093 35.4747 242.754 36.264C243.426 37.0427 243.762 38.0293 243.762 39.224V39.528H237.522C237.576 40.2853 237.848 40.92 238.338 41.432C238.84 41.944 239.49 42.2 240.29 42.2C241.25 42.2 242.05 41.8693 242.69 41.208L243.266 41.992C242.445 42.792 241.421 43.192 240.194 43.192ZM242.578 38.632C242.568 37.9813 242.344 37.3947 241.906 36.872C241.469 36.3387 240.845 36.072 240.034 36.072C239.266 36.072 238.658 36.3333 238.21 36.856C237.773 37.3787 237.538 37.9707 237.506 38.632H242.578ZM253.59 43.192C252.865 43.192 252.23 43.0427 251.686 42.744C251.142 42.4453 250.71 42.0347 250.39 41.512C250.081 40.9893 249.846 40.408 249.686 39.768C249.537 39.128 249.462 38.4293 249.462 37.672C249.462 36.1147 249.83 34.808 250.566 33.752C251.313 32.696 252.396 32.168 253.814 32.168C255.052 32.168 256.033 32.5947 256.758 33.448L256.086 34.44C255.468 33.7147 254.71 33.352 253.814 33.352C252.844 33.352 252.097 33.7627 251.574 34.584C251.062 35.4053 250.806 36.392 250.806 37.544V37.96C251.073 37.5333 251.484 37.1493 252.038 36.808C252.604 36.4667 253.201 36.296 253.83 36.296C254.844 36.296 255.676 36.5947 256.326 37.192C256.988 37.7787 257.318 38.616 257.318 39.704C257.318 40.664 256.977 41.4853 256.294 42.168C255.612 42.8507 254.71 43.192 253.59 43.192ZM253.526 42.008C254.294 42.008 254.892 41.7733 255.318 41.304C255.756 40.8347 255.974 40.3173 255.974 39.752C255.974 39.0053 255.745 38.4347 255.286 38.04C254.828 37.6453 254.241 37.448 253.526 37.448C253.004 37.448 252.502 37.5973 252.022 37.896C251.542 38.184 251.153 38.5627 250.854 39.032C250.918 39.8213 251.169 40.5147 251.606 41.112C252.044 41.7093 252.684 42.008 253.526 42.008ZM262.996 43.192C262.292 43.192 261.668 43.032 261.124 42.712C260.59 42.3813 260.164 41.944 259.844 41.4C259.534 40.856 259.3 40.2693 259.14 39.64C258.99 39.0107 258.916 38.3547 258.916 37.672C258.916 36.9893 258.99 36.3333 259.14 35.704C259.3 35.0747 259.534 34.4933 259.844 33.96C260.164 33.416 260.59 32.984 261.124 32.664C261.668 32.3333 262.292 32.168 262.996 32.168C263.689 32.168 264.308 32.3333 264.852 32.664C265.396 32.984 265.822 33.416 266.132 33.96C266.452 34.4933 266.686 35.0747 266.836 35.704C266.996 36.3333 267.076 36.9893 267.076 37.672C267.076 38.3547 266.996 39.0107 266.836 39.64C266.686 40.2693 266.452 40.856 266.132 41.4C265.822 41.944 265.396 42.3813 264.852 42.712C264.308 43.032 263.689 43.192 262.996 43.192ZM261.396 41.352C261.822 41.7893 262.356 42.008 262.996 42.008C263.636 42.008 264.169 41.7893 264.596 41.352C265.022 40.904 265.316 40.3707 265.476 39.752C265.636 39.1333 265.716 38.44 265.716 37.672C265.716 36.904 265.636 36.2107 265.476 35.592C265.316 34.9733 265.022 34.4453 264.596 34.008C264.169 33.5707 263.636 33.352 262.996 33.352C262.356 33.352 261.822 33.5707 261.396 34.008C260.969 34.4453 260.676 34.9733 260.516 35.592C260.356 36.2107 260.276 36.904 260.276 37.672C260.276 38.44 260.356 39.1333 260.516 39.752C260.676 40.3707 260.969 40.904 261.396 41.352Z" fill="#1A1A1A"/>
<line x1="62" y1="32.5" x2="76" y2="32.5" stroke="#1D5556"/>
<path d="M97.325 77H85.25V74.675C88.7667 72.0083 91.15 70.05 92.4 68.8C93.65 67.55 94.275 66.35 94.275 65.2C94.275 64.3833 93.975 63.7583 93.375 63.325C92.775 62.8917 92.0583 62.675 91.225 62.675C89.4083 62.675 87.9083 63.3333 86.725 64.65L85.025 62.75C85.7417 61.8833 86.6417 61.225 87.725 60.775C88.825 60.3083 89.9833 60.075 91.2 60.075C92.9 60.075 94.325 60.5333 95.475 61.45C96.6417 62.35 97.225 63.6 97.225 65.2C97.225 66.65 96.625 68.0833 95.425 69.5C94.2417 70.9167 92.4167 72.5583 89.95 74.425H97.325V77ZM112.193 77H100.118V74.675C103.635 72.0083 106.018 70.05 107.268 68.8C108.518 67.55 109.143 66.35 109.143 65.2C109.143 64.3833 108.843 63.7583 108.243 63.325C107.643 62.8917 106.926 62.675 106.093 62.675C104.276 62.675 102.776 63.3333 101.593 64.65L99.8932 62.75C100.61 61.8833 101.51 61.225 102.593 60.775C103.693 60.3083 104.851 60.075 106.068 60.075C107.768 60.075 109.193 60.5333 110.343 61.45C111.51 62.35 112.093 63.6 112.093 65.2C112.093 66.65 111.493 68.0833 110.293 69.5C109.11 70.9167 107.285 72.5583 104.818 74.425H112.193V77ZM118.686 76.05C118.686 76.9 118.47 77.7 118.036 78.45C117.62 79.2 117.061 79.825 116.361 80.325L115.161 79.35C115.578 79.1 115.961 78.75 116.311 78.3C116.678 77.85 116.895 77.4167 116.961 77C116.861 77.05 116.72 77.075 116.536 77.075C116.12 77.075 115.77 76.925 115.486 76.625C115.203 76.325 115.061 75.9417 115.061 75.475C115.061 75.0083 115.228 74.6083 115.561 74.275C115.895 73.9417 116.295 73.775 116.761 73.775C117.295 73.775 117.745 73.9833 118.111 74.4C118.495 74.8 118.686 75.35 118.686 76.05ZM133.189 77H121.114V74.675C124.631 72.0083 127.014 70.05 128.264 68.8C129.514 67.55 130.139 66.35 130.139 65.2C130.139 64.3833 129.839 63.7583 129.239 63.325C128.639 62.8917 127.923 62.675 127.089 62.675C125.273 62.675 123.773 63.3333 122.589 64.65L120.889 62.75C121.606 61.8833 122.506 61.225 123.589 60.775C124.689 60.3083 125.848 60.075 127.064 60.075C128.764 60.075 130.189 60.5333 131.339 61.45C132.506 62.35 133.089 63.6 133.089 65.2C133.089 66.65 132.489 68.0833 131.289 69.5C130.106 70.9167 128.281 72.5583 125.814 74.425H133.189V77ZM139.582 68.35C138.366 68.35 137.366 67.9583 136.582 67.175C135.816 66.3917 135.432 65.4083 135.432 64.225C135.432 63.0417 135.816 62.0583 136.582 61.275C137.366 60.475 138.366 60.075 139.582 60.075C140.816 60.075 141.816 60.4667 142.582 61.25C143.349 62.0333 143.732 63.025 143.732 64.225C143.732 65.4083 143.349 66.3917 142.582 67.175C141.816 67.9583 140.816 68.35 139.582 68.35ZM139.632 77H137.957L148.607 60.325H150.307L139.632 77ZM151.532 76.125C150.766 76.9083 149.774 77.3 148.557 77.3C147.341 77.3 146.341 76.9083 145.557 76.125C144.791 75.3417 144.407 74.3583 144.407 73.175C144.407 71.9917 144.791 71.0083 145.557 70.225C146.341 69.425 147.341 69.025 148.557 69.025C149.774 69.025 150.766 69.425 151.532 70.225C152.316 71.0083 152.707 71.9917 152.707 73.175C152.707 74.3583 152.316 75.3417 151.532 76.125ZM139.582 66.675C140.232 66.675 140.766 66.45 141.182 66C141.599 65.5333 141.807 64.9417 141.807 64.225C141.807 63.4917 141.599 62.8917 141.182 62.425C140.766 61.9583 140.232 61.725 139.582 61.725C138.949 61.725 138.424 61.9583 138.007 62.425C137.591 62.8917 137.382 63.4917 137.382 64.225C137.382 64.9417 137.591 65.5333 138.007 66C138.424 66.45 138.949 66.675 139.582 66.675ZM146.957 74.95C147.374 75.4 147.907 75.625 148.557 75.625C149.207 75.625 149.741 75.4 150.157 74.95C150.574 74.4833 150.782 73.8917 150.782 73.175C150.782 72.4417 150.574 71.8417 150.157 71.375C149.741 70.9083 149.207 70.675 148.557 70.675C147.907 70.675 147.374 70.9083 146.957 71.375C146.541 71.8417 146.332 72.4417 146.332 73.175C146.332 73.8917 146.541 74.4833 146.957 74.95ZM163.977 77H162.649V66.328H163.977V77ZM172.845 77H171.661V71.944C171.661 71.2933 171.512 70.8347 171.213 70.568C170.915 70.2907 170.483 70.152 169.917 70.152C169.469 70.152 169.037 70.2693 168.621 70.504C168.205 70.7387 167.875 71.0213 167.629 71.352V77H166.429V69.272H167.629V70.392C167.928 70.0293 168.328 69.72 168.829 69.464C169.331 69.208 169.853 69.08 170.397 69.08C172.029 69.08 172.845 69.912 172.845 71.576V77ZM177.226 77.192C176.074 77.192 175.498 76.5893 175.498 75.384V70.328H174.218V69.272H175.498V67.16H176.714V69.272H178.282V70.328H176.714V75.128C176.714 75.4267 176.778 75.6667 176.906 75.848C177.044 76.0293 177.236 76.12 177.482 76.12C177.823 76.12 178.095 76.008 178.298 75.784L178.65 76.696C178.298 77.0267 177.823 77.192 177.226 77.192ZM183.465 77.192C182.302 77.192 181.353 76.8187 180.617 76.072C179.881 75.3147 179.513 74.3333 179.513 73.128C179.513 71.9973 179.875 71.0427 180.601 70.264C181.326 69.4747 182.233 69.08 183.321 69.08C184.462 69.08 185.363 69.4747 186.025 70.264C186.697 71.0427 187.033 72.0293 187.033 73.224V73.528H180.793C180.846 74.2853 181.118 74.92 181.609 75.432C182.11 75.944 182.761 76.2 183.561 76.2C184.521 76.2 185.321 75.8693 185.961 75.208L186.537 75.992C185.715 76.792 184.691 77.192 183.465 77.192ZM185.849 72.632C185.838 71.9813 185.614 71.3947 185.177 70.872C184.739 70.3387 184.115 70.072 183.305 70.072C182.537 70.072 181.929 70.3333 181.481 70.856C181.043 71.3787 180.809 71.9707 180.777 72.632H185.849ZM190.176 77H188.976V69.272H190.176V70.504C190.912 69.5653 191.771 69.096 192.752 69.096V70.328C192.56 70.3067 192.406 70.296 192.288 70.296C191.915 70.296 191.515 70.424 191.088 70.68C190.662 70.9253 190.358 71.208 190.176 71.528V77ZM197.362 80.136C196.69 80.136 196.114 80.0507 195.634 79.88C195.154 79.7093 194.69 79.4053 194.242 78.968L194.85 78.104C195.436 78.7973 196.274 79.144 197.362 79.144C198.066 79.144 198.658 78.9573 199.138 78.584C199.618 78.2213 199.858 77.656 199.858 76.888V75.72C199.559 76.136 199.18 76.472 198.722 76.728C198.263 76.9733 197.772 77.096 197.25 77.096C196.226 77.096 195.394 76.7387 194.754 76.024C194.124 75.2987 193.81 74.3227 193.81 73.096C193.81 71.8693 194.124 70.8933 194.754 70.168C195.394 69.4427 196.226 69.08 197.25 69.08C198.316 69.08 199.186 69.5333 199.858 70.44V69.272H201.058V76.888C201.058 78.0187 200.706 78.84 200.002 79.352C199.308 79.8747 198.428 80.136 197.362 80.136ZM197.554 76.024C198.012 76.024 198.455 75.9067 198.882 75.672C199.308 75.4267 199.634 75.128 199.858 74.776V71.384C199.634 71.0427 199.308 70.7547 198.882 70.52C198.455 70.2747 198.012 70.152 197.554 70.152C196.786 70.152 196.178 70.424 195.73 70.968C195.282 71.512 195.058 72.2213 195.058 73.096C195.058 73.96 195.282 74.664 195.73 75.208C196.178 75.752 196.786 76.024 197.554 76.024ZM206.965 77.192C205.802 77.192 204.853 76.8187 204.117 76.072C203.381 75.3147 203.013 74.3333 203.013 73.128C203.013 71.9973 203.375 71.0427 204.101 70.264C204.826 69.4747 205.733 69.08 206.821 69.08C207.962 69.08 208.863 69.4747 209.525 70.264C210.197 71.0427 210.533 72.0293 210.533 73.224V73.528H204.293C204.346 74.2853 204.618 74.92 205.109 75.432C205.61 75.944 206.261 76.2 207.061 76.2C208.021 76.2 208.821 75.8693 209.461 75.208L210.037 75.992C209.215 76.792 208.191 77.192 206.965 77.192ZM209.349 72.632C209.338 71.9813 209.114 71.3947 208.677 70.872C208.239 70.3387 207.615 70.072 206.805 70.072C206.037 70.072 205.429 70.3333 204.981 70.856C204.543 71.3787 204.309 71.9707 204.277 72.632H209.349ZM218.892 77H217.708V71.944C217.708 71.2933 217.559 70.8347 217.26 70.568C216.962 70.2907 216.53 70.152 215.964 70.152C215.516 70.152 215.084 70.2693 214.668 70.504C214.252 70.7387 213.922 71.0213 213.676 71.352V77H212.476V69.272H213.676V70.392C213.975 70.0293 214.375 69.72 214.876 69.464C215.378 69.208 215.9 69.08 216.444 69.08C218.076 69.08 218.892 69.912 218.892 71.576V77ZM224.808 77.192C223.646 77.192 222.696 76.8187 221.96 76.072C221.224 75.3147 220.856 74.3333 220.856 73.128C220.856 71.9973 221.219 71.0427 221.944 70.264C222.67 69.4747 223.576 69.08 224.664 69.08C225.806 69.08 226.707 69.4747 227.368 70.264C228.04 71.0427 228.376 72.0293 228.376 73.224V73.528H222.136C222.19 74.2853 222.462 74.92 222.952 75.432C223.454 75.944 224.104 76.2 224.904 76.2C225.864 76.2 226.664 75.8693 227.304 75.208L227.88 75.992C227.059 76.792 226.035 77.192 224.808 77.192ZM227.192 72.632C227.182 71.9813 226.958 71.3947 226.52 70.872C226.083 70.3387 225.459 70.072 224.648 70.072C223.88 70.072 223.272 70.3333 222.824 70.856C222.387 71.3787 222.152 71.9707 222.12 72.632H227.192ZM231.52 77H230.32V69.272H231.52V70.504C232.256 69.5653 233.115 69.096 234.096 69.096V70.328C233.904 70.3067 233.749 70.296 233.632 70.296C233.259 70.296 232.859 70.424 232.432 70.68C232.005 70.9253 231.701 71.208 231.52 71.528V77ZM242.401 77H241.201V75.848C240.54 76.744 239.671 77.192 238.593 77.192C237.569 77.192 236.737 76.8293 236.097 76.104C235.468 75.368 235.153 74.3813 235.153 73.144C235.153 71.9173 235.473 70.936 236.113 70.2C236.753 69.4533 237.58 69.08 238.593 69.08C239.66 69.08 240.529 69.5333 241.201 70.44V69.272H242.401V77ZM238.897 76.12C239.356 76.12 239.799 76.0027 240.225 75.768C240.663 75.5227 240.988 75.2293 241.201 74.888V71.4C240.988 71.048 240.663 70.7547 240.225 70.52C239.799 70.2747 239.356 70.152 238.897 70.152C238.129 70.152 237.521 70.4347 237.073 71C236.625 71.5547 236.401 72.2693 236.401 73.144C236.401 74.0187 236.625 74.7333 237.073 75.288C237.521 75.8427 238.129 76.12 238.897 76.12ZM248.212 77.192C247.071 77.192 246.143 76.808 245.428 76.04C244.714 75.2613 244.356 74.2907 244.356 73.128C244.356 71.9653 244.714 71 245.428 70.232C246.143 69.464 247.071 69.08 248.212 69.08C249.407 69.08 250.351 69.528 251.044 70.424L250.244 71.144C249.764 70.4827 249.108 70.152 248.276 70.152C247.476 70.152 246.831 70.4347 246.34 71C245.85 71.5547 245.604 72.264 245.604 73.128C245.604 74.0027 245.85 74.7227 246.34 75.288C246.831 75.8427 247.476 76.12 248.276 76.12C249.087 76.12 249.743 75.784 250.244 75.112L251.044 75.848C250.351 76.744 249.407 77.192 248.212 77.192ZM253.91 67.944C253.761 68.0933 253.574 68.168 253.35 68.168C253.126 68.168 252.934 68.0933 252.774 67.944C252.614 67.784 252.534 67.592 252.534 67.368C252.534 67.144 252.614 66.952 252.774 66.792C252.934 66.632 253.126 66.552 253.35 66.552C253.574 66.552 253.761 66.632 253.91 66.792C254.07 66.952 254.15 67.144 254.15 67.368C254.15 67.592 254.07 67.784 253.91 67.944ZM253.942 77H252.742V69.272H253.942V77ZM262.48 76.024C261.786 76.8027 260.864 77.192 259.712 77.192C258.56 77.192 257.632 76.8027 256.928 76.024C256.234 75.2453 255.888 74.28 255.888 73.128C255.888 71.976 256.234 71.016 256.928 70.248C257.632 69.4693 258.56 69.08 259.712 69.08C260.864 69.08 261.786 69.4693 262.48 70.248C263.184 71.016 263.536 71.976 263.536 73.128C263.536 74.28 263.184 75.2453 262.48 76.024ZM257.84 75.256C258.298 75.832 258.922 76.12 259.712 76.12C260.501 76.12 261.125 75.832 261.584 75.256C262.042 74.6693 262.272 73.96 262.272 73.128C262.272 72.296 262.042 71.592 261.584 71.016C261.125 70.44 260.501 70.152 259.712 70.152C258.922 70.152 258.298 70.44 257.84 71.016C257.381 71.592 257.152 72.296 257.152 73.128C257.152 73.96 257.381 74.6693 257.84 75.256ZM271.908 77H270.724V71.944C270.724 71.2933 270.575 70.8347 270.276 70.568C269.977 70.2907 269.545 70.152 268.98 70.152C268.532 70.152 268.1 70.2693 267.684 70.504C267.268 70.7387 266.937 71.0213 266.692 71.352V77H265.492V69.272H266.692V70.392C266.991 70.0293 267.391 69.72 267.892 69.464C268.393 69.208 268.916 69.08 269.46 69.08C271.092 69.08 271.908 69.912 271.908 71.576V77ZM281.12 77H279.92V75.848C279.259 76.744 278.389 77.192 277.312 77.192C276.288 77.192 275.456 76.8293 274.816 76.104C274.187 75.368 273.872 74.3813 273.872 73.144C273.872 71.9173 274.192 70.936 274.832 70.2C275.472 69.4533 276.299 69.08 277.312 69.08C278.379 69.08 279.248 69.5333 279.92 70.44V69.272H281.12V77ZM277.616 76.12C278.075 76.12 278.517 76.0027 278.944 75.768C279.381 75.5227 279.707 75.2293 279.92 74.888V71.4C279.707 71.048 279.381 70.7547 278.944 70.52C278.517 70.2747 278.075 70.152 277.616 70.152C276.848 70.152 276.24 70.4347 275.792 71C275.344 71.5547 275.12 72.2693 275.12 73.144C275.12 74.0187 275.344 74.7333 275.792 75.288C276.24 75.8427 276.848 76.12 277.616 76.12ZM285.235 77.192C284.67 77.192 284.243 77.0373 283.955 76.728C283.667 76.4187 283.523 75.9707 283.523 75.384V66.328H284.723V75.128C284.723 75.4267 284.787 75.6667 284.915 75.848C285.054 76.0293 285.251 76.12 285.507 76.12C285.859 76.12 286.126 76.008 286.307 75.784L286.675 76.696C286.313 77.0267 285.833 77.192 285.235 77.192Z" fill="#1A1A1A"/>
<line x1="62" y1="66.5" x2="76" y2="66.5" stroke="#B6174B"/>
<path d="M97.325 110H85.25V107.675C88.7667 105.008 91.15 103.05 92.4 101.8C93.65 100.55 94.275 99.35 94.275 98.2C94.275 97.3833 93.975 96.7583 93.375 96.325C92.775 95.8917 92.0583 95.675 91.225 95.675C89.4083 95.675 87.9083 96.3333 86.725 97.65L85.025 95.75C85.7417 94.8833 86.6417 94.225 87.725 93.775C88.825 93.3083 89.9833 93.075 91.2 93.075C92.9 93.075 94.325 93.5333 95.475 94.45C96.6417 95.35 97.225 96.6 97.225 98.2C97.225 99.65 96.625 101.083 95.425 102.5C94.2417 103.917 92.4167 105.558 89.95 107.425H97.325V110ZM112.193 110H100.118V107.675C103.635 105.008 106.018 103.05 107.268 101.8C108.518 100.55 109.143 99.35 109.143 98.2C109.143 97.3833 108.843 96.7583 108.243 96.325C107.643 95.8917 106.926 95.675 106.093 95.675C104.276 95.675 102.776 96.3333 101.593 97.65L99.8932 95.75C100.61 94.8833 101.51 94.225 102.593 93.775C103.693 93.3083 104.851 93.075 106.068 93.075C107.768 93.075 109.193 93.5333 110.343 94.45C111.51 95.35 112.093 96.6 112.093 98.2C112.093 99.65 111.493 101.083 110.293 102.5C109.11 103.917 107.285 105.558 104.818 107.425H112.193V110ZM118.686 109.05C118.686 109.9 118.47 110.7 118.036 111.45C117.62 112.2 117.061 112.825 116.361 113.325L115.161 112.35C115.578 112.1 115.961 111.75 116.311 111.3C116.678 110.85 116.895 110.417 116.961 110C116.861 110.05 116.72 110.075 116.536 110.075C116.12 110.075 115.77 109.925 115.486 109.625C115.203 109.325 115.061 108.942 115.061 108.475C115.061 108.008 115.228 107.608 115.561 107.275C115.895 106.942 116.295 106.775 116.761 106.775C117.295 106.775 117.745 106.983 118.111 107.4C118.495 107.8 118.686 108.35 118.686 109.05ZM133.189 110H121.114V107.675C124.631 105.008 127.014 103.05 128.264 101.8C129.514 100.55 130.139 99.35 130.139 98.2C130.139 97.3833 129.839 96.7583 129.239 96.325C128.639 95.8917 127.923 95.675 127.089 95.675C125.273 95.675 123.773 96.3333 122.589 97.65L120.889 95.75C121.606 94.8833 122.506 94.225 123.589 93.775C124.689 93.3083 125.848 93.075 127.064 93.075C128.764 93.075 130.189 93.5333 131.339 94.45C132.506 95.35 133.089 96.6 133.089 98.2C133.089 99.65 132.489 101.083 131.289 102.5C130.106 103.917 128.281 105.558 125.814 107.425H133.189V110ZM139.582 101.35C138.366 101.35 137.366 100.958 136.582 100.175C135.816 99.3917 135.432 98.4083 135.432 97.225C135.432 96.0417 135.816 95.0583 136.582 94.275C137.366 93.475 138.366 93.075 139.582 93.075C140.816 93.075 141.816 93.4667 142.582 94.25C143.349 95.0333 143.732 96.025 143.732 97.225C143.732 98.4083 143.349 99.3917 142.582 100.175C141.816 100.958 140.816 101.35 139.582 101.35ZM139.632 110H137.957L148.607 93.325H150.307L139.632 110ZM151.532 109.125C150.766 109.908 149.774 110.3 148.557 110.3C147.341 110.3 146.341 109.908 145.557 109.125C144.791 108.342 144.407 107.358 144.407 106.175C144.407 104.992 144.791 104.008 145.557 103.225C146.341 102.425 147.341 102.025 148.557 102.025C149.774 102.025 150.766 102.425 151.532 103.225C152.316 104.008 152.707 104.992 152.707 106.175C152.707 107.358 152.316 108.342 151.532 109.125ZM139.582 99.675C140.232 99.675 140.766 99.45 141.182 99C141.599 98.5333 141.807 97.9417 141.807 97.225C141.807 96.4917 141.599 95.8917 141.182 95.425C140.766 94.9583 140.232 94.725 139.582 94.725C138.949 94.725 138.424 94.9583 138.007 95.425C137.591 95.8917 137.382 96.4917 137.382 97.225C137.382 97.9417 137.591 98.5333 138.007 99C138.424 99.45 138.949 99.675 139.582 99.675ZM146.957 107.95C147.374 108.4 147.907 108.625 148.557 108.625C149.207 108.625 149.741 108.4 150.157 107.95C150.574 107.483 150.782 106.892 150.782 106.175C150.782 105.442 150.574 104.842 150.157 104.375C149.741 103.908 149.207 103.675 148.557 103.675C147.907 103.675 147.374 103.908 146.957 104.375C146.541 104.842 146.332 105.442 146.332 106.175C146.332 106.892 146.541 107.483 146.957 107.95Z" fill="black"/>
<path d="M168.313 110H166.985V107.296H161.913V106.192L166.489 99.328H168.313V106.128H169.817V107.296H168.313V110ZM166.985 106.128V100.56L163.241 106.128H166.985ZM174.499 110H173.171V101.072L171.459 102.896L170.659 102.08L173.331 99.328H174.499V110ZM180.065 106.656H176.225V105.6H180.065V106.656ZM185.358 110.192C183.715 110.192 182.462 109.621 181.598 108.48L182.414 107.584C183.15 108.533 184.131 109.008 185.358 109.008C186.083 109.008 186.675 108.789 187.134 108.352C187.593 107.915 187.822 107.371 187.822 106.72C187.822 106.027 187.593 105.472 187.134 105.056C186.686 104.629 186.099 104.416 185.374 104.416C184.425 104.416 183.603 104.747 182.91 105.408L181.934 105.072V99.328H188.462V100.512H183.262V104.224C183.923 103.584 184.755 103.264 185.758 103.264C186.707 103.264 187.513 103.568 188.174 104.176C188.835 104.784 189.166 105.616 189.166 106.672C189.166 107.728 188.803 108.581 188.078 109.232C187.363 109.872 186.457 110.192 185.358 110.192ZM194.283 110.176C193.067 110.176 192.081 109.749 191.323 108.896L191.995 107.904C192.614 108.629 193.377 108.992 194.283 108.992C194.966 108.992 195.542 108.779 196.011 108.352C196.481 107.925 196.811 107.408 197.003 106.8C197.195 106.192 197.291 105.525 197.291 104.8C197.291 104.619 197.286 104.48 197.275 104.384C197.009 104.811 196.598 105.195 196.043 105.536C195.489 105.877 194.897 106.048 194.267 106.048C193.254 106.048 192.417 105.755 191.755 105.168C191.094 104.571 190.763 103.728 190.763 102.64C190.763 101.68 191.105 100.859 191.787 100.176C192.47 99.4933 193.377 99.152 194.507 99.152C195.222 99.152 195.851 99.3013 196.395 99.6C196.939 99.8987 197.371 100.309 197.691 100.832C198.011 101.355 198.246 101.936 198.395 102.576C198.555 103.216 198.635 103.915 198.635 104.672C198.635 105.675 198.486 106.581 198.187 107.392C197.889 108.192 197.403 108.859 196.731 109.392C196.059 109.915 195.243 110.176 194.283 110.176ZM194.571 104.896C195.094 104.896 195.595 104.752 196.075 104.464C196.566 104.165 196.955 103.776 197.243 103.296C197.211 102.944 197.137 102.603 197.019 102.272C196.913 101.941 196.758 101.627 196.555 101.328C196.353 101.029 196.075 100.789 195.723 100.608C195.382 100.427 194.993 100.336 194.555 100.336C193.798 100.336 193.201 100.571 192.763 101.04C192.326 101.499 192.107 102.016 192.107 102.592C192.107 103.339 192.337 103.909 192.795 104.304C193.254 104.699 193.846 104.896 194.571 104.896ZM211.573 110H210.373V108.848C209.712 109.744 208.843 110.192 207.765 110.192C206.741 110.192 205.909 109.829 205.269 109.104C204.64 108.368 204.325 107.381 204.325 106.144C204.325 104.917 204.645 103.936 205.285 103.2C205.925 102.453 206.752 102.08 207.765 102.08C208.832 102.08 209.701 102.533 210.373 103.44V102.272H211.573V110ZM208.069 109.12C208.528 109.12 208.971 109.003 209.397 108.768C209.835 108.523 210.16 108.229 210.373 107.888V104.4C210.16 104.048 209.835 103.755 209.397 103.52C208.971 103.275 208.528 103.152 208.069 103.152C207.301 103.152 206.693 103.435 206.245 104C205.797 104.555 205.573 105.269 205.573 106.144C205.573 107.019 205.797 107.733 206.245 108.288C206.693 108.843 207.301 109.12 208.069 109.12ZM220.44 110H219.256V104.944C219.256 104.293 219.107 103.835 218.808 103.568C218.51 103.291 218.078 103.152 217.512 103.152C217.064 103.152 216.632 103.269 216.216 103.504C215.8 103.739 215.47 104.021 215.224 104.352V110H214.024V102.272H215.224V103.392C215.523 103.029 215.923 102.72 216.424 102.464C216.926 102.208 217.448 102.08 217.992 102.08C219.624 102.08 220.44 102.912 220.44 104.576V110ZM218.152 101.136C217.896 101.136 217.667 101.061 217.464 100.912C217.272 100.752 217.123 100.581 217.016 100.4C216.92 100.219 216.798 100.053 216.648 99.904C216.51 99.744 216.355 99.664 216.184 99.664C215.96 99.664 215.774 99.7813 215.624 100.016C215.486 100.24 215.416 100.581 215.416 101.04H214.696C214.696 100.4 214.83 99.8827 215.096 99.488C215.374 99.0933 215.758 98.896 216.248 98.896C216.504 98.896 216.728 98.976 216.92 99.136C217.123 99.2853 217.272 99.4507 217.368 99.632C217.475 99.8133 217.598 99.984 217.736 100.144C217.886 100.293 218.046 100.368 218.216 100.368C218.44 100.368 218.622 100.256 218.76 100.032C218.91 99.7973 218.984 99.4507 218.984 98.992H219.704C219.704 99.632 219.566 100.149 219.288 100.544C219.022 100.939 218.643 101.136 218.152 101.136ZM228.948 109.024C228.255 109.803 227.332 110.192 226.18 110.192C225.028 110.192 224.1 109.803 223.396 109.024C222.703 108.245 222.356 107.28 222.356 106.128C222.356 104.976 222.703 104.016 223.396 103.248C224.1 102.469 225.028 102.08 226.18 102.08C227.332 102.08 228.255 102.469 228.948 103.248C229.652 104.016 230.004 104.976 230.004 106.128C230.004 107.28 229.652 108.245 228.948 109.024ZM224.308 108.256C224.767 108.832 225.391 109.12 226.18 109.12C226.97 109.12 227.594 108.832 228.052 108.256C228.511 107.669 228.74 106.96 228.74 106.128C228.74 105.296 228.511 104.592 228.052 104.016C227.594 103.44 226.97 103.152 226.18 103.152C225.391 103.152 224.767 103.44 224.308 104.016C223.85 104.592 223.62 105.296 223.62 106.128C223.62 106.96 223.85 107.669 224.308 108.256ZM234.425 110.192C233.123 110.192 232.083 109.787 231.305 108.976L231.913 108.112C232.179 108.421 232.542 108.683 233.001 108.896C233.47 109.109 233.955 109.216 234.457 109.216C235.033 109.216 235.481 109.093 235.801 108.848C236.131 108.603 236.297 108.283 236.297 107.888C236.297 107.547 236.131 107.28 235.801 107.088C235.47 106.885 235.07 106.736 234.601 106.64C234.131 106.533 233.662 106.416 233.193 106.288C232.734 106.149 232.339 105.92 232.009 105.6C231.678 105.269 231.513 104.837 231.513 104.304C231.513 103.675 231.769 103.147 232.281 102.72C232.793 102.293 233.491 102.08 234.377 102.08C235.561 102.08 236.515 102.453 237.241 103.2L236.681 104.032C236.137 103.381 235.369 103.056 234.377 103.056C233.854 103.056 233.438 103.173 233.129 103.408C232.819 103.632 232.665 103.92 232.665 104.272C232.665 104.528 232.782 104.741 233.017 104.912C233.251 105.083 233.545 105.205 233.897 105.28C234.259 105.355 234.643 105.451 235.049 105.568C235.465 105.685 235.849 105.819 236.201 105.968C236.563 106.107 236.862 106.341 237.097 106.672C237.331 106.992 237.449 107.387 237.449 107.856C237.449 108.539 237.182 109.099 236.649 109.536C236.126 109.973 235.385 110.192 234.425 110.192Z" fill="#1A1A1A"/>
<line x1="62" y1="99.5" x2="76" y2="99.5" stroke="#41A5B4"/>
<path d="M91.725 144H88.8V131.1L86.075 133.95L84.375 132.175L89.175 127.325H91.725V144ZM101.222 144H98.2971V131.1L95.5721 133.95L93.8721 132.175L98.6721 127.325H101.222V144ZM107.944 143.05C107.944 143.9 107.727 144.7 107.294 145.45C106.877 146.2 106.319 146.825 105.619 147.325L104.419 146.35C104.836 146.1 105.219 145.75 105.569 145.3C105.936 144.85 106.152 144.417 106.219 144C106.119 144.05 105.977 144.075 105.794 144.075C105.377 144.075 105.027 143.925 104.744 143.625C104.461 143.325 104.319 142.942 104.319 142.475C104.319 142.008 104.486 141.608 104.819 141.275C105.152 140.942 105.552 140.775 106.019 140.775C106.552 140.775 107.002 140.983 107.369 141.4C107.752 141.8 107.944 142.35 107.944 143.05ZM114.601 144H111.676V131.1L108.951 133.95L107.251 132.175L112.051 127.325H114.601V144ZM124.098 144H121.173V131.1L118.448 133.95L116.748 132.175L121.548 127.325H124.098V144ZM130.72 135.35C129.503 135.35 128.503 134.958 127.72 134.175C126.953 133.392 126.57 132.408 126.57 131.225C126.57 130.042 126.953 129.058 127.72 128.275C128.503 127.475 129.503 127.075 130.72 127.075C131.953 127.075 132.953 127.467 133.72 128.25C134.487 129.033 134.87 130.025 134.87 131.225C134.87 132.408 134.487 133.392 133.72 134.175C132.953 134.958 131.953 135.35 130.72 135.35ZM130.77 144H129.095L139.745 127.325H141.445L130.77 144ZM142.67 143.125C141.903 143.908 140.912 144.3 139.695 144.3C138.478 144.3 137.478 143.908 136.695 143.125C135.928 142.342 135.545 141.358 135.545 140.175C135.545 138.992 135.928 138.008 136.695 137.225C137.478 136.425 138.478 136.025 139.695 136.025C140.912 136.025 141.903 136.425 142.67 137.225C143.453 138.008 143.845 138.992 143.845 140.175C143.845 141.358 143.453 142.342 142.67 143.125ZM130.72 133.675C131.37 133.675 131.903 133.45 132.32 133C132.737 132.533 132.945 131.942 132.945 131.225C132.945 130.492 132.737 129.892 132.32 129.425C131.903 128.958 131.37 128.725 130.72 128.725C130.087 128.725 129.562 128.958 129.145 129.425C128.728 129.892 128.52 130.492 128.52 131.225C128.52 131.942 128.728 132.533 129.145 133C129.562 133.45 130.087 133.675 130.72 133.675ZM138.095 141.95C138.512 142.4 139.045 142.625 139.695 142.625C140.345 142.625 140.878 142.4 141.295 141.95C141.712 141.483 141.92 140.892 141.92 140.175C141.92 139.442 141.712 138.842 141.295 138.375C140.878 137.908 140.345 137.675 139.695 137.675C139.045 137.675 138.512 137.908 138.095 138.375C137.678 138.842 137.47 139.442 137.47 140.175C137.47 140.892 137.678 141.483 138.095 141.95ZM156.715 144H155.387V135.072L153.675 136.896L152.875 136.08L155.547 133.328H156.715V144ZM165.337 143.408C164.612 143.931 163.705 144.192 162.617 144.192C161.529 144.192 160.617 143.931 159.881 143.408C159.156 142.885 158.793 142.181 158.793 141.296C158.793 140.624 159.033 140.043 159.513 139.552C160.004 139.061 160.612 138.709 161.337 138.496C160.654 138.304 160.089 137.995 159.641 137.568C159.193 137.131 158.969 136.587 158.969 135.936C158.969 135.04 159.332 134.357 160.057 133.888C160.782 133.408 161.636 133.168 162.617 133.168C163.598 133.168 164.452 133.408 165.177 133.888C165.913 134.357 166.281 135.04 166.281 135.936C166.281 136.587 166.052 137.131 165.593 137.568C165.145 137.995 164.58 138.304 163.897 138.496C164.622 138.709 165.225 139.061 165.705 139.552C166.196 140.043 166.441 140.624 166.441 141.296C166.441 142.171 166.073 142.875 165.337 143.408ZM162.617 137.952C162.83 137.92 163.044 137.867 163.257 137.792C163.481 137.717 163.732 137.616 164.009 137.488C164.286 137.349 164.51 137.163 164.681 136.928C164.852 136.683 164.937 136.411 164.937 136.112C164.937 135.579 164.713 135.152 164.265 134.832C163.828 134.512 163.278 134.352 162.617 134.352C161.956 134.352 161.406 134.512 160.969 134.832C160.532 135.141 160.313 135.568 160.313 136.112C160.313 136.411 160.398 136.683 160.569 136.928C160.74 137.163 160.964 137.349 161.241 137.488C161.518 137.616 161.764 137.717 161.977 137.792C162.19 137.867 162.404 137.92 162.617 137.952ZM162.617 143.008C163.3 143.008 163.881 142.837 164.361 142.496C164.852 142.155 165.097 141.707 165.097 141.152C165.097 140.725 164.926 140.352 164.585 140.032C164.254 139.701 163.913 139.472 163.561 139.344C163.22 139.205 162.905 139.12 162.617 139.088C162.329 139.12 162.009 139.205 161.657 139.344C161.316 139.472 160.974 139.701 160.633 140.032C160.302 140.352 160.137 140.725 160.137 141.152C160.137 141.707 160.377 142.155 160.857 142.496C161.337 142.837 161.924 143.008 162.617 143.008ZM171.593 140.656H167.753V139.6H171.593V140.656ZM178.982 144H177.654V141.296H172.582V140.192L177.158 133.328H178.982V140.128H180.486V141.296H178.982V144ZM177.654 140.128V134.56L173.91 140.128H177.654ZM185.888 144.192C185.184 144.192 184.56 144.032 184.016 143.712C183.483 143.381 183.056 142.944 182.736 142.4C182.427 141.856 182.192 141.269 182.032 140.64C181.883 140.011 181.808 139.355 181.808 138.672C181.808 137.989 181.883 137.333 182.032 136.704C182.192 136.075 182.427 135.493 182.736 134.96C183.056 134.416 183.483 133.984 184.016 133.664C184.56 133.333 185.184 133.168 185.888 133.168C186.582 133.168 187.2 133.333 187.744 133.664C188.288 133.984 188.715 134.416 189.024 134.96C189.344 135.493 189.579 136.075 189.728 136.704C189.888 137.333 189.968 137.989 189.968 138.672C189.968 139.355 189.888 140.011 189.728 140.64C189.579 141.269 189.344 141.856 189.024 142.4C188.715 142.944 188.288 143.381 187.744 143.712C187.2 144.032 186.582 144.192 185.888 144.192ZM184.288 142.352C184.715 142.789 185.248 143.008 185.888 143.008C186.528 143.008 187.062 142.789 187.488 142.352C187.915 141.904 188.208 141.371 188.368 140.752C188.528 140.133 188.608 139.44 188.608 138.672C188.608 137.904 188.528 137.211 188.368 136.592C188.208 135.973 187.915 135.445 187.488 135.008C187.062 134.571 186.528 134.352 185.888 134.352C185.248 134.352 184.715 134.571 184.288 135.008C183.862 135.445 183.568 135.973 183.408 136.592C183.248 137.211 183.168 137.904 183.168 138.672C183.168 139.44 183.248 140.133 183.408 140.752C183.568 141.371 183.862 141.904 184.288 142.352ZM202.93 144H201.73V142.848C201.068 143.744 200.199 144.192 199.122 144.192C198.098 144.192 197.266 143.829 196.626 143.104C195.996 142.368 195.682 141.381 195.682 140.144C195.682 138.917 196.002 137.936 196.642 137.2C197.282 136.453 198.108 136.08 199.122 136.08C200.188 136.08 201.058 136.533 201.73 137.44V136.272H202.93V144ZM199.426 143.12C199.884 143.12 200.327 143.003 200.754 142.768C201.191 142.523 201.516 142.229 201.73 141.888V138.4C201.516 138.048 201.191 137.755 200.754 137.52C200.327 137.275 199.884 137.152 199.426 137.152C198.658 137.152 198.05 137.435 197.602 138C197.154 138.555 196.93 139.269 196.93 140.144C196.93 141.019 197.154 141.733 197.602 142.288C198.05 142.843 198.658 143.12 199.426 143.12ZM211.797 144H210.613V138.944C210.613 138.293 210.463 137.835 210.165 137.568C209.866 137.291 209.434 137.152 208.869 137.152C208.421 137.152 207.989 137.269 207.573 137.504C207.157 137.739 206.826 138.021 206.581 138.352V144H205.381V136.272H206.581V137.392C206.879 137.029 207.279 136.72 207.781 136.464C208.282 136.208 208.805 136.08 209.349 136.08C210.981 136.08 211.797 136.912 211.797 138.576V144ZM209.509 135.136C209.253 135.136 209.023 135.061 208.821 134.912C208.629 134.752 208.479 134.581 208.373 134.4C208.277 134.219 208.154 134.053 208.005 133.904C207.866 133.744 207.711 133.664 207.541 133.664C207.317 133.664 207.13 133.781 206.981 134.016C206.842 134.24 206.773 134.581 206.773 135.04H206.053C206.053 134.4 206.186 133.883 206.453 133.488C206.73 133.093 207.114 132.896 207.605 132.896C207.861 132.896 208.085 132.976 208.277 133.136C208.479 133.285 208.629 133.451 208.725 133.632C208.831 133.813 208.954 133.984 209.093 134.144C209.242 134.293 209.402 134.368 209.573 134.368C209.797 134.368 209.978 134.256 210.117 134.032C210.266 133.797 210.341 133.451 210.341 132.992H211.061C211.061 133.632 210.922 134.149 210.645 134.544C210.378 134.939 209.999 135.136 209.509 135.136ZM220.305 143.024C219.612 143.803 218.689 144.192 217.537 144.192C216.385 144.192 215.457 143.803 214.753 143.024C214.06 142.245 213.713 141.28 213.713 140.128C213.713 138.976 214.06 138.016 214.753 137.248C215.457 136.469 216.385 136.08 217.537 136.08C218.689 136.08 219.612 136.469 220.305 137.248C221.009 138.016 221.361 138.976 221.361 140.128C221.361 141.28 221.009 142.245 220.305 143.024ZM215.665 142.256C216.124 142.832 216.748 143.12 217.537 143.12C218.326 143.12 218.95 142.832 219.409 142.256C219.868 141.669 220.097 140.96 220.097 140.128C220.097 139.296 219.868 138.592 219.409 138.016C218.95 137.44 218.326 137.152 217.537 137.152C216.748 137.152 216.124 137.44 215.665 138.016C215.206 138.592 214.977 139.296 214.977 140.128C214.977 140.96 215.206 141.669 215.665 142.256ZM225.781 144.192C224.48 144.192 223.44 143.787 222.661 142.976L223.269 142.112C223.536 142.421 223.899 142.683 224.357 142.896C224.827 143.109 225.312 143.216 225.813 143.216C226.389 143.216 226.837 143.093 227.157 142.848C227.488 142.603 227.653 142.283 227.653 141.888C227.653 141.547 227.488 141.28 227.157 141.088C226.827 140.885 226.427 140.736 225.957 140.64C225.488 140.533 225.019 140.416 224.549 140.288C224.091 140.149 223.696 139.92 223.365 139.6C223.035 139.269 222.869 138.837 222.869 138.304C222.869 137.675 223.125 137.147 223.637 136.72C224.149 136.293 224.848 136.08 225.733 136.08C226.917 136.08 227.872 136.453 228.597 137.2L228.037 138.032C227.493 137.381 226.725 137.056 225.733 137.056C225.211 137.056 224.795 137.173 224.485 137.408C224.176 137.632 224.021 137.92 224.021 138.272C224.021 138.528 224.139 138.741 224.373 138.912C224.608 139.083 224.901 139.205 225.253 139.28C225.616 139.355 226 139.451 226.405 139.568C226.821 139.685 227.205 139.819 227.557 139.968C227.92 140.107 228.219 140.341 228.453 140.672C228.688 140.992 228.805 141.387 228.805 141.856C228.805 142.539 228.539 143.099 228.005 143.536C227.483 143.973 226.741 144.192 225.781 144.192Z" fill="#1A1A1A"/>
<line x1="62" y1="133.5" x2="76" y2="133.5" stroke="#698F3F"/>
</svg>
