<svg width="1206" height="270" viewBox="0 0 1206 270" fill="none" xmlns="http://www.w3.org/2000/svg">
<rect width="1206" height="270" rx="20" fill="#1C5253"/>
<mask id="mask0_1798_1043" style="mask-type:alpha" maskUnits="userSpaceOnUse" x="0" y="0" width="1206" height="270">
<path d="M0 20C0 8.95431 8.95431 0 20 0H1186C1197.05 0 1206 8.95431 1206 20V250C1206 261.046 1197.05 270 1186 270H20C8.9543 270 0 261.046 0 250V20Z" fill="#41A5B4"/>
</mask>
<g mask="url(#mask0_1798_1043)">
<ellipse opacity="0.1" cx="0.000434875" cy="310.149" rx="97.1157" ry="97.4767" fill="#FAFAFA"/>
<path opacity="0.2" fill-rule="evenodd" clip-rule="evenodd" d="M1193.57 417.04C1280.84 422.932 1327.94 281.933 1367.88 177.25C1396.95 101.027 1396.97 15.1216 1378.1 -66.7199C1361.26 -139.774 1322.42 -194.615 1273.3 -233.001C1217.44 -276.652 1162.15 -300.296 1093.88 -288.821C1015.14 -275.587 941.643 -194.104 929.135 -91.2845C917.009 8.39697 996.846 72.3821 1039.88 155.106C1089.76 250.994 1106.75 411.179 1193.57 417.04Z" fill="#FAFAFA"/>
</g>
</svg>
