<svg width="60" height="60" viewBox="0 0 60 60" fill="none" xmlns="http://www.w3.org/2000/svg">
<circle opacity="0.1" cx="30" cy="30" r="30" fill="#1C5253"/>
<path d="M30.3545 51L31.3208 50.3679C32.134 49.8364 51.2343 37.2143 51.2343 25.8322C51.2343 17.7356 45.4809 13.5 39.7999 13.5C36.1683 13.5 32.7662 15.195 30.3545 18.1261C27.9549 15.1991 24.5487 13.5 20.909 13.5C15.228 13.5 9.47461 17.7356 9.47461 25.8322C9.47461 37.2143 28.5749 49.8364 29.3882 50.3679L30.3545 51Z" fill="#B6174B"/>
<g opacity="0.2">
<path d="M19.9669 13.5449C19.363 13.7342 18.7953 14.016 18.2799 14.4267C17.366 15.1594 16.7499 16.2062 16.3151 17.2933C14.7167 21.2792 15.3327 25.8691 16.9593 29.843C18.5859 33.8168 21.1425 37.3277 23.5301 40.8989C25.7566 44.2245 27.8623 47.6388 30.1894 50.8879L29.3882 50.3645C28.5749 49.833 9.47461 37.2109 9.47461 25.8288C9.47461 18.1831 14.608 13.9878 19.9669 13.5449Z" fill="white"/>
</g>
<path d="M8.25 34.2032H30.3538L33.2285 23.1111L34.7947 43.6366L37.7097 26.6984L39.61 38.008L42.2995 20.7598L43.9785 34.4247H51.8215" stroke="white" stroke-width="2.02" stroke-linecap="round" stroke-linejoin="round"/>
</svg>
