<svg width="60" height="60" viewBox="0 0 60 60" fill="none" xmlns="http://www.w3.org/2000/svg">
<circle opacity="0.1" cx="30" cy="30" r="30" fill="#1C5253"/>
<path opacity="0.4" d="M43.7667 31.3054C44.1809 32.5785 39.4382 35.2646 33.1707 37.3072C26.9031 39.3497 21.4862 39.9709 21.0721 38.6978C20.6579 37.4247 25.4006 34.7386 31.6681 32.696C37.9357 30.6535 43.3526 30.0323 43.7667 31.3054Z" fill="#1A1A1A"/>
<path d="M31.6698 32.703C37.9374 30.6605 43.3543 30.0393 43.7684 31.3124L40.9956 22.8009C40.5815 21.5278 35.1645 22.1517 28.897 24.1915C22.6294 26.234 17.884 28.9201 18.3009 30.1932L21.0737 38.7048C20.6596 37.4317 25.4022 34.7456 31.6698 32.703Z" fill="#1A1A1A"/>
<path d="M53.4655 19.0294L26.3891 16.5L16.1932 25.4956L6 34.494L7.00449 34.6311L7.04926 34.592L20.13 35.8147L18.2973 30.1935C17.8832 28.9204 22.6258 26.2343 28.8934 24.1917C35.1609 22.1492 40.5779 21.528 40.992 22.8011L42.8247 28.4223L52.6765 19.7289L52.7352 19.7345L53.4655 19.0322V19.0294Z" fill="#1A1A1A"/>
<path opacity="0.2" d="M40.8939 22.6236C40.8659 22.59 40.8352 22.5592 40.8016 22.5312C40.7904 22.5228 40.7792 22.5117 40.768 22.5033C40.7204 22.4669 40.6645 22.4333 40.6029 22.4025C40.5917 22.3969 40.5777 22.3913 40.5666 22.3857C40.5134 22.3606 40.4546 22.3382 40.3903 22.3186C40.3679 22.3102 40.3455 22.3046 40.3231 22.2962C40.256 22.2766 40.1832 22.257 40.1077 22.2402C40.0937 22.2374 40.0797 22.2346 40.0657 22.2319C39.9734 22.2123 39.8754 22.1983 39.7691 22.1843C39.7439 22.1815 39.716 22.1787 39.6908 22.1759C39.6068 22.1675 39.5173 22.1591 39.4278 22.1535C39.397 22.1535 39.3662 22.1479 39.3354 22.1479C39.2151 22.1423 39.092 22.1367 38.9605 22.1367C38.829 22.1367 38.6919 22.1367 38.552 22.1423C38.5156 22.1423 38.4792 22.1423 38.4401 22.1451C38.3226 22.1507 38.2022 22.1563 38.0791 22.1647C38.0483 22.1647 38.0176 22.1675 37.9868 22.1703C37.8301 22.1815 37.6706 22.1955 37.5055 22.2095C37.4803 22.2095 37.4552 22.2151 37.43 22.2179C37.2873 22.2319 37.1418 22.2486 36.9935 22.2654C36.9487 22.271 36.9068 22.2766 36.862 22.2822C36.7025 22.3018 36.5374 22.3242 36.3695 22.3494C36.3527 22.3494 36.3388 22.355 36.3248 22.355C36.1373 22.3829 35.947 22.4137 35.754 22.4473C35.712 22.4529 35.6728 22.4613 35.6309 22.4697C35.4714 22.4977 35.3091 22.5256 35.144 22.5564C35.0992 22.5648 35.0545 22.5732 35.0097 22.5816C34.8054 22.6208 34.5984 22.6627 34.3857 22.7047L37.1586 31.2163C40.8324 30.4496 43.4933 30.4272 43.7787 31.303L41.0058 22.7915C40.9891 22.7411 40.9639 22.6963 40.9331 22.6544C40.9247 22.6432 40.9135 22.6292 40.9051 22.618L40.8939 22.6236Z" fill="#FAFAFA"/>
<path d="M17.2085 44.25C16.8166 44.25 16.4975 43.9437 16.5 43.5705L16.5779 24.6747C16.5779 24.3015 16.8995 23.9976 17.2915 24C17.6834 24 18.0025 24.3063 18 24.6795L17.9221 43.5753C17.9221 43.9485 17.6005 44.2524 17.2085 44.25Z" fill="#FAFAFA"/>
<path d="M17.8449 50.1472L16.1465 50.1416C15.3295 50.1388 14.7755 49.305 15.0889 48.5495L16.597 44.9121H17.4308L18.911 48.5635C19.2187 49.3218 18.6591 50.15 17.8421 50.1472H17.8449Z" fill="#FAFAFA"/>
<path d="M18.6719 45.162C18.6691 46.077 17.9248 46.8129 17.0099 46.8101C16.0949 46.8073 15.359 46.063 15.3618 45.148C15.3646 44.2331 16.1089 43.4972 17.0238 43.5C17.9388 43.5028 18.6747 44.2471 18.6719 45.162Z" fill="#1A1A1A"/>
</svg>
