<svg width="60" height="60" viewBox="0 0 60 60" fill="none" xmlns="http://www.w3.org/2000/svg">
<circle opacity="0.1" cx="30" cy="30" r="30" fill="#1C5253"/>
<path d="M50.3018 31.6047L49.5405 26.136C49.4883 25.7602 49.2515 25.4353 48.9094 25.2706L46.9999 24.3509C46.8074 24.2582 46.6578 24.0964 46.5769 23.8984C44.1817 18.0117 37.8822 13.8086 30.4872 13.8086C23.0921 13.8086 17.3719 17.6359 14.7504 23.1017C14.7374 23.1038 14.7235 23.1054 14.7087 23.1067C14.659 23.1105 14.5996 23.1075 14.5334 23.0945C14.4677 23.0818 14.3974 23.0629 14.3245 23.0359C14.2516 23.0085 14.1766 22.9757 14.1012 22.9378C13.9503 22.8602 13.7987 22.7659 13.6516 22.6588C13.5779 22.6058 13.5054 22.5493 13.4346 22.4912C13.4047 22.4667 13.3752 22.4414 13.3462 22.4162C13.3778 22.3879 13.4094 22.3589 13.4401 22.3298C13.5383 22.2363 13.6289 22.1356 13.7148 22.0319C13.8012 21.9283 13.8812 21.82 13.9567 21.7092C14.0321 21.598 14.1033 21.4846 14.169 21.3683C14.1859 21.3397 14.2014 21.3102 14.2179 21.2811C14.2339 21.2521 14.2499 21.223 14.2655 21.1914C14.2975 21.1303 14.327 21.0671 14.3548 21.0035C14.4104 20.8758 14.4576 20.7423 14.4917 20.6015C14.5259 20.4608 14.5482 20.3125 14.5461 20.1562C14.544 20.0003 14.5162 19.8335 14.445 19.6751C14.3746 19.5171 14.2625 19.373 14.1231 19.266C13.9849 19.1589 13.8286 19.0869 13.6655 19.0473C13.5025 19.0077 13.331 18.9976 13.157 19.0245C12.9838 19.0511 12.8052 19.1214 12.6527 19.2449C12.6341 19.2601 12.6139 19.2765 12.5975 19.2912L12.557 19.3308C12.5301 19.3574 12.5027 19.3835 12.4766 19.4113C12.4264 19.4686 12.3746 19.5246 12.3299 19.5874C12.2819 19.6477 12.2423 19.7134 12.2002 19.7783C12.1631 19.8457 12.1239 19.9123 12.0936 19.9826C12.0287 20.1221 11.9781 20.2679 11.9436 20.4157C11.8715 20.7119 11.8576 21.0136 11.8812 21.3068C11.9065 21.6005 11.9693 21.887 12.0691 22.1663C12.1197 22.3062 12.1795 22.444 12.2566 22.5826C12.2693 22.6049 12.2823 22.6272 12.2958 22.65C12.1846 22.6736 12.07 22.6875 11.9562 22.69C11.8357 22.693 11.7148 22.6833 11.5956 22.6618C11.5358 22.6525 11.4772 22.6361 11.4182 22.6213C11.3605 22.6024 11.3015 22.5855 11.2455 22.5611C11.0171 22.4722 10.8077 22.3319 10.6211 22.1655C10.434 21.9982 10.2705 21.8023 10.1277 21.5921C9.98488 21.3814 9.86185 21.1564 9.75146 20.9247C9.84373 21.164 9.94949 21.3991 10.0776 21.6232C10.2056 21.8474 10.3569 22.061 10.5385 22.2506C10.7201 22.4393 10.9307 22.6066 11.173 22.7233C11.2324 22.7549 11.2956 22.7781 11.3575 22.8042C11.4212 22.8257 11.4848 22.8484 11.5509 22.8644C11.682 22.8986 11.8168 22.9196 11.9524 22.9272C12.0881 22.9344 12.225 22.9285 12.3603 22.9091C12.3965 22.9036 12.4327 22.8973 12.469 22.8906C12.4732 22.8952 12.4774 22.8998 12.482 22.9049C12.5006 22.9243 12.5174 22.9428 12.5381 22.9626C12.5436 22.9677 12.5495 22.9723 12.5549 22.9769L12.6101 23.0363L12.6687 23.0974C12.7079 23.1375 12.7475 23.1766 12.7875 23.215C12.8675 23.2917 12.9497 23.3662 13.0348 23.4387C13.205 23.5836 13.387 23.7197 13.588 23.8436C13.7902 23.9658 14.0114 24.0778 14.2739 24.1512C14.2811 24.1533 14.2887 24.155 14.2958 24.1566C13.6925 25.7261 13.3643 27.4101 13.3643 29.1632C13.3643 33.108 15.0239 36.7057 17.7506 39.4249C18.7011 40.3728 19.409 41.5361 19.7915 42.8228L20.7243 45.9578C20.8204 46.2802 21.1166 46.5013 21.4532 46.5013H27.4747C27.8067 46.5013 28.1088 46.308 28.2474 46.0059L28.7509 44.9104C28.8752 44.6404 29.1511 44.4727 29.4478 44.4887C29.7916 44.5072 30.1383 44.5165 30.4872 44.5165C30.8166 44.5165 31.144 44.5077 31.4688 44.4912C31.7654 44.4761 32.041 44.6433 32.1648 44.913L32.6262 45.917C32.7897 46.273 33.1461 46.5013 33.5379 46.5013H39.2801C39.7242 46.5013 40.1152 46.2098 40.242 45.7843L41.3172 42.1714C41.578 41.2955 42.0684 40.5043 42.7417 39.8858C44.2588 38.4921 45.4832 36.8405 46.3242 35.0115C46.5373 34.5477 46.9094 34.1752 47.3732 33.9629L49.5586 32.9618C50.0785 32.7238 50.3806 32.1727 50.3018 31.6064V31.6047ZM13.0934 22.1802C13.0904 22.176 13.0871 22.1718 13.0837 22.1676C13.0698 22.1507 13.0563 22.1301 13.0428 22.1103C12.9885 22.0294 12.9375 21.935 12.8928 21.8368C12.8039 21.6392 12.739 21.4252 12.7032 21.2099C12.6316 20.7785 12.6872 20.3424 12.9097 19.9957C12.9358 19.951 12.9687 19.911 12.999 19.8689C13.015 19.8486 13.0331 19.8293 13.05 19.8095L13.0757 19.7795L13.093 19.7627C13.1355 19.7193 13.1991 19.6822 13.2779 19.6633C13.4338 19.6228 13.6369 19.6519 13.7734 19.7429C13.8412 19.7863 13.8968 19.8457 13.9377 19.9182C13.9781 19.9906 14.0038 20.0799 14.0131 20.1794C14.0317 20.3795 13.9895 20.61 13.9128 20.8303C13.8935 20.8855 13.8728 20.9407 13.8496 20.995C13.8387 21.022 13.8261 21.0502 13.8134 21.0781C13.8008 21.1059 13.7886 21.1345 13.7747 21.1619C13.7228 21.2735 13.6655 21.3818 13.6049 21.4884C13.5446 21.595 13.4793 21.6982 13.4089 21.7972C13.3386 21.8967 13.2644 21.9932 13.1835 22.0829C13.154 22.1158 13.1237 22.1482 13.093 22.1798L13.0934 22.1802Z" fill="#FAAA8D"/>
<path d="M44.8147 24.8607C44.9032 25.3865 44.8193 25.839 44.628 25.8714C44.4363 25.9034 44.2097 25.5036 44.1212 24.9774C44.0327 24.4516 44.1166 23.9991 44.3078 23.9666C44.4995 23.9346 44.7262 24.3349 44.8147 24.8607Z" fill="#1A1A1A"/>
<path d="M37.1006 16.0811C37.5599 15.6025 40.3574 12.9178 45.4659 12.7502C45.6517 12.7438 45.7773 12.9381 45.6968 13.1057C45.0952 14.3592 43.1348 18.5859 42.5639 21.5844C42.5407 21.7062 42.4324 21.7921 42.3086 21.787C41.2835 21.742 36.9923 21.2549 37.0315 16.2496C37.0319 16.1869 37.0572 16.1266 37.1006 16.0811Z" fill="#FAAA8D"/>
<path d="M40.2626 17.8974C40.2626 17.7887 40.2673 17.6813 40.2761 17.5755C40.3604 16.5425 40.8322 15.5823 41.5696 14.8538C42.432 14.0015 43.7474 13.1095 45.6218 12.799C45.5793 12.767 45.5258 12.7481 45.4659 12.7502C40.357 12.9178 37.5594 15.6029 37.1002 16.0811C37.0568 16.1262 37.0319 16.1869 37.0315 16.2496C36.9923 21.2549 41.2835 21.7424 42.3085 21.7871C42.4324 21.7925 42.5407 21.7062 42.5639 21.5844C42.5795 21.5031 42.5959 21.4209 42.6136 21.3379C41.2321 20.8972 40.4316 20.2846 40.2626 17.8974Z" fill="#FED0D0"/>
<path opacity="0.2" d="M46.9205 34.2418C46.9205 34.2418 44.9075 34.6783 39.0777 35.4316C30.5737 36.5308 23.871 31.1109 25.0313 23.477C25.6839 19.1842 28.1364 15.8162 30.7461 13.8107C30.6597 13.8094 30.5729 13.8086 30.4861 13.8086C23.4298 13.8086 17.3704 17.6359 14.749 23.1017C14.7359 23.1038 14.722 23.1054 14.7073 23.1067C14.6575 23.1105 14.5981 23.1075 14.532 23.0945C14.4663 23.0818 14.3959 23.0629 14.323 23.0359C14.2501 23.0085 14.1751 22.9757 14.0997 22.9378C13.9489 22.8602 13.7972 22.7659 13.6502 22.6588C13.5764 22.6058 13.504 22.5493 13.4332 22.4912C13.4033 22.4667 13.3738 22.4414 13.3447 22.4162C13.3763 22.3879 13.4079 22.3589 13.4387 22.3298C13.5368 22.2363 13.6274 22.1356 13.7134 22.0319C13.7997 21.9283 13.8798 21.82 13.9552 21.7092C14.0306 21.598 14.1018 21.4846 14.1675 21.3683C14.1844 21.3397 14.2 21.3102 14.2164 21.2811C14.2324 21.2521 14.2484 21.223 14.264 21.1914C14.296 21.1303 14.3255 21.0671 14.3533 21.0035C14.409 20.8758 14.4561 20.7423 14.4903 20.6015C14.5244 20.4608 14.5467 20.3125 14.5446 20.1562C14.5425 20.0003 14.5147 19.8335 14.4435 19.6751C14.3731 19.5171 14.2611 19.373 14.1216 19.266C13.9834 19.1589 13.8271 19.0869 13.6641 19.0473C13.501 19.0077 13.3295 18.9976 13.1555 19.0245C12.9824 19.0511 12.8037 19.1214 12.6512 19.2449C12.6327 19.2601 12.6124 19.2765 12.596 19.2912L12.5556 19.3308C12.5286 19.3574 12.5012 19.3835 12.4751 19.4113C12.425 19.4686 12.3731 19.5246 12.3285 19.5874C12.2804 19.6477 12.2408 19.7134 12.1987 19.7783C12.1616 19.8457 12.1225 19.9123 12.0921 19.9826C12.0272 20.1221 11.9767 20.2679 11.9421 20.4157C11.8701 20.7119 11.8562 21.0136 11.8798 21.3068C11.9051 21.6005 11.9678 21.887 12.0677 22.1663C12.1182 22.3062 12.1781 22.444 12.2552 22.5826C12.2678 22.6049 12.2809 22.6272 12.2944 22.65C12.1831 22.6736 12.0685 22.6875 11.9548 22.69C11.8343 22.693 11.7134 22.6833 11.5941 22.6618C11.5343 22.6525 11.4757 22.6361 11.4167 22.6213C11.359 22.6024 11.3 22.5855 11.244 22.5611C11.0156 22.4722 10.8062 22.3319 10.6196 22.1655C10.4325 21.9982 10.2691 21.8023 10.1262 21.5921C9.98341 21.3814 9.86039 21.1564 9.75 20.9247C9.84227 21.164 9.94802 21.3991 10.0761 21.6232C10.2042 21.8474 10.3554 22.061 10.537 22.2506C10.7186 22.4393 10.9293 22.6066 11.1715 22.7233C11.2309 22.7549 11.2941 22.7781 11.3561 22.8042C11.4197 22.8257 11.4833 22.8484 11.5495 22.8644C11.6805 22.8986 11.8153 22.9196 11.951 22.9272C12.0866 22.9344 12.2236 22.9285 12.3588 22.9091C12.395 22.9036 12.4313 22.8973 12.4675 22.8906C12.4717 22.8952 12.4759 22.8998 12.4806 22.9049C12.4991 22.9243 12.516 22.9428 12.5366 22.9626C12.5421 22.9677 12.548 22.9723 12.5535 22.9769L12.6087 23.0363L12.6672 23.0974C12.7064 23.1375 12.746 23.1766 12.786 23.215C12.8661 23.2917 12.9482 23.3662 13.0333 23.4387C13.2036 23.5836 13.3856 23.7197 13.5865 23.8436C13.7888 23.9658 14.01 24.0778 14.2724 24.1512C14.2796 24.1533 14.2872 24.155 14.2944 24.1566C13.691 25.7261 13.3628 27.4101 13.3628 29.1632C13.3628 33.108 15.0224 36.7057 17.7492 39.4249C18.6997 40.3728 19.4075 41.5361 19.7901 42.8228L20.7229 45.9578C20.8189 46.2802 21.1151 46.5013 21.4517 46.5013H27.4733C27.8053 46.5013 28.1073 46.308 28.246 46.0059L28.7494 44.9104C28.8737 44.6404 29.1497 44.4727 29.4463 44.4887C29.7901 44.5072 30.1368 44.5165 30.4857 44.5165C30.8152 44.5165 31.1425 44.5077 31.4674 44.4912C31.764 44.4761 32.0395 44.6433 32.1634 44.913L32.6247 45.917C32.7882 46.273 33.1446 46.5013 33.5365 46.5013H39.2786C39.7227 46.5013 40.1137 46.2098 40.2405 45.7843L41.3157 42.1714C41.5765 41.2955 42.0669 40.5043 42.7402 39.8858C44.2574 38.4921 45.4817 36.8405 46.3227 35.0115C46.4613 34.7103 46.6665 34.4482 46.9205 34.243H46.9197L46.9205 34.2418ZM13.0928 22.1802C13.0898 22.176 13.0864 22.1718 13.0831 22.1676C13.0692 22.1507 13.0557 22.1301 13.0422 22.1103C12.9878 22.0294 12.9369 21.935 12.8922 21.8368C12.8033 21.6392 12.7384 21.4252 12.7026 21.2099C12.631 20.7785 12.6866 20.3424 12.9091 19.9957C12.9352 19.951 12.968 19.911 12.9984 19.8689C13.0144 19.8486 13.0325 19.8293 13.0494 19.8095L13.0751 19.7795L13.0923 19.7627C13.1349 19.7193 13.1985 19.6822 13.2773 19.6633C13.4332 19.6228 13.6363 19.6519 13.7728 19.7429C13.8406 19.7863 13.8962 19.8457 13.9371 19.9182C13.9775 19.9906 14.0032 20.0799 14.0125 20.1794C14.031 20.3795 13.9889 20.61 13.9122 20.8303C13.8928 20.8855 13.8722 20.9407 13.849 20.995C13.8381 21.022 13.8254 21.0502 13.8128 21.0781C13.8001 21.1059 13.7879 21.1345 13.774 21.1619C13.7222 21.2735 13.6649 21.3818 13.6042 21.4884C13.544 21.595 13.4787 21.6982 13.4083 21.7972C13.338 21.8967 13.2638 21.9932 13.1829 22.0829C13.1534 22.1158 13.1231 22.1482 13.0923 22.1798L13.0928 22.1802Z" fill="#FAFAFA"/>
<path opacity="0.4" d="M22.9919 17.8094C23.4966 18.5943 22.7631 19.9653 21.3538 20.8711C19.9445 21.7769 18.3932 21.8751 17.8884 21.0902C17.3837 20.3053 18.1172 18.9343 19.5265 18.0284C20.9358 17.1226 22.4871 17.0244 22.9919 17.8094Z" fill="white"/>
<path d="M34.661 16.0692C29.6941 14.4454 25.322 16.0464 25.2782 16.0629L24.9551 15.4338C25.0031 15.4157 26.1542 14.9889 27.9629 14.7732C29.6288 14.5747 32.1929 14.5267 34.9475 15.4275L34.6606 16.0692H34.661Z" fill="#1A1A1A"/>
</svg>
