<svg width="342" height="214" viewBox="0 0 342 214" fill="none" xmlns="http://www.w3.org/2000/svg">
<ellipse cx="202.923" cy="62.2386" rx="25.181" ry="24.2308" fill="#41A5B4"/>
<circle cx="117.827" cy="156.786" r="8.55204" fill="#698F3F"/>
<circle cx="30" cy="170.633" r="30" fill="#FAAA8D"/>
<circle cx="82" cy="65" r="65" fill="#FAFAFA"/>
<mask id="mask0_1795_959" style="mask-type:alpha" maskUnits="userSpaceOnUse" x="17" y="0" width="130" height="130">
<circle cx="82" cy="65" r="65" fill="#D9D9D9"/>
</mask>
<g mask="url(#mask0_1795_959)">
<path d="M59.3727 86.8672C59.3727 86.8672 54.3994 86.9885 37.5387 96.3286C20.6779 105.669 17.0389 108.072 13.6425 113.845C10.2461 119.617 -3.33959 159.89 -5.523 181.36C-7.70641 202.83 -8.07031 216.36 -8.07031 216.36H176.792L166.098 126.078L161.144 116.646L148.771 106.457L127.847 91.1734L116.624 86.8672H97.643L72.3519 89.3538L59.3727 86.8672Z" fill="#41A5B4"/>
<path d="M159.687 98.9953C159.687 98.9953 162.719 104.696 164.114 106.395C165.509 108.093 172.605 115.856 171.423 119.495C170.24 123.134 169.553 129.078 166.783 129.29C166.783 129.29 165.388 129.381 164.923 129.037C164.923 129.037 162.74 130.595 160.657 129.29C160.657 129.29 158.272 130.594 156.452 128.128C156.452 128.128 152.773 128.552 152.429 125.661C152.429 125.661 149.397 125.904 149.235 123.175C149.235 123.175 149.012 121.699 148.406 121.011C147.799 120.324 145.656 117.312 145.07 115.189C144.484 113.066 140.602 108.982 140.299 108.659C139.996 108.335 143.23 101.664 147.375 100.067C151.519 98.4697 158.15 96.6501 159.687 98.9953Z" fill="#EF9A7F"/>
<path d="M63.3751 70.3682C63.3751 70.3682 66.4076 80.4361 59.1296 85.8946C51.8516 91.3531 73.6857 118.56 100.978 96.6474L116.02 73.6433C116.02 73.6433 124.632 54.2352 118.324 33.3715C112.017 12.5078 73.5643 32.6437 73.5643 32.6437L58.887 46.1081L59.1296 59.5724L63.3751 70.3682Z" fill="#964530"/>
<path d="M164.116 106.395C163.821 106.036 163.453 105.498 163.055 104.872C162.346 104.639 162.172 104.687 161.568 104.621C160.717 104.529 160.132 104.321 159.573 104.214C158.703 104.047 158.441 103.999 157.624 103.653C155.988 102.96 154.594 101.562 152.821 101.452C151.441 101.366 150.154 102.092 148.987 102.833C146.321 104.523 143.782 106.415 141.4 108.487C141.17 108.687 140.921 108.896 140.652 109.036C141.688 110.156 144.574 113.383 145.072 115.19C145.659 117.313 147.801 120.325 148.408 121.013C149.014 121.7 149.237 123.176 149.237 123.176C149.399 125.905 152.431 125.663 152.431 125.663C152.775 128.554 156.454 128.129 156.454 128.129C158.274 130.596 160.659 129.292 160.659 129.292C162.742 130.596 164.925 129.039 164.925 129.039C165.39 129.383 166.785 129.292 166.785 129.292C169.555 129.079 170.242 123.136 171.425 119.497C172.607 115.858 165.511 108.094 164.116 106.396L164.116 106.395Z" fill="#FAAA8D"/>
<path d="M84.0408 104.731C81.288 104.847 78.5419 104.567 75.8766 103.782C74.0184 103.235 72.2351 102.451 70.5192 101.552C69.0417 100.777 67.5861 99.894 66.4708 98.6532C65.4844 97.5564 64.8021 96.2204 64.247 94.8541C63.424 92.8291 62.8562 90.5757 63.4341 88.4673C63.9867 86.4507 65.5113 84.8367 66.2459 82.8791C67.2323 80.2492 66.7193 77.2074 67.8691 74.6441C68.3729 73.5212 69.1697 72.5567 69.7821 71.4895C70.9539 69.4459 71.8544 67.5287 71.53 65.1953C68.5017 65.7319 65.4027 67.0679 62.8326 68.9918L63.3751 70.3725C63.3751 70.3725 66.4076 80.4404 59.1296 85.8989C53.4495 90.1588 65.5012 107.665 84.0408 104.731Z" fill="#560700"/>
<path d="M119.357 37.3481C119.026 34.0906 114.666 32.2071 112.382 32.1111C110.795 32.0445 109.259 32.6047 107.7 32.9054C105.896 33.2533 104.026 33.2542 102.223 32.908C99.2533 32.3377 96.5274 30.8551 93.5766 30.1989C90.625 29.5427 87.0795 29.9605 85.3088 32.4118C82.529 36.2614 85.9499 41.8042 84.5456 46.3403C83.7917 48.7764 81.7355 46.545 80.6724 48.8632C79.5951 51.2134 79.6127 53.9022 79.713 56.4857C79.8107 59.0027 79.9699 61.5357 80.5933 63.9769C81.6479 68.107 84.0537 71.8808 87.3532 74.5797C89.6714 76.4759 93.2481 77.7731 95.5073 75.8087C96.2747 75.1416 96.7405 74.2032 97.3437 73.3844C100.209 69.4977 105.81 68.7775 110.556 69.6679C112.513 70.0352 114.566 70.7065 115.764 72.2969C116.496 73.2682 116.825 74.4803 117.06 75.674C117.923 80.0458 117.699 84.7049 115.909 88.7862C114.12 92.8675 110.668 96.3009 106.4 97.5813C102.872 98.6393 99.02 98.1962 95.557 96.9428C92.0932 95.6894 88.963 93.6685 85.96 91.5365C83.3689 89.6968 80.7862 87.6979 79.1183 84.993C77.7124 82.7136 77.0376 80.0576 76.6156 77.4134C75.3538 69.5095 76.1574 61.2746 73.8602 53.6074C73.0086 50.7661 71.3955 47.7437 68.5306 46.9754C65.8283 46.2502 62.8623 47.9888 61.6418 50.5066C60.4212 53.0245 60.7126 56.0721 61.8212 58.6413C63.1858 61.807 66.2436 64.6171 69.6728 64.2633C70.212 64.2077 70.8311 64.0999 71.2321 64.4638C71.7013 64.89 71.5412 65.6549 71.3037 66.2428C70.0266 69.4085 67.5375 72.0678 64.4628 73.5512C64.2463 73.6557 64.0012 73.7559 63.7729 73.6801C63.5312 73.6001 63.3947 73.3507 63.2818 73.1233C60.8567 68.2384 58.4307 63.3527 56.0055 58.4678C55.0587 56.5607 54.1026 54.6283 53.6553 52.546C52.0523 45.081 57.1882 41.9516 58.1619 34.3787C58.5469 31.3824 58.386 28.0164 60.3984 25.7639C62.0621 23.9014 64.7181 23.3926 66.9975 22.37C70.794 20.6667 73.7398 17.3908 77.5987 15.8332C79.8941 14.9066 82.3942 14.6388 84.8607 14.4383C89.2477 14.0803 93.6499 13.9118 98.0513 13.9312C100.625 13.9421 103.223 14.0205 105.719 14.6438C110.398 15.8113 114.549 18.955 116.941 23.1424C119.334 27.329 120.726 32.7243 119.356 37.3481H119.357Z" fill="#000F29"/>
<path d="M100.018 38.5226C101.748 39.2394 103.6 39.6656 105.476 39.7086C107.446 39.7541 109.367 39.2992 111.265 38.8266C111.896 38.67 111.629 37.6945 110.997 37.852C109.181 38.3035 107.359 38.7416 105.476 38.6978C103.687 38.6565 101.935 38.2311 100.287 37.5479C99.6863 37.2994 99.4252 38.2766 100.018 38.5226Z" fill="#560700"/>
<path d="M100.999 41.0335C103.44 42.6061 106.41 42.2035 109.121 41.773C109.762 41.6711 109.49 40.6973 108.852 40.7984C106.411 41.1868 103.708 41.5776 101.51 40.1608C100.961 39.807 100.454 40.6822 100.999 41.0335Z" fill="#560700"/>
</g>
<circle cx="220" cy="157" r="57" fill="white"/>
<mask id="mask1_1795_959" style="mask-type:alpha" maskUnits="userSpaceOnUse" x="163" y="100" width="114" height="114">
<circle cx="220" cy="157" r="57" fill="#D9D9D9"/>
</mask>
<g mask="url(#mask1_1795_959)">
<path d="M200.736 164.203L199.707 167.129L198.805 168.117L196.975 168.946V167.373C197.012 167.312 199.5 164.775 199.5 164.775L200.736 164.203Z" fill="#133838"/>
<path d="M232.247 180.313C232.247 180.313 244.565 185.192 248.37 193.486C252.176 201.779 264.665 228.904 265.25 235.441C265.836 241.978 266.519 252.516 267.69 257.492C268.86 262.468 270.031 277.885 270.031 277.885H154.702C154.702 277.885 140.156 209.926 157.532 196.022C174.948 182.087 188.657 175.337 188.657 175.337C188.657 175.337 193.243 164.146 200.736 164.203L197.268 168.239L213.659 192.754L209.581 197.803L218.123 215.512L222.368 199.193C222.368 199.193 216.814 184.5 227.811 180.602L232.247 180.313Z" fill="#1D5556"/>
<path d="M157.532 196.022C177.436 180.02 188.657 175.337 188.657 175.337C188.657 175.337 193.194 164.203 200.736 164.203C199.418 164.267 196.52 164.793 195.939 167.913C195.731 169.025 194.693 171.21 195.427 172.025C195.817 172.459 196.341 172.764 196.693 173.23C197.55 174.367 197.11 175.964 197.148 177.387C197.226 180.277 199.39 182.65 201.561 184.558C203.732 186.468 206.154 188.366 207.083 191.104C207.718 192.978 207.563 195.028 207.208 196.975C206.852 198.922 206.303 200.842 206.17 202.816C207.224 202.651 208.031 201.812 208.7 200.981C209.215 200.34 209.698 199.675 210.156 198.994L218.123 215.512L221.471 202.643C221.893 201.319 222.247 199.655 223.074 198.537C223.385 198.117 223.736 197.704 224.203 197.469C224.669 197.235 225.28 197.217 225.682 197.551C226.153 197.943 226.187 198.641 226.185 199.254C226.177 200.842 226.17 202.431 226.161 204.021C226.157 205.06 226.233 206.268 227.082 206.867C227.541 203.965 227.958 201.056 228.334 198.142C228.637 195.786 228.912 193.38 228.448 191.051C228.254 190.073 227.931 189.126 227.635 188.173C226.832 185.594 226.844 183.124 227.811 180.603L232.246 180.314C232.246 180.314 248.76 184.9 252.565 193.193C256.371 201.487 264.664 228.904 265.25 235.442C265.835 241.979 266.518 252.517 267.689 257.493C268.86 262.469 270.031 277.884 270.031 277.884H154.702C154.702 277.884 140.188 209.965 157.532 196.022Z" fill="#698F3F"/>
<path d="M232.246 178.961C232.246 178.961 222.221 181.403 221.416 187.403C220.611 193.404 222.367 199.185 222.367 199.185L218.123 215.504L209.58 197.795L213.659 192.745C213.659 192.745 196.169 172.402 197.267 168.23C197.267 168.23 202.316 165.45 203.414 154.766L214.731 158.717L224.562 173.719L232.246 178.961Z" fill="#ECA76D"/>
<path d="M160.766 198.806C168.703 195.671 178.065 198.936 184.149 204.921C190.234 210.906 193.278 219.435 194.23 227.916C194.704 232.145 194.707 236.426 194.237 240.654C193.985 242.915 193.6 245.165 193.52 247.438C193.392 251.072 194.048 254.684 194.701 258.262C195.998 265.366 196.91 271.22 199.699 277.881H193.568C195.907 266.488 192.186 255.066 183.869 246.935C179.931 243.085 175.137 240.217 171.055 236.52C175.83 239.587 180.684 242.53 185.612 245.344C186.06 245.6 186.562 245.864 187.066 245.758C187.683 245.629 188.059 244.994 188.218 244.384C188.701 242.54 187.901 240.627 187.095 238.899C183.065 230.255 178.452 221.883 173.3 213.858C175.062 215.306 177.339 217.278 178.473 218.747C182.889 224.473 184.495 227.919 188.191 233.557C189.917 227.692 188.236 221.403 186.209 215.635C185.019 212.248 183.662 208.828 181.302 206.122C178.619 203.047 174.831 201.131 170.949 199.869C167.668 198.802 164.152 198.148 160.766 198.807V198.806Z" fill="#376464"/>
<path d="M234.797 148.31C234.797 148.31 232.925 153.003 227.694 135.398C226.429 131.143 230.517 130.535 230.517 130.535C230.517 130.535 245.315 127.633 248.602 132.935C251.891 138.237 254.089 152.743 250.486 153.335C250.486 153.335 248.492 155.846 245.947 152.26C243.403 148.674 245.409 141.659 238.446 143.036C238.446 143.036 234.624 143.716 234.797 148.311" fill="white"/>
<path d="M192.848 139.905C192.848 139.905 188.544 121.347 214.299 114.001C240.055 106.655 250.009 141.813 250.427 151.815C250.845 161.816 251.436 180.127 235.39 180.734C218.677 181.367 212.483 178.06 210.536 172.299C208.588 166.539 208.106 164.317 208.106 164.317C208.106 164.317 200.395 166.491 198.549 159.889C198.549 159.889 195.718 152.631 201.508 151.055L196.347 152.24L192.848 139.904V139.905Z" fill="#FFC98E"/>
<path d="M197.858 156.334C197.858 156.334 195.986 161.026 190.754 143.422C189.49 139.166 193.578 138.558 193.578 138.558C193.578 138.558 208.375 135.656 211.663 140.958C214.951 146.26 215.605 152.11 215.662 160.313C215.662 160.313 211.553 163.87 209.008 160.283C206.463 156.697 208.47 149.682 201.506 151.06C201.506 151.06 197.685 151.74 197.857 156.334" fill="#C9C9C9"/>
<path d="M247.391 147.767C247.49 148.137 247.6 148.504 247.728 148.865C248.862 152.055 250.432 152.398 252.803 149.991C255.023 147.737 254.967 144.894 254.88 142.044C254.865 141.567 254.755 141.094 254.689 140.619C254.29 136.992 254.111 136.902 251.022 138.758C246.049 141.746 245.885 142.149 247.391 147.767ZM229.93 158.346C230.43 159.607 231.309 160.081 232.635 159.937C237.672 159.391 242.115 155.764 241.909 149.658L241.817 148.515C241.754 147.634 241.727 147.468 241.718 147.384C241.381 144.173 240.595 143.682 237.539 144.722C235.311 145.479 233.155 146.39 231.119 147.578C229.175 148.713 228.343 150.426 228.561 152.639C228.754 154.601 229.2 156.506 229.93 158.346V158.346ZM254.52 135.523C255.906 135.524 256.527 136.206 256.227 137.519C256.026 138.394 256.097 139.22 256.16 140.079C256.324 142.329 256.423 144.579 255.939 146.812C255.492 148.878 254.455 150.529 252.65 151.68C249.812 153.489 247.189 152.588 246.013 149.387C245.793 148.79 245.703 148.562 245.388 147.728C245.128 147.145 244.934 146.944 244.402 147.025C243.22 147.204 243.49 149.959 243.431 150.593C242.784 157.588 239.64 159.727 232.852 161.188C230.658 161.66 228.939 160.539 228.05 158.459C227.293 156.689 226.879 154.817 226.458 152.947C226.282 152.165 226.171 151.327 224.973 151.412C220.996 151.696 217.019 151.423 213.045 151.276C208.782 151.118 204.521 150.875 200.259 150.696C198.358 150.616 197.895 151.055 197.822 152.85C197.79 153.616 197.807 154.387 197.724 155.148C197.557 156.675 196.953 156.95 195.609 156.149C195.363 156.003 195.142 155.814 194.91 155.643L194.87 155.358C195.45 154.254 196.029 153.151 196.412 151.955C197.177 149.574 197.811 149.179 200.341 149.118C205.122 149.002 209.902 148.82 215.056 148.652L217.308 148.576C219.064 148.553 220.817 148.551 222.569 148.501C223.08 148.487 223.592 148.418 224.094 148.46C224.101 148.46 224.107 148.459 224.114 148.459C225.476 148.459 229.586 146.264 229.586 146.264L229.595 146.26C233.517 144.138 237.601 142.534 242.116 142.163C243.852 142.02 245.407 141.237 246.741 140.103C247.527 139.434 247.642 138.919 249.284 137.696C249.284 137.696 252.558 135.522 254.521 135.523H254.52Z" fill="#1A1A1A"/>
<path d="M255.125 137.074L255.715 143.201L255.235 147.6L253.067 150.797L249.665 152.08L247.043 149.556L245.769 143.223L247.106 140.71L249.656 138.309L253.768 136.375L255.125 137.074Z" fill="#1A1A1A"/>
<path d="M254.52 135.525L246.345 135.297C246.345 135.297 246.795 136.43 247.038 137.105L253.103 136.424L254.519 135.525H254.52Z" fill="#1A1A1A"/>
<path d="M242.703 147.862L242.276 153.598L239.827 157.34L236.752 159.604L233.093 160.648L230.38 160.238L228.557 157.79L227.644 153.308L227.216 149.201L230.307 146.967L236.781 143.937L241.816 143.211L242.307 144.931L242.703 147.862Z" fill="#1A1A1A"/>
<path d="M244.694 135.112C243.567 135.306 242.603 135.899 241.62 136.448C240.638 136.998 239.537 137.484 238.376 137.688C237.151 137.903 235.894 137.792 234.675 138.031C233.533 138.255 232.473 138.736 231.537 139.425C231.115 139.735 230.709 139.03 231.126 138.723C232.051 138.043 233.114 137.549 234.234 137.294C235.489 137.01 236.776 137.125 238.039 136.924C239.302 136.722 240.306 136.256 241.358 135.662C242.346 135.104 243.345 134.522 244.478 134.327C244.99 134.239 245.21 135.022 244.694 135.111V135.112Z" fill="#ECA76D"/>
<path d="M242.354 132.517C241.323 132.61 240.48 133.346 239.594 133.807C239.14 134.043 238.664 134.228 238.154 134.293C237.532 134.372 236.892 134.261 236.3 134.509C236.097 134.594 235.855 134.417 235.8 134.225C235.733 133.991 235.883 133.809 236.084 133.725C236.673 133.478 237.3 133.553 237.921 133.505C238.471 133.462 238.97 133.231 239.444 132.963C240.38 132.435 241.252 131.804 242.355 131.705C242.876 131.658 242.872 132.471 242.355 132.518L242.354 132.517Z" fill="#ECA76D"/>
<path d="M231.988 167.153C231.477 168.293 231.684 169.633 232.428 170.617C232.744 171.034 232.038 171.44 231.726 171.027C230.796 169.797 230.662 168.136 231.286 166.743C231.499 166.266 232.201 166.679 231.988 167.154V167.153Z" fill="#ECA76D"/>
</g>
<circle cx="302" cy="78" r="40" fill="#FAFAFA"/>
<mask id="mask2_1795_959" style="mask-type:alpha" maskUnits="userSpaceOnUse" x="262" y="38" width="80" height="80">
<circle cx="302" cy="78" r="40" fill="#D9D9D9"/>
</mask>
<g mask="url(#mask2_1795_959)">
<path d="M317.955 83.6908L314.605 91.8667L304.215 98.1244L295.917 97.0361L288.435 93.6352L282.722 90.9079L278.368 78.6797L279.321 66.4278L287.619 58.2656L305.304 58.8098L315.234 65.4756L317.955 83.6908Z" fill="#FFC98E"/>
<path d="M310.065 77.0387C310.065 77.0387 309.861 68.6044 304.487 68.1963C299.114 67.7882 301.29 61.9386 301.29 61.9386C301.29 61.9386 304.011 52.8241 313.738 57.6534C323.464 62.4828 319.383 67.9242 320.335 70.713C321.288 73.5017 326.573 76.2348 326.457 82.8203C326.321 90.5744 322.122 91.5082 321.65 91.2772C314.985 88.0123 311.017 85.3828 311.017 85.3828L309.623 83.0073L310.425 79.8336L310.065 77.0387Z" fill="#1A1A1A"/>
<path d="M291.392 93.419L264.239 105.598C264.239 105.598 267.64 94.9872 273.83 86.893C280.02 78.7988 275.666 74.1055 276.748 67.3037C277.655 61.5986 283.208 50.7629 296.888 52.9518C307.091 54.5842 306.955 57.8043 306.955 57.8043C306.955 57.8043 302.506 69.8204 293.963 65.7393C293.963 65.7393 282.434 63.0932 284.271 75.2345C284.271 75.2345 282.87 84.5695 290.249 89.6553C290.452 89.7951 290.662 89.9321 290.878 90.0653C292.688 91.1786 293.473 91.2901 294.813 91.9297C295.69 92.3482 291.392 93.4185 291.392 93.4185L291.392 93.419Z" fill="#1A1A1A"/>
<path d="M351.181 113.828C351.181 113.828 357.405 118.873 353.222 124.179C349.039 129.484 341.285 126.219 341.285 126.219L327.377 116.163L318.992 113.568L313.686 103.518L313.329 97.8554L319.91 94.4375L328.429 99.4879L333.327 105.354L341.897 108.874L351.181 113.828Z" fill="#FFC98E"/>
<path d="M275.784 151.954C276.356 149.309 281.395 127.956 281.293 126.732C281.191 125.507 275.681 119.794 279.967 113.366C279.967 113.366 270.274 117.311 269.254 117.651C268.233 117.991 260.751 104.864 260.751 104.864C260.751 104.864 275.307 95.0692 282.449 93.2327C289.591 91.3962 293.007 90.9154 293.007 90.9154C305.812 100.047 314.194 87.3203 314.194 87.3203C314.194 87.3203 324.859 88.777 334.551 99.0818C344.244 109.387 351.998 114.386 351.998 114.386C351.998 114.386 343.53 110.713 331.695 109.999C331.695 109.999 327.817 101.173 325.165 100.74C325.165 100.74 323.634 96.3271 320.88 97.1433C320.88 97.1433 319.757 94.0825 314.86 98.5717C314.86 98.5717 313.919 99.558 315.166 100.102C315.757 100.36 316.968 99.6647 317.197 99.4937C317.335 99.3912 317.532 99.4451 317.601 99.6024C318.191 100.948 320.198 105.412 321.197 106.314C322.376 107.38 317.161 103.118 316.889 103.027C316.617 102.936 315.914 102.483 315.574 103.004C315.159 103.641 315.393 103.82 315.688 104.229C315.982 104.637 319.247 108.979 320.267 109.54C321.288 110.101 321.951 113.978 325.828 115.049L328.379 116.886C328.379 116.886 329.042 123.364 325.165 126.731C325.165 126.731 326.668 141.452 327.92 151.953H275.784V151.954Z" fill="#4B034F"/>
<path d="M273.379 89.9843C273.379 89.9843 274.331 87.0071 271.724 87.0921C271.724 87.0921 271.384 84.7738 269.185 85.454C269.185 85.454 268.482 83.0961 266.079 84.003C266.079 84.003 265.512 82.3478 263.97 83.1187C262.428 83.8896 259.571 86.3156 259.662 87.3132C259.662 87.3132 256.703 90.9182 255.377 95.3564C255.377 95.3564 241.569 110.371 245.31 116.085C249.051 121.799 261.462 120.468 268.468 117.056L260.75 104.862C260.75 104.862 263.414 100.917 264.463 98.7403" fill="#ECA76D"/>
<path d="M264.463 98.7404C264.463 98.7404 269.389 97.7882 271.43 95.3395C273.47 92.8908 275.284 91.7345 275.08 90.9183C274.876 90.1021 273.629 89.5353 272.518 90.4648C271.407 91.3944 267.36 94.4496 267.11 94.7443L264.463 98.7404Z" fill="#ECA76D"/>
<path d="M311.101 80.1619C310.284 80.1619 309.621 79.4996 309.621 78.6825C309.621 77.8655 310.284 77.2031 311.101 77.2031C311.918 77.2031 312.58 77.8655 312.58 78.6825C312.58 79.4996 311.918 80.1619 311.101 80.1619Z" fill="white"/>
<path d="M309.621 83.0161C307.482 87.1888 303.599 90.0924 298.992 90.9629C298.201 91.1127 297.399 91.2 296.598 91.287C295.284 91.4301 293.059 91.1561 290.878 90.0711C293.438 91.4683 296.388 93.3162 298.698 93.7375C299.768 93.9326 301.052 94.5396 304.342 94.0223C308.55 93.3606 311.271 90.6965 312.585 89.3064C312.942 88.9295 313.94 87.776 314.193 87.3235L311.792 85.863C311.283 85.5531 310.858 85.1218 310.556 84.6079L309.621 83.0156V83.0161Z" fill="#ECA76D"/>
<path d="M300.175 82.2553C300.858 83.1291 301.006 84.2751 300.569 85.2944C300.425 85.6288 299.937 85.3402 300.079 85.0082C300.405 84.2486 300.282 83.3072 299.774 82.6559C299.552 82.3715 299.95 81.9676 300.175 82.2548V82.2553Z" fill="#ECA76D"/>
<path d="M287.352 83.0329C287.174 83.5558 287.27 84.132 287.64 84.5496C287.881 84.8217 287.482 85.2241 287.239 84.9506C286.739 84.3871 286.56 83.6011 286.805 82.8827C286.923 82.5393 287.47 82.6866 287.352 83.0334V83.0329Z" fill="#ECA76D"/>
<path d="M281.82 111.219C282.459 111.888 281.991 112.965 281.635 113.818C280.289 117.042 281.275 121.088 283.952 123.331C284.632 123.901 285.416 124.375 285.931 125.097C286.446 125.82 286.596 126.917 285.967 127.543C285.289 128.215 284.051 128.05 283.421 128.767C283.194 129.024 283.083 129.36 282.98 129.687C280.735 136.85 280.123 144.52 281.198 151.95H275.786C276.359 149.305 281.398 127.952 281.296 126.727C281.193 125.503 275.684 119.79 279.969 113.362C279.969 113.362 279.901 113.39 279.776 113.44C280.377 112.606 281.065 111.854 281.82 111.219V111.219Z" fill="#739292"/>
<path d="M324.069 138.284C323.622 136.731 323.174 135.167 323.022 133.558C322.879 132.058 322.905 130.327 321.758 129.349C321.229 128.898 320.53 128.697 319.96 128.298C319.391 127.899 318.948 127.13 319.282 126.519C319.731 125.696 320.949 125.978 321.875 125.833C323.274 125.614 324.177 124.238 324.677 122.913C325.195 121.538 325.457 119.93 324.743 118.646C324.247 117.756 323.362 117.165 322.637 116.45C320.533 114.374 319.795 111.269 317.942 108.967C317.444 108.349 316.865 107.789 316.448 107.114C316.03 106.438 315.785 105.598 316.036 104.844C316.091 104.852 316.146 104.862 316.201 104.872C317.215 106.204 319.481 109.092 320.301 109.542C321.321 110.103 321.984 113.98 325.861 115.052L328.412 116.888C328.412 116.888 329.075 123.367 325.198 126.734C325.198 126.734 326.675 141.191 327.919 151.671C326.636 147.208 325.353 142.747 324.07 138.284H324.069Z" fill="#739292"/>
<path d="M264.463 98.7407C264.463 98.7407 260.458 98.6165 259.108 96.5419C259.108 96.5419 257.86 95.4196 257.588 97.3581C257.316 99.2966 258.404 99.7388 257.146 103.31C255.887 106.881 256.193 107.799 254.731 109.533C253.269 111.268 260.75 104.862 260.75 104.862C260.75 104.862 262.937 101.454 264.463 98.7407Z" fill="#BECCCC"/>
</g>
</svg>
