<svg width="60" height="60" viewBox="0 0 60 60" fill="none" xmlns="http://www.w3.org/2000/svg">
<circle opacity="0.1" cx="30" cy="30" r="30" fill="#1C5253"/>
<g clip-path="url(#clip0_1731_82)">
<path d="M29.4432 9.85622L14.6947 16.7336C12.7922 17.6207 11.9692 19.8821 12.8563 21.7845L25.4919 48.8817C26.379 50.7841 28.6404 51.6072 30.5429 50.7201L45.2914 43.8428C47.1938 42.9556 48.0169 40.6942 47.1298 38.7918L34.4942 11.6946C33.6071 9.79217 31.3457 8.96909 29.4432 9.85622Z" fill="#1A1A1A"/>
<path opacity="0.2" d="M32.924 12.7081L14.6394 21.2344L25.6961 44.9456L43.9808 36.4194L32.924 12.7081Z" fill="#FAFAFA"/>
<path opacity="0.4" d="M38.2563 43.1278C38.7375 44.1596 38.2914 45.3852 37.2596 45.8663C36.2278 46.3475 35.0022 45.9014 34.521 44.8696C34.0399 43.8378 34.486 42.6122 35.5178 42.1311C36.5496 41.6499 37.7752 42.096 38.2563 43.1278Z" fill="#FAFAFA"/>
<path opacity="0.4" d="M25.8304 13.7794L20.0185 16.4896C19.784 16.5989 19.6826 16.8775 19.7919 17.112C19.9012 17.3464 20.1799 17.4478 20.4143 17.3385L26.2262 14.6284C26.4606 14.5191 26.5621 14.2404 26.4528 14.006C26.3434 13.7715 26.0648 13.6701 25.8304 13.7794Z" fill="#FAFAFA"/>
<path opacity="0.4" d="M14.6394 21.2344L43.984 36.4178L25.6961 44.9456L14.6394 21.2344Z" fill="#FAFAFA"/>
</g>
<defs>
<clipPath id="clip0_1731_82">
<rect width="23.8748" height="37.5" fill="white" transform="translate(11.25 18.3398) rotate(-25)"/>
</clipPath>
</defs>
</svg>
