<svg width="306" height="232" viewBox="0 0 306 232" fill="none" xmlns="http://www.w3.org/2000/svg">
<g clip-path="url(#clip0_1241_2897)">
<path d="M257.969 118.695C257.835 121.7 263.062 120.438 265.689 121.904C268.315 123.369 270.154 124.389 274.459 125.083C281.054 126.147 287.884 125.031 293.356 128.864C297.99 132.11 300.052 138.119 299.926 143.775C299.845 147.371 299.006 150.97 299.472 154.536C300.01 158.66 302.233 162.335 303.935 166.131C305.637 169.926 306.838 174.335 305.274 178.189C303.768 181.902 299.913 184.274 295.964 184.951C292.015 185.628 287.964 184.857 284.095 183.813C281.404 183.087 278.636 182.16 276.677 180.177C274.068 177.535 273.41 173.56 273.227 169.851C272.785 160.869 274.188 151.152 269.493 143.482C266.784 139.054 262.392 135.983 258.597 132.44C257.25 131.183 255.88 129.228 256.866 127.672C257.252 127.062 257.924 126.698 258.583 126.403C262.156 124.809 266.293 124.516 270.055 125.59" fill="#3D1B07"/>
<path d="M203.744 59.8043C202.877 52.5479 202.502 43.9636 208.124 39.2944C209.994 37.7409 212.314 36.8547 214.588 35.9955C218.25 34.6107 221.91 33.2269 225.572 31.8422C228.764 30.6349 232.052 29.4102 235.464 29.4584C241.131 29.5384 246.189 33.1305 249.962 37.359C253.734 41.5875 256.614 46.5547 260.429 50.7436C263.851 54.4996 268.009 57.6134 270.891 61.7975C273.164 65.0964 274.554 68.9537 275.262 72.8968C276.749 81.1802 275.212 89.9728 271.005 97.262C267.338 103.617 261.497 109.683 262.292 116.977C262.944 122.973 271.947 124.124 277.027 127.376C282.107 130.627 288.907 133.778 292.302 138.762C295.877 144.011 291.225 153.828 294.177 159.45C295.527 162.022 297.386 164.308 298.656 166.921C299.927 169.533 300.556 172.693 299.311 175.317C298.221 177.612 295.888 179.085 293.486 179.91C288.253 181.709 282.164 180.849 277.674 177.615C274.889 175.608 272.773 172.816 270.901 169.938C264.506 160.107 260.529 148.944 255.851 138.188C251.173 127.433 245.542 116.731 236.703 109.024C233.452 106.189 229.71 103.686 227.637 99.9033C223.824 92.9486 226.836 84.0972 224.446 76.5341C222.645 70.8322 218.016 66.5516 213.574 62.5507C212.178 61.2942 210.737 60.0087 208.977 59.3549C207.216 58.7002 205.038 58.8149 203.697 60.1302" fill="#3D1B07"/>
<path d="M298.249 231.733C297.718 208.867 291.491 186.562 285.308 164.541C283.52 158.172 281.674 151.679 277.964 146.203C273.616 139.789 267.066 135.28 261.292 130.115C255.796 125.2 250.943 119.623 245.915 114.23C243.288 111.413 241.683 109.34 238.112 107.898L228.496 122.375L219.54 127.374L209.958 126.749L208.5 118.834L201.835 121.333L198.086 127.582L196.003 132.165V164.033L197.461 186.737V210.69L199.96 231.732H298.25L298.249 231.733Z" fill="#4B034F"/>
<path d="M241.444 160.283C240.256 164.82 240.174 169.643 241.207 174.217C241.91 177.329 243.112 180.303 244.31 183.261C246.1 187.68 247.89 192.101 249.678 196.52C251.736 201.603 253.812 206.721 256.789 211.325C258.043 213.263 259.454 215.11 260.497 217.169C262.776 221.665 263.481 226.629 264.591 231.732C263.255 226.004 261.315 222.003 257.395 218.883C253.715 215.956 248.891 214.361 246.08 210.592C242.259 205.472 243.473 198.322 242.122 192.077C241.446 188.953 240.1 186.006 239.405 182.887C237.999 176.582 239.322 170.026 240.645 163.703" fill="#1F0620"/>
<path d="M206.625 231.734C205.858 231.168 205.7 228.122 205.644 227.17C204.75 212.099 208.227 205.476 206.972 192.463C210.446 209.729 219.249 219.872 232.268 231.734" fill="#1F0620"/>
<path d="M186.814 91.9655C183.435 72.525 206.764 54.0565 206.764 54.0565C214.262 41.6979 229.12 55.7228 229.12 55.7228C229.12 55.7228 223.08 67.5954 232.349 72.4903C245.273 79.3157 225.857 86.3648 231.041 93.3541C231.041 93.3541 235.334 82.523 240.889 86.2375C246.443 89.952 239.882 96.3396 239.882 96.3396C239.882 96.3396 237.313 98.735 235.82 98.1101C235.82 98.1101 234.64 106.025 238.112 107.9C238.112 107.9 237.313 122.584 221.414 130.291C205.514 137.998 204.021 119.46 204.021 119.46L196.28 108.907L187.323 92.7292L186.814 91.9655Z" fill="#EF9A7F"/>
<path d="M199.547 64.6094C198.146 67.8794 194.574 69.6469 191.134 70.5524C187.694 71.4589 184.044 71.808 180.911 73.4945C177.592 75.2804 175.14 78.4251 171.755 80.0789C170.981 80.4569 170.051 80.8966 169.936 81.75C169.849 82.3951 170.29 82.9805 170.71 83.478C172.038 85.0508 173.419 86.5802 174.847 88.0624C177.775 91.1 181.077 94.0373 185.152 95.1337C189.226 96.2301 194.225 94.9264 196.173 91.1848C197.544 88.5513 197.167 85.4009 197.06 82.4337C196.845 76.4849 197.878 70.4946 200.072 64.9614" fill="#3D1B07"/>
<path d="M77.2066 83.4941C77.2066 83.4941 71.5133 83.633 52.2117 94.3253C32.91 105.018 28.7442 107.769 24.8561 114.377C20.968 120.986 5.41557 167.088 2.91608 191.667C0.416582 216.245 0 231.733 0 231.733H211.624L199.382 128.381L193.711 117.584L179.547 105.92L155.594 88.4237L142.746 83.4941H121.017L92.0647 86.3408L77.2066 83.4941Z" fill="#41A5B4"/>
<path d="M192.669 97.8661C192.669 97.8661 176.492 94.1863 169.236 111.336C169.236 111.336 138.409 91.9645 133.515 80.6126C128.62 69.2608 144.762 61.3457 144.762 61.3457C144.762 61.3457 188.503 80.2308 192.669 97.8661Z" fill="#4B034F"/>
<path d="M192.044 97.3801C192.044 97.3801 195.516 103.907 197.113 105.851C198.71 107.795 206.833 116.682 205.479 120.848C204.125 125.013 203.338 131.818 200.168 132.061C200.168 132.061 198.571 132.165 198.038 131.771C198.038 131.771 195.539 133.554 193.155 132.061C193.155 132.061 190.424 133.553 188.341 130.73C188.341 130.73 184.129 131.216 183.736 127.906C183.736 127.906 180.264 128.184 180.079 125.06C180.079 125.06 179.825 123.37 179.13 122.583C178.436 121.796 175.983 118.348 175.312 115.918C174.64 113.488 170.197 108.813 169.85 108.443C169.503 108.072 173.206 100.435 177.95 98.6067C182.694 96.7784 190.285 94.6955 192.044 97.3801Z" fill="#EF9A7F"/>
<path d="M81.7888 64.61C81.7888 64.61 85.2603 76.1354 76.9286 82.3841C68.597 88.6329 93.5919 119.778 124.836 94.6936L142.054 68.3592C142.054 68.3592 151.913 46.1415 144.693 22.2574C137.472 -1.62665 93.4531 21.4242 93.4531 21.4242L76.6509 36.8378L76.9286 52.2513L81.7888 64.61Z" fill="#FAAA8D"/>
<path d="M192.67 102.867C210.166 110.99 235.821 98.1106 235.821 98.1106C237.313 98.7355 239.882 96.3401 239.882 96.3401C239.882 96.3401 246.443 89.9525 240.889 86.238C235.335 82.5235 231.041 93.3546 231.041 93.3546C225.857 86.3653 245.274 79.3162 232.349 72.4908C223.08 67.5959 229.121 55.7233 229.121 55.7233C229.121 55.7233 215.373 42.9482 206.764 54.057C206.764 54.057 180.985 71.8138 184.364 91.2543C184.364 91.2543 184.998 98.5619 192.67 102.867Z" fill="#FAAA8D"/>
<path d="M235.337 99.9299C237.072 99.9299 238.479 98.5233 238.479 96.7882C238.479 95.0531 237.072 93.6465 235.337 93.6465C233.602 93.6465 232.195 95.0531 232.195 96.7882C232.195 98.5233 233.602 99.9299 235.337 99.9299Z" fill="white"/>
<path d="M197.113 105.852C196.775 105.441 196.354 104.825 195.899 104.109C195.087 103.841 194.888 103.896 194.197 103.821C193.222 103.715 192.553 103.477 191.912 103.355C190.916 103.164 190.616 103.109 189.682 102.713C187.809 101.92 186.213 100.319 184.183 100.193C182.604 100.095 181.13 100.926 179.794 101.774C176.742 103.708 173.835 105.874 171.109 108.246C170.846 108.476 170.561 108.715 170.253 108.875C171.438 110.158 174.742 113.852 175.313 115.92C175.984 118.351 178.437 121.799 179.131 122.586C179.826 123.373 180.08 125.062 180.08 125.062C180.265 128.186 183.737 127.909 183.737 127.909C184.13 131.218 188.342 130.732 188.342 130.732C190.425 133.556 193.156 132.063 193.156 132.063C195.54 133.557 198.04 131.774 198.04 131.774C198.572 132.167 200.169 132.063 200.169 132.063C203.339 131.82 204.126 125.016 205.48 120.85C206.834 116.684 198.711 107.797 197.114 105.853L197.113 105.852Z" fill="#FAAA8D"/>
<path d="M176.281 231.734C176.821 220.768 167.895 214.089 167.181 203.134C166.557 193.578 169.515 184.086 169.157 174.517C169.089 172.674 168.887 170.797 168.117 169.12C167.413 167.584 166.273 166.3 165.23 164.973C162.889 161.997 160.964 158.696 159.525 155.194C159.034 153.998 158.702 152.386 159.737 151.612C160.317 151.178 161.107 151.208 161.811 151.038C163.9 150.532 165.033 148.354 166.131 146.507C168.696 142.187 172.444 138.579 176.858 136.18C174.482 139.726 171.909 144.562 171.697 148.827C171.53 152.216 172.808 155.483 173.702 158.757C175.092 163.841 175.576 169.171 175.127 174.422C174.584 180.763 172.702 186.919 171.953 193.238C171.167 199.862 171.646 206.634 173.356 213.083C174.479 217.316 177.581 224.579 177.997 231.735" fill="#347983"/>
<path d="M41.2194 231.734C42.6504 221.244 43.2194 217.15 42.7748 206.573C42.3033 195.356 39.6948 184.232 35.1307 173.974C32.5888 168.261 28.5917 160.822 31.2986 157.214C31.2069 157.929 29.5869 161.215 37.0208 165.502C40.7131 160.212 38.4171 152.93 39.6717 146.601C40.4499 142.676 43.2473 137.941 41.0526 134.594C43.9156 139.256 43.2367 145.172 42.6311 150.61C41.5964 159.897 41.068 169.348 42.716 178.546C43.933 185.342 46.3225 191.909 47.1856 198.758C49.0216 213.333 43.8211 217.124 45.3582 231.734" fill="#347983"/>
<path d="M105.446 103.943C102.295 104.076 99.1512 103.755 96.1001 102.857C93.9728 102.23 91.9314 101.333 89.9671 100.303C88.2757 99.4161 86.6094 98.4055 85.3326 96.9851C84.2034 95.7295 83.4223 94.2001 82.7868 92.636C81.8447 90.3178 81.1948 87.7383 81.8563 85.3246C82.4889 83.0161 84.2343 81.1684 85.0751 78.9274C86.2044 75.9168 85.6171 72.4347 86.9334 69.5003C87.51 68.2148 88.4223 67.1107 89.1233 65.8889C90.4647 63.5495 91.4955 61.3547 91.1243 58.6836C87.6576 59.2979 84.1099 60.8273 81.1678 63.0297L81.7888 64.6103C81.7888 64.6103 85.2603 76.1357 76.9286 82.3844C70.4263 87.261 84.2227 107.301 105.446 103.943Z" fill="#EF9A7F"/>
<path d="M145.874 26.8086C145.495 23.0796 140.504 20.9234 137.89 20.8135C136.073 20.7373 134.314 21.3786 132.529 21.7228C130.464 22.1211 128.324 22.122 126.259 21.7257C122.86 21.0729 119.739 19.3757 116.361 18.6245C112.982 17.8733 108.924 18.3516 106.897 21.1577C103.714 25.5646 107.631 31.9098 106.023 37.1026C105.16 39.8914 102.806 37.3369 101.589 39.9907C100.356 42.6812 100.376 45.7592 100.491 48.7168C100.603 51.5981 100.785 54.4978 101.498 57.2924C102.706 62.0204 105.46 66.3405 109.237 69.4302C111.891 71.6008 115.985 73.0859 118.572 70.8371C119.45 70.0734 119.983 68.9991 120.674 68.0618C123.953 63.6125 130.366 62.788 135.799 63.8073C138.039 64.2277 140.389 64.9963 141.76 66.8169C142.598 67.9288 142.975 69.3164 143.244 70.6828C144.232 75.6876 143.975 81.0212 141.927 85.6933C139.879 90.3654 135.927 94.2959 131.041 95.7617C127.003 96.9728 122.593 96.4656 118.628 95.0307C114.663 93.5958 111.08 91.2824 107.642 88.8418C104.676 86.7357 101.719 84.4474 99.81 81.351C98.2005 78.7416 97.4281 75.7011 96.945 72.6741C95.5005 63.626 96.4204 54.1989 93.7907 45.4217C92.8158 42.1691 90.9692 38.7092 87.6895 37.8297C84.596 36.9994 81.2007 38.9898 79.8034 41.8721C78.4061 44.7544 78.7398 48.2433 80.0088 51.1845C81.571 54.8083 85.0714 58.0253 88.9971 57.6203C89.6143 57.5566 90.3231 57.4332 90.7821 57.8498C91.3192 58.3377 91.136 59.2133 90.864 59.8864C89.4022 63.5103 86.5526 66.5546 83.0329 68.2528C82.785 68.3723 82.5044 68.4871 82.2431 68.4003C81.9663 68.3087 81.8101 68.0233 81.6809 67.7629C78.9047 62.1709 76.1274 56.5778 73.3512 50.9858C72.2673 48.8026 71.1728 46.5905 70.6608 44.2067C68.8257 35.661 74.7051 32.0786 75.8198 23.4094C76.2605 19.9793 76.0763 16.126 78.3801 13.5474C80.2846 11.4153 83.3251 10.8329 85.9345 9.66218C90.2806 7.71235 93.6528 3.96214 98.0703 2.17913C100.698 1.11839 103.56 0.811737 106.384 0.582231C111.406 0.172398 116.445 -0.0204638 121.484 0.00171539C124.43 0.0142514 127.404 0.103932 130.262 0.817522C135.618 2.15406 140.37 5.75287 143.108 10.5465C145.847 15.3391 147.441 21.5155 145.873 26.8086H145.874Z" fill="#848484"/>
<path d="M210.45 84.6359C210.831 86.3717 210.192 88.1817 208.861 89.3437C208.299 89.8345 209.121 90.6504 209.68 90.1624C211.325 88.7256 212.032 86.4508 211.565 84.3293C211.405 83.6022 210.289 83.9098 210.45 84.6369V84.6359Z" fill="#EF9A7F"/>
<path d="M123.736 28.1538C125.716 28.9745 127.836 29.4624 129.983 29.5116C132.239 29.5636 134.438 29.0429 136.611 28.5019C137.333 28.3226 137.028 27.2059 136.303 27.3862C134.225 27.9031 132.14 28.4045 129.983 28.3544C127.935 28.3072 125.93 27.8202 124.043 27.0381C123.356 26.7536 123.057 27.8722 123.736 28.1538Z" fill="#EF9A7F"/>
<path d="M124.86 31.0272C127.653 32.8276 131.054 32.3666 134.157 31.8739C134.891 31.7572 134.579 30.6425 133.849 30.7582C131.055 31.2027 127.961 31.6502 125.444 30.0282C124.816 29.6232 124.236 30.6251 124.86 31.0272Z" fill="#EF9A7F"/>
</g>
<defs>
<clipPath id="clip0_1241_2897">
<rect width="306" height="231.734" fill="white"/>
</clipPath>
</defs>
</svg>
