<svg width="390" height="1208" viewBox="0 0 390 1208" fill="none" xmlns="http://www.w3.org/2000/svg">
<mask id="mask0_1564_4699" style="mask-type:alpha" maskUnits="userSpaceOnUse" x="0" y="0" width="390" height="1208">
<rect width="390" height="1208" fill="#D9D9D9"/>
</mask>
<g mask="url(#mask0_1564_4699)">
<path fill-rule="evenodd" clip-rule="evenodd" d="M466.455 27.3661C409.493 32.464 354.094 37.4221 299.837 37.4221C208 37.4221 138 32.0001 39 13.9214C-64.4291 -4.96602 -239 -7.07099 -300 22.9253C-357.087 56.3075 -358.002 57.5967 -379.742 88.2477C-380.375 89.1398 -381.025 90.0567 -381.695 91H-382V91.4297V1208H984V91.4297V91H983.415C951.677 67.8585 885.239 44.2905 843 36.4226C836.956 35.2967 830.855 34.0545 824.481 32.7567C788.672 25.4656 744.257 16.4221 653 16.4221C588.738 16.4221 526.722 21.9724 466.455 27.3661Z" fill="#1D5556"/>
</g>
</svg>
