<svg width="1920" height="688" viewBox="0 0 1920 688" fill="none" xmlns="http://www.w3.org/2000/svg">
<path fill-rule="evenodd" clip-rule="evenodd" d="M1192.56 38.4522C1112.49 45.6152 1034.63 52.5819 958.365 52.5819C829.283 52.5819 730.893 44.9634 591.742 19.561C446.366 -6.97776 200.996 -9.93545 115.256 32.2123C35.0163 79.1177 33.731 80.9292 3.17396 123.997C2.1503 125.44 1.09378 126.929 0.000347001 128.468H0V128.468V688H1920V128.468C1875.72 95.7589 1781.55 62.3011 1721.82 51.1774C1713.32 49.5955 1704.74 47.85 1695.79 46.0265C1645.45 35.7818 1583.03 23.0747 1454.76 23.0747C1364.43 23.0747 1277.27 30.8734 1192.56 38.4522Z" fill="#1D5556"/>
</svg>
