<svg width="1366" height="688" viewBox="0 0 1366 688" fill="none" xmlns="http://www.w3.org/2000/svg">
<path fill-rule="evenodd" clip-rule="evenodd" d="M848.455 27.9364C791.493 33.0343 736.094 37.9924 681.837 37.9924C590 37.9924 520 32.5704 421 14.4917C317.571 -4.3957 143 -6.50067 82 23.4956C24.9126 56.8778 23.9982 58.167 2.25814 88.818C1.52977 89.845 0.778021 90.9048 0 92V688H1366V92C1334.5 68.7212 1267.5 44.9095 1225 36.9929C1218.96 35.867 1212.85 34.6248 1206.48 33.327C1170.67 26.0359 1126.26 16.9924 1035 16.9924C970.738 16.9924 908.722 22.5427 848.455 27.9364Z" fill="#1D5556"/>
</svg>
