<svg width="1042" height="528" viewBox="0 0 1042 528" fill="none" xmlns="http://www.w3.org/2000/svg">
<rect x="1020.18" y="432.031" width="21.822" height="53.6988" fill="#EF9A7F"/>
<rect x="485.539" width="21.822" height="80" fill="#B6174B"/>
<rect x="485.539" y="84" width="21.822" height="80" fill="#41A5B4"/>
<rect x="485.539" y="168" width="21.822" height="80" fill="#A1CE78"/>
<rect x="485.539" y="252" width="21.822" height="80" fill="#FAAA8D"/>
<rect x="485.539" y="336" width="21.822" height="80" fill="#FCD1CC"/>
<rect x="485.539" y="420" width="21.822" height="80" fill="#658841"/>
<rect width="21.822" height="240" fill="#1D5556"/>
<rect x="1020.18" y="329.516" width="21.822" height="31.7311" fill="#56005E"/>
<rect x="1020.18" y="361.25" width="21.822" height="51.2579" fill="#56005E"/>
<rect x="1020.18" y="485.734" width="21.822" height="14.6451" fill="#EF9A7F"/>
<rect y="260" width="22" height="240" fill="#55075A"/>
<rect x="1020.18" width="21.822" height="168.419" fill="#1D5556"/>
<rect x="1020.18" y="168.422" width="21.822" height="95.1933" fill="#1D5556"/>
<rect x="1020.18" y="263.609" width="21.822" height="46.3762" fill="#1D5556"/>
<path opacity="0.2" fill-rule="evenodd" clip-rule="evenodd" d="M12 0V89C243.859 89 253.859 51 485.717 51V0C253.859 0 243.859 0 12 0Z" fill="#1D5556"/>
<path opacity="0.2" fill-rule="evenodd" clip-rule="evenodd" d="M22 259.676V335.677C253.859 335.677 253.859 80 485.717 80V51C253.859 51 253.859 259.676 22 259.676Z" fill="#55075A"/>
<path opacity="0.2" fill-rule="evenodd" clip-rule="evenodd" d="M22 335.676V390.677C253.859 390.677 253.859 164 485.717 164V104C253.859 104 253.859 335.676 22 335.676Z" fill="#55075A"/>
<path opacity="0.2" fill-rule="evenodd" clip-rule="evenodd" d="M22 390.676V435.677C253.859 435.677 253.859 207 485.717 207V168C253.859 168 253.859 390.676 22 390.676Z" fill="#55075A"/>
<path opacity="0.2" fill-rule="evenodd" clip-rule="evenodd" d="M22 435.676V480.677C253.859 480.677 253.859 416 485.717 416V336C253.859 336 253.859 435.676 22 435.676Z" fill="#55075A"/>
<path opacity="0.2" fill-rule="evenodd" clip-rule="evenodd" d="M22 480.675V499.999C253.859 499.999 253.859 461.499 485.717 461.499V420C253.859 420 253.859 480.675 22 480.675Z" fill="#55075A"/>
<path opacity="0.1" fill-rule="evenodd" clip-rule="evenodd" d="M507.361 0V168.419C763.77 168.419 763.77 168.419 1020.18 168.419V0C763.77 0 763.77 0 507.361 0Z" fill="#1D5556"/>
<path opacity="0.1" fill-rule="evenodd" clip-rule="evenodd" d="M507.361 168.422V200.153C763.77 200.153 763.77 361.249 1020.18 361.249V329.518C763.77 329.518 763.77 168.422 507.361 168.422Z" fill="#41A5B4"/>
<path opacity="0.1" fill-rule="evenodd" clip-rule="evenodd" d="M507.361 200.148V253.847C763.77 253.847 763.77 485.728 1020.18 485.728V432.029C763.77 432.029 763.77 200.148 507.361 200.148Z" fill="#41A5B4"/>
<path opacity="0.2" fill-rule="evenodd" clip-rule="evenodd" d="M21.5 88.9062V149.637C277.908 149.637 229.59 332 485.998 332V280.003C229.59 280.003 277.908 88.9062 21.5 88.9062Z" fill="#1D5556"/>
<path opacity="0.2" fill-rule="evenodd" clip-rule="evenodd" d="M21 176.594V197.331C277.408 197.331 229.592 247.996 486 247.996V206.996C229.592 206.996 277.408 176.594 21 176.594Z" fill="#1D5556"/>
<path opacity="0.2" fill-rule="evenodd" clip-rule="evenodd" d="M21 149.61V176.632C277.408 176.632 229.592 104.001 486 104.001V84C229.592 84 277.408 149.61 21 149.61Z" fill="#1D5556"/>
<path opacity="0.2" fill-rule="evenodd" clip-rule="evenodd" d="M21 197.297V239.996C277.408 239.996 230.592 499.996 487 499.996V461.496C230.592 461.496 277.408 197.297 21 197.297Z" fill="#1D5556"/>
<path opacity="0.1" fill-rule="evenodd" clip-rule="evenodd" d="M507.361 253.852V261.174C763.77 261.174 763.77 527.227 1020.18 527.227V519.905C763.77 519.905 763.77 253.852 507.361 253.852Z" fill="#41A5B4"/>
<path opacity="0.1" fill-rule="evenodd" clip-rule="evenodd" d="M507.361 280.701V375.894C763.77 375.894 763.77 263.615 1020.18 263.615V168.422C763.77 168.422 763.77 280.701 507.361 280.701Z" fill="#A1CE78"/>
<path opacity="0.1" fill-rule="evenodd" clip-rule="evenodd" d="M507.361 375.895V427.153C763.77 427.153 763.77 412.508 1020.18 412.508V361.25C763.77 361.25 763.77 375.895 507.361 375.895Z" fill="#722ED1"/>
<path opacity="0.1" fill-rule="evenodd" clip-rule="evenodd" d="M507.361 427.148V441.794C763.77 441.794 763.77 500.374 1020.18 500.374V485.729C763.77 485.729 763.77 427.148 507.361 427.148Z" fill="#722ED1"/>
<path opacity="0.1" fill-rule="evenodd" clip-rule="evenodd" d="M507.361 461.318V500C763.77 500 763.77 309.986 1020.18 309.986V263.609C763.77 263.609 763.77 461.318 507.361 461.318Z" fill="#F7BA1E"/>
<rect x="1020.18" y="519.898" width="21.822" height="7.32256" fill="#698F3F"/>
<path d="M47.432 126H45.56V121.328H40.008V126H38.136V115.328H40.008V119.68H45.56V115.328H47.432V126ZM56.0345 125.024C55.3092 125.803 54.3492 126.192 53.1545 126.192C51.9598 126.192 50.9998 125.803 50.2745 125.024C49.5492 124.235 49.1865 123.269 49.1865 122.128C49.1865 120.976 49.5492 120.016 50.2745 119.248C50.9998 118.469 51.9598 118.08 53.1545 118.08C54.3492 118.08 55.3092 118.469 56.0345 119.248C56.7598 120.016 57.1225 120.976 57.1225 122.128C57.1225 123.269 56.7598 124.235 56.0345 125.024ZM53.1545 124.704C53.8478 124.704 54.3918 124.459 54.7865 123.968C55.1812 123.467 55.3785 122.853 55.3785 122.128C55.3785 121.413 55.1812 120.811 54.7865 120.32C54.3918 119.819 53.8478 119.568 53.1545 119.568C52.4718 119.568 51.9278 119.819 51.5225 120.32C51.1278 120.811 50.9305 121.413 50.9305 122.128C50.9305 122.853 51.1278 123.467 51.5225 123.968C51.9278 124.459 52.4718 124.704 53.1545 124.704ZM70.006 126H68.326V120.96C68.326 120.032 67.8993 119.568 67.046 119.568C66.694 119.568 66.3527 119.669 66.022 119.872C65.6913 120.075 65.4353 120.315 65.254 120.592V126H63.574V120.96C63.574 120.032 63.1527 119.568 62.31 119.568C61.958 119.568 61.6167 119.669 61.286 119.872C60.966 120.075 60.71 120.315 60.518 120.592V126H58.838V118.272H60.518V119.312C60.7313 119.024 61.0727 118.747 61.542 118.48C62.0113 118.213 62.5127 118.08 63.046 118.08C63.6007 118.08 64.0593 118.208 64.422 118.464C64.7847 118.709 65.03 119.051 65.158 119.488C65.3927 119.115 65.75 118.789 66.23 118.512C66.7207 118.224 67.238 118.08 67.782 118.08C68.4967 118.08 69.046 118.277 69.43 118.672C69.814 119.067 70.006 119.648 70.006 120.416V126ZM73.8618 123.68C74.0538 123.979 74.3364 124.224 74.7098 124.416C75.0831 124.608 75.4671 124.704 75.8618 124.704C76.5231 124.704 77.0511 124.464 77.4458 123.984C77.8404 123.504 78.0378 122.885 78.0378 122.128C78.0378 121.371 77.8404 120.757 77.4458 120.288C77.0511 119.808 76.5231 119.568 75.8618 119.568C75.4671 119.568 75.0831 119.669 74.7098 119.872C74.3364 120.064 74.0538 120.309 73.8618 120.608V123.68ZM73.8618 126H72.1818V115.328H73.8618V119.344C74.4911 118.501 75.3178 118.08 76.3418 118.08C77.3551 118.08 78.1818 118.448 78.8218 119.184C79.4618 119.92 79.7818 120.901 79.7818 122.128C79.7818 123.387 79.4618 124.379 78.8218 125.104C78.1818 125.829 77.3551 126.192 76.3418 126.192C75.3284 126.192 74.5018 125.776 73.8618 124.944V126ZM83.1586 126H81.4786V118.272H83.1586V119.392C83.468 119.008 83.8413 118.693 84.2786 118.448C84.7266 118.203 85.1906 118.08 85.6706 118.08V119.744C85.5213 119.712 85.3506 119.696 85.1586 119.696C84.796 119.696 84.412 119.803 84.0066 120.016C83.612 120.219 83.3293 120.459 83.1586 120.736V126ZM90.6095 126.192C89.4255 126.192 88.4548 125.819 87.6975 125.072C86.9402 124.325 86.5615 123.344 86.5615 122.128C86.5615 120.997 86.9295 120.043 87.6655 119.264C88.4122 118.475 89.3508 118.08 90.4815 118.08C91.6228 118.08 92.5402 118.475 93.2335 119.264C93.9268 120.043 94.2735 121.045 94.2735 122.272V122.688H88.3215C88.3855 123.296 88.6362 123.803 89.0735 124.208C89.5108 124.613 90.0762 124.816 90.7695 124.816C91.6655 124.816 92.4015 124.528 92.9775 123.952L93.7455 125.056C92.9348 125.813 91.8895 126.192 90.6095 126.192ZM92.6575 121.488C92.6255 120.955 92.4228 120.485 92.0495 120.08C91.6868 119.664 91.1588 119.456 90.4655 119.456C89.8042 119.456 89.2868 119.664 88.9135 120.08C88.5402 120.485 88.3375 120.955 88.3055 121.488H92.6575ZM98.5878 126.192C97.2118 126.192 96.1078 125.787 95.2758 124.976L96.0438 123.776C96.3318 124.075 96.7158 124.331 97.1957 124.544C97.6864 124.747 98.1718 124.848 98.6518 124.848C99.1424 124.848 99.5211 124.757 99.7878 124.576C100.054 124.384 100.188 124.133 100.188 123.824C100.188 123.547 100.028 123.333 99.7078 123.184C99.3878 123.024 98.9984 122.901 98.5398 122.816C98.0811 122.72 97.6224 122.608 97.1638 122.48C96.7051 122.341 96.3158 122.101 95.9958 121.76C95.6758 121.419 95.5158 120.971 95.5158 120.416C95.5158 119.755 95.7878 119.2 96.3318 118.752C96.8758 118.304 97.6171 118.08 98.5558 118.08C99.7398 118.08 100.737 118.437 101.548 119.152L100.844 120.336C100.278 119.717 99.5158 119.408 98.5558 119.408C98.1291 119.408 97.7824 119.499 97.5158 119.68C97.2598 119.861 97.1318 120.091 97.1318 120.368C97.1318 120.613 97.2918 120.805 97.6118 120.944C97.9318 121.083 98.3211 121.2 98.7798 121.296C99.2384 121.381 99.6971 121.493 100.156 121.632C100.614 121.771 101.004 122.021 101.324 122.384C101.644 122.747 101.804 123.211 101.804 123.776C101.804 124.491 101.521 125.072 100.956 125.52C100.39 125.968 99.6011 126.192 98.5878 126.192Z" fill="#1A1A1A"/>
<path d="M527.457 45.156C526.157 45.156 525.074 44.74 524.207 43.908C523.341 43.0673 522.907 41.9883 522.907 40.671C522.907 39.3537 523.341 38.279 524.207 37.447C525.074 36.6063 526.157 36.186 527.457 36.186C528.983 36.186 530.14 36.8317 530.928 38.123L529.641 38.799C529.425 38.4263 529.117 38.123 528.718 37.889C528.328 37.655 527.908 37.538 527.457 37.538C526.599 37.538 525.884 37.8327 525.312 38.422C524.749 39.0113 524.467 39.761 524.467 40.671C524.467 41.5723 524.749 42.322 525.312 42.92C525.884 43.5093 526.599 43.804 527.457 43.804C527.908 43.804 528.328 43.687 528.718 43.453C529.117 43.2103 529.425 42.907 529.641 42.543L530.941 43.193C530.109 44.5017 528.948 45.156 527.457 45.156ZM537.892 45H536.527V44.142C536.007 44.818 535.335 45.156 534.512 45.156C533.697 45.156 533.03 44.8613 532.51 44.272C531.99 43.6827 531.73 42.8767 531.73 41.854C531.73 40.8573 531.99 40.06 532.51 39.462C533.03 38.864 533.697 38.565 534.512 38.565C535.344 38.565 536.015 38.9073 536.527 39.592V38.721H537.892V45ZM534.915 43.947C535.227 43.947 535.534 43.8647 535.838 43.7C536.141 43.5353 536.371 43.336 536.527 43.102V40.619C536.371 40.385 536.141 40.1857 535.838 40.021C535.534 39.8563 535.227 39.774 534.915 39.774C534.377 39.774 533.944 39.969 533.615 40.359C533.294 40.7403 533.134 41.2387 533.134 41.854C533.134 42.4693 533.294 42.972 533.615 43.362C533.944 43.752 534.377 43.947 534.915 43.947ZM541.818 45.156C540.7 45.156 539.803 44.8267 539.127 44.168L539.751 43.193C539.985 43.4357 540.297 43.6437 540.687 43.817C541.086 43.9817 541.48 44.064 541.87 44.064C542.269 44.064 542.577 43.9903 542.793 43.843C543.01 43.687 543.118 43.4833 543.118 43.232C543.118 43.0067 542.988 42.8333 542.728 42.712C542.468 42.582 542.152 42.4823 541.779 42.413C541.407 42.335 541.034 42.244 540.661 42.14C540.289 42.0273 539.972 41.8323 539.712 41.555C539.452 41.2777 539.322 40.9137 539.322 40.463C539.322 39.9257 539.543 39.475 539.985 39.111C540.427 38.747 541.03 38.565 541.792 38.565C542.754 38.565 543.565 38.8553 544.223 39.436L543.651 40.398C543.192 39.8953 542.572 39.644 541.792 39.644C541.446 39.644 541.164 39.7177 540.947 39.865C540.739 40.0123 540.635 40.1987 540.635 40.424C540.635 40.6233 540.765 40.7793 541.025 40.892C541.285 41.0047 541.602 41.1 541.974 41.178C542.347 41.2473 542.72 41.3383 543.092 41.451C543.465 41.5637 543.781 41.7673 544.041 42.062C544.301 42.3567 544.431 42.7337 544.431 43.193C544.431 43.7737 544.202 44.246 543.742 44.61C543.283 44.974 542.642 45.156 541.818 45.156ZM551.577 45H550.212V44.142C549.692 44.818 549.021 45.156 548.197 45.156C547.383 45.156 546.715 44.8613 546.195 44.272C545.675 43.6827 545.415 42.8767 545.415 41.854C545.415 40.8573 545.675 40.06 546.195 39.462C546.715 38.864 547.383 38.565 548.197 38.565C549.029 38.565 549.701 38.9073 550.212 39.592V38.721H551.577V45ZM548.6 43.947C548.912 43.947 549.22 43.8647 549.523 43.7C549.827 43.5353 550.056 43.336 550.212 43.102V40.619C550.056 40.385 549.827 40.1857 549.523 40.021C549.22 39.8563 548.912 39.774 548.6 39.774C548.063 39.774 547.63 39.969 547.3 40.359C546.98 40.7403 546.819 41.2387 546.819 41.854C546.819 42.4693 546.98 42.972 547.3 43.362C547.63 43.752 548.063 43.947 548.6 43.947Z" fill="#1A1A1A"/>
<path d="M531.097 129H529.368L528.731 127.323H524.753L524.116 129H522.387L525.793 120.329H527.691L531.097 129ZM528.302 125.984L526.742 121.85L525.182 125.984H528.302ZM535.372 129.156C534.566 129.156 533.895 128.814 533.357 128.129V131.392H531.992V122.721H533.357V123.579C533.86 122.903 534.532 122.565 535.372 122.565C536.196 122.565 536.863 122.86 537.374 123.449C537.894 124.038 538.154 124.84 538.154 125.854C538.154 126.868 537.894 127.674 537.374 128.272C536.863 128.861 536.196 129.156 535.372 129.156ZM534.969 127.947C535.507 127.947 535.936 127.752 536.256 127.362C536.586 126.972 536.75 126.469 536.75 125.854C536.75 125.239 536.586 124.74 536.256 124.359C535.936 123.969 535.507 123.774 534.969 123.774C534.657 123.774 534.35 123.856 534.046 124.021C533.743 124.177 533.513 124.372 533.357 124.606V127.089C533.513 127.332 533.743 127.535 534.046 127.7C534.35 127.865 534.657 127.947 534.969 127.947ZM545.306 129H543.941V128.142C543.421 128.818 542.749 129.156 541.926 129.156C541.111 129.156 540.444 128.861 539.924 128.272C539.404 127.683 539.144 126.877 539.144 125.854C539.144 124.857 539.404 124.06 539.924 123.462C540.444 122.864 541.111 122.565 541.926 122.565C542.758 122.565 543.429 122.907 543.941 123.592V122.721H545.306V129ZM542.329 127.947C542.641 127.947 542.948 127.865 543.252 127.7C543.555 127.535 543.785 127.336 543.941 127.102V124.619C543.785 124.385 543.555 124.186 543.252 124.021C542.948 123.856 542.641 123.774 542.329 123.774C541.791 123.774 541.358 123.969 541.029 124.359C540.708 124.74 540.548 125.239 540.548 125.854C540.548 126.469 540.708 126.972 541.029 127.362C541.358 127.752 541.791 127.947 542.329 127.947ZM548.439 129H547.074V122.721H548.439V123.631C548.691 123.319 548.994 123.063 549.349 122.864C549.713 122.665 550.09 122.565 550.48 122.565V123.917C550.359 123.891 550.22 123.878 550.064 123.878C549.77 123.878 549.458 123.965 549.128 124.138C548.808 124.303 548.578 124.498 548.439 124.723V129ZM553.479 129.156C552.405 129.156 551.867 128.614 551.867 127.531V123.904H550.827V122.721H551.867V121.005H553.232V122.721H554.506V123.904H553.232V127.193C553.232 127.418 553.284 127.6 553.388 127.739C553.492 127.878 553.64 127.947 553.83 127.947C554.09 127.947 554.29 127.869 554.428 127.713L554.753 128.753C554.45 129.022 554.025 129.156 553.479 129.156ZM561.518 129H560.153V128.142C559.633 128.818 558.961 129.156 558.138 129.156C557.323 129.156 556.656 128.861 556.136 128.272C555.616 127.683 555.356 126.877 555.356 125.854C555.356 124.857 555.616 124.06 556.136 123.462C556.656 122.864 557.323 122.565 558.138 122.565C558.97 122.565 559.641 122.907 560.153 123.592V122.721H561.518V129ZM558.541 127.947C558.853 127.947 559.16 127.865 559.464 127.7C559.767 127.535 559.997 127.336 560.153 127.102V124.619C559.997 124.385 559.767 124.186 559.464 124.021C559.16 123.856 558.853 123.774 558.541 123.774C558.003 123.774 557.57 123.969 557.241 124.359C556.92 124.74 556.76 125.239 556.76 125.854C556.76 126.469 556.92 126.972 557.241 127.362C557.57 127.752 558.003 127.947 558.541 127.947ZM572.36 129H570.995V124.905C570.995 124.151 570.649 123.774 569.955 123.774C569.669 123.774 569.392 123.856 569.123 124.021C568.855 124.186 568.647 124.381 568.499 124.606V129H567.134V124.905C567.134 124.151 566.792 123.774 566.107 123.774C565.821 123.774 565.544 123.856 565.275 124.021C565.015 124.186 564.807 124.381 564.651 124.606V129H563.286V122.721H564.651V123.566C564.825 123.332 565.102 123.107 565.483 122.89C565.865 122.673 566.272 122.565 566.705 122.565C567.156 122.565 567.529 122.669 567.823 122.877C568.118 123.076 568.317 123.354 568.421 123.709C568.612 123.406 568.902 123.141 569.292 122.916C569.691 122.682 570.111 122.565 570.553 122.565C571.134 122.565 571.58 122.725 571.892 123.046C572.204 123.367 572.36 123.839 572.36 124.463V129ZM577.04 129.156C576.078 129.156 575.289 128.853 574.674 128.246C574.059 127.639 573.751 126.842 573.751 125.854C573.751 124.935 574.05 124.16 574.648 123.527C575.255 122.886 576.017 122.565 576.936 122.565C577.863 122.565 578.609 122.886 579.172 123.527C579.735 124.16 580.017 124.974 580.017 125.971V126.309H575.181C575.233 126.803 575.437 127.215 575.792 127.544C576.147 127.873 576.607 128.038 577.17 128.038C577.898 128.038 578.496 127.804 578.964 127.336L579.588 128.233C578.929 128.848 578.08 129.156 577.04 129.156ZM578.704 125.334C578.678 124.901 578.513 124.519 578.21 124.19C577.915 123.852 577.486 123.683 576.923 123.683C576.386 123.683 575.965 123.852 575.662 124.19C575.359 124.519 575.194 124.901 575.168 125.334H578.704ZM586.98 129H585.615V125.074C585.615 124.606 585.503 124.272 585.277 124.073C585.061 123.874 584.749 123.774 584.341 123.774C584.021 123.774 583.717 123.856 583.431 124.021C583.145 124.177 582.911 124.372 582.729 124.606V129H581.364V122.721H582.729V123.566C582.963 123.289 583.275 123.055 583.665 122.864C584.064 122.665 584.493 122.565 584.952 122.565C585.62 122.565 586.122 122.738 586.46 123.085C586.807 123.432 586.98 123.93 586.98 124.58V129ZM590.651 129.156C589.576 129.156 589.039 128.614 589.039 127.531V123.904H587.999V122.721H589.039V121.005H590.404V122.721H591.678V123.904H590.404V127.193C590.404 127.418 590.456 127.6 590.56 127.739C590.664 127.878 590.811 127.947 591.002 127.947C591.262 127.947 591.461 127.869 591.6 127.713L591.925 128.753C591.622 129.022 591.197 129.156 590.651 129.156ZM598.092 128.207C597.502 128.84 596.722 129.156 595.752 129.156C594.781 129.156 594.001 128.84 593.412 128.207C592.822 127.566 592.528 126.781 592.528 125.854C592.528 124.918 592.822 124.138 593.412 123.514C594.001 122.881 594.781 122.565 595.752 122.565C596.722 122.565 597.502 122.881 598.092 123.514C598.681 124.138 598.976 124.918 598.976 125.854C598.976 126.781 598.681 127.566 598.092 128.207ZM595.752 127.947C596.315 127.947 596.757 127.748 597.078 127.349C597.398 126.942 597.559 126.443 597.559 125.854C597.559 125.273 597.398 124.784 597.078 124.385C596.757 123.978 596.315 123.774 595.752 123.774C595.197 123.774 594.755 123.978 594.426 124.385C594.105 124.784 593.945 125.273 593.945 125.854C593.945 126.443 594.105 126.942 594.426 127.349C594.755 127.748 595.197 127.947 595.752 127.947Z" fill="#1A1A1A"/>
<path d="M527.457 213.156C526.157 213.156 525.074 212.74 524.207 211.908C523.341 211.067 522.907 209.988 522.907 208.671C522.907 207.354 523.341 206.279 524.207 205.447C525.074 204.606 526.157 204.186 527.457 204.186C528.983 204.186 530.14 204.832 530.928 206.123L529.641 206.799C529.425 206.426 529.117 206.123 528.718 205.889C528.328 205.655 527.908 205.538 527.457 205.538C526.599 205.538 525.884 205.833 525.312 206.422C524.749 207.011 524.467 207.761 524.467 208.671C524.467 209.572 524.749 210.322 525.312 210.92C525.884 211.509 526.599 211.804 527.457 211.804C527.908 211.804 528.328 211.687 528.718 211.453C529.117 211.21 529.425 210.907 529.641 210.543L530.941 211.193C530.109 212.502 528.948 213.156 527.457 213.156ZM537.71 213H536.345V212.168C535.755 212.827 535.019 213.156 534.135 213.156C533.467 213.156 532.96 212.987 532.614 212.649C532.276 212.302 532.107 211.808 532.107 211.167V206.721H533.472V210.66C533.472 211.128 533.58 211.462 533.797 211.661C534.013 211.852 534.33 211.947 534.746 211.947C535.066 211.947 535.37 211.869 535.656 211.713C535.942 211.548 536.171 211.353 536.345 211.128V206.721H537.71V213ZM545.268 213H543.903V212.142C543.383 212.818 542.711 213.156 541.888 213.156C541.073 213.156 540.406 212.861 539.886 212.272C539.366 211.683 539.106 210.877 539.106 209.854C539.106 208.857 539.366 208.06 539.886 207.462C540.406 206.864 541.073 206.565 541.888 206.565C542.72 206.565 543.391 206.907 543.903 207.592V206.721H545.268V213ZM542.291 211.947C542.603 211.947 542.91 211.865 543.214 211.7C543.517 211.535 543.747 211.336 543.903 211.102V208.619C543.747 208.385 543.517 208.186 543.214 208.021C542.91 207.856 542.603 207.774 542.291 207.774C541.753 207.774 541.32 207.969 540.991 208.359C540.67 208.74 540.51 209.239 540.51 209.854C540.51 210.469 540.67 210.972 540.991 211.362C541.32 211.752 541.753 211.947 542.291 211.947ZM548.401 213H547.036V206.721H548.401V207.631C548.653 207.319 548.956 207.063 549.311 206.864C549.675 206.665 550.052 206.565 550.442 206.565V207.917C550.321 207.891 550.182 207.878 550.026 207.878C549.732 207.878 549.42 207.965 549.09 208.138C548.77 208.303 548.54 208.498 548.401 208.723V213ZM553.441 213.156C552.367 213.156 551.829 212.614 551.829 211.531V207.904H550.789V206.721H551.829V205.005H553.194V206.721H554.468V207.904H553.194V211.193C553.194 211.418 553.246 211.6 553.35 211.739C553.454 211.878 553.602 211.947 553.792 211.947C554.052 211.947 554.252 211.869 554.39 211.713L554.715 212.753C554.412 213.022 553.987 213.156 553.441 213.156ZM560.882 212.207C560.292 212.84 559.512 213.156 558.542 213.156C557.571 213.156 556.791 212.84 556.202 212.207C555.612 211.566 555.318 210.781 555.318 209.854C555.318 208.918 555.612 208.138 556.202 207.514C556.791 206.881 557.571 206.565 558.542 206.565C559.512 206.565 560.292 206.881 560.882 207.514C561.471 208.138 561.766 208.918 561.766 209.854C561.766 210.781 561.471 211.566 560.882 212.207ZM558.542 211.947C559.105 211.947 559.547 211.748 559.868 211.349C560.188 210.942 560.349 210.443 560.349 209.854C560.349 209.273 560.188 208.784 559.868 208.385C559.547 207.978 559.105 207.774 558.542 207.774C557.987 207.774 557.545 207.978 557.216 208.385C556.895 208.784 556.735 209.273 556.735 209.854C556.735 210.443 556.895 210.942 557.216 211.349C557.545 211.748 557.987 211.947 558.542 211.947ZM565.642 214.937L564.797 215.587C564.182 214.842 563.697 213.962 563.341 212.948C562.995 211.925 562.821 210.89 562.821 209.841C562.821 208.792 562.995 207.761 563.341 206.747C563.697 205.724 564.182 204.84 564.797 204.095L565.642 204.732C565.183 205.581 564.845 206.4 564.628 207.189C564.412 207.969 564.303 208.853 564.303 209.841C564.303 210.82 564.412 211.704 564.628 212.493C564.845 213.282 565.183 214.096 565.642 214.937ZM568.91 213.156C567.792 213.156 566.895 212.827 566.219 212.168L566.843 211.193C567.077 211.436 567.389 211.644 567.779 211.817C568.178 211.982 568.572 212.064 568.962 212.064C569.361 212.064 569.668 211.99 569.885 211.843C570.102 211.687 570.21 211.483 570.21 211.232C570.21 211.007 570.08 210.833 569.82 210.712C569.56 210.582 569.244 210.482 568.871 210.413C568.498 210.335 568.126 210.244 567.753 210.14C567.38 210.027 567.064 209.832 566.804 209.555C566.544 209.278 566.414 208.914 566.414 208.463C566.414 207.926 566.635 207.475 567.077 207.111C567.519 206.747 568.121 206.565 568.884 206.565C569.846 206.565 570.656 206.855 571.315 207.436L570.743 208.398C570.284 207.895 569.664 207.644 568.884 207.644C568.537 207.644 568.256 207.718 568.039 207.865C567.831 208.012 567.727 208.199 567.727 208.424C567.727 208.623 567.857 208.779 568.117 208.892C568.377 209.005 568.693 209.1 569.066 209.178C569.439 209.247 569.811 209.338 570.184 209.451C570.557 209.564 570.873 209.767 571.133 210.062C571.393 210.357 571.523 210.734 571.523 211.193C571.523 211.774 571.293 212.246 570.834 212.61C570.375 212.974 569.733 213.156 568.91 213.156ZM573.079 215.587L572.234 214.937C572.685 214.096 573.018 213.282 573.235 212.493C573.452 211.696 573.56 210.812 573.56 209.841C573.56 208.862 573.452 207.978 573.235 207.189C573.018 206.4 572.685 205.581 572.234 204.732L573.079 204.095C573.694 204.84 574.175 205.724 574.522 206.747C574.869 207.761 575.042 208.792 575.042 209.841C575.042 210.89 574.869 211.925 574.522 212.948C574.175 213.962 573.694 214.842 573.079 215.587ZM582.753 213.156C581.791 213.156 581.002 212.853 580.387 212.246C579.772 211.639 579.464 210.842 579.464 209.854C579.464 208.935 579.763 208.16 580.361 207.527C580.968 206.886 581.73 206.565 582.649 206.565C583.576 206.565 584.322 206.886 584.885 207.527C585.448 208.16 585.73 208.974 585.73 209.971V210.309H580.894C580.946 210.803 581.15 211.215 581.505 211.544C581.86 211.873 582.32 212.038 582.883 212.038C583.611 212.038 584.209 211.804 584.677 211.336L585.301 212.233C584.642 212.848 583.793 213.156 582.753 213.156ZM584.417 209.334C584.391 208.901 584.226 208.519 583.923 208.19C583.628 207.852 583.199 207.683 582.636 207.683C582.099 207.683 581.678 207.852 581.375 208.19C581.072 208.519 580.907 208.901 580.881 209.334H584.417ZM592.693 213H591.328V209.074C591.328 208.606 591.216 208.272 590.99 208.073C590.774 207.874 590.462 207.774 590.054 207.774C589.734 207.774 589.43 207.856 589.144 208.021C588.858 208.177 588.624 208.372 588.442 208.606V213H587.077V206.721H588.442V207.566C588.676 207.289 588.988 207.055 589.378 206.864C589.777 206.665 590.206 206.565 590.665 206.565C591.333 206.565 591.835 206.738 592.173 207.085C592.52 207.432 592.693 207.93 592.693 208.58V213ZM599.105 205.707C598.94 205.872 598.741 205.954 598.507 205.954C598.273 205.954 598.073 205.872 597.909 205.707C597.744 205.542 597.662 205.343 597.662 205.109C597.662 204.875 597.744 204.676 597.909 204.511C598.073 204.346 598.273 204.264 598.507 204.264C598.741 204.264 598.94 204.346 599.105 204.511C599.269 204.676 599.352 204.875 599.352 205.109C599.352 205.343 599.269 205.542 599.105 205.707ZM599.183 213H597.818V206.721H599.183V213ZM606.569 213H605.204V209.074C605.204 208.606 605.092 208.272 604.866 208.073C604.65 207.874 604.338 207.774 603.93 207.774C603.61 207.774 603.306 207.856 603.02 208.021C602.734 208.177 602.5 208.372 602.318 208.606V213H600.953V206.721H602.318V207.566C602.552 207.289 602.864 207.055 603.254 206.864C603.653 206.665 604.082 206.565 604.541 206.565C605.209 206.565 605.711 206.738 606.049 207.085C606.396 207.432 606.569 207.93 606.569 208.58V213ZM611.124 211.947C611.436 211.947 611.744 211.865 612.047 211.7C612.35 211.535 612.58 211.332 612.736 211.089V208.606C612.58 208.372 612.35 208.177 612.047 208.021C611.744 207.856 611.436 207.774 611.124 207.774C610.587 207.774 610.153 207.969 609.824 208.359C609.503 208.74 609.343 209.239 609.343 209.854C609.343 210.469 609.503 210.972 609.824 211.362C610.153 211.752 610.587 211.947 611.124 211.947ZM610.721 213.156C609.898 213.156 609.226 212.861 608.706 212.272C608.195 211.674 607.939 210.868 607.939 209.854C607.939 208.84 608.195 208.038 608.706 207.449C609.226 206.86 609.898 206.565 610.721 206.565C611.553 206.565 612.225 206.903 612.736 207.579V206.721H614.101V215.392H612.736V212.129C612.199 212.814 611.527 213.156 610.721 213.156ZM621.473 213H620.108V212.168C619.519 212.827 618.782 213.156 617.898 213.156C617.231 213.156 616.724 212.987 616.377 212.649C616.039 212.302 615.87 211.808 615.87 211.167V206.721H617.235V210.66C617.235 211.128 617.344 211.462 617.56 211.661C617.777 211.852 618.093 211.947 618.509 211.947C618.83 211.947 619.133 211.869 619.419 211.713C619.705 211.548 619.935 211.353 620.108 211.128V206.721H621.473V213ZM624.533 205.707C624.369 205.872 624.169 205.954 623.935 205.954C623.701 205.954 623.502 205.872 623.337 205.707C623.173 205.542 623.09 205.343 623.09 205.109C623.09 204.875 623.173 204.676 623.337 204.511C623.502 204.346 623.701 204.264 623.935 204.264C624.169 204.264 624.369 204.346 624.533 204.511C624.698 204.676 624.78 204.875 624.78 205.109C624.78 205.343 624.698 205.542 624.533 205.707ZM624.611 213H623.246V206.721H624.611V213ZM627.994 213.156C627.465 213.156 627.062 213.017 626.785 212.74C626.516 212.463 626.382 212.06 626.382 211.531V204.329H627.747V211.193C627.747 211.418 627.799 211.6 627.903 211.739C628.007 211.878 628.154 211.947 628.345 211.947C628.614 211.947 628.817 211.869 628.956 211.713L629.281 212.753C628.978 213.022 628.549 213.156 627.994 213.156ZM631.389 205.707C631.224 205.872 631.025 205.954 630.791 205.954C630.557 205.954 630.357 205.872 630.193 205.707C630.028 205.542 629.946 205.343 629.946 205.109C629.946 204.875 630.028 204.676 630.193 204.511C630.357 204.346 630.557 204.264 630.791 204.264C631.025 204.264 631.224 204.346 631.389 204.511C631.553 204.676 631.636 204.875 631.636 205.109C631.636 205.343 631.553 205.542 631.389 205.707ZM631.467 213H630.102V206.721H631.467V213ZM638.854 213H637.489V209.074C637.489 208.606 637.376 208.272 637.151 208.073C636.934 207.874 636.622 207.774 636.215 207.774C635.894 207.774 635.591 207.856 635.305 208.021C635.019 208.177 634.785 208.372 634.603 208.606V213H633.238V206.721H634.603V207.566C634.837 207.289 635.149 207.055 635.539 206.864C635.937 206.665 636.366 206.565 636.826 206.565C637.493 206.565 637.996 206.738 638.334 207.085C638.68 207.432 638.854 207.93 638.854 208.58V213ZM646.411 213H645.046V212.142C644.526 212.818 643.855 213.156 643.031 213.156C642.217 213.156 641.549 212.861 641.029 212.272C640.509 211.683 640.249 210.877 640.249 209.854C640.249 208.857 640.509 208.06 641.029 207.462C641.549 206.864 642.217 206.565 643.031 206.565C643.863 206.565 644.535 206.907 645.046 207.592V206.721H646.411V213ZM643.434 211.947C643.746 211.947 644.054 211.865 644.357 211.7C644.661 211.535 644.89 211.336 645.046 211.102V208.619C644.89 208.385 644.661 208.186 644.357 208.021C644.054 207.856 643.746 207.774 643.434 207.774C642.897 207.774 642.464 207.969 642.134 208.359C641.814 208.74 641.653 209.239 641.653 209.854C641.653 210.469 641.814 210.972 642.134 211.362C642.464 211.752 642.897 211.947 643.434 211.947ZM650.078 213.156C649.003 213.156 648.466 212.614 648.466 211.531V207.904H647.426V206.721H648.466V205.005H649.831V206.721H651.105V207.904H649.831V211.193C649.831 211.418 649.883 211.6 649.987 211.739C650.091 211.878 650.238 211.947 650.429 211.947C650.689 211.947 650.888 211.869 651.027 211.713L651.352 212.753C651.049 213.022 650.624 213.156 650.078 213.156ZM657.518 212.207C656.929 212.84 656.149 213.156 655.178 213.156C654.208 213.156 653.428 212.84 652.838 212.207C652.249 211.566 651.954 210.781 651.954 209.854C651.954 208.918 652.249 208.138 652.838 207.514C653.428 206.881 654.208 206.565 655.178 206.565C656.149 206.565 656.929 206.881 657.518 207.514C658.108 208.138 658.402 208.918 658.402 209.854C658.402 210.781 658.108 211.566 657.518 212.207ZM655.178 211.947C655.742 211.947 656.184 211.748 656.504 211.349C656.825 210.942 656.985 210.443 656.985 209.854C656.985 209.273 656.825 208.784 656.504 208.385C656.184 207.978 655.742 207.774 655.178 207.774C654.624 207.774 654.182 207.978 653.852 208.385C653.532 208.784 653.371 209.273 653.371 209.854C653.371 210.443 653.532 210.942 653.852 211.349C654.182 211.748 654.624 211.947 655.178 211.947Z" fill="#1A1A1A"/>
<path d="M527.457 297.156C526.157 297.156 525.074 296.74 524.207 295.908C523.341 295.067 522.907 293.988 522.907 292.671C522.907 291.354 523.341 290.279 524.207 289.447C525.074 288.606 526.157 288.186 527.457 288.186C528.983 288.186 530.14 288.832 530.928 290.123L529.641 290.799C529.425 290.426 529.117 290.123 528.718 289.889C528.328 289.655 527.908 289.538 527.457 289.538C526.599 289.538 525.884 289.833 525.312 290.422C524.749 291.011 524.467 291.761 524.467 292.671C524.467 293.572 524.749 294.322 525.312 294.92C525.884 295.509 526.599 295.804 527.457 295.804C527.908 295.804 528.328 295.687 528.718 295.453C529.117 295.21 529.425 294.907 529.641 294.543L530.941 295.193C530.109 296.502 528.948 297.156 527.457 297.156ZM537.71 297H536.345V296.168C535.755 296.827 535.019 297.156 534.135 297.156C533.467 297.156 532.96 296.987 532.614 296.649C532.276 296.302 532.107 295.808 532.107 295.167V290.721H533.472V294.66C533.472 295.128 533.58 295.462 533.797 295.661C534.013 295.852 534.33 295.947 534.746 295.947C535.066 295.947 535.37 295.869 535.656 295.713C535.942 295.548 536.171 295.353 536.345 295.128V290.721H537.71V297ZM545.268 297H543.903V296.142C543.383 296.818 542.711 297.156 541.888 297.156C541.073 297.156 540.406 296.861 539.886 296.272C539.366 295.683 539.106 294.877 539.106 293.854C539.106 292.857 539.366 292.06 539.886 291.462C540.406 290.864 541.073 290.565 541.888 290.565C542.72 290.565 543.391 290.907 543.903 291.592V290.721H545.268V297ZM542.291 295.947C542.603 295.947 542.91 295.865 543.214 295.7C543.517 295.535 543.747 295.336 543.903 295.102V292.619C543.747 292.385 543.517 292.186 543.214 292.021C542.91 291.856 542.603 291.774 542.291 291.774C541.753 291.774 541.32 291.969 540.991 292.359C540.67 292.74 540.51 293.239 540.51 293.854C540.51 294.469 540.67 294.972 540.991 295.362C541.32 295.752 541.753 295.947 542.291 295.947ZM548.401 297H547.036V290.721H548.401V291.631C548.653 291.319 548.956 291.063 549.311 290.864C549.675 290.665 550.052 290.565 550.442 290.565V291.917C550.321 291.891 550.182 291.878 550.026 291.878C549.732 291.878 549.42 291.965 549.09 292.138C548.77 292.303 548.54 292.498 548.401 292.723V297ZM553.441 297.156C552.367 297.156 551.829 296.614 551.829 295.531V291.904H550.789V290.721H551.829V289.005H553.194V290.721H554.468V291.904H553.194V295.193C553.194 295.418 553.246 295.6 553.35 295.739C553.454 295.878 553.602 295.947 553.792 295.947C554.052 295.947 554.252 295.869 554.39 295.713L554.715 296.753C554.412 297.022 553.987 297.156 553.441 297.156ZM560.882 296.207C560.292 296.84 559.512 297.156 558.542 297.156C557.571 297.156 556.791 296.84 556.202 296.207C555.612 295.566 555.318 294.781 555.318 293.854C555.318 292.918 555.612 292.138 556.202 291.514C556.791 290.881 557.571 290.565 558.542 290.565C559.512 290.565 560.292 290.881 560.882 291.514C561.471 292.138 561.766 292.918 561.766 293.854C561.766 294.781 561.471 295.566 560.882 296.207ZM558.542 295.947C559.105 295.947 559.547 295.748 559.868 295.349C560.188 294.942 560.349 294.443 560.349 293.854C560.349 293.273 560.188 292.784 559.868 292.385C559.547 291.978 559.105 291.774 558.542 291.774C557.987 291.774 557.545 291.978 557.216 292.385C556.895 292.784 556.735 293.273 556.735 293.854C556.735 294.443 556.895 294.942 557.216 295.349C557.545 295.748 557.987 295.947 558.542 295.947ZM565.642 298.937L564.797 299.587C564.182 298.842 563.697 297.962 563.341 296.948C562.995 295.925 562.821 294.89 562.821 293.841C562.821 292.792 562.995 291.761 563.341 290.747C563.697 289.724 564.182 288.84 564.797 288.095L565.642 288.732C565.183 289.581 564.845 290.4 564.628 291.189C564.412 291.969 564.303 292.853 564.303 293.841C564.303 294.82 564.412 295.704 564.628 296.493C564.845 297.282 565.183 298.096 565.642 298.937ZM568.91 297.156C567.792 297.156 566.895 296.827 566.219 296.168L566.843 295.193C567.077 295.436 567.389 295.644 567.779 295.817C568.178 295.982 568.572 296.064 568.962 296.064C569.361 296.064 569.668 295.99 569.885 295.843C570.102 295.687 570.21 295.483 570.21 295.232C570.21 295.007 570.08 294.833 569.82 294.712C569.56 294.582 569.244 294.482 568.871 294.413C568.498 294.335 568.126 294.244 567.753 294.14C567.38 294.027 567.064 293.832 566.804 293.555C566.544 293.278 566.414 292.914 566.414 292.463C566.414 291.926 566.635 291.475 567.077 291.111C567.519 290.747 568.121 290.565 568.884 290.565C569.846 290.565 570.656 290.855 571.315 291.436L570.743 292.398C570.284 291.895 569.664 291.644 568.884 291.644C568.537 291.644 568.256 291.718 568.039 291.865C567.831 292.012 567.727 292.199 567.727 292.424C567.727 292.623 567.857 292.779 568.117 292.892C568.377 293.005 568.693 293.1 569.066 293.178C569.439 293.247 569.811 293.338 570.184 293.451C570.557 293.564 570.873 293.767 571.133 294.062C571.393 294.357 571.523 294.734 571.523 295.193C571.523 295.774 571.293 296.246 570.834 296.61C570.375 296.974 569.733 297.156 568.91 297.156ZM573.079 299.587L572.234 298.937C572.685 298.096 573.018 297.282 573.235 296.493C573.452 295.696 573.56 294.812 573.56 293.841C573.56 292.862 573.452 291.978 573.235 291.189C573.018 290.4 572.685 289.581 572.234 288.732L573.079 288.095C573.694 288.84 574.175 289.724 574.522 290.747C574.869 291.761 575.042 292.792 575.042 293.841C575.042 294.89 574.869 295.925 574.522 296.948C574.175 297.962 573.694 298.842 573.079 299.587ZM582.753 297.156C581.791 297.156 581.002 296.853 580.387 296.246C579.772 295.639 579.464 294.842 579.464 293.854C579.464 292.935 579.763 292.16 580.361 291.527C580.968 290.886 581.73 290.565 582.649 290.565C583.576 290.565 584.322 290.886 584.885 291.527C585.448 292.16 585.73 292.974 585.73 293.971V294.309H580.894C580.946 294.803 581.15 295.215 581.505 295.544C581.86 295.873 582.32 296.038 582.883 296.038C583.611 296.038 584.209 295.804 584.677 295.336L585.301 296.233C584.642 296.848 583.793 297.156 582.753 297.156ZM584.417 293.334C584.391 292.901 584.226 292.519 583.923 292.19C583.628 291.852 583.199 291.683 582.636 291.683C582.099 291.683 581.678 291.852 581.375 292.19C581.072 292.519 580.907 292.901 580.881 293.334H584.417ZM592.693 297H591.328V293.074C591.328 292.606 591.216 292.272 590.99 292.073C590.774 291.874 590.462 291.774 590.054 291.774C589.734 291.774 589.43 291.856 589.144 292.021C588.858 292.177 588.624 292.372 588.442 292.606V297H587.077V290.721H588.442V291.566C588.676 291.289 588.988 291.055 589.378 290.864C589.777 290.665 590.206 290.565 590.665 290.565C591.333 290.565 591.835 290.738 592.173 291.085C592.52 291.432 592.693 291.93 592.693 292.58V297ZM603.005 296.207C602.415 296.84 601.635 297.156 600.665 297.156C599.694 297.156 598.914 296.84 598.325 296.207C597.735 295.566 597.441 294.781 597.441 293.854C597.441 292.918 597.735 292.138 598.325 291.514C598.914 290.881 599.694 290.565 600.665 290.565C601.635 290.565 602.415 290.881 603.005 291.514C603.594 292.138 603.889 292.918 603.889 293.854C603.889 294.781 603.594 295.566 603.005 296.207ZM600.665 295.947C601.228 295.947 601.67 295.748 601.991 295.349C602.311 294.942 602.472 294.443 602.472 293.854C602.472 293.273 602.311 292.784 601.991 292.385C601.67 291.978 601.228 291.774 600.665 291.774C600.11 291.774 599.668 291.978 599.339 292.385C599.018 292.784 598.858 293.273 598.858 293.854C598.858 294.443 599.018 294.942 599.339 295.349C599.668 295.748 600.11 295.947 600.665 295.947ZM607.18 297.156C606.106 297.156 605.568 296.614 605.568 295.531V291.904H604.528V290.721H605.568V289.005H606.933V290.721H608.207V291.904H606.933V295.193C606.933 295.418 606.985 295.6 607.089 295.739C607.193 295.878 607.341 295.947 607.531 295.947C607.791 295.947 607.991 295.869 608.129 295.713L608.454 296.753C608.151 297.022 607.726 297.156 607.18 297.156ZM610.799 297H609.434V290.721H610.799V291.631C611.05 291.319 611.353 291.063 611.709 290.864C612.073 290.665 612.45 290.565 612.84 290.565V291.917C612.718 291.891 612.58 291.878 612.424 291.878C612.129 291.878 611.817 291.965 611.488 292.138C611.167 292.303 610.937 292.498 610.799 292.723V297ZM619.128 296.207C618.538 296.84 617.758 297.156 616.788 297.156C615.817 297.156 615.037 296.84 614.448 296.207C613.858 295.566 613.564 294.781 613.564 293.854C613.564 292.918 613.858 292.138 614.448 291.514C615.037 290.881 615.817 290.565 616.788 290.565C617.758 290.565 618.538 290.881 619.128 291.514C619.717 292.138 620.012 292.918 620.012 293.854C620.012 294.781 619.717 295.566 619.128 296.207ZM616.788 295.947C617.351 295.947 617.793 295.748 618.114 295.349C618.434 294.942 618.595 294.443 618.595 293.854C618.595 293.273 618.434 292.784 618.114 292.385C617.793 291.978 617.351 291.774 616.788 291.774C616.233 291.774 615.791 291.978 615.462 292.385C615.141 292.784 614.981 293.273 614.981 293.854C614.981 294.443 615.141 294.942 615.462 295.349C615.791 295.748 616.233 295.947 616.788 295.947ZM626.655 297.156C625.58 297.156 625.043 296.614 625.043 295.531V291.904H624.003V290.721H625.043V289.005H626.408V290.721H627.682V291.904H626.408V295.193C626.408 295.418 626.46 295.6 626.564 295.739C626.668 295.878 626.815 295.947 627.006 295.947C627.266 295.947 627.465 295.869 627.604 295.713L627.929 296.753C627.626 297.022 627.201 297.156 626.655 297.156ZM630.195 289.707C630.031 289.872 629.831 289.954 629.597 289.954C629.363 289.954 629.164 289.872 628.999 289.707C628.835 289.542 628.752 289.343 628.752 289.109C628.752 288.875 628.835 288.676 628.999 288.511C629.164 288.346 629.363 288.264 629.597 288.264C629.831 288.264 630.031 288.346 630.195 288.511C630.36 288.676 630.442 288.875 630.442 289.109C630.442 289.343 630.36 289.542 630.195 289.707ZM630.273 297H628.908V290.721H630.273V297ZM635.424 297.156C634.618 297.156 633.946 296.814 633.409 296.129V299.392H632.044V290.721H633.409V291.579C633.912 290.903 634.583 290.565 635.424 290.565C636.247 290.565 636.915 290.86 637.426 291.449C637.946 292.038 638.206 292.84 638.206 293.854C638.206 294.868 637.946 295.674 637.426 296.272C636.915 296.861 636.247 297.156 635.424 297.156ZM635.021 295.947C635.558 295.947 635.987 295.752 636.308 295.362C636.637 294.972 636.802 294.469 636.802 293.854C636.802 293.239 636.637 292.74 636.308 292.359C635.987 291.969 635.558 291.774 635.021 291.774C634.709 291.774 634.401 291.856 634.098 292.021C633.795 292.177 633.565 292.372 633.409 292.606V295.089C633.565 295.332 633.795 295.535 634.098 295.7C634.401 295.865 634.709 295.947 635.021 295.947ZM644.759 296.207C644.17 296.84 643.39 297.156 642.419 297.156C641.449 297.156 640.669 296.84 640.079 296.207C639.49 295.566 639.195 294.781 639.195 293.854C639.195 292.918 639.49 292.138 640.079 291.514C640.669 290.881 641.449 290.565 642.419 290.565C643.39 290.565 644.17 290.881 644.759 291.514C645.349 292.138 645.643 292.918 645.643 293.854C645.643 294.781 645.349 295.566 644.759 296.207ZM642.419 295.947C642.983 295.947 643.425 295.748 643.745 295.349C644.066 294.942 644.226 294.443 644.226 293.854C644.226 293.273 644.066 292.784 643.745 292.385C643.425 291.978 642.983 291.774 642.419 291.774C641.865 291.774 641.423 291.978 641.093 292.385C640.773 292.784 640.612 293.273 640.612 293.854C640.612 294.443 640.773 294.942 641.093 295.349C641.423 295.748 641.865 295.947 642.419 295.947ZM656.174 297H654.809V296.142C654.289 296.818 653.617 297.156 652.794 297.156C651.979 297.156 651.312 296.861 650.792 296.272C650.272 295.683 650.012 294.877 650.012 293.854C650.012 292.857 650.272 292.06 650.792 291.462C651.312 290.864 651.979 290.565 652.794 290.565C653.635 290.565 654.306 290.907 654.809 291.592V288.329H656.174V297ZM653.197 295.947C653.509 295.947 653.817 295.865 654.12 295.7C654.423 295.535 654.653 295.336 654.809 295.102V292.619C654.653 292.385 654.423 292.186 654.12 292.021C653.817 291.856 653.509 291.774 653.197 291.774C652.66 291.774 652.226 291.969 651.897 292.359C651.576 292.74 651.416 293.239 651.416 293.854C651.416 294.469 651.576 294.972 651.897 295.362C652.226 295.752 652.66 295.947 653.197 295.947ZM660.855 297.156C659.893 297.156 659.104 296.853 658.489 296.246C657.873 295.639 657.566 294.842 657.566 293.854C657.566 292.935 657.865 292.16 658.463 291.527C659.069 290.886 659.832 290.565 660.751 290.565C661.678 290.565 662.423 290.886 662.987 291.527C663.55 292.16 663.832 292.974 663.832 293.971V294.309H658.996C659.048 294.803 659.251 295.215 659.607 295.544C659.962 295.873 660.421 296.038 660.985 296.038C661.713 296.038 662.311 295.804 662.779 295.336L663.403 296.233C662.744 296.848 661.895 297.156 660.855 297.156ZM662.519 293.334C662.493 292.901 662.328 292.519 662.025 292.19C661.73 291.852 661.301 291.683 660.738 291.683C660.2 291.683 659.78 291.852 659.477 292.19C659.173 292.519 659.009 292.901 658.983 293.334H662.519ZM671.442 297.156C670.48 297.156 669.692 296.853 669.076 296.246C668.461 295.639 668.153 294.842 668.153 293.854C668.153 292.935 668.452 292.16 669.05 291.527C669.657 290.886 670.42 290.565 671.338 290.565C672.266 290.565 673.011 290.886 673.574 291.527C674.138 292.16 674.419 292.974 674.419 293.971V294.309H669.583C669.635 294.803 669.839 295.215 670.194 295.544C670.55 295.873 671.009 296.038 671.572 296.038C672.3 296.038 672.898 295.804 673.366 295.336L673.99 296.233C673.332 296.848 672.482 297.156 671.442 297.156ZM673.106 293.334C673.08 292.901 672.916 292.519 672.612 292.19C672.318 291.852 671.889 291.683 671.325 291.683C670.788 291.683 670.368 291.852 670.064 292.19C669.761 292.519 669.596 292.901 669.57 293.334H673.106ZM677.925 297.156C676.807 297.156 675.91 296.827 675.234 296.168L675.858 295.193C676.092 295.436 676.404 295.644 676.794 295.817C677.192 295.982 677.587 296.064 677.977 296.064C678.375 296.064 678.683 295.99 678.9 295.843C679.116 295.687 679.225 295.483 679.225 295.232C679.225 295.007 679.095 294.833 678.835 294.712C678.575 294.582 678.258 294.482 677.886 294.413C677.513 294.335 677.14 294.244 676.768 294.14C676.395 294.027 676.079 293.832 675.819 293.555C675.559 293.278 675.429 292.914 675.429 292.463C675.429 291.926 675.65 291.475 676.092 291.111C676.534 290.747 677.136 290.565 677.899 290.565C678.861 290.565 679.671 290.855 680.33 291.436L679.758 292.398C679.298 291.895 678.679 291.644 677.899 291.644C677.552 291.644 677.27 291.718 677.054 291.865C676.846 292.012 676.742 292.199 676.742 292.424C676.742 292.623 676.872 292.779 677.132 292.892C677.392 293.005 677.708 293.1 678.081 293.178C678.453 293.247 678.826 293.338 679.199 293.451C679.571 293.564 679.888 293.767 680.148 294.062C680.408 294.357 680.538 294.734 680.538 295.193C680.538 295.774 680.308 296.246 679.849 296.61C679.389 296.974 678.748 297.156 677.925 297.156ZM683.797 297.156C682.722 297.156 682.185 296.614 682.185 295.531V291.904H681.145V290.721H682.185V289.005H683.55V290.721H684.824V291.904H683.55V295.193C683.55 295.418 683.602 295.6 683.706 295.739C683.81 295.878 683.957 295.947 684.148 295.947C684.408 295.947 684.607 295.869 684.746 295.713L685.071 296.753C684.767 297.022 684.343 297.156 683.797 297.156ZM687.415 297H686.05V290.721H687.415V291.631C687.666 291.319 687.97 291.063 688.325 290.864C688.689 290.665 689.066 290.565 689.456 290.565V291.917C689.335 291.891 689.196 291.878 689.04 291.878C688.745 291.878 688.433 291.965 688.104 292.138C687.783 292.303 687.554 292.498 687.415 292.723V297ZM696.16 297H694.795V296.168C694.206 296.827 693.469 297.156 692.585 297.156C691.918 297.156 691.411 296.987 691.064 296.649C690.726 296.302 690.557 295.808 690.557 295.167V290.721H691.922V294.66C691.922 295.128 692.03 295.462 692.247 295.661C692.464 295.852 692.78 295.947 693.196 295.947C693.517 295.947 693.82 295.869 694.106 295.713C694.392 295.548 694.622 295.353 694.795 295.128V290.721H696.16V297ZM700.793 297.156C699.848 297.156 699.072 296.844 698.466 296.22C697.859 295.596 697.556 294.807 697.556 293.854C697.556 292.901 697.859 292.116 698.466 291.501C699.072 290.877 699.848 290.565 700.793 290.565C701.841 290.565 702.643 290.938 703.198 291.683L702.301 292.502C701.954 292.017 701.473 291.774 700.858 291.774C700.294 291.774 699.835 291.969 699.48 292.359C699.133 292.74 698.96 293.239 698.96 293.854C698.96 294.469 699.133 294.972 699.48 295.362C699.835 295.752 700.294 295.947 700.858 295.947C701.464 295.947 701.945 295.696 702.301 295.193L703.198 296.038C702.634 296.783 701.833 297.156 700.793 297.156ZM706.305 297.156C705.231 297.156 704.693 296.614 704.693 295.531V291.904H703.653V290.721H704.693V289.005H706.058V290.721H707.332V291.904H706.058V295.193C706.058 295.418 706.11 295.6 706.214 295.739C706.318 295.878 706.466 295.947 706.656 295.947C706.916 295.947 707.116 295.869 707.254 295.713L707.579 296.753C707.276 297.022 706.851 297.156 706.305 297.156ZM714.162 297H712.797V296.168C712.207 296.827 711.471 297.156 710.587 297.156C709.919 297.156 709.412 296.987 709.066 296.649C708.728 296.302 708.559 295.808 708.559 295.167V290.721H709.924V294.66C709.924 295.128 710.032 295.462 710.249 295.661C710.465 295.852 710.782 295.947 711.198 295.947C711.518 295.947 711.822 295.869 712.108 295.713C712.394 295.548 712.623 295.353 712.797 295.128V290.721H714.162V297ZM717.3 297H715.935V290.721H717.3V291.631C717.551 291.319 717.854 291.063 718.21 290.864C718.574 290.665 718.951 290.565 719.341 290.565V291.917C719.219 291.891 719.081 291.878 718.925 291.878C718.63 291.878 718.318 291.965 717.989 292.138C717.668 292.303 717.438 292.498 717.3 292.723V297ZM726.227 297H724.862V296.142C724.342 296.818 723.67 297.156 722.847 297.156C722.032 297.156 721.365 296.861 720.845 296.272C720.325 295.683 720.065 294.877 720.065 293.854C720.065 292.857 720.325 292.06 720.845 291.462C721.365 290.864 722.032 290.565 722.847 290.565C723.679 290.565 724.35 290.907 724.862 291.592V290.721H726.227V297ZM723.25 295.947C723.562 295.947 723.869 295.865 724.173 295.7C724.476 295.535 724.706 295.336 724.862 295.102V292.619C724.706 292.385 724.476 292.186 724.173 292.021C723.869 291.856 723.562 291.774 723.25 291.774C722.712 291.774 722.279 291.969 721.95 292.359C721.629 292.74 721.469 293.239 721.469 293.854C721.469 294.469 721.629 294.972 721.95 295.362C722.279 295.752 722.712 295.947 723.25 295.947Z" fill="#1A1A1A"/>
<path d="M527.691 380H525.793L522.387 371.329H524.116L526.742 378.336L529.368 371.329H531.097L527.691 380ZM533.279 372.707C533.115 372.872 532.915 372.954 532.681 372.954C532.447 372.954 532.248 372.872 532.083 372.707C531.919 372.542 531.836 372.343 531.836 372.109C531.836 371.875 531.919 371.676 532.083 371.511C532.248 371.346 532.447 371.264 532.681 371.264C532.915 371.264 533.115 371.346 533.279 371.511C533.444 371.676 533.526 371.875 533.526 372.109C533.526 372.343 533.444 372.542 533.279 372.707ZM533.357 380H531.992V373.721H533.357V380ZM538.248 380H536.779L534.218 373.721H535.687L537.52 378.427L539.353 373.721H540.809L538.248 380ZM542.953 372.707C542.789 372.872 542.589 372.954 542.355 372.954C542.121 372.954 541.922 372.872 541.757 372.707C541.593 372.542 541.51 372.343 541.51 372.109C541.51 371.875 541.593 371.676 541.757 371.511C541.922 371.346 542.121 371.264 542.355 371.264C542.589 371.264 542.789 371.346 542.953 371.511C543.118 371.676 543.2 371.875 543.2 372.109C543.2 372.343 543.118 372.542 542.953 372.707ZM543.031 380H541.666V373.721H543.031V380ZM547.714 380.156C546.752 380.156 545.963 379.853 545.348 379.246C544.733 378.639 544.425 377.842 544.425 376.854C544.425 375.935 544.724 375.16 545.322 374.527C545.929 373.886 546.691 373.565 547.61 373.565C548.537 373.565 549.283 373.886 549.846 374.527C550.409 375.16 550.691 375.974 550.691 376.971V377.309H545.855C545.907 377.803 546.111 378.215 546.466 378.544C546.821 378.873 547.281 379.038 547.844 379.038C548.572 379.038 549.17 378.804 549.638 378.336L550.262 379.233C549.603 379.848 548.754 380.156 547.714 380.156ZM549.378 376.334C549.352 375.901 549.187 375.519 548.884 375.19C548.589 374.852 548.16 374.683 547.597 374.683C547.06 374.683 546.639 374.852 546.336 375.19C546.033 375.519 545.868 375.901 545.842 376.334H549.378ZM557.654 380H556.289V376.074C556.289 375.606 556.177 375.272 555.951 375.073C555.735 374.874 555.423 374.774 555.015 374.774C554.695 374.774 554.391 374.856 554.105 375.021C553.819 375.177 553.585 375.372 553.403 375.606V380H552.038V373.721H553.403V374.566C553.637 374.289 553.949 374.055 554.339 373.864C554.738 373.665 555.167 373.565 555.626 373.565C556.294 373.565 556.796 373.738 557.134 374.085C557.481 374.432 557.654 374.93 557.654 375.58V380ZM565.212 380H563.847V379.142C563.327 379.818 562.655 380.156 561.832 380.156C561.017 380.156 560.35 379.861 559.83 379.272C559.31 378.683 559.05 377.877 559.05 376.854C559.05 375.857 559.31 375.06 559.83 374.462C560.35 373.864 561.017 373.565 561.832 373.565C562.673 373.565 563.344 373.907 563.847 374.592V371.329H565.212V380ZM562.235 378.947C562.547 378.947 562.855 378.865 563.158 378.7C563.461 378.535 563.691 378.336 563.847 378.102V375.619C563.691 375.385 563.461 375.186 563.158 375.021C562.855 374.856 562.547 374.774 562.235 374.774C561.698 374.774 561.264 374.969 560.935 375.359C560.614 375.74 560.454 376.239 560.454 376.854C560.454 377.469 560.614 377.972 560.935 378.362C561.264 378.752 561.698 378.947 562.235 378.947ZM572.766 380H571.401V379.142C570.881 379.818 570.209 380.156 569.386 380.156C568.571 380.156 567.904 379.861 567.384 379.272C566.864 378.683 566.604 377.877 566.604 376.854C566.604 375.857 566.864 375.06 567.384 374.462C567.904 373.864 568.571 373.565 569.386 373.565C570.218 373.565 570.889 373.907 571.401 374.592V373.721H572.766V380ZM569.789 378.947C570.101 378.947 570.408 378.865 570.712 378.7C571.015 378.535 571.245 378.336 571.401 378.102V375.619C571.245 375.385 571.015 375.186 570.712 375.021C570.408 374.856 570.101 374.774 569.789 374.774C569.251 374.774 568.818 374.969 568.489 375.359C568.168 375.74 568.008 376.239 568.008 376.854C568.008 377.469 568.168 377.972 568.489 378.362C568.818 378.752 569.251 378.947 569.789 378.947ZM579.173 372.707C579.008 372.872 578.809 372.954 578.575 372.954C578.341 372.954 578.142 372.872 577.977 372.707C577.812 372.542 577.73 372.343 577.73 372.109C577.73 371.875 577.812 371.676 577.977 371.511C578.142 371.346 578.341 371.264 578.575 371.264C578.809 371.264 579.008 371.346 579.173 371.511C579.338 371.676 579.42 371.875 579.42 372.109C579.42 372.343 579.338 372.542 579.173 372.707ZM579.251 380H577.886V373.721H579.251V380ZM586.638 380H585.273V376.074C585.273 375.606 585.16 375.272 584.935 375.073C584.718 374.874 584.406 374.774 583.999 374.774C583.678 374.774 583.375 374.856 583.089 375.021C582.803 375.177 582.569 375.372 582.387 375.606V380H581.022V373.721H582.387V374.566C582.621 374.289 582.933 374.055 583.323 373.864C583.721 373.665 584.15 373.565 584.61 373.565C585.277 373.565 585.78 373.738 586.118 374.085C586.464 374.432 586.638 374.93 586.638 375.58V380ZM594.195 380H592.83V379.142C592.31 379.818 591.639 380.156 590.815 380.156C590.001 380.156 589.333 379.861 588.813 379.272C588.293 378.683 588.033 377.877 588.033 376.854C588.033 375.857 588.293 375.06 588.813 374.462C589.333 373.864 590.001 373.565 590.815 373.565C591.656 373.565 592.328 373.907 592.83 374.592V371.329H594.195V380ZM591.218 378.947C591.53 378.947 591.838 378.865 592.141 378.7C592.445 378.535 592.674 378.336 592.83 378.102V375.619C592.674 375.385 592.445 375.186 592.141 375.021C591.838 374.856 591.53 374.774 591.218 374.774C590.681 374.774 590.248 374.969 589.918 375.359C589.598 375.74 589.437 376.239 589.437 376.854C589.437 377.469 589.598 377.972 589.918 378.362C590.248 378.752 590.681 378.947 591.218 378.947ZM598.798 370.9L596.653 372.772H595.678L597.498 370.9H598.798ZM597.329 380H595.964V373.721H597.329V380ZM601.661 382.548C600.595 382.548 599.715 382.236 599.022 381.612L599.659 380.624C600.135 381.161 600.803 381.43 601.661 381.43C602.181 381.43 602.618 381.291 602.974 381.014C603.338 380.737 603.52 380.29 603.52 379.675V378.96C602.991 379.662 602.319 380.013 601.505 380.013C600.681 380.013 600.01 379.727 599.49 379.155C598.978 378.583 598.723 377.794 598.723 376.789C598.723 375.784 598.978 374.995 599.49 374.423C600.001 373.851 600.673 373.565 601.505 373.565C602.337 373.565 603.008 373.907 603.52 374.592V373.721H604.885V379.675C604.885 380.212 604.789 380.676 604.599 381.066C604.417 381.465 604.161 381.764 603.832 381.963C603.511 382.171 603.173 382.318 602.818 382.405C602.462 382.5 602.077 382.548 601.661 382.548ZM601.908 378.791C602.22 378.791 602.523 378.713 602.818 378.557C603.121 378.392 603.355 378.193 603.52 377.959V375.606C603.355 375.372 603.121 375.177 602.818 375.021C602.523 374.856 602.22 374.774 601.908 374.774C601.362 374.774 600.928 374.96 600.608 375.333C600.287 375.697 600.127 376.182 600.127 376.789C600.127 377.396 600.287 377.881 600.608 378.245C600.928 378.609 601.362 378.791 601.908 378.791ZM609.566 380.156C608.604 380.156 607.815 379.853 607.2 379.246C606.584 378.639 606.277 377.842 606.277 376.854C606.277 375.935 606.576 375.16 607.174 374.527C607.78 373.886 608.543 373.565 609.462 373.565C610.389 373.565 611.134 373.886 611.698 374.527C612.261 375.16 612.543 375.974 612.543 376.971V377.309H607.707C607.759 377.803 607.962 378.215 608.318 378.544C608.673 378.873 609.132 379.038 609.696 379.038C610.424 379.038 611.022 378.804 611.49 378.336L612.114 379.233C611.455 379.848 610.606 380.156 609.566 380.156ZM611.23 376.334C611.204 375.901 611.039 375.519 610.736 375.19C610.441 374.852 610.012 374.683 609.449 374.683C608.911 374.683 608.491 374.852 608.188 375.19C607.884 375.519 607.72 375.901 607.694 376.334H611.23ZM619.506 380H618.141V376.074C618.141 375.606 618.028 375.272 617.803 375.073C617.586 374.874 617.274 374.774 616.867 374.774C616.546 374.774 616.243 374.856 615.957 375.021C615.671 375.177 615.437 375.372 615.255 375.606V380H613.89V373.721H615.255V374.566C615.489 374.289 615.801 374.055 616.191 373.864C616.59 373.665 617.019 373.565 617.478 373.565C618.145 373.565 618.648 373.738 618.986 374.085C619.333 374.432 619.506 374.93 619.506 375.58V380ZM627.064 380H625.699V379.142C625.179 379.818 624.507 380.156 623.684 380.156C622.869 380.156 622.202 379.861 621.682 379.272C621.162 378.683 620.902 377.877 620.902 376.854C620.902 375.857 621.162 375.06 621.682 374.462C622.202 373.864 622.869 373.565 623.684 373.565C624.516 373.565 625.187 373.907 625.699 374.592V373.721H627.064V380ZM624.087 378.947C624.399 378.947 624.706 378.865 625.01 378.7C625.313 378.535 625.543 378.336 625.699 378.102V375.619C625.543 375.385 625.313 375.186 625.01 375.021C624.706 374.856 624.399 374.774 624.087 374.774C623.549 374.774 623.116 374.969 622.787 375.359C622.466 375.74 622.306 376.239 622.306 376.854C622.306 377.469 622.466 377.972 622.787 378.362C623.116 378.752 623.549 378.947 624.087 378.947Z" fill="#1A1A1A"/>
<path d="M530.164 455.895C529.332 456.736 528.27 457.156 526.979 457.156C525.688 457.156 524.626 456.736 523.794 455.895C522.962 455.046 522.546 453.971 522.546 452.671C522.546 451.371 522.962 450.301 523.794 449.46C524.626 448.611 525.688 448.186 526.979 448.186C528.27 448.186 529.332 448.611 530.164 449.46C530.996 450.301 531.412 451.371 531.412 452.671C531.412 453.971 530.996 455.046 530.164 455.895ZM526.979 455.804C527.837 455.804 528.53 455.509 529.059 454.92C529.588 454.322 529.852 453.572 529.852 452.671C529.852 451.761 529.588 451.011 529.059 450.422C528.53 449.833 527.837 449.538 526.979 449.538C526.112 449.538 525.415 449.833 524.886 450.422C524.366 451.011 524.106 451.761 524.106 452.671C524.106 453.581 524.366 454.331 524.886 454.92C525.415 455.509 526.112 455.804 526.979 455.804ZM534.722 457.156C533.648 457.156 533.11 456.614 533.11 455.531V451.904H532.07V450.721H533.11V449.005H534.475V450.721H535.749V451.904H534.475V455.193C534.475 455.418 534.527 455.6 534.631 455.739C534.735 455.878 534.883 455.947 535.073 455.947C535.333 455.947 535.533 455.869 535.671 455.713L535.996 456.753C535.693 457.022 535.268 457.156 534.722 457.156ZM538.341 457H536.976V450.721H538.341V451.631C538.592 451.319 538.895 451.063 539.251 450.864C539.615 450.665 539.992 450.565 540.382 450.565V451.917C540.26 451.891 540.122 451.878 539.966 451.878C539.671 451.878 539.359 451.965 539.03 452.138C538.709 452.303 538.479 452.498 538.341 452.723V457ZM547.268 457H545.903V456.142C545.383 456.818 544.711 457.156 543.888 457.156C543.073 457.156 542.406 456.861 541.886 456.272C541.366 455.683 541.106 454.877 541.106 453.854C541.106 452.857 541.366 452.06 541.886 451.462C542.406 450.864 543.073 450.565 543.888 450.565C544.72 450.565 545.391 450.907 545.903 451.592V450.721H547.268V457ZM544.291 455.947C544.603 455.947 544.91 455.865 545.214 455.7C545.517 455.535 545.747 455.336 545.903 455.102V452.619C545.747 452.385 545.517 452.186 545.214 452.021C544.91 451.856 544.603 451.774 544.291 451.774C543.753 451.774 543.32 451.969 542.991 452.359C542.67 452.74 542.51 453.239 542.51 453.854C542.51 454.469 542.67 454.972 542.991 455.362C543.32 455.752 543.753 455.947 544.291 455.947ZM555.508 457H554.039L551.478 450.721H552.947L554.78 455.427L556.613 450.721H558.069L555.508 457ZM560.213 449.707C560.048 449.872 559.849 449.954 559.615 449.954C559.381 449.954 559.182 449.872 559.017 449.707C558.852 449.542 558.77 449.343 558.77 449.109C558.77 448.875 558.852 448.676 559.017 448.511C559.182 448.346 559.381 448.264 559.615 448.264C559.849 448.264 560.048 448.346 560.213 448.511C560.378 448.676 560.46 448.875 560.46 449.109C560.46 449.343 560.378 449.542 560.213 449.707ZM560.291 457H558.926V450.721H560.291V457ZM565.182 457H563.713L561.152 450.721H562.621L564.454 455.427L566.287 450.721H567.743L565.182 457ZM569.887 449.707C569.722 449.872 569.523 449.954 569.289 449.954C569.055 449.954 568.855 449.872 568.691 449.707C568.526 449.542 568.444 449.343 568.444 449.109C568.444 448.875 568.526 448.676 568.691 448.511C568.855 448.346 569.055 448.264 569.289 448.264C569.523 448.264 569.722 448.346 569.887 448.511C570.051 448.676 570.134 448.875 570.134 449.109C570.134 449.343 570.051 449.542 569.887 449.707ZM569.965 457H568.6V450.721H569.965V457ZM574.648 457.156C573.686 457.156 572.897 456.853 572.282 456.246C571.666 455.639 571.359 454.842 571.359 453.854C571.359 452.935 571.658 452.16 572.256 451.527C572.862 450.886 573.625 450.565 574.544 450.565C575.471 450.565 576.216 450.886 576.78 451.527C577.343 452.16 577.625 452.974 577.625 453.971V454.309H572.789C572.841 454.803 573.044 455.215 573.4 455.544C573.755 455.873 574.214 456.038 574.778 456.038C575.506 456.038 576.104 455.804 576.572 455.336L577.196 456.233C576.537 456.848 575.688 457.156 574.648 457.156ZM576.312 453.334C576.286 452.901 576.121 452.519 575.818 452.19C575.523 451.852 575.094 451.683 574.531 451.683C573.993 451.683 573.573 451.852 573.27 452.19C572.966 452.519 572.802 452.901 572.776 453.334H576.312ZM584.588 457H583.223V453.074C583.223 452.606 583.11 452.272 582.885 452.073C582.668 451.874 582.356 451.774 581.949 451.774C581.628 451.774 581.325 451.856 581.039 452.021C580.753 452.177 580.519 452.372 580.337 452.606V457H578.972V450.721H580.337V451.566C580.571 451.289 580.883 451.055 581.273 450.864C581.672 450.665 582.101 450.565 582.56 450.565C583.227 450.565 583.73 450.738 584.068 451.085C584.415 451.432 584.588 451.93 584.588 452.58V457ZM592.146 457H590.781V456.142C590.261 456.818 589.589 457.156 588.766 457.156C587.951 457.156 587.284 456.861 586.764 456.272C586.244 455.683 585.984 454.877 585.984 453.854C585.984 452.857 586.244 452.06 586.764 451.462C587.284 450.864 587.951 450.565 588.766 450.565C589.606 450.565 590.278 450.907 590.781 451.592V448.329H592.146V457ZM589.169 455.947C589.481 455.947 589.788 455.865 590.092 455.7C590.395 455.535 590.625 455.336 590.781 455.102V452.619C590.625 452.385 590.395 452.186 590.092 452.021C589.788 451.856 589.481 451.774 589.169 451.774C588.631 451.774 588.198 451.969 587.869 452.359C587.548 452.74 587.388 453.239 587.388 453.854C587.388 454.469 587.548 454.972 587.869 455.362C588.198 455.752 588.631 455.947 589.169 455.947ZM599.699 457H598.334V456.142C597.814 456.818 597.143 457.156 596.319 457.156C595.505 457.156 594.837 456.861 594.317 456.272C593.797 455.683 593.537 454.877 593.537 453.854C593.537 452.857 593.797 452.06 594.317 451.462C594.837 450.864 595.505 450.565 596.319 450.565C597.151 450.565 597.823 450.907 598.334 451.592V450.721H599.699V457ZM596.722 455.947C597.034 455.947 597.342 455.865 597.645 455.7C597.949 455.535 598.178 455.336 598.334 455.102V452.619C598.178 452.385 597.949 452.186 597.645 452.021C597.342 451.856 597.034 451.774 596.722 451.774C596.185 451.774 595.752 451.969 595.422 452.359C595.102 452.74 594.941 453.239 594.941 453.854C594.941 454.469 595.102 454.972 595.422 455.362C595.752 455.752 596.185 455.947 596.722 455.947ZM607.303 458.937L606.458 459.587C605.842 458.842 605.357 457.962 605.002 456.948C604.655 455.925 604.482 454.89 604.482 453.841C604.482 452.792 604.655 451.761 605.002 450.747C605.357 449.724 605.842 448.84 606.458 448.095L607.303 448.732C606.843 449.581 606.505 450.4 606.289 451.189C606.072 451.969 605.964 452.853 605.964 453.841C605.964 454.82 606.072 455.704 606.289 456.493C606.505 457.282 606.843 458.096 607.303 458.937ZM611.272 457.156C610.328 457.156 609.552 456.844 608.945 456.22C608.339 455.596 608.035 454.807 608.035 453.854C608.035 452.901 608.339 452.116 608.945 451.501C609.552 450.877 610.328 450.565 611.272 450.565C612.321 450.565 613.123 450.938 613.677 451.683L612.78 452.502C612.434 452.017 611.953 451.774 611.337 451.774C610.774 451.774 610.315 451.969 609.959 452.359C609.613 452.74 609.439 453.239 609.439 453.854C609.439 454.469 609.613 454.972 609.959 455.362C610.315 455.752 610.774 455.947 611.337 455.947C611.944 455.947 612.425 455.696 612.78 455.193L613.677 456.038C613.114 456.783 612.312 457.156 611.272 457.156ZM620.672 457H619.307V456.142C618.787 456.818 618.115 457.156 617.292 457.156C616.477 457.156 615.81 456.861 615.29 456.272C614.77 455.683 614.51 454.877 614.51 453.854C614.51 452.857 614.77 452.06 615.29 451.462C615.81 450.864 616.477 450.565 617.292 450.565C618.124 450.565 618.796 450.907 619.307 451.592V450.721H620.672V457ZM617.695 455.947C618.007 455.947 618.315 455.865 618.618 455.7C618.921 455.535 619.151 455.336 619.307 455.102V452.619C619.151 452.385 618.921 452.186 618.618 452.021C618.315 451.856 618.007 451.774 617.695 451.774C617.158 451.774 616.724 451.969 616.395 452.359C616.074 452.74 615.914 453.239 615.914 453.854C615.914 454.469 616.074 454.972 616.395 455.362C616.724 455.752 617.158 455.947 617.695 455.947ZM623.806 457H622.441V450.721H623.806V451.631C624.057 451.319 624.36 451.063 624.716 450.864C625.08 450.665 625.457 450.565 625.847 450.565V451.917C625.725 451.891 625.587 451.878 625.431 451.878C625.136 451.878 624.824 451.965 624.495 452.138C624.174 452.303 623.944 452.498 623.806 452.723V457ZM630.327 457.156C629.521 457.156 628.85 456.814 628.312 456.129V459.392H626.947V450.721H628.312V451.579C628.815 450.903 629.487 450.565 630.327 450.565C631.151 450.565 631.818 450.86 632.329 451.449C632.849 452.038 633.109 452.84 633.109 453.854C633.109 454.868 632.849 455.674 632.329 456.272C631.818 456.861 631.151 457.156 630.327 457.156ZM629.924 455.947C630.462 455.947 630.891 455.752 631.211 455.362C631.541 454.972 631.705 454.469 631.705 453.854C631.705 453.239 631.541 452.74 631.211 452.359C630.891 451.969 630.462 451.774 629.924 451.774C629.612 451.774 629.305 451.856 629.001 452.021C628.698 452.177 628.468 452.372 628.312 452.606V455.089C628.468 455.332 628.698 455.535 629.001 455.7C629.305 455.865 629.612 455.947 629.924 455.947ZM640.261 457H638.896V456.142C638.376 456.818 637.704 457.156 636.881 457.156C636.066 457.156 635.399 456.861 634.879 456.272C634.359 455.683 634.099 454.877 634.099 453.854C634.099 452.857 634.359 452.06 634.879 451.462C635.399 450.864 636.066 450.565 636.881 450.565C637.713 450.565 638.384 450.907 638.896 451.592V450.721H640.261V457ZM637.284 455.947C637.596 455.947 637.903 455.865 638.207 455.7C638.51 455.535 638.74 455.336 638.896 455.102V452.619C638.74 452.385 638.51 452.186 638.207 452.021C637.903 451.856 637.596 451.774 637.284 451.774C636.746 451.774 636.313 451.969 635.984 452.359C635.663 452.74 635.503 453.239 635.503 453.854C635.503 454.469 635.663 454.972 635.984 455.362C636.313 455.752 636.746 455.947 637.284 455.947ZM643.72 456.506C643.72 456.948 643.607 457.364 643.382 457.754C643.165 458.144 642.875 458.469 642.511 458.729L641.887 458.222C642.103 458.092 642.303 457.91 642.485 457.676C642.675 457.442 642.788 457.217 642.823 457C642.771 457.026 642.697 457.039 642.602 457.039C642.385 457.039 642.203 456.961 642.056 456.805C641.908 456.649 641.835 456.45 641.835 456.207C641.835 455.964 641.921 455.756 642.095 455.583C642.268 455.41 642.476 455.323 642.719 455.323C642.996 455.323 643.23 455.431 643.421 455.648C643.62 455.856 643.72 456.142 643.72 456.506ZM651.688 457H650.219L647.658 450.721H649.127L650.96 455.427L652.793 450.721H654.249L651.688 457ZM660.891 457H659.526V456.142C659.006 456.818 658.334 457.156 657.511 457.156C656.696 457.156 656.029 456.861 655.509 456.272C654.989 455.683 654.729 454.877 654.729 453.854C654.729 452.857 654.989 452.06 655.509 451.462C656.029 450.864 656.696 450.565 657.511 450.565C658.343 450.565 659.014 450.907 659.526 451.592V450.721H660.891V457ZM657.914 455.947C658.226 455.947 658.533 455.865 658.837 455.7C659.14 455.535 659.37 455.336 659.526 455.102V452.619C659.37 452.385 659.14 452.186 658.837 452.021C658.533 451.856 658.226 451.774 657.914 451.774C657.376 451.774 656.943 451.969 656.614 452.359C656.293 452.74 656.133 453.239 656.133 453.854C656.133 454.469 656.293 454.972 656.614 455.362C656.943 455.752 657.376 455.947 657.914 455.947ZM665.22 459.548C664.154 459.548 663.275 459.236 662.581 458.612L663.218 457.624C663.695 458.161 664.362 458.43 665.22 458.43C665.74 458.43 666.178 458.291 666.533 458.014C666.897 457.737 667.079 457.29 667.079 456.675V455.96C666.551 456.662 665.879 457.013 665.064 457.013C664.241 457.013 663.569 456.727 663.049 456.155C662.538 455.583 662.282 454.794 662.282 453.789C662.282 452.784 662.538 451.995 663.049 451.423C663.561 450.851 664.232 450.565 665.064 450.565C665.896 450.565 666.568 450.907 667.079 451.592V450.721H668.444V456.675C668.444 457.212 668.349 457.676 668.158 458.066C667.976 458.465 667.721 458.764 667.391 458.963C667.071 459.171 666.733 459.318 666.377 459.405C666.022 459.5 665.636 459.548 665.22 459.548ZM665.467 455.791C665.779 455.791 666.083 455.713 666.377 455.557C666.681 455.392 666.915 455.193 667.079 454.959V452.606C666.915 452.372 666.681 452.177 666.377 452.021C666.083 451.856 665.779 451.774 665.467 451.774C664.921 451.774 664.488 451.96 664.167 452.333C663.847 452.697 663.686 453.182 663.686 453.789C663.686 454.396 663.847 454.881 664.167 455.245C664.488 455.609 664.921 455.791 665.467 455.791ZM675.4 456.207C674.811 456.84 674.031 457.156 673.06 457.156C672.089 457.156 671.309 456.84 670.72 456.207C670.131 455.566 669.836 454.781 669.836 453.854C669.836 452.918 670.131 452.138 670.72 451.514C671.309 450.881 672.089 450.565 673.06 450.565C674.031 450.565 674.811 450.881 675.4 451.514C675.989 452.138 676.284 452.918 676.284 453.854C676.284 454.781 675.989 455.566 675.4 456.207ZM673.06 455.947C673.623 455.947 674.065 455.748 674.386 455.349C674.707 454.942 674.867 454.443 674.867 453.854C674.867 453.273 674.707 452.784 674.386 452.385C674.065 451.978 673.623 451.774 673.06 451.774C672.505 451.774 672.063 451.978 671.734 452.385C671.413 452.784 671.253 453.273 671.253 453.854C671.253 454.443 671.413 454.942 671.734 455.349C672.063 455.748 672.505 455.947 673.06 455.947ZM675.205 447.9L673.06 449.772H672.085L673.905 447.9H675.205ZM683.294 457H681.929V453.074C681.929 452.606 681.816 452.272 681.591 452.073C681.374 451.874 681.062 451.774 680.655 451.774C680.334 451.774 680.031 451.856 679.745 452.021C679.459 452.177 679.225 452.372 679.043 452.606V457H677.678V450.721H679.043V451.566C679.277 451.289 679.589 451.055 679.979 450.864C680.378 450.665 680.807 450.565 681.266 450.565C681.933 450.565 682.436 450.738 682.774 451.085C683.121 451.432 683.294 451.93 683.294 452.58V457ZM686.757 456.506C686.757 456.948 686.644 457.364 686.419 457.754C686.202 458.144 685.912 458.469 685.548 458.729L684.924 458.222C685.14 458.092 685.34 457.91 685.522 457.676C685.712 457.442 685.825 457.217 685.86 457C685.808 457.026 685.734 457.039 685.639 457.039C685.422 457.039 685.24 456.961 685.093 456.805C684.945 456.649 684.872 456.45 684.872 456.207C684.872 455.964 684.958 455.756 685.132 455.583C685.305 455.41 685.513 455.323 685.756 455.323C686.033 455.323 686.267 455.431 686.458 455.648C686.657 455.856 686.757 456.142 686.757 456.506ZM525.796 473.156C524.834 473.156 524.045 472.853 523.43 472.246C522.815 471.639 522.507 470.842 522.507 469.854C522.507 468.935 522.806 468.16 523.404 467.527C524.011 466.886 524.773 466.565 525.692 466.565C526.619 466.565 527.365 466.886 527.928 467.527C528.491 468.16 528.773 468.974 528.773 469.971V470.309H523.937C523.989 470.803 524.193 471.215 524.548 471.544C524.903 471.873 525.363 472.038 525.926 472.038C526.654 472.038 527.252 471.804 527.72 471.336L528.344 472.233C527.685 472.848 526.836 473.156 525.796 473.156ZM527.46 469.334C527.434 468.901 527.269 468.519 526.966 468.19C526.671 467.852 526.242 467.683 525.679 467.683C525.142 467.683 524.721 467.852 524.418 468.19C524.115 468.519 523.95 468.901 523.924 469.334H527.46ZM539.194 473H537.829V468.905C537.829 468.151 537.483 467.774 536.789 467.774C536.503 467.774 536.226 467.856 535.957 468.021C535.689 468.186 535.481 468.381 535.333 468.606V473H533.968V468.905C533.968 468.151 533.626 467.774 532.941 467.774C532.655 467.774 532.378 467.856 532.109 468.021C531.849 468.186 531.641 468.381 531.485 468.606V473H530.12V466.721H531.485V467.566C531.659 467.332 531.936 467.107 532.317 466.89C532.699 466.673 533.106 466.565 533.539 466.565C533.99 466.565 534.363 466.669 534.657 466.877C534.952 467.076 535.151 467.354 535.255 467.709C535.446 467.406 535.736 467.141 536.126 466.916C536.525 466.682 536.945 466.565 537.387 466.565C537.968 466.565 538.414 466.725 538.726 467.046C539.038 467.367 539.194 467.839 539.194 468.463V473ZM542.327 471.115C542.483 471.358 542.713 471.557 543.016 471.713C543.319 471.869 543.631 471.947 543.952 471.947C544.489 471.947 544.918 471.752 545.239 471.362C545.56 470.972 545.72 470.469 545.72 469.854C545.72 469.239 545.56 468.74 545.239 468.359C544.918 467.969 544.489 467.774 543.952 467.774C543.631 467.774 543.319 467.856 543.016 468.021C542.713 468.177 542.483 468.376 542.327 468.619V471.115ZM542.327 473H540.962V464.329H542.327V467.592C542.838 466.907 543.51 466.565 544.342 466.565C545.165 466.565 545.837 466.864 546.357 467.462C546.877 468.06 547.137 468.857 547.137 469.854C547.137 470.877 546.877 471.683 546.357 472.272C545.837 472.861 545.165 473.156 544.342 473.156C543.519 473.156 542.847 472.818 542.327 472.142V473ZM554.301 473H552.936V472.142C552.416 472.818 551.744 473.156 550.921 473.156C550.106 473.156 549.439 472.861 548.919 472.272C548.399 471.683 548.139 470.877 548.139 469.854C548.139 468.857 548.399 468.06 548.919 467.462C549.439 466.864 550.106 466.565 550.921 466.565C551.753 466.565 552.425 466.907 552.936 467.592V466.721H554.301V473ZM551.324 471.947C551.636 471.947 551.944 471.865 552.247 471.7C552.55 471.535 552.78 471.336 552.936 471.102V468.619C552.78 468.385 552.55 468.186 552.247 468.021C551.944 467.856 551.636 467.774 551.324 467.774C550.787 467.774 550.353 467.969 550.024 468.359C549.703 468.74 549.543 469.239 549.543 469.854C549.543 470.469 549.703 470.972 550.024 471.362C550.353 471.752 550.787 471.947 551.324 471.947ZM557.435 473H556.07V466.721H557.435V467.631C557.686 467.319 557.989 467.063 558.345 466.864C558.709 466.665 559.086 466.565 559.476 466.565V467.917C559.354 467.891 559.216 467.878 559.06 467.878C558.765 467.878 558.453 467.965 558.124 468.138C557.803 468.303 557.573 468.498 557.435 468.723V473ZM563.436 473.156C562.492 473.156 561.716 472.844 561.109 472.22C560.503 471.596 560.199 470.807 560.199 469.854C560.199 468.901 560.503 468.116 561.109 467.501C561.716 466.877 562.492 466.565 563.436 466.565C564.485 466.565 565.287 466.938 565.841 467.683L564.944 468.502C564.598 468.017 564.117 467.774 563.501 467.774C562.938 467.774 562.479 467.969 562.123 468.359C561.777 468.74 561.603 469.239 561.603 469.854C561.603 470.469 561.777 470.972 562.123 471.362C562.479 471.752 562.938 471.947 563.501 471.947C564.108 471.947 564.589 471.696 564.944 471.193L565.841 472.038C565.278 472.783 564.476 473.156 563.436 473.156ZM572.836 473H571.471V472.142C570.951 472.818 570.279 473.156 569.456 473.156C568.641 473.156 567.974 472.861 567.454 472.272C566.934 471.683 566.674 470.877 566.674 469.854C566.674 468.857 566.934 468.06 567.454 467.462C567.974 466.864 568.641 466.565 569.456 466.565C570.288 466.565 570.96 466.907 571.471 467.592V466.721H572.836V473ZM569.859 471.947C570.171 471.947 570.479 471.865 570.782 471.7C571.085 471.535 571.315 471.336 571.471 471.102V468.619C571.315 468.385 571.085 468.186 570.782 468.021C570.479 467.856 570.171 467.774 569.859 467.774C569.322 467.774 568.888 467.969 568.559 468.359C568.238 468.74 568.078 469.239 568.078 469.854C568.078 470.469 568.238 470.972 568.559 471.362C568.888 471.752 569.322 471.947 569.859 471.947ZM577.465 473.156C576.52 473.156 575.744 472.844 575.138 472.22C574.531 471.596 574.228 470.807 574.228 469.854C574.228 468.901 574.531 468.116 575.138 467.501C575.744 466.877 576.52 466.565 577.465 466.565C578.513 466.565 579.315 466.938 579.87 467.683L578.973 468.502C578.626 468.017 578.145 467.774 577.53 467.774C576.966 467.774 576.507 467.969 576.152 468.359C575.805 468.74 575.632 469.239 575.632 469.854C575.632 470.469 575.805 470.972 576.152 471.362C576.507 471.752 576.966 471.947 577.53 471.947C578.136 471.947 578.617 471.696 578.973 471.193L579.87 472.038C579.306 472.783 578.505 473.156 577.465 473.156ZM582.366 465.707C582.202 465.872 582.002 465.954 581.768 465.954C581.534 465.954 581.335 465.872 581.17 465.707C581.006 465.542 580.923 465.343 580.923 465.109C580.923 464.875 581.006 464.676 581.17 464.511C581.335 464.346 581.534 464.264 581.768 464.264C582.002 464.264 582.202 464.346 582.366 464.511C582.531 464.676 582.613 464.875 582.613 465.109C582.613 465.343 582.531 465.542 582.366 465.707ZM582.444 473H581.079V466.721H582.444V473ZM589.402 472.207C588.813 472.84 588.033 473.156 587.062 473.156C586.091 473.156 585.311 472.84 584.722 472.207C584.133 471.566 583.838 470.781 583.838 469.854C583.838 468.918 584.133 468.138 584.722 467.514C585.311 466.881 586.091 466.565 587.062 466.565C588.033 466.565 588.813 466.881 589.402 467.514C589.991 468.138 590.286 468.918 590.286 469.854C590.286 470.781 589.991 471.566 589.402 472.207ZM587.062 471.947C587.625 471.947 588.067 471.748 588.388 471.349C588.709 470.942 588.869 470.443 588.869 469.854C588.869 469.273 588.709 468.784 588.388 468.385C588.067 467.978 587.625 467.774 587.062 467.774C586.507 467.774 586.065 467.978 585.736 468.385C585.415 468.784 585.255 469.273 585.255 469.854C585.255 470.443 585.415 470.942 585.736 471.349C586.065 471.748 586.507 471.947 587.062 471.947ZM589.207 463.9L587.062 465.772H586.087L587.907 463.9H589.207ZM597.296 473H595.931V469.074C595.931 468.606 595.818 468.272 595.593 468.073C595.376 467.874 595.064 467.774 594.657 467.774C594.336 467.774 594.033 467.856 593.747 468.021C593.461 468.177 593.227 468.372 593.045 468.606V473H591.68V466.721H593.045V467.566C593.279 467.289 593.591 467.055 593.981 466.864C594.38 466.665 594.809 466.565 595.268 466.565C595.935 466.565 596.438 466.738 596.776 467.085C597.123 467.432 597.296 467.93 597.296 468.58V473ZM600.759 472.506C600.759 472.948 600.646 473.364 600.421 473.754C600.204 474.144 599.914 474.469 599.55 474.729L598.926 474.222C599.142 474.092 599.342 473.91 599.524 473.676C599.714 473.442 599.827 473.217 599.862 473C599.81 473.026 599.736 473.039 599.641 473.039C599.424 473.039 599.242 472.961 599.095 472.805C598.947 472.649 598.874 472.45 598.874 472.207C598.874 471.964 598.96 471.756 599.134 471.583C599.307 471.41 599.515 471.323 599.758 471.323C600.035 471.323 600.269 471.431 600.46 471.648C600.659 471.856 600.759 472.142 600.759 472.506ZM608.467 473.156C607.522 473.156 606.746 472.844 606.14 472.22C605.533 471.596 605.23 470.807 605.23 469.854C605.23 468.901 605.533 468.116 606.14 467.501C606.746 466.877 607.522 466.565 608.467 466.565C609.515 466.565 610.317 466.938 610.872 467.683L609.975 468.502C609.628 468.017 609.147 467.774 608.532 467.774C607.968 467.774 607.509 467.969 607.154 468.359C606.807 468.74 606.634 469.239 606.634 469.854C606.634 470.469 606.807 470.972 607.154 471.362C607.509 471.752 607.968 471.947 608.532 471.947C609.138 471.947 609.619 471.696 609.975 471.193L610.872 472.038C610.308 472.783 609.507 473.156 608.467 473.156ZM617.684 473H616.319V472.168C615.73 472.827 614.993 473.156 614.109 473.156C613.442 473.156 612.935 472.987 612.588 472.649C612.25 472.302 612.081 471.808 612.081 471.167V466.721H613.446V470.66C613.446 471.128 613.555 471.462 613.771 471.661C613.988 471.852 614.304 471.947 614.72 471.947C615.041 471.947 615.344 471.869 615.63 471.713C615.916 471.548 616.146 471.353 616.319 471.128V466.721H617.684V473ZM622.369 473.156C621.407 473.156 620.619 472.853 620.003 472.246C619.388 471.639 619.08 470.842 619.08 469.854C619.08 468.935 619.379 468.16 619.977 467.527C620.584 466.886 621.347 466.565 622.265 466.565C623.193 466.565 623.938 466.886 624.501 467.527C625.065 468.16 625.346 468.974 625.346 469.971V470.309H620.51C620.562 470.803 620.766 471.215 621.121 471.544C621.477 471.873 621.936 472.038 622.499 472.038C623.227 472.038 623.825 471.804 624.293 471.336L624.917 472.233C624.259 472.848 623.409 473.156 622.369 473.156ZM624.033 469.334C624.007 468.901 623.843 468.519 623.539 468.19C623.245 467.852 622.816 467.683 622.252 467.683C621.715 467.683 621.295 467.852 620.991 468.19C620.688 468.519 620.523 468.901 620.497 469.334H624.033ZM629.814 473H628.345L625.784 466.721H627.253L629.086 471.427L630.919 466.721H632.375L629.814 473ZM639.017 473H637.652V472.142C637.132 472.818 636.46 473.156 635.637 473.156C634.822 473.156 634.155 472.861 633.635 472.272C633.115 471.683 632.855 470.877 632.855 469.854C632.855 468.857 633.115 468.06 633.635 467.462C634.155 466.864 634.822 466.565 635.637 466.565C636.469 466.565 637.14 466.907 637.652 467.592V466.721H639.017V473ZM636.04 471.947C636.352 471.947 636.659 471.865 636.963 471.7C637.266 471.535 637.496 471.336 637.652 471.102V468.619C637.496 468.385 637.266 468.186 636.963 468.021C636.659 467.856 636.352 467.774 636.04 467.774C635.502 467.774 635.069 467.969 634.74 468.359C634.419 468.74 634.259 469.239 634.259 469.854C634.259 470.469 634.419 470.972 634.74 471.362C635.069 471.752 635.502 471.947 636.04 471.947ZM642.475 472.506C642.475 472.948 642.363 473.364 642.137 473.754C641.921 474.144 641.63 474.469 641.266 474.729L640.642 474.222C640.859 474.092 641.058 473.91 641.24 473.676C641.431 473.442 641.544 473.217 641.578 473C641.526 473.026 641.453 473.039 641.357 473.039C641.141 473.039 640.959 472.961 640.811 472.805C640.664 472.649 640.59 472.45 640.59 472.207C640.59 471.964 640.677 471.756 640.85 471.583C641.024 471.41 641.232 471.323 641.474 471.323C641.752 471.323 641.986 471.431 642.176 471.648C642.376 471.856 642.475 472.142 642.475 472.506ZM648.688 473H647.323V466.721H648.688V467.631C648.94 467.319 649.243 467.063 649.598 466.864C649.962 466.665 650.339 466.565 650.729 466.565V467.917C650.608 467.891 650.469 467.878 650.313 467.878C650.019 467.878 649.707 467.965 649.377 468.138C649.057 468.303 648.827 468.498 648.688 468.723V473ZM654.742 473.156C653.78 473.156 652.992 472.853 652.376 472.246C651.761 471.639 651.453 470.842 651.453 469.854C651.453 468.935 651.752 468.16 652.35 467.527C652.957 466.886 653.72 466.565 654.638 466.565C655.566 466.565 656.311 466.886 656.874 467.527C657.438 468.16 657.719 468.974 657.719 469.971V470.309H652.883C652.935 470.803 653.139 471.215 653.494 471.544C653.85 471.873 654.309 472.038 654.872 472.038C655.6 472.038 656.198 471.804 656.666 471.336L657.29 472.233C656.632 472.848 655.782 473.156 654.742 473.156ZM656.406 469.334C656.38 468.901 656.216 468.519 655.912 468.19C655.618 467.852 655.189 467.683 654.625 467.683C654.088 467.683 653.668 467.852 653.364 468.19C653.061 468.519 652.896 468.901 652.87 469.334H656.406ZM660.77 473H659.405V467.904H658.365V466.721H659.405V466.37C659.405 465.685 659.587 465.152 659.951 464.771C660.315 464.39 660.791 464.199 661.381 464.199C661.831 464.199 662.2 464.277 662.486 464.433L662.187 465.46C662.039 465.365 661.857 465.317 661.641 465.317C661.06 465.317 660.77 465.668 660.77 466.37V466.721H662.044V467.904H660.77V473ZM668.681 473H667.316V472.168C666.727 472.827 665.99 473.156 665.106 473.156C664.439 473.156 663.932 472.987 663.585 472.649C663.247 472.302 663.078 471.808 663.078 471.167V466.721H664.443V470.66C664.443 471.128 664.552 471.462 664.768 471.661C664.985 471.852 665.301 471.947 665.717 471.947C666.038 471.947 666.341 471.869 666.627 471.713C666.913 471.548 667.143 471.353 667.316 471.128V466.721H668.681V473ZM673.015 475.548C671.949 475.548 671.07 475.236 670.376 474.612L671.013 473.624C671.49 474.161 672.157 474.43 673.015 474.43C673.535 474.43 673.973 474.291 674.328 474.014C674.692 473.737 674.874 473.29 674.874 472.675V471.96C674.346 472.662 673.674 473.013 672.859 473.013C672.036 473.013 671.364 472.727 670.844 472.155C670.333 471.583 670.077 470.794 670.077 469.789C670.077 468.784 670.333 467.995 670.844 467.423C671.356 466.851 672.027 466.565 672.859 466.565C673.691 466.565 674.363 466.907 674.874 467.592V466.721H676.239V472.675C676.239 473.212 676.144 473.676 675.953 474.066C675.771 474.465 675.516 474.764 675.186 474.963C674.866 475.171 674.528 475.318 674.172 475.405C673.817 475.5 673.431 475.548 673.015 475.548ZM673.262 471.791C673.574 471.791 673.878 471.713 674.172 471.557C674.476 471.392 674.71 471.193 674.874 470.959V468.606C674.71 468.372 674.476 468.177 674.172 468.021C673.878 467.856 673.574 467.774 673.262 467.774C672.716 467.774 672.283 467.96 671.962 468.333C671.642 468.697 671.481 469.182 671.481 469.789C671.481 470.396 671.642 470.881 671.962 471.245C672.283 471.609 672.716 471.791 673.262 471.791ZM679.295 465.707C679.13 465.872 678.931 465.954 678.697 465.954C678.463 465.954 678.264 465.872 678.099 465.707C677.934 465.542 677.852 465.343 677.852 465.109C677.852 464.875 677.934 464.676 678.099 464.511C678.264 464.346 678.463 464.264 678.697 464.264C678.931 464.264 679.13 464.346 679.295 464.511C679.46 464.676 679.542 464.875 679.542 465.109C679.542 465.343 679.46 465.542 679.295 465.707ZM679.373 473H678.008V466.721H679.373V473ZM686.331 472.207C685.741 472.84 684.961 473.156 683.991 473.156C683.02 473.156 682.24 472.84 681.651 472.207C681.061 471.566 680.767 470.781 680.767 469.854C680.767 468.918 681.061 468.138 681.651 467.514C682.24 466.881 683.02 466.565 683.991 466.565C684.961 466.565 685.741 466.881 686.331 467.514C686.92 468.138 687.215 468.918 687.215 469.854C687.215 470.781 686.92 471.566 686.331 472.207ZM683.991 471.947C684.554 471.947 684.996 471.748 685.317 471.349C685.637 470.942 685.798 470.443 685.798 469.854C685.798 469.273 685.637 468.784 685.317 468.385C684.996 467.978 684.554 467.774 683.991 467.774C683.436 467.774 682.994 467.978 682.665 468.385C682.344 468.784 682.184 469.273 682.184 469.854C682.184 470.443 682.344 470.942 682.665 471.349C682.994 471.748 683.436 471.947 683.991 471.947ZM697.576 473H696.211V469.074C696.211 468.606 696.099 468.272 695.873 468.073C695.657 467.874 695.345 467.774 694.937 467.774C694.617 467.774 694.313 467.856 694.027 468.021C693.741 468.177 693.507 468.372 693.325 468.606V473H691.96V466.721H693.325V467.566C693.559 467.289 693.871 467.055 694.261 466.864C694.66 466.665 695.089 466.565 695.548 466.565C696.216 466.565 696.718 466.738 697.056 467.085C697.403 467.432 697.576 467.93 697.576 468.58V473ZM705.134 473H703.769V472.142C703.249 472.818 702.577 473.156 701.754 473.156C700.939 473.156 700.272 472.861 699.752 472.272C699.232 471.683 698.972 470.877 698.972 469.854C698.972 468.857 699.232 468.06 699.752 467.462C700.272 466.864 700.939 466.565 701.754 466.565C702.586 466.565 703.258 466.907 703.769 467.592V466.721H705.134V473ZM702.157 471.947C702.469 471.947 702.777 471.865 703.08 471.7C703.383 471.535 703.613 471.336 703.769 471.102V468.619C703.613 468.385 703.383 468.186 703.08 468.021C702.777 467.856 702.469 467.774 702.157 467.774C701.62 467.774 701.186 467.969 700.857 468.359C700.536 468.74 700.376 469.239 700.376 469.854C700.376 470.469 700.536 470.972 700.857 471.362C701.186 471.752 701.62 471.947 702.157 471.947ZM708.801 473.156C707.726 473.156 707.189 472.614 707.189 471.531V467.904H706.149V466.721H707.189V465.005H708.554V466.721H709.828V467.904H708.554V471.193C708.554 471.418 708.606 471.6 708.71 471.739C708.814 471.878 708.961 471.947 709.152 471.947C709.412 471.947 709.611 471.869 709.75 471.713L710.075 472.753C709.771 473.022 709.347 473.156 708.801 473.156ZM716.657 473H715.292V472.168C714.703 472.827 713.966 473.156 713.082 473.156C712.415 473.156 711.908 472.987 711.561 472.649C711.223 472.302 711.054 471.808 711.054 471.167V466.721H712.419V470.66C712.419 471.128 712.527 471.462 712.744 471.661C712.961 471.852 713.277 471.947 713.693 471.947C714.014 471.947 714.317 471.869 714.603 471.713C714.889 471.548 715.119 471.353 715.292 471.128V466.721H716.657V473ZM719.795 473H718.43V466.721H719.795V467.631C720.046 467.319 720.35 467.063 720.705 466.864C721.069 466.665 721.446 466.565 721.836 466.565V467.917C721.715 467.891 721.576 467.878 721.42 467.878C721.125 467.878 720.813 467.965 720.484 468.138C720.163 468.303 719.934 468.498 719.795 468.723V473ZM728.722 473H727.357V472.142C726.837 472.818 726.165 473.156 725.342 473.156C724.527 473.156 723.86 472.861 723.34 472.272C722.82 471.683 722.56 470.877 722.56 469.854C722.56 468.857 722.82 468.06 723.34 467.462C723.86 466.864 724.527 466.565 725.342 466.565C726.174 466.565 726.845 466.907 727.357 467.592V466.721H728.722V473ZM725.745 471.947C726.057 471.947 726.364 471.865 726.668 471.7C726.971 471.535 727.201 471.336 727.357 471.102V468.619C727.201 468.385 726.971 468.186 726.668 468.021C726.364 467.856 726.057 467.774 725.745 467.774C725.207 467.774 724.774 467.969 724.445 468.359C724.124 468.74 723.964 469.239 723.964 469.854C723.964 470.469 724.124 470.972 724.445 471.362C724.774 471.752 725.207 471.947 725.745 471.947ZM732.102 473.156C731.574 473.156 731.171 473.017 730.893 472.74C730.625 472.463 730.49 472.06 730.49 471.531V464.329H731.855V471.193C731.855 471.418 731.907 471.6 732.011 471.739C732.115 471.878 732.263 471.947 732.453 471.947C732.722 471.947 732.926 471.869 733.064 471.713L733.389 472.753C733.086 473.022 732.657 473.156 732.102 473.156ZM735.9 472.506C735.9 472.948 735.788 473.364 735.562 473.754C735.346 474.144 735.055 474.469 734.691 474.729L734.067 474.222C734.284 474.092 734.483 473.91 734.665 473.676C734.856 473.442 734.969 473.217 735.003 473C734.951 473.026 734.878 473.039 734.782 473.039C734.566 473.039 734.384 472.961 734.236 472.805C734.089 472.649 734.015 472.45 734.015 472.207C734.015 471.964 734.102 471.756 734.275 471.583C734.449 471.41 734.657 471.323 734.899 471.323C735.177 471.323 735.411 471.431 735.601 471.648C735.801 471.856 735.9 472.142 735.9 472.506ZM743.66 473.156C742.698 473.156 741.91 472.853 741.294 472.246C740.679 471.639 740.371 470.842 740.371 469.854C740.371 468.935 740.67 468.16 741.268 467.527C741.875 466.886 742.638 466.565 743.556 466.565C744.484 466.565 745.229 466.886 745.792 467.527C746.356 468.16 746.637 468.974 746.637 469.971V470.309H741.801C741.853 470.803 742.057 471.215 742.412 471.544C742.768 471.873 743.227 472.038 743.79 472.038C744.518 472.038 745.116 471.804 745.584 471.336L746.208 472.233C745.55 472.848 744.7 473.156 743.66 473.156ZM745.324 469.334C745.298 468.901 745.134 468.519 744.83 468.19C744.536 467.852 744.107 467.683 743.543 467.683C743.006 467.683 742.586 467.852 742.282 468.19C741.979 468.519 741.814 468.901 741.788 469.334H745.324ZM749.883 473.156C748.808 473.156 748.271 472.614 748.271 471.531V467.904H747.231V466.721H748.271V465.005H749.636V466.721H750.91V467.904H749.636V471.193C749.636 471.418 749.688 471.6 749.792 471.739C749.896 471.878 750.043 471.947 750.234 471.947C750.494 471.947 750.693 471.869 750.832 471.713L751.157 472.753C750.853 473.022 750.429 473.156 749.883 473.156ZM754.996 473.156C754.051 473.156 753.276 472.844 752.669 472.22C752.062 471.596 751.759 470.807 751.759 469.854C751.759 468.901 752.062 468.116 752.669 467.501C753.276 466.877 754.051 466.565 754.996 466.565C756.045 466.565 756.846 466.938 757.401 467.683L756.504 468.502C756.157 468.017 755.676 467.774 755.061 467.774C754.498 467.774 754.038 467.969 753.683 468.359C753.336 468.74 753.163 469.239 753.163 469.854C753.163 470.469 753.336 470.972 753.683 471.362C754.038 471.752 754.498 471.947 755.061 471.947C755.668 471.947 756.149 471.696 756.504 471.193L757.401 472.038C756.838 472.783 756.036 473.156 754.996 473.156ZM759.963 472.87C759.781 473.052 759.568 473.143 759.326 473.143C759.083 473.143 758.871 473.052 758.689 472.87C758.507 472.688 758.416 472.471 758.416 472.22C758.416 471.977 758.507 471.769 758.689 471.596C758.871 471.414 759.083 471.323 759.326 471.323C759.568 471.323 759.781 471.414 759.963 471.596C760.145 471.769 760.236 471.977 760.236 472.22C760.236 472.471 760.145 472.688 759.963 472.87ZM762.005 475.587L761.16 474.937C761.61 474.096 761.944 473.282 762.161 472.493C762.377 471.696 762.486 470.812 762.486 469.841C762.486 468.862 762.377 467.978 762.161 467.189C761.944 466.4 761.61 465.581 761.16 464.732L762.005 464.095C762.62 464.84 763.101 465.724 763.448 466.747C763.794 467.761 763.968 468.792 763.968 469.841C763.968 470.89 763.794 471.925 763.448 472.948C763.101 473.962 762.62 474.842 762.005 475.587Z" fill="#1A1A1A"/>
<path d="M49.224 386H47.352V377.76L44.088 386H43.288L40.008 377.76V386H38.136V375.328H40.776L43.688 382.656L46.584 375.328H49.224V386ZM58.3434 386H56.6634V384.976C55.938 385.787 55.0314 386.192 53.9434 386.192C53.122 386.192 52.498 385.984 52.0714 385.568C51.6554 385.141 51.4474 384.533 51.4474 383.744V378.272H53.1274V383.12C53.1274 383.696 53.2607 384.107 53.5274 384.352C53.794 384.587 54.1834 384.704 54.6954 384.704C55.09 384.704 55.4634 384.608 55.8154 384.416C56.1674 384.213 56.45 383.973 56.6634 383.696V378.272H58.3434V386ZM62.1095 377.024C61.9068 377.227 61.6615 377.328 61.3735 377.328C61.0855 377.328 60.8402 377.227 60.6375 377.024C60.4348 376.821 60.3335 376.576 60.3335 376.288C60.3335 376 60.4348 375.755 60.6375 375.552C60.8402 375.349 61.0855 375.248 61.3735 375.248C61.6615 375.248 61.9068 375.349 62.1095 375.552C62.3122 375.755 62.4135 376 62.4135 376.288C62.4135 376.576 62.3122 376.821 62.1095 377.024ZM59.6455 389.136C59.2188 389.136 58.8775 389.093 58.6215 389.008C58.3655 388.923 58.0988 388.779 57.8215 388.576L58.3175 387.328C58.6375 387.616 58.9948 387.76 59.3895 387.76C60.1468 387.76 60.5255 387.323 60.5255 386.448V378.272H62.2055V386.448C62.2055 387.291 61.9868 387.947 61.5495 388.416C61.1228 388.896 60.4882 389.136 59.6455 389.136ZM67.9689 386.192C66.7849 386.192 65.8142 385.819 65.0569 385.072C64.2995 384.325 63.9209 383.344 63.9209 382.128C63.9209 380.997 64.2889 380.043 65.0249 379.264C65.7715 378.475 66.7102 378.08 67.8409 378.08C68.9822 378.08 69.8995 378.475 70.5929 379.264C71.2862 380.043 71.6329 381.045 71.6329 382.272V382.688H65.6809C65.7449 383.296 65.9955 383.803 66.4329 384.208C66.8702 384.613 67.4355 384.816 68.1289 384.816C69.0249 384.816 69.7609 384.528 70.3369 383.952L71.1049 385.056C70.2942 385.813 69.2489 386.192 67.9689 386.192ZM70.0169 381.488C69.9849 380.955 69.7822 380.485 69.4089 380.08C69.0462 379.664 68.5182 379.456 67.8249 379.456C67.1635 379.456 66.6462 379.664 66.2729 380.08C65.8995 380.485 65.6969 380.955 65.6649 381.488H70.0169ZM74.9711 386H73.2911V378.272H74.9711V379.392C75.2805 379.008 75.6538 378.693 76.0911 378.448C76.5391 378.203 77.0031 378.08 77.4831 378.08V379.744C77.3338 379.712 77.1631 379.696 76.9711 379.696C76.6085 379.696 76.2245 379.803 75.8191 380.016C75.4245 380.219 75.1418 380.459 74.9711 380.736V386ZM82.422 386.192C81.238 386.192 80.2673 385.819 79.51 385.072C78.7527 384.325 78.374 383.344 78.374 382.128C78.374 380.997 78.742 380.043 79.478 379.264C80.2247 378.475 81.1633 378.08 82.294 378.08C83.4353 378.08 84.3527 378.475 85.046 379.264C85.7393 380.043 86.086 381.045 86.086 382.272V382.688H80.134C80.198 383.296 80.4487 383.803 80.886 384.208C81.3233 384.613 81.8887 384.816 82.582 384.816C83.478 384.816 84.214 384.528 84.79 383.952L85.558 385.056C84.7473 385.813 83.702 386.192 82.422 386.192ZM84.47 381.488C84.438 380.955 84.2353 380.485 83.862 380.08C83.4993 379.664 82.9713 379.456 82.278 379.456C81.6167 379.456 81.0993 379.664 80.726 380.08C80.3527 380.485 80.15 380.955 80.118 381.488H84.47ZM90.4003 386.192C89.0243 386.192 87.9203 385.787 87.0883 384.976L87.8563 383.776C88.1443 384.075 88.5283 384.331 89.0082 384.544C89.4989 384.747 89.9843 384.848 90.4643 384.848C90.9549 384.848 91.3336 384.757 91.6003 384.576C91.8669 384.384 92.0003 384.133 92.0003 383.824C92.0003 383.547 91.8403 383.333 91.5203 383.184C91.2003 383.024 90.8109 382.901 90.3523 382.816C89.8936 382.72 89.4349 382.608 88.9763 382.48C88.5176 382.341 88.1283 382.101 87.8083 381.76C87.4883 381.419 87.3283 380.971 87.3283 380.416C87.3283 379.755 87.6003 379.2 88.1443 378.752C88.6883 378.304 89.4296 378.08 90.3683 378.08C91.5523 378.08 92.5496 378.437 93.3603 379.152L92.6563 380.336C92.0909 379.717 91.3283 379.408 90.3683 379.408C89.9416 379.408 89.5949 379.499 89.3283 379.68C89.0723 379.861 88.9443 380.091 88.9443 380.368C88.9443 380.613 89.1043 380.805 89.4243 380.944C89.7443 381.083 90.1336 381.2 90.5923 381.296C91.0509 381.381 91.5096 381.493 91.9683 381.632C92.4269 381.771 92.8163 382.021 93.1363 382.384C93.4563 382.747 93.6163 383.211 93.6163 383.776C93.6163 384.491 93.3336 385.072 92.7683 385.52C92.2029 385.968 91.4136 386.192 90.4003 386.192Z" fill="#1A1A1A"/>
</svg>
