<svg width="262" height="130" viewBox="0 0 262 130" fill="none" xmlns="http://www.w3.org/2000/svg">
<rect y="1" width="13" height="13" rx="2" fill="#1D5556"/>
<path d="M32.2 14H24.34V0.659999H26V12.52H32.2V14ZM41.6136 12.78C40.7469 13.7533 39.5936 14.24 38.1536 14.24C36.7136 14.24 35.5536 13.7533 34.6736 12.78C33.8069 11.8067 33.3736 10.6 33.3736 9.16C33.3736 7.72 33.8069 6.52 34.6736 5.56C35.5536 4.58667 36.7136 4.1 38.1536 4.1C39.5936 4.1 40.7469 4.58667 41.6136 5.56C42.4936 6.52 42.9336 7.72 42.9336 9.16C42.9336 10.6 42.4936 11.8067 41.6136 12.78ZM35.8136 11.82C36.3869 12.54 37.1669 12.9 38.1536 12.9C39.1403 12.9 39.9203 12.54 40.4936 11.82C41.0669 11.0867 41.3536 10.2 41.3536 9.16C41.3536 8.12 41.0669 7.24 40.4936 6.52C39.9203 5.8 39.1403 5.44 38.1536 5.44C37.1669 5.44 36.3869 5.8 35.8136 6.52C35.2403 7.24 34.9536 8.12 34.9536 9.16C34.9536 10.2 35.2403 11.0867 35.8136 11.82ZM46.8789 14H45.3789V4.34H46.8789V5.88C47.7989 4.70667 48.8722 4.12 50.0989 4.12V5.66C49.8589 5.63333 49.6656 5.62 49.5189 5.62C49.0522 5.62 48.5522 5.78 48.0189 6.1C47.4856 6.40667 47.1056 6.76 46.8789 7.16V14ZM56.3605 14.24C54.9071 14.24 53.7205 13.7733 52.8005 12.84C51.8805 11.8933 51.4205 10.6667 51.4205 9.16C51.4205 7.74667 51.8738 6.55333 52.7805 5.58C53.6871 4.59333 54.8205 4.1 56.1805 4.1C57.6071 4.1 58.7338 4.59333 59.5605 5.58C60.4005 6.55333 60.8205 7.78667 60.8205 9.28V9.66H53.0205C53.0871 10.6067 53.4271 11.4 54.0405 12.04C54.6671 12.68 55.4805 13 56.4805 13C57.6805 13 58.6805 12.5867 59.4805 11.76L60.2005 12.74C59.1738 13.74 57.8938 14.24 56.3605 14.24ZM59.3405 8.54C59.3271 7.72667 59.0471 6.99333 58.5005 6.34C57.9538 5.67333 57.1738 5.34 56.1605 5.34C55.2005 5.34 54.4405 5.66667 53.8805 6.32C53.3338 6.97333 53.0405 7.71333 53.0005 8.54H59.3405ZM76.41 14H74.91V7.44C74.91 6.10667 74.3167 5.44 73.13 5.44C72.65 5.44 72.17 5.58667 71.69 5.88C71.21 6.16 70.8367 6.50667 70.57 6.92V14H69.07V7.44C69.07 6.10667 68.4767 5.44 67.29 5.44C66.8233 5.44 66.35 5.58667 65.87 5.88C65.4033 6.17333 65.03 6.52667 64.75 6.94V14H63.25V4.34H64.75V5.74C65.0033 5.35333 65.4233 4.98667 66.01 4.64C66.61 4.28 67.2367 4.1 67.89 4.1C68.5833 4.1 69.15 4.26667 69.59 4.6C70.03 4.93333 70.3233 5.36667 70.47 5.9C70.7633 5.42 71.21 5 71.81 4.64C72.41 4.28 73.0433 4.1 73.71 4.1C75.51 4.1 76.41 5.07333 76.41 7.02V14ZM86.0381 2.68C85.8515 2.86667 85.6181 2.96 85.3381 2.96C85.0581 2.96 84.8181 2.86667 84.6181 2.68C84.4181 2.48 84.3181 2.24 84.3181 1.96C84.3181 1.68 84.4181 1.44 84.6181 1.24C84.8181 1.04 85.0581 0.939999 85.3381 0.939999C85.6181 0.939999 85.8515 1.04 86.0381 1.24C86.2381 1.44 86.3381 1.68 86.3381 1.96C86.3381 2.24 86.2381 2.48 86.0381 2.68ZM86.0781 14H84.5781V4.34H86.0781V14ZM93.8303 14.24C92.5103 14.24 91.4236 13.6733 90.5703 12.54V17.68H89.0703V4.34H90.5703V5.78C90.9303 5.27333 91.397 4.86667 91.9703 4.56C92.5436 4.25333 93.1636 4.1 93.8303 4.1C95.1103 4.1 96.1436 4.56 96.9303 5.48C97.7303 6.38667 98.1303 7.61333 98.1303 9.16C98.1303 10.7067 97.7303 11.94 96.9303 12.86C96.1436 13.78 95.1103 14.24 93.8303 14.24ZM93.4503 12.9C94.397 12.9 95.1503 12.5533 95.7103 11.86C96.2703 11.1533 96.5503 10.2533 96.5503 9.16C96.5503 8.06667 96.2703 7.17333 95.7103 6.48C95.1503 5.78667 94.397 5.44 93.4503 5.44C92.877 5.44 92.317 5.59333 91.7703 5.9C91.237 6.19333 90.837 6.55333 90.5703 6.98V11.34C90.837 11.78 91.237 12.1533 91.7703 12.46C92.317 12.7533 92.877 12.9 93.4503 12.9ZM103.596 14.24C101.969 14.24 100.669 13.7333 99.6956 12.72L100.456 11.64C100.789 12.0267 101.242 12.3533 101.816 12.62C102.402 12.8867 103.009 13.02 103.636 13.02C104.356 13.02 104.916 12.8667 105.316 12.56C105.729 12.2533 105.936 11.8533 105.936 11.36C105.936 10.9333 105.729 10.6 105.316 10.36C104.902 10.1067 104.402 9.92 103.816 9.8C103.229 9.66667 102.642 9.52 102.056 9.36C101.482 9.18667 100.989 8.9 100.576 8.5C100.162 8.08667 99.9556 7.54667 99.9556 6.88C99.9556 6.09333 100.276 5.43333 100.916 4.9C101.556 4.36667 102.429 4.1 103.536 4.1C105.016 4.1 106.209 4.56667 107.116 5.5L106.416 6.54C105.736 5.72667 104.776 5.32 103.536 5.32C102.882 5.32 102.362 5.46667 101.976 5.76C101.589 6.04 101.396 6.4 101.396 6.84C101.396 7.16 101.542 7.42667 101.836 7.64C102.129 7.85333 102.496 8.00667 102.936 8.1C103.389 8.19333 103.869 8.31333 104.376 8.46C104.896 8.60667 105.376 8.77333 105.816 8.96C106.269 9.13333 106.642 9.42667 106.936 9.84C107.229 10.24 107.376 10.7333 107.376 11.32C107.376 12.1733 107.042 12.8733 106.376 13.42C105.722 13.9667 104.796 14.24 103.596 14.24ZM117.833 14H116.333V12.64C115.933 13.0933 115.426 13.4733 114.813 13.78C114.213 14.0867 113.573 14.24 112.893 14.24C110.839 14.24 109.813 13.2133 109.813 11.16V4.34H111.313V10.7C111.313 11.5 111.499 12.0667 111.873 12.4C112.246 12.7333 112.786 12.9 113.493 12.9C114.053 12.9 114.593 12.76 115.113 12.48C115.633 12.2 116.039 11.8533 116.333 11.44V4.34H117.833V14ZM133.988 14H132.488V7.44C132.488 6.10667 131.895 5.44 130.708 5.44C130.228 5.44 129.748 5.58667 129.268 5.88C128.788 6.16 128.415 6.50667 128.148 6.92V14H126.648V7.44C126.648 6.10667 126.055 5.44 124.868 5.44C124.401 5.44 123.928 5.58667 123.448 5.88C122.981 6.17333 122.608 6.52667 122.328 6.94V14H120.828V4.34H122.328V5.74C122.581 5.35333 123.001 4.98667 123.588 4.64C124.188 4.28 124.815 4.1 125.468 4.1C126.161 4.1 126.728 4.26667 127.168 4.6C127.608 4.93333 127.901 5.36667 128.048 5.9C128.341 5.42 128.788 5 129.388 4.64C129.988 4.28 130.621 4.1 131.288 4.1C133.088 4.1 133.988 5.07333 133.988 7.02V14ZM150.656 14H149.156V12.56C148.33 13.68 147.243 14.24 145.896 14.24C144.616 14.24 143.576 13.7867 142.776 12.88C141.99 11.96 141.596 10.7267 141.596 9.18C141.596 7.64667 141.996 6.42 142.796 5.5C143.596 4.56667 144.63 4.1 145.896 4.1C147.23 4.1 148.316 4.66667 149.156 5.8V0.659999H150.656V14ZM146.276 12.9C146.85 12.9 147.403 12.7533 147.936 12.46C148.483 12.1533 148.89 11.7867 149.156 11.36V7C148.89 6.56 148.483 6.19333 147.936 5.9C147.403 5.59333 146.85 5.44 146.276 5.44C145.316 5.44 144.556 5.79333 143.996 6.5C143.436 7.19333 143.156 8.08667 143.156 9.18C143.156 10.2733 143.436 11.1667 143.996 11.86C144.556 12.5533 145.316 12.9 146.276 12.9ZM161.34 12.78C160.473 13.7533 159.32 14.24 157.88 14.24C156.44 14.24 155.28 13.7533 154.4 12.78C153.533 11.8067 153.1 10.6 153.1 9.16C153.1 7.72 153.533 6.52 154.4 5.56C155.28 4.58667 156.44 4.1 157.88 4.1C159.32 4.1 160.473 4.58667 161.34 5.56C162.22 6.52 162.66 7.72 162.66 9.16C162.66 10.6 162.22 11.8067 161.34 12.78ZM155.54 11.82C156.113 12.54 156.893 12.9 157.88 12.9C158.867 12.9 159.647 12.54 160.22 11.82C160.793 11.0867 161.08 10.2 161.08 9.16C161.08 8.12 160.793 7.24 160.22 6.52C159.647 5.8 158.867 5.44 157.88 5.44C156.893 5.44 156.113 5.8 155.54 6.52C154.967 7.24 154.68 8.12 154.68 9.16C154.68 10.2 154.967 11.0867 155.54 11.82ZM167.245 14.24C166.539 14.24 166.005 14.0467 165.645 13.66C165.285 13.2733 165.105 12.7133 165.105 11.98V0.659999H166.605V11.66C166.605 12.0333 166.685 12.3333 166.845 12.56C167.019 12.7867 167.265 12.9 167.585 12.9C168.025 12.9 168.359 12.76 168.585 12.48L169.045 13.62C168.592 14.0333 167.992 14.24 167.245 14.24ZM178.157 12.78C177.29 13.7533 176.137 14.24 174.697 14.24C173.257 14.24 172.097 13.7533 171.217 12.78C170.35 11.8067 169.917 10.6 169.917 9.16C169.917 7.72 170.35 6.52 171.217 5.56C172.097 4.58667 173.257 4.1 174.697 4.1C176.137 4.1 177.29 4.58667 178.157 5.56C179.037 6.52 179.477 7.72 179.477 9.16C179.477 10.6 179.037 11.8067 178.157 12.78ZM172.357 11.82C172.93 12.54 173.71 12.9 174.697 12.9C175.683 12.9 176.463 12.54 177.037 11.82C177.61 11.0867 177.897 10.2 177.897 9.16C177.897 8.12 177.61 7.24 177.037 6.52C176.463 5.8 175.683 5.44 174.697 5.44C173.71 5.44 172.93 5.8 172.357 6.52C171.783 7.24 171.497 8.12 171.497 9.16C171.497 10.2 171.783 11.0867 172.357 11.82ZM183.422 14H181.922V4.34H183.422V5.88C184.342 4.70667 185.415 4.12 186.642 4.12V5.66C186.402 5.63333 186.209 5.62 186.062 5.62C185.595 5.62 185.095 5.78 184.562 6.1C184.029 6.40667 183.649 6.76 183.422 7.16V14ZM196.779 14.24C195.153 14.24 193.853 13.7333 192.879 12.72L193.639 11.64C193.973 12.0267 194.426 12.3533 194.999 12.62C195.586 12.8867 196.193 13.02 196.819 13.02C197.539 13.02 198.099 12.8667 198.499 12.56C198.913 12.2533 199.119 11.8533 199.119 11.36C199.119 10.9333 198.913 10.6 198.499 10.36C198.086 10.1067 197.586 9.92 196.999 9.8C196.413 9.66667 195.826 9.52 195.239 9.36C194.666 9.18667 194.173 8.9 193.759 8.5C193.346 8.08667 193.139 7.54667 193.139 6.88C193.139 6.09333 193.459 5.43333 194.099 4.9C194.739 4.36667 195.613 4.1 196.719 4.1C198.199 4.1 199.393 4.56667 200.299 5.5L199.599 6.54C198.919 5.72667 197.959 5.32 196.719 5.32C196.066 5.32 195.546 5.46667 195.159 5.76C194.773 6.04 194.579 6.4 194.579 6.84C194.579 7.16 194.726 7.42667 195.019 7.64C195.313 7.85333 195.679 8.00667 196.119 8.1C196.573 8.19333 197.053 8.31333 197.559 8.46C198.079 8.60667 198.559 8.77333 198.999 8.96C199.453 9.13333 199.826 9.42667 200.119 9.84C200.413 10.24 200.559 10.7333 200.559 11.32C200.559 12.1733 200.226 12.8733 199.559 13.42C198.906 13.9667 197.979 14.24 196.779 14.24ZM204.456 2.68C204.269 2.86667 204.036 2.96 203.756 2.96C203.476 2.96 203.236 2.86667 203.036 2.68C202.836 2.48 202.736 2.24 202.736 1.96C202.736 1.68 202.836 1.44 203.036 1.24C203.236 1.04 203.476 0.939999 203.756 0.939999C204.036 0.939999 204.269 1.04 204.456 1.24C204.656 1.44 204.756 1.68 204.756 1.96C204.756 2.24 204.656 2.48 204.456 2.68ZM204.496 14H202.996V4.34H204.496V14ZM209.948 14.24C208.508 14.24 207.788 13.4867 207.788 11.98V5.66H206.188V4.34H207.788V1.7H209.308V4.34H211.268V5.66H209.308V11.66C209.308 12.0333 209.388 12.3333 209.548 12.56C209.722 12.7867 209.962 12.9 210.268 12.9C210.695 12.9 211.035 12.76 211.288 12.48L211.728 13.62C211.288 14.0333 210.695 14.24 209.948 14.24ZM227.043 14H225.543V12.56C224.716 13.68 223.63 14.24 222.283 14.24C221.003 14.24 219.963 13.7867 219.163 12.88C218.376 11.96 217.983 10.7267 217.983 9.18C217.983 7.64667 218.383 6.42 219.183 5.5C219.983 4.56667 221.016 4.1 222.283 4.1C223.616 4.1 224.703 4.66667 225.543 5.8V4.34H227.043V14ZM222.663 12.9C223.236 12.9 223.79 12.7533 224.323 12.46C224.87 12.1533 225.276 11.7867 225.543 11.36V7C225.276 6.56 224.87 6.19333 224.323 5.9C223.79 5.59333 223.236 5.44 222.663 5.44C221.703 5.44 220.943 5.79333 220.383 6.5C219.823 7.19333 219.543 8.08667 219.543 9.18C219.543 10.2733 219.823 11.1667 220.383 11.86C220.943 12.5533 221.703 12.9 222.663 12.9ZM243.207 14H241.707V7.44C241.707 6.10667 241.114 5.44 239.927 5.44C239.447 5.44 238.967 5.58667 238.487 5.88C238.007 6.16 237.634 6.50667 237.367 6.92V14H235.867V7.44C235.867 6.10667 235.274 5.44 234.087 5.44C233.62 5.44 233.147 5.58667 232.667 5.88C232.2 6.17333 231.827 6.52667 231.547 6.94V14H230.047V4.34H231.547V5.74C231.8 5.35333 232.22 4.98667 232.807 4.64C233.407 4.28 234.034 4.1 234.687 4.1C235.38 4.1 235.947 4.26667 236.387 4.6C236.827 4.93333 237.12 5.36667 237.267 5.9C237.56 5.42 238.007 5 238.607 4.64C239.207 4.28 239.84 4.1 240.507 4.1C242.307 4.1 243.207 5.07333 243.207 7.02V14ZM250.579 14.24C249.126 14.24 247.939 13.7733 247.019 12.84C246.099 11.8933 245.639 10.6667 245.639 9.16C245.639 7.74667 246.093 6.55333 246.999 5.58C247.906 4.59333 249.039 4.1 250.399 4.1C251.826 4.1 252.953 4.59333 253.779 5.58C254.619 6.55333 255.039 7.78667 255.039 9.28V9.66H247.239C247.306 10.6067 247.646 11.4 248.259 12.04C248.886 12.68 249.699 13 250.699 13C251.899 13 252.899 12.5867 253.699 11.76L254.419 12.74C253.393 13.74 252.113 14.24 250.579 14.24ZM253.559 8.54C253.546 7.72667 253.266 6.99333 252.719 6.34C252.173 5.67333 251.393 5.34 250.379 5.34C249.419 5.34 248.659 5.66667 248.099 6.32C247.553 6.97333 247.259 7.71333 247.219 8.54H253.559ZM259.929 14.24C258.489 14.24 257.769 13.4867 257.769 11.98V5.66H256.169V4.34H257.769V1.7H259.289V4.34H261.249V5.66H259.289V11.66C259.289 12.0333 259.369 12.3333 259.529 12.56C259.702 12.7867 259.942 12.9 260.249 12.9C260.675 12.9 261.015 12.76 261.269 12.48L261.709 13.62C261.269 14.0333 260.675 14.24 259.929 14.24Z" fill="#505050"/>
<rect y="29" width="13" height="13" rx="2" fill="#FAA080"/>
<path d="M32.2 42H24.34V28.66H26V40.52H32.2V42ZM41.6136 40.78C40.7469 41.7533 39.5936 42.24 38.1536 42.24C36.7136 42.24 35.5536 41.7533 34.6736 40.78C33.8069 39.8067 33.3736 38.6 33.3736 37.16C33.3736 35.72 33.8069 34.52 34.6736 33.56C35.5536 32.5867 36.7136 32.1 38.1536 32.1C39.5936 32.1 40.7469 32.5867 41.6136 33.56C42.4936 34.52 42.9336 35.72 42.9336 37.16C42.9336 38.6 42.4936 39.8067 41.6136 40.78ZM35.8136 39.82C36.3869 40.54 37.1669 40.9 38.1536 40.9C39.1403 40.9 39.9203 40.54 40.4936 39.82C41.0669 39.0867 41.3536 38.2 41.3536 37.16C41.3536 36.12 41.0669 35.24 40.4936 34.52C39.9203 33.8 39.1403 33.44 38.1536 33.44C37.1669 33.44 36.3869 33.8 35.8136 34.52C35.2403 35.24 34.9536 36.12 34.9536 37.16C34.9536 38.2 35.2403 39.0867 35.8136 39.82ZM46.8789 42H45.3789V32.34H46.8789V33.88C47.7989 32.7067 48.8722 32.12 50.0989 32.12V33.66C49.8589 33.6333 49.6656 33.62 49.5189 33.62C49.0522 33.62 48.5522 33.78 48.0189 34.1C47.4856 34.4067 47.1056 34.76 46.8789 35.16V42ZM56.3605 42.24C54.9071 42.24 53.7205 41.7733 52.8005 40.84C51.8805 39.8933 51.4205 38.6667 51.4205 37.16C51.4205 35.7467 51.8738 34.5533 52.7805 33.58C53.6871 32.5933 54.8205 32.1 56.1805 32.1C57.6071 32.1 58.7338 32.5933 59.5605 33.58C60.4005 34.5533 60.8205 35.7867 60.8205 37.28V37.66H53.0205C53.0871 38.6067 53.4271 39.4 54.0405 40.04C54.6671 40.68 55.4805 41 56.4805 41C57.6805 41 58.6805 40.5867 59.4805 39.76L60.2005 40.74C59.1738 41.74 57.8938 42.24 56.3605 42.24ZM59.3405 36.54C59.3271 35.7267 59.0471 34.9933 58.5005 34.34C57.9538 33.6733 57.1738 33.34 56.1605 33.34C55.2005 33.34 54.4405 33.6667 53.8805 34.32C53.3338 34.9733 53.0405 35.7133 53.0005 36.54H59.3405ZM76.41 42H74.91V35.44C74.91 34.1067 74.3167 33.44 73.13 33.44C72.65 33.44 72.17 33.5867 71.69 33.88C71.21 34.16 70.8367 34.5067 70.57 34.92V42H69.07V35.44C69.07 34.1067 68.4767 33.44 67.29 33.44C66.8233 33.44 66.35 33.5867 65.87 33.88C65.4033 34.1733 65.03 34.5267 64.75 34.94V42H63.25V32.34H64.75V33.74C65.0033 33.3533 65.4233 32.9867 66.01 32.64C66.61 32.28 67.2367 32.1 67.89 32.1C68.5833 32.1 69.15 32.2667 69.59 32.6C70.03 32.9333 70.3233 33.3667 70.47 33.9C70.7633 33.42 71.21 33 71.81 32.64C72.41 32.28 73.0433 32.1 73.71 32.1C75.51 32.1 76.41 33.0733 76.41 35.02V42ZM86.0381 30.68C85.8515 30.8667 85.6181 30.96 85.3381 30.96C85.0581 30.96 84.8181 30.8667 84.6181 30.68C84.4181 30.48 84.3181 30.24 84.3181 29.96C84.3181 29.68 84.4181 29.44 84.6181 29.24C84.8181 29.04 85.0581 28.94 85.3381 28.94C85.6181 28.94 85.8515 29.04 86.0381 29.24C86.2381 29.44 86.3381 29.68 86.3381 29.96C86.3381 30.24 86.2381 30.48 86.0381 30.68ZM86.0781 42H84.5781V32.34H86.0781V42ZM93.8303 42.24C92.5103 42.24 91.4236 41.6733 90.5703 40.54V45.68H89.0703V32.34H90.5703V33.78C90.9303 33.2733 91.397 32.8667 91.9703 32.56C92.5436 32.2533 93.1636 32.1 93.8303 32.1C95.1103 32.1 96.1436 32.56 96.9303 33.48C97.7303 34.3867 98.1303 35.6133 98.1303 37.16C98.1303 38.7067 97.7303 39.94 96.9303 40.86C96.1436 41.78 95.1103 42.24 93.8303 42.24ZM93.4503 40.9C94.397 40.9 95.1503 40.5533 95.7103 39.86C96.2703 39.1533 96.5503 38.2533 96.5503 37.16C96.5503 36.0667 96.2703 35.1733 95.7103 34.48C95.1503 33.7867 94.397 33.44 93.4503 33.44C92.877 33.44 92.317 33.5933 91.7703 33.9C91.237 34.1933 90.837 34.5533 90.5703 34.98V39.34C90.837 39.78 91.237 40.1533 91.7703 40.46C92.317 40.7533 92.877 40.9 93.4503 40.9ZM103.596 42.24C101.969 42.24 100.669 41.7333 99.6956 40.72L100.456 39.64C100.789 40.0267 101.242 40.3533 101.816 40.62C102.402 40.8867 103.009 41.02 103.636 41.02C104.356 41.02 104.916 40.8667 105.316 40.56C105.729 40.2533 105.936 39.8533 105.936 39.36C105.936 38.9333 105.729 38.6 105.316 38.36C104.902 38.1067 104.402 37.92 103.816 37.8C103.229 37.6667 102.642 37.52 102.056 37.36C101.482 37.1867 100.989 36.9 100.576 36.5C100.162 36.0867 99.9556 35.5467 99.9556 34.88C99.9556 34.0933 100.276 33.4333 100.916 32.9C101.556 32.3667 102.429 32.1 103.536 32.1C105.016 32.1 106.209 32.5667 107.116 33.5L106.416 34.54C105.736 33.7267 104.776 33.32 103.536 33.32C102.882 33.32 102.362 33.4667 101.976 33.76C101.589 34.04 101.396 34.4 101.396 34.84C101.396 35.16 101.542 35.4267 101.836 35.64C102.129 35.8533 102.496 36.0067 102.936 36.1C103.389 36.1933 103.869 36.3133 104.376 36.46C104.896 36.6067 105.376 36.7733 105.816 36.96C106.269 37.1333 106.642 37.4267 106.936 37.84C107.229 38.24 107.376 38.7333 107.376 39.32C107.376 40.1733 107.042 40.8733 106.376 41.42C105.722 41.9667 104.796 42.24 103.596 42.24ZM117.833 42H116.333V40.64C115.933 41.0933 115.426 41.4733 114.813 41.78C114.213 42.0867 113.573 42.24 112.893 42.24C110.839 42.24 109.813 41.2133 109.813 39.16V32.34H111.313V38.7C111.313 39.5 111.499 40.0667 111.873 40.4C112.246 40.7333 112.786 40.9 113.493 40.9C114.053 40.9 114.593 40.76 115.113 40.48C115.633 40.2 116.039 39.8533 116.333 39.44V32.34H117.833V42ZM133.988 42H132.488V35.44C132.488 34.1067 131.895 33.44 130.708 33.44C130.228 33.44 129.748 33.5867 129.268 33.88C128.788 34.16 128.415 34.5067 128.148 34.92V42H126.648V35.44C126.648 34.1067 126.055 33.44 124.868 33.44C124.401 33.44 123.928 33.5867 123.448 33.88C122.981 34.1733 122.608 34.5267 122.328 34.94V42H120.828V32.34H122.328V33.74C122.581 33.3533 123.001 32.9867 123.588 32.64C124.188 32.28 124.815 32.1 125.468 32.1C126.161 32.1 126.728 32.2667 127.168 32.6C127.608 32.9333 127.901 33.3667 128.048 33.9C128.341 33.42 128.788 33 129.388 32.64C129.988 32.28 130.621 32.1 131.288 32.1C133.088 32.1 133.988 33.0733 133.988 35.02V42ZM150.656 42H149.156V40.56C148.33 41.68 147.243 42.24 145.896 42.24C144.616 42.24 143.576 41.7867 142.776 40.88C141.99 39.96 141.596 38.7267 141.596 37.18C141.596 35.6467 141.996 34.42 142.796 33.5C143.596 32.5667 144.63 32.1 145.896 32.1C147.23 32.1 148.316 32.6667 149.156 33.8V28.66H150.656V42ZM146.276 40.9C146.85 40.9 147.403 40.7533 147.936 40.46C148.483 40.1533 148.89 39.7867 149.156 39.36V35C148.89 34.56 148.483 34.1933 147.936 33.9C147.403 33.5933 146.85 33.44 146.276 33.44C145.316 33.44 144.556 33.7933 143.996 34.5C143.436 35.1933 143.156 36.0867 143.156 37.18C143.156 38.2733 143.436 39.1667 143.996 39.86C144.556 40.5533 145.316 40.9 146.276 40.9ZM161.34 40.78C160.473 41.7533 159.32 42.24 157.88 42.24C156.44 42.24 155.28 41.7533 154.4 40.78C153.533 39.8067 153.1 38.6 153.1 37.16C153.1 35.72 153.533 34.52 154.4 33.56C155.28 32.5867 156.44 32.1 157.88 32.1C159.32 32.1 160.473 32.5867 161.34 33.56C162.22 34.52 162.66 35.72 162.66 37.16C162.66 38.6 162.22 39.8067 161.34 40.78ZM155.54 39.82C156.113 40.54 156.893 40.9 157.88 40.9C158.867 40.9 159.647 40.54 160.22 39.82C160.793 39.0867 161.08 38.2 161.08 37.16C161.08 36.12 160.793 35.24 160.22 34.52C159.647 33.8 158.867 33.44 157.88 33.44C156.893 33.44 156.113 33.8 155.54 34.52C154.967 35.24 154.68 36.12 154.68 37.16C154.68 38.2 154.967 39.0867 155.54 39.82ZM167.245 42.24C166.539 42.24 166.005 42.0467 165.645 41.66C165.285 41.2733 165.105 40.7133 165.105 39.98V28.66H166.605V39.66C166.605 40.0333 166.685 40.3333 166.845 40.56C167.019 40.7867 167.265 40.9 167.585 40.9C168.025 40.9 168.359 40.76 168.585 40.48L169.045 41.62C168.592 42.0333 167.992 42.24 167.245 42.24ZM178.157 40.78C177.29 41.7533 176.137 42.24 174.697 42.24C173.257 42.24 172.097 41.7533 171.217 40.78C170.35 39.8067 169.917 38.6 169.917 37.16C169.917 35.72 170.35 34.52 171.217 33.56C172.097 32.5867 173.257 32.1 174.697 32.1C176.137 32.1 177.29 32.5867 178.157 33.56C179.037 34.52 179.477 35.72 179.477 37.16C179.477 38.6 179.037 39.8067 178.157 40.78ZM172.357 39.82C172.93 40.54 173.71 40.9 174.697 40.9C175.683 40.9 176.463 40.54 177.037 39.82C177.61 39.0867 177.897 38.2 177.897 37.16C177.897 36.12 177.61 35.24 177.037 34.52C176.463 33.8 175.683 33.44 174.697 33.44C173.71 33.44 172.93 33.8 172.357 34.52C171.783 35.24 171.497 36.12 171.497 37.16C171.497 38.2 171.783 39.0867 172.357 39.82ZM183.422 42H181.922V32.34H183.422V33.88C184.342 32.7067 185.415 32.12 186.642 32.12V33.66C186.402 33.6333 186.209 33.62 186.062 33.62C185.595 33.62 185.095 33.78 184.562 34.1C184.029 34.4067 183.649 34.76 183.422 35.16V42ZM196.779 42.24C195.153 42.24 193.853 41.7333 192.879 40.72L193.639 39.64C193.973 40.0267 194.426 40.3533 194.999 40.62C195.586 40.8867 196.193 41.02 196.819 41.02C197.539 41.02 198.099 40.8667 198.499 40.56C198.913 40.2533 199.119 39.8533 199.119 39.36C199.119 38.9333 198.913 38.6 198.499 38.36C198.086 38.1067 197.586 37.92 196.999 37.8C196.413 37.6667 195.826 37.52 195.239 37.36C194.666 37.1867 194.173 36.9 193.759 36.5C193.346 36.0867 193.139 35.5467 193.139 34.88C193.139 34.0933 193.459 33.4333 194.099 32.9C194.739 32.3667 195.613 32.1 196.719 32.1C198.199 32.1 199.393 32.5667 200.299 33.5L199.599 34.54C198.919 33.7267 197.959 33.32 196.719 33.32C196.066 33.32 195.546 33.4667 195.159 33.76C194.773 34.04 194.579 34.4 194.579 34.84C194.579 35.16 194.726 35.4267 195.019 35.64C195.313 35.8533 195.679 36.0067 196.119 36.1C196.573 36.1933 197.053 36.3133 197.559 36.46C198.079 36.6067 198.559 36.7733 198.999 36.96C199.453 37.1333 199.826 37.4267 200.119 37.84C200.413 38.24 200.559 38.7333 200.559 39.32C200.559 40.1733 200.226 40.8733 199.559 41.42C198.906 41.9667 197.979 42.24 196.779 42.24ZM204.456 30.68C204.269 30.8667 204.036 30.96 203.756 30.96C203.476 30.96 203.236 30.8667 203.036 30.68C202.836 30.48 202.736 30.24 202.736 29.96C202.736 29.68 202.836 29.44 203.036 29.24C203.236 29.04 203.476 28.94 203.756 28.94C204.036 28.94 204.269 29.04 204.456 29.24C204.656 29.44 204.756 29.68 204.756 29.96C204.756 30.24 204.656 30.48 204.456 30.68ZM204.496 42H202.996V32.34H204.496V42ZM209.948 42.24C208.508 42.24 207.788 41.4867 207.788 39.98V33.66H206.188V32.34H207.788V29.7H209.308V32.34H211.268V33.66H209.308V39.66C209.308 40.0333 209.388 40.3333 209.548 40.56C209.722 40.7867 209.962 40.9 210.268 40.9C210.695 40.9 211.035 40.76 211.288 40.48L211.728 41.62C211.288 42.0333 210.695 42.24 209.948 42.24ZM227.043 42H225.543V40.56C224.716 41.68 223.63 42.24 222.283 42.24C221.003 42.24 219.963 41.7867 219.163 40.88C218.376 39.96 217.983 38.7267 217.983 37.18C217.983 35.6467 218.383 34.42 219.183 33.5C219.983 32.5667 221.016 32.1 222.283 32.1C223.616 32.1 224.703 32.6667 225.543 33.8V32.34H227.043V42ZM222.663 40.9C223.236 40.9 223.79 40.7533 224.323 40.46C224.87 40.1533 225.276 39.7867 225.543 39.36V35C225.276 34.56 224.87 34.1933 224.323 33.9C223.79 33.5933 223.236 33.44 222.663 33.44C221.703 33.44 220.943 33.7933 220.383 34.5C219.823 35.1933 219.543 36.0867 219.543 37.18C219.543 38.2733 219.823 39.1667 220.383 39.86C220.943 40.5533 221.703 40.9 222.663 40.9ZM243.207 42H241.707V35.44C241.707 34.1067 241.114 33.44 239.927 33.44C239.447 33.44 238.967 33.5867 238.487 33.88C238.007 34.16 237.634 34.5067 237.367 34.92V42H235.867V35.44C235.867 34.1067 235.274 33.44 234.087 33.44C233.62 33.44 233.147 33.5867 232.667 33.88C232.2 34.1733 231.827 34.5267 231.547 34.94V42H230.047V32.34H231.547V33.74C231.8 33.3533 232.22 32.9867 232.807 32.64C233.407 32.28 234.034 32.1 234.687 32.1C235.38 32.1 235.947 32.2667 236.387 32.6C236.827 32.9333 237.12 33.3667 237.267 33.9C237.56 33.42 238.007 33 238.607 32.64C239.207 32.28 239.84 32.1 240.507 32.1C242.307 32.1 243.207 33.0733 243.207 35.02V42ZM250.579 42.24C249.126 42.24 247.939 41.7733 247.019 40.84C246.099 39.8933 245.639 38.6667 245.639 37.16C245.639 35.7467 246.093 34.5533 246.999 33.58C247.906 32.5933 249.039 32.1 250.399 32.1C251.826 32.1 252.953 32.5933 253.779 33.58C254.619 34.5533 255.039 35.7867 255.039 37.28V37.66H247.239C247.306 38.6067 247.646 39.4 248.259 40.04C248.886 40.68 249.699 41 250.699 41C251.899 41 252.899 40.5867 253.699 39.76L254.419 40.74C253.393 41.74 252.113 42.24 250.579 42.24ZM253.559 36.54C253.546 35.7267 253.266 34.9933 252.719 34.34C252.173 33.6733 251.393 33.34 250.379 33.34C249.419 33.34 248.659 33.6667 248.099 34.32C247.553 34.9733 247.259 35.7133 247.219 36.54H253.559ZM259.929 42.24C258.489 42.24 257.769 41.4867 257.769 39.98V33.66H256.169V32.34H257.769V29.7H259.289V32.34H261.249V33.66H259.289V39.66C259.289 40.0333 259.369 40.3333 259.529 40.56C259.702 40.7867 259.942 40.9 260.249 40.9C260.675 40.9 261.015 40.76 261.269 40.48L261.709 41.62C261.269 42.0333 260.675 42.24 259.929 42.24Z" fill="#505050"/>
<rect y="57" width="13" height="13" rx="2" fill="#4B034F"/>
<path d="M32.2 70H24.34V56.66H26V68.52H32.2V70ZM41.6136 68.78C40.7469 69.7533 39.5936 70.24 38.1536 70.24C36.7136 70.24 35.5536 69.7533 34.6736 68.78C33.8069 67.8067 33.3736 66.6 33.3736 65.16C33.3736 63.72 33.8069 62.52 34.6736 61.56C35.5536 60.5867 36.7136 60.1 38.1536 60.1C39.5936 60.1 40.7469 60.5867 41.6136 61.56C42.4936 62.52 42.9336 63.72 42.9336 65.16C42.9336 66.6 42.4936 67.8067 41.6136 68.78ZM35.8136 67.82C36.3869 68.54 37.1669 68.9 38.1536 68.9C39.1403 68.9 39.9203 68.54 40.4936 67.82C41.0669 67.0867 41.3536 66.2 41.3536 65.16C41.3536 64.12 41.0669 63.24 40.4936 62.52C39.9203 61.8 39.1403 61.44 38.1536 61.44C37.1669 61.44 36.3869 61.8 35.8136 62.52C35.2403 63.24 34.9536 64.12 34.9536 65.16C34.9536 66.2 35.2403 67.0867 35.8136 67.82ZM46.8789 70H45.3789V60.34H46.8789V61.88C47.7989 60.7067 48.8722 60.12 50.0989 60.12V61.66C49.8589 61.6333 49.6656 61.62 49.5189 61.62C49.0522 61.62 48.5522 61.78 48.0189 62.1C47.4856 62.4067 47.1056 62.76 46.8789 63.16V70ZM56.3605 70.24C54.9071 70.24 53.7205 69.7733 52.8005 68.84C51.8805 67.8933 51.4205 66.6667 51.4205 65.16C51.4205 63.7467 51.8738 62.5533 52.7805 61.58C53.6871 60.5933 54.8205 60.1 56.1805 60.1C57.6071 60.1 58.7338 60.5933 59.5605 61.58C60.4005 62.5533 60.8205 63.7867 60.8205 65.28V65.66H53.0205C53.0871 66.6067 53.4271 67.4 54.0405 68.04C54.6671 68.68 55.4805 69 56.4805 69C57.6805 69 58.6805 68.5867 59.4805 67.76L60.2005 68.74C59.1738 69.74 57.8938 70.24 56.3605 70.24ZM59.3405 64.54C59.3271 63.7267 59.0471 62.9933 58.5005 62.34C57.9538 61.6733 57.1738 61.34 56.1605 61.34C55.2005 61.34 54.4405 61.6667 53.8805 62.32C53.3338 62.9733 53.0405 63.7133 53.0005 64.54H59.3405ZM76.41 70H74.91V63.44C74.91 62.1067 74.3167 61.44 73.13 61.44C72.65 61.44 72.17 61.5867 71.69 61.88C71.21 62.16 70.8367 62.5067 70.57 62.92V70H69.07V63.44C69.07 62.1067 68.4767 61.44 67.29 61.44C66.8233 61.44 66.35 61.5867 65.87 61.88C65.4033 62.1733 65.03 62.5267 64.75 62.94V70H63.25V60.34H64.75V61.74C65.0033 61.3533 65.4233 60.9867 66.01 60.64C66.61 60.28 67.2367 60.1 67.89 60.1C68.5833 60.1 69.15 60.2667 69.59 60.6C70.03 60.9333 70.3233 61.3667 70.47 61.9C70.7633 61.42 71.21 61 71.81 60.64C72.41 60.28 73.0433 60.1 73.71 60.1C75.51 60.1 76.41 61.0733 76.41 63.02V70ZM86.0381 58.68C85.8515 58.8667 85.6181 58.96 85.3381 58.96C85.0581 58.96 84.8181 58.8667 84.6181 58.68C84.4181 58.48 84.3181 58.24 84.3181 57.96C84.3181 57.68 84.4181 57.44 84.6181 57.24C84.8181 57.04 85.0581 56.94 85.3381 56.94C85.6181 56.94 85.8515 57.04 86.0381 57.24C86.2381 57.44 86.3381 57.68 86.3381 57.96C86.3381 58.24 86.2381 58.48 86.0381 58.68ZM86.0781 70H84.5781V60.34H86.0781V70ZM93.8303 70.24C92.5103 70.24 91.4236 69.6733 90.5703 68.54V73.68H89.0703V60.34H90.5703V61.78C90.9303 61.2733 91.397 60.8667 91.9703 60.56C92.5436 60.2533 93.1636 60.1 93.8303 60.1C95.1103 60.1 96.1436 60.56 96.9303 61.48C97.7303 62.3867 98.1303 63.6133 98.1303 65.16C98.1303 66.7067 97.7303 67.94 96.9303 68.86C96.1436 69.78 95.1103 70.24 93.8303 70.24ZM93.4503 68.9C94.397 68.9 95.1503 68.5533 95.7103 67.86C96.2703 67.1533 96.5503 66.2533 96.5503 65.16C96.5503 64.0667 96.2703 63.1733 95.7103 62.48C95.1503 61.7867 94.397 61.44 93.4503 61.44C92.877 61.44 92.317 61.5933 91.7703 61.9C91.237 62.1933 90.837 62.5533 90.5703 62.98V67.34C90.837 67.78 91.237 68.1533 91.7703 68.46C92.317 68.7533 92.877 68.9 93.4503 68.9ZM103.596 70.24C101.969 70.24 100.669 69.7333 99.6956 68.72L100.456 67.64C100.789 68.0267 101.242 68.3533 101.816 68.62C102.402 68.8867 103.009 69.02 103.636 69.02C104.356 69.02 104.916 68.8667 105.316 68.56C105.729 68.2533 105.936 67.8533 105.936 67.36C105.936 66.9333 105.729 66.6 105.316 66.36C104.902 66.1067 104.402 65.92 103.816 65.8C103.229 65.6667 102.642 65.52 102.056 65.36C101.482 65.1867 100.989 64.9 100.576 64.5C100.162 64.0867 99.9556 63.5467 99.9556 62.88C99.9556 62.0933 100.276 61.4333 100.916 60.9C101.556 60.3667 102.429 60.1 103.536 60.1C105.016 60.1 106.209 60.5667 107.116 61.5L106.416 62.54C105.736 61.7267 104.776 61.32 103.536 61.32C102.882 61.32 102.362 61.4667 101.976 61.76C101.589 62.04 101.396 62.4 101.396 62.84C101.396 63.16 101.542 63.4267 101.836 63.64C102.129 63.8533 102.496 64.0067 102.936 64.1C103.389 64.1933 103.869 64.3133 104.376 64.46C104.896 64.6067 105.376 64.7733 105.816 64.96C106.269 65.1333 106.642 65.4267 106.936 65.84C107.229 66.24 107.376 66.7333 107.376 67.32C107.376 68.1733 107.042 68.8733 106.376 69.42C105.722 69.9667 104.796 70.24 103.596 70.24ZM117.833 70H116.333V68.64C115.933 69.0933 115.426 69.4733 114.813 69.78C114.213 70.0867 113.573 70.24 112.893 70.24C110.839 70.24 109.813 69.2133 109.813 67.16V60.34H111.313V66.7C111.313 67.5 111.499 68.0667 111.873 68.4C112.246 68.7333 112.786 68.9 113.493 68.9C114.053 68.9 114.593 68.76 115.113 68.48C115.633 68.2 116.039 67.8533 116.333 67.44V60.34H117.833V70ZM133.988 70H132.488V63.44C132.488 62.1067 131.895 61.44 130.708 61.44C130.228 61.44 129.748 61.5867 129.268 61.88C128.788 62.16 128.415 62.5067 128.148 62.92V70H126.648V63.44C126.648 62.1067 126.055 61.44 124.868 61.44C124.401 61.44 123.928 61.5867 123.448 61.88C122.981 62.1733 122.608 62.5267 122.328 62.94V70H120.828V60.34H122.328V61.74C122.581 61.3533 123.001 60.9867 123.588 60.64C124.188 60.28 124.815 60.1 125.468 60.1C126.161 60.1 126.728 60.2667 127.168 60.6C127.608 60.9333 127.901 61.3667 128.048 61.9C128.341 61.42 128.788 61 129.388 60.64C129.988 60.28 130.621 60.1 131.288 60.1C133.088 60.1 133.988 61.0733 133.988 63.02V70ZM150.656 70H149.156V68.56C148.33 69.68 147.243 70.24 145.896 70.24C144.616 70.24 143.576 69.7867 142.776 68.88C141.99 67.96 141.596 66.7267 141.596 65.18C141.596 63.6467 141.996 62.42 142.796 61.5C143.596 60.5667 144.63 60.1 145.896 60.1C147.23 60.1 148.316 60.6667 149.156 61.8V56.66H150.656V70ZM146.276 68.9C146.85 68.9 147.403 68.7533 147.936 68.46C148.483 68.1533 148.89 67.7867 149.156 67.36V63C148.89 62.56 148.483 62.1933 147.936 61.9C147.403 61.5933 146.85 61.44 146.276 61.44C145.316 61.44 144.556 61.7933 143.996 62.5C143.436 63.1933 143.156 64.0867 143.156 65.18C143.156 66.2733 143.436 67.1667 143.996 67.86C144.556 68.5533 145.316 68.9 146.276 68.9ZM161.34 68.78C160.473 69.7533 159.32 70.24 157.88 70.24C156.44 70.24 155.28 69.7533 154.4 68.78C153.533 67.8067 153.1 66.6 153.1 65.16C153.1 63.72 153.533 62.52 154.4 61.56C155.28 60.5867 156.44 60.1 157.88 60.1C159.32 60.1 160.473 60.5867 161.34 61.56C162.22 62.52 162.66 63.72 162.66 65.16C162.66 66.6 162.22 67.8067 161.34 68.78ZM155.54 67.82C156.113 68.54 156.893 68.9 157.88 68.9C158.867 68.9 159.647 68.54 160.22 67.82C160.793 67.0867 161.08 66.2 161.08 65.16C161.08 64.12 160.793 63.24 160.22 62.52C159.647 61.8 158.867 61.44 157.88 61.44C156.893 61.44 156.113 61.8 155.54 62.52C154.967 63.24 154.68 64.12 154.68 65.16C154.68 66.2 154.967 67.0867 155.54 67.82ZM167.245 70.24C166.539 70.24 166.005 70.0467 165.645 69.66C165.285 69.2733 165.105 68.7133 165.105 67.98V56.66H166.605V67.66C166.605 68.0333 166.685 68.3333 166.845 68.56C167.019 68.7867 167.265 68.9 167.585 68.9C168.025 68.9 168.359 68.76 168.585 68.48L169.045 69.62C168.592 70.0333 167.992 70.24 167.245 70.24ZM178.157 68.78C177.29 69.7533 176.137 70.24 174.697 70.24C173.257 70.24 172.097 69.7533 171.217 68.78C170.35 67.8067 169.917 66.6 169.917 65.16C169.917 63.72 170.35 62.52 171.217 61.56C172.097 60.5867 173.257 60.1 174.697 60.1C176.137 60.1 177.29 60.5867 178.157 61.56C179.037 62.52 179.477 63.72 179.477 65.16C179.477 66.6 179.037 67.8067 178.157 68.78ZM172.357 67.82C172.93 68.54 173.71 68.9 174.697 68.9C175.683 68.9 176.463 68.54 177.037 67.82C177.61 67.0867 177.897 66.2 177.897 65.16C177.897 64.12 177.61 63.24 177.037 62.52C176.463 61.8 175.683 61.44 174.697 61.44C173.71 61.44 172.93 61.8 172.357 62.52C171.783 63.24 171.497 64.12 171.497 65.16C171.497 66.2 171.783 67.0867 172.357 67.82ZM183.422 70H181.922V60.34H183.422V61.88C184.342 60.7067 185.415 60.12 186.642 60.12V61.66C186.402 61.6333 186.209 61.62 186.062 61.62C185.595 61.62 185.095 61.78 184.562 62.1C184.029 62.4067 183.649 62.76 183.422 63.16V70ZM196.779 70.24C195.153 70.24 193.853 69.7333 192.879 68.72L193.639 67.64C193.973 68.0267 194.426 68.3533 194.999 68.62C195.586 68.8867 196.193 69.02 196.819 69.02C197.539 69.02 198.099 68.8667 198.499 68.56C198.913 68.2533 199.119 67.8533 199.119 67.36C199.119 66.9333 198.913 66.6 198.499 66.36C198.086 66.1067 197.586 65.92 196.999 65.8C196.413 65.6667 195.826 65.52 195.239 65.36C194.666 65.1867 194.173 64.9 193.759 64.5C193.346 64.0867 193.139 63.5467 193.139 62.88C193.139 62.0933 193.459 61.4333 194.099 60.9C194.739 60.3667 195.613 60.1 196.719 60.1C198.199 60.1 199.393 60.5667 200.299 61.5L199.599 62.54C198.919 61.7267 197.959 61.32 196.719 61.32C196.066 61.32 195.546 61.4667 195.159 61.76C194.773 62.04 194.579 62.4 194.579 62.84C194.579 63.16 194.726 63.4267 195.019 63.64C195.313 63.8533 195.679 64.0067 196.119 64.1C196.573 64.1933 197.053 64.3133 197.559 64.46C198.079 64.6067 198.559 64.7733 198.999 64.96C199.453 65.1333 199.826 65.4267 200.119 65.84C200.413 66.24 200.559 66.7333 200.559 67.32C200.559 68.1733 200.226 68.8733 199.559 69.42C198.906 69.9667 197.979 70.24 196.779 70.24ZM204.456 58.68C204.269 58.8667 204.036 58.96 203.756 58.96C203.476 58.96 203.236 58.8667 203.036 58.68C202.836 58.48 202.736 58.24 202.736 57.96C202.736 57.68 202.836 57.44 203.036 57.24C203.236 57.04 203.476 56.94 203.756 56.94C204.036 56.94 204.269 57.04 204.456 57.24C204.656 57.44 204.756 57.68 204.756 57.96C204.756 58.24 204.656 58.48 204.456 58.68ZM204.496 70H202.996V60.34H204.496V70ZM209.948 70.24C208.508 70.24 207.788 69.4867 207.788 67.98V61.66H206.188V60.34H207.788V57.7H209.308V60.34H211.268V61.66H209.308V67.66C209.308 68.0333 209.388 68.3333 209.548 68.56C209.722 68.7867 209.962 68.9 210.268 68.9C210.695 68.9 211.035 68.76 211.288 68.48L211.728 69.62C211.288 70.0333 210.695 70.24 209.948 70.24ZM227.043 70H225.543V68.56C224.716 69.68 223.63 70.24 222.283 70.24C221.003 70.24 219.963 69.7867 219.163 68.88C218.376 67.96 217.983 66.7267 217.983 65.18C217.983 63.6467 218.383 62.42 219.183 61.5C219.983 60.5667 221.016 60.1 222.283 60.1C223.616 60.1 224.703 60.6667 225.543 61.8V60.34H227.043V70ZM222.663 68.9C223.236 68.9 223.79 68.7533 224.323 68.46C224.87 68.1533 225.276 67.7867 225.543 67.36V63C225.276 62.56 224.87 62.1933 224.323 61.9C223.79 61.5933 223.236 61.44 222.663 61.44C221.703 61.44 220.943 61.7933 220.383 62.5C219.823 63.1933 219.543 64.0867 219.543 65.18C219.543 66.2733 219.823 67.1667 220.383 67.86C220.943 68.5533 221.703 68.9 222.663 68.9ZM243.207 70H241.707V63.44C241.707 62.1067 241.114 61.44 239.927 61.44C239.447 61.44 238.967 61.5867 238.487 61.88C238.007 62.16 237.634 62.5067 237.367 62.92V70H235.867V63.44C235.867 62.1067 235.274 61.44 234.087 61.44C233.62 61.44 233.147 61.5867 232.667 61.88C232.2 62.1733 231.827 62.5267 231.547 62.94V70H230.047V60.34H231.547V61.74C231.8 61.3533 232.22 60.9867 232.807 60.64C233.407 60.28 234.034 60.1 234.687 60.1C235.38 60.1 235.947 60.2667 236.387 60.6C236.827 60.9333 237.12 61.3667 237.267 61.9C237.56 61.42 238.007 61 238.607 60.64C239.207 60.28 239.84 60.1 240.507 60.1C242.307 60.1 243.207 61.0733 243.207 63.02V70ZM250.579 70.24C249.126 70.24 247.939 69.7733 247.019 68.84C246.099 67.8933 245.639 66.6667 245.639 65.16C245.639 63.7467 246.093 62.5533 246.999 61.58C247.906 60.5933 249.039 60.1 250.399 60.1C251.826 60.1 252.953 60.5933 253.779 61.58C254.619 62.5533 255.039 63.7867 255.039 65.28V65.66H247.239C247.306 66.6067 247.646 67.4 248.259 68.04C248.886 68.68 249.699 69 250.699 69C251.899 69 252.899 68.5867 253.699 67.76L254.419 68.74C253.393 69.74 252.113 70.24 250.579 70.24ZM253.559 64.54C253.546 63.7267 253.266 62.9933 252.719 62.34C252.173 61.6733 251.393 61.34 250.379 61.34C249.419 61.34 248.659 61.6667 248.099 62.32C247.553 62.9733 247.259 63.7133 247.219 64.54H253.559ZM259.929 70.24C258.489 70.24 257.769 69.4867 257.769 67.98V61.66H256.169V60.34H257.769V57.7H259.289V60.34H261.249V61.66H259.289V67.66C259.289 68.0333 259.369 68.3333 259.529 68.56C259.702 68.7867 259.942 68.9 260.249 68.9C260.675 68.9 261.015 68.76 261.269 68.48L261.709 69.62C261.269 70.0333 260.675 70.24 259.929 70.24Z" fill="#505050"/>
<rect y="85" width="13" height="13" rx="2" fill="#41A5B4"/>
<path d="M32.2 98H24.34V84.66H26V96.52H32.2V98ZM41.6136 96.78C40.7469 97.7533 39.5936 98.24 38.1536 98.24C36.7136 98.24 35.5536 97.7533 34.6736 96.78C33.8069 95.8067 33.3736 94.6 33.3736 93.16C33.3736 91.72 33.8069 90.52 34.6736 89.56C35.5536 88.5867 36.7136 88.1 38.1536 88.1C39.5936 88.1 40.7469 88.5867 41.6136 89.56C42.4936 90.52 42.9336 91.72 42.9336 93.16C42.9336 94.6 42.4936 95.8067 41.6136 96.78ZM35.8136 95.82C36.3869 96.54 37.1669 96.9 38.1536 96.9C39.1403 96.9 39.9203 96.54 40.4936 95.82C41.0669 95.0867 41.3536 94.2 41.3536 93.16C41.3536 92.12 41.0669 91.24 40.4936 90.52C39.9203 89.8 39.1403 89.44 38.1536 89.44C37.1669 89.44 36.3869 89.8 35.8136 90.52C35.2403 91.24 34.9536 92.12 34.9536 93.16C34.9536 94.2 35.2403 95.0867 35.8136 95.82ZM46.8789 98H45.3789V88.34H46.8789V89.88C47.7989 88.7067 48.8722 88.12 50.0989 88.12V89.66C49.8589 89.6333 49.6656 89.62 49.5189 89.62C49.0522 89.62 48.5522 89.78 48.0189 90.1C47.4856 90.4067 47.1056 90.76 46.8789 91.16V98ZM56.3605 98.24C54.9071 98.24 53.7205 97.7733 52.8005 96.84C51.8805 95.8933 51.4205 94.6667 51.4205 93.16C51.4205 91.7467 51.8738 90.5533 52.7805 89.58C53.6871 88.5933 54.8205 88.1 56.1805 88.1C57.6071 88.1 58.7338 88.5933 59.5605 89.58C60.4005 90.5533 60.8205 91.7867 60.8205 93.28V93.66H53.0205C53.0871 94.6067 53.4271 95.4 54.0405 96.04C54.6671 96.68 55.4805 97 56.4805 97C57.6805 97 58.6805 96.5867 59.4805 95.76L60.2005 96.74C59.1738 97.74 57.8938 98.24 56.3605 98.24ZM59.3405 92.54C59.3271 91.7267 59.0471 90.9933 58.5005 90.34C57.9538 89.6733 57.1738 89.34 56.1605 89.34C55.2005 89.34 54.4405 89.6667 53.8805 90.32C53.3338 90.9733 53.0405 91.7133 53.0005 92.54H59.3405ZM76.41 98H74.91V91.44C74.91 90.1067 74.3167 89.44 73.13 89.44C72.65 89.44 72.17 89.5867 71.69 89.88C71.21 90.16 70.8367 90.5067 70.57 90.92V98H69.07V91.44C69.07 90.1067 68.4767 89.44 67.29 89.44C66.8233 89.44 66.35 89.5867 65.87 89.88C65.4033 90.1733 65.03 90.5267 64.75 90.94V98H63.25V88.34H64.75V89.74C65.0033 89.3533 65.4233 88.9867 66.01 88.64C66.61 88.28 67.2367 88.1 67.89 88.1C68.5833 88.1 69.15 88.2667 69.59 88.6C70.03 88.9333 70.3233 89.3667 70.47 89.9C70.7633 89.42 71.21 89 71.81 88.64C72.41 88.28 73.0433 88.1 73.71 88.1C75.51 88.1 76.41 89.0733 76.41 91.02V98ZM86.0381 86.68C85.8515 86.8667 85.6181 86.96 85.3381 86.96C85.0581 86.96 84.8181 86.8667 84.6181 86.68C84.4181 86.48 84.3181 86.24 84.3181 85.96C84.3181 85.68 84.4181 85.44 84.6181 85.24C84.8181 85.04 85.0581 84.94 85.3381 84.94C85.6181 84.94 85.8515 85.04 86.0381 85.24C86.2381 85.44 86.3381 85.68 86.3381 85.96C86.3381 86.24 86.2381 86.48 86.0381 86.68ZM86.0781 98H84.5781V88.34H86.0781V98ZM93.8303 98.24C92.5103 98.24 91.4236 97.6733 90.5703 96.54V101.68H89.0703V88.34H90.5703V89.78C90.9303 89.2733 91.397 88.8667 91.9703 88.56C92.5436 88.2533 93.1636 88.1 93.8303 88.1C95.1103 88.1 96.1436 88.56 96.9303 89.48C97.7303 90.3867 98.1303 91.6133 98.1303 93.16C98.1303 94.7067 97.7303 95.94 96.9303 96.86C96.1436 97.78 95.1103 98.24 93.8303 98.24ZM93.4503 96.9C94.397 96.9 95.1503 96.5533 95.7103 95.86C96.2703 95.1533 96.5503 94.2533 96.5503 93.16C96.5503 92.0667 96.2703 91.1733 95.7103 90.48C95.1503 89.7867 94.397 89.44 93.4503 89.44C92.877 89.44 92.317 89.5933 91.7703 89.9C91.237 90.1933 90.837 90.5533 90.5703 90.98V95.34C90.837 95.78 91.237 96.1533 91.7703 96.46C92.317 96.7533 92.877 96.9 93.4503 96.9ZM103.596 98.24C101.969 98.24 100.669 97.7333 99.6956 96.72L100.456 95.64C100.789 96.0267 101.242 96.3533 101.816 96.62C102.402 96.8867 103.009 97.02 103.636 97.02C104.356 97.02 104.916 96.8667 105.316 96.56C105.729 96.2533 105.936 95.8533 105.936 95.36C105.936 94.9333 105.729 94.6 105.316 94.36C104.902 94.1067 104.402 93.92 103.816 93.8C103.229 93.6667 102.642 93.52 102.056 93.36C101.482 93.1867 100.989 92.9 100.576 92.5C100.162 92.0867 99.9556 91.5467 99.9556 90.88C99.9556 90.0933 100.276 89.4333 100.916 88.9C101.556 88.3667 102.429 88.1 103.536 88.1C105.016 88.1 106.209 88.5667 107.116 89.5L106.416 90.54C105.736 89.7267 104.776 89.32 103.536 89.32C102.882 89.32 102.362 89.4667 101.976 89.76C101.589 90.04 101.396 90.4 101.396 90.84C101.396 91.16 101.542 91.4267 101.836 91.64C102.129 91.8533 102.496 92.0067 102.936 92.1C103.389 92.1933 103.869 92.3133 104.376 92.46C104.896 92.6067 105.376 92.7733 105.816 92.96C106.269 93.1333 106.642 93.4267 106.936 93.84C107.229 94.24 107.376 94.7333 107.376 95.32C107.376 96.1733 107.042 96.8733 106.376 97.42C105.722 97.9667 104.796 98.24 103.596 98.24ZM117.833 98H116.333V96.64C115.933 97.0933 115.426 97.4733 114.813 97.78C114.213 98.0867 113.573 98.24 112.893 98.24C110.839 98.24 109.813 97.2133 109.813 95.16V88.34H111.313V94.7C111.313 95.5 111.499 96.0667 111.873 96.4C112.246 96.7333 112.786 96.9 113.493 96.9C114.053 96.9 114.593 96.76 115.113 96.48C115.633 96.2 116.039 95.8533 116.333 95.44V88.34H117.833V98ZM133.988 98H132.488V91.44C132.488 90.1067 131.895 89.44 130.708 89.44C130.228 89.44 129.748 89.5867 129.268 89.88C128.788 90.16 128.415 90.5067 128.148 90.92V98H126.648V91.44C126.648 90.1067 126.055 89.44 124.868 89.44C124.401 89.44 123.928 89.5867 123.448 89.88C122.981 90.1733 122.608 90.5267 122.328 90.94V98H120.828V88.34H122.328V89.74C122.581 89.3533 123.001 88.9867 123.588 88.64C124.188 88.28 124.815 88.1 125.468 88.1C126.161 88.1 126.728 88.2667 127.168 88.6C127.608 88.9333 127.901 89.3667 128.048 89.9C128.341 89.42 128.788 89 129.388 88.64C129.988 88.28 130.621 88.1 131.288 88.1C133.088 88.1 133.988 89.0733 133.988 91.02V98ZM150.656 98H149.156V96.56C148.33 97.68 147.243 98.24 145.896 98.24C144.616 98.24 143.576 97.7867 142.776 96.88C141.99 95.96 141.596 94.7267 141.596 93.18C141.596 91.6467 141.996 90.42 142.796 89.5C143.596 88.5667 144.63 88.1 145.896 88.1C147.23 88.1 148.316 88.6667 149.156 89.8V84.66H150.656V98ZM146.276 96.9C146.85 96.9 147.403 96.7533 147.936 96.46C148.483 96.1533 148.89 95.7867 149.156 95.36V91C148.89 90.56 148.483 90.1933 147.936 89.9C147.403 89.5933 146.85 89.44 146.276 89.44C145.316 89.44 144.556 89.7933 143.996 90.5C143.436 91.1933 143.156 92.0867 143.156 93.18C143.156 94.2733 143.436 95.1667 143.996 95.86C144.556 96.5533 145.316 96.9 146.276 96.9ZM161.34 96.78C160.473 97.7533 159.32 98.24 157.88 98.24C156.44 98.24 155.28 97.7533 154.4 96.78C153.533 95.8067 153.1 94.6 153.1 93.16C153.1 91.72 153.533 90.52 154.4 89.56C155.28 88.5867 156.44 88.1 157.88 88.1C159.32 88.1 160.473 88.5867 161.34 89.56C162.22 90.52 162.66 91.72 162.66 93.16C162.66 94.6 162.22 95.8067 161.34 96.78ZM155.54 95.82C156.113 96.54 156.893 96.9 157.88 96.9C158.867 96.9 159.647 96.54 160.22 95.82C160.793 95.0867 161.08 94.2 161.08 93.16C161.08 92.12 160.793 91.24 160.22 90.52C159.647 89.8 158.867 89.44 157.88 89.44C156.893 89.44 156.113 89.8 155.54 90.52C154.967 91.24 154.68 92.12 154.68 93.16C154.68 94.2 154.967 95.0867 155.54 95.82ZM167.245 98.24C166.539 98.24 166.005 98.0467 165.645 97.66C165.285 97.2733 165.105 96.7133 165.105 95.98V84.66H166.605V95.66C166.605 96.0333 166.685 96.3333 166.845 96.56C167.019 96.7867 167.265 96.9 167.585 96.9C168.025 96.9 168.359 96.76 168.585 96.48L169.045 97.62C168.592 98.0333 167.992 98.24 167.245 98.24ZM178.157 96.78C177.29 97.7533 176.137 98.24 174.697 98.24C173.257 98.24 172.097 97.7533 171.217 96.78C170.35 95.8067 169.917 94.6 169.917 93.16C169.917 91.72 170.35 90.52 171.217 89.56C172.097 88.5867 173.257 88.1 174.697 88.1C176.137 88.1 177.29 88.5867 178.157 89.56C179.037 90.52 179.477 91.72 179.477 93.16C179.477 94.6 179.037 95.8067 178.157 96.78ZM172.357 95.82C172.93 96.54 173.71 96.9 174.697 96.9C175.683 96.9 176.463 96.54 177.037 95.82C177.61 95.0867 177.897 94.2 177.897 93.16C177.897 92.12 177.61 91.24 177.037 90.52C176.463 89.8 175.683 89.44 174.697 89.44C173.71 89.44 172.93 89.8 172.357 90.52C171.783 91.24 171.497 92.12 171.497 93.16C171.497 94.2 171.783 95.0867 172.357 95.82ZM183.422 98H181.922V88.34H183.422V89.88C184.342 88.7067 185.415 88.12 186.642 88.12V89.66C186.402 89.6333 186.209 89.62 186.062 89.62C185.595 89.62 185.095 89.78 184.562 90.1C184.029 90.4067 183.649 90.76 183.422 91.16V98ZM196.779 98.24C195.153 98.24 193.853 97.7333 192.879 96.72L193.639 95.64C193.973 96.0267 194.426 96.3533 194.999 96.62C195.586 96.8867 196.193 97.02 196.819 97.02C197.539 97.02 198.099 96.8667 198.499 96.56C198.913 96.2533 199.119 95.8533 199.119 95.36C199.119 94.9333 198.913 94.6 198.499 94.36C198.086 94.1067 197.586 93.92 196.999 93.8C196.413 93.6667 195.826 93.52 195.239 93.36C194.666 93.1867 194.173 92.9 193.759 92.5C193.346 92.0867 193.139 91.5467 193.139 90.88C193.139 90.0933 193.459 89.4333 194.099 88.9C194.739 88.3667 195.613 88.1 196.719 88.1C198.199 88.1 199.393 88.5667 200.299 89.5L199.599 90.54C198.919 89.7267 197.959 89.32 196.719 89.32C196.066 89.32 195.546 89.4667 195.159 89.76C194.773 90.04 194.579 90.4 194.579 90.84C194.579 91.16 194.726 91.4267 195.019 91.64C195.313 91.8533 195.679 92.0067 196.119 92.1C196.573 92.1933 197.053 92.3133 197.559 92.46C198.079 92.6067 198.559 92.7733 198.999 92.96C199.453 93.1333 199.826 93.4267 200.119 93.84C200.413 94.24 200.559 94.7333 200.559 95.32C200.559 96.1733 200.226 96.8733 199.559 97.42C198.906 97.9667 197.979 98.24 196.779 98.24ZM204.456 86.68C204.269 86.8667 204.036 86.96 203.756 86.96C203.476 86.96 203.236 86.8667 203.036 86.68C202.836 86.48 202.736 86.24 202.736 85.96C202.736 85.68 202.836 85.44 203.036 85.24C203.236 85.04 203.476 84.94 203.756 84.94C204.036 84.94 204.269 85.04 204.456 85.24C204.656 85.44 204.756 85.68 204.756 85.96C204.756 86.24 204.656 86.48 204.456 86.68ZM204.496 98H202.996V88.34H204.496V98ZM209.948 98.24C208.508 98.24 207.788 97.4867 207.788 95.98V89.66H206.188V88.34H207.788V85.7H209.308V88.34H211.268V89.66H209.308V95.66C209.308 96.0333 209.388 96.3333 209.548 96.56C209.722 96.7867 209.962 96.9 210.268 96.9C210.695 96.9 211.035 96.76 211.288 96.48L211.728 97.62C211.288 98.0333 210.695 98.24 209.948 98.24ZM227.043 98H225.543V96.56C224.716 97.68 223.63 98.24 222.283 98.24C221.003 98.24 219.963 97.7867 219.163 96.88C218.376 95.96 217.983 94.7267 217.983 93.18C217.983 91.6467 218.383 90.42 219.183 89.5C219.983 88.5667 221.016 88.1 222.283 88.1C223.616 88.1 224.703 88.6667 225.543 89.8V88.34H227.043V98ZM222.663 96.9C223.236 96.9 223.79 96.7533 224.323 96.46C224.87 96.1533 225.276 95.7867 225.543 95.36V91C225.276 90.56 224.87 90.1933 224.323 89.9C223.79 89.5933 223.236 89.44 222.663 89.44C221.703 89.44 220.943 89.7933 220.383 90.5C219.823 91.1933 219.543 92.0867 219.543 93.18C219.543 94.2733 219.823 95.1667 220.383 95.86C220.943 96.5533 221.703 96.9 222.663 96.9ZM243.207 98H241.707V91.44C241.707 90.1067 241.114 89.44 239.927 89.44C239.447 89.44 238.967 89.5867 238.487 89.88C238.007 90.16 237.634 90.5067 237.367 90.92V98H235.867V91.44C235.867 90.1067 235.274 89.44 234.087 89.44C233.62 89.44 233.147 89.5867 232.667 89.88C232.2 90.1733 231.827 90.5267 231.547 90.94V98H230.047V88.34H231.547V89.74C231.8 89.3533 232.22 88.9867 232.807 88.64C233.407 88.28 234.034 88.1 234.687 88.1C235.38 88.1 235.947 88.2667 236.387 88.6C236.827 88.9333 237.12 89.3667 237.267 89.9C237.56 89.42 238.007 89 238.607 88.64C239.207 88.28 239.84 88.1 240.507 88.1C242.307 88.1 243.207 89.0733 243.207 91.02V98ZM250.579 98.24C249.126 98.24 247.939 97.7733 247.019 96.84C246.099 95.8933 245.639 94.6667 245.639 93.16C245.639 91.7467 246.093 90.5533 246.999 89.58C247.906 88.5933 249.039 88.1 250.399 88.1C251.826 88.1 252.953 88.5933 253.779 89.58C254.619 90.5533 255.039 91.7867 255.039 93.28V93.66H247.239C247.306 94.6067 247.646 95.4 248.259 96.04C248.886 96.68 249.699 97 250.699 97C251.899 97 252.899 96.5867 253.699 95.76L254.419 96.74C253.393 97.74 252.113 98.24 250.579 98.24ZM253.559 92.54C253.546 91.7267 253.266 90.9933 252.719 90.34C252.173 89.6733 251.393 89.34 250.379 89.34C249.419 89.34 248.659 89.6667 248.099 90.32C247.553 90.9733 247.259 91.7133 247.219 92.54H253.559ZM259.929 98.24C258.489 98.24 257.769 97.4867 257.769 95.98V89.66H256.169V88.34H257.769V85.7H259.289V88.34H261.249V89.66H259.289V95.66C259.289 96.0333 259.369 96.3333 259.529 96.56C259.702 96.7867 259.942 96.9 260.249 96.9C260.675 96.9 261.015 96.76 261.269 96.48L261.709 97.62C261.269 98.0333 260.675 98.24 259.929 98.24Z" fill="#505050"/>
<rect y="113" width="13" height="13" rx="2" fill="#B6174B"/>
<path d="M32.2 126H24.34V112.66H26V124.52H32.2V126ZM41.6136 124.78C40.7469 125.753 39.5936 126.24 38.1536 126.24C36.7136 126.24 35.5536 125.753 34.6736 124.78C33.8069 123.807 33.3736 122.6 33.3736 121.16C33.3736 119.72 33.8069 118.52 34.6736 117.56C35.5536 116.587 36.7136 116.1 38.1536 116.1C39.5936 116.1 40.7469 116.587 41.6136 117.56C42.4936 118.52 42.9336 119.72 42.9336 121.16C42.9336 122.6 42.4936 123.807 41.6136 124.78ZM35.8136 123.82C36.3869 124.54 37.1669 124.9 38.1536 124.9C39.1403 124.9 39.9203 124.54 40.4936 123.82C41.0669 123.087 41.3536 122.2 41.3536 121.16C41.3536 120.12 41.0669 119.24 40.4936 118.52C39.9203 117.8 39.1403 117.44 38.1536 117.44C37.1669 117.44 36.3869 117.8 35.8136 118.52C35.2403 119.24 34.9536 120.12 34.9536 121.16C34.9536 122.2 35.2403 123.087 35.8136 123.82ZM46.8789 126H45.3789V116.34H46.8789V117.88C47.7989 116.707 48.8722 116.12 50.0989 116.12V117.66C49.8589 117.633 49.6656 117.62 49.5189 117.62C49.0522 117.62 48.5522 117.78 48.0189 118.1C47.4856 118.407 47.1056 118.76 46.8789 119.16V126ZM56.3605 126.24C54.9071 126.24 53.7205 125.773 52.8005 124.84C51.8805 123.893 51.4205 122.667 51.4205 121.16C51.4205 119.747 51.8738 118.553 52.7805 117.58C53.6871 116.593 54.8205 116.1 56.1805 116.1C57.6071 116.1 58.7338 116.593 59.5605 117.58C60.4005 118.553 60.8205 119.787 60.8205 121.28V121.66H53.0205C53.0871 122.607 53.4271 123.4 54.0405 124.04C54.6671 124.68 55.4805 125 56.4805 125C57.6805 125 58.6805 124.587 59.4805 123.76L60.2005 124.74C59.1738 125.74 57.8938 126.24 56.3605 126.24ZM59.3405 120.54C59.3271 119.727 59.0471 118.993 58.5005 118.34C57.9538 117.673 57.1738 117.34 56.1605 117.34C55.2005 117.34 54.4405 117.667 53.8805 118.32C53.3338 118.973 53.0405 119.713 53.0005 120.54H59.3405ZM76.41 126H74.91V119.44C74.91 118.107 74.3167 117.44 73.13 117.44C72.65 117.44 72.17 117.587 71.69 117.88C71.21 118.16 70.8367 118.507 70.57 118.92V126H69.07V119.44C69.07 118.107 68.4767 117.44 67.29 117.44C66.8233 117.44 66.35 117.587 65.87 117.88C65.4033 118.173 65.03 118.527 64.75 118.94V126H63.25V116.34H64.75V117.74C65.0033 117.353 65.4233 116.987 66.01 116.64C66.61 116.28 67.2367 116.1 67.89 116.1C68.5833 116.1 69.15 116.267 69.59 116.6C70.03 116.933 70.3233 117.367 70.47 117.9C70.7633 117.42 71.21 117 71.81 116.64C72.41 116.28 73.0433 116.1 73.71 116.1C75.51 116.1 76.41 117.073 76.41 119.02V126ZM86.0381 114.68C85.8515 114.867 85.6181 114.96 85.3381 114.96C85.0581 114.96 84.8181 114.867 84.6181 114.68C84.4181 114.48 84.3181 114.24 84.3181 113.96C84.3181 113.68 84.4181 113.44 84.6181 113.24C84.8181 113.04 85.0581 112.94 85.3381 112.94C85.6181 112.94 85.8515 113.04 86.0381 113.24C86.2381 113.44 86.3381 113.68 86.3381 113.96C86.3381 114.24 86.2381 114.48 86.0381 114.68ZM86.0781 126H84.5781V116.34H86.0781V126ZM93.8303 126.24C92.5103 126.24 91.4236 125.673 90.5703 124.54V129.68H89.0703V116.34H90.5703V117.78C90.9303 117.273 91.397 116.867 91.9703 116.56C92.5436 116.253 93.1636 116.1 93.8303 116.1C95.1103 116.1 96.1436 116.56 96.9303 117.48C97.7303 118.387 98.1303 119.613 98.1303 121.16C98.1303 122.707 97.7303 123.94 96.9303 124.86C96.1436 125.78 95.1103 126.24 93.8303 126.24ZM93.4503 124.9C94.397 124.9 95.1503 124.553 95.7103 123.86C96.2703 123.153 96.5503 122.253 96.5503 121.16C96.5503 120.067 96.2703 119.173 95.7103 118.48C95.1503 117.787 94.397 117.44 93.4503 117.44C92.877 117.44 92.317 117.593 91.7703 117.9C91.237 118.193 90.837 118.553 90.5703 118.98V123.34C90.837 123.78 91.237 124.153 91.7703 124.46C92.317 124.753 92.877 124.9 93.4503 124.9ZM103.596 126.24C101.969 126.24 100.669 125.733 99.6956 124.72L100.456 123.64C100.789 124.027 101.242 124.353 101.816 124.62C102.402 124.887 103.009 125.02 103.636 125.02C104.356 125.02 104.916 124.867 105.316 124.56C105.729 124.253 105.936 123.853 105.936 123.36C105.936 122.933 105.729 122.6 105.316 122.36C104.902 122.107 104.402 121.92 103.816 121.8C103.229 121.667 102.642 121.52 102.056 121.36C101.482 121.187 100.989 120.9 100.576 120.5C100.162 120.087 99.9556 119.547 99.9556 118.88C99.9556 118.093 100.276 117.433 100.916 116.9C101.556 116.367 102.429 116.1 103.536 116.1C105.016 116.1 106.209 116.567 107.116 117.5L106.416 118.54C105.736 117.727 104.776 117.32 103.536 117.32C102.882 117.32 102.362 117.467 101.976 117.76C101.589 118.04 101.396 118.4 101.396 118.84C101.396 119.16 101.542 119.427 101.836 119.64C102.129 119.853 102.496 120.007 102.936 120.1C103.389 120.193 103.869 120.313 104.376 120.46C104.896 120.607 105.376 120.773 105.816 120.96C106.269 121.133 106.642 121.427 106.936 121.84C107.229 122.24 107.376 122.733 107.376 123.32C107.376 124.173 107.042 124.873 106.376 125.42C105.722 125.967 104.796 126.24 103.596 126.24ZM117.833 126H116.333V124.64C115.933 125.093 115.426 125.473 114.813 125.78C114.213 126.087 113.573 126.24 112.893 126.24C110.839 126.24 109.813 125.213 109.813 123.16V116.34H111.313V122.7C111.313 123.5 111.499 124.067 111.873 124.4C112.246 124.733 112.786 124.9 113.493 124.9C114.053 124.9 114.593 124.76 115.113 124.48C115.633 124.2 116.039 123.853 116.333 123.44V116.34H117.833V126ZM133.988 126H132.488V119.44C132.488 118.107 131.895 117.44 130.708 117.44C130.228 117.44 129.748 117.587 129.268 117.88C128.788 118.16 128.415 118.507 128.148 118.92V126H126.648V119.44C126.648 118.107 126.055 117.44 124.868 117.44C124.401 117.44 123.928 117.587 123.448 117.88C122.981 118.173 122.608 118.527 122.328 118.94V126H120.828V116.34H122.328V117.74C122.581 117.353 123.001 116.987 123.588 116.64C124.188 116.28 124.815 116.1 125.468 116.1C126.161 116.1 126.728 116.267 127.168 116.6C127.608 116.933 127.901 117.367 128.048 117.9C128.341 117.42 128.788 117 129.388 116.64C129.988 116.28 130.621 116.1 131.288 116.1C133.088 116.1 133.988 117.073 133.988 119.02V126ZM150.656 126H149.156V124.56C148.33 125.68 147.243 126.24 145.896 126.24C144.616 126.24 143.576 125.787 142.776 124.88C141.99 123.96 141.596 122.727 141.596 121.18C141.596 119.647 141.996 118.42 142.796 117.5C143.596 116.567 144.63 116.1 145.896 116.1C147.23 116.1 148.316 116.667 149.156 117.8V112.66H150.656V126ZM146.276 124.9C146.85 124.9 147.403 124.753 147.936 124.46C148.483 124.153 148.89 123.787 149.156 123.36V119C148.89 118.56 148.483 118.193 147.936 117.9C147.403 117.593 146.85 117.44 146.276 117.44C145.316 117.44 144.556 117.793 143.996 118.5C143.436 119.193 143.156 120.087 143.156 121.18C143.156 122.273 143.436 123.167 143.996 123.86C144.556 124.553 145.316 124.9 146.276 124.9ZM161.34 124.78C160.473 125.753 159.32 126.24 157.88 126.24C156.44 126.24 155.28 125.753 154.4 124.78C153.533 123.807 153.1 122.6 153.1 121.16C153.1 119.72 153.533 118.52 154.4 117.56C155.28 116.587 156.44 116.1 157.88 116.1C159.32 116.1 160.473 116.587 161.34 117.56C162.22 118.52 162.66 119.72 162.66 121.16C162.66 122.6 162.22 123.807 161.34 124.78ZM155.54 123.82C156.113 124.54 156.893 124.9 157.88 124.9C158.867 124.9 159.647 124.54 160.22 123.82C160.793 123.087 161.08 122.2 161.08 121.16C161.08 120.12 160.793 119.24 160.22 118.52C159.647 117.8 158.867 117.44 157.88 117.44C156.893 117.44 156.113 117.8 155.54 118.52C154.967 119.24 154.68 120.12 154.68 121.16C154.68 122.2 154.967 123.087 155.54 123.82ZM167.245 126.24C166.539 126.24 166.005 126.047 165.645 125.66C165.285 125.273 165.105 124.713 165.105 123.98V112.66H166.605V123.66C166.605 124.033 166.685 124.333 166.845 124.56C167.019 124.787 167.265 124.9 167.585 124.9C168.025 124.9 168.359 124.76 168.585 124.48L169.045 125.62C168.592 126.033 167.992 126.24 167.245 126.24ZM178.157 124.78C177.29 125.753 176.137 126.24 174.697 126.24C173.257 126.24 172.097 125.753 171.217 124.78C170.35 123.807 169.917 122.6 169.917 121.16C169.917 119.72 170.35 118.52 171.217 117.56C172.097 116.587 173.257 116.1 174.697 116.1C176.137 116.1 177.29 116.587 178.157 117.56C179.037 118.52 179.477 119.72 179.477 121.16C179.477 122.6 179.037 123.807 178.157 124.78ZM172.357 123.82C172.93 124.54 173.71 124.9 174.697 124.9C175.683 124.9 176.463 124.54 177.037 123.82C177.61 123.087 177.897 122.2 177.897 121.16C177.897 120.12 177.61 119.24 177.037 118.52C176.463 117.8 175.683 117.44 174.697 117.44C173.71 117.44 172.93 117.8 172.357 118.52C171.783 119.24 171.497 120.12 171.497 121.16C171.497 122.2 171.783 123.087 172.357 123.82ZM183.422 126H181.922V116.34H183.422V117.88C184.342 116.707 185.415 116.12 186.642 116.12V117.66C186.402 117.633 186.209 117.62 186.062 117.62C185.595 117.62 185.095 117.78 184.562 118.1C184.029 118.407 183.649 118.76 183.422 119.16V126ZM196.779 126.24C195.153 126.24 193.853 125.733 192.879 124.72L193.639 123.64C193.973 124.027 194.426 124.353 194.999 124.62C195.586 124.887 196.193 125.02 196.819 125.02C197.539 125.02 198.099 124.867 198.499 124.56C198.913 124.253 199.119 123.853 199.119 123.36C199.119 122.933 198.913 122.6 198.499 122.36C198.086 122.107 197.586 121.92 196.999 121.8C196.413 121.667 195.826 121.52 195.239 121.36C194.666 121.187 194.173 120.9 193.759 120.5C193.346 120.087 193.139 119.547 193.139 118.88C193.139 118.093 193.459 117.433 194.099 116.9C194.739 116.367 195.613 116.1 196.719 116.1C198.199 116.1 199.393 116.567 200.299 117.5L199.599 118.54C198.919 117.727 197.959 117.32 196.719 117.32C196.066 117.32 195.546 117.467 195.159 117.76C194.773 118.04 194.579 118.4 194.579 118.84C194.579 119.16 194.726 119.427 195.019 119.64C195.313 119.853 195.679 120.007 196.119 120.1C196.573 120.193 197.053 120.313 197.559 120.46C198.079 120.607 198.559 120.773 198.999 120.96C199.453 121.133 199.826 121.427 200.119 121.84C200.413 122.24 200.559 122.733 200.559 123.32C200.559 124.173 200.226 124.873 199.559 125.42C198.906 125.967 197.979 126.24 196.779 126.24ZM204.456 114.68C204.269 114.867 204.036 114.96 203.756 114.96C203.476 114.96 203.236 114.867 203.036 114.68C202.836 114.48 202.736 114.24 202.736 113.96C202.736 113.68 202.836 113.44 203.036 113.24C203.236 113.04 203.476 112.94 203.756 112.94C204.036 112.94 204.269 113.04 204.456 113.24C204.656 113.44 204.756 113.68 204.756 113.96C204.756 114.24 204.656 114.48 204.456 114.68ZM204.496 126H202.996V116.34H204.496V126ZM209.948 126.24C208.508 126.24 207.788 125.487 207.788 123.98V117.66H206.188V116.34H207.788V113.7H209.308V116.34H211.268V117.66H209.308V123.66C209.308 124.033 209.388 124.333 209.548 124.56C209.722 124.787 209.962 124.9 210.268 124.9C210.695 124.9 211.035 124.76 211.288 124.48L211.728 125.62C211.288 126.033 210.695 126.24 209.948 126.24ZM227.043 126H225.543V124.56C224.716 125.68 223.63 126.24 222.283 126.24C221.003 126.24 219.963 125.787 219.163 124.88C218.376 123.96 217.983 122.727 217.983 121.18C217.983 119.647 218.383 118.42 219.183 117.5C219.983 116.567 221.016 116.1 222.283 116.1C223.616 116.1 224.703 116.667 225.543 117.8V116.34H227.043V126ZM222.663 124.9C223.236 124.9 223.79 124.753 224.323 124.46C224.87 124.153 225.276 123.787 225.543 123.36V119C225.276 118.56 224.87 118.193 224.323 117.9C223.79 117.593 223.236 117.44 222.663 117.44C221.703 117.44 220.943 117.793 220.383 118.5C219.823 119.193 219.543 120.087 219.543 121.18C219.543 122.273 219.823 123.167 220.383 123.86C220.943 124.553 221.703 124.9 222.663 124.9ZM243.207 126H241.707V119.44C241.707 118.107 241.114 117.44 239.927 117.44C239.447 117.44 238.967 117.587 238.487 117.88C238.007 118.16 237.634 118.507 237.367 118.92V126H235.867V119.44C235.867 118.107 235.274 117.44 234.087 117.44C233.62 117.44 233.147 117.587 232.667 117.88C232.2 118.173 231.827 118.527 231.547 118.94V126H230.047V116.34H231.547V117.74C231.8 117.353 232.22 116.987 232.807 116.64C233.407 116.28 234.034 116.1 234.687 116.1C235.38 116.1 235.947 116.267 236.387 116.6C236.827 116.933 237.12 117.367 237.267 117.9C237.56 117.42 238.007 117 238.607 116.64C239.207 116.28 239.84 116.1 240.507 116.1C242.307 116.1 243.207 117.073 243.207 119.02V126ZM250.579 126.24C249.126 126.24 247.939 125.773 247.019 124.84C246.099 123.893 245.639 122.667 245.639 121.16C245.639 119.747 246.093 118.553 246.999 117.58C247.906 116.593 249.039 116.1 250.399 116.1C251.826 116.1 252.953 116.593 253.779 117.58C254.619 118.553 255.039 119.787 255.039 121.28V121.66H247.239C247.306 122.607 247.646 123.4 248.259 124.04C248.886 124.68 249.699 125 250.699 125C251.899 125 252.899 124.587 253.699 123.76L254.419 124.74C253.393 125.74 252.113 126.24 250.579 126.24ZM253.559 120.54C253.546 119.727 253.266 118.993 252.719 118.34C252.173 117.673 251.393 117.34 250.379 117.34C249.419 117.34 248.659 117.667 248.099 118.32C247.553 118.973 247.259 119.713 247.219 120.54H253.559ZM259.929 126.24C258.489 126.24 257.769 125.487 257.769 123.98V117.66H256.169V116.34H257.769V113.7H259.289V116.34H261.249V117.66H259.289V123.66C259.289 124.033 259.369 124.333 259.529 124.56C259.702 124.787 259.942 124.9 260.249 124.9C260.675 124.9 261.015 124.76 261.269 124.48L261.709 125.62C261.269 126.033 260.675 126.24 259.929 126.24Z" fill="#505050"/>
</svg>
