<svg width="1042" height="400" viewBox="0 0 1042 400" fill="none" xmlns="http://www.w3.org/2000/svg">
<rect x="886" width="156" height="270" fill="#B6174B"/>
<rect x="714" width="172" height="270" fill="#FAAA8D"/>
<rect x="714" y="270" width="328" height="130" fill="#41A5B4"/>
<rect y="76" width="714" height="324" fill="#1D5556"/>
<rect width="714" height="76" fill="#4B034F"/>
<path d="M17.584 118H11.008V107.328H12.88V116.352H17.584V118ZM25.3314 117.024C24.606 117.803 23.646 118.192 22.4514 118.192C21.2567 118.192 20.2967 117.803 19.5714 117.024C18.846 116.235 18.4834 115.269 18.4834 114.128C18.4834 112.976 18.846 112.016 19.5714 111.248C20.2967 110.469 21.2567 110.08 22.4514 110.08C23.646 110.08 24.606 110.469 25.3314 111.248C26.0567 112.016 26.4194 112.976 26.4194 114.128C26.4194 115.269 26.0567 116.235 25.3314 117.024ZM22.4514 116.704C23.1447 116.704 23.6887 116.459 24.0834 115.968C24.478 115.467 24.6754 114.853 24.6754 114.128C24.6754 113.413 24.478 112.811 24.0834 112.32C23.6887 111.819 23.1447 111.568 22.4514 111.568C21.7687 111.568 21.2247 111.819 20.8194 112.32C20.4247 112.811 20.2274 113.413 20.2274 114.128C20.2274 114.853 20.4247 115.467 20.8194 115.968C21.2247 116.459 21.7687 116.704 22.4514 116.704ZM29.8149 118H28.1349V110.272H29.8149V111.392C30.1242 111.008 30.4975 110.693 30.9349 110.448C31.3829 110.203 31.8469 110.08 32.3269 110.08V111.744C32.1775 111.712 32.0069 111.696 31.8149 111.696C31.4522 111.696 31.0682 111.803 30.6629 112.016C30.2682 112.219 29.9855 112.459 29.8149 112.736V118ZM37.2658 118.192C36.0818 118.192 35.1111 117.819 34.3538 117.072C33.5964 116.325 33.2178 115.344 33.2178 114.128C33.2178 112.997 33.5858 112.043 34.3218 111.264C35.0684 110.475 36.0071 110.08 37.1378 110.08C38.2791 110.08 39.1964 110.475 39.8898 111.264C40.5831 112.043 40.9298 113.045 40.9298 114.272V114.688H34.9778C35.0418 115.296 35.2924 115.803 35.7298 116.208C36.1671 116.613 36.7324 116.816 37.4258 116.816C38.3218 116.816 39.0578 116.528 39.6338 115.952L40.4018 117.056C39.5911 117.813 38.5458 118.192 37.2658 118.192ZM39.3138 113.488C39.2818 112.955 39.0791 112.485 38.7058 112.08C38.3431 111.664 37.8151 111.456 37.1218 111.456C36.4604 111.456 35.9431 111.664 35.5698 112.08C35.1964 112.485 34.9938 112.955 34.9618 113.488H39.3138ZM53.756 118H52.076V112.96C52.076 112.032 51.6493 111.568 50.796 111.568C50.444 111.568 50.1027 111.669 49.772 111.872C49.4413 112.075 49.1853 112.315 49.004 112.592V118H47.324V112.96C47.324 112.032 46.9027 111.568 46.06 111.568C45.708 111.568 45.3667 111.669 45.036 111.872C44.716 112.075 44.46 112.315 44.268 112.592V118H42.588V110.272H44.268V111.312C44.4813 111.024 44.8227 110.747 45.292 110.48C45.7613 110.213 46.2627 110.08 46.796 110.08C47.3507 110.08 47.8093 110.208 48.172 110.464C48.5347 110.709 48.78 111.051 48.908 111.488C49.1427 111.115 49.5 110.789 49.98 110.512C50.4707 110.224 50.988 110.08 51.532 110.08C52.2467 110.08 52.796 110.277 53.18 110.672C53.564 111.067 53.756 111.648 53.756 112.416V118ZM61.6408 109.024C61.4381 109.227 61.1928 109.328 60.9048 109.328C60.6168 109.328 60.3714 109.227 60.1688 109.024C59.9661 108.821 59.8648 108.576 59.8648 108.288C59.8648 108 59.9661 107.755 60.1688 107.552C60.3714 107.349 60.6168 107.248 60.9048 107.248C61.1928 107.248 61.4381 107.349 61.6408 107.552C61.8434 107.755 61.9448 108 61.9448 108.288C61.9448 108.576 61.8434 108.821 61.6408 109.024ZM61.7368 118H60.0568V110.272H61.7368V118ZM68.0761 118.192C67.0841 118.192 66.2575 117.771 65.5961 116.928V120.944H63.9161V110.272H65.5961V111.328C66.2148 110.496 67.0415 110.08 68.0761 110.08C69.0895 110.08 69.9108 110.443 70.5401 111.168C71.1801 111.893 71.5001 112.88 71.5001 114.128C71.5001 115.376 71.1801 116.368 70.5401 117.104C69.9108 117.829 69.0895 118.192 68.0761 118.192ZM67.5801 116.704C68.2415 116.704 68.7695 116.464 69.1641 115.984C69.5695 115.504 69.7721 114.885 69.7721 114.128C69.7721 113.371 69.5695 112.757 69.1641 112.288C68.7695 111.808 68.2415 111.568 67.5801 111.568C67.1961 111.568 66.8175 111.669 66.4441 111.872C66.0708 112.064 65.7881 112.304 65.5961 112.592V115.648C65.7881 115.947 66.0708 116.197 66.4441 116.4C66.8175 116.603 67.1961 116.704 67.5801 116.704ZM75.8378 118.192C74.4618 118.192 73.3578 117.787 72.5258 116.976L73.2938 115.776C73.5818 116.075 73.9658 116.331 74.4457 116.544C74.9364 116.747 75.4218 116.848 75.9018 116.848C76.3924 116.848 76.7711 116.757 77.0378 116.576C77.3044 116.384 77.4378 116.133 77.4378 115.824C77.4378 115.547 77.2778 115.333 76.9578 115.184C76.6378 115.024 76.2484 114.901 75.7898 114.816C75.3311 114.72 74.8724 114.608 74.4138 114.48C73.9551 114.341 73.5658 114.101 73.2458 113.76C72.9258 113.419 72.7658 112.971 72.7658 112.416C72.7658 111.755 73.0378 111.2 73.5818 110.752C74.1258 110.304 74.8671 110.08 75.8058 110.08C76.9898 110.08 77.9871 110.437 78.7978 111.152L78.0938 112.336C77.5284 111.717 76.7658 111.408 75.8058 111.408C75.3791 111.408 75.0324 111.499 74.7658 111.68C74.5098 111.861 74.3818 112.091 74.3818 112.368C74.3818 112.613 74.5418 112.805 74.8618 112.944C75.1818 113.083 75.5711 113.2 76.0298 113.296C76.4884 113.381 76.9471 113.493 77.4058 113.632C77.8644 113.771 78.2538 114.021 78.5738 114.384C78.8938 114.747 79.0538 115.211 79.0538 115.776C79.0538 116.491 78.7711 117.072 78.2058 117.52C77.6404 117.968 76.8511 118.192 75.8378 118.192ZM87.6246 118H85.9446V116.976C85.2193 117.787 84.3126 118.192 83.2246 118.192C82.4033 118.192 81.7793 117.984 81.3526 117.568C80.9366 117.141 80.7286 116.533 80.7286 115.744V110.272H82.4086V115.12C82.4086 115.696 82.542 116.107 82.8086 116.352C83.0753 116.587 83.4646 116.704 83.9766 116.704C84.3713 116.704 84.7446 116.608 85.0966 116.416C85.4486 116.213 85.7313 115.973 85.9446 115.696V110.272H87.6246V118ZM100.975 118H99.2948V112.96C99.2948 112.032 98.8681 111.568 98.0148 111.568C97.6628 111.568 97.3214 111.669 96.9908 111.872C96.6601 112.075 96.4041 112.315 96.2228 112.592V118H94.5428V112.96C94.5428 112.032 94.1214 111.568 93.2788 111.568C92.9268 111.568 92.5854 111.669 92.2548 111.872C91.9348 112.075 91.6788 112.315 91.4868 112.592V118H89.8068V110.272H91.4868V111.312C91.7001 111.024 92.0414 110.747 92.5108 110.48C92.9801 110.213 93.4814 110.08 94.0148 110.08C94.5694 110.08 95.0281 110.208 95.3908 110.464C95.7534 110.709 95.9988 111.051 96.1268 111.488C96.3614 111.115 96.7188 110.789 97.1988 110.512C97.6894 110.224 98.2068 110.08 98.7508 110.08C99.4654 110.08 100.015 110.277 100.399 110.672C100.783 111.067 100.975 111.648 100.975 112.416V118Z" fill="#FAFAFA"/>
<path d="M15.32 99.22C13.7733 99.22 12.4933 98.7267 11.48 97.74L12.58 95.96C13.3267 96.7467 14.24 97.14 15.32 97.14C16.4533 97.14 17.32 96.7067 17.92 95.84C18.5333 94.9733 18.84 93.94 18.84 92.74C18.84 92.5667 18.8333 92.44 18.82 92.36C18.4867 92.8533 17.9933 93.2867 17.34 93.66C16.6867 94.0333 15.9867 94.22 15.24 94.22C13.9733 94.22 12.9133 93.8467 12.06 93.1C11.2067 92.34 10.78 91.28 10.78 89.92C10.78 88.6533 11.2333 87.5933 12.14 86.74C13.0467 85.8733 14.2333 85.44 15.7 85.44C16.6467 85.44 17.48 85.6267 18.2 86C18.92 86.36 19.4933 86.86 19.92 87.5C20.3467 88.14 20.6667 88.8667 20.88 89.68C21.0933 90.48 21.2 91.36 21.2 92.32C21.2 94.3333 20.6867 95.9867 19.66 97.28C18.6333 98.5733 17.1867 99.22 15.32 99.22ZM15.88 92.22C16.44 92.22 16.98 92.08 17.5 91.8C18.02 91.5067 18.4533 91.12 18.8 90.64C18.72 89.7867 18.44 89.0533 17.96 88.44C17.48 87.8267 16.7667 87.52 15.82 87.52C14.9933 87.52 14.34 87.76 13.86 88.24C13.38 88.7067 13.14 89.24 13.14 89.84C13.14 90.6133 13.4 91.2067 13.92 91.62C14.44 92.02 15.0933 92.22 15.88 92.22ZM32.6717 99H23.0117V97.14C25.8251 95.0067 27.7317 93.44 28.7317 92.44C29.7317 91.44 30.2317 90.48 30.2317 89.56C30.2317 88.9067 29.9917 88.4067 29.5117 88.06C29.0317 87.7133 28.4584 87.54 27.7917 87.54C26.3384 87.54 25.1384 88.0667 24.1917 89.12L22.8317 87.6C23.4051 86.9067 24.1251 86.38 24.9917 86.02C25.8717 85.6467 26.7984 85.46 27.7717 85.46C29.1317 85.46 30.2717 85.8267 31.1917 86.56C32.1251 87.28 32.5917 88.28 32.5917 89.56C32.5917 90.72 32.1117 91.8667 31.1517 93C30.2051 94.1333 28.7451 95.4467 26.7717 96.94H32.6717V99ZM37.3463 98.8C37.0663 99.08 36.7396 99.22 36.3663 99.22C35.9929 99.22 35.6663 99.08 35.3863 98.8C35.1063 98.52 34.9663 98.1867 34.9663 97.8C34.9663 97.4267 35.1063 97.1067 35.3863 96.84C35.6663 96.56 35.9929 96.42 36.3663 96.42C36.7396 96.42 37.0663 96.56 37.3463 96.84C37.6263 97.1067 37.7663 97.4267 37.7663 97.8C37.7663 98.1867 37.6263 98.52 37.3463 98.8ZM42.4219 99H39.8419L44.8819 87.72H37.9619V85.66H47.5819V87.28L42.4219 99ZM51.9464 92.08C50.9731 92.08 50.1731 91.7667 49.5464 91.14C48.9331 90.5133 48.6264 89.7267 48.6264 88.78C48.6264 87.8333 48.9331 87.0467 49.5464 86.42C50.1731 85.78 50.9731 85.46 51.9464 85.46C52.9331 85.46 53.7331 85.7733 54.3464 86.4C54.9597 87.0267 55.2664 87.82 55.2664 88.78C55.2664 89.7267 54.9597 90.5133 54.3464 91.14C53.7331 91.7667 52.9331 92.08 51.9464 92.08ZM51.9864 99H50.6464L59.1664 85.66H60.5264L51.9864 99ZM61.5064 98.3C60.8931 98.9267 60.0997 99.24 59.1264 99.24C58.1531 99.24 57.3531 98.9267 56.7264 98.3C56.1131 97.6733 55.8064 96.8867 55.8064 95.94C55.8064 94.9933 56.1131 94.2067 56.7264 93.58C57.3531 92.94 58.1531 92.62 59.1264 92.62C60.0997 92.62 60.8931 92.94 61.5064 93.58C62.1331 94.2067 62.4464 94.9933 62.4464 95.94C62.4464 96.8867 62.1331 97.6733 61.5064 98.3ZM51.9464 90.74C52.4664 90.74 52.8931 90.56 53.2264 90.2C53.5597 89.8267 53.7264 89.3533 53.7264 88.78C53.7264 88.1933 53.5597 87.7133 53.2264 87.34C52.8931 86.9667 52.4664 86.78 51.9464 86.78C51.4397 86.78 51.0197 86.9667 50.6864 87.34C50.3531 87.7133 50.1864 88.1933 50.1864 88.78C50.1864 89.3533 50.3531 89.8267 50.6864 90.2C51.0197 90.56 51.4397 90.74 51.9464 90.74ZM57.8464 97.36C58.1797 97.72 58.6064 97.9 59.1264 97.9C59.6464 97.9 60.0731 97.72 60.4064 97.36C60.7397 96.9867 60.9064 96.5133 60.9064 95.94C60.9064 95.3533 60.7397 94.8733 60.4064 94.5C60.0731 94.1267 59.6464 93.94 59.1264 93.94C58.6064 93.94 58.1797 94.1267 57.8464 94.5C57.5131 94.8733 57.3464 95.3533 57.3464 95.94C57.3464 96.5133 57.5131 96.9867 57.8464 97.36Z" fill="#FAFAFA"/>
<path d="M17.584 42H11.008V31.328H12.88V40.352H17.584V42ZM25.3314 41.024C24.606 41.8027 23.646 42.192 22.4514 42.192C21.2567 42.192 20.2967 41.8027 19.5714 41.024C18.846 40.2347 18.4834 39.2693 18.4834 38.128C18.4834 36.976 18.846 36.016 19.5714 35.248C20.2967 34.4693 21.2567 34.08 22.4514 34.08C23.646 34.08 24.606 34.4693 25.3314 35.248C26.0567 36.016 26.4194 36.976 26.4194 38.128C26.4194 39.2693 26.0567 40.2347 25.3314 41.024ZM22.4514 40.704C23.1447 40.704 23.6887 40.4587 24.0834 39.968C24.478 39.4667 24.6754 38.8533 24.6754 38.128C24.6754 37.4133 24.478 36.8107 24.0834 36.32C23.6887 35.8187 23.1447 35.568 22.4514 35.568C21.7687 35.568 21.2247 35.8187 20.8194 36.32C20.4247 36.8107 20.2274 37.4133 20.2274 38.128C20.2274 38.8533 20.4247 39.4667 20.8194 39.968C21.2247 40.4587 21.7687 40.704 22.4514 40.704ZM29.8149 42H28.1349V34.272H29.8149V35.392C30.1242 35.008 30.4975 34.6933 30.9349 34.448C31.3829 34.2027 31.8469 34.08 32.3269 34.08V35.744C32.1775 35.712 32.0069 35.696 31.8149 35.696C31.4522 35.696 31.0682 35.8027 30.6629 36.016C30.2682 36.2187 29.9855 36.4587 29.8149 36.736V42ZM37.2658 42.192C36.0818 42.192 35.1111 41.8187 34.3538 41.072C33.5964 40.3253 33.2178 39.344 33.2178 38.128C33.2178 36.9973 33.5858 36.0427 34.3218 35.264C35.0684 34.4747 36.0071 34.08 37.1378 34.08C38.2791 34.08 39.1964 34.4747 39.8898 35.264C40.5831 36.0427 40.9298 37.0453 40.9298 38.272V38.688H34.9778C35.0418 39.296 35.2924 39.8027 35.7298 40.208C36.1671 40.6133 36.7324 40.816 37.4258 40.816C38.3218 40.816 39.0578 40.528 39.6338 39.952L40.4018 41.056C39.5911 41.8133 38.5458 42.192 37.2658 42.192ZM39.3138 37.488C39.2818 36.9547 39.0791 36.4853 38.7058 36.08C38.3431 35.664 37.8151 35.456 37.1218 35.456C36.4604 35.456 35.9431 35.664 35.5698 36.08C35.1964 36.4853 34.9938 36.9547 34.9618 37.488H39.3138ZM53.756 42H52.076V36.96C52.076 36.032 51.6493 35.568 50.796 35.568C50.444 35.568 50.1027 35.6693 49.772 35.872C49.4413 36.0747 49.1853 36.3147 49.004 36.592V42H47.324V36.96C47.324 36.032 46.9027 35.568 46.06 35.568C45.708 35.568 45.3667 35.6693 45.036 35.872C44.716 36.0747 44.46 36.3147 44.268 36.592V42H42.588V34.272H44.268V35.312C44.4813 35.024 44.8227 34.7467 45.292 34.48C45.7613 34.2133 46.2627 34.08 46.796 34.08C47.3507 34.08 47.8093 34.208 48.172 34.464C48.5347 34.7093 48.78 35.0507 48.908 35.488C49.1427 35.1147 49.5 34.7893 49.98 34.512C50.4707 34.224 50.988 34.08 51.532 34.08C52.2467 34.08 52.796 34.2773 53.18 34.672C53.564 35.0667 53.756 35.648 53.756 36.416V42ZM61.6408 33.024C61.4381 33.2267 61.1928 33.328 60.9048 33.328C60.6168 33.328 60.3714 33.2267 60.1688 33.024C59.9661 32.8213 59.8648 32.576 59.8648 32.288C59.8648 32 59.9661 31.7547 60.1688 31.552C60.3714 31.3493 60.6168 31.248 60.9048 31.248C61.1928 31.248 61.4381 31.3493 61.6408 31.552C61.8434 31.7547 61.9448 32 61.9448 32.288C61.9448 32.576 61.8434 32.8213 61.6408 33.024ZM61.7368 42H60.0568V34.272H61.7368V42ZM68.0761 42.192C67.0841 42.192 66.2575 41.7707 65.5961 40.928V44.944H63.9161V34.272H65.5961V35.328C66.2148 34.496 67.0415 34.08 68.0761 34.08C69.0895 34.08 69.9108 34.4427 70.5401 35.168C71.1801 35.8933 71.5001 36.88 71.5001 38.128C71.5001 39.376 71.1801 40.368 70.5401 41.104C69.9108 41.8293 69.0895 42.192 68.0761 42.192ZM67.5801 40.704C68.2415 40.704 68.7695 40.464 69.1641 39.984C69.5695 39.504 69.7721 38.8853 69.7721 38.128C69.7721 37.3707 69.5695 36.7573 69.1641 36.288C68.7695 35.808 68.2415 35.568 67.5801 35.568C67.1961 35.568 66.8175 35.6693 66.4441 35.872C66.0708 36.064 65.7881 36.304 65.5961 36.592V39.648C65.7881 39.9467 66.0708 40.1973 66.4441 40.4C66.8175 40.6027 67.1961 40.704 67.5801 40.704ZM75.8378 42.192C74.4618 42.192 73.3578 41.7867 72.5258 40.976L73.2938 39.776C73.5818 40.0747 73.9658 40.3307 74.4457 40.544C74.9364 40.7467 75.4218 40.848 75.9018 40.848C76.3924 40.848 76.7711 40.7573 77.0378 40.576C77.3044 40.384 77.4378 40.1333 77.4378 39.824C77.4378 39.5467 77.2778 39.3333 76.9578 39.184C76.6378 39.024 76.2484 38.9013 75.7898 38.816C75.3311 38.72 74.8724 38.608 74.4138 38.48C73.9551 38.3413 73.5658 38.1013 73.2458 37.76C72.9258 37.4187 72.7658 36.9707 72.7658 36.416C72.7658 35.7547 73.0378 35.2 73.5818 34.752C74.1258 34.304 74.8671 34.08 75.8058 34.08C76.9898 34.08 77.9871 34.4373 78.7978 35.152L78.0938 36.336C77.5284 35.7173 76.7658 35.408 75.8058 35.408C75.3791 35.408 75.0324 35.4987 74.7658 35.68C74.5098 35.8613 74.3818 36.0907 74.3818 36.368C74.3818 36.6133 74.5418 36.8053 74.8618 36.944C75.1818 37.0827 75.5711 37.2 76.0298 37.296C76.4884 37.3813 76.9471 37.4933 77.4058 37.632C77.8644 37.7707 78.2538 38.0213 78.5738 38.384C78.8938 38.7467 79.0538 39.2107 79.0538 39.776C79.0538 40.4907 78.7711 41.072 78.2058 41.52C77.6404 41.968 76.8511 42.192 75.8378 42.192ZM87.6246 42H85.9446V40.976C85.2193 41.7867 84.3126 42.192 83.2246 42.192C82.4033 42.192 81.7793 41.984 81.3526 41.568C80.9366 41.1413 80.7286 40.5333 80.7286 39.744V34.272H82.4086V39.12C82.4086 39.696 82.542 40.1067 82.8086 40.352C83.0753 40.5867 83.4646 40.704 83.9766 40.704C84.3713 40.704 84.7446 40.608 85.0966 40.416C85.4486 40.2133 85.7313 39.9733 85.9446 39.696V34.272H87.6246V42ZM100.975 42H99.2948V36.96C99.2948 36.032 98.8681 35.568 98.0148 35.568C97.6628 35.568 97.3214 35.6693 96.9908 35.872C96.6601 36.0747 96.4041 36.3147 96.2228 36.592V42H94.5428V36.96C94.5428 36.032 94.1214 35.568 93.2788 35.568C92.9268 35.568 92.5854 35.6693 92.2548 35.872C91.9348 36.0747 91.6788 36.3147 91.4868 36.592V42H89.8068V34.272H91.4868V35.312C91.7001 35.024 92.0414 34.7467 92.5108 34.48C92.9801 34.2133 93.4814 34.08 94.0148 34.08C94.5694 34.08 95.0281 34.208 95.3908 34.464C95.7534 34.7093 95.9988 35.0507 96.1268 35.488C96.3614 35.1147 96.7188 34.7893 97.1988 34.512C97.6894 34.224 98.2068 34.08 98.7508 34.08C99.4654 34.08 100.015 34.2773 100.399 34.672C100.783 35.0667 100.975 35.648 100.975 36.416V42Z" fill="#FAFAFA"/>
<path d="M15.32 23.22C13.7733 23.22 12.4933 22.7267 11.48 21.74L12.58 19.96C13.3267 20.7467 14.24 21.14 15.32 21.14C16.4533 21.14 17.32 20.7067 17.92 19.84C18.5333 18.9733 18.84 17.94 18.84 16.74C18.84 16.5667 18.8333 16.44 18.82 16.36C18.4867 16.8533 17.9933 17.2867 17.34 17.66C16.6867 18.0333 15.9867 18.22 15.24 18.22C13.9733 18.22 12.9133 17.8467 12.06 17.1C11.2067 16.34 10.78 15.28 10.78 13.92C10.78 12.6533 11.2333 11.5933 12.14 10.74C13.0467 9.87333 14.2333 9.44 15.7 9.44C16.6467 9.44 17.48 9.62667 18.2 10C18.92 10.36 19.4933 10.86 19.92 11.5C20.3467 12.14 20.6667 12.8667 20.88 13.68C21.0933 14.48 21.2 15.36 21.2 16.32C21.2 18.3333 20.6867 19.9867 19.66 21.28C18.6333 22.5733 17.1867 23.22 15.32 23.22ZM15.88 16.22C16.44 16.22 16.98 16.08 17.5 15.8C18.02 15.5067 18.4533 15.12 18.8 14.64C18.72 13.7867 18.44 13.0533 17.96 12.44C17.48 11.8267 16.7667 11.52 15.82 11.52C14.9933 11.52 14.34 11.76 13.86 12.24C13.38 12.7067 13.14 13.24 13.14 13.84C13.14 14.6133 13.4 15.2067 13.92 15.62C14.44 16.02 15.0933 16.22 15.88 16.22ZM32.6717 23H23.0117V21.14C25.8251 19.0067 27.7317 17.44 28.7317 16.44C29.7317 15.44 30.2317 14.48 30.2317 13.56C30.2317 12.9067 29.9917 12.4067 29.5117 12.06C29.0317 11.7133 28.4584 11.54 27.7917 11.54C26.3384 11.54 25.1384 12.0667 24.1917 13.12L22.8317 11.6C23.4051 10.9067 24.1251 10.38 24.9917 10.02C25.8717 9.64667 26.7984 9.46 27.7717 9.46C29.1317 9.46 30.2717 9.82667 31.1917 10.56C32.1251 11.28 32.5917 12.28 32.5917 13.56C32.5917 14.72 32.1117 15.8667 31.1517 17C30.2051 18.1333 28.7451 19.4467 26.7717 20.94H32.6717V23ZM37.3463 22.8C37.0663 23.08 36.7396 23.22 36.3663 23.22C35.9929 23.22 35.6663 23.08 35.3863 22.8C35.1063 22.52 34.9663 22.1867 34.9663 21.8C34.9663 21.4267 35.1063 21.1067 35.3863 20.84C35.6663 20.56 35.9929 20.42 36.3663 20.42C36.7396 20.42 37.0663 20.56 37.3463 20.84C37.6263 21.1067 37.7663 21.4267 37.7663 21.8C37.7663 22.1867 37.6263 22.52 37.3463 22.8ZM42.4219 23H39.8419L44.8819 11.72H37.9619V9.66H47.5819V11.28L42.4219 23ZM51.9464 16.08C50.9731 16.08 50.1731 15.7667 49.5464 15.14C48.9331 14.5133 48.6264 13.7267 48.6264 12.78C48.6264 11.8333 48.9331 11.0467 49.5464 10.42C50.1731 9.78 50.9731 9.46 51.9464 9.46C52.9331 9.46 53.7331 9.77333 54.3464 10.4C54.9597 11.0267 55.2664 11.82 55.2664 12.78C55.2664 13.7267 54.9597 14.5133 54.3464 15.14C53.7331 15.7667 52.9331 16.08 51.9464 16.08ZM51.9864 23H50.6464L59.1664 9.66H60.5264L51.9864 23ZM61.5064 22.3C60.8931 22.9267 60.0997 23.24 59.1264 23.24C58.1531 23.24 57.3531 22.9267 56.7264 22.3C56.1131 21.6733 55.8064 20.8867 55.8064 19.94C55.8064 18.9933 56.1131 18.2067 56.7264 17.58C57.3531 16.94 58.1531 16.62 59.1264 16.62C60.0997 16.62 60.8931 16.94 61.5064 17.58C62.1331 18.2067 62.4464 18.9933 62.4464 19.94C62.4464 20.8867 62.1331 21.6733 61.5064 22.3ZM51.9464 14.74C52.4664 14.74 52.8931 14.56 53.2264 14.2C53.5597 13.8267 53.7264 13.3533 53.7264 12.78C53.7264 12.1933 53.5597 11.7133 53.2264 11.34C52.8931 10.9667 52.4664 10.78 51.9464 10.78C51.4397 10.78 51.0197 10.9667 50.6864 11.34C50.3531 11.7133 50.1864 12.1933 50.1864 12.78C50.1864 13.3533 50.3531 13.8267 50.6864 14.2C51.0197 14.56 51.4397 14.74 51.9464 14.74ZM57.8464 21.36C58.1797 21.72 58.6064 21.9 59.1264 21.9C59.6464 21.9 60.0731 21.72 60.4064 21.36C60.7397 20.9867 60.9064 20.5133 60.9064 19.94C60.9064 19.3533 60.7397 18.8733 60.4064 18.5C60.0731 18.1267 59.6464 17.94 59.1264 17.94C58.6064 17.94 58.1797 18.1267 57.8464 18.5C57.5131 18.8733 57.3464 19.3533 57.3464 19.94C57.3464 20.5133 57.5131 20.9867 57.8464 21.36Z" fill="#FAFAFA"/>
<path d="M731.584 42H725.008V31.328H726.88V40.352H731.584V42ZM739.331 41.024C738.606 41.8027 737.646 42.192 736.451 42.192C735.257 42.192 734.297 41.8027 733.571 41.024C732.846 40.2347 732.483 39.2693 732.483 38.128C732.483 36.976 732.846 36.016 733.571 35.248C734.297 34.4693 735.257 34.08 736.451 34.08C737.646 34.08 738.606 34.4693 739.331 35.248C740.057 36.016 740.419 36.976 740.419 38.128C740.419 39.2693 740.057 40.2347 739.331 41.024ZM736.451 40.704C737.145 40.704 737.689 40.4587 738.083 39.968C738.478 39.4667 738.675 38.8533 738.675 38.128C738.675 37.4133 738.478 36.8107 738.083 36.32C737.689 35.8187 737.145 35.568 736.451 35.568C735.769 35.568 735.225 35.8187 734.819 36.32C734.425 36.8107 734.227 37.4133 734.227 38.128C734.227 38.8533 734.425 39.4667 734.819 39.968C735.225 40.4587 735.769 40.704 736.451 40.704ZM743.815 42H742.135V34.272H743.815V35.392C744.124 35.008 744.498 34.6933 744.935 34.448C745.383 34.2027 745.847 34.08 746.327 34.08V35.744C746.178 35.712 746.007 35.696 745.815 35.696C745.452 35.696 745.068 35.8027 744.663 36.016C744.268 36.2187 743.986 36.4587 743.815 36.736V42ZM751.266 42.192C750.082 42.192 749.111 41.8187 748.354 41.072C747.596 40.3253 747.218 39.344 747.218 38.128C747.218 36.9973 747.586 36.0427 748.322 35.264C749.068 34.4747 750.007 34.08 751.138 34.08C752.279 34.08 753.196 34.4747 753.89 35.264C754.583 36.0427 754.93 37.0453 754.93 38.272V38.688H748.978C749.042 39.296 749.292 39.8027 749.73 40.208C750.167 40.6133 750.732 40.816 751.426 40.816C752.322 40.816 753.058 40.528 753.634 39.952L754.402 41.056C753.591 41.8133 752.546 42.192 751.266 42.192ZM753.314 37.488C753.282 36.9547 753.079 36.4853 752.706 36.08C752.343 35.664 751.815 35.456 751.122 35.456C750.46 35.456 749.943 35.664 749.57 36.08C749.196 36.4853 748.994 36.9547 748.962 37.488H753.314ZM767.756 42H766.076V36.96C766.076 36.032 765.649 35.568 764.796 35.568C764.444 35.568 764.103 35.6693 763.772 35.872C763.441 36.0747 763.185 36.3147 763.004 36.592V42H761.324V36.96C761.324 36.032 760.903 35.568 760.06 35.568C759.708 35.568 759.367 35.6693 759.036 35.872C758.716 36.0747 758.46 36.3147 758.268 36.592V42H756.588V34.272H758.268V35.312C758.481 35.024 758.823 34.7467 759.292 34.48C759.761 34.2133 760.263 34.08 760.796 34.08C761.351 34.08 761.809 34.208 762.172 34.464C762.535 34.7093 762.78 35.0507 762.908 35.488C763.143 35.1147 763.5 34.7893 763.98 34.512C764.471 34.224 764.988 34.08 765.532 34.08C766.247 34.08 766.796 34.2773 767.18 34.672C767.564 35.0667 767.756 35.648 767.756 36.416V42ZM775.641 33.024C775.438 33.2267 775.193 33.328 774.905 33.328C774.617 33.328 774.371 33.2267 774.169 33.024C773.966 32.8213 773.865 32.576 773.865 32.288C773.865 32 773.966 31.7547 774.169 31.552C774.371 31.3493 774.617 31.248 774.905 31.248C775.193 31.248 775.438 31.3493 775.641 31.552C775.843 31.7547 775.945 32 775.945 32.288C775.945 32.576 775.843 32.8213 775.641 33.024ZM775.737 42H774.057V34.272H775.737V42ZM782.076 42.192C781.084 42.192 780.257 41.7707 779.596 40.928V44.944H777.916V34.272H779.596V35.328C780.215 34.496 781.041 34.08 782.076 34.08C783.089 34.08 783.911 34.4427 784.54 35.168C785.18 35.8933 785.5 36.88 785.5 38.128C785.5 39.376 785.18 40.368 784.54 41.104C783.911 41.8293 783.089 42.192 782.076 42.192ZM781.58 40.704C782.241 40.704 782.769 40.464 783.164 39.984C783.569 39.504 783.772 38.8853 783.772 38.128C783.772 37.3707 783.569 36.7573 783.164 36.288C782.769 35.808 782.241 35.568 781.58 35.568C781.196 35.568 780.817 35.6693 780.444 35.872C780.071 36.064 779.788 36.304 779.596 36.592V39.648C779.788 39.9467 780.071 40.1973 780.444 40.4C780.817 40.6027 781.196 40.704 781.58 40.704ZM789.838 42.192C788.462 42.192 787.358 41.7867 786.526 40.976L787.294 39.776C787.582 40.0747 787.966 40.3307 788.446 40.544C788.936 40.7467 789.422 40.848 789.902 40.848C790.392 40.848 790.771 40.7573 791.038 40.576C791.304 40.384 791.438 40.1333 791.438 39.824C791.438 39.5467 791.278 39.3333 790.958 39.184C790.638 39.024 790.248 38.9013 789.79 38.816C789.331 38.72 788.872 38.608 788.414 38.48C787.955 38.3413 787.566 38.1013 787.246 37.76C786.926 37.4187 786.766 36.9707 786.766 36.416C786.766 35.7547 787.038 35.2 787.582 34.752C788.126 34.304 788.867 34.08 789.806 34.08C790.99 34.08 791.987 34.4373 792.798 35.152L792.094 36.336C791.528 35.7173 790.766 35.408 789.806 35.408C789.379 35.408 789.032 35.4987 788.766 35.68C788.51 35.8613 788.382 36.0907 788.382 36.368C788.382 36.6133 788.542 36.8053 788.862 36.944C789.182 37.0827 789.571 37.2 790.03 37.296C790.488 37.3813 790.947 37.4933 791.406 37.632C791.864 37.7707 792.254 38.0213 792.574 38.384C792.894 38.7467 793.054 39.2107 793.054 39.776C793.054 40.4907 792.771 41.072 792.206 41.52C791.64 41.968 790.851 42.192 789.838 42.192ZM801.625 42H799.945V40.976C799.219 41.7867 798.313 42.192 797.225 42.192C796.403 42.192 795.779 41.984 795.353 41.568C794.937 41.1413 794.729 40.5333 794.729 39.744V34.272H796.409V39.12C796.409 39.696 796.542 40.1067 796.809 40.352C797.075 40.5867 797.465 40.704 797.977 40.704C798.371 40.704 798.745 40.608 799.097 40.416C799.449 40.2133 799.731 39.9733 799.945 39.696V34.272H801.625V42ZM814.975 42H813.295V36.96C813.295 36.032 812.868 35.568 812.015 35.568C811.663 35.568 811.321 35.6693 810.991 35.872C810.66 36.0747 810.404 36.3147 810.223 36.592V42H808.543V36.96C808.543 36.032 808.121 35.568 807.279 35.568C806.927 35.568 806.585 35.6693 806.255 35.872C805.935 36.0747 805.679 36.3147 805.487 36.592V42H803.807V34.272H805.487V35.312C805.7 35.024 806.041 34.7467 806.511 34.48C806.98 34.2133 807.481 34.08 808.015 34.08C808.569 34.08 809.028 34.208 809.391 34.464C809.753 34.7093 809.999 35.0507 810.127 35.488C810.361 35.1147 810.719 34.7893 811.199 34.512C811.689 34.224 812.207 34.08 812.751 34.08C813.465 34.08 814.015 34.2773 814.399 34.672C814.783 35.0667 814.975 35.648 814.975 36.416V42Z" fill="#1A1A1A"/>
<path d="M729.32 23.22C727.773 23.22 726.493 22.7267 725.48 21.74L726.58 19.96C727.327 20.7467 728.24 21.14 729.32 21.14C730.453 21.14 731.32 20.7067 731.92 19.84C732.533 18.9733 732.84 17.94 732.84 16.74C732.84 16.5667 732.833 16.44 732.82 16.36C732.487 16.8533 731.993 17.2867 731.34 17.66C730.687 18.0333 729.987 18.22 729.24 18.22C727.973 18.22 726.913 17.8467 726.06 17.1C725.207 16.34 724.78 15.28 724.78 13.92C724.78 12.6533 725.233 11.5933 726.14 10.74C727.047 9.87333 728.233 9.44 729.7 9.44C730.647 9.44 731.48 9.62667 732.2 10C732.92 10.36 733.493 10.86 733.92 11.5C734.347 12.14 734.667 12.8667 734.88 13.68C735.093 14.48 735.2 15.36 735.2 16.32C735.2 18.3333 734.687 19.9867 733.66 21.28C732.633 22.5733 731.187 23.22 729.32 23.22ZM729.88 16.22C730.44 16.22 730.98 16.08 731.5 15.8C732.02 15.5067 732.453 15.12 732.8 14.64C732.72 13.7867 732.44 13.0533 731.96 12.44C731.48 11.8267 730.767 11.52 729.82 11.52C728.993 11.52 728.34 11.76 727.86 12.24C727.38 12.7067 727.14 13.24 727.14 13.84C727.14 14.6133 727.4 15.2067 727.92 15.62C728.44 16.02 729.093 16.22 729.88 16.22ZM746.672 23H737.012V21.14C739.825 19.0067 741.732 17.44 742.732 16.44C743.732 15.44 744.232 14.48 744.232 13.56C744.232 12.9067 743.992 12.4067 743.512 12.06C743.032 11.7133 742.458 11.54 741.792 11.54C740.338 11.54 739.138 12.0667 738.192 13.12L736.832 11.6C737.405 10.9067 738.125 10.38 738.992 10.02C739.872 9.64667 740.798 9.46 741.772 9.46C743.132 9.46 744.272 9.82667 745.192 10.56C746.125 11.28 746.592 12.28 746.592 13.56C746.592 14.72 746.112 15.8667 745.152 17C744.205 18.1333 742.745 19.4467 740.772 20.94H746.672V23ZM751.346 22.8C751.066 23.08 750.74 23.22 750.366 23.22C749.993 23.22 749.666 23.08 749.386 22.8C749.106 22.52 748.966 22.1867 748.966 21.8C748.966 21.4267 749.106 21.1067 749.386 20.84C749.666 20.56 749.993 20.42 750.366 20.42C750.74 20.42 751.066 20.56 751.346 20.84C751.626 21.1067 751.766 21.4267 751.766 21.8C751.766 22.1867 751.626 22.52 751.346 22.8ZM756.422 23H753.842L758.882 11.72H751.962V9.66H761.582V11.28L756.422 23ZM765.946 16.08C764.973 16.08 764.173 15.7667 763.546 15.14C762.933 14.5133 762.626 13.7267 762.626 12.78C762.626 11.8333 762.933 11.0467 763.546 10.42C764.173 9.78 764.973 9.46 765.946 9.46C766.933 9.46 767.733 9.77333 768.346 10.4C768.96 11.0267 769.266 11.82 769.266 12.78C769.266 13.7267 768.96 14.5133 768.346 15.14C767.733 15.7667 766.933 16.08 765.946 16.08ZM765.986 23H764.646L773.166 9.66H774.526L765.986 23ZM775.506 22.3C774.893 22.9267 774.1 23.24 773.126 23.24C772.153 23.24 771.353 22.9267 770.726 22.3C770.113 21.6733 769.806 20.8867 769.806 19.94C769.806 18.9933 770.113 18.2067 770.726 17.58C771.353 16.94 772.153 16.62 773.126 16.62C774.1 16.62 774.893 16.94 775.506 17.58C776.133 18.2067 776.446 18.9933 776.446 19.94C776.446 20.8867 776.133 21.6733 775.506 22.3ZM765.946 14.74C766.466 14.74 766.893 14.56 767.226 14.2C767.56 13.8267 767.726 13.3533 767.726 12.78C767.726 12.1933 767.56 11.7133 767.226 11.34C766.893 10.9667 766.466 10.78 765.946 10.78C765.44 10.78 765.02 10.9667 764.686 11.34C764.353 11.7133 764.186 12.1933 764.186 12.78C764.186 13.3533 764.353 13.8267 764.686 14.2C765.02 14.56 765.44 14.74 765.946 14.74ZM771.846 21.36C772.18 21.72 772.606 21.9 773.126 21.9C773.646 21.9 774.073 21.72 774.406 21.36C774.74 20.9867 774.906 20.5133 774.906 19.94C774.906 19.3533 774.74 18.8733 774.406 18.5C774.073 18.1267 773.646 17.94 773.126 17.94C772.606 17.94 772.18 18.1267 771.846 18.5C771.513 18.8733 771.346 19.3533 771.346 19.94C771.346 20.5133 771.513 20.9867 771.846 21.36Z" fill="#1A1A1A"/>
<path d="M731.584 312H725.008V301.328H726.88V310.352H731.584V312ZM739.331 311.024C738.606 311.803 737.646 312.192 736.451 312.192C735.257 312.192 734.297 311.803 733.571 311.024C732.846 310.235 732.483 309.269 732.483 308.128C732.483 306.976 732.846 306.016 733.571 305.248C734.297 304.469 735.257 304.08 736.451 304.08C737.646 304.08 738.606 304.469 739.331 305.248C740.057 306.016 740.419 306.976 740.419 308.128C740.419 309.269 740.057 310.235 739.331 311.024ZM736.451 310.704C737.145 310.704 737.689 310.459 738.083 309.968C738.478 309.467 738.675 308.853 738.675 308.128C738.675 307.413 738.478 306.811 738.083 306.32C737.689 305.819 737.145 305.568 736.451 305.568C735.769 305.568 735.225 305.819 734.819 306.32C734.425 306.811 734.227 307.413 734.227 308.128C734.227 308.853 734.425 309.467 734.819 309.968C735.225 310.459 735.769 310.704 736.451 310.704ZM743.815 312H742.135V304.272H743.815V305.392C744.124 305.008 744.498 304.693 744.935 304.448C745.383 304.203 745.847 304.08 746.327 304.08V305.744C746.178 305.712 746.007 305.696 745.815 305.696C745.452 305.696 745.068 305.803 744.663 306.016C744.268 306.219 743.986 306.459 743.815 306.736V312ZM751.266 312.192C750.082 312.192 749.111 311.819 748.354 311.072C747.596 310.325 747.218 309.344 747.218 308.128C747.218 306.997 747.586 306.043 748.322 305.264C749.068 304.475 750.007 304.08 751.138 304.08C752.279 304.08 753.196 304.475 753.89 305.264C754.583 306.043 754.93 307.045 754.93 308.272V308.688H748.978C749.042 309.296 749.292 309.803 749.73 310.208C750.167 310.613 750.732 310.816 751.426 310.816C752.322 310.816 753.058 310.528 753.634 309.952L754.402 311.056C753.591 311.813 752.546 312.192 751.266 312.192ZM753.314 307.488C753.282 306.955 753.079 306.485 752.706 306.08C752.343 305.664 751.815 305.456 751.122 305.456C750.46 305.456 749.943 305.664 749.57 306.08C749.196 306.485 748.994 306.955 748.962 307.488H753.314ZM767.756 312H766.076V306.96C766.076 306.032 765.649 305.568 764.796 305.568C764.444 305.568 764.103 305.669 763.772 305.872C763.441 306.075 763.185 306.315 763.004 306.592V312H761.324V306.96C761.324 306.032 760.903 305.568 760.06 305.568C759.708 305.568 759.367 305.669 759.036 305.872C758.716 306.075 758.46 306.315 758.268 306.592V312H756.588V304.272H758.268V305.312C758.481 305.024 758.823 304.747 759.292 304.48C759.761 304.213 760.263 304.08 760.796 304.08C761.351 304.08 761.809 304.208 762.172 304.464C762.535 304.709 762.78 305.051 762.908 305.488C763.143 305.115 763.5 304.789 763.98 304.512C764.471 304.224 764.988 304.08 765.532 304.08C766.247 304.08 766.796 304.277 767.18 304.672C767.564 305.067 767.756 305.648 767.756 306.416V312ZM775.641 303.024C775.438 303.227 775.193 303.328 774.905 303.328C774.617 303.328 774.371 303.227 774.169 303.024C773.966 302.821 773.865 302.576 773.865 302.288C773.865 302 773.966 301.755 774.169 301.552C774.371 301.349 774.617 301.248 774.905 301.248C775.193 301.248 775.438 301.349 775.641 301.552C775.843 301.755 775.945 302 775.945 302.288C775.945 302.576 775.843 302.821 775.641 303.024ZM775.737 312H774.057V304.272H775.737V312ZM782.076 312.192C781.084 312.192 780.257 311.771 779.596 310.928V314.944H777.916V304.272H779.596V305.328C780.215 304.496 781.041 304.08 782.076 304.08C783.089 304.08 783.911 304.443 784.54 305.168C785.18 305.893 785.5 306.88 785.5 308.128C785.5 309.376 785.18 310.368 784.54 311.104C783.911 311.829 783.089 312.192 782.076 312.192ZM781.58 310.704C782.241 310.704 782.769 310.464 783.164 309.984C783.569 309.504 783.772 308.885 783.772 308.128C783.772 307.371 783.569 306.757 783.164 306.288C782.769 305.808 782.241 305.568 781.58 305.568C781.196 305.568 780.817 305.669 780.444 305.872C780.071 306.064 779.788 306.304 779.596 306.592V309.648C779.788 309.947 780.071 310.197 780.444 310.4C780.817 310.603 781.196 310.704 781.58 310.704ZM789.838 312.192C788.462 312.192 787.358 311.787 786.526 310.976L787.294 309.776C787.582 310.075 787.966 310.331 788.446 310.544C788.936 310.747 789.422 310.848 789.902 310.848C790.392 310.848 790.771 310.757 791.038 310.576C791.304 310.384 791.438 310.133 791.438 309.824C791.438 309.547 791.278 309.333 790.958 309.184C790.638 309.024 790.248 308.901 789.79 308.816C789.331 308.72 788.872 308.608 788.414 308.48C787.955 308.341 787.566 308.101 787.246 307.76C786.926 307.419 786.766 306.971 786.766 306.416C786.766 305.755 787.038 305.2 787.582 304.752C788.126 304.304 788.867 304.08 789.806 304.08C790.99 304.08 791.987 304.437 792.798 305.152L792.094 306.336C791.528 305.717 790.766 305.408 789.806 305.408C789.379 305.408 789.032 305.499 788.766 305.68C788.51 305.861 788.382 306.091 788.382 306.368C788.382 306.613 788.542 306.805 788.862 306.944C789.182 307.083 789.571 307.2 790.03 307.296C790.488 307.381 790.947 307.493 791.406 307.632C791.864 307.771 792.254 308.021 792.574 308.384C792.894 308.747 793.054 309.211 793.054 309.776C793.054 310.491 792.771 311.072 792.206 311.52C791.64 311.968 790.851 312.192 789.838 312.192ZM801.625 312H799.945V310.976C799.219 311.787 798.313 312.192 797.225 312.192C796.403 312.192 795.779 311.984 795.353 311.568C794.937 311.141 794.729 310.533 794.729 309.744V304.272H796.409V309.12C796.409 309.696 796.542 310.107 796.809 310.352C797.075 310.587 797.465 310.704 797.977 310.704C798.371 310.704 798.745 310.608 799.097 310.416C799.449 310.213 799.731 309.973 799.945 309.696V304.272H801.625V312ZM814.975 312H813.295V306.96C813.295 306.032 812.868 305.568 812.015 305.568C811.663 305.568 811.321 305.669 810.991 305.872C810.66 306.075 810.404 306.315 810.223 306.592V312H808.543V306.96C808.543 306.032 808.121 305.568 807.279 305.568C806.927 305.568 806.585 305.669 806.255 305.872C805.935 306.075 805.679 306.315 805.487 306.592V312H803.807V304.272H805.487V305.312C805.7 305.024 806.041 304.747 806.511 304.48C806.98 304.213 807.481 304.08 808.015 304.08C808.569 304.08 809.028 304.208 809.391 304.464C809.753 304.709 809.999 305.051 810.127 305.488C810.361 305.115 810.719 304.789 811.199 304.512C811.689 304.224 812.207 304.08 812.751 304.08C813.465 304.08 814.015 304.277 814.399 304.672C814.783 305.067 814.975 305.648 814.975 306.416V312Z" fill="#1A1A1A"/>
<path d="M729.32 293.22C727.773 293.22 726.493 292.727 725.48 291.74L726.58 289.96C727.327 290.747 728.24 291.14 729.32 291.14C730.453 291.14 731.32 290.707 731.92 289.84C732.533 288.973 732.84 287.94 732.84 286.74C732.84 286.567 732.833 286.44 732.82 286.36C732.487 286.853 731.993 287.287 731.34 287.66C730.687 288.033 729.987 288.22 729.24 288.22C727.973 288.22 726.913 287.847 726.06 287.1C725.207 286.34 724.78 285.28 724.78 283.92C724.78 282.653 725.233 281.593 726.14 280.74C727.047 279.873 728.233 279.44 729.7 279.44C730.647 279.44 731.48 279.627 732.2 280C732.92 280.36 733.493 280.86 733.92 281.5C734.347 282.14 734.667 282.867 734.88 283.68C735.093 284.48 735.2 285.36 735.2 286.32C735.2 288.333 734.687 289.987 733.66 291.28C732.633 292.573 731.187 293.22 729.32 293.22ZM729.88 286.22C730.44 286.22 730.98 286.08 731.5 285.8C732.02 285.507 732.453 285.12 732.8 284.64C732.72 283.787 732.44 283.053 731.96 282.44C731.48 281.827 730.767 281.52 729.82 281.52C728.993 281.52 728.34 281.76 727.86 282.24C727.38 282.707 727.14 283.24 727.14 283.84C727.14 284.613 727.4 285.207 727.92 285.62C728.44 286.02 729.093 286.22 729.88 286.22ZM746.672 293H737.012V291.14C739.825 289.007 741.732 287.44 742.732 286.44C743.732 285.44 744.232 284.48 744.232 283.56C744.232 282.907 743.992 282.407 743.512 282.06C743.032 281.713 742.458 281.54 741.792 281.54C740.338 281.54 739.138 282.067 738.192 283.12L736.832 281.6C737.405 280.907 738.125 280.38 738.992 280.02C739.872 279.647 740.798 279.46 741.772 279.46C743.132 279.46 744.272 279.827 745.192 280.56C746.125 281.28 746.592 282.28 746.592 283.56C746.592 284.72 746.112 285.867 745.152 287C744.205 288.133 742.745 289.447 740.772 290.94H746.672V293ZM751.346 292.8C751.066 293.08 750.74 293.22 750.366 293.22C749.993 293.22 749.666 293.08 749.386 292.8C749.106 292.52 748.966 292.187 748.966 291.8C748.966 291.427 749.106 291.107 749.386 290.84C749.666 290.56 749.993 290.42 750.366 290.42C750.74 290.42 751.066 290.56 751.346 290.84C751.626 291.107 751.766 291.427 751.766 291.8C751.766 292.187 751.626 292.52 751.346 292.8ZM756.422 293H753.842L758.882 281.72H751.962V279.66H761.582V281.28L756.422 293ZM765.946 286.08C764.973 286.08 764.173 285.767 763.546 285.14C762.933 284.513 762.626 283.727 762.626 282.78C762.626 281.833 762.933 281.047 763.546 280.42C764.173 279.78 764.973 279.46 765.946 279.46C766.933 279.46 767.733 279.773 768.346 280.4C768.96 281.027 769.266 281.82 769.266 282.78C769.266 283.727 768.96 284.513 768.346 285.14C767.733 285.767 766.933 286.08 765.946 286.08ZM765.986 293H764.646L773.166 279.66H774.526L765.986 293ZM775.506 292.3C774.893 292.927 774.1 293.24 773.126 293.24C772.153 293.24 771.353 292.927 770.726 292.3C770.113 291.673 769.806 290.887 769.806 289.94C769.806 288.993 770.113 288.207 770.726 287.58C771.353 286.94 772.153 286.62 773.126 286.62C774.1 286.62 774.893 286.94 775.506 287.58C776.133 288.207 776.446 288.993 776.446 289.94C776.446 290.887 776.133 291.673 775.506 292.3ZM765.946 284.74C766.466 284.74 766.893 284.56 767.226 284.2C767.56 283.827 767.726 283.353 767.726 282.78C767.726 282.193 767.56 281.713 767.226 281.34C766.893 280.967 766.466 280.78 765.946 280.78C765.44 280.78 765.02 280.967 764.686 281.34C764.353 281.713 764.186 282.193 764.186 282.78C764.186 283.353 764.353 283.827 764.686 284.2C765.02 284.56 765.44 284.74 765.946 284.74ZM771.846 291.36C772.18 291.72 772.606 291.9 773.126 291.9C773.646 291.9 774.073 291.72 774.406 291.36C774.74 290.987 774.906 290.513 774.906 289.94C774.906 289.353 774.74 288.873 774.406 288.5C774.073 288.127 773.646 287.94 773.126 287.94C772.606 287.94 772.18 288.127 771.846 288.5C771.513 288.873 771.346 289.353 771.346 289.94C771.346 290.513 771.513 290.987 771.846 291.36Z" fill="#1A1A1A"/>
<path d="M903.584 42H897.008V31.328H898.88V40.352H903.584V42ZM911.331 41.024C910.606 41.8027 909.646 42.192 908.451 42.192C907.257 42.192 906.297 41.8027 905.571 41.024C904.846 40.2347 904.483 39.2693 904.483 38.128C904.483 36.976 904.846 36.016 905.571 35.248C906.297 34.4693 907.257 34.08 908.451 34.08C909.646 34.08 910.606 34.4693 911.331 35.248C912.057 36.016 912.419 36.976 912.419 38.128C912.419 39.2693 912.057 40.2347 911.331 41.024ZM908.451 40.704C909.145 40.704 909.689 40.4587 910.083 39.968C910.478 39.4667 910.675 38.8533 910.675 38.128C910.675 37.4133 910.478 36.8107 910.083 36.32C909.689 35.8187 909.145 35.568 908.451 35.568C907.769 35.568 907.225 35.8187 906.819 36.32C906.425 36.8107 906.227 37.4133 906.227 38.128C906.227 38.8533 906.425 39.4667 906.819 39.968C907.225 40.4587 907.769 40.704 908.451 40.704ZM915.815 42H914.135V34.272H915.815V35.392C916.124 35.008 916.498 34.6933 916.935 34.448C917.383 34.2027 917.847 34.08 918.327 34.08V35.744C918.178 35.712 918.007 35.696 917.815 35.696C917.452 35.696 917.068 35.8027 916.663 36.016C916.268 36.2187 915.986 36.4587 915.815 36.736V42ZM923.266 42.192C922.082 42.192 921.111 41.8187 920.354 41.072C919.596 40.3253 919.218 39.344 919.218 38.128C919.218 36.9973 919.586 36.0427 920.322 35.264C921.068 34.4747 922.007 34.08 923.138 34.08C924.279 34.08 925.196 34.4747 925.89 35.264C926.583 36.0427 926.93 37.0453 926.93 38.272V38.688H920.978C921.042 39.296 921.292 39.8027 921.73 40.208C922.167 40.6133 922.732 40.816 923.426 40.816C924.322 40.816 925.058 40.528 925.634 39.952L926.402 41.056C925.591 41.8133 924.546 42.192 923.266 42.192ZM925.314 37.488C925.282 36.9547 925.079 36.4853 924.706 36.08C924.343 35.664 923.815 35.456 923.122 35.456C922.46 35.456 921.943 35.664 921.57 36.08C921.196 36.4853 920.994 36.9547 920.962 37.488H925.314ZM939.756 42H938.076V36.96C938.076 36.032 937.649 35.568 936.796 35.568C936.444 35.568 936.103 35.6693 935.772 35.872C935.441 36.0747 935.185 36.3147 935.004 36.592V42H933.324V36.96C933.324 36.032 932.903 35.568 932.06 35.568C931.708 35.568 931.367 35.6693 931.036 35.872C930.716 36.0747 930.46 36.3147 930.268 36.592V42H928.588V34.272H930.268V35.312C930.481 35.024 930.823 34.7467 931.292 34.48C931.761 34.2133 932.263 34.08 932.796 34.08C933.351 34.08 933.809 34.208 934.172 34.464C934.535 34.7093 934.78 35.0507 934.908 35.488C935.143 35.1147 935.5 34.7893 935.98 34.512C936.471 34.224 936.988 34.08 937.532 34.08C938.247 34.08 938.796 34.2773 939.18 34.672C939.564 35.0667 939.756 35.648 939.756 36.416V42ZM947.641 33.024C947.438 33.2267 947.193 33.328 946.905 33.328C946.617 33.328 946.371 33.2267 946.169 33.024C945.966 32.8213 945.865 32.576 945.865 32.288C945.865 32 945.966 31.7547 946.169 31.552C946.371 31.3493 946.617 31.248 946.905 31.248C947.193 31.248 947.438 31.3493 947.641 31.552C947.843 31.7547 947.945 32 947.945 32.288C947.945 32.576 947.843 32.8213 947.641 33.024ZM947.737 42H946.057V34.272H947.737V42ZM954.076 42.192C953.084 42.192 952.257 41.7707 951.596 40.928V44.944H949.916V34.272H951.596V35.328C952.215 34.496 953.041 34.08 954.076 34.08C955.089 34.08 955.911 34.4427 956.54 35.168C957.18 35.8933 957.5 36.88 957.5 38.128C957.5 39.376 957.18 40.368 956.54 41.104C955.911 41.8293 955.089 42.192 954.076 42.192ZM953.58 40.704C954.241 40.704 954.769 40.464 955.164 39.984C955.569 39.504 955.772 38.8853 955.772 38.128C955.772 37.3707 955.569 36.7573 955.164 36.288C954.769 35.808 954.241 35.568 953.58 35.568C953.196 35.568 952.817 35.6693 952.444 35.872C952.071 36.064 951.788 36.304 951.596 36.592V39.648C951.788 39.9467 952.071 40.1973 952.444 40.4C952.817 40.6027 953.196 40.704 953.58 40.704ZM961.838 42.192C960.462 42.192 959.358 41.7867 958.526 40.976L959.294 39.776C959.582 40.0747 959.966 40.3307 960.446 40.544C960.936 40.7467 961.422 40.848 961.902 40.848C962.392 40.848 962.771 40.7573 963.038 40.576C963.304 40.384 963.438 40.1333 963.438 39.824C963.438 39.5467 963.278 39.3333 962.958 39.184C962.638 39.024 962.248 38.9013 961.79 38.816C961.331 38.72 960.872 38.608 960.414 38.48C959.955 38.3413 959.566 38.1013 959.246 37.76C958.926 37.4187 958.766 36.9707 958.766 36.416C958.766 35.7547 959.038 35.2 959.582 34.752C960.126 34.304 960.867 34.08 961.806 34.08C962.99 34.08 963.987 34.4373 964.798 35.152L964.094 36.336C963.528 35.7173 962.766 35.408 961.806 35.408C961.379 35.408 961.032 35.4987 960.766 35.68C960.51 35.8613 960.382 36.0907 960.382 36.368C960.382 36.6133 960.542 36.8053 960.862 36.944C961.182 37.0827 961.571 37.2 962.03 37.296C962.488 37.3813 962.947 37.4933 963.406 37.632C963.864 37.7707 964.254 38.0213 964.574 38.384C964.894 38.7467 965.054 39.2107 965.054 39.776C965.054 40.4907 964.771 41.072 964.206 41.52C963.64 41.968 962.851 42.192 961.838 42.192ZM973.625 42H971.945V40.976C971.219 41.7867 970.313 42.192 969.225 42.192C968.403 42.192 967.779 41.984 967.353 41.568C966.937 41.1413 966.729 40.5333 966.729 39.744V34.272H968.409V39.12C968.409 39.696 968.542 40.1067 968.809 40.352C969.075 40.5867 969.465 40.704 969.977 40.704C970.371 40.704 970.745 40.608 971.097 40.416C971.449 40.2133 971.731 39.9733 971.945 39.696V34.272H973.625V42ZM986.975 42H985.295V36.96C985.295 36.032 984.868 35.568 984.015 35.568C983.663 35.568 983.321 35.6693 982.991 35.872C982.66 36.0747 982.404 36.3147 982.223 36.592V42H980.543V36.96C980.543 36.032 980.121 35.568 979.279 35.568C978.927 35.568 978.585 35.6693 978.255 35.872C977.935 36.0747 977.679 36.3147 977.487 36.592V42H975.807V34.272H977.487V35.312C977.7 35.024 978.041 34.7467 978.511 34.48C978.98 34.2133 979.481 34.08 980.015 34.08C980.569 34.08 981.028 34.208 981.391 34.464C981.753 34.7093 981.999 35.0507 982.127 35.488C982.361 35.1147 982.719 34.7893 983.199 34.512C983.689 34.224 984.207 34.08 984.751 34.08C985.465 34.08 986.015 34.2773 986.399 34.672C986.783 35.0667 986.975 35.648 986.975 36.416V42Z" fill="#1A1A1A"/>
<path d="M901.32 23.22C899.773 23.22 898.493 22.7267 897.48 21.74L898.58 19.96C899.327 20.7467 900.24 21.14 901.32 21.14C902.453 21.14 903.32 20.7067 903.92 19.84C904.533 18.9733 904.84 17.94 904.84 16.74C904.84 16.5667 904.833 16.44 904.82 16.36C904.487 16.8533 903.993 17.2867 903.34 17.66C902.687 18.0333 901.987 18.22 901.24 18.22C899.973 18.22 898.913 17.8467 898.06 17.1C897.207 16.34 896.78 15.28 896.78 13.92C896.78 12.6533 897.233 11.5933 898.14 10.74C899.047 9.87333 900.233 9.44 901.7 9.44C902.647 9.44 903.48 9.62667 904.2 10C904.92 10.36 905.493 10.86 905.92 11.5C906.347 12.14 906.667 12.8667 906.88 13.68C907.093 14.48 907.2 15.36 907.2 16.32C907.2 18.3333 906.687 19.9867 905.66 21.28C904.633 22.5733 903.187 23.22 901.32 23.22ZM901.88 16.22C902.44 16.22 902.98 16.08 903.5 15.8C904.02 15.5067 904.453 15.12 904.8 14.64C904.72 13.7867 904.44 13.0533 903.96 12.44C903.48 11.8267 902.767 11.52 901.82 11.52C900.993 11.52 900.34 11.76 899.86 12.24C899.38 12.7067 899.14 13.24 899.14 13.84C899.14 14.6133 899.4 15.2067 899.92 15.62C900.44 16.02 901.093 16.22 901.88 16.22ZM918.672 23H909.012V21.14C911.825 19.0067 913.732 17.44 914.732 16.44C915.732 15.44 916.232 14.48 916.232 13.56C916.232 12.9067 915.992 12.4067 915.512 12.06C915.032 11.7133 914.458 11.54 913.792 11.54C912.338 11.54 911.138 12.0667 910.192 13.12L908.832 11.6C909.405 10.9067 910.125 10.38 910.992 10.02C911.872 9.64667 912.798 9.46 913.772 9.46C915.132 9.46 916.272 9.82667 917.192 10.56C918.125 11.28 918.592 12.28 918.592 13.56C918.592 14.72 918.112 15.8667 917.152 17C916.205 18.1333 914.745 19.4467 912.772 20.94H918.672V23ZM923.346 22.8C923.066 23.08 922.74 23.22 922.366 23.22C921.993 23.22 921.666 23.08 921.386 22.8C921.106 22.52 920.966 22.1867 920.966 21.8C920.966 21.4267 921.106 21.1067 921.386 20.84C921.666 20.56 921.993 20.42 922.366 20.42C922.74 20.42 923.066 20.56 923.346 20.84C923.626 21.1067 923.766 21.4267 923.766 21.8C923.766 22.1867 923.626 22.52 923.346 22.8ZM928.422 23H925.842L930.882 11.72H923.962V9.66H933.582V11.28L928.422 23ZM937.946 16.08C936.973 16.08 936.173 15.7667 935.546 15.14C934.933 14.5133 934.626 13.7267 934.626 12.78C934.626 11.8333 934.933 11.0467 935.546 10.42C936.173 9.78 936.973 9.46 937.946 9.46C938.933 9.46 939.733 9.77333 940.346 10.4C940.96 11.0267 941.266 11.82 941.266 12.78C941.266 13.7267 940.96 14.5133 940.346 15.14C939.733 15.7667 938.933 16.08 937.946 16.08ZM937.986 23H936.646L945.166 9.66H946.526L937.986 23ZM947.506 22.3C946.893 22.9267 946.1 23.24 945.126 23.24C944.153 23.24 943.353 22.9267 942.726 22.3C942.113 21.6733 941.806 20.8867 941.806 19.94C941.806 18.9933 942.113 18.2067 942.726 17.58C943.353 16.94 944.153 16.62 945.126 16.62C946.1 16.62 946.893 16.94 947.506 17.58C948.133 18.2067 948.446 18.9933 948.446 19.94C948.446 20.8867 948.133 21.6733 947.506 22.3ZM937.946 14.74C938.466 14.74 938.893 14.56 939.226 14.2C939.56 13.8267 939.726 13.3533 939.726 12.78C939.726 12.1933 939.56 11.7133 939.226 11.34C938.893 10.9667 938.466 10.78 937.946 10.78C937.44 10.78 937.02 10.9667 936.686 11.34C936.353 11.7133 936.186 12.1933 936.186 12.78C936.186 13.3533 936.353 13.8267 936.686 14.2C937.02 14.56 937.44 14.74 937.946 14.74ZM943.846 21.36C944.18 21.72 944.606 21.9 945.126 21.9C945.646 21.9 946.073 21.72 946.406 21.36C946.74 20.9867 946.906 20.5133 946.906 19.94C946.906 19.3533 946.74 18.8733 946.406 18.5C946.073 18.1267 945.646 17.94 945.126 17.94C944.606 17.94 944.18 18.1267 943.846 18.5C943.513 18.8733 943.346 19.3533 943.346 19.94C943.346 20.5133 943.513 20.9867 943.846 21.36Z" fill="#1A1A1A"/>
</svg>
