<svg width="645" height="345" viewBox="0 0 645 345" fill="none" xmlns="http://www.w3.org/2000/svg">
<rect width="20" height="20" rx="2" fill="#B6174B"/>
<rect x="25" width="20" height="20" rx="2" fill="#B6174B"/>
<rect x="50" width="20" height="20" rx="2" fill="#B6174B"/>
<rect x="75" width="20" height="20" rx="2" fill="#B6174B"/>
<rect x="100" width="20" height="20" rx="2" fill="#B6174B"/>
<rect y="25" width="20" height="20" rx="2" fill="#B6174B"/>
<rect x="25" y="25" width="20" height="20" rx="2" fill="#B6174B"/>
<rect x="50" y="25" width="20" height="20" rx="2" fill="#B6174B"/>
<rect x="75" y="25" width="20" height="20" rx="2" fill="#B6174B"/>
<rect x="100" y="25" width="20" height="20" rx="2" fill="#B6174B"/>
<rect y="50" width="20" height="20" rx="2" fill="#41A5B4"/>
<rect x="25" y="50" width="20" height="20" rx="2" fill="#41A5B4"/>
<rect x="50" y="50" width="20" height="20" rx="2" fill="#41A5B4"/>
<rect x="75" y="50" width="20" height="20" rx="2" fill="#41A5B4"/>
<rect x="100" y="50" width="20" height="20" rx="2" fill="#41A5B4"/>
<rect y="75" width="20" height="20" rx="2" fill="#41A5B4"/>
<rect x="25" y="75" width="20" height="20" rx="2" fill="#41A5B4"/>
<rect x="50" y="75" width="20" height="20" rx="2" fill="#41A5B4"/>
<rect x="75" y="75" width="20" height="20" rx="2" fill="#41A5B4"/>
<rect x="100" y="75" width="20" height="20" rx="2" fill="#41A5B4"/>
<rect y="100" width="20" height="20" rx="2" fill="#41A5B4"/>
<rect x="25" y="100" width="20" height="20" rx="2" fill="#41A5B4"/>
<rect x="50" y="100" width="20" height="20" rx="2" fill="#41A5B4"/>
<rect x="75" y="100" width="20" height="20" rx="2" fill="#41A5B4"/>
<rect x="100" y="100" width="20" height="20" rx="2" fill="#41A5B4"/>
<rect y="125" width="20" height="20" rx="2" fill="#4B034F"/>
<rect x="25" y="125" width="20" height="20" rx="2" fill="#4B034F"/>
<rect x="50" y="125" width="20" height="20" rx="2" fill="#4B034F"/>
<rect x="75" y="125" width="20" height="20" rx="2" fill="#4B034F"/>
<rect x="100" y="125" width="20" height="20" rx="2" fill="#4B034F"/>
<rect y="150" width="20" height="20" rx="2" fill="#FAA080"/>
<rect x="25" y="150" width="20" height="20" rx="2" fill="#FAA080"/>
<rect x="50" y="150" width="20" height="20" rx="2" fill="#FAA080"/>
<rect x="75" y="150" width="20" height="20" rx="2" fill="#FAA080"/>
<rect x="100" y="150" width="20" height="20" rx="2" fill="#FAA080"/>
<rect y="175" width="20" height="20" rx="2" fill="#FAA080"/>
<rect x="25" y="175" width="20" height="20" rx="2" fill="#FAA080"/>
<rect x="50" y="175" width="20" height="20" rx="2" fill="#FAA080"/>
<rect x="75" y="175" width="20" height="20" rx="2" fill="#FAA080"/>
<rect x="100" y="175" width="20" height="20" rx="2" fill="#FAA080"/>
<rect y="200" width="20" height="20" rx="2" fill="#1D5556"/>
<rect x="25" y="200" width="20" height="20" rx="2" fill="#1D5556"/>
<rect x="50" y="200" width="20" height="20" rx="2" fill="#1D5556"/>
<rect x="75" y="200" width="20" height="20" rx="2" fill="#1D5556"/>
<rect x="100" y="200" width="20" height="20" rx="2" fill="#1D5556"/>
<rect y="225" width="20" height="20" rx="2" fill="#1D5556"/>
<rect x="25" y="225" width="20" height="20" rx="2" fill="#1D5556"/>
<rect x="50" y="225" width="20" height="20" rx="2" fill="#1D5556"/>
<rect x="75" y="225" width="20" height="20" rx="2" fill="#1D5556"/>
<rect x="100" y="225" width="20" height="20" rx="2" fill="#1D5556"/>
<rect y="250" width="20" height="20" rx="2" fill="#1D5556"/>
<rect x="25" y="250" width="20" height="20" rx="2" fill="#1D5556"/>
<rect x="50" y="250" width="20" height="20" rx="2" fill="#1D5556"/>
<rect x="75" y="250" width="20" height="20" rx="2" fill="#1D5556"/>
<rect x="100" y="250" width="20" height="20" rx="2" fill="#1D5556"/>
<rect y="275" width="20" height="20" rx="2" fill="#1D5556"/>
<rect x="25" y="275" width="20" height="20" rx="2" fill="#1D5556"/>
<rect x="50" y="275" width="20" height="20" rx="2" fill="#1D5556"/>
<rect x="75" y="275" width="20" height="20" rx="2" fill="#1D5556"/>
<rect x="100" y="275" width="20" height="20" rx="2" fill="#1D5556"/>
<rect y="300" width="20" height="20" rx="2" fill="#1D5556"/>
<rect x="25" y="300" width="20" height="20" rx="2" fill="#1D5556"/>
<rect x="50" y="300" width="20" height="20" rx="2" fill="#1D5556"/>
<rect x="75" y="300" width="20" height="20" rx="2" fill="#1D5556"/>
<rect x="100" y="300" width="20" height="20" rx="2" fill="#1D5556"/>
<rect y="325" width="20" height="20" rx="2" fill="#1D5556"/>
<rect x="25" y="325" width="20" height="20" rx="2" fill="#1D5556"/>
<rect x="50" y="325" width="20" height="20" rx="2" fill="#1D5556"/>
<rect x="75" y="325" width="20" height="20" rx="2" fill="#1D5556"/>
<rect x="100" y="325" width="20" height="20" rx="2" fill="#1D5556"/>
<rect x="125" width="20" height="20" rx="2" fill="#B6174B"/>
<rect x="150" width="20" height="20" rx="2" fill="#B6174B"/>
<rect x="175" width="20" height="20" rx="2" fill="#B6174B"/>
<rect x="200" width="20" height="20" rx="2" fill="#B6174B"/>
<rect x="225" width="20" height="20" rx="2" fill="#B6174B"/>
<rect x="125" y="25" width="20" height="20" rx="2" fill="#B6174B"/>
<rect x="150" y="25" width="20" height="20" rx="2" fill="#B6174B"/>
<rect x="175" y="25" width="20" height="20" rx="2" fill="#B6174B"/>
<rect x="200" y="25" width="20" height="20" rx="2" fill="#B6174B"/>
<rect x="225" y="25" width="20" height="20" rx="2" fill="#B6174B"/>
<rect x="125" y="50" width="20" height="20" rx="2" fill="#41A5B4"/>
<rect x="150" y="50" width="20" height="20" rx="2" fill="#41A5B4"/>
<rect x="175" y="50" width="20" height="20" rx="2" fill="#41A5B4"/>
<rect x="200" y="50" width="20" height="20" rx="2" fill="#41A5B4"/>
<rect x="225" y="50" width="20" height="20" rx="2" fill="#41A5B4"/>
<rect x="125" y="75" width="20" height="20" rx="2" fill="#41A5B4"/>
<rect x="150" y="75" width="20" height="20" rx="2" fill="#41A5B4"/>
<rect x="175" y="75" width="20" height="20" rx="2" fill="#41A5B4"/>
<rect x="200" y="75" width="20" height="20" rx="2" fill="#41A5B4"/>
<rect x="225" y="75" width="20" height="20" rx="2" fill="#41A5B4"/>
<rect x="125" y="100" width="20" height="20" rx="2" fill="#41A5B4"/>
<rect x="150" y="100" width="20" height="20" rx="2" fill="#41A5B4"/>
<rect x="175" y="100" width="20" height="20" rx="2" fill="#41A5B4"/>
<rect x="200" y="100" width="20" height="20" rx="2" fill="#41A5B4"/>
<rect x="225" y="100" width="20" height="20" rx="2" fill="#41A5B4"/>
<rect x="125" y="125" width="20" height="20" rx="2" fill="#4B034F"/>
<rect x="150" y="125" width="20" height="20" rx="2" fill="#4B034F"/>
<rect x="175" y="125" width="20" height="20" rx="2" fill="#4B034F"/>
<rect x="200" y="125" width="20" height="20" rx="2" fill="#4B034F"/>
<rect x="225" y="125" width="20" height="20" rx="2" fill="#4B034F"/>
<rect x="125" y="150" width="20" height="20" rx="2" fill="#FAA080"/>
<rect x="150" y="150" width="20" height="20" rx="2" fill="#FAA080"/>
<rect x="175" y="150" width="20" height="20" rx="2" fill="#FAA080"/>
<rect x="200" y="150" width="20" height="20" rx="2" fill="#FAA080"/>
<rect x="225" y="150" width="20" height="20" rx="2" fill="#FAA080"/>
<rect x="125" y="175" width="20" height="20" rx="2" fill="#FAA080"/>
<rect x="150" y="175" width="20" height="20" rx="2" fill="#FAA080"/>
<rect x="175" y="175" width="20" height="20" rx="2" fill="#FAA080"/>
<rect x="200" y="175" width="20" height="20" rx="2" fill="#FAA080"/>
<rect x="225" y="175" width="20" height="20" rx="2" fill="#FAA080"/>
<rect x="125" y="200" width="20" height="20" rx="2" fill="#1D5556"/>
<rect x="150" y="200" width="20" height="20" rx="2" fill="#1D5556"/>
<rect x="175" y="200" width="20" height="20" rx="2" fill="#1D5556"/>
<rect x="200" y="200" width="20" height="20" rx="2" fill="#1D5556"/>
<rect x="225" y="200" width="20" height="20" rx="2" fill="#1D5556"/>
<rect x="125" y="225" width="20" height="20" rx="2" fill="#1D5556"/>
<rect x="150" y="225" width="20" height="20" rx="2" fill="#1D5556"/>
<rect x="175" y="225" width="20" height="20" rx="2" fill="#1D5556"/>
<rect x="200" y="225" width="20" height="20" rx="2" fill="#1D5556"/>
<rect x="225" y="225" width="20" height="20" rx="2" fill="#1D5556"/>
<rect x="125" y="250" width="20" height="20" rx="2" fill="#1D5556"/>
<rect x="150" y="250" width="20" height="20" rx="2" fill="#1D5556"/>
<rect x="175" y="250" width="20" height="20" rx="2" fill="#1D5556"/>
<rect x="200" y="250" width="20" height="20" rx="2" fill="#1D5556"/>
<rect x="225" y="250" width="20" height="20" rx="2" fill="#1D5556"/>
<rect x="125" y="275" width="20" height="20" rx="2" fill="#1D5556"/>
<rect x="150" y="275" width="20" height="20" rx="2" fill="#1D5556"/>
<rect x="175" y="275" width="20" height="20" rx="2" fill="#1D5556"/>
<rect x="200" y="275" width="20" height="20" rx="2" fill="#1D5556"/>
<rect x="225" y="275" width="20" height="20" rx="2" fill="#1D5556"/>
<rect x="125" y="300" width="20" height="20" rx="2" fill="#1D5556"/>
<rect x="150" y="300" width="20" height="20" rx="2" fill="#1D5556"/>
<rect x="175" y="300" width="20" height="20" rx="2" fill="#1D5556"/>
<rect x="200" y="300" width="20" height="20" rx="2" fill="#1D5556"/>
<rect x="225" y="300" width="20" height="20" rx="2" fill="#1D5556"/>
<rect x="125" y="325" width="20" height="20" rx="2" fill="#1D5556"/>
<rect x="150" y="325" width="20" height="20" rx="2" fill="#1D5556"/>
<rect x="175" y="325" width="20" height="20" rx="2" fill="#1D5556"/>
<rect x="200" y="325" width="20" height="20" rx="2" fill="#1D5556"/>
<rect x="225" y="325" width="20" height="20" rx="2" fill="#1D5556"/>
<rect x="250" width="20" height="20" rx="2" fill="#B6174B"/>
<rect x="275" width="20" height="20" rx="2" fill="#B6174B"/>
<rect x="300" width="20" height="20" rx="2" fill="#B6174B"/>
<rect x="325" width="20" height="20" rx="2" fill="#B6174B"/>
<rect x="350" width="20" height="20" rx="2" fill="#B6174B"/>
<rect x="250" y="25" width="20" height="20" rx="2" fill="#B6174B"/>
<rect x="275" y="25" width="20" height="20" rx="2" fill="#B6174B"/>
<rect x="300" y="25" width="20" height="20" rx="2" fill="#B6174B"/>
<rect x="325" y="25" width="20" height="20" rx="2" fill="#B6174B"/>
<rect x="350" y="25" width="20" height="20" rx="2" fill="#B6174B"/>
<rect x="250" y="50" width="20" height="20" rx="2" fill="#41A5B4"/>
<rect x="275" y="50" width="20" height="20" rx="2" fill="#41A5B4"/>
<rect x="300" y="50" width="20" height="20" rx="2" fill="#41A5B4"/>
<rect x="325" y="50" width="20" height="20" rx="2" fill="#B6174B"/>
<rect x="350" y="50" width="20" height="20" rx="2" fill="#B6174B"/>
<rect x="250" y="75" width="20" height="20" rx="2" fill="#41A5B4"/>
<rect x="275" y="75" width="20" height="20" rx="2" fill="#41A5B4"/>
<rect x="300" y="75" width="20" height="20" rx="2" fill="#41A5B4"/>
<rect x="325" y="75" width="20" height="20" rx="2" fill="#41A5B4"/>
<rect x="350" y="75" width="20" height="20" rx="2" fill="#41A5B4"/>
<rect x="250" y="100" width="20" height="20" rx="2" fill="#41A5B4"/>
<rect x="275" y="100" width="20" height="20" rx="2" fill="#41A5B4"/>
<rect x="300" y="100" width="20" height="20" rx="2" fill="#41A5B4"/>
<rect x="325" y="100" width="20" height="20" rx="2" fill="#41A5B4"/>
<rect x="350" y="100" width="20" height="20" rx="2" fill="#41A5B4"/>
<rect x="250" y="125" width="20" height="20" rx="2" fill="#4B034F"/>
<rect x="275" y="125" width="20" height="20" rx="2" fill="#4B034F"/>
<rect x="300" y="125" width="20" height="20" rx="2" fill="#4B034F"/>
<rect x="325" y="125" width="20" height="20" rx="2" fill="#4B034F"/>
<rect x="350" y="125" width="20" height="20" rx="2" fill="#4B034F"/>
<rect x="250" y="150" width="20" height="20" rx="2" fill="#FAA080"/>
<rect x="275" y="150" width="20" height="20" rx="2" fill="#FAA080"/>
<rect x="300" y="150" width="20" height="20" rx="2" fill="#FAA080"/>
<rect x="325" y="150" width="20" height="20" rx="2" fill="#FAA080"/>
<rect x="350" y="150" width="20" height="20" rx="2" fill="#4B034F"/>
<rect x="250" y="175" width="20" height="20" rx="2" fill="#FAA080"/>
<rect x="275" y="175" width="20" height="20" rx="2" fill="#FAA080"/>
<rect x="300" y="175" width="20" height="20" rx="2" fill="#FAA080"/>
<rect x="325" y="175" width="20" height="20" rx="2" fill="#FAA080"/>
<rect x="350" y="175" width="20" height="20" rx="2" fill="#4B034F"/>
<rect x="250" y="200" width="20" height="20" rx="2" fill="#1D5556"/>
<rect x="275" y="200" width="20" height="20" rx="2" fill="#FAA080"/>
<rect x="300" y="200" width="20" height="20" rx="2" fill="#FAA080"/>
<rect x="325" y="200" width="20" height="20" rx="2" fill="#FAA080"/>
<rect x="350" y="200" width="20" height="20" rx="2" fill="#FAA080"/>
<rect x="250" y="225" width="20" height="20" rx="2" fill="#1D5556"/>
<rect x="275" y="225" width="20" height="20" rx="2" fill="#FAA080"/>
<rect x="300" y="225" width="20" height="20" rx="2" fill="#FAA080"/>
<rect x="325" y="225" width="20" height="20" rx="2" fill="#FAA080"/>
<rect x="350" y="225" width="20" height="20" rx="2" fill="#FAA080"/>
<rect x="250" y="250" width="20" height="20" rx="2" fill="#1D5556"/>
<rect x="275" y="250" width="20" height="20" rx="2" fill="#1D5556"/>
<rect x="300" y="250" width="20" height="20" rx="2" fill="#1D5556"/>
<rect x="325" y="250" width="20" height="20" rx="2" fill="#1D5556"/>
<rect x="350" y="250" width="20" height="20" rx="2" fill="#1D5556"/>
<rect x="250" y="275" width="20" height="20" rx="2" fill="#1D5556"/>
<rect x="275" y="275" width="20" height="20" rx="2" fill="#1D5556"/>
<rect x="300" y="275" width="20" height="20" rx="2" fill="#1D5556"/>
<rect x="325" y="275" width="20" height="20" rx="2" fill="#1D5556"/>
<rect x="350" y="275" width="20" height="20" rx="2" fill="#1D5556"/>
<rect x="250" y="300" width="20" height="20" rx="2" fill="#1D5556"/>
<rect x="275" y="300" width="20" height="20" rx="2" fill="#1D5556"/>
<rect x="300" y="300" width="20" height="20" rx="2" fill="#1D5556"/>
<rect x="325" y="300" width="20" height="20" rx="2" fill="#1D5556"/>
<rect x="350" y="300" width="20" height="20" rx="2" fill="#1D5556"/>
<rect x="250" y="325" width="20" height="20" rx="2" fill="#1D5556"/>
<rect x="275" y="325" width="20" height="20" rx="2" fill="#1D5556"/>
<rect x="300" y="325" width="20" height="20" rx="2" fill="#1D5556"/>
<rect x="325" y="325" width="20" height="20" rx="2" fill="#1D5556"/>
<rect x="350" y="325" width="20" height="20" rx="2" fill="#1D5556"/>
<rect x="375" width="20" height="20" rx="2" fill="#B6174B"/>
<rect x="400" width="20" height="20" rx="2" fill="#B6174B"/>
<rect x="425" width="20" height="20" rx="2" fill="#B6174B"/>
<rect x="450" width="20" height="20" rx="2" fill="#B6174B"/>
<rect x="475" width="20" height="20" rx="2" fill="#B6174B"/>
<rect x="375" y="25" width="20" height="20" rx="2" fill="#B6174B"/>
<rect x="400" y="25" width="20" height="20" rx="2" fill="#B6174B"/>
<rect x="425" y="25" width="20" height="20" rx="2" fill="#B6174B"/>
<rect x="450" y="25" width="20" height="20" rx="2" fill="#B6174B"/>
<rect x="475" y="25" width="20" height="20" rx="2" fill="#B6174B"/>
<rect x="375" y="50" width="20" height="20" rx="2" fill="#B6174B"/>
<rect x="400" y="50" width="20" height="20" rx="2" fill="#B6174B"/>
<rect x="425" y="50" width="20" height="20" rx="2" fill="#B6174B"/>
<rect x="450" y="50" width="20" height="20" rx="2" fill="#B6174B"/>
<rect x="475" y="50" width="20" height="20" rx="2" fill="#B6174B"/>
<rect x="375" y="75" width="20" height="20" rx="2" fill="#41A5B4"/>
<rect x="400" y="75" width="20" height="20" rx="2" fill="#41A5B4"/>
<rect x="425" y="75" width="20" height="20" rx="2" fill="#41A5B4"/>
<rect x="450" y="75" width="20" height="20" rx="2" fill="#41A5B4"/>
<rect x="475" y="75" width="20" height="20" rx="2" fill="#41A5B4"/>
<rect x="375" y="100" width="20" height="20" rx="2" fill="#41A5B4"/>
<rect x="400" y="100" width="20" height="20" rx="2" fill="#41A5B4"/>
<rect x="425" y="100" width="20" height="20" rx="2" fill="#41A5B4"/>
<rect x="450" y="100" width="20" height="20" rx="2" fill="#41A5B4"/>
<rect x="475" y="100" width="20" height="20" rx="2" fill="#41A5B4"/>
<rect x="375" y="125" width="20" height="20" rx="2" fill="#4B034F"/>
<rect x="400" y="125" width="20" height="20" rx="2" fill="#4B034F"/>
<rect x="425" y="125" width="20" height="20" rx="2" fill="#4B034F"/>
<rect x="450" y="125" width="20" height="20" rx="2" fill="#4B034F"/>
<rect x="475" y="125" width="20" height="20" rx="2" fill="#4B034F"/>
<rect x="375" y="150" width="20" height="20" rx="2" fill="#4B034F"/>
<rect x="400" y="150" width="20" height="20" rx="2" fill="#4B034F"/>
<rect x="425" y="150" width="20" height="20" rx="2" fill="#4B034F"/>
<rect x="450" y="150" width="20" height="20" rx="2" fill="#4B034F"/>
<rect x="475" y="150" width="20" height="20" rx="2" fill="#4B034F"/>
<rect x="375" y="175" width="20" height="20" rx="2" fill="#4B034F"/>
<rect x="400" y="175" width="20" height="20" rx="2" fill="#4B034F"/>
<rect x="425" y="175" width="20" height="20" rx="2" fill="#4B034F"/>
<rect x="450" y="175" width="20" height="20" rx="2" fill="#4B034F"/>
<rect x="475" y="175" width="20" height="20" rx="2" fill="#4B034F"/>
<rect x="375" y="200" width="20" height="20" rx="2" fill="#FAA080"/>
<rect x="400" y="200" width="20" height="20" rx="2" fill="#FAA080"/>
<rect x="425" y="200" width="20" height="20" rx="2" fill="#FAA080"/>
<rect x="450" y="200" width="20" height="20" rx="2" fill="#FAA080"/>
<rect x="475" y="200" width="20" height="20" rx="2" fill="#FAA080"/>
<rect x="375" y="225" width="20" height="20" rx="2" fill="#FAA080"/>
<rect x="400" y="225" width="20" height="20" rx="2" fill="#FAA080"/>
<rect x="425" y="225" width="20" height="20" rx="2" fill="#FAA080"/>
<rect x="450" y="225" width="20" height="20" rx="2" fill="#FAA080"/>
<rect x="475" y="225" width="20" height="20" rx="2" fill="#FAA080"/>
<rect x="375" y="250" width="20" height="20" rx="2" fill="#1D5556"/>
<rect x="400" y="250" width="20" height="20" rx="2" fill="#1D5556"/>
<rect x="425" y="250" width="20" height="20" rx="2" fill="#1D5556"/>
<rect x="450" y="250" width="20" height="20" rx="2" fill="#1D5556"/>
<rect x="475" y="250" width="20" height="20" rx="2" fill="#1D5556"/>
<rect x="375" y="275" width="20" height="20" rx="2" fill="#1D5556"/>
<rect x="400" y="275" width="20" height="20" rx="2" fill="#1D5556"/>
<rect x="425" y="275" width="20" height="20" rx="2" fill="#1D5556"/>
<rect x="450" y="275" width="20" height="20" rx="2" fill="#1D5556"/>
<rect x="475" y="275" width="20" height="20" rx="2" fill="#1D5556"/>
<rect x="375" y="300" width="20" height="20" rx="2" fill="#1D5556"/>
<rect x="400" y="300" width="20" height="20" rx="2" fill="#1D5556"/>
<rect x="425" y="300" width="20" height="20" rx="2" fill="#1D5556"/>
<rect x="450" y="300" width="20" height="20" rx="2" fill="#1D5556"/>
<rect x="475" y="300" width="20" height="20" rx="2" fill="#1D5556"/>
<rect x="375" y="325" width="20" height="20" rx="2" fill="#1D5556"/>
<rect x="400" y="325" width="20" height="20" rx="2" fill="#1D5556"/>
<rect x="425" y="325" width="20" height="20" rx="2" fill="#1D5556"/>
<rect x="450" y="325" width="20" height="20" rx="2" fill="#1D5556"/>
<rect x="475" y="325" width="20" height="20" rx="2" fill="#1D5556"/>
<rect x="500" width="20" height="20" rx="2" fill="#B6174B"/>
<rect x="500" y="25" width="20" height="20" rx="2" fill="#B6174B"/>
<rect x="500" y="50" width="20" height="20" rx="2" fill="#B6174B"/>
<rect x="500" y="75" width="20" height="20" rx="2" fill="#41A5B4"/>
<rect x="500" y="100" width="20" height="20" rx="2" fill="#41A5B4"/>
<rect x="500" y="125" width="20" height="20" rx="2" fill="#4B034F"/>
<rect x="500" y="150" width="20" height="20" rx="2" fill="#4B034F"/>
<rect x="500" y="175" width="20" height="20" rx="2" fill="#4B034F"/>
<rect x="500" y="200" width="20" height="20" rx="2" fill="#FAA080"/>
<rect x="500" y="225" width="20" height="20" rx="2" fill="#FAA080"/>
<rect x="500" y="250" width="20" height="20" rx="2" fill="#1D5556"/>
<rect x="500" y="275" width="20" height="20" rx="2" fill="#1D5556"/>
<rect x="500" y="300" width="20" height="20" rx="2" fill="#1D5556"/>
<rect x="500" y="325" width="20" height="20" rx="2" fill="#1D5556"/>
<rect x="525" width="20" height="20" rx="2" fill="#B6174B"/>
<rect x="550" width="20" height="20" rx="2" fill="#B6174B"/>
<rect x="575" width="20" height="20" rx="2" fill="#B6174B"/>
<rect x="600" width="20" height="20" rx="2" fill="#B6174B"/>
<rect x="625" width="20" height="20" rx="2" fill="#B6174B"/>
<rect x="525" y="25" width="20" height="20" rx="2" fill="#B6174B"/>
<rect x="550" y="25" width="20" height="20" rx="2" fill="#B6174B"/>
<rect x="575" y="25" width="20" height="20" rx="2" fill="#B6174B"/>
<rect x="600" y="25" width="20" height="20" rx="2" fill="#B6174B"/>
<rect x="625" y="25" width="20" height="20" rx="2" fill="#B6174B"/>
<rect x="525" y="50" width="20" height="20" rx="2" fill="#B6174B"/>
<rect x="550" y="50" width="20" height="20" rx="2" fill="#B6174B"/>
<rect x="575" y="50" width="20" height="20" rx="2" fill="#B6174B"/>
<rect x="600" y="50" width="20" height="20" rx="2" fill="#B6174B"/>
<rect x="625" y="50" width="20" height="20" rx="2" fill="#B6174B"/>
<rect x="525" y="75" width="20" height="20" rx="2" fill="#41A5B4"/>
<rect x="550" y="75" width="20" height="20" rx="2" fill="#41A5B4"/>
<rect x="575" y="75" width="20" height="20" rx="2" fill="#41A5B4"/>
<rect x="600" y="75" width="20" height="20" rx="2" fill="#41A5B4"/>
<rect x="625" y="75" width="20" height="20" rx="2" fill="#41A5B4"/>
<rect x="525" y="100" width="20" height="20" rx="2" fill="#41A5B4"/>
<rect x="550" y="100" width="20" height="20" rx="2" fill="#41A5B4"/>
<rect x="575" y="100" width="20" height="20" rx="2" fill="#41A5B4"/>
<rect x="600" y="100" width="20" height="20" rx="2" fill="#41A5B4"/>
<rect x="625" y="100" width="20" height="20" rx="2" fill="#41A5B4"/>
<rect x="525" y="125" width="20" height="20" rx="2" fill="#4B034F"/>
<rect x="550" y="125" width="20" height="20" rx="2" fill="#4B034F"/>
<rect x="575" y="125" width="20" height="20" rx="2" fill="#4B034F"/>
<rect x="600" y="125" width="20" height="20" rx="2" fill="#4B034F"/>
<rect x="625" y="125" width="20" height="20" rx="2" fill="#4B034F"/>
<rect x="525" y="150" width="20" height="20" rx="2" fill="#4B034F"/>
<rect x="550" y="150" width="20" height="20" rx="2" fill="#4B034F"/>
<rect x="575" y="150" width="20" height="20" rx="2" fill="#4B034F"/>
<rect x="600" y="150" width="20" height="20" rx="2" fill="#4B034F"/>
<rect x="625" y="150" width="20" height="20" rx="2" fill="#4B034F"/>
<rect x="525" y="175" width="20" height="20" rx="2" fill="#4B034F"/>
<rect x="550" y="175" width="20" height="20" rx="2" fill="#4B034F"/>
<rect x="575" y="175" width="20" height="20" rx="2" fill="#4B034F"/>
<rect x="600" y="175" width="20" height="20" rx="2" fill="#4B034F"/>
<rect x="625" y="175" width="20" height="20" rx="2" fill="#4B034F"/>
<rect x="525" y="200" width="20" height="20" rx="2" fill="#FAA080"/>
<rect x="550" y="200" width="20" height="20" rx="2" fill="#FAA080"/>
<rect x="575" y="200" width="20" height="20" rx="2" fill="#FAA080"/>
<rect x="600" y="200" width="20" height="20" rx="2" fill="#FAA080"/>
<rect x="625" y="200" width="20" height="20" rx="2" fill="#FAA080"/>
<rect x="525" y="225" width="20" height="20" rx="2" fill="#FAA080"/>
<rect x="550" y="225" width="20" height="20" rx="2" fill="#FAA080"/>
<rect x="575" y="225" width="20" height="20" rx="2" fill="#FAA080"/>
<rect x="600" y="225" width="20" height="20" rx="2" fill="#FAA080"/>
<rect x="625" y="225" width="20" height="20" rx="2" fill="#FAA080"/>
<rect x="525" y="250" width="20" height="20" rx="2" fill="#1D5556"/>
<rect x="550" y="250" width="20" height="20" rx="2" fill="#1D5556"/>
<rect x="575" y="250" width="20" height="20" rx="2" fill="#1D5556"/>
<rect x="600" y="250" width="20" height="20" rx="2" fill="#1D5556"/>
<rect x="625" y="250" width="20" height="20" rx="2" fill="#1D5556"/>
<rect x="525" y="275" width="20" height="20" rx="2" fill="#1D5556"/>
<rect x="550" y="275" width="20" height="20" rx="2" fill="#1D5556"/>
<rect x="575" y="275" width="20" height="20" rx="2" fill="#1D5556"/>
<rect x="600" y="275" width="20" height="20" rx="2" fill="#1D5556"/>
<rect x="625" y="275" width="20" height="20" rx="2" fill="#1D5556"/>
<rect x="525" y="300" width="20" height="20" rx="2" fill="#1D5556"/>
<rect x="550" y="300" width="20" height="20" rx="2" fill="#1D5556"/>
<rect x="575" y="300" width="20" height="20" rx="2" fill="#1D5556"/>
<rect x="600" y="300" width="20" height="20" rx="2" fill="#1D5556"/>
<rect x="625" y="300" width="20" height="20" rx="2" fill="#1D5556"/>
<rect x="525" y="325" width="20" height="20" rx="2" fill="#1D5556"/>
<rect x="550" y="325" width="20" height="20" rx="2" fill="#1D5556"/>
<rect x="575" y="325" width="20" height="20" rx="2" fill="#1D5556"/>
<rect x="600" y="325" width="20" height="20" rx="2" fill="#1D5556"/>
<rect x="625" y="325" width="20" height="20" rx="2" fill="#1D5556"/>
</svg>
