<svg width="1020" height="18" viewBox="0 0 1020 18" fill="none" xmlns="http://www.w3.org/2000/svg">
<rect y="1" width="13" height="13" rx="2" fill="#1D5556"/>
<path d="M32.2 14H24.34V0.659999H26V12.52H32.2V14ZM41.6136 12.78C40.7469 13.7533 39.5936 14.24 38.1536 14.24C36.7136 14.24 35.5536 13.7533 34.6736 12.78C33.8069 11.8067 33.3736 10.6 33.3736 9.16C33.3736 7.72 33.8069 6.52 34.6736 5.56C35.5536 4.58667 36.7136 4.1 38.1536 4.1C39.5936 4.1 40.7469 4.58667 41.6136 5.56C42.4936 6.52 42.9336 7.72 42.9336 9.16C42.9336 10.6 42.4936 11.8067 41.6136 12.78ZM35.8136 11.82C36.3869 12.54 37.1669 12.9 38.1536 12.9C39.1403 12.9 39.9203 12.54 40.4936 11.82C41.0669 11.0867 41.3536 10.2 41.3536 9.16C41.3536 8.12 41.0669 7.24 40.4936 6.52C39.9203 5.8 39.1403 5.44 38.1536 5.44C37.1669 5.44 36.3869 5.8 35.8136 6.52C35.2403 7.24 34.9536 8.12 34.9536 9.16C34.9536 10.2 35.2403 11.0867 35.8136 11.82ZM46.8789 14H45.3789V4.34H46.8789V5.88C47.7989 4.70667 48.8722 4.12 50.0989 4.12V5.66C49.8589 5.63333 49.6656 5.62 49.5189 5.62C49.0522 5.62 48.5522 5.78 48.0189 6.1C47.4856 6.40667 47.1056 6.76 46.8789 7.16V14ZM56.3605 14.24C54.9071 14.24 53.7205 13.7733 52.8005 12.84C51.8805 11.8933 51.4205 10.6667 51.4205 9.16C51.4205 7.74667 51.8738 6.55333 52.7805 5.58C53.6871 4.59333 54.8205 4.1 56.1805 4.1C57.6071 4.1 58.7338 4.59333 59.5605 5.58C60.4005 6.55333 60.8205 7.78667 60.8205 9.28V9.66H53.0205C53.0871 10.6067 53.4271 11.4 54.0405 12.04C54.6671 12.68 55.4805 13 56.4805 13C57.6805 13 58.6805 12.5867 59.4805 11.76L60.2005 12.74C59.1738 13.74 57.8938 14.24 56.3605 14.24ZM59.3405 8.54C59.3271 7.72667 59.0471 6.99333 58.5005 6.34C57.9538 5.67333 57.1738 5.34 56.1605 5.34C55.2005 5.34 54.4405 5.66667 53.8805 6.32C53.3338 6.97333 53.0405 7.71333 53.0005 8.54H59.3405ZM76.41 14H74.91V7.44C74.91 6.10667 74.3167 5.44 73.13 5.44C72.65 5.44 72.17 5.58667 71.69 5.88C71.21 6.16 70.8367 6.50667 70.57 6.92V14H69.07V7.44C69.07 6.10667 68.4767 5.44 67.29 5.44C66.8233 5.44 66.35 5.58667 65.87 5.88C65.4033 6.17333 65.03 6.52667 64.75 6.94V14H63.25V4.34H64.75V5.74C65.0033 5.35333 65.4233 4.98667 66.01 4.64C66.61 4.28 67.2367 4.1 67.89 4.1C68.5833 4.1 69.15 4.26667 69.59 4.6C70.03 4.93333 70.3233 5.36667 70.47 5.9C70.7633 5.42 71.21 5 71.81 4.64C72.41 4.28 73.0433 4.1 73.71 4.1C75.51 4.1 76.41 5.07333 76.41 7.02V14ZM86.0381 2.68C85.8515 2.86667 85.6181 2.96 85.3381 2.96C85.0581 2.96 84.8181 2.86667 84.6181 2.68C84.4181 2.48 84.3181 2.24 84.3181 1.96C84.3181 1.68 84.4181 1.44 84.6181 1.24C84.8181 1.04 85.0581 0.939999 85.3381 0.939999C85.6181 0.939999 85.8515 1.04 86.0381 1.24C86.2381 1.44 86.3381 1.68 86.3381 1.96C86.3381 2.24 86.2381 2.48 86.0381 2.68ZM86.0781 14H84.5781V4.34H86.0781V14ZM93.8303 14.24C92.5103 14.24 91.4236 13.6733 90.5703 12.54V17.68H89.0703V4.34H90.5703V5.78C90.9303 5.27333 91.397 4.86667 91.9703 4.56C92.5436 4.25333 93.1636 4.1 93.8303 4.1C95.1103 4.1 96.1436 4.56 96.9303 5.48C97.7303 6.38667 98.1303 7.61333 98.1303 9.16C98.1303 10.7067 97.7303 11.94 96.9303 12.86C96.1436 13.78 95.1103 14.24 93.8303 14.24ZM93.4503 12.9C94.397 12.9 95.1503 12.5533 95.7103 11.86C96.2703 11.1533 96.5503 10.2533 96.5503 9.16C96.5503 8.06667 96.2703 7.17333 95.7103 6.48C95.1503 5.78667 94.397 5.44 93.4503 5.44C92.877 5.44 92.317 5.59333 91.7703 5.9C91.237 6.19333 90.837 6.55333 90.5703 6.98V11.34C90.837 11.78 91.237 12.1533 91.7703 12.46C92.317 12.7533 92.877 12.9 93.4503 12.9ZM103.596 14.24C101.969 14.24 100.669 13.7333 99.6956 12.72L100.456 11.64C100.789 12.0267 101.242 12.3533 101.816 12.62C102.402 12.8867 103.009 13.02 103.636 13.02C104.356 13.02 104.916 12.8667 105.316 12.56C105.729 12.2533 105.936 11.8533 105.936 11.36C105.936 10.9333 105.729 10.6 105.316 10.36C104.902 10.1067 104.402 9.92 103.816 9.8C103.229 9.66667 102.642 9.52 102.056 9.36C101.482 9.18667 100.989 8.9 100.576 8.5C100.162 8.08667 99.9556 7.54667 99.9556 6.88C99.9556 6.09333 100.276 5.43333 100.916 4.9C101.556 4.36667 102.429 4.1 103.536 4.1C105.016 4.1 106.209 4.56667 107.116 5.5L106.416 6.54C105.736 5.72667 104.776 5.32 103.536 5.32C102.882 5.32 102.362 5.46667 101.976 5.76C101.589 6.04 101.396 6.4 101.396 6.84C101.396 7.16 101.542 7.42667 101.836 7.64C102.129 7.85333 102.496 8.00667 102.936 8.1C103.389 8.19333 103.869 8.31333 104.376 8.46C104.896 8.60667 105.376 8.77333 105.816 8.96C106.269 9.13333 106.642 9.42667 106.936 9.84C107.229 10.24 107.376 10.7333 107.376 11.32C107.376 12.1733 107.042 12.8733 106.376 13.42C105.722 13.9667 104.796 14.24 103.596 14.24ZM117.833 14H116.333V12.64C115.933 13.0933 115.426 13.4733 114.813 13.78C114.213 14.0867 113.573 14.24 112.893 14.24C110.839 14.24 109.813 13.2133 109.813 11.16V4.34H111.313V10.7C111.313 11.5 111.499 12.0667 111.873 12.4C112.246 12.7333 112.786 12.9 113.493 12.9C114.053 12.9 114.593 12.76 115.113 12.48C115.633 12.2 116.039 11.8533 116.333 11.44V4.34H117.833V14ZM133.988 14H132.488V7.44C132.488 6.10667 131.895 5.44 130.708 5.44C130.228 5.44 129.748 5.58667 129.268 5.88C128.788 6.16 128.415 6.50667 128.148 6.92V14H126.648V7.44C126.648 6.10667 126.055 5.44 124.868 5.44C124.401 5.44 123.928 5.58667 123.448 5.88C122.981 6.17333 122.608 6.52667 122.328 6.94V14H120.828V4.34H122.328V5.74C122.581 5.35333 123.001 4.98667 123.588 4.64C124.188 4.28 124.815 4.1 125.468 4.1C126.161 4.1 126.728 4.26667 127.168 4.6C127.608 4.93333 127.901 5.36667 128.048 5.9C128.341 5.42 128.788 5 129.388 4.64C129.988 4.28 130.621 4.1 131.288 4.1C133.088 4.1 133.988 5.07333 133.988 7.02V14ZM150.656 14H149.156V12.56C148.33 13.68 147.243 14.24 145.896 14.24C144.616 14.24 143.576 13.7867 142.776 12.88C141.99 11.96 141.596 10.7267 141.596 9.18C141.596 7.64667 141.996 6.42 142.796 5.5C143.596 4.56667 144.63 4.1 145.896 4.1C147.23 4.1 148.316 4.66667 149.156 5.8V0.659999H150.656V14ZM146.276 12.9C146.85 12.9 147.403 12.7533 147.936 12.46C148.483 12.1533 148.89 11.7867 149.156 11.36V7C148.89 6.56 148.483 6.19333 147.936 5.9C147.403 5.59333 146.85 5.44 146.276 5.44C145.316 5.44 144.556 5.79333 143.996 6.5C143.436 7.19333 143.156 8.08667 143.156 9.18C143.156 10.2733 143.436 11.1667 143.996 11.86C144.556 12.5533 145.316 12.9 146.276 12.9ZM161.34 12.78C160.473 13.7533 159.32 14.24 157.88 14.24C156.44 14.24 155.28 13.7533 154.4 12.78C153.533 11.8067 153.1 10.6 153.1 9.16C153.1 7.72 153.533 6.52 154.4 5.56C155.28 4.58667 156.44 4.1 157.88 4.1C159.32 4.1 160.473 4.58667 161.34 5.56C162.22 6.52 162.66 7.72 162.66 9.16C162.66 10.6 162.22 11.8067 161.34 12.78ZM155.54 11.82C156.113 12.54 156.893 12.9 157.88 12.9C158.867 12.9 159.647 12.54 160.22 11.82C160.793 11.0867 161.08 10.2 161.08 9.16C161.08 8.12 160.793 7.24 160.22 6.52C159.647 5.8 158.867 5.44 157.88 5.44C156.893 5.44 156.113 5.8 155.54 6.52C154.967 7.24 154.68 8.12 154.68 9.16C154.68 10.2 154.967 11.0867 155.54 11.82ZM167.245 14.24C166.539 14.24 166.005 14.0467 165.645 13.66C165.285 13.2733 165.105 12.7133 165.105 11.98V0.659999H166.605V11.66C166.605 12.0333 166.685 12.3333 166.845 12.56C167.019 12.7867 167.265 12.9 167.585 12.9C168.025 12.9 168.359 12.76 168.585 12.48L169.045 13.62C168.592 14.0333 167.992 14.24 167.245 14.24ZM178.157 12.78C177.29 13.7533 176.137 14.24 174.697 14.24C173.257 14.24 172.097 13.7533 171.217 12.78C170.35 11.8067 169.917 10.6 169.917 9.16C169.917 7.72 170.35 6.52 171.217 5.56C172.097 4.58667 173.257 4.1 174.697 4.1C176.137 4.1 177.29 4.58667 178.157 5.56C179.037 6.52 179.477 7.72 179.477 9.16C179.477 10.6 179.037 11.8067 178.157 12.78ZM172.357 11.82C172.93 12.54 173.71 12.9 174.697 12.9C175.683 12.9 176.463 12.54 177.037 11.82C177.61 11.0867 177.897 10.2 177.897 9.16C177.897 8.12 177.61 7.24 177.037 6.52C176.463 5.8 175.683 5.44 174.697 5.44C173.71 5.44 172.93 5.8 172.357 6.52C171.783 7.24 171.497 8.12 171.497 9.16C171.497 10.2 171.783 11.0867 172.357 11.82ZM183.422 14H181.922V4.34H183.422V5.88C184.342 4.70667 185.415 4.12 186.642 4.12V5.66C186.402 5.63333 186.209 5.62 186.062 5.62C185.595 5.62 185.095 5.78 184.562 6.1C184.029 6.40667 183.649 6.76 183.422 7.16V14Z" fill="#1A1A1A"/>
<rect x="208" y="1" width="13" height="13" rx="2" fill="#FAAA8D"/>
<path d="M240.2 14H232.34V0.659999H234V12.52H240.2V14ZM249.614 12.78C248.747 13.7533 247.594 14.24 246.154 14.24C244.714 14.24 243.554 13.7533 242.674 12.78C241.807 11.8067 241.374 10.6 241.374 9.16C241.374 7.72 241.807 6.52 242.674 5.56C243.554 4.58667 244.714 4.1 246.154 4.1C247.594 4.1 248.747 4.58667 249.614 5.56C250.494 6.52 250.934 7.72 250.934 9.16C250.934 10.6 250.494 11.8067 249.614 12.78ZM243.814 11.82C244.387 12.54 245.167 12.9 246.154 12.9C247.14 12.9 247.92 12.54 248.494 11.82C249.067 11.0867 249.354 10.2 249.354 9.16C249.354 8.12 249.067 7.24 248.494 6.52C247.92 5.8 247.14 5.44 246.154 5.44C245.167 5.44 244.387 5.8 243.814 6.52C243.24 7.24 242.954 8.12 242.954 9.16C242.954 10.2 243.24 11.0867 243.814 11.82ZM254.879 14H253.379V4.34H254.879V5.88C255.799 4.70667 256.872 4.12 258.099 4.12V5.66C257.859 5.63333 257.666 5.62 257.519 5.62C257.052 5.62 256.552 5.78 256.019 6.1C255.486 6.40667 255.106 6.76 254.879 7.16V14ZM264.36 14.24C262.907 14.24 261.72 13.7733 260.8 12.84C259.88 11.8933 259.42 10.6667 259.42 9.16C259.42 7.74667 259.874 6.55333 260.78 5.58C261.687 4.59333 262.82 4.1 264.18 4.1C265.607 4.1 266.734 4.59333 267.56 5.58C268.4 6.55333 268.82 7.78667 268.82 9.28V9.66H261.02C261.087 10.6067 261.427 11.4 262.04 12.04C262.667 12.68 263.48 13 264.48 13C265.68 13 266.68 12.5867 267.48 11.76L268.2 12.74C267.174 13.74 265.894 14.24 264.36 14.24ZM267.34 8.54C267.327 7.72667 267.047 6.99333 266.5 6.34C265.954 5.67333 265.174 5.34 264.16 5.34C263.2 5.34 262.44 5.66667 261.88 6.32C261.334 6.97333 261.04 7.71333 261 8.54H267.34ZM284.41 14H282.91V7.44C282.91 6.10667 282.317 5.44 281.13 5.44C280.65 5.44 280.17 5.58667 279.69 5.88C279.21 6.16 278.837 6.50667 278.57 6.92V14H277.07V7.44C277.07 6.10667 276.477 5.44 275.29 5.44C274.823 5.44 274.35 5.58667 273.87 5.88C273.403 6.17333 273.03 6.52667 272.75 6.94V14H271.25V4.34H272.75V5.74C273.003 5.35333 273.423 4.98667 274.01 4.64C274.61 4.28 275.237 4.1 275.89 4.1C276.583 4.1 277.15 4.26667 277.59 4.6C278.03 4.93333 278.323 5.36667 278.47 5.9C278.763 5.42 279.21 5 279.81 4.64C280.41 4.28 281.043 4.1 281.71 4.1C283.51 4.1 284.41 5.07333 284.41 7.02V14ZM294.038 2.68C293.851 2.86667 293.618 2.96 293.338 2.96C293.058 2.96 292.818 2.86667 292.618 2.68C292.418 2.48 292.318 2.24 292.318 1.96C292.318 1.68 292.418 1.44 292.618 1.24C292.818 1.04 293.058 0.939999 293.338 0.939999C293.618 0.939999 293.851 1.04 294.038 1.24C294.238 1.44 294.338 1.68 294.338 1.96C294.338 2.24 294.238 2.48 294.038 2.68ZM294.078 14H292.578V4.34H294.078V14ZM301.83 14.24C300.51 14.24 299.424 13.6733 298.57 12.54V17.68H297.07V4.34H298.57V5.78C298.93 5.27333 299.397 4.86667 299.97 4.56C300.544 4.25333 301.164 4.1 301.83 4.1C303.11 4.1 304.144 4.56 304.93 5.48C305.73 6.38667 306.13 7.61333 306.13 9.16C306.13 10.7067 305.73 11.94 304.93 12.86C304.144 13.78 303.11 14.24 301.83 14.24ZM301.45 12.9C302.397 12.9 303.15 12.5533 303.71 11.86C304.27 11.1533 304.55 10.2533 304.55 9.16C304.55 8.06667 304.27 7.17333 303.71 6.48C303.15 5.78667 302.397 5.44 301.45 5.44C300.877 5.44 300.317 5.59333 299.77 5.9C299.237 6.19333 298.837 6.55333 298.57 6.98V11.34C298.837 11.78 299.237 12.1533 299.77 12.46C300.317 12.7533 300.877 12.9 301.45 12.9ZM311.596 14.24C309.969 14.24 308.669 13.7333 307.696 12.72L308.456 11.64C308.789 12.0267 309.242 12.3533 309.816 12.62C310.402 12.8867 311.009 13.02 311.636 13.02C312.356 13.02 312.916 12.8667 313.316 12.56C313.729 12.2533 313.936 11.8533 313.936 11.36C313.936 10.9333 313.729 10.6 313.316 10.36C312.902 10.1067 312.402 9.92 311.816 9.8C311.229 9.66667 310.642 9.52 310.056 9.36C309.482 9.18667 308.989 8.9 308.576 8.5C308.162 8.08667 307.956 7.54667 307.956 6.88C307.956 6.09333 308.276 5.43333 308.916 4.9C309.556 4.36667 310.429 4.1 311.536 4.1C313.016 4.1 314.209 4.56667 315.116 5.5L314.416 6.54C313.736 5.72667 312.776 5.32 311.536 5.32C310.882 5.32 310.362 5.46667 309.976 5.76C309.589 6.04 309.396 6.4 309.396 6.84C309.396 7.16 309.542 7.42667 309.836 7.64C310.129 7.85333 310.496 8.00667 310.936 8.1C311.389 8.19333 311.869 8.31333 312.376 8.46C312.896 8.60667 313.376 8.77333 313.816 8.96C314.269 9.13333 314.642 9.42667 314.936 9.84C315.229 10.24 315.376 10.7333 315.376 11.32C315.376 12.1733 315.042 12.8733 314.376 13.42C313.722 13.9667 312.796 14.24 311.596 14.24ZM325.833 14H324.333V12.64C323.933 13.0933 323.426 13.4733 322.813 13.78C322.213 14.0867 321.573 14.24 320.893 14.24C318.839 14.24 317.813 13.2133 317.813 11.16V4.34H319.313V10.7C319.313 11.5 319.499 12.0667 319.873 12.4C320.246 12.7333 320.786 12.9 321.493 12.9C322.053 12.9 322.593 12.76 323.113 12.48C323.633 12.2 324.039 11.8533 324.333 11.44V4.34H325.833V14ZM341.988 14H340.488V7.44C340.488 6.10667 339.895 5.44 338.708 5.44C338.228 5.44 337.748 5.58667 337.268 5.88C336.788 6.16 336.415 6.50667 336.148 6.92V14H334.648V7.44C334.648 6.10667 334.055 5.44 332.868 5.44C332.401 5.44 331.928 5.58667 331.448 5.88C330.981 6.17333 330.608 6.52667 330.328 6.94V14H328.828V4.34H330.328V5.74C330.581 5.35333 331.001 4.98667 331.588 4.64C332.188 4.28 332.815 4.1 333.468 4.1C334.161 4.1 334.728 4.26667 335.168 4.6C335.608 4.93333 335.901 5.36667 336.048 5.9C336.341 5.42 336.788 5 337.388 4.64C337.988 4.28 338.621 4.1 339.288 4.1C341.088 4.1 341.988 5.07333 341.988 7.02V14ZM358.656 14H357.156V12.56C356.33 13.68 355.243 14.24 353.896 14.24C352.616 14.24 351.576 13.7867 350.776 12.88C349.99 11.96 349.596 10.7267 349.596 9.18C349.596 7.64667 349.996 6.42 350.796 5.5C351.596 4.56667 352.63 4.1 353.896 4.1C355.23 4.1 356.316 4.66667 357.156 5.8V0.659999H358.656V14ZM354.276 12.9C354.85 12.9 355.403 12.7533 355.936 12.46C356.483 12.1533 356.89 11.7867 357.156 11.36V7C356.89 6.56 356.483 6.19333 355.936 5.9C355.403 5.59333 354.85 5.44 354.276 5.44C353.316 5.44 352.556 5.79333 351.996 6.5C351.436 7.19333 351.156 8.08667 351.156 9.18C351.156 10.2733 351.436 11.1667 351.996 11.86C352.556 12.5533 353.316 12.9 354.276 12.9ZM369.34 12.78C368.473 13.7533 367.32 14.24 365.88 14.24C364.44 14.24 363.28 13.7533 362.4 12.78C361.533 11.8067 361.1 10.6 361.1 9.16C361.1 7.72 361.533 6.52 362.4 5.56C363.28 4.58667 364.44 4.1 365.88 4.1C367.32 4.1 368.473 4.58667 369.34 5.56C370.22 6.52 370.66 7.72 370.66 9.16C370.66 10.6 370.22 11.8067 369.34 12.78ZM363.54 11.82C364.113 12.54 364.893 12.9 365.88 12.9C366.867 12.9 367.647 12.54 368.22 11.82C368.793 11.0867 369.08 10.2 369.08 9.16C369.08 8.12 368.793 7.24 368.22 6.52C367.647 5.8 366.867 5.44 365.88 5.44C364.893 5.44 364.113 5.8 363.54 6.52C362.967 7.24 362.68 8.12 362.68 9.16C362.68 10.2 362.967 11.0867 363.54 11.82ZM375.245 14.24C374.539 14.24 374.005 14.0467 373.645 13.66C373.285 13.2733 373.105 12.7133 373.105 11.98V0.659999H374.605V11.66C374.605 12.0333 374.685 12.3333 374.845 12.56C375.019 12.7867 375.265 12.9 375.585 12.9C376.025 12.9 376.359 12.76 376.585 12.48L377.045 13.62C376.592 14.0333 375.992 14.24 375.245 14.24ZM386.157 12.78C385.29 13.7533 384.137 14.24 382.697 14.24C381.257 14.24 380.097 13.7533 379.217 12.78C378.35 11.8067 377.917 10.6 377.917 9.16C377.917 7.72 378.35 6.52 379.217 5.56C380.097 4.58667 381.257 4.1 382.697 4.1C384.137 4.1 385.29 4.58667 386.157 5.56C387.037 6.52 387.477 7.72 387.477 9.16C387.477 10.6 387.037 11.8067 386.157 12.78ZM380.357 11.82C380.93 12.54 381.71 12.9 382.697 12.9C383.683 12.9 384.463 12.54 385.037 11.82C385.61 11.0867 385.897 10.2 385.897 9.16C385.897 8.12 385.61 7.24 385.037 6.52C384.463 5.8 383.683 5.44 382.697 5.44C381.71 5.44 380.93 5.8 380.357 6.52C379.783 7.24 379.497 8.12 379.497 9.16C379.497 10.2 379.783 11.0867 380.357 11.82ZM391.422 14H389.922V4.34H391.422V5.88C392.342 4.70667 393.415 4.12 394.642 4.12V5.66C394.402 5.63333 394.209 5.62 394.062 5.62C393.595 5.62 393.095 5.78 392.562 6.1C392.029 6.40667 391.649 6.76 391.422 7.16V14Z" fill="#1A1A1A"/>
<rect x="416" y="1" width="13" height="13" rx="2" fill="#B6174B"/>
<path d="M448.2 14H440.34V0.659999H442V12.52H448.2V14ZM457.614 12.78C456.747 13.7533 455.594 14.24 454.154 14.24C452.714 14.24 451.554 13.7533 450.674 12.78C449.807 11.8067 449.374 10.6 449.374 9.16C449.374 7.72 449.807 6.52 450.674 5.56C451.554 4.58667 452.714 4.1 454.154 4.1C455.594 4.1 456.747 4.58667 457.614 5.56C458.494 6.52 458.934 7.72 458.934 9.16C458.934 10.6 458.494 11.8067 457.614 12.78ZM451.814 11.82C452.387 12.54 453.167 12.9 454.154 12.9C455.14 12.9 455.92 12.54 456.494 11.82C457.067 11.0867 457.354 10.2 457.354 9.16C457.354 8.12 457.067 7.24 456.494 6.52C455.92 5.8 455.14 5.44 454.154 5.44C453.167 5.44 452.387 5.8 451.814 6.52C451.24 7.24 450.954 8.12 450.954 9.16C450.954 10.2 451.24 11.0867 451.814 11.82ZM462.879 14H461.379V4.34H462.879V5.88C463.799 4.70667 464.872 4.12 466.099 4.12V5.66C465.859 5.63333 465.666 5.62 465.519 5.62C465.052 5.62 464.552 5.78 464.019 6.1C463.486 6.40667 463.106 6.76 462.879 7.16V14ZM472.36 14.24C470.907 14.24 469.72 13.7733 468.8 12.84C467.88 11.8933 467.42 10.6667 467.42 9.16C467.42 7.74667 467.874 6.55333 468.78 5.58C469.687 4.59333 470.82 4.1 472.18 4.1C473.607 4.1 474.734 4.59333 475.56 5.58C476.4 6.55333 476.82 7.78667 476.82 9.28V9.66H469.02C469.087 10.6067 469.427 11.4 470.04 12.04C470.667 12.68 471.48 13 472.48 13C473.68 13 474.68 12.5867 475.48 11.76L476.2 12.74C475.174 13.74 473.894 14.24 472.36 14.24ZM475.34 8.54C475.327 7.72667 475.047 6.99333 474.5 6.34C473.954 5.67333 473.174 5.34 472.16 5.34C471.2 5.34 470.44 5.66667 469.88 6.32C469.334 6.97333 469.04 7.71333 469 8.54H475.34ZM492.41 14H490.91V7.44C490.91 6.10667 490.317 5.44 489.13 5.44C488.65 5.44 488.17 5.58667 487.69 5.88C487.21 6.16 486.837 6.50667 486.57 6.92V14H485.07V7.44C485.07 6.10667 484.477 5.44 483.29 5.44C482.823 5.44 482.35 5.58667 481.87 5.88C481.403 6.17333 481.03 6.52667 480.75 6.94V14H479.25V4.34H480.75V5.74C481.003 5.35333 481.423 4.98667 482.01 4.64C482.61 4.28 483.237 4.1 483.89 4.1C484.583 4.1 485.15 4.26667 485.59 4.6C486.03 4.93333 486.323 5.36667 486.47 5.9C486.763 5.42 487.21 5 487.81 4.64C488.41 4.28 489.043 4.1 489.71 4.1C491.51 4.1 492.41 5.07333 492.41 7.02V14ZM502.038 2.68C501.851 2.86667 501.618 2.96 501.338 2.96C501.058 2.96 500.818 2.86667 500.618 2.68C500.418 2.48 500.318 2.24 500.318 1.96C500.318 1.68 500.418 1.44 500.618 1.24C500.818 1.04 501.058 0.939999 501.338 0.939999C501.618 0.939999 501.851 1.04 502.038 1.24C502.238 1.44 502.338 1.68 502.338 1.96C502.338 2.24 502.238 2.48 502.038 2.68ZM502.078 14H500.578V4.34H502.078V14ZM509.83 14.24C508.51 14.24 507.424 13.6733 506.57 12.54V17.68H505.07V4.34H506.57V5.78C506.93 5.27333 507.397 4.86667 507.97 4.56C508.544 4.25333 509.164 4.1 509.83 4.1C511.11 4.1 512.144 4.56 512.93 5.48C513.73 6.38667 514.13 7.61333 514.13 9.16C514.13 10.7067 513.73 11.94 512.93 12.86C512.144 13.78 511.11 14.24 509.83 14.24ZM509.45 12.9C510.397 12.9 511.15 12.5533 511.71 11.86C512.27 11.1533 512.55 10.2533 512.55 9.16C512.55 8.06667 512.27 7.17333 511.71 6.48C511.15 5.78667 510.397 5.44 509.45 5.44C508.877 5.44 508.317 5.59333 507.77 5.9C507.237 6.19333 506.837 6.55333 506.57 6.98V11.34C506.837 11.78 507.237 12.1533 507.77 12.46C508.317 12.7533 508.877 12.9 509.45 12.9ZM519.596 14.24C517.969 14.24 516.669 13.7333 515.696 12.72L516.456 11.64C516.789 12.0267 517.242 12.3533 517.816 12.62C518.402 12.8867 519.009 13.02 519.636 13.02C520.356 13.02 520.916 12.8667 521.316 12.56C521.729 12.2533 521.936 11.8533 521.936 11.36C521.936 10.9333 521.729 10.6 521.316 10.36C520.902 10.1067 520.402 9.92 519.816 9.8C519.229 9.66667 518.642 9.52 518.056 9.36C517.482 9.18667 516.989 8.9 516.576 8.5C516.162 8.08667 515.956 7.54667 515.956 6.88C515.956 6.09333 516.276 5.43333 516.916 4.9C517.556 4.36667 518.429 4.1 519.536 4.1C521.016 4.1 522.209 4.56667 523.116 5.5L522.416 6.54C521.736 5.72667 520.776 5.32 519.536 5.32C518.882 5.32 518.362 5.46667 517.976 5.76C517.589 6.04 517.396 6.4 517.396 6.84C517.396 7.16 517.542 7.42667 517.836 7.64C518.129 7.85333 518.496 8.00667 518.936 8.1C519.389 8.19333 519.869 8.31333 520.376 8.46C520.896 8.60667 521.376 8.77333 521.816 8.96C522.269 9.13333 522.642 9.42667 522.936 9.84C523.229 10.24 523.376 10.7333 523.376 11.32C523.376 12.1733 523.042 12.8733 522.376 13.42C521.722 13.9667 520.796 14.24 519.596 14.24ZM533.833 14H532.333V12.64C531.933 13.0933 531.426 13.4733 530.813 13.78C530.213 14.0867 529.573 14.24 528.893 14.24C526.839 14.24 525.813 13.2133 525.813 11.16V4.34H527.313V10.7C527.313 11.5 527.499 12.0667 527.873 12.4C528.246 12.7333 528.786 12.9 529.493 12.9C530.053 12.9 530.593 12.76 531.113 12.48C531.633 12.2 532.039 11.8533 532.333 11.44V4.34H533.833V14ZM549.988 14H548.488V7.44C548.488 6.10667 547.895 5.44 546.708 5.44C546.228 5.44 545.748 5.58667 545.268 5.88C544.788 6.16 544.415 6.50667 544.148 6.92V14H542.648V7.44C542.648 6.10667 542.055 5.44 540.868 5.44C540.401 5.44 539.928 5.58667 539.448 5.88C538.981 6.17333 538.608 6.52667 538.328 6.94V14H536.828V4.34H538.328V5.74C538.581 5.35333 539.001 4.98667 539.588 4.64C540.188 4.28 540.815 4.1 541.468 4.1C542.161 4.1 542.728 4.26667 543.168 4.6C543.608 4.93333 543.901 5.36667 544.048 5.9C544.341 5.42 544.788 5 545.388 4.64C545.988 4.28 546.621 4.1 547.288 4.1C549.088 4.1 549.988 5.07333 549.988 7.02V14ZM566.656 14H565.156V12.56C564.33 13.68 563.243 14.24 561.896 14.24C560.616 14.24 559.576 13.7867 558.776 12.88C557.99 11.96 557.596 10.7267 557.596 9.18C557.596 7.64667 557.996 6.42 558.796 5.5C559.596 4.56667 560.63 4.1 561.896 4.1C563.23 4.1 564.316 4.66667 565.156 5.8V0.659999H566.656V14ZM562.276 12.9C562.85 12.9 563.403 12.7533 563.936 12.46C564.483 12.1533 564.89 11.7867 565.156 11.36V7C564.89 6.56 564.483 6.19333 563.936 5.9C563.403 5.59333 562.85 5.44 562.276 5.44C561.316 5.44 560.556 5.79333 559.996 6.5C559.436 7.19333 559.156 8.08667 559.156 9.18C559.156 10.2733 559.436 11.1667 559.996 11.86C560.556 12.5533 561.316 12.9 562.276 12.9ZM577.34 12.78C576.473 13.7533 575.32 14.24 573.88 14.24C572.44 14.24 571.28 13.7533 570.4 12.78C569.533 11.8067 569.1 10.6 569.1 9.16C569.1 7.72 569.533 6.52 570.4 5.56C571.28 4.58667 572.44 4.1 573.88 4.1C575.32 4.1 576.473 4.58667 577.34 5.56C578.22 6.52 578.66 7.72 578.66 9.16C578.66 10.6 578.22 11.8067 577.34 12.78ZM571.54 11.82C572.113 12.54 572.893 12.9 573.88 12.9C574.867 12.9 575.647 12.54 576.22 11.82C576.793 11.0867 577.08 10.2 577.08 9.16C577.08 8.12 576.793 7.24 576.22 6.52C575.647 5.8 574.867 5.44 573.88 5.44C572.893 5.44 572.113 5.8 571.54 6.52C570.967 7.24 570.68 8.12 570.68 9.16C570.68 10.2 570.967 11.0867 571.54 11.82ZM583.245 14.24C582.539 14.24 582.005 14.0467 581.645 13.66C581.285 13.2733 581.105 12.7133 581.105 11.98V0.659999H582.605V11.66C582.605 12.0333 582.685 12.3333 582.845 12.56C583.019 12.7867 583.265 12.9 583.585 12.9C584.025 12.9 584.359 12.76 584.585 12.48L585.045 13.62C584.592 14.0333 583.992 14.24 583.245 14.24ZM594.157 12.78C593.29 13.7533 592.137 14.24 590.697 14.24C589.257 14.24 588.097 13.7533 587.217 12.78C586.35 11.8067 585.917 10.6 585.917 9.16C585.917 7.72 586.35 6.52 587.217 5.56C588.097 4.58667 589.257 4.1 590.697 4.1C592.137 4.1 593.29 4.58667 594.157 5.56C595.037 6.52 595.477 7.72 595.477 9.16C595.477 10.6 595.037 11.8067 594.157 12.78ZM588.357 11.82C588.93 12.54 589.71 12.9 590.697 12.9C591.683 12.9 592.463 12.54 593.037 11.82C593.61 11.0867 593.897 10.2 593.897 9.16C593.897 8.12 593.61 7.24 593.037 6.52C592.463 5.8 591.683 5.44 590.697 5.44C589.71 5.44 588.93 5.8 588.357 6.52C587.783 7.24 587.497 8.12 587.497 9.16C587.497 10.2 587.783 11.0867 588.357 11.82ZM599.422 14H597.922V4.34H599.422V5.88C600.342 4.70667 601.415 4.12 602.642 4.12V5.66C602.402 5.63333 602.209 5.62 602.062 5.62C601.595 5.62 601.095 5.78 600.562 6.1C600.029 6.40667 599.649 6.76 599.422 7.16V14Z" fill="#1A1A1A"/>
<rect x="624" y="1" width="13" height="13" rx="2" fill="#4B034F"/>
<path d="M656.2 14H648.34V0.659999H650V12.52H656.2V14ZM665.614 12.78C664.747 13.7533 663.594 14.24 662.154 14.24C660.714 14.24 659.554 13.7533 658.674 12.78C657.807 11.8067 657.374 10.6 657.374 9.16C657.374 7.72 657.807 6.52 658.674 5.56C659.554 4.58667 660.714 4.1 662.154 4.1C663.594 4.1 664.747 4.58667 665.614 5.56C666.494 6.52 666.934 7.72 666.934 9.16C666.934 10.6 666.494 11.8067 665.614 12.78ZM659.814 11.82C660.387 12.54 661.167 12.9 662.154 12.9C663.14 12.9 663.92 12.54 664.494 11.82C665.067 11.0867 665.354 10.2 665.354 9.16C665.354 8.12 665.067 7.24 664.494 6.52C663.92 5.8 663.14 5.44 662.154 5.44C661.167 5.44 660.387 5.8 659.814 6.52C659.24 7.24 658.954 8.12 658.954 9.16C658.954 10.2 659.24 11.0867 659.814 11.82ZM670.879 14H669.379V4.34H670.879V5.88C671.799 4.70667 672.872 4.12 674.099 4.12V5.66C673.859 5.63333 673.666 5.62 673.519 5.62C673.052 5.62 672.552 5.78 672.019 6.1C671.486 6.40667 671.106 6.76 670.879 7.16V14ZM680.36 14.24C678.907 14.24 677.72 13.7733 676.8 12.84C675.88 11.8933 675.42 10.6667 675.42 9.16C675.42 7.74667 675.874 6.55333 676.78 5.58C677.687 4.59333 678.82 4.1 680.18 4.1C681.607 4.1 682.734 4.59333 683.56 5.58C684.4 6.55333 684.82 7.78667 684.82 9.28V9.66H677.02C677.087 10.6067 677.427 11.4 678.04 12.04C678.667 12.68 679.48 13 680.48 13C681.68 13 682.68 12.5867 683.48 11.76L684.2 12.74C683.174 13.74 681.894 14.24 680.36 14.24ZM683.34 8.54C683.327 7.72667 683.047 6.99333 682.5 6.34C681.954 5.67333 681.174 5.34 680.16 5.34C679.2 5.34 678.44 5.66667 677.88 6.32C677.334 6.97333 677.04 7.71333 677 8.54H683.34ZM700.41 14H698.91V7.44C698.91 6.10667 698.317 5.44 697.13 5.44C696.65 5.44 696.17 5.58667 695.69 5.88C695.21 6.16 694.837 6.50667 694.57 6.92V14H693.07V7.44C693.07 6.10667 692.477 5.44 691.29 5.44C690.823 5.44 690.35 5.58667 689.87 5.88C689.403 6.17333 689.03 6.52667 688.75 6.94V14H687.25V4.34H688.75V5.74C689.003 5.35333 689.423 4.98667 690.01 4.64C690.61 4.28 691.237 4.1 691.89 4.1C692.583 4.1 693.15 4.26667 693.59 4.6C694.03 4.93333 694.323 5.36667 694.47 5.9C694.763 5.42 695.21 5 695.81 4.64C696.41 4.28 697.043 4.1 697.71 4.1C699.51 4.1 700.41 5.07333 700.41 7.02V14ZM710.038 2.68C709.851 2.86667 709.618 2.96 709.338 2.96C709.058 2.96 708.818 2.86667 708.618 2.68C708.418 2.48 708.318 2.24 708.318 1.96C708.318 1.68 708.418 1.44 708.618 1.24C708.818 1.04 709.058 0.939999 709.338 0.939999C709.618 0.939999 709.851 1.04 710.038 1.24C710.238 1.44 710.338 1.68 710.338 1.96C710.338 2.24 710.238 2.48 710.038 2.68ZM710.078 14H708.578V4.34H710.078V14ZM717.83 14.24C716.51 14.24 715.424 13.6733 714.57 12.54V17.68H713.07V4.34H714.57V5.78C714.93 5.27333 715.397 4.86667 715.97 4.56C716.544 4.25333 717.164 4.1 717.83 4.1C719.11 4.1 720.144 4.56 720.93 5.48C721.73 6.38667 722.13 7.61333 722.13 9.16C722.13 10.7067 721.73 11.94 720.93 12.86C720.144 13.78 719.11 14.24 717.83 14.24ZM717.45 12.9C718.397 12.9 719.15 12.5533 719.71 11.86C720.27 11.1533 720.55 10.2533 720.55 9.16C720.55 8.06667 720.27 7.17333 719.71 6.48C719.15 5.78667 718.397 5.44 717.45 5.44C716.877 5.44 716.317 5.59333 715.77 5.9C715.237 6.19333 714.837 6.55333 714.57 6.98V11.34C714.837 11.78 715.237 12.1533 715.77 12.46C716.317 12.7533 716.877 12.9 717.45 12.9ZM727.596 14.24C725.969 14.24 724.669 13.7333 723.696 12.72L724.456 11.64C724.789 12.0267 725.242 12.3533 725.816 12.62C726.402 12.8867 727.009 13.02 727.636 13.02C728.356 13.02 728.916 12.8667 729.316 12.56C729.729 12.2533 729.936 11.8533 729.936 11.36C729.936 10.9333 729.729 10.6 729.316 10.36C728.902 10.1067 728.402 9.92 727.816 9.8C727.229 9.66667 726.642 9.52 726.056 9.36C725.482 9.18667 724.989 8.9 724.576 8.5C724.162 8.08667 723.956 7.54667 723.956 6.88C723.956 6.09333 724.276 5.43333 724.916 4.9C725.556 4.36667 726.429 4.1 727.536 4.1C729.016 4.1 730.209 4.56667 731.116 5.5L730.416 6.54C729.736 5.72667 728.776 5.32 727.536 5.32C726.882 5.32 726.362 5.46667 725.976 5.76C725.589 6.04 725.396 6.4 725.396 6.84C725.396 7.16 725.542 7.42667 725.836 7.64C726.129 7.85333 726.496 8.00667 726.936 8.1C727.389 8.19333 727.869 8.31333 728.376 8.46C728.896 8.60667 729.376 8.77333 729.816 8.96C730.269 9.13333 730.642 9.42667 730.936 9.84C731.229 10.24 731.376 10.7333 731.376 11.32C731.376 12.1733 731.042 12.8733 730.376 13.42C729.722 13.9667 728.796 14.24 727.596 14.24ZM741.833 14H740.333V12.64C739.933 13.0933 739.426 13.4733 738.813 13.78C738.213 14.0867 737.573 14.24 736.893 14.24C734.839 14.24 733.813 13.2133 733.813 11.16V4.34H735.313V10.7C735.313 11.5 735.499 12.0667 735.873 12.4C736.246 12.7333 736.786 12.9 737.493 12.9C738.053 12.9 738.593 12.76 739.113 12.48C739.633 12.2 740.039 11.8533 740.333 11.44V4.34H741.833V14ZM757.988 14H756.488V7.44C756.488 6.10667 755.895 5.44 754.708 5.44C754.228 5.44 753.748 5.58667 753.268 5.88C752.788 6.16 752.415 6.50667 752.148 6.92V14H750.648V7.44C750.648 6.10667 750.055 5.44 748.868 5.44C748.401 5.44 747.928 5.58667 747.448 5.88C746.981 6.17333 746.608 6.52667 746.328 6.94V14H744.828V4.34H746.328V5.74C746.581 5.35333 747.001 4.98667 747.588 4.64C748.188 4.28 748.815 4.1 749.468 4.1C750.161 4.1 750.728 4.26667 751.168 4.6C751.608 4.93333 751.901 5.36667 752.048 5.9C752.341 5.42 752.788 5 753.388 4.64C753.988 4.28 754.621 4.1 755.288 4.1C757.088 4.1 757.988 5.07333 757.988 7.02V14ZM774.656 14H773.156V12.56C772.33 13.68 771.243 14.24 769.896 14.24C768.616 14.24 767.576 13.7867 766.776 12.88C765.99 11.96 765.596 10.7267 765.596 9.18C765.596 7.64667 765.996 6.42 766.796 5.5C767.596 4.56667 768.63 4.1 769.896 4.1C771.23 4.1 772.316 4.66667 773.156 5.8V0.659999H774.656V14ZM770.276 12.9C770.85 12.9 771.403 12.7533 771.936 12.46C772.483 12.1533 772.89 11.7867 773.156 11.36V7C772.89 6.56 772.483 6.19333 771.936 5.9C771.403 5.59333 770.85 5.44 770.276 5.44C769.316 5.44 768.556 5.79333 767.996 6.5C767.436 7.19333 767.156 8.08667 767.156 9.18C767.156 10.2733 767.436 11.1667 767.996 11.86C768.556 12.5533 769.316 12.9 770.276 12.9ZM785.34 12.78C784.473 13.7533 783.32 14.24 781.88 14.24C780.44 14.24 779.28 13.7533 778.4 12.78C777.533 11.8067 777.1 10.6 777.1 9.16C777.1 7.72 777.533 6.52 778.4 5.56C779.28 4.58667 780.44 4.1 781.88 4.1C783.32 4.1 784.473 4.58667 785.34 5.56C786.22 6.52 786.66 7.72 786.66 9.16C786.66 10.6 786.22 11.8067 785.34 12.78ZM779.54 11.82C780.113 12.54 780.893 12.9 781.88 12.9C782.867 12.9 783.647 12.54 784.22 11.82C784.793 11.0867 785.08 10.2 785.08 9.16C785.08 8.12 784.793 7.24 784.22 6.52C783.647 5.8 782.867 5.44 781.88 5.44C780.893 5.44 780.113 5.8 779.54 6.52C778.967 7.24 778.68 8.12 778.68 9.16C778.68 10.2 778.967 11.0867 779.54 11.82ZM791.245 14.24C790.539 14.24 790.005 14.0467 789.645 13.66C789.285 13.2733 789.105 12.7133 789.105 11.98V0.659999H790.605V11.66C790.605 12.0333 790.685 12.3333 790.845 12.56C791.019 12.7867 791.265 12.9 791.585 12.9C792.025 12.9 792.359 12.76 792.585 12.48L793.045 13.62C792.592 14.0333 791.992 14.24 791.245 14.24ZM802.157 12.78C801.29 13.7533 800.137 14.24 798.697 14.24C797.257 14.24 796.097 13.7533 795.217 12.78C794.35 11.8067 793.917 10.6 793.917 9.16C793.917 7.72 794.35 6.52 795.217 5.56C796.097 4.58667 797.257 4.1 798.697 4.1C800.137 4.1 801.29 4.58667 802.157 5.56C803.037 6.52 803.477 7.72 803.477 9.16C803.477 10.6 803.037 11.8067 802.157 12.78ZM796.357 11.82C796.93 12.54 797.71 12.9 798.697 12.9C799.683 12.9 800.463 12.54 801.037 11.82C801.61 11.0867 801.897 10.2 801.897 9.16C801.897 8.12 801.61 7.24 801.037 6.52C800.463 5.8 799.683 5.44 798.697 5.44C797.71 5.44 796.93 5.8 796.357 6.52C795.783 7.24 795.497 8.12 795.497 9.16C795.497 10.2 795.783 11.0867 796.357 11.82ZM807.422 14H805.922V4.34H807.422V5.88C808.342 4.70667 809.415 4.12 810.642 4.12V5.66C810.402 5.63333 810.209 5.62 810.062 5.62C809.595 5.62 809.095 5.78 808.562 6.1C808.029 6.40667 807.649 6.76 807.422 7.16V14Z" fill="#1A1A1A"/>
<rect x="832" y="1" width="13" height="13" rx="2" fill="#41A5B4"/>
<path d="M864.2 14H856.34V0.659999H858V12.52H864.2V14ZM873.614 12.78C872.747 13.7533 871.594 14.24 870.154 14.24C868.714 14.24 867.554 13.7533 866.674 12.78C865.807 11.8067 865.374 10.6 865.374 9.16C865.374 7.72 865.807 6.52 866.674 5.56C867.554 4.58667 868.714 4.1 870.154 4.1C871.594 4.1 872.747 4.58667 873.614 5.56C874.494 6.52 874.934 7.72 874.934 9.16C874.934 10.6 874.494 11.8067 873.614 12.78ZM867.814 11.82C868.387 12.54 869.167 12.9 870.154 12.9C871.14 12.9 871.92 12.54 872.494 11.82C873.067 11.0867 873.354 10.2 873.354 9.16C873.354 8.12 873.067 7.24 872.494 6.52C871.92 5.8 871.14 5.44 870.154 5.44C869.167 5.44 868.387 5.8 867.814 6.52C867.24 7.24 866.954 8.12 866.954 9.16C866.954 10.2 867.24 11.0867 867.814 11.82ZM878.879 14H877.379V4.34H878.879V5.88C879.799 4.70667 880.872 4.12 882.099 4.12V5.66C881.859 5.63333 881.666 5.62 881.519 5.62C881.052 5.62 880.552 5.78 880.019 6.1C879.486 6.40667 879.106 6.76 878.879 7.16V14ZM888.36 14.24C886.907 14.24 885.72 13.7733 884.8 12.84C883.88 11.8933 883.42 10.6667 883.42 9.16C883.42 7.74667 883.874 6.55333 884.78 5.58C885.687 4.59333 886.82 4.1 888.18 4.1C889.607 4.1 890.734 4.59333 891.56 5.58C892.4 6.55333 892.82 7.78667 892.82 9.28V9.66H885.02C885.087 10.6067 885.427 11.4 886.04 12.04C886.667 12.68 887.48 13 888.48 13C889.68 13 890.68 12.5867 891.48 11.76L892.2 12.74C891.174 13.74 889.894 14.24 888.36 14.24ZM891.34 8.54C891.327 7.72667 891.047 6.99333 890.5 6.34C889.954 5.67333 889.174 5.34 888.16 5.34C887.2 5.34 886.44 5.66667 885.88 6.32C885.334 6.97333 885.04 7.71333 885 8.54H891.34ZM908.41 14H906.91V7.44C906.91 6.10667 906.317 5.44 905.13 5.44C904.65 5.44 904.17 5.58667 903.69 5.88C903.21 6.16 902.837 6.50667 902.57 6.92V14H901.07V7.44C901.07 6.10667 900.477 5.44 899.29 5.44C898.823 5.44 898.35 5.58667 897.87 5.88C897.403 6.17333 897.03 6.52667 896.75 6.94V14H895.25V4.34H896.75V5.74C897.003 5.35333 897.423 4.98667 898.01 4.64C898.61 4.28 899.237 4.1 899.89 4.1C900.583 4.1 901.15 4.26667 901.59 4.6C902.03 4.93333 902.323 5.36667 902.47 5.9C902.763 5.42 903.21 5 903.81 4.64C904.41 4.28 905.043 4.1 905.71 4.1C907.51 4.1 908.41 5.07333 908.41 7.02V14ZM918.038 2.68C917.851 2.86667 917.618 2.96 917.338 2.96C917.058 2.96 916.818 2.86667 916.618 2.68C916.418 2.48 916.318 2.24 916.318 1.96C916.318 1.68 916.418 1.44 916.618 1.24C916.818 1.04 917.058 0.939999 917.338 0.939999C917.618 0.939999 917.851 1.04 918.038 1.24C918.238 1.44 918.338 1.68 918.338 1.96C918.338 2.24 918.238 2.48 918.038 2.68ZM918.078 14H916.578V4.34H918.078V14ZM925.83 14.24C924.51 14.24 923.424 13.6733 922.57 12.54V17.68H921.07V4.34H922.57V5.78C922.93 5.27333 923.397 4.86667 923.97 4.56C924.544 4.25333 925.164 4.1 925.83 4.1C927.11 4.1 928.144 4.56 928.93 5.48C929.73 6.38667 930.13 7.61333 930.13 9.16C930.13 10.7067 929.73 11.94 928.93 12.86C928.144 13.78 927.11 14.24 925.83 14.24ZM925.45 12.9C926.397 12.9 927.15 12.5533 927.71 11.86C928.27 11.1533 928.55 10.2533 928.55 9.16C928.55 8.06667 928.27 7.17333 927.71 6.48C927.15 5.78667 926.397 5.44 925.45 5.44C924.877 5.44 924.317 5.59333 923.77 5.9C923.237 6.19333 922.837 6.55333 922.57 6.98V11.34C922.837 11.78 923.237 12.1533 923.77 12.46C924.317 12.7533 924.877 12.9 925.45 12.9ZM935.596 14.24C933.969 14.24 932.669 13.7333 931.696 12.72L932.456 11.64C932.789 12.0267 933.242 12.3533 933.816 12.62C934.402 12.8867 935.009 13.02 935.636 13.02C936.356 13.02 936.916 12.8667 937.316 12.56C937.729 12.2533 937.936 11.8533 937.936 11.36C937.936 10.9333 937.729 10.6 937.316 10.36C936.902 10.1067 936.402 9.92 935.816 9.8C935.229 9.66667 934.642 9.52 934.056 9.36C933.482 9.18667 932.989 8.9 932.576 8.5C932.162 8.08667 931.956 7.54667 931.956 6.88C931.956 6.09333 932.276 5.43333 932.916 4.9C933.556 4.36667 934.429 4.1 935.536 4.1C937.016 4.1 938.209 4.56667 939.116 5.5L938.416 6.54C937.736 5.72667 936.776 5.32 935.536 5.32C934.882 5.32 934.362 5.46667 933.976 5.76C933.589 6.04 933.396 6.4 933.396 6.84C933.396 7.16 933.542 7.42667 933.836 7.64C934.129 7.85333 934.496 8.00667 934.936 8.1C935.389 8.19333 935.869 8.31333 936.376 8.46C936.896 8.60667 937.376 8.77333 937.816 8.96C938.269 9.13333 938.642 9.42667 938.936 9.84C939.229 10.24 939.376 10.7333 939.376 11.32C939.376 12.1733 939.042 12.8733 938.376 13.42C937.722 13.9667 936.796 14.24 935.596 14.24ZM949.833 14H948.333V12.64C947.933 13.0933 947.426 13.4733 946.813 13.78C946.213 14.0867 945.573 14.24 944.893 14.24C942.839 14.24 941.813 13.2133 941.813 11.16V4.34H943.313V10.7C943.313 11.5 943.499 12.0667 943.873 12.4C944.246 12.7333 944.786 12.9 945.493 12.9C946.053 12.9 946.593 12.76 947.113 12.48C947.633 12.2 948.039 11.8533 948.333 11.44V4.34H949.833V14ZM965.988 14H964.488V7.44C964.488 6.10667 963.895 5.44 962.708 5.44C962.228 5.44 961.748 5.58667 961.268 5.88C960.788 6.16 960.415 6.50667 960.148 6.92V14H958.648V7.44C958.648 6.10667 958.055 5.44 956.868 5.44C956.401 5.44 955.928 5.58667 955.448 5.88C954.981 6.17333 954.608 6.52667 954.328 6.94V14H952.828V4.34H954.328V5.74C954.581 5.35333 955.001 4.98667 955.588 4.64C956.188 4.28 956.815 4.1 957.468 4.1C958.161 4.1 958.728 4.26667 959.168 4.6C959.608 4.93333 959.901 5.36667 960.048 5.9C960.341 5.42 960.788 5 961.388 4.64C961.988 4.28 962.621 4.1 963.288 4.1C965.088 4.1 965.988 5.07333 965.988 7.02V14ZM982.656 14H981.156V12.56C980.33 13.68 979.243 14.24 977.896 14.24C976.616 14.24 975.576 13.7867 974.776 12.88C973.99 11.96 973.596 10.7267 973.596 9.18C973.596 7.64667 973.996 6.42 974.796 5.5C975.596 4.56667 976.63 4.1 977.896 4.1C979.23 4.1 980.316 4.66667 981.156 5.8V0.659999H982.656V14ZM978.276 12.9C978.85 12.9 979.403 12.7533 979.936 12.46C980.483 12.1533 980.89 11.7867 981.156 11.36V7C980.89 6.56 980.483 6.19333 979.936 5.9C979.403 5.59333 978.85 5.44 978.276 5.44C977.316 5.44 976.556 5.79333 975.996 6.5C975.436 7.19333 975.156 8.08667 975.156 9.18C975.156 10.2733 975.436 11.1667 975.996 11.86C976.556 12.5533 977.316 12.9 978.276 12.9ZM993.34 12.78C992.473 13.7533 991.32 14.24 989.88 14.24C988.44 14.24 987.28 13.7533 986.4 12.78C985.533 11.8067 985.1 10.6 985.1 9.16C985.1 7.72 985.533 6.52 986.4 5.56C987.28 4.58667 988.44 4.1 989.88 4.1C991.32 4.1 992.473 4.58667 993.34 5.56C994.22 6.52 994.66 7.72 994.66 9.16C994.66 10.6 994.22 11.8067 993.34 12.78ZM987.54 11.82C988.113 12.54 988.893 12.9 989.88 12.9C990.867 12.9 991.647 12.54 992.22 11.82C992.793 11.0867 993.08 10.2 993.08 9.16C993.08 8.12 992.793 7.24 992.22 6.52C991.647 5.8 990.867 5.44 989.88 5.44C988.893 5.44 988.113 5.8 987.54 6.52C986.967 7.24 986.68 8.12 986.68 9.16C986.68 10.2 986.967 11.0867 987.54 11.82ZM999.245 14.24C998.539 14.24 998.005 14.0467 997.645 13.66C997.285 13.2733 997.105 12.7133 997.105 11.98V0.659999H998.605V11.66C998.605 12.0333 998.685 12.3333 998.845 12.56C999.019 12.7867 999.265 12.9 999.585 12.9C1000.03 12.9 1000.36 12.76 1000.59 12.48L1001.05 13.62C1000.59 14.0333 999.992 14.24 999.245 14.24ZM1010.16 12.78C1009.29 13.7533 1008.14 14.24 1006.7 14.24C1005.26 14.24 1004.1 13.7533 1003.22 12.78C1002.35 11.8067 1001.92 10.6 1001.92 9.16C1001.92 7.72 1002.35 6.52 1003.22 5.56C1004.1 4.58667 1005.26 4.1 1006.7 4.1C1008.14 4.1 1009.29 4.58667 1010.16 5.56C1011.04 6.52 1011.48 7.72 1011.48 9.16C1011.48 10.6 1011.04 11.8067 1010.16 12.78ZM1004.36 11.82C1004.93 12.54 1005.71 12.9 1006.7 12.9C1007.68 12.9 1008.46 12.54 1009.04 11.82C1009.61 11.0867 1009.9 10.2 1009.9 9.16C1009.9 8.12 1009.61 7.24 1009.04 6.52C1008.46 5.8 1007.68 5.44 1006.7 5.44C1005.71 5.44 1004.93 5.8 1004.36 6.52C1003.78 7.24 1003.5 8.12 1003.5 9.16C1003.5 10.2 1003.78 11.0867 1004.36 11.82ZM1015.42 14H1013.92V4.34H1015.42V5.88C1016.34 4.70667 1017.42 4.12 1018.64 4.12V5.66C1018.4 5.63333 1018.21 5.62 1018.06 5.62C1017.6 5.62 1017.1 5.78 1016.56 6.1C1016.03 6.40667 1015.65 6.76 1015.42 7.16V14Z" fill="#1A1A1A"/>
</svg>
