<svg width="604" height="18" viewBox="0 0 604 18" fill="none" xmlns="http://www.w3.org/2000/svg">
<rect y="1" width="13" height="13" rx="2" fill="#1D5556"/>
<path d="M32.2 14H24.34V0.659999H26V12.52H32.2V14ZM41.6136 12.78C40.7469 13.7533 39.5936 14.24 38.1536 14.24C36.7136 14.24 35.5536 13.7533 34.6736 12.78C33.8069 11.8067 33.3736 10.6 33.3736 9.16C33.3736 7.72 33.8069 6.52 34.6736 5.56C35.5536 4.58667 36.7136 4.1 38.1536 4.1C39.5936 4.1 40.7469 4.58667 41.6136 5.56C42.4936 6.52 42.9336 7.72 42.9336 9.16C42.9336 10.6 42.4936 11.8067 41.6136 12.78ZM35.8136 11.82C36.3869 12.54 37.1669 12.9 38.1536 12.9C39.1403 12.9 39.9203 12.54 40.4936 11.82C41.0669 11.0867 41.3536 10.2 41.3536 9.16C41.3536 8.12 41.0669 7.24 40.4936 6.52C39.9203 5.8 39.1403 5.44 38.1536 5.44C37.1669 5.44 36.3869 5.8 35.8136 6.52C35.2403 7.24 34.9536 8.12 34.9536 9.16C34.9536 10.2 35.2403 11.0867 35.8136 11.82ZM46.8789 14H45.3789V4.34H46.8789V5.88C47.7989 4.70667 48.8722 4.12 50.0989 4.12V5.66C49.8589 5.63333 49.6656 5.62 49.5189 5.62C49.0522 5.62 48.5522 5.78 48.0189 6.1C47.4856 6.40667 47.1056 6.76 46.8789 7.16V14ZM56.3605 14.24C54.9071 14.24 53.7205 13.7733 52.8005 12.84C51.8805 11.8933 51.4205 10.6667 51.4205 9.16C51.4205 7.74667 51.8738 6.55333 52.7805 5.58C53.6871 4.59333 54.8205 4.1 56.1805 4.1C57.6071 4.1 58.7338 4.59333 59.5605 5.58C60.4005 6.55333 60.8205 7.78667 60.8205 9.28V9.66H53.0205C53.0871 10.6067 53.4271 11.4 54.0405 12.04C54.6671 12.68 55.4805 13 56.4805 13C57.6805 13 58.6805 12.5867 59.4805 11.76L60.2005 12.74C59.1738 13.74 57.8938 14.24 56.3605 14.24ZM59.3405 8.54C59.3271 7.72667 59.0471 6.99333 58.5005 6.34C57.9538 5.67333 57.1738 5.34 56.1605 5.34C55.2005 5.34 54.4405 5.66667 53.8805 6.32C53.3338 6.97333 53.0405 7.71333 53.0005 8.54H59.3405ZM76.41 14H74.91V7.44C74.91 6.10667 74.3167 5.44 73.13 5.44C72.65 5.44 72.17 5.58667 71.69 5.88C71.21 6.16 70.8367 6.50667 70.57 6.92V14H69.07V7.44C69.07 6.10667 68.4767 5.44 67.29 5.44C66.8233 5.44 66.35 5.58667 65.87 5.88C65.4033 6.17333 65.03 6.52667 64.75 6.94V14H63.25V4.34H64.75V5.74C65.0033 5.35333 65.4233 4.98667 66.01 4.64C66.61 4.28 67.2367 4.1 67.89 4.1C68.5833 4.1 69.15 4.26667 69.59 4.6C70.03 4.93333 70.3233 5.36667 70.47 5.9C70.7633 5.42 71.21 5 71.81 4.64C72.41 4.28 73.0433 4.1 73.71 4.1C75.51 4.1 76.41 5.07333 76.41 7.02V14ZM86.0381 2.68C85.8515 2.86667 85.6181 2.96 85.3381 2.96C85.0581 2.96 84.8181 2.86667 84.6181 2.68C84.4181 2.48 84.3181 2.24 84.3181 1.96C84.3181 1.68 84.4181 1.44 84.6181 1.24C84.8181 1.04 85.0581 0.939999 85.3381 0.939999C85.6181 0.939999 85.8515 1.04 86.0381 1.24C86.2381 1.44 86.3381 1.68 86.3381 1.96C86.3381 2.24 86.2381 2.48 86.0381 2.68ZM86.0781 14H84.5781V4.34H86.0781V14ZM93.8303 14.24C92.5103 14.24 91.4236 13.6733 90.5703 12.54V17.68H89.0703V4.34H90.5703V5.78C90.9303 5.27333 91.397 4.86667 91.9703 4.56C92.5436 4.25333 93.1636 4.1 93.8303 4.1C95.1103 4.1 96.1436 4.56 96.9303 5.48C97.7303 6.38667 98.1303 7.61333 98.1303 9.16C98.1303 10.7067 97.7303 11.94 96.9303 12.86C96.1436 13.78 95.1103 14.24 93.8303 14.24ZM93.4503 12.9C94.397 12.9 95.1503 12.5533 95.7103 11.86C96.2703 11.1533 96.5503 10.2533 96.5503 9.16C96.5503 8.06667 96.2703 7.17333 95.7103 6.48C95.1503 5.78667 94.397 5.44 93.4503 5.44C92.877 5.44 92.317 5.59333 91.7703 5.9C91.237 6.19333 90.837 6.55333 90.5703 6.98V11.34C90.837 11.78 91.237 12.1533 91.7703 12.46C92.317 12.7533 92.877 12.9 93.4503 12.9ZM103.596 14.24C101.969 14.24 100.669 13.7333 99.6956 12.72L100.456 11.64C100.789 12.0267 101.242 12.3533 101.816 12.62C102.402 12.8867 103.009 13.02 103.636 13.02C104.356 13.02 104.916 12.8667 105.316 12.56C105.729 12.2533 105.936 11.8533 105.936 11.36C105.936 10.9333 105.729 10.6 105.316 10.36C104.902 10.1067 104.402 9.92 103.816 9.8C103.229 9.66667 102.642 9.52 102.056 9.36C101.482 9.18667 100.989 8.9 100.576 8.5C100.162 8.08667 99.9556 7.54667 99.9556 6.88C99.9556 6.09333 100.276 5.43333 100.916 4.9C101.556 4.36667 102.429 4.1 103.536 4.1C105.016 4.1 106.209 4.56667 107.116 5.5L106.416 6.54C105.736 5.72667 104.776 5.32 103.536 5.32C102.882 5.32 102.362 5.46667 101.976 5.76C101.589 6.04 101.396 6.4 101.396 6.84C101.396 7.16 101.542 7.42667 101.836 7.64C102.129 7.85333 102.496 8.00667 102.936 8.1C103.389 8.19333 103.869 8.31333 104.376 8.46C104.896 8.60667 105.376 8.77333 105.816 8.96C106.269 9.13333 106.642 9.42667 106.936 9.84C107.229 10.24 107.376 10.7333 107.376 11.32C107.376 12.1733 107.042 12.8733 106.376 13.42C105.722 13.9667 104.796 14.24 103.596 14.24ZM117.833 14H116.333V12.64C115.933 13.0933 115.426 13.4733 114.813 13.78C114.213 14.0867 113.573 14.24 112.893 14.24C110.839 14.24 109.813 13.2133 109.813 11.16V4.34H111.313V10.7C111.313 11.5 111.499 12.0667 111.873 12.4C112.246 12.7333 112.786 12.9 113.493 12.9C114.053 12.9 114.593 12.76 115.113 12.48C115.633 12.2 116.039 11.8533 116.333 11.44V4.34H117.833V14ZM133.988 14H132.488V7.44C132.488 6.10667 131.895 5.44 130.708 5.44C130.228 5.44 129.748 5.58667 129.268 5.88C128.788 6.16 128.415 6.50667 128.148 6.92V14H126.648V7.44C126.648 6.10667 126.055 5.44 124.868 5.44C124.401 5.44 123.928 5.58667 123.448 5.88C122.981 6.17333 122.608 6.52667 122.328 6.94V14H120.828V4.34H122.328V5.74C122.581 5.35333 123.001 4.98667 123.588 4.64C124.188 4.28 124.815 4.1 125.468 4.1C126.161 4.1 126.728 4.26667 127.168 4.6C127.608 4.93333 127.901 5.36667 128.048 5.9C128.341 5.42 128.788 5 129.388 4.64C129.988 4.28 130.621 4.1 131.288 4.1C133.088 4.1 133.988 5.07333 133.988 7.02V14ZM150.656 14H149.156V12.56C148.33 13.68 147.243 14.24 145.896 14.24C144.616 14.24 143.576 13.7867 142.776 12.88C141.99 11.96 141.596 10.7267 141.596 9.18C141.596 7.64667 141.996 6.42 142.796 5.5C143.596 4.56667 144.63 4.1 145.896 4.1C147.23 4.1 148.316 4.66667 149.156 5.8V0.659999H150.656V14ZM146.276 12.9C146.85 12.9 147.403 12.7533 147.936 12.46C148.483 12.1533 148.89 11.7867 149.156 11.36V7C148.89 6.56 148.483 6.19333 147.936 5.9C147.403 5.59333 146.85 5.44 146.276 5.44C145.316 5.44 144.556 5.79333 143.996 6.5C143.436 7.19333 143.156 8.08667 143.156 9.18C143.156 10.2733 143.436 11.1667 143.996 11.86C144.556 12.5533 145.316 12.9 146.276 12.9ZM161.34 12.78C160.473 13.7533 159.32 14.24 157.88 14.24C156.44 14.24 155.28 13.7533 154.4 12.78C153.533 11.8067 153.1 10.6 153.1 9.16C153.1 7.72 153.533 6.52 154.4 5.56C155.28 4.58667 156.44 4.1 157.88 4.1C159.32 4.1 160.473 4.58667 161.34 5.56C162.22 6.52 162.66 7.72 162.66 9.16C162.66 10.6 162.22 11.8067 161.34 12.78ZM155.54 11.82C156.113 12.54 156.893 12.9 157.88 12.9C158.867 12.9 159.647 12.54 160.22 11.82C160.793 11.0867 161.08 10.2 161.08 9.16C161.08 8.12 160.793 7.24 160.22 6.52C159.647 5.8 158.867 5.44 157.88 5.44C156.893 5.44 156.113 5.8 155.54 6.52C154.967 7.24 154.68 8.12 154.68 9.16C154.68 10.2 154.967 11.0867 155.54 11.82ZM167.245 14.24C166.539 14.24 166.005 14.0467 165.645 13.66C165.285 13.2733 165.105 12.7133 165.105 11.98V0.659999H166.605V11.66C166.605 12.0333 166.685 12.3333 166.845 12.56C167.019 12.7867 167.265 12.9 167.585 12.9C168.025 12.9 168.359 12.76 168.585 12.48L169.045 13.62C168.592 14.0333 167.992 14.24 167.245 14.24ZM178.157 12.78C177.29 13.7533 176.137 14.24 174.697 14.24C173.257 14.24 172.097 13.7533 171.217 12.78C170.35 11.8067 169.917 10.6 169.917 9.16C169.917 7.72 170.35 6.52 171.217 5.56C172.097 4.58667 173.257 4.1 174.697 4.1C176.137 4.1 177.29 4.58667 178.157 5.56C179.037 6.52 179.477 7.72 179.477 9.16C179.477 10.6 179.037 11.8067 178.157 12.78ZM172.357 11.82C172.93 12.54 173.71 12.9 174.697 12.9C175.683 12.9 176.463 12.54 177.037 11.82C177.61 11.0867 177.897 10.2 177.897 9.16C177.897 8.12 177.61 7.24 177.037 6.52C176.463 5.8 175.683 5.44 174.697 5.44C173.71 5.44 172.93 5.8 172.357 6.52C171.783 7.24 171.497 8.12 171.497 9.16C171.497 10.2 171.783 11.0867 172.357 11.82ZM183.422 14H181.922V4.34H183.422V5.88C184.342 4.70667 185.415 4.12 186.642 4.12V5.66C186.402 5.63333 186.209 5.62 186.062 5.62C185.595 5.62 185.095 5.78 184.562 6.1C184.029 6.40667 183.649 6.76 183.422 7.16V14Z" fill="#1A1A1A"/>
<rect x="208" y="1" width="13" height="13" rx="2" fill="#FAAA8D"/>
<path d="M240.2 14H232.34V0.659999H234V12.52H240.2V14ZM249.614 12.78C248.747 13.7533 247.594 14.24 246.154 14.24C244.714 14.24 243.554 13.7533 242.674 12.78C241.807 11.8067 241.374 10.6 241.374 9.16C241.374 7.72 241.807 6.52 242.674 5.56C243.554 4.58667 244.714 4.1 246.154 4.1C247.594 4.1 248.747 4.58667 249.614 5.56C250.494 6.52 250.934 7.72 250.934 9.16C250.934 10.6 250.494 11.8067 249.614 12.78ZM243.814 11.82C244.387 12.54 245.167 12.9 246.154 12.9C247.14 12.9 247.92 12.54 248.494 11.82C249.067 11.0867 249.354 10.2 249.354 9.16C249.354 8.12 249.067 7.24 248.494 6.52C247.92 5.8 247.14 5.44 246.154 5.44C245.167 5.44 244.387 5.8 243.814 6.52C243.24 7.24 242.954 8.12 242.954 9.16C242.954 10.2 243.24 11.0867 243.814 11.82ZM254.879 14H253.379V4.34H254.879V5.88C255.799 4.70667 256.872 4.12 258.099 4.12V5.66C257.859 5.63333 257.666 5.62 257.519 5.62C257.052 5.62 256.552 5.78 256.019 6.1C255.486 6.40667 255.106 6.76 254.879 7.16V14ZM264.36 14.24C262.907 14.24 261.72 13.7733 260.8 12.84C259.88 11.8933 259.42 10.6667 259.42 9.16C259.42 7.74667 259.874 6.55333 260.78 5.58C261.687 4.59333 262.82 4.1 264.18 4.1C265.607 4.1 266.734 4.59333 267.56 5.58C268.4 6.55333 268.82 7.78667 268.82 9.28V9.66H261.02C261.087 10.6067 261.427 11.4 262.04 12.04C262.667 12.68 263.48 13 264.48 13C265.68 13 266.68 12.5867 267.48 11.76L268.2 12.74C267.174 13.74 265.894 14.24 264.36 14.24ZM267.34 8.54C267.327 7.72667 267.047 6.99333 266.5 6.34C265.954 5.67333 265.174 5.34 264.16 5.34C263.2 5.34 262.44 5.66667 261.88 6.32C261.334 6.97333 261.04 7.71333 261 8.54H267.34ZM284.41 14H282.91V7.44C282.91 6.10667 282.317 5.44 281.13 5.44C280.65 5.44 280.17 5.58667 279.69 5.88C279.21 6.16 278.837 6.50667 278.57 6.92V14H277.07V7.44C277.07 6.10667 276.477 5.44 275.29 5.44C274.823 5.44 274.35 5.58667 273.87 5.88C273.403 6.17333 273.03 6.52667 272.75 6.94V14H271.25V4.34H272.75V5.74C273.003 5.35333 273.423 4.98667 274.01 4.64C274.61 4.28 275.237 4.1 275.89 4.1C276.583 4.1 277.15 4.26667 277.59 4.6C278.03 4.93333 278.323 5.36667 278.47 5.9C278.763 5.42 279.21 5 279.81 4.64C280.41 4.28 281.043 4.1 281.71 4.1C283.51 4.1 284.41 5.07333 284.41 7.02V14ZM294.038 2.68C293.851 2.86667 293.618 2.96 293.338 2.96C293.058 2.96 292.818 2.86667 292.618 2.68C292.418 2.48 292.318 2.24 292.318 1.96C292.318 1.68 292.418 1.44 292.618 1.24C292.818 1.04 293.058 0.939999 293.338 0.939999C293.618 0.939999 293.851 1.04 294.038 1.24C294.238 1.44 294.338 1.68 294.338 1.96C294.338 2.24 294.238 2.48 294.038 2.68ZM294.078 14H292.578V4.34H294.078V14ZM301.83 14.24C300.51 14.24 299.424 13.6733 298.57 12.54V17.68H297.07V4.34H298.57V5.78C298.93 5.27333 299.397 4.86667 299.97 4.56C300.544 4.25333 301.164 4.1 301.83 4.1C303.11 4.1 304.144 4.56 304.93 5.48C305.73 6.38667 306.13 7.61333 306.13 9.16C306.13 10.7067 305.73 11.94 304.93 12.86C304.144 13.78 303.11 14.24 301.83 14.24ZM301.45 12.9C302.397 12.9 303.15 12.5533 303.71 11.86C304.27 11.1533 304.55 10.2533 304.55 9.16C304.55 8.06667 304.27 7.17333 303.71 6.48C303.15 5.78667 302.397 5.44 301.45 5.44C300.877 5.44 300.317 5.59333 299.77 5.9C299.237 6.19333 298.837 6.55333 298.57 6.98V11.34C298.837 11.78 299.237 12.1533 299.77 12.46C300.317 12.7533 300.877 12.9 301.45 12.9ZM311.596 14.24C309.969 14.24 308.669 13.7333 307.696 12.72L308.456 11.64C308.789 12.0267 309.242 12.3533 309.816 12.62C310.402 12.8867 311.009 13.02 311.636 13.02C312.356 13.02 312.916 12.8667 313.316 12.56C313.729 12.2533 313.936 11.8533 313.936 11.36C313.936 10.9333 313.729 10.6 313.316 10.36C312.902 10.1067 312.402 9.92 311.816 9.8C311.229 9.66667 310.642 9.52 310.056 9.36C309.482 9.18667 308.989 8.9 308.576 8.5C308.162 8.08667 307.956 7.54667 307.956 6.88C307.956 6.09333 308.276 5.43333 308.916 4.9C309.556 4.36667 310.429 4.1 311.536 4.1C313.016 4.1 314.209 4.56667 315.116 5.5L314.416 6.54C313.736 5.72667 312.776 5.32 311.536 5.32C310.882 5.32 310.362 5.46667 309.976 5.76C309.589 6.04 309.396 6.4 309.396 6.84C309.396 7.16 309.542 7.42667 309.836 7.64C310.129 7.85333 310.496 8.00667 310.936 8.1C311.389 8.19333 311.869 8.31333 312.376 8.46C312.896 8.60667 313.376 8.77333 313.816 8.96C314.269 9.13333 314.642 9.42667 314.936 9.84C315.229 10.24 315.376 10.7333 315.376 11.32C315.376 12.1733 315.042 12.8733 314.376 13.42C313.722 13.9667 312.796 14.24 311.596 14.24ZM325.833 14H324.333V12.64C323.933 13.0933 323.426 13.4733 322.813 13.78C322.213 14.0867 321.573 14.24 320.893 14.24C318.839 14.24 317.813 13.2133 317.813 11.16V4.34H319.313V10.7C319.313 11.5 319.499 12.0667 319.873 12.4C320.246 12.7333 320.786 12.9 321.493 12.9C322.053 12.9 322.593 12.76 323.113 12.48C323.633 12.2 324.039 11.8533 324.333 11.44V4.34H325.833V14ZM341.988 14H340.488V7.44C340.488 6.10667 339.895 5.44 338.708 5.44C338.228 5.44 337.748 5.58667 337.268 5.88C336.788 6.16 336.415 6.50667 336.148 6.92V14H334.648V7.44C334.648 6.10667 334.055 5.44 332.868 5.44C332.401 5.44 331.928 5.58667 331.448 5.88C330.981 6.17333 330.608 6.52667 330.328 6.94V14H328.828V4.34H330.328V5.74C330.581 5.35333 331.001 4.98667 331.588 4.64C332.188 4.28 332.815 4.1 333.468 4.1C334.161 4.1 334.728 4.26667 335.168 4.6C335.608 4.93333 335.901 5.36667 336.048 5.9C336.341 5.42 336.788 5 337.388 4.64C337.988 4.28 338.621 4.1 339.288 4.1C341.088 4.1 341.988 5.07333 341.988 7.02V14ZM358.656 14H357.156V12.56C356.33 13.68 355.243 14.24 353.896 14.24C352.616 14.24 351.576 13.7867 350.776 12.88C349.99 11.96 349.596 10.7267 349.596 9.18C349.596 7.64667 349.996 6.42 350.796 5.5C351.596 4.56667 352.63 4.1 353.896 4.1C355.23 4.1 356.316 4.66667 357.156 5.8V0.659999H358.656V14ZM354.276 12.9C354.85 12.9 355.403 12.7533 355.936 12.46C356.483 12.1533 356.89 11.7867 357.156 11.36V7C356.89 6.56 356.483 6.19333 355.936 5.9C355.403 5.59333 354.85 5.44 354.276 5.44C353.316 5.44 352.556 5.79333 351.996 6.5C351.436 7.19333 351.156 8.08667 351.156 9.18C351.156 10.2733 351.436 11.1667 351.996 11.86C352.556 12.5533 353.316 12.9 354.276 12.9ZM369.34 12.78C368.473 13.7533 367.32 14.24 365.88 14.24C364.44 14.24 363.28 13.7533 362.4 12.78C361.533 11.8067 361.1 10.6 361.1 9.16C361.1 7.72 361.533 6.52 362.4 5.56C363.28 4.58667 364.44 4.1 365.88 4.1C367.32 4.1 368.473 4.58667 369.34 5.56C370.22 6.52 370.66 7.72 370.66 9.16C370.66 10.6 370.22 11.8067 369.34 12.78ZM363.54 11.82C364.113 12.54 364.893 12.9 365.88 12.9C366.867 12.9 367.647 12.54 368.22 11.82C368.793 11.0867 369.08 10.2 369.08 9.16C369.08 8.12 368.793 7.24 368.22 6.52C367.647 5.8 366.867 5.44 365.88 5.44C364.893 5.44 364.113 5.8 363.54 6.52C362.967 7.24 362.68 8.12 362.68 9.16C362.68 10.2 362.967 11.0867 363.54 11.82ZM375.245 14.24C374.539 14.24 374.005 14.0467 373.645 13.66C373.285 13.2733 373.105 12.7133 373.105 11.98V0.659999H374.605V11.66C374.605 12.0333 374.685 12.3333 374.845 12.56C375.019 12.7867 375.265 12.9 375.585 12.9C376.025 12.9 376.359 12.76 376.585 12.48L377.045 13.62C376.592 14.0333 375.992 14.24 375.245 14.24ZM386.157 12.78C385.29 13.7533 384.137 14.24 382.697 14.24C381.257 14.24 380.097 13.7533 379.217 12.78C378.35 11.8067 377.917 10.6 377.917 9.16C377.917 7.72 378.35 6.52 379.217 5.56C380.097 4.58667 381.257 4.1 382.697 4.1C384.137 4.1 385.29 4.58667 386.157 5.56C387.037 6.52 387.477 7.72 387.477 9.16C387.477 10.6 387.037 11.8067 386.157 12.78ZM380.357 11.82C380.93 12.54 381.71 12.9 382.697 12.9C383.683 12.9 384.463 12.54 385.037 11.82C385.61 11.0867 385.897 10.2 385.897 9.16C385.897 8.12 385.61 7.24 385.037 6.52C384.463 5.8 383.683 5.44 382.697 5.44C381.71 5.44 380.93 5.8 380.357 6.52C379.783 7.24 379.497 8.12 379.497 9.16C379.497 10.2 379.783 11.0867 380.357 11.82ZM391.422 14H389.922V4.34H391.422V5.88C392.342 4.70667 393.415 4.12 394.642 4.12V5.66C394.402 5.63333 394.209 5.62 394.062 5.62C393.595 5.62 393.095 5.78 392.562 6.1C392.029 6.40667 391.649 6.76 391.422 7.16V14Z" fill="#1A1A1A"/>
<rect x="416" y="1" width="13" height="13" rx="2" fill="#B6174B"/>
<path d="M448.2 14H440.34V0.659999H442V12.52H448.2V14ZM457.614 12.78C456.747 13.7533 455.594 14.24 454.154 14.24C452.714 14.24 451.554 13.7533 450.674 12.78C449.807 11.8067 449.374 10.6 449.374 9.16C449.374 7.72 449.807 6.52 450.674 5.56C451.554 4.58667 452.714 4.1 454.154 4.1C455.594 4.1 456.747 4.58667 457.614 5.56C458.494 6.52 458.934 7.72 458.934 9.16C458.934 10.6 458.494 11.8067 457.614 12.78ZM451.814 11.82C452.387 12.54 453.167 12.9 454.154 12.9C455.14 12.9 455.92 12.54 456.494 11.82C457.067 11.0867 457.354 10.2 457.354 9.16C457.354 8.12 457.067 7.24 456.494 6.52C455.92 5.8 455.14 5.44 454.154 5.44C453.167 5.44 452.387 5.8 451.814 6.52C451.24 7.24 450.954 8.12 450.954 9.16C450.954 10.2 451.24 11.0867 451.814 11.82ZM462.879 14H461.379V4.34H462.879V5.88C463.799 4.70667 464.872 4.12 466.099 4.12V5.66C465.859 5.63333 465.666 5.62 465.519 5.62C465.052 5.62 464.552 5.78 464.019 6.1C463.486 6.40667 463.106 6.76 462.879 7.16V14ZM472.36 14.24C470.907 14.24 469.72 13.7733 468.8 12.84C467.88 11.8933 467.42 10.6667 467.42 9.16C467.42 7.74667 467.874 6.55333 468.78 5.58C469.687 4.59333 470.82 4.1 472.18 4.1C473.607 4.1 474.734 4.59333 475.56 5.58C476.4 6.55333 476.82 7.78667 476.82 9.28V9.66H469.02C469.087 10.6067 469.427 11.4 470.04 12.04C470.667 12.68 471.48 13 472.48 13C473.68 13 474.68 12.5867 475.48 11.76L476.2 12.74C475.174 13.74 473.894 14.24 472.36 14.24ZM475.34 8.54C475.327 7.72667 475.047 6.99333 474.5 6.34C473.954 5.67333 473.174 5.34 472.16 5.34C471.2 5.34 470.44 5.66667 469.88 6.32C469.334 6.97333 469.04 7.71333 469 8.54H475.34ZM492.41 14H490.91V7.44C490.91 6.10667 490.317 5.44 489.13 5.44C488.65 5.44 488.17 5.58667 487.69 5.88C487.21 6.16 486.837 6.50667 486.57 6.92V14H485.07V7.44C485.07 6.10667 484.477 5.44 483.29 5.44C482.823 5.44 482.35 5.58667 481.87 5.88C481.403 6.17333 481.03 6.52667 480.75 6.94V14H479.25V4.34H480.75V5.74C481.003 5.35333 481.423 4.98667 482.01 4.64C482.61 4.28 483.237 4.1 483.89 4.1C484.583 4.1 485.15 4.26667 485.59 4.6C486.03 4.93333 486.323 5.36667 486.47 5.9C486.763 5.42 487.21 5 487.81 4.64C488.41 4.28 489.043 4.1 489.71 4.1C491.51 4.1 492.41 5.07333 492.41 7.02V14ZM502.038 2.68C501.851 2.86667 501.618 2.96 501.338 2.96C501.058 2.96 500.818 2.86667 500.618 2.68C500.418 2.48 500.318 2.24 500.318 1.96C500.318 1.68 500.418 1.44 500.618 1.24C500.818 1.04 501.058 0.939999 501.338 0.939999C501.618 0.939999 501.851 1.04 502.038 1.24C502.238 1.44 502.338 1.68 502.338 1.96C502.338 2.24 502.238 2.48 502.038 2.68ZM502.078 14H500.578V4.34H502.078V14ZM509.83 14.24C508.51 14.24 507.424 13.6733 506.57 12.54V17.68H505.07V4.34H506.57V5.78C506.93 5.27333 507.397 4.86667 507.97 4.56C508.544 4.25333 509.164 4.1 509.83 4.1C511.11 4.1 512.144 4.56 512.93 5.48C513.73 6.38667 514.13 7.61333 514.13 9.16C514.13 10.7067 513.73 11.94 512.93 12.86C512.144 13.78 511.11 14.24 509.83 14.24ZM509.45 12.9C510.397 12.9 511.15 12.5533 511.71 11.86C512.27 11.1533 512.55 10.2533 512.55 9.16C512.55 8.06667 512.27 7.17333 511.71 6.48C511.15 5.78667 510.397 5.44 509.45 5.44C508.877 5.44 508.317 5.59333 507.77 5.9C507.237 6.19333 506.837 6.55333 506.57 6.98V11.34C506.837 11.78 507.237 12.1533 507.77 12.46C508.317 12.7533 508.877 12.9 509.45 12.9ZM519.596 14.24C517.969 14.24 516.669 13.7333 515.696 12.72L516.456 11.64C516.789 12.0267 517.242 12.3533 517.816 12.62C518.402 12.8867 519.009 13.02 519.636 13.02C520.356 13.02 520.916 12.8667 521.316 12.56C521.729 12.2533 521.936 11.8533 521.936 11.36C521.936 10.9333 521.729 10.6 521.316 10.36C520.902 10.1067 520.402 9.92 519.816 9.8C519.229 9.66667 518.642 9.52 518.056 9.36C517.482 9.18667 516.989 8.9 516.576 8.5C516.162 8.08667 515.956 7.54667 515.956 6.88C515.956 6.09333 516.276 5.43333 516.916 4.9C517.556 4.36667 518.429 4.1 519.536 4.1C521.016 4.1 522.209 4.56667 523.116 5.5L522.416 6.54C521.736 5.72667 520.776 5.32 519.536 5.32C518.882 5.32 518.362 5.46667 517.976 5.76C517.589 6.04 517.396 6.4 517.396 6.84C517.396 7.16 517.542 7.42667 517.836 7.64C518.129 7.85333 518.496 8.00667 518.936 8.1C519.389 8.19333 519.869 8.31333 520.376 8.46C520.896 8.60667 521.376 8.77333 521.816 8.96C522.269 9.13333 522.642 9.42667 522.936 9.84C523.229 10.24 523.376 10.7333 523.376 11.32C523.376 12.1733 523.042 12.8733 522.376 13.42C521.722 13.9667 520.796 14.24 519.596 14.24ZM533.833 14H532.333V12.64C531.933 13.0933 531.426 13.4733 530.813 13.78C530.213 14.0867 529.573 14.24 528.893 14.24C526.839 14.24 525.813 13.2133 525.813 11.16V4.34H527.313V10.7C527.313 11.5 527.499 12.0667 527.873 12.4C528.246 12.7333 528.786 12.9 529.493 12.9C530.053 12.9 530.593 12.76 531.113 12.48C531.633 12.2 532.039 11.8533 532.333 11.44V4.34H533.833V14ZM549.988 14H548.488V7.44C548.488 6.10667 547.895 5.44 546.708 5.44C546.228 5.44 545.748 5.58667 545.268 5.88C544.788 6.16 544.415 6.50667 544.148 6.92V14H542.648V7.44C542.648 6.10667 542.055 5.44 540.868 5.44C540.401 5.44 539.928 5.58667 539.448 5.88C538.981 6.17333 538.608 6.52667 538.328 6.94V14H536.828V4.34H538.328V5.74C538.581 5.35333 539.001 4.98667 539.588 4.64C540.188 4.28 540.815 4.1 541.468 4.1C542.161 4.1 542.728 4.26667 543.168 4.6C543.608 4.93333 543.901 5.36667 544.048 5.9C544.341 5.42 544.788 5 545.388 4.64C545.988 4.28 546.621 4.1 547.288 4.1C549.088 4.1 549.988 5.07333 549.988 7.02V14ZM566.656 14H565.156V12.56C564.33 13.68 563.243 14.24 561.896 14.24C560.616 14.24 559.576 13.7867 558.776 12.88C557.99 11.96 557.596 10.7267 557.596 9.18C557.596 7.64667 557.996 6.42 558.796 5.5C559.596 4.56667 560.63 4.1 561.896 4.1C563.23 4.1 564.316 4.66667 565.156 5.8V0.659999H566.656V14ZM562.276 12.9C562.85 12.9 563.403 12.7533 563.936 12.46C564.483 12.1533 564.89 11.7867 565.156 11.36V7C564.89 6.56 564.483 6.19333 563.936 5.9C563.403 5.59333 562.85 5.44 562.276 5.44C561.316 5.44 560.556 5.79333 559.996 6.5C559.436 7.19333 559.156 8.08667 559.156 9.18C559.156 10.2733 559.436 11.1667 559.996 11.86C560.556 12.5533 561.316 12.9 562.276 12.9ZM577.34 12.78C576.473 13.7533 575.32 14.24 573.88 14.24C572.44 14.24 571.28 13.7533 570.4 12.78C569.533 11.8067 569.1 10.6 569.1 9.16C569.1 7.72 569.533 6.52 570.4 5.56C571.28 4.58667 572.44 4.1 573.88 4.1C575.32 4.1 576.473 4.58667 577.34 5.56C578.22 6.52 578.66 7.72 578.66 9.16C578.66 10.6 578.22 11.8067 577.34 12.78ZM571.54 11.82C572.113 12.54 572.893 12.9 573.88 12.9C574.867 12.9 575.647 12.54 576.22 11.82C576.793 11.0867 577.08 10.2 577.08 9.16C577.08 8.12 576.793 7.24 576.22 6.52C575.647 5.8 574.867 5.44 573.88 5.44C572.893 5.44 572.113 5.8 571.54 6.52C570.967 7.24 570.68 8.12 570.68 9.16C570.68 10.2 570.967 11.0867 571.54 11.82ZM583.245 14.24C582.539 14.24 582.005 14.0467 581.645 13.66C581.285 13.2733 581.105 12.7133 581.105 11.98V0.659999H582.605V11.66C582.605 12.0333 582.685 12.3333 582.845 12.56C583.019 12.7867 583.265 12.9 583.585 12.9C584.025 12.9 584.359 12.76 584.585 12.48L585.045 13.62C584.592 14.0333 583.992 14.24 583.245 14.24ZM594.157 12.78C593.29 13.7533 592.137 14.24 590.697 14.24C589.257 14.24 588.097 13.7533 587.217 12.78C586.35 11.8067 585.917 10.6 585.917 9.16C585.917 7.72 586.35 6.52 587.217 5.56C588.097 4.58667 589.257 4.1 590.697 4.1C592.137 4.1 593.29 4.58667 594.157 5.56C595.037 6.52 595.477 7.72 595.477 9.16C595.477 10.6 595.037 11.8067 594.157 12.78ZM588.357 11.82C588.93 12.54 589.71 12.9 590.697 12.9C591.683 12.9 592.463 12.54 593.037 11.82C593.61 11.0867 593.897 10.2 593.897 9.16C593.897 8.12 593.61 7.24 593.037 6.52C592.463 5.8 591.683 5.44 590.697 5.44C589.71 5.44 588.93 5.8 588.357 6.52C587.783 7.24 587.497 8.12 587.497 9.16C587.497 10.2 587.783 11.0867 588.357 11.82ZM599.422 14H597.922V4.34H599.422V5.88C600.342 4.70667 601.415 4.12 602.642 4.12V5.66C602.402 5.63333 602.209 5.62 602.062 5.62C601.595 5.62 601.095 5.78 600.562 6.1C600.029 6.40667 599.649 6.76 599.422 7.16V14Z" fill="#1A1A1A"/>
</svg>
