<svg width="1037" height="305" viewBox="0 0 1037 305" fill="none" xmlns="http://www.w3.org/2000/svg">
<path opacity="0.4" d="M1021.5 0.5V282.5H155.5V0.5H1021.5Z" stroke="#1A1A1A"/>
<path d="M657.944 304.192C657.219 304.192 656.584 304.043 656.04 303.744C655.496 303.445 655.064 303.035 654.744 302.512C654.435 301.989 654.2 301.408 654.04 300.768C653.891 300.128 653.816 299.429 653.816 298.672C653.816 297.115 654.184 295.808 654.92 294.752C655.667 293.696 656.749 293.168 658.168 293.168C659.405 293.168 660.387 293.595 661.112 294.448L660.44 295.44C659.821 294.715 659.064 294.352 658.168 294.352C657.197 294.352 656.451 294.763 655.928 295.584C655.416 296.405 655.16 297.392 655.16 298.544V298.96C655.427 298.533 655.837 298.149 656.392 297.808C656.957 297.467 657.555 297.296 658.184 297.296C659.197 297.296 660.029 297.595 660.68 298.192C661.341 298.779 661.672 299.616 661.672 300.704C661.672 301.664 661.331 302.485 660.648 303.168C659.965 303.851 659.064 304.192 657.944 304.192ZM657.88 303.008C658.648 303.008 659.245 302.773 659.672 302.304C660.109 301.835 660.328 301.317 660.328 300.752C660.328 300.005 660.099 299.435 659.64 299.04C659.181 298.645 658.595 298.448 657.88 298.448C657.357 298.448 656.856 298.597 656.376 298.896C655.896 299.184 655.507 299.563 655.208 300.032C655.272 300.821 655.523 301.515 655.96 302.112C656.397 302.709 657.037 303.008 657.88 303.008ZM667.349 304.192C666.645 304.192 666.021 304.032 665.477 303.712C664.944 303.381 664.517 302.944 664.197 302.4C663.888 301.856 663.653 301.269 663.493 300.64C663.344 300.011 663.269 299.355 663.269 298.672C663.269 297.989 663.344 297.333 663.493 296.704C663.653 296.075 663.888 295.493 664.197 294.96C664.517 294.416 664.944 293.984 665.477 293.664C666.021 293.333 666.645 293.168 667.349 293.168C668.042 293.168 668.661 293.333 669.205 293.664C669.749 293.984 670.176 294.416 670.485 294.96C670.805 295.493 671.04 296.075 671.189 296.704C671.349 297.333 671.429 297.989 671.429 298.672C671.429 299.355 671.349 300.011 671.189 300.64C671.04 301.269 670.805 301.856 670.485 302.4C670.176 302.944 669.749 303.381 669.205 303.712C668.661 304.032 668.042 304.192 667.349 304.192ZM665.749 302.352C666.176 302.789 666.709 303.008 667.349 303.008C667.989 303.008 668.522 302.789 668.949 302.352C669.376 301.904 669.669 301.371 669.829 300.752C669.989 300.133 670.069 299.44 670.069 298.672C670.069 297.904 669.989 297.211 669.829 296.592C669.669 295.973 669.376 295.445 668.949 295.008C668.522 294.571 667.989 294.352 667.349 294.352C666.709 294.352 666.176 294.571 665.749 295.008C665.322 295.445 665.029 295.973 664.869 296.592C664.709 297.211 664.629 297.904 664.629 298.672C664.629 299.44 664.709 300.133 664.869 300.752C665.029 301.371 665.322 301.904 665.749 302.352ZM677.178 297.696C676.698 298.187 676.079 298.432 675.322 298.432C674.565 298.432 673.946 298.187 673.466 297.696C672.986 297.195 672.746 296.571 672.746 295.824C672.746 295.056 672.986 294.421 673.466 293.92C673.946 293.419 674.565 293.168 675.322 293.168C676.079 293.168 676.698 293.419 677.178 293.92C677.658 294.421 677.898 295.056 677.898 295.824C677.898 296.571 677.658 297.195 677.178 297.696ZM675.178 304H674.298L681.114 293.328H682.01L675.178 304ZM682.73 303.456C682.261 303.947 681.647 304.192 680.89 304.192C680.133 304.192 679.514 303.941 679.034 303.44C678.554 302.939 678.314 302.315 678.314 301.568C678.314 300.811 678.554 300.181 679.034 299.68C679.514 299.179 680.133 298.928 680.89 298.928C681.637 298.928 682.25 299.179 682.73 299.68C683.21 300.181 683.45 300.811 683.45 301.568C683.45 302.325 683.21 302.955 682.73 303.456ZM674.154 297.104C674.463 297.445 674.853 297.616 675.322 297.616C675.791 297.616 676.175 297.445 676.474 297.104C676.783 296.763 676.938 296.336 676.938 295.824C676.938 295.291 676.789 294.853 676.49 294.512C676.191 294.16 675.802 293.984 675.322 293.984C674.853 293.984 674.463 294.16 674.154 294.512C673.855 294.853 673.706 295.291 673.706 295.824C673.706 296.336 673.855 296.763 674.154 297.104ZM679.706 302.864C680.015 303.205 680.41 303.376 680.89 303.376C681.37 303.376 681.759 303.205 682.058 302.864C682.357 302.523 682.506 302.091 682.506 301.568C682.506 301.045 682.357 300.613 682.058 300.272C681.759 299.92 681.37 299.744 680.89 299.744C680.41 299.744 680.015 299.92 679.706 300.272C679.407 300.613 679.258 301.045 679.258 301.568C679.258 302.091 679.407 302.523 679.706 302.864Z" fill="#505050"/>
<path d="M743.408 304H741.936L746.24 294.512H740.496V293.328H747.776V294.24L743.408 304ZM753.13 304.192C752.426 304.192 751.802 304.032 751.258 303.712C750.725 303.381 750.298 302.944 749.978 302.4C749.669 301.856 749.434 301.269 749.274 300.64C749.125 300.011 749.05 299.355 749.05 298.672C749.05 297.989 749.125 297.333 749.274 296.704C749.434 296.075 749.669 295.493 749.978 294.96C750.298 294.416 750.725 293.984 751.258 293.664C751.802 293.333 752.426 293.168 753.13 293.168C753.824 293.168 754.442 293.333 754.986 293.664C755.53 293.984 755.957 294.416 756.266 294.96C756.586 295.493 756.821 296.075 756.97 296.704C757.13 297.333 757.21 297.989 757.21 298.672C757.21 299.355 757.13 300.011 756.97 300.64C756.821 301.269 756.586 301.856 756.266 302.4C755.957 302.944 755.53 303.381 754.986 303.712C754.442 304.032 753.824 304.192 753.13 304.192ZM751.53 302.352C751.957 302.789 752.49 303.008 753.13 303.008C753.77 303.008 754.304 302.789 754.73 302.352C755.157 301.904 755.45 301.371 755.61 300.752C755.77 300.133 755.85 299.44 755.85 298.672C755.85 297.904 755.77 297.211 755.61 296.592C755.45 295.973 755.157 295.445 754.73 295.008C754.304 294.571 753.77 294.352 753.13 294.352C752.49 294.352 751.957 294.571 751.53 295.008C751.104 295.445 750.81 295.973 750.65 296.592C750.49 297.211 750.41 297.904 750.41 298.672C750.41 299.44 750.49 300.133 750.65 300.752C750.81 301.371 751.104 301.904 751.53 302.352ZM762.959 297.696C762.479 298.187 761.861 298.432 761.103 298.432C760.346 298.432 759.727 298.187 759.247 297.696C758.767 297.195 758.527 296.571 758.527 295.824C758.527 295.056 758.767 294.421 759.247 293.92C759.727 293.419 760.346 293.168 761.103 293.168C761.861 293.168 762.479 293.419 762.959 293.92C763.439 294.421 763.679 295.056 763.679 295.824C763.679 296.571 763.439 297.195 762.959 297.696ZM760.959 304H760.079L766.895 293.328H767.791L760.959 304ZM768.511 303.456C768.042 303.947 767.429 304.192 766.671 304.192C765.914 304.192 765.295 303.941 764.815 303.44C764.335 302.939 764.095 302.315 764.095 301.568C764.095 300.811 764.335 300.181 764.815 299.68C765.295 299.179 765.914 298.928 766.671 298.928C767.418 298.928 768.031 299.179 768.511 299.68C768.991 300.181 769.231 300.811 769.231 301.568C769.231 302.325 768.991 302.955 768.511 303.456ZM759.935 297.104C760.245 297.445 760.634 297.616 761.103 297.616C761.573 297.616 761.957 297.445 762.255 297.104C762.565 296.763 762.719 296.336 762.719 295.824C762.719 295.291 762.57 294.853 762.271 294.512C761.973 294.16 761.583 293.984 761.103 293.984C760.634 293.984 760.245 294.16 759.935 294.512C759.637 294.853 759.487 295.291 759.487 295.824C759.487 296.336 759.637 296.763 759.935 297.104ZM765.487 302.864C765.797 303.205 766.191 303.376 766.671 303.376C767.151 303.376 767.541 303.205 767.839 302.864C768.138 302.523 768.287 302.091 768.287 301.568C768.287 301.045 768.138 300.613 767.839 300.272C767.541 299.92 767.151 299.744 766.671 299.744C766.191 299.744 765.797 299.92 765.487 300.272C765.189 300.613 765.039 301.045 765.039 301.568C765.039 302.091 765.189 302.523 765.487 302.864Z" fill="#505050"/>
<path d="M833.462 303.408C832.737 303.931 831.83 304.192 830.742 304.192C829.654 304.192 828.742 303.931 828.006 303.408C827.281 302.885 826.918 302.181 826.918 301.296C826.918 300.624 827.158 300.043 827.638 299.552C828.129 299.061 828.737 298.709 829.462 298.496C828.779 298.304 828.214 297.995 827.766 297.568C827.318 297.131 827.094 296.587 827.094 295.936C827.094 295.04 827.457 294.357 828.182 293.888C828.907 293.408 829.761 293.168 830.742 293.168C831.723 293.168 832.577 293.408 833.302 293.888C834.038 294.357 834.406 295.04 834.406 295.936C834.406 296.587 834.177 297.131 833.718 297.568C833.27 297.995 832.705 298.304 832.022 298.496C832.747 298.709 833.35 299.061 833.83 299.552C834.321 300.043 834.566 300.624 834.566 301.296C834.566 302.171 834.198 302.875 833.462 303.408ZM830.742 297.952C830.955 297.92 831.169 297.867 831.382 297.792C831.606 297.717 831.857 297.616 832.134 297.488C832.411 297.349 832.635 297.163 832.806 296.928C832.977 296.683 833.062 296.411 833.062 296.112C833.062 295.579 832.838 295.152 832.39 294.832C831.953 294.512 831.403 294.352 830.742 294.352C830.081 294.352 829.531 294.512 829.094 294.832C828.657 295.141 828.438 295.568 828.438 296.112C828.438 296.411 828.523 296.683 828.694 296.928C828.865 297.163 829.089 297.349 829.366 297.488C829.643 297.616 829.889 297.717 830.102 297.792C830.315 297.867 830.529 297.92 830.742 297.952ZM830.742 303.008C831.425 303.008 832.006 302.837 832.486 302.496C832.977 302.155 833.222 301.707 833.222 301.152C833.222 300.725 833.051 300.352 832.71 300.032C832.379 299.701 832.038 299.472 831.686 299.344C831.345 299.205 831.03 299.12 830.742 299.088C830.454 299.12 830.134 299.205 829.782 299.344C829.441 299.472 829.099 299.701 828.758 300.032C828.427 300.352 828.262 300.725 828.262 301.152C828.262 301.707 828.502 302.155 828.982 302.496C829.462 302.837 830.049 303.008 830.742 303.008ZM840.294 304.192C839.59 304.192 838.966 304.032 838.422 303.712C837.889 303.381 837.462 302.944 837.142 302.4C836.833 301.856 836.598 301.269 836.438 300.64C836.289 300.011 836.214 299.355 836.214 298.672C836.214 297.989 836.289 297.333 836.438 296.704C836.598 296.075 836.833 295.493 837.142 294.96C837.462 294.416 837.889 293.984 838.422 293.664C838.966 293.333 839.59 293.168 840.294 293.168C840.988 293.168 841.606 293.333 842.15 293.664C842.694 293.984 843.121 294.416 843.43 294.96C843.75 295.493 843.985 296.075 844.134 296.704C844.294 297.333 844.374 297.989 844.374 298.672C844.374 299.355 844.294 300.011 844.134 300.64C843.985 301.269 843.75 301.856 843.43 302.4C843.121 302.944 842.694 303.381 842.15 303.712C841.606 304.032 840.988 304.192 840.294 304.192ZM838.694 302.352C839.121 302.789 839.654 303.008 840.294 303.008C840.934 303.008 841.468 302.789 841.894 302.352C842.321 301.904 842.614 301.371 842.774 300.752C842.934 300.133 843.014 299.44 843.014 298.672C843.014 297.904 842.934 297.211 842.774 296.592C842.614 295.973 842.321 295.445 841.894 295.008C841.468 294.571 840.934 294.352 840.294 294.352C839.654 294.352 839.121 294.571 838.694 295.008C838.268 295.445 837.974 295.973 837.814 296.592C837.654 297.211 837.574 297.904 837.574 298.672C837.574 299.44 837.654 300.133 837.814 300.752C837.974 301.371 838.268 301.904 838.694 302.352ZM850.123 297.696C849.643 298.187 849.025 298.432 848.267 298.432C847.51 298.432 846.891 298.187 846.411 297.696C845.931 297.195 845.691 296.571 845.691 295.824C845.691 295.056 845.931 294.421 846.411 293.92C846.891 293.419 847.51 293.168 848.267 293.168C849.025 293.168 849.643 293.419 850.123 293.92C850.603 294.421 850.843 295.056 850.843 295.824C850.843 296.571 850.603 297.195 850.123 297.696ZM848.123 304H847.243L854.059 293.328H854.955L848.123 304ZM855.675 303.456C855.206 303.947 854.593 304.192 853.835 304.192C853.078 304.192 852.459 303.941 851.979 303.44C851.499 302.939 851.259 302.315 851.259 301.568C851.259 300.811 851.499 300.181 851.979 299.68C852.459 299.179 853.078 298.928 853.835 298.928C854.582 298.928 855.195 299.179 855.675 299.68C856.155 300.181 856.395 300.811 856.395 301.568C856.395 302.325 856.155 302.955 855.675 303.456ZM847.099 297.104C847.409 297.445 847.798 297.616 848.267 297.616C848.737 297.616 849.121 297.445 849.419 297.104C849.729 296.763 849.883 296.336 849.883 295.824C849.883 295.291 849.734 294.853 849.435 294.512C849.137 294.16 848.747 293.984 848.267 293.984C847.798 293.984 847.409 294.16 847.099 294.512C846.801 294.853 846.651 295.291 846.651 295.824C846.651 296.336 846.801 296.763 847.099 297.104ZM852.651 302.864C852.961 303.205 853.355 303.376 853.835 303.376C854.315 303.376 854.705 303.205 855.003 302.864C855.302 302.523 855.451 302.091 855.451 301.568C855.451 301.045 855.302 300.613 855.003 300.272C854.705 299.92 854.315 299.744 853.835 299.744C853.355 299.744 852.961 299.92 852.651 300.272C852.353 300.613 852.203 301.045 852.203 301.568C852.203 302.091 852.353 302.523 852.651 302.864Z" fill="#505050"/>
<path d="M917.304 304.176C916.088 304.176 915.101 303.749 914.344 302.896L915.016 301.904C915.635 302.629 916.397 302.992 917.304 302.992C917.987 302.992 918.563 302.779 919.032 302.352C919.501 301.925 919.832 301.408 920.024 300.8C920.216 300.192 920.312 299.525 920.312 298.8C920.312 298.619 920.307 298.48 920.296 298.384C920.029 298.811 919.619 299.195 919.064 299.536C918.509 299.877 917.917 300.048 917.288 300.048C916.275 300.048 915.437 299.755 914.776 299.168C914.115 298.571 913.784 297.728 913.784 296.64C913.784 295.68 914.125 294.859 914.808 294.176C915.491 293.493 916.397 293.152 917.528 293.152C918.243 293.152 918.872 293.301 919.416 293.6C919.96 293.899 920.392 294.309 920.712 294.832C921.032 295.355 921.267 295.936 921.416 296.576C921.576 297.216 921.656 297.915 921.656 298.672C921.656 299.675 921.507 300.581 921.208 301.392C920.909 302.192 920.424 302.859 919.752 303.392C919.08 303.915 918.264 304.176 917.304 304.176ZM917.592 298.896C918.115 298.896 918.616 298.752 919.096 298.464C919.587 298.165 919.976 297.776 920.264 297.296C920.232 296.944 920.157 296.603 920.04 296.272C919.933 295.941 919.779 295.627 919.576 295.328C919.373 295.029 919.096 294.789 918.744 294.608C918.403 294.427 918.013 294.336 917.576 294.336C916.819 294.336 916.221 294.571 915.784 295.04C915.347 295.499 915.128 296.016 915.128 296.592C915.128 297.339 915.357 297.909 915.816 298.304C916.275 298.699 916.867 298.896 917.592 298.896ZM927.349 304.192C926.645 304.192 926.021 304.032 925.477 303.712C924.944 303.381 924.517 302.944 924.197 302.4C923.888 301.856 923.653 301.269 923.493 300.64C923.344 300.011 923.269 299.355 923.269 298.672C923.269 297.989 923.344 297.333 923.493 296.704C923.653 296.075 923.888 295.493 924.197 294.96C924.517 294.416 924.944 293.984 925.477 293.664C926.021 293.333 926.645 293.168 927.349 293.168C928.042 293.168 928.661 293.333 929.205 293.664C929.749 293.984 930.176 294.416 930.485 294.96C930.805 295.493 931.04 296.075 931.189 296.704C931.349 297.333 931.429 297.989 931.429 298.672C931.429 299.355 931.349 300.011 931.189 300.64C931.04 301.269 930.805 301.856 930.485 302.4C930.176 302.944 929.749 303.381 929.205 303.712C928.661 304.032 928.042 304.192 927.349 304.192ZM925.749 302.352C926.176 302.789 926.709 303.008 927.349 303.008C927.989 303.008 928.522 302.789 928.949 302.352C929.376 301.904 929.669 301.371 929.829 300.752C929.989 300.133 930.069 299.44 930.069 298.672C930.069 297.904 929.989 297.211 929.829 296.592C929.669 295.973 929.376 295.445 928.949 295.008C928.522 294.571 927.989 294.352 927.349 294.352C926.709 294.352 926.176 294.571 925.749 295.008C925.322 295.445 925.029 295.973 924.869 296.592C924.709 297.211 924.629 297.904 924.629 298.672C924.629 299.44 924.709 300.133 924.869 300.752C925.029 301.371 925.322 301.904 925.749 302.352ZM937.178 297.696C936.698 298.187 936.079 298.432 935.322 298.432C934.565 298.432 933.946 298.187 933.466 297.696C932.986 297.195 932.746 296.571 932.746 295.824C932.746 295.056 932.986 294.421 933.466 293.92C933.946 293.419 934.565 293.168 935.322 293.168C936.079 293.168 936.698 293.419 937.178 293.92C937.658 294.421 937.898 295.056 937.898 295.824C937.898 296.571 937.658 297.195 937.178 297.696ZM935.178 304H934.298L941.114 293.328H942.01L935.178 304ZM942.73 303.456C942.261 303.947 941.647 304.192 940.89 304.192C940.133 304.192 939.514 303.941 939.034 303.44C938.554 302.939 938.314 302.315 938.314 301.568C938.314 300.811 938.554 300.181 939.034 299.68C939.514 299.179 940.133 298.928 940.89 298.928C941.637 298.928 942.25 299.179 942.73 299.68C943.21 300.181 943.45 300.811 943.45 301.568C943.45 302.325 943.21 302.955 942.73 303.456ZM934.154 297.104C934.463 297.445 934.853 297.616 935.322 297.616C935.791 297.616 936.175 297.445 936.474 297.104C936.783 296.763 936.938 296.336 936.938 295.824C936.938 295.291 936.789 294.853 936.49 294.512C936.191 294.16 935.802 293.984 935.322 293.984C934.853 293.984 934.463 294.16 934.154 294.512C933.855 294.853 933.706 295.291 933.706 295.824C933.706 296.336 933.855 296.763 934.154 297.104ZM939.706 302.864C940.015 303.205 940.41 303.376 940.89 303.376C941.37 303.376 941.759 303.205 942.058 302.864C942.357 302.523 942.506 302.091 942.506 301.568C942.506 301.045 942.357 300.613 942.058 300.272C941.759 299.92 941.37 299.744 940.89 299.744C940.41 299.744 940.015 299.92 939.706 300.272C939.407 300.613 939.258 301.045 939.258 301.568C939.258 302.091 939.407 302.523 939.706 302.864Z" fill="#505050"/>
<path d="M1004.18 304H1002.85V295.072L1001.14 296.896L1000.34 296.08L1003.01 293.328H1004.18V304ZM1010.32 304.192C1009.61 304.192 1008.99 304.032 1008.45 303.712C1007.91 303.381 1007.49 302.944 1007.17 302.4C1006.86 301.856 1006.62 301.269 1006.46 300.64C1006.31 300.011 1006.24 299.355 1006.24 298.672C1006.24 297.989 1006.31 297.333 1006.46 296.704C1006.62 296.075 1006.86 295.493 1007.17 294.96C1007.49 294.416 1007.91 293.984 1008.45 293.664C1008.99 293.333 1009.61 293.168 1010.32 293.168C1011.01 293.168 1011.63 293.333 1012.17 293.664C1012.72 293.984 1013.14 294.416 1013.45 294.96C1013.77 295.493 1014.01 296.075 1014.16 296.704C1014.32 297.333 1014.4 297.989 1014.4 298.672C1014.4 299.355 1014.32 300.011 1014.16 300.64C1014.01 301.269 1013.77 301.856 1013.45 302.4C1013.14 302.944 1012.72 303.381 1012.17 303.712C1011.63 304.032 1011.01 304.192 1010.32 304.192ZM1008.72 302.352C1009.14 302.789 1009.68 303.008 1010.32 303.008C1010.96 303.008 1011.49 302.789 1011.92 302.352C1012.34 301.904 1012.64 301.371 1012.8 300.752C1012.96 300.133 1013.04 299.44 1013.04 298.672C1013.04 297.904 1012.96 297.211 1012.8 296.592C1012.64 295.973 1012.34 295.445 1011.92 295.008C1011.49 294.571 1010.96 294.352 1010.32 294.352C1009.68 294.352 1009.14 294.571 1008.72 295.008C1008.29 295.445 1008 295.973 1007.84 296.592C1007.68 297.211 1007.6 297.904 1007.6 298.672C1007.6 299.44 1007.68 300.133 1007.84 300.752C1008 301.371 1008.29 301.904 1008.72 302.352ZM1020.11 304.192C1019.41 304.192 1018.79 304.032 1018.24 303.712C1017.71 303.381 1017.28 302.944 1016.96 302.4C1016.65 301.856 1016.42 301.269 1016.26 300.64C1016.11 300.011 1016.03 299.355 1016.03 298.672C1016.03 297.989 1016.11 297.333 1016.26 296.704C1016.42 296.075 1016.65 295.493 1016.96 294.96C1017.28 294.416 1017.71 293.984 1018.24 293.664C1018.79 293.333 1019.41 293.168 1020.11 293.168C1020.81 293.168 1021.43 293.333 1021.97 293.664C1022.51 293.984 1022.94 294.416 1023.25 294.96C1023.57 295.493 1023.81 296.075 1023.95 296.704C1024.11 297.333 1024.19 297.989 1024.19 298.672C1024.19 299.355 1024.11 300.011 1023.95 300.64C1023.81 301.269 1023.57 301.856 1023.25 302.4C1022.94 302.944 1022.51 303.381 1021.97 303.712C1021.43 304.032 1020.81 304.192 1020.11 304.192ZM1018.51 302.352C1018.94 302.789 1019.47 303.008 1020.11 303.008C1020.75 303.008 1021.29 302.789 1021.71 302.352C1022.14 301.904 1022.43 301.371 1022.59 300.752C1022.75 300.133 1022.83 299.44 1022.83 298.672C1022.83 297.904 1022.75 297.211 1022.59 296.592C1022.43 295.973 1022.14 295.445 1021.71 295.008C1021.29 294.571 1020.75 294.352 1020.11 294.352C1019.47 294.352 1018.94 294.571 1018.51 295.008C1018.09 295.445 1017.79 295.973 1017.63 296.592C1017.47 297.211 1017.39 297.904 1017.39 298.672C1017.39 299.44 1017.47 300.133 1017.63 300.752C1017.79 301.371 1018.09 301.904 1018.51 302.352ZM1029.94 297.696C1029.46 298.187 1028.84 298.432 1028.09 298.432C1027.33 298.432 1026.71 298.187 1026.23 297.696C1025.75 297.195 1025.51 296.571 1025.51 295.824C1025.51 295.056 1025.75 294.421 1026.23 293.92C1026.71 293.419 1027.33 293.168 1028.09 293.168C1028.84 293.168 1029.46 293.419 1029.94 293.92C1030.42 294.421 1030.66 295.056 1030.66 295.824C1030.66 296.571 1030.42 297.195 1029.94 297.696ZM1027.94 304H1027.06L1033.88 293.328H1034.78L1027.94 304ZM1035.5 303.456C1035.03 303.947 1034.41 304.192 1033.66 304.192C1032.9 304.192 1032.28 303.941 1031.8 303.44C1031.32 302.939 1031.08 302.315 1031.08 301.568C1031.08 300.811 1031.32 300.181 1031.8 299.68C1032.28 299.179 1032.9 298.928 1033.66 298.928C1034.4 298.928 1035.02 299.179 1035.5 299.68C1035.98 300.181 1036.22 300.811 1036.22 301.568C1036.22 302.325 1035.98 302.955 1035.5 303.456ZM1026.92 297.104C1027.23 297.445 1027.62 297.616 1028.09 297.616C1028.56 297.616 1028.94 297.445 1029.24 297.104C1029.55 296.763 1029.7 296.336 1029.7 295.824C1029.7 295.291 1029.55 294.853 1029.26 294.512C1028.96 294.16 1028.57 293.984 1028.09 293.984C1027.62 293.984 1027.23 294.16 1026.92 294.512C1026.62 294.853 1026.47 295.291 1026.47 295.824C1026.47 296.336 1026.62 296.763 1026.92 297.104ZM1032.47 302.864C1032.78 303.205 1033.18 303.376 1033.66 303.376C1034.14 303.376 1034.52 303.205 1034.82 302.864C1035.12 302.523 1035.27 302.091 1035.27 301.568C1035.27 301.045 1035.12 300.613 1034.82 300.272C1034.52 299.92 1034.14 299.744 1033.66 299.744C1033.18 299.744 1032.78 299.92 1032.47 300.272C1032.17 300.613 1032.02 301.045 1032.02 301.568C1032.02 302.091 1032.17 302.523 1032.47 302.864Z" fill="#505050"/>
<path d="M570.816 304.192C569.173 304.192 567.92 303.621 567.056 302.48L567.872 301.584C568.608 302.533 569.589 303.008 570.816 303.008C571.541 303.008 572.133 302.789 572.592 302.352C573.051 301.915 573.28 301.371 573.28 300.72C573.28 300.027 573.051 299.472 572.592 299.056C572.144 298.629 571.557 298.416 570.832 298.416C569.883 298.416 569.061 298.747 568.368 299.408L567.392 299.072V293.328H573.92V294.512H568.72V298.224C569.381 297.584 570.213 297.264 571.216 297.264C572.165 297.264 572.971 297.568 573.632 298.176C574.293 298.784 574.624 299.616 574.624 300.672C574.624 301.728 574.261 302.581 573.536 303.232C572.821 303.872 571.915 304.192 570.816 304.192ZM580.334 304.192C579.63 304.192 579.006 304.032 578.462 303.712C577.928 303.381 577.502 302.944 577.182 302.4C576.872 301.856 576.638 301.269 576.478 300.64C576.328 300.011 576.254 299.355 576.254 298.672C576.254 297.989 576.328 297.333 576.478 296.704C576.638 296.075 576.872 295.493 577.182 294.96C577.502 294.416 577.928 293.984 578.462 293.664C579.006 293.333 579.63 293.168 580.334 293.168C581.027 293.168 581.646 293.333 582.19 293.664C582.734 293.984 583.16 294.416 583.47 294.96C583.79 295.493 584.024 296.075 584.174 296.704C584.334 297.333 584.414 297.989 584.414 298.672C584.414 299.355 584.334 300.011 584.174 300.64C584.024 301.269 583.79 301.856 583.47 302.4C583.16 302.944 582.734 303.381 582.19 303.712C581.646 304.032 581.027 304.192 580.334 304.192ZM578.734 302.352C579.16 302.789 579.694 303.008 580.334 303.008C580.974 303.008 581.507 302.789 581.934 302.352C582.36 301.904 582.654 301.371 582.814 300.752C582.974 300.133 583.054 299.44 583.054 298.672C583.054 297.904 582.974 297.211 582.814 296.592C582.654 295.973 582.36 295.445 581.934 295.008C581.507 294.571 580.974 294.352 580.334 294.352C579.694 294.352 579.16 294.571 578.734 295.008C578.307 295.445 578.014 295.973 577.854 296.592C577.694 297.211 577.614 297.904 577.614 298.672C577.614 299.44 577.694 300.133 577.854 300.752C578.014 301.371 578.307 301.904 578.734 302.352ZM590.162 297.696C589.682 298.187 589.064 298.432 588.306 298.432C587.549 298.432 586.93 298.187 586.45 297.696C585.97 297.195 585.73 296.571 585.73 295.824C585.73 295.056 585.97 294.421 586.45 293.92C586.93 293.419 587.549 293.168 588.306 293.168C589.064 293.168 589.682 293.419 590.162 293.92C590.642 294.421 590.882 295.056 590.882 295.824C590.882 296.571 590.642 297.195 590.162 297.696ZM588.162 304H587.282L594.098 293.328H594.994L588.162 304ZM595.714 303.456C595.245 303.947 594.632 304.192 593.874 304.192C593.117 304.192 592.498 303.941 592.018 303.44C591.538 302.939 591.298 302.315 591.298 301.568C591.298 300.811 591.538 300.181 592.018 299.68C592.498 299.179 593.117 298.928 593.874 298.928C594.621 298.928 595.234 299.179 595.714 299.68C596.194 300.181 596.434 300.811 596.434 301.568C596.434 302.325 596.194 302.955 595.714 303.456ZM587.138 297.104C587.448 297.445 587.837 297.616 588.306 297.616C588.776 297.616 589.16 297.445 589.458 297.104C589.768 296.763 589.922 296.336 589.922 295.824C589.922 295.291 589.773 294.853 589.474 294.512C589.176 294.16 588.786 293.984 588.306 293.984C587.837 293.984 587.448 294.16 587.138 294.512C586.84 294.853 586.69 295.291 586.69 295.824C586.69 296.336 586.84 296.763 587.138 297.104ZM592.69 302.864C593 303.205 593.394 303.376 593.874 303.376C594.354 303.376 594.744 303.205 595.042 302.864C595.341 302.523 595.49 302.091 595.49 301.568C595.49 301.045 595.341 300.613 595.042 300.272C594.744 299.92 594.354 299.744 593.874 299.744C593.394 299.744 593 299.92 592.69 300.272C592.392 300.613 592.242 301.045 592.242 301.568C592.242 302.091 592.392 302.523 592.69 302.864Z" fill="#505050"/>
<path d="M396.256 304.192C395.403 304.192 394.645 304.027 393.984 303.696C393.323 303.365 392.816 302.944 392.464 302.432L393.248 301.6C393.568 302.027 393.989 302.368 394.512 302.624C395.035 302.88 395.605 303.008 396.224 303.008C396.992 303.008 397.6 302.827 398.048 302.464C398.496 302.101 398.72 301.616 398.72 301.008C398.72 300.368 398.48 299.893 398 299.584C397.531 299.275 396.885 299.12 396.064 299.12C395.435 299.12 395.067 299.125 394.96 299.136V297.92C395.077 297.931 395.445 297.936 396.064 297.936C396.789 297.936 397.381 297.792 397.84 297.504C398.309 297.205 398.544 296.763 398.544 296.176C398.544 295.611 398.315 295.168 397.856 294.848C397.408 294.517 396.843 294.352 396.16 294.352C395.083 294.352 394.144 294.784 393.344 295.648L392.608 294.816C393.504 293.717 394.725 293.168 396.272 293.168C397.328 293.168 398.192 293.424 398.864 293.936C399.536 294.437 399.872 295.125 399.872 296C399.872 296.704 399.637 297.269 399.168 297.696C398.699 298.123 398.171 298.384 397.584 298.48C398.171 298.544 398.725 298.805 399.248 299.264C399.781 299.723 400.048 300.341 400.048 301.12C400.048 302.027 399.701 302.768 399.008 303.344C398.325 303.909 397.408 304.192 396.256 304.192ZM405.802 304.192C405.098 304.192 404.474 304.032 403.93 303.712C403.397 303.381 402.97 302.944 402.65 302.4C402.341 301.856 402.106 301.269 401.946 300.64C401.797 300.011 401.722 299.355 401.722 298.672C401.722 297.989 401.797 297.333 401.946 296.704C402.106 296.075 402.341 295.493 402.65 294.96C402.97 294.416 403.397 293.984 403.93 293.664C404.474 293.333 405.098 293.168 405.802 293.168C406.496 293.168 407.114 293.333 407.658 293.664C408.202 293.984 408.629 294.416 408.938 294.96C409.258 295.493 409.493 296.075 409.642 296.704C409.802 297.333 409.882 297.989 409.882 298.672C409.882 299.355 409.802 300.011 409.642 300.64C409.493 301.269 409.258 301.856 408.938 302.4C408.629 302.944 408.202 303.381 407.658 303.712C407.114 304.032 406.496 304.192 405.802 304.192ZM404.202 302.352C404.629 302.789 405.162 303.008 405.802 303.008C406.442 303.008 406.976 302.789 407.402 302.352C407.829 301.904 408.122 301.371 408.282 300.752C408.442 300.133 408.522 299.44 408.522 298.672C408.522 297.904 408.442 297.211 408.282 296.592C408.122 295.973 407.829 295.445 407.402 295.008C406.976 294.571 406.442 294.352 405.802 294.352C405.162 294.352 404.629 294.571 404.202 295.008C403.776 295.445 403.482 295.973 403.322 296.592C403.162 297.211 403.082 297.904 403.082 298.672C403.082 299.44 403.162 300.133 403.322 300.752C403.482 301.371 403.776 301.904 404.202 302.352ZM415.631 297.696C415.151 298.187 414.532 298.432 413.775 298.432C413.018 298.432 412.399 298.187 411.919 297.696C411.439 297.195 411.199 296.571 411.199 295.824C411.199 295.056 411.439 294.421 411.919 293.92C412.399 293.419 413.018 293.168 413.775 293.168C414.532 293.168 415.151 293.419 415.631 293.92C416.111 294.421 416.351 295.056 416.351 295.824C416.351 296.571 416.111 297.195 415.631 297.696ZM413.631 304H412.751L419.567 293.328H420.463L413.631 304ZM421.183 303.456C420.714 303.947 420.1 304.192 419.343 304.192C418.586 304.192 417.967 303.941 417.487 303.44C417.007 302.939 416.767 302.315 416.767 301.568C416.767 300.811 417.007 300.181 417.487 299.68C417.967 299.179 418.586 298.928 419.343 298.928C420.09 298.928 420.703 299.179 421.183 299.68C421.663 300.181 421.903 300.811 421.903 301.568C421.903 302.325 421.663 302.955 421.183 303.456ZM412.607 297.104C412.916 297.445 413.306 297.616 413.775 297.616C414.244 297.616 414.628 297.445 414.927 297.104C415.236 296.763 415.391 296.336 415.391 295.824C415.391 295.291 415.242 294.853 414.943 294.512C414.644 294.16 414.255 293.984 413.775 293.984C413.306 293.984 412.916 294.16 412.607 294.512C412.308 294.853 412.159 295.291 412.159 295.824C412.159 296.336 412.308 296.763 412.607 297.104ZM418.159 302.864C418.468 303.205 418.863 303.376 419.343 303.376C419.823 303.376 420.212 303.205 420.511 302.864C420.81 302.523 420.959 302.091 420.959 301.568C420.959 301.045 420.81 300.613 420.511 300.272C420.212 299.92 419.823 299.744 419.343 299.744C418.863 299.744 418.468 299.92 418.159 300.272C417.86 300.613 417.711 301.045 417.711 301.568C417.711 302.091 417.86 302.523 418.159 302.864Z" fill="#505050"/>
<path d="M485.912 304H484.584V301.296H479.512V300.192L484.088 293.328H485.912V300.128H487.416V301.296H485.912V304ZM484.584 300.128V294.56L480.84 300.128H484.584ZM492.818 304.192C492.114 304.192 491.49 304.032 490.946 303.712C490.413 303.381 489.986 302.944 489.666 302.4C489.357 301.856 489.122 301.269 488.962 300.64C488.813 300.011 488.738 299.355 488.738 298.672C488.738 297.989 488.813 297.333 488.962 296.704C489.122 296.075 489.357 295.493 489.666 294.96C489.986 294.416 490.413 293.984 490.946 293.664C491.49 293.333 492.114 293.168 492.818 293.168C493.511 293.168 494.13 293.333 494.674 293.664C495.218 293.984 495.645 294.416 495.954 294.96C496.274 295.493 496.509 296.075 496.658 296.704C496.818 297.333 496.898 297.989 496.898 298.672C496.898 299.355 496.818 300.011 496.658 300.64C496.509 301.269 496.274 301.856 495.954 302.4C495.645 302.944 495.218 303.381 494.674 303.712C494.13 304.032 493.511 304.192 492.818 304.192ZM491.218 302.352C491.645 302.789 492.178 303.008 492.818 303.008C493.458 303.008 493.991 302.789 494.418 302.352C494.845 301.904 495.138 301.371 495.298 300.752C495.458 300.133 495.538 299.44 495.538 298.672C495.538 297.904 495.458 297.211 495.298 296.592C495.138 295.973 494.845 295.445 494.418 295.008C493.991 294.571 493.458 294.352 492.818 294.352C492.178 294.352 491.645 294.571 491.218 295.008C490.791 295.445 490.498 295.973 490.338 296.592C490.178 297.211 490.098 297.904 490.098 298.672C490.098 299.44 490.178 300.133 490.338 300.752C490.498 301.371 490.791 301.904 491.218 302.352ZM502.647 297.696C502.167 298.187 501.548 298.432 500.791 298.432C500.033 298.432 499.415 298.187 498.935 297.696C498.455 297.195 498.215 296.571 498.215 295.824C498.215 295.056 498.455 294.421 498.935 293.92C499.415 293.419 500.033 293.168 500.791 293.168C501.548 293.168 502.167 293.419 502.647 293.92C503.127 294.421 503.367 295.056 503.367 295.824C503.367 296.571 503.127 297.195 502.647 297.696ZM500.647 304H499.767L506.583 293.328H507.479L500.647 304ZM508.199 303.456C507.729 303.947 507.116 304.192 506.359 304.192C505.601 304.192 504.983 303.941 504.503 303.44C504.023 302.939 503.783 302.315 503.783 301.568C503.783 300.811 504.023 300.181 504.503 299.68C504.983 299.179 505.601 298.928 506.359 298.928C507.105 298.928 507.719 299.179 508.199 299.68C508.679 300.181 508.919 300.811 508.919 301.568C508.919 302.325 508.679 302.955 508.199 303.456ZM499.623 297.104C499.932 297.445 500.321 297.616 500.791 297.616C501.26 297.616 501.644 297.445 501.943 297.104C502.252 296.763 502.407 296.336 502.407 295.824C502.407 295.291 502.257 294.853 501.959 294.512C501.66 294.16 501.271 293.984 500.791 293.984C500.321 293.984 499.932 294.16 499.623 294.512C499.324 294.853 499.175 295.291 499.175 295.824C499.175 296.336 499.324 296.763 499.623 297.104ZM505.175 302.864C505.484 303.205 505.879 303.376 506.359 303.376C506.839 303.376 507.228 303.205 507.527 302.864C507.825 302.523 507.975 302.091 507.975 301.568C507.975 301.045 507.825 300.613 507.527 300.272C507.228 299.92 506.839 299.744 506.359 299.744C505.879 299.744 505.484 299.92 505.175 300.272C504.876 300.613 504.727 301.045 504.727 301.568C504.727 302.091 504.876 302.523 505.175 302.864Z" fill="#505050"/>
<path d="M313.192 304H305.864V302.928C308.051 301.221 309.587 299.904 310.472 298.976C311.357 298.048 311.8 297.157 311.8 296.304C311.8 295.664 311.576 295.179 311.128 294.848C310.691 294.517 310.168 294.352 309.56 294.352C308.333 294.352 307.368 294.8 306.664 295.696L305.848 294.848C306.253 294.315 306.781 293.904 307.432 293.616C308.093 293.317 308.803 293.168 309.56 293.168C310.531 293.168 311.368 293.44 312.072 293.984C312.787 294.528 313.144 295.301 313.144 296.304C313.144 297.296 312.717 298.288 311.864 299.28C311.011 300.261 309.709 301.44 307.96 302.816H313.192V304ZM319.302 304.192C318.598 304.192 317.974 304.032 317.43 303.712C316.897 303.381 316.47 302.944 316.15 302.4C315.841 301.856 315.606 301.269 315.446 300.64C315.297 300.011 315.222 299.355 315.222 298.672C315.222 297.989 315.297 297.333 315.446 296.704C315.606 296.075 315.841 295.493 316.15 294.96C316.47 294.416 316.897 293.984 317.43 293.664C317.974 293.333 318.598 293.168 319.302 293.168C319.996 293.168 320.614 293.333 321.158 293.664C321.702 293.984 322.129 294.416 322.438 294.96C322.758 295.493 322.993 296.075 323.142 296.704C323.302 297.333 323.382 297.989 323.382 298.672C323.382 299.355 323.302 300.011 323.142 300.64C322.993 301.269 322.758 301.856 322.438 302.4C322.129 302.944 321.702 303.381 321.158 303.712C320.614 304.032 319.996 304.192 319.302 304.192ZM317.702 302.352C318.129 302.789 318.662 303.008 319.302 303.008C319.942 303.008 320.476 302.789 320.902 302.352C321.329 301.904 321.622 301.371 321.782 300.752C321.942 300.133 322.022 299.44 322.022 298.672C322.022 297.904 321.942 297.211 321.782 296.592C321.622 295.973 321.329 295.445 320.902 295.008C320.476 294.571 319.942 294.352 319.302 294.352C318.662 294.352 318.129 294.571 317.702 295.008C317.276 295.445 316.982 295.973 316.822 296.592C316.662 297.211 316.582 297.904 316.582 298.672C316.582 299.44 316.662 300.133 316.822 300.752C316.982 301.371 317.276 301.904 317.702 302.352ZM329.131 297.696C328.651 298.187 328.032 298.432 327.275 298.432C326.518 298.432 325.899 298.187 325.419 297.696C324.939 297.195 324.699 296.571 324.699 295.824C324.699 295.056 324.939 294.421 325.419 293.92C325.899 293.419 326.518 293.168 327.275 293.168C328.032 293.168 328.651 293.419 329.131 293.92C329.611 294.421 329.851 295.056 329.851 295.824C329.851 296.571 329.611 297.195 329.131 297.696ZM327.131 304H326.251L333.067 293.328H333.963L327.131 304ZM334.683 303.456C334.214 303.947 333.6 304.192 332.843 304.192C332.086 304.192 331.467 303.941 330.987 303.44C330.507 302.939 330.267 302.315 330.267 301.568C330.267 300.811 330.507 300.181 330.987 299.68C331.467 299.179 332.086 298.928 332.843 298.928C333.59 298.928 334.203 299.179 334.683 299.68C335.163 300.181 335.403 300.811 335.403 301.568C335.403 302.325 335.163 302.955 334.683 303.456ZM326.107 297.104C326.416 297.445 326.806 297.616 327.275 297.616C327.744 297.616 328.128 297.445 328.427 297.104C328.736 296.763 328.891 296.336 328.891 295.824C328.891 295.291 328.742 294.853 328.443 294.512C328.144 294.16 327.755 293.984 327.275 293.984C326.806 293.984 326.416 294.16 326.107 294.512C325.808 294.853 325.659 295.291 325.659 295.824C325.659 296.336 325.808 296.763 326.107 297.104ZM331.659 302.864C331.968 303.205 332.363 303.376 332.843 303.376C333.323 303.376 333.712 303.205 334.011 302.864C334.31 302.523 334.459 302.091 334.459 301.568C334.459 301.045 334.31 300.613 334.011 300.272C333.712 299.92 333.323 299.744 332.843 299.744C332.363 299.744 331.968 299.92 331.659 300.272C331.36 300.613 331.211 301.045 331.211 301.568C331.211 302.091 331.36 302.523 331.659 302.864Z" fill="#505050"/>
<path d="M226.176 304H224.848V295.072L223.136 296.896L222.336 296.08L225.008 293.328H226.176V304ZM232.318 304.192C231.614 304.192 230.99 304.032 230.446 303.712C229.913 303.381 229.486 302.944 229.166 302.4C228.857 301.856 228.622 301.269 228.462 300.64C228.313 300.011 228.238 299.355 228.238 298.672C228.238 297.989 228.313 297.333 228.462 296.704C228.622 296.075 228.857 295.493 229.166 294.96C229.486 294.416 229.913 293.984 230.446 293.664C230.99 293.333 231.614 293.168 232.318 293.168C233.011 293.168 233.63 293.333 234.174 293.664C234.718 293.984 235.145 294.416 235.454 294.96C235.774 295.493 236.009 296.075 236.158 296.704C236.318 297.333 236.398 297.989 236.398 298.672C236.398 299.355 236.318 300.011 236.158 300.64C236.009 301.269 235.774 301.856 235.454 302.4C235.145 302.944 234.718 303.381 234.174 303.712C233.63 304.032 233.011 304.192 232.318 304.192ZM230.718 302.352C231.145 302.789 231.678 303.008 232.318 303.008C232.958 303.008 233.491 302.789 233.918 302.352C234.345 301.904 234.638 301.371 234.798 300.752C234.958 300.133 235.038 299.44 235.038 298.672C235.038 297.904 234.958 297.211 234.798 296.592C234.638 295.973 234.345 295.445 233.918 295.008C233.491 294.571 232.958 294.352 232.318 294.352C231.678 294.352 231.145 294.571 230.718 295.008C230.291 295.445 229.998 295.973 229.838 296.592C229.678 297.211 229.598 297.904 229.598 298.672C229.598 299.44 229.678 300.133 229.838 300.752C229.998 301.371 230.291 301.904 230.718 302.352ZM242.147 297.696C241.667 298.187 241.048 298.432 240.291 298.432C239.533 298.432 238.915 298.187 238.435 297.696C237.955 297.195 237.715 296.571 237.715 295.824C237.715 295.056 237.955 294.421 238.435 293.92C238.915 293.419 239.533 293.168 240.291 293.168C241.048 293.168 241.667 293.419 242.147 293.92C242.627 294.421 242.867 295.056 242.867 295.824C242.867 296.571 242.627 297.195 242.147 297.696ZM240.147 304H239.267L246.083 293.328H246.979L240.147 304ZM247.699 303.456C247.229 303.947 246.616 304.192 245.859 304.192C245.101 304.192 244.483 303.941 244.003 303.44C243.523 302.939 243.283 302.315 243.283 301.568C243.283 300.811 243.523 300.181 244.003 299.68C244.483 299.179 245.101 298.928 245.859 298.928C246.605 298.928 247.219 299.179 247.699 299.68C248.179 300.181 248.419 300.811 248.419 301.568C248.419 302.325 248.179 302.955 247.699 303.456ZM239.123 297.104C239.432 297.445 239.821 297.616 240.291 297.616C240.76 297.616 241.144 297.445 241.443 297.104C241.752 296.763 241.907 296.336 241.907 295.824C241.907 295.291 241.757 294.853 241.459 294.512C241.16 294.16 240.771 293.984 240.291 293.984C239.821 293.984 239.432 294.16 239.123 294.512C238.824 294.853 238.675 295.291 238.675 295.824C238.675 296.336 238.824 296.763 239.123 297.104ZM244.675 302.864C244.984 303.205 245.379 303.376 245.859 303.376C246.339 303.376 246.728 303.205 247.027 302.864C247.325 302.523 247.475 302.091 247.475 301.568C247.475 301.045 247.325 300.613 247.027 300.272C246.728 299.92 246.339 299.744 245.859 299.744C245.379 299.744 244.984 299.92 244.675 300.272C244.376 300.613 244.227 301.045 244.227 301.568C244.227 302.091 244.376 302.523 244.675 302.864Z" fill="#505050"/>
<path d="M148.896 304.192C148.192 304.192 147.568 304.032 147.024 303.712C146.491 303.381 146.064 302.944 145.744 302.4C145.435 301.856 145.2 301.269 145.04 300.64C144.891 300.011 144.816 299.355 144.816 298.672C144.816 297.989 144.891 297.333 145.04 296.704C145.2 296.075 145.435 295.493 145.744 294.96C146.064 294.416 146.491 293.984 147.024 293.664C147.568 293.333 148.192 293.168 148.896 293.168C149.589 293.168 150.208 293.333 150.752 293.664C151.296 293.984 151.723 294.416 152.032 294.96C152.352 295.493 152.587 296.075 152.736 296.704C152.896 297.333 152.976 297.989 152.976 298.672C152.976 299.355 152.896 300.011 152.736 300.64C152.587 301.269 152.352 301.856 152.032 302.4C151.723 302.944 151.296 303.381 150.752 303.712C150.208 304.032 149.589 304.192 148.896 304.192ZM147.296 302.352C147.723 302.789 148.256 303.008 148.896 303.008C149.536 303.008 150.069 302.789 150.496 302.352C150.923 301.904 151.216 301.371 151.376 300.752C151.536 300.133 151.616 299.44 151.616 298.672C151.616 297.904 151.536 297.211 151.376 296.592C151.216 295.973 150.923 295.445 150.496 295.008C150.069 294.571 149.536 294.352 148.896 294.352C148.256 294.352 147.723 294.571 147.296 295.008C146.869 295.445 146.576 295.973 146.416 296.592C146.256 297.211 146.176 297.904 146.176 298.672C146.176 299.44 146.256 300.133 146.416 300.752C146.576 301.371 146.869 301.904 147.296 302.352ZM158.725 297.696C158.245 298.187 157.626 298.432 156.869 298.432C156.112 298.432 155.493 298.187 155.013 297.696C154.533 297.195 154.293 296.571 154.293 295.824C154.293 295.056 154.533 294.421 155.013 293.92C155.493 293.419 156.112 293.168 156.869 293.168C157.626 293.168 158.245 293.419 158.725 293.92C159.205 294.421 159.445 295.056 159.445 295.824C159.445 296.571 159.205 297.195 158.725 297.696ZM156.725 304H155.845L162.661 293.328H163.557L156.725 304ZM164.277 303.456C163.808 303.947 163.194 304.192 162.437 304.192C161.68 304.192 161.061 303.941 160.581 303.44C160.101 302.939 159.861 302.315 159.861 301.568C159.861 300.811 160.101 300.181 160.581 299.68C161.061 299.179 161.68 298.928 162.437 298.928C163.184 298.928 163.797 299.179 164.277 299.68C164.757 300.181 164.997 300.811 164.997 301.568C164.997 302.325 164.757 302.955 164.277 303.456ZM155.701 297.104C156.01 297.445 156.4 297.616 156.869 297.616C157.338 297.616 157.722 297.445 158.021 297.104C158.33 296.763 158.485 296.336 158.485 295.824C158.485 295.291 158.336 294.853 158.037 294.512C157.738 294.16 157.349 293.984 156.869 293.984C156.4 293.984 156.01 294.16 155.701 294.512C155.402 294.853 155.253 295.291 155.253 295.824C155.253 296.336 155.402 296.763 155.701 297.104ZM161.253 302.864C161.562 303.205 161.957 303.376 162.437 303.376C162.917 303.376 163.306 303.205 163.605 302.864C163.904 302.523 164.053 302.091 164.053 301.568C164.053 301.045 163.904 300.613 163.605 300.272C163.306 299.92 162.917 299.744 162.437 299.744C161.957 299.744 161.562 299.92 161.253 300.272C160.954 300.613 160.805 301.045 160.805 301.568C160.805 302.091 160.954 302.523 161.253 302.864Z" fill="#505050"/>
<path d="M34.216 265H32.888V255.512H29.512V254.328H37.608V255.512H34.216V265ZM42.829 265.192C41.6663 265.192 40.717 264.819 39.981 264.072C39.245 263.315 38.877 262.333 38.877 261.128C38.877 259.997 39.2397 259.043 39.965 258.264C40.6903 257.475 41.597 257.08 42.685 257.08C43.8263 257.08 44.7277 257.475 45.389 258.264C46.061 259.043 46.397 260.029 46.397 261.224V261.528H40.157C40.2103 262.285 40.4823 262.92 40.973 263.432C41.4743 263.944 42.125 264.2 42.925 264.2C43.885 264.2 44.685 263.869 45.325 263.208L45.901 263.992C45.0797 264.792 44.0557 265.192 42.829 265.192ZM45.213 260.632C45.2023 259.981 44.9783 259.395 44.541 258.872C44.1037 258.339 43.4797 258.072 42.669 258.072C41.901 258.072 41.293 258.333 40.845 258.856C40.4077 259.379 40.173 259.971 40.141 260.632H45.213ZM45.261 253.8L42.557 256.104H41.645L44.013 253.8H45.261ZM51.7486 265.192C50.6073 265.192 49.6793 264.808 48.9646 264.04C48.25 263.261 47.8926 262.291 47.8926 261.128C47.8926 259.965 48.25 259 48.9646 258.232C49.6793 257.464 50.6073 257.08 51.7486 257.08C52.9433 257.08 53.8873 257.528 54.5806 258.424L53.7806 259.144C53.3006 258.483 52.6446 258.152 51.8126 258.152C51.0126 258.152 50.3673 258.435 49.8766 259C49.386 259.555 49.1406 260.264 49.1406 261.128C49.1406 262.003 49.386 262.723 49.8766 263.288C50.3673 263.843 51.0126 264.12 51.8126 264.12C52.6233 264.12 53.2793 263.784 53.7806 263.112L54.5806 263.848C53.8873 264.744 52.9433 265.192 51.7486 265.192ZM62.6941 265H61.5101V259.944C61.5101 259.293 61.3608 258.835 61.0621 258.568C60.7635 258.291 60.3315 258.152 59.7661 258.152C59.3181 258.152 58.8861 258.269 58.4701 258.504C58.0541 258.739 57.7235 259.021 57.4781 259.352V265H56.2781V257.272H57.4781V258.392C57.7768 258.029 58.1768 257.72 58.6781 257.464C59.1795 257.208 59.7021 257.08 60.2461 257.08C61.8781 257.08 62.6941 257.912 62.6941 259.576V265ZM66.2743 255.944C66.1249 256.093 65.9383 256.168 65.7143 256.168C65.4903 256.168 65.2983 256.093 65.1383 255.944C64.9783 255.784 64.8983 255.592 64.8983 255.368C64.8983 255.144 64.9783 254.952 65.1383 254.792C65.2983 254.632 65.4903 254.552 65.7143 254.552C65.9383 254.552 66.1249 254.632 66.2743 254.792C66.4343 254.952 66.5143 255.144 66.5143 255.368C66.5143 255.592 66.4343 255.784 66.2743 255.944ZM66.3063 265H65.1063V257.272H66.3063V265ZM72.108 265.192C70.9667 265.192 70.0387 264.808 69.324 264.04C68.6093 263.261 68.252 262.291 68.252 261.128C68.252 259.965 68.6093 259 69.324 258.232C70.0387 257.464 70.9667 257.08 72.108 257.08C73.3027 257.08 74.2467 257.528 74.94 258.424L74.14 259.144C73.66 258.483 73.004 258.152 72.172 258.152C71.372 258.152 70.7267 258.435 70.236 259C69.7453 259.555 69.5 260.264 69.5 261.128C69.5 262.003 69.7453 262.723 70.236 263.288C70.7267 263.843 71.372 264.12 72.172 264.12C72.9827 264.12 73.6387 263.784 74.14 263.112L74.94 263.848C74.2467 264.744 73.3027 265.192 72.108 265.192ZM82.7815 264.024C82.0882 264.803 81.1655 265.192 80.0135 265.192C78.8615 265.192 77.9335 264.803 77.2295 264.024C76.5362 263.245 76.1895 262.28 76.1895 261.128C76.1895 259.976 76.5362 259.016 77.2295 258.248C77.9335 257.469 78.8615 257.08 80.0135 257.08C81.1655 257.08 82.0882 257.469 82.7815 258.248C83.4855 259.016 83.8375 259.976 83.8375 261.128C83.8375 262.28 83.4855 263.245 82.7815 264.024ZM78.1415 263.256C78.6002 263.832 79.2242 264.12 80.0135 264.12C80.8028 264.12 81.4268 263.832 81.8855 263.256C82.3442 262.669 82.5735 261.96 82.5735 261.128C82.5735 260.296 82.3442 259.592 81.8855 259.016C81.4268 258.44 80.8028 258.152 80.0135 258.152C79.2242 258.152 78.6002 258.44 78.1415 259.016C77.6828 259.592 77.4535 260.296 77.4535 261.128C77.4535 261.96 77.6828 262.669 78.1415 263.256ZM91.6464 265.192C91.081 265.192 90.6544 265.037 90.3664 264.728C90.0784 264.419 89.9344 263.971 89.9344 263.384V254.328H91.1344V263.128C91.1344 263.427 91.1984 263.667 91.3264 263.848C91.465 264.029 91.6624 264.12 91.9184 264.12C92.2704 264.12 92.537 264.008 92.7184 263.784L93.0864 264.696C92.7237 265.027 92.2437 265.192 91.6464 265.192ZM101.031 265H99.8313V263.848C99.1699 264.744 98.3006 265.192 97.2233 265.192C96.1993 265.192 95.3673 264.829 94.7273 264.104C94.0979 263.368 93.7833 262.381 93.7833 261.144C93.7833 259.917 94.1033 258.936 94.7433 258.2C95.3833 257.453 96.2099 257.08 97.2233 257.08C98.2899 257.08 99.1593 257.533 99.8313 258.44V257.272H101.031V265ZM97.5273 264.12C97.9859 264.12 98.4286 264.003 98.8553 263.768C99.2926 263.523 99.6179 263.229 99.8313 262.888V259.4C99.6179 259.048 99.2926 258.755 98.8553 258.52C98.4286 258.275 97.9859 258.152 97.5273 258.152C96.7593 258.152 96.1513 258.435 95.7033 259C95.2553 259.555 95.0312 260.269 95.0312 261.144C95.0312 262.019 95.2553 262.733 95.7033 263.288C96.1513 263.843 96.7593 264.12 97.5273 264.12ZM104.634 262.904C104.848 263.245 105.168 263.533 105.594 263.768C106.032 264.003 106.485 264.12 106.954 264.12C107.712 264.12 108.314 263.843 108.762 263.288C109.21 262.733 109.434 262.019 109.434 261.144C109.434 260.269 109.21 259.555 108.762 259C108.314 258.435 107.712 258.152 106.954 258.152C106.485 258.152 106.032 258.275 105.594 258.52C105.168 258.755 104.848 259.048 104.634 259.4V262.904ZM104.634 265H103.434V254.328H104.634V258.44C105.306 257.533 106.176 257.08 107.242 257.08C108.266 257.08 109.093 257.453 109.722 258.2C110.362 258.936 110.682 259.917 110.682 261.144C110.682 262.381 110.362 263.368 109.722 264.104C109.093 264.829 108.266 265.192 107.242 265.192C106.165 265.192 105.296 264.744 104.634 263.848V265ZM118.782 264.024C118.088 264.803 117.166 265.192 116.014 265.192C114.862 265.192 113.934 264.803 113.23 264.024C112.536 263.245 112.19 262.28 112.19 261.128C112.19 259.976 112.536 259.016 113.23 258.248C113.934 257.469 114.862 257.08 116.014 257.08C117.166 257.08 118.088 257.469 118.782 258.248C119.486 259.016 119.838 259.976 119.838 261.128C119.838 262.28 119.486 263.245 118.782 264.024ZM114.142 263.256C114.6 263.832 115.224 264.12 116.014 264.12C116.803 264.12 117.427 263.832 117.886 263.256C118.344 262.669 118.574 261.96 118.574 261.128C118.574 260.296 118.344 259.592 117.886 259.016C117.427 258.44 116.803 258.152 116.014 258.152C115.224 258.152 114.6 258.44 114.142 259.016C113.683 259.592 113.454 260.296 113.454 261.128C113.454 261.96 113.683 262.669 114.142 263.256ZM122.994 265H121.794V257.272H122.994V258.504C123.73 257.565 124.588 257.096 125.57 257.096V258.328C125.378 258.307 125.223 258.296 125.106 258.296C124.732 258.296 124.332 258.424 123.906 258.68C123.479 258.925 123.175 259.208 122.994 259.528V265ZM133.875 265H132.675V263.848C132.014 264.744 131.144 265.192 130.067 265.192C129.043 265.192 128.211 264.829 127.571 264.104C126.942 263.368 126.627 262.381 126.627 261.144C126.627 259.917 126.947 258.936 127.587 258.2C128.227 257.453 129.054 257.08 130.067 257.08C131.134 257.08 132.003 257.533 132.675 258.44V257.272H133.875V265ZM130.371 264.12C130.83 264.12 131.272 264.003 131.699 263.768C132.136 263.523 132.462 263.229 132.675 262.888V259.4C132.462 259.048 132.136 258.755 131.699 258.52C131.272 258.275 130.83 258.152 130.371 258.152C129.603 258.152 128.995 258.435 128.547 259C128.099 259.555 127.875 260.269 127.875 261.144C127.875 262.019 128.099 262.733 128.547 263.288C128.995 263.843 129.603 264.12 130.371 264.12ZM137.99 265.192C137.425 265.192 136.998 265.037 136.71 264.728C136.422 264.419 136.278 263.971 136.278 263.384V254.328H137.478V263.128C137.478 263.427 137.542 263.667 137.67 263.848C137.809 264.029 138.006 264.12 138.262 264.12C138.614 264.12 138.881 264.008 139.062 263.784L139.43 264.696C139.067 265.027 138.587 265.192 137.99 265.192Z" fill="#505050"/>
<path d="M5.216 226H3.888V216.512H0.512V215.328H8.608V216.512H5.216V226ZM13.829 226.192C12.6663 226.192 11.717 225.819 10.981 225.072C10.245 224.315 9.877 223.333 9.877 222.128C9.877 220.997 10.2397 220.043 10.965 219.264C11.6903 218.475 12.597 218.08 13.685 218.08C14.8263 218.08 15.7277 218.475 16.389 219.264C17.061 220.043 17.397 221.029 17.397 222.224V222.528H11.157C11.2103 223.285 11.4823 223.92 11.973 224.432C12.4743 224.944 13.125 225.2 13.925 225.2C14.885 225.2 15.685 224.869 16.325 224.208L16.901 224.992C16.0797 225.792 15.0557 226.192 13.829 226.192ZM16.213 221.632C16.2023 220.981 15.9783 220.395 15.541 219.872C15.1037 219.339 14.4797 219.072 13.669 219.072C12.901 219.072 12.293 219.333 11.845 219.856C11.4077 220.379 11.173 220.971 11.141 221.632H16.213ZM16.261 214.8L13.557 217.104H12.645L15.013 214.8H16.261ZM22.7486 226.192C21.6073 226.192 20.6793 225.808 19.9646 225.04C19.25 224.261 18.8926 223.291 18.8926 222.128C18.8926 220.965 19.25 220 19.9646 219.232C20.6793 218.464 21.6073 218.08 22.7486 218.08C23.9433 218.08 24.8873 218.528 25.5806 219.424L24.7806 220.144C24.3006 219.483 23.6446 219.152 22.8126 219.152C22.0126 219.152 21.3673 219.435 20.8766 220C20.386 220.555 20.1406 221.264 20.1406 222.128C20.1406 223.003 20.386 223.723 20.8766 224.288C21.3673 224.843 22.0126 225.12 22.8126 225.12C23.6233 225.12 24.2793 224.784 24.7806 224.112L25.5806 224.848C24.8873 225.744 23.9433 226.192 22.7486 226.192ZM33.6941 226H32.5101V220.944C32.5101 220.293 32.3608 219.835 32.0621 219.568C31.7635 219.291 31.3315 219.152 30.7661 219.152C30.3181 219.152 29.8861 219.269 29.4701 219.504C29.0541 219.739 28.7235 220.021 28.4781 220.352V226H27.2781V218.272H28.4781V219.392C28.7768 219.029 29.1768 218.72 29.6781 218.464C30.1795 218.208 30.7021 218.08 31.2461 218.08C32.8781 218.08 33.6941 218.912 33.6941 220.576V226ZM37.2743 216.944C37.1249 217.093 36.9383 217.168 36.7143 217.168C36.4903 217.168 36.2983 217.093 36.1383 216.944C35.9783 216.784 35.8983 216.592 35.8983 216.368C35.8983 216.144 35.9783 215.952 36.1383 215.792C36.2983 215.632 36.4903 215.552 36.7143 215.552C36.9383 215.552 37.1249 215.632 37.2743 215.792C37.4343 215.952 37.5143 216.144 37.5143 216.368C37.5143 216.592 37.4343 216.784 37.2743 216.944ZM37.3063 226H36.1063V218.272H37.3063V226ZM43.108 226.192C41.9667 226.192 41.0387 225.808 40.324 225.04C39.6093 224.261 39.252 223.291 39.252 222.128C39.252 220.965 39.6093 220 40.324 219.232C41.0387 218.464 41.9667 218.08 43.108 218.08C44.3027 218.08 45.2467 218.528 45.94 219.424L45.14 220.144C44.66 219.483 44.004 219.152 43.172 219.152C42.372 219.152 41.7267 219.435 41.236 220C40.7453 220.555 40.5 221.264 40.5 222.128C40.5 223.003 40.7453 223.723 41.236 224.288C41.7267 224.843 42.372 225.12 43.172 225.12C43.9827 225.12 44.6387 224.784 45.14 224.112L45.94 224.848C45.2467 225.744 44.3027 226.192 43.108 226.192ZM53.7815 225.024C53.0882 225.803 52.1655 226.192 51.0135 226.192C49.8615 226.192 48.9335 225.803 48.2295 225.024C47.5362 224.245 47.1895 223.28 47.1895 222.128C47.1895 220.976 47.5362 220.016 48.2295 219.248C48.9335 218.469 49.8615 218.08 51.0135 218.08C52.1655 218.08 53.0882 218.469 53.7815 219.248C54.4855 220.016 54.8375 220.976 54.8375 222.128C54.8375 223.28 54.4855 224.245 53.7815 225.024ZM49.1415 224.256C49.6002 224.832 50.2242 225.12 51.0135 225.12C51.8028 225.12 52.4268 224.832 52.8855 224.256C53.3442 223.669 53.5735 222.96 53.5735 222.128C53.5735 221.296 53.3442 220.592 52.8855 220.016C52.4268 219.44 51.8028 219.152 51.0135 219.152C50.2242 219.152 49.6002 219.44 49.1415 220.016C48.6828 220.592 48.4535 221.296 48.4535 222.128C48.4535 222.96 48.6828 223.669 49.1415 224.256ZM64.7424 226.192C63.6864 226.192 62.817 225.739 62.1344 224.832V228.944H60.9344V218.272H62.1344V219.424C62.4224 219.019 62.7957 218.693 63.2544 218.448C63.713 218.203 64.209 218.08 64.7424 218.08C65.7664 218.08 66.593 218.448 67.2224 219.184C67.8624 219.909 68.1824 220.891 68.1824 222.128C68.1824 223.365 67.8624 224.352 67.2224 225.088C66.593 225.824 65.7664 226.192 64.7424 226.192ZM64.4384 225.12C65.1957 225.12 65.7984 224.843 66.2464 224.288C66.6944 223.723 66.9184 223.003 66.9184 222.128C66.9184 221.253 66.6944 220.539 66.2464 219.984C65.7984 219.429 65.1957 219.152 64.4384 219.152C63.9797 219.152 63.5317 219.275 63.0944 219.52C62.6677 219.755 62.3477 220.043 62.1344 220.384V223.872C62.3477 224.224 62.6677 224.523 63.0944 224.768C63.5317 225.003 63.9797 225.12 64.4384 225.12ZM71.2906 226H70.0906V218.272H71.2906V219.504C72.0266 218.565 72.8853 218.096 73.8666 218.096V219.328C73.6746 219.307 73.52 219.296 73.4026 219.296C73.0293 219.296 72.6293 219.424 72.2026 219.68C71.776 219.925 71.472 220.208 71.2906 220.528V226ZM81.5159 225.024C80.8225 225.803 79.8999 226.192 78.7479 226.192C77.5959 226.192 76.6679 225.803 75.9639 225.024C75.2705 224.245 74.9239 223.28 74.9239 222.128C74.9239 220.976 75.2705 220.016 75.9639 219.248C76.6679 218.469 77.5959 218.08 78.7479 218.08C79.8999 218.08 80.8225 218.469 81.5159 219.248C82.2199 220.016 82.5719 220.976 82.5719 222.128C82.5719 223.28 82.2199 224.245 81.5159 225.024ZM76.8759 224.256C77.3345 224.832 77.9585 225.12 78.7479 225.12C79.5372 225.12 80.1612 224.832 80.6199 224.256C81.0785 223.669 81.3079 222.96 81.3079 222.128C81.3079 221.296 81.0785 220.592 80.6199 220.016C80.1612 219.44 79.5372 219.152 78.7479 219.152C77.9585 219.152 77.3345 219.44 76.8759 220.016C76.4172 220.592 76.1879 221.296 76.1879 222.128C76.1879 222.96 76.4172 223.669 76.8759 224.256ZM86.0641 226H84.8641V219.328H83.5841V218.272H84.8641V217.68C84.8641 216.891 85.0668 216.277 85.4721 215.84C85.8881 215.392 86.4321 215.168 87.1041 215.168C87.5841 215.168 87.9788 215.253 88.2881 215.424L87.9841 216.336C87.7815 216.219 87.5521 216.16 87.2961 216.16C86.4748 216.16 86.0641 216.667 86.0641 217.68V218.272H87.6321V219.328H86.0641V226ZM92.579 226.192C91.4163 226.192 90.467 225.819 89.731 225.072C88.995 224.315 88.627 223.333 88.627 222.128C88.627 220.997 88.9897 220.043 89.715 219.264C90.4403 218.475 91.347 218.08 92.435 218.08C93.5763 218.08 94.4777 218.475 95.139 219.264C95.811 220.043 96.147 221.029 96.147 222.224V222.528H89.907C89.9603 223.285 90.2323 223.92 90.723 224.432C91.2243 224.944 91.875 225.2 92.675 225.2C93.635 225.2 94.435 224.869 95.075 224.208L95.651 224.992C94.8297 225.792 93.8057 226.192 92.579 226.192ZM94.963 221.632C94.9523 220.981 94.7283 220.395 94.291 219.872C93.8537 219.339 93.2297 219.072 92.419 219.072C91.651 219.072 91.043 219.333 90.595 219.856C90.1577 220.379 89.923 220.971 89.891 221.632H94.963ZM100.555 226.192C99.2533 226.192 98.2133 225.787 97.4346 224.976L98.0426 224.112C98.3093 224.421 98.672 224.683 99.1306 224.896C99.6 225.109 100.085 225.216 100.587 225.216C101.163 225.216 101.611 225.093 101.931 224.848C102.261 224.603 102.427 224.283 102.427 223.888C102.427 223.547 102.261 223.28 101.931 223.088C101.6 222.885 101.2 222.736 100.731 222.64C100.261 222.533 99.792 222.416 99.3226 222.288C98.864 222.149 98.4693 221.92 98.1386 221.6C97.808 221.269 97.6426 220.837 97.6426 220.304C97.6426 219.675 97.8986 219.147 98.4106 218.72C98.9226 218.293 99.6213 218.08 100.507 218.08C101.691 218.08 102.645 218.453 103.371 219.2L102.811 220.032C102.267 219.381 101.499 219.056 100.507 219.056C99.984 219.056 99.568 219.173 99.2586 219.408C98.9493 219.632 98.7946 219.92 98.7946 220.272C98.7946 220.528 98.912 220.741 99.1466 220.912C99.3813 221.083 99.6746 221.205 100.027 221.28C100.389 221.355 100.773 221.451 101.179 221.568C101.595 221.685 101.979 221.819 102.331 221.968C102.693 222.107 102.992 222.341 103.227 222.672C103.461 222.992 103.579 223.387 103.579 223.856C103.579 224.539 103.312 225.099 102.779 225.536C102.256 225.973 101.515 226.192 100.555 226.192ZM106.696 216.944C106.547 217.093 106.36 217.168 106.136 217.168C105.912 217.168 105.72 217.093 105.56 216.944C105.4 216.784 105.32 216.592 105.32 216.368C105.32 216.144 105.4 215.952 105.56 215.792C105.72 215.632 105.912 215.552 106.136 215.552C106.36 215.552 106.547 215.632 106.696 215.792C106.856 215.952 106.936 216.144 106.936 216.368C106.936 216.592 106.856 216.784 106.696 216.944ZM106.728 226H105.528V218.272H106.728V226ZM115.266 225.024C114.573 225.803 113.65 226.192 112.498 226.192C111.346 226.192 110.418 225.803 109.714 225.024C109.021 224.245 108.674 223.28 108.674 222.128C108.674 220.976 109.021 220.016 109.714 219.248C110.418 218.469 111.346 218.08 112.498 218.08C113.65 218.08 114.573 218.469 115.266 219.248C115.97 220.016 116.322 220.976 116.322 222.128C116.322 223.28 115.97 224.245 115.266 225.024ZM110.626 224.256C111.085 224.832 111.709 225.12 112.498 225.12C113.287 225.12 113.911 224.832 114.37 224.256C114.829 223.669 115.058 222.96 115.058 222.128C115.058 221.296 114.829 220.592 114.37 220.016C113.911 219.44 113.287 219.152 112.498 219.152C111.709 219.152 111.085 219.44 110.626 220.016C110.167 220.592 109.938 221.296 109.938 222.128C109.938 222.96 110.167 223.669 110.626 224.256ZM124.694 226H123.51V220.944C123.51 220.293 123.361 219.835 123.062 219.568C122.763 219.291 122.331 219.152 121.766 219.152C121.318 219.152 120.886 219.269 120.47 219.504C120.054 219.739 119.723 220.021 119.478 220.352V226H118.278V218.272H119.478V219.392C119.777 219.029 120.177 218.72 120.678 218.464C121.179 218.208 121.702 218.08 122.246 218.08C123.878 218.08 124.694 218.912 124.694 220.576V226ZM133.906 226H132.706V224.848C132.045 225.744 131.176 226.192 130.098 226.192C129.074 226.192 128.242 225.829 127.602 225.104C126.973 224.368 126.658 223.381 126.658 222.144C126.658 220.917 126.978 219.936 127.618 219.2C128.258 218.453 129.085 218.08 130.098 218.08C131.165 218.08 132.034 218.533 132.706 219.44V218.272H133.906V226ZM130.402 225.12C130.861 225.12 131.304 225.003 131.73 224.768C132.168 224.523 132.493 224.229 132.706 223.888V220.4C132.493 220.048 132.168 219.755 131.73 219.52C131.304 219.275 130.861 219.152 130.402 219.152C129.634 219.152 129.026 219.435 128.578 220C128.13 220.555 127.906 221.269 127.906 222.144C127.906 223.019 128.13 223.733 128.578 224.288C129.026 224.843 129.634 225.12 130.402 225.12ZM138.021 226.192C137.456 226.192 137.029 226.037 136.741 225.728C136.453 225.419 136.309 224.971 136.309 224.384V215.328H137.509V224.128C137.509 224.427 137.573 224.667 137.701 224.848C137.84 225.029 138.037 225.12 138.293 225.12C138.645 225.12 138.912 225.008 139.093 224.784L139.461 225.696C139.099 226.027 138.619 226.192 138.021 226.192Z" fill="#505050"/>
<path d="M59.216 187H57.888V177.512H54.512V176.328H62.608V177.512H59.216V187ZM65.9852 187.192C64.8226 187.192 63.8733 186.819 63.1373 186.072C62.4013 185.315 62.0333 184.333 62.0333 183.128C62.0333 181.997 62.3959 181.043 63.1213 180.264C63.8466 179.475 64.7533 179.08 65.8413 179.08C66.9826 179.08 67.8839 179.475 68.5453 180.264C69.2173 181.043 69.5533 182.029 69.5533 183.224V183.528H63.3133C63.3666 184.285 63.6386 184.92 64.1293 185.432C64.6306 185.944 65.2813 186.2 66.0813 186.2C67.0413 186.2 67.8413 185.869 68.4813 185.208L69.0573 185.992C68.2359 186.792 67.2119 187.192 65.9852 187.192ZM68.3693 182.632C68.3586 181.981 68.1346 181.395 67.6973 180.872C67.2599 180.339 66.6359 180.072 65.8253 180.072C65.0573 180.072 64.4493 180.333 64.0013 180.856C63.5639 181.379 63.3293 181.971 63.2973 182.632H68.3693ZM74.9049 187.192C73.7635 187.192 72.8355 186.808 72.1209 186.04C71.4062 185.261 71.0489 184.291 71.0489 183.128C71.0489 181.965 71.4062 181 72.1209 180.232C72.8355 179.464 73.7635 179.08 74.9049 179.08C76.0995 179.08 77.0435 179.528 77.7369 180.424L76.9369 181.144C76.4569 180.483 75.8009 180.152 74.9689 180.152C74.1689 180.152 73.5235 180.435 73.0329 181C72.5422 181.555 72.2969 182.264 72.2969 183.128C72.2969 184.003 72.5422 184.723 73.0329 185.288C73.5235 185.843 74.1689 186.12 74.9689 186.12C75.7795 186.12 76.4355 185.784 76.9369 185.112L77.7369 185.848C77.0435 186.744 76.0995 187.192 74.9049 187.192ZM85.8504 187H84.6664V181.944C84.6664 181.293 84.517 180.835 84.2184 180.568C83.9197 180.291 83.4877 180.152 82.9224 180.152C82.4744 180.152 82.0424 180.269 81.6264 180.504C81.2104 180.739 80.8797 181.021 80.6344 181.352V187H79.4344V179.272H80.6344V180.392C80.933 180.029 81.333 179.72 81.8344 179.464C82.3357 179.208 82.8584 179.08 83.4024 179.08C85.0344 179.08 85.8504 179.912 85.8504 181.576V187ZM94.4065 186.024C93.7132 186.803 92.7905 187.192 91.6385 187.192C90.4865 187.192 89.5585 186.803 88.8545 186.024C88.1612 185.245 87.8145 184.28 87.8145 183.128C87.8145 181.976 88.1612 181.016 88.8545 180.248C89.5585 179.469 90.4865 179.08 91.6385 179.08C92.7905 179.08 93.7132 179.469 94.4065 180.248C95.1105 181.016 95.4625 181.976 95.4625 183.128C95.4625 184.28 95.1105 185.245 94.4065 186.024ZM89.7665 185.256C90.2252 185.832 90.8492 186.12 91.6385 186.12C92.4278 186.12 93.0518 185.832 93.5105 185.256C93.9692 184.669 94.1985 183.96 94.1985 183.128C94.1985 182.296 93.9692 181.592 93.5105 181.016C93.0518 180.44 92.4278 180.152 91.6385 180.152C90.8492 180.152 90.2252 180.44 89.7665 181.016C89.3078 181.592 89.0785 182.296 89.0785 183.128C89.0785 183.96 89.3078 184.669 89.7665 185.256ZM99.1308 187.192C98.5654 187.192 98.1388 187.037 97.8508 186.728C97.5628 186.419 97.4188 185.971 97.4188 185.384V176.328H98.6188V185.128C98.6188 185.427 98.6828 185.667 98.8108 185.848C98.9494 186.029 99.1468 186.12 99.4028 186.12C99.7548 186.12 100.021 186.008 100.203 185.784L100.571 186.696C100.208 187.027 99.7281 187.192 99.1308 187.192ZM107.86 186.024C107.166 186.803 106.244 187.192 105.092 187.192C103.94 187.192 103.012 186.803 102.308 186.024C101.614 185.245 101.268 184.28 101.268 183.128C101.268 181.976 101.614 181.016 102.308 180.248C103.012 179.469 103.94 179.08 105.092 179.08C106.244 179.08 107.166 179.469 107.86 180.248C108.564 181.016 108.916 181.976 108.916 183.128C108.916 184.28 108.564 185.245 107.86 186.024ZM103.22 185.256C103.678 185.832 104.302 186.12 105.092 186.12C105.881 186.12 106.505 185.832 106.964 185.256C107.422 184.669 107.652 183.96 107.652 183.128C107.652 182.296 107.422 181.592 106.964 181.016C106.505 180.44 105.881 180.152 105.092 180.152C104.302 180.152 103.678 180.44 103.22 181.016C102.761 181.592 102.532 182.296 102.532 183.128C102.532 183.96 102.761 184.669 103.22 185.256ZM107.652 175.8L104.948 178.104H104.036L106.404 175.8H107.652ZM113.976 190.136C113.304 190.136 112.728 190.051 112.248 189.88C111.768 189.709 111.304 189.405 110.856 188.968L111.464 188.104C112.051 188.797 112.888 189.144 113.976 189.144C114.68 189.144 115.272 188.957 115.752 188.584C116.232 188.221 116.472 187.656 116.472 186.888V185.72C116.173 186.136 115.795 186.472 115.336 186.728C114.877 186.973 114.387 187.096 113.864 187.096C112.84 187.096 112.008 186.739 111.368 186.024C110.739 185.299 110.424 184.323 110.424 183.096C110.424 181.869 110.739 180.893 111.368 180.168C112.008 179.443 112.84 179.08 113.864 179.08C114.931 179.08 115.8 179.533 116.472 180.44V179.272H117.672V186.888C117.672 188.019 117.32 188.84 116.616 189.352C115.923 189.875 115.043 190.136 113.976 190.136ZM114.168 186.024C114.627 186.024 115.069 185.907 115.496 185.672C115.923 185.427 116.248 185.128 116.472 184.776V181.384C116.248 181.043 115.923 180.755 115.496 180.52C115.069 180.275 114.627 180.152 114.168 180.152C113.4 180.152 112.792 180.424 112.344 180.968C111.896 181.512 111.672 182.221 111.672 183.096C111.672 183.96 111.896 184.664 112.344 185.208C112.792 185.752 113.4 186.024 114.168 186.024ZM121.243 177.944C121.094 178.093 120.907 178.168 120.683 178.168C120.459 178.168 120.267 178.093 120.107 177.944C119.947 177.784 119.867 177.592 119.867 177.368C119.867 177.144 119.947 176.952 120.107 176.792C120.267 176.632 120.459 176.552 120.683 176.552C120.907 176.552 121.094 176.632 121.243 176.792C121.403 176.952 121.483 177.144 121.483 177.368C121.483 177.592 121.403 177.784 121.243 177.944ZM121.275 187H120.075V179.272H121.275V187ZM127.077 187.192C125.935 187.192 125.007 186.808 124.293 186.04C123.578 185.261 123.221 184.291 123.221 183.128C123.221 181.965 123.578 181 124.293 180.232C125.007 179.464 125.935 179.08 127.077 179.08C128.271 179.08 129.215 179.528 129.909 180.424L129.109 181.144C128.629 180.483 127.973 180.152 127.141 180.152C126.341 180.152 125.695 180.435 125.205 181C124.714 181.555 124.469 182.264 124.469 183.128C124.469 184.003 124.714 184.723 125.205 185.288C125.695 185.843 126.341 186.12 127.141 186.12C127.951 186.12 128.607 185.784 129.109 185.112L129.909 185.848C129.215 186.744 128.271 187.192 127.077 187.192ZM138.406 187H137.206V185.848C136.545 186.744 135.676 187.192 134.598 187.192C133.574 187.192 132.742 186.829 132.102 186.104C131.473 185.368 131.158 184.381 131.158 183.144C131.158 181.917 131.478 180.936 132.118 180.2C132.758 179.453 133.585 179.08 134.598 179.08C135.665 179.08 136.534 179.533 137.206 180.44V179.272H138.406V187ZM134.902 186.12C135.361 186.12 135.804 186.003 136.23 185.768C136.668 185.523 136.993 185.229 137.206 184.888V181.4C136.993 181.048 136.668 180.755 136.23 180.52C135.804 180.275 135.361 180.152 134.902 180.152C134.134 180.152 133.526 180.435 133.078 181C132.63 181.555 132.406 182.269 132.406 183.144C132.406 184.019 132.63 184.733 133.078 185.288C133.526 185.843 134.134 186.12 134.902 186.12Z" fill="#505050"/>
<path d="M56.6 148.192C55.192 148.192 54.1147 147.808 53.368 147.04C52.6213 146.261 52.248 145.2 52.248 143.856V137.328H53.592V143.824C53.592 144.816 53.848 145.595 54.36 146.16C54.8827 146.725 55.6293 147.008 56.6 147.008C57.5707 147.008 58.3173 146.725 58.84 146.16C59.3627 145.595 59.624 144.816 59.624 143.824V137.328H60.968V143.84C60.968 145.195 60.5947 146.261 59.848 147.04C59.1013 147.808 58.0187 148.192 56.6 148.192ZM69.8348 148H68.6508V142.944C68.6508 142.293 68.5014 141.835 68.2028 141.568C67.9041 141.291 67.4721 141.152 66.9068 141.152C66.4588 141.152 66.0268 141.269 65.6108 141.504C65.1948 141.739 64.8641 142.021 64.6188 142.352V148H63.4188V140.272H64.6188V141.392C64.9174 141.029 65.3174 140.72 65.8188 140.464C66.3201 140.208 66.8428 140.08 67.3868 140.08C69.0188 140.08 69.8348 140.912 69.8348 142.576V148ZM73.4149 138.944C73.2655 139.093 73.0789 139.168 72.8549 139.168C72.6309 139.168 72.4389 139.093 72.2789 138.944C72.1189 138.784 72.0389 138.592 72.0389 138.368C72.0389 138.144 72.1189 137.952 72.2789 137.792C72.4389 137.632 72.6309 137.552 72.8549 137.552C73.0789 137.552 73.2655 137.632 73.4149 137.792C73.5749 137.952 73.6549 138.144 73.6549 138.368C73.6549 138.592 73.5749 138.784 73.4149 138.944ZM73.4469 148H72.2469V140.272H73.4469V148ZM79.2166 148H77.9046L74.6886 140.272H76.0006L78.5606 146.608L81.1366 140.272H82.4326L79.2166 148ZM87.1884 148.192C86.0257 148.192 85.0764 147.819 84.3404 147.072C83.6044 146.315 83.2364 145.333 83.2364 144.128C83.2364 142.997 83.599 142.043 84.3244 141.264C85.0497 140.475 85.9564 140.08 87.0444 140.08C88.1857 140.08 89.087 140.475 89.7484 141.264C90.4204 142.043 90.7564 143.029 90.7564 144.224V144.528H84.5164C84.5697 145.285 84.8417 145.92 85.3324 146.432C85.8337 146.944 86.4844 147.2 87.2844 147.2C88.2444 147.2 89.0444 146.869 89.6844 146.208L90.2604 146.992C89.439 147.792 88.415 148.192 87.1884 148.192ZM89.5724 143.632C89.5617 142.981 89.3377 142.395 88.9004 141.872C88.463 141.339 87.839 141.072 87.0284 141.072C86.2604 141.072 85.6524 141.333 85.2044 141.856C84.767 142.379 84.5324 142.971 84.5004 143.632H89.5724ZM93.9 148H92.7V140.272H93.9V141.504C94.636 140.565 95.4947 140.096 96.476 140.096V141.328C96.284 141.307 96.1293 141.296 96.012 141.296C95.6387 141.296 95.2387 141.424 94.812 141.68C94.3853 141.925 94.0813 142.208 93.9 142.528V148ZM100.445 148.192C99.1439 148.192 98.1039 147.787 97.3253 146.976L97.9333 146.112C98.1999 146.421 98.5626 146.683 99.0213 146.896C99.4906 147.109 99.9759 147.216 100.477 147.216C101.053 147.216 101.501 147.093 101.821 146.848C102.152 146.603 102.317 146.283 102.317 145.888C102.317 145.547 102.152 145.28 101.821 145.088C101.491 144.885 101.091 144.736 100.621 144.64C100.152 144.533 99.6826 144.416 99.2133 144.288C98.7546 144.149 98.3599 143.92 98.0293 143.6C97.6986 143.269 97.5333 142.837 97.5333 142.304C97.5333 141.675 97.7893 141.147 98.3013 140.72C98.8133 140.293 99.5119 140.08 100.397 140.08C101.581 140.08 102.536 140.453 103.261 141.2L102.701 142.032C102.157 141.381 101.389 141.056 100.397 141.056C99.8746 141.056 99.4586 141.173 99.1493 141.408C98.8399 141.632 98.6853 141.92 98.6853 142.272C98.6853 142.528 98.8026 142.741 99.0373 142.912C99.2719 143.083 99.5653 143.205 99.9173 143.28C100.28 143.355 100.664 143.451 101.069 143.568C101.485 143.685 101.869 143.819 102.221 143.968C102.584 144.107 102.883 144.341 103.117 144.672C103.352 144.992 103.469 145.387 103.469 145.856C103.469 146.539 103.203 147.099 102.669 147.536C102.147 147.973 101.405 148.192 100.445 148.192ZM106.587 138.944C106.437 139.093 106.251 139.168 106.027 139.168C105.803 139.168 105.611 139.093 105.451 138.944C105.291 138.784 105.211 138.592 105.211 138.368C105.211 138.144 105.291 137.952 105.451 137.792C105.611 137.632 105.803 137.552 106.027 137.552C106.251 137.552 106.437 137.632 106.587 137.792C106.747 137.952 106.827 138.144 106.827 138.368C106.827 138.592 106.747 138.784 106.587 138.944ZM106.619 148H105.419V140.272H106.619V148ZM110.981 148.192C109.829 148.192 109.253 147.589 109.253 146.384V141.328H107.973V140.272H109.253V138.16H110.469V140.272H112.036V141.328H110.469V146.128C110.469 146.427 110.533 146.667 110.661 146.848C110.799 147.029 110.991 147.12 111.237 147.12C111.578 147.12 111.85 147.008 112.053 146.784L112.405 147.696C112.053 148.027 111.578 148.192 110.981 148.192ZM120.516 148H119.316V146.848C118.654 147.744 117.785 148.192 116.708 148.192C115.684 148.192 114.852 147.829 114.212 147.104C113.582 146.368 113.268 145.381 113.268 144.144C113.268 142.917 113.588 141.936 114.228 141.2C114.868 140.453 115.694 140.08 116.708 140.08C117.774 140.08 118.644 140.533 119.316 141.44V140.272H120.516V148ZM117.012 147.12C117.47 147.12 117.913 147.003 118.34 146.768C118.777 146.523 119.102 146.229 119.316 145.888V142.4C119.102 142.048 118.777 141.755 118.34 141.52C117.913 141.275 117.47 141.152 117.012 141.152C116.244 141.152 115.636 141.435 115.188 142C114.74 142.555 114.516 143.269 114.516 144.144C114.516 145.019 114.74 145.733 115.188 146.288C115.636 146.843 116.244 147.12 117.012 147.12ZM124.119 148H122.919V140.272H124.119V141.504C124.855 140.565 125.713 140.096 126.695 140.096V141.328C126.503 141.307 126.348 141.296 126.231 141.296C125.857 141.296 125.457 141.424 125.031 141.68C124.604 141.925 124.3 142.208 124.119 142.528V148ZM129.368 138.944C129.219 139.093 129.032 139.168 128.808 139.168C128.584 139.168 128.392 139.093 128.232 138.944C128.072 138.784 127.992 138.592 127.992 138.368C127.992 138.144 128.072 137.952 128.232 137.792C128.392 137.632 128.584 137.552 128.808 137.552C129.032 137.552 129.219 137.632 129.368 137.792C129.528 137.952 129.608 138.144 129.608 138.368C129.608 138.592 129.528 138.784 129.368 138.944ZM129.4 148H128.2V140.272H129.4V148ZM138.594 148H137.394V146.848C136.732 147.744 135.863 148.192 134.786 148.192C133.762 148.192 132.93 147.829 132.29 147.104C131.66 146.368 131.346 145.381 131.346 144.144C131.346 142.917 131.666 141.936 132.306 141.2C132.946 140.453 133.772 140.08 134.786 140.08C135.852 140.08 136.722 140.533 137.394 141.44V140.272H138.594V148ZM135.09 147.12C135.548 147.12 135.991 147.003 136.418 146.768C136.855 146.523 137.18 146.229 137.394 145.888V142.4C137.18 142.048 136.855 141.755 136.418 141.52C135.991 141.275 135.548 141.152 135.09 141.152C134.322 141.152 133.714 141.435 133.266 142C132.818 142.555 132.594 143.269 132.594 144.144C132.594 145.019 132.818 145.733 133.266 146.288C133.714 146.843 134.322 147.12 135.09 147.12Z" fill="#505050"/>
<path d="M38.24 109H31.248V98.328H38.24V99.512H32.576V102.952H38.128V104.136H32.576V107.816H38.24V109ZM42.7734 109.192C41.472 109.192 40.432 108.787 39.6534 107.976L40.2614 107.112C40.528 107.421 40.8907 107.683 41.3494 107.896C41.8187 108.109 42.304 108.216 42.8054 108.216C43.3814 108.216 43.8294 108.093 44.1494 107.848C44.48 107.603 44.6454 107.283 44.6454 106.888C44.6454 106.547 44.48 106.28 44.1494 106.088C43.8187 105.885 43.4187 105.736 42.9494 105.64C42.48 105.533 42.0107 105.416 41.5414 105.288C41.0827 105.149 40.688 104.92 40.3574 104.6C40.0267 104.269 39.8614 103.837 39.8614 103.304C39.8614 102.675 40.1174 102.147 40.6294 101.72C41.1414 101.293 41.84 101.08 42.7254 101.08C43.9094 101.08 44.864 101.453 45.5894 102.2L45.0294 103.032C44.4854 102.381 43.7174 102.056 42.7254 102.056C42.2027 102.056 41.7867 102.173 41.4774 102.408C41.168 102.632 41.0134 102.92 41.0134 103.272C41.0134 103.528 41.1307 103.741 41.3654 103.912C41.6 104.083 41.8934 104.205 42.2454 104.28C42.608 104.355 42.992 104.451 43.3974 104.568C43.8134 104.685 44.1974 104.819 44.5494 104.968C44.912 105.107 45.2107 105.341 45.4454 105.672C45.68 105.992 45.7974 106.387 45.7974 106.856C45.7974 107.539 45.5307 108.099 44.9974 108.536C44.4747 108.973 43.7334 109.192 42.7734 109.192ZM51.5549 109.192C50.4989 109.192 49.6295 108.739 48.9469 107.832V111.944H47.7469V101.272H48.9469V102.424C49.2349 102.019 49.6082 101.693 50.0669 101.448C50.5255 101.203 51.0215 101.08 51.5549 101.08C52.5789 101.08 53.4055 101.448 54.0349 102.184C54.6749 102.909 54.9949 103.891 54.9949 105.128C54.9949 106.365 54.6749 107.352 54.0349 108.088C53.4055 108.824 52.5789 109.192 51.5549 109.192ZM51.2509 108.12C52.0082 108.12 52.6109 107.843 53.0589 107.288C53.5069 106.723 53.7309 106.003 53.7309 105.128C53.7309 104.253 53.5069 103.539 53.0589 102.984C52.6109 102.429 52.0082 102.152 51.2509 102.152C50.7922 102.152 50.3442 102.275 49.9069 102.52C49.4802 102.755 49.1602 103.043 48.9469 103.384V106.872C49.1602 107.224 49.4802 107.523 49.9069 107.768C50.3442 108.003 50.7922 108.12 51.2509 108.12ZM60.4071 109.192C59.2445 109.192 58.2951 108.819 57.5591 108.072C56.8231 107.315 56.4551 106.333 56.4551 105.128C56.4551 103.997 56.8178 103.043 57.5431 102.264C58.2685 101.475 59.1751 101.08 60.2631 101.08C61.4045 101.08 62.3058 101.475 62.9671 102.264C63.6391 103.043 63.9751 104.029 63.9751 105.224V105.528H57.7351C57.7885 106.285 58.0605 106.92 58.5511 107.432C59.0525 107.944 59.7031 108.2 60.5031 108.2C61.4631 108.2 62.2631 107.869 62.9031 107.208L63.4791 107.992C62.6578 108.792 61.6338 109.192 60.4071 109.192ZM62.7911 104.632C62.7805 103.981 62.5565 103.395 62.1191 102.872C61.6818 102.339 61.0578 102.072 60.2471 102.072C59.4791 102.072 58.8711 102.333 58.4231 102.856C57.9858 103.379 57.7511 103.971 57.7191 104.632H62.7911ZM69.3268 109.192C68.1854 109.192 67.2574 108.808 66.5428 108.04C65.8281 107.261 65.4708 106.291 65.4708 105.128C65.4708 103.965 65.8281 103 66.5428 102.232C67.2574 101.464 68.1854 101.08 69.3268 101.08C70.5214 101.08 71.4654 101.528 72.1588 102.424L71.3588 103.144C70.8788 102.483 70.2228 102.152 69.3908 102.152C68.5908 102.152 67.9454 102.435 67.4548 103C66.9641 103.555 66.7188 104.264 66.7188 105.128C66.7188 106.003 66.9641 106.723 67.4548 107.288C67.9454 107.843 68.5908 108.12 69.3908 108.12C70.2014 108.12 70.8574 107.784 71.3588 107.112L72.1588 107.848C71.4654 108.744 70.5214 109.192 69.3268 109.192ZM75.0243 99.944C74.8749 100.093 74.6883 100.168 74.4643 100.168C74.2403 100.168 74.0483 100.093 73.8883 99.944C73.7283 99.784 73.6483 99.592 73.6483 99.368C73.6483 99.144 73.7283 98.952 73.8883 98.792C74.0483 98.632 74.2403 98.552 74.4643 98.552C74.6883 98.552 74.8749 98.632 75.0243 98.792C75.1843 98.952 75.2643 99.144 75.2643 99.368C75.2643 99.592 75.1843 99.784 75.0243 99.944ZM75.0563 109H73.8563V101.272H75.0563V109ZM84.25 109H83.05V107.848C82.3887 108.744 81.5193 109.192 80.442 109.192C79.418 109.192 78.586 108.829 77.946 108.104C77.3167 107.368 77.002 106.381 77.002 105.144C77.002 103.917 77.322 102.936 77.962 102.2C78.602 101.453 79.4287 101.08 80.442 101.08C81.5087 101.08 82.378 101.533 83.05 102.44V101.272H84.25V109ZM80.746 108.12C81.2047 108.12 81.6473 108.003 82.074 107.768C82.5113 107.523 82.8367 107.229 83.05 106.888V103.4C82.8367 103.048 82.5113 102.755 82.074 102.52C81.6473 102.275 81.2047 102.152 80.746 102.152C79.978 102.152 79.37 102.435 78.922 103C78.474 103.555 78.25 104.269 78.25 105.144C78.25 106.019 78.474 106.733 78.922 107.288C79.37 107.843 79.978 108.12 80.746 108.12ZM88.3651 109.192C87.7998 109.192 87.3731 109.037 87.0851 108.728C86.7971 108.419 86.6531 107.971 86.6531 107.384V98.328H87.8531V107.128C87.8531 107.427 87.9171 107.667 88.0451 107.848C88.1838 108.029 88.3811 108.12 88.6371 108.12C88.9891 108.12 89.2558 108.008 89.4371 107.784L89.8051 108.696C89.4425 109.027 88.9625 109.192 88.3651 109.192ZM92.118 99.944C91.9687 100.093 91.782 100.168 91.558 100.168C91.334 100.168 91.142 100.093 90.982 99.944C90.822 99.784 90.742 99.592 90.742 99.368C90.742 99.144 90.822 98.952 90.982 98.792C91.142 98.632 91.334 98.552 91.558 98.552C91.782 98.552 91.9687 98.632 92.118 98.792C92.278 98.952 92.358 99.144 92.358 99.368C92.358 99.592 92.278 99.784 92.118 99.944ZM92.15 109H90.95V101.272H92.15V109ZM100.064 109H94.1758V108.056L98.4318 102.328H94.1758V101.272H99.9998V102.184L95.7118 107.944H100.064V109ZM108.891 109H107.691V107.848C107.029 108.744 106.16 109.192 105.083 109.192C104.059 109.192 103.227 108.829 102.587 108.104C101.957 107.368 101.643 106.381 101.643 105.144C101.643 103.917 101.963 102.936 102.603 102.2C103.243 101.453 104.069 101.08 105.083 101.08C106.149 101.08 107.019 101.533 107.691 102.44V101.272H108.891V109ZM105.387 108.12C105.845 108.12 106.288 108.003 106.715 107.768C107.152 107.523 107.477 107.229 107.691 106.888V103.4C107.477 103.048 107.152 102.755 106.715 102.52C106.288 102.275 105.845 102.152 105.387 102.152C104.619 102.152 104.011 102.435 103.563 103C103.115 103.555 102.891 104.269 102.891 105.144C102.891 106.019 103.115 106.733 103.563 107.288C104.011 107.843 104.619 108.12 105.387 108.12ZM114.702 109.192C113.56 109.192 112.632 108.808 111.918 108.04C111.203 107.261 110.846 106.291 110.846 105.128C110.846 103.965 111.203 103 111.918 102.232C112.632 101.464 113.56 101.08 114.702 101.08C115.896 101.08 116.84 101.528 117.534 102.424L116.734 103.144C116.254 102.483 115.598 102.152 114.766 102.152C113.966 102.152 113.32 102.435 112.83 103C112.339 103.555 112.094 104.264 112.094 105.128C112.094 106.003 112.339 106.723 112.83 107.288C113.32 107.843 113.966 108.12 114.766 108.12C115.576 108.12 116.232 107.784 116.734 107.112L117.534 107.848C116.84 108.744 115.896 109.192 114.702 109.192ZM120.399 99.944C120.25 100.093 120.063 100.168 119.839 100.168C119.615 100.168 119.423 100.093 119.263 99.944C119.103 99.784 119.023 99.592 119.023 99.368C119.023 99.144 119.103 98.952 119.263 98.792C119.423 98.632 119.615 98.552 119.839 98.552C120.063 98.552 120.25 98.632 120.399 98.792C120.559 98.952 120.639 99.144 120.639 99.368C120.639 99.592 120.559 99.784 120.399 99.944ZM120.431 109H119.231V101.272H120.431V109ZM128.969 108.024C128.276 108.803 127.353 109.192 126.201 109.192C125.049 109.192 124.121 108.803 123.417 108.024C122.724 107.245 122.377 106.28 122.377 105.128C122.377 103.976 122.724 103.016 123.417 102.248C124.121 101.469 125.049 101.08 126.201 101.08C127.353 101.08 128.276 101.469 128.969 102.248C129.673 103.016 130.025 103.976 130.025 105.128C130.025 106.28 129.673 107.245 128.969 108.024ZM124.329 107.256C124.788 107.832 125.412 108.12 126.201 108.12C126.99 108.12 127.614 107.832 128.073 107.256C128.532 106.669 128.761 105.96 128.761 105.128C128.761 104.296 128.532 103.592 128.073 103.016C127.614 102.44 126.99 102.152 126.201 102.152C125.412 102.152 124.788 102.44 124.329 103.016C123.87 103.592 123.641 104.296 123.641 105.128C123.641 105.96 123.87 106.669 124.329 107.256ZM128.761 97.8L126.057 100.104H125.145L127.513 97.8H128.761ZM138.397 109H137.213V103.944C137.213 103.293 137.064 102.835 136.765 102.568C136.467 102.291 136.035 102.152 135.469 102.152C135.021 102.152 134.589 102.269 134.173 102.504C133.757 102.739 133.427 103.021 133.181 103.352V109H131.981V101.272H133.181V102.392C133.48 102.029 133.88 101.72 134.381 101.464C134.883 101.208 135.405 101.08 135.949 101.08C137.581 101.08 138.397 101.912 138.397 103.576V109Z" fill="#505050"/>
<path d="M89.696 70H88.368V61.024L84.752 70H84.208L80.576 61.024V70H79.248V59.328H81.152L84.48 67.552L87.792 59.328H89.696V70ZM98.9375 70H97.7375V68.848C97.0762 69.744 96.2068 70.192 95.1295 70.192C94.1055 70.192 93.2735 69.8293 92.6335 69.104C92.0042 68.368 91.6895 67.3813 91.6895 66.144C91.6895 64.9173 92.0095 63.936 92.6495 63.2C93.2895 62.4533 94.1162 62.08 95.1295 62.08C96.1962 62.08 97.0655 62.5333 97.7375 63.44V62.272H98.9375V70ZM95.4335 69.12C95.8922 69.12 96.3348 69.0027 96.7615 68.768C97.1988 68.5227 97.5242 68.2293 97.7375 67.888V64.4C97.5242 64.048 97.1988 63.7547 96.7615 63.52C96.3348 63.2747 95.8922 63.152 95.4335 63.152C94.6655 63.152 94.0575 63.4347 93.6095 64C93.1615 64.5547 92.9375 65.2693 92.9375 66.144C92.9375 67.0187 93.1615 67.7333 93.6095 68.288C94.0575 68.8427 94.6655 69.12 95.4335 69.12ZM104.845 70.192C103.682 70.192 102.733 69.8187 101.997 69.072C101.261 68.3147 100.893 67.3333 100.893 66.128C100.893 64.9973 101.255 64.0427 101.981 63.264C102.706 62.4747 103.613 62.08 104.701 62.08C105.842 62.08 106.743 62.4747 107.405 63.264C108.077 64.0427 108.413 65.0293 108.413 66.224V66.528H102.173C102.226 67.2853 102.498 67.92 102.989 68.432C103.49 68.944 104.141 69.2 104.941 69.2C105.901 69.2 106.701 68.8693 107.341 68.208L107.917 68.992C107.095 69.792 106.071 70.192 104.845 70.192ZM107.229 65.632C107.218 64.9813 106.994 64.3947 106.557 63.872C106.119 63.3387 105.495 63.072 104.685 63.072C103.917 63.072 103.309 63.3333 102.861 63.856C102.423 64.3787 102.189 64.9707 102.157 65.632H107.229ZM112.82 70.192C111.519 70.192 110.479 69.7867 109.7 68.976L110.308 68.112C110.575 68.4213 110.938 68.6827 111.396 68.896C111.866 69.1093 112.351 69.216 112.852 69.216C113.428 69.216 113.876 69.0933 114.196 68.848C114.527 68.6027 114.692 68.2827 114.692 67.888C114.692 67.5467 114.527 67.28 114.196 67.088C113.866 66.8853 113.466 66.736 112.996 66.64C112.527 66.5333 112.058 66.416 111.588 66.288C111.13 66.1493 110.735 65.92 110.404 65.6C110.074 65.2693 109.908 64.8373 109.908 64.304C109.908 63.6747 110.164 63.1467 110.676 62.72C111.188 62.2933 111.887 62.08 112.772 62.08C113.956 62.08 114.911 62.4533 115.636 63.2L115.076 64.032C114.532 63.3813 113.764 63.056 112.772 63.056C112.25 63.056 111.834 63.1733 111.524 63.408C111.215 63.632 111.06 63.92 111.06 64.272C111.06 64.528 111.178 64.7413 111.412 64.912C111.647 65.0827 111.94 65.2053 112.292 65.28C112.655 65.3547 113.039 65.4507 113.444 65.568C113.86 65.6853 114.244 65.8187 114.596 65.968C114.959 66.1067 115.258 66.3413 115.492 66.672C115.727 66.992 115.844 67.3867 115.844 67.856C115.844 68.5387 115.578 69.0987 115.044 69.536C114.522 69.9733 113.78 70.192 112.82 70.192ZM119.762 70.192C118.61 70.192 118.034 69.5893 118.034 68.384V63.328H116.754V62.272H118.034V60.16H119.25V62.272H120.818V63.328H119.25V68.128C119.25 68.4267 119.314 68.6667 119.442 68.848C119.58 69.0293 119.772 69.12 120.018 69.12C120.359 69.12 120.631 69.008 120.834 68.784L121.186 69.696C120.834 70.0267 120.359 70.192 119.762 70.192ZM123.697 70H122.497V62.272H123.697V63.504C124.433 62.5653 125.292 62.096 126.273 62.096V63.328C126.081 63.3067 125.926 63.296 125.809 63.296C125.436 63.296 125.036 63.424 124.609 63.68C124.182 63.9253 123.878 64.208 123.697 64.528V70ZM130.946 58.8L128.242 61.104H127.33L129.698 58.8H130.946ZM128.978 70H127.778V62.272H128.978V70ZM138.172 70H136.972V68.848C136.311 69.744 135.441 70.192 134.364 70.192C133.34 70.192 132.508 69.8293 131.868 69.104C131.239 68.368 130.924 67.3813 130.924 66.144C130.924 64.9173 131.244 63.936 131.884 63.2C132.524 62.4533 133.351 62.08 134.364 62.08C135.431 62.08 136.3 62.5333 136.972 63.44V62.272H138.172V70ZM134.668 69.12C135.127 69.12 135.569 69.0027 135.996 68.768C136.433 68.5227 136.759 68.2293 136.972 67.888V64.4C136.759 64.048 136.433 63.7547 135.996 63.52C135.569 63.2747 135.127 63.152 134.668 63.152C133.9 63.152 133.292 63.4347 132.844 64C132.396 64.5547 132.172 65.2693 132.172 66.144C132.172 67.0187 132.396 67.7333 132.844 68.288C133.292 68.8427 133.9 69.12 134.668 69.12Z" fill="#505050"/>
<path d="M69.896 31H66.248V20.328H69.896C71.528 20.328 72.8453 20.8347 73.848 21.848C74.8613 22.8613 75.368 24.136 75.368 25.672C75.368 27.2187 74.8667 28.4933 73.864 29.496C72.8613 30.4987 71.5387 31 69.896 31ZM69.896 29.816C71.1547 29.816 72.152 29.4213 72.888 28.632C73.624 27.8427 73.992 26.856 73.992 25.672C73.992 24.4773 73.6293 23.4853 72.904 22.696C72.1787 21.9067 71.176 21.512 69.896 21.512H67.576V29.816H69.896ZM83.5471 30.024C82.8538 30.8027 81.9311 31.192 80.7791 31.192C79.6271 31.192 78.6991 30.8027 77.9951 30.024C77.3018 29.2453 76.9551 28.28 76.9551 27.128C76.9551 25.976 77.3018 25.016 77.9951 24.248C78.6991 23.4693 79.6271 23.08 80.7791 23.08C81.9311 23.08 82.8538 23.4693 83.5471 24.248C84.2511 25.016 84.6031 25.976 84.6031 27.128C84.6031 28.28 84.2511 29.2453 83.5471 30.024ZM78.9071 29.256C79.3658 29.832 79.9898 30.12 80.7791 30.12C81.5685 30.12 82.1925 29.832 82.6511 29.256C83.1098 28.6693 83.3391 27.96 83.3391 27.128C83.3391 26.296 83.1098 25.592 82.6511 25.016C82.1925 24.44 81.5685 24.152 80.7791 24.152C79.9898 24.152 79.3658 24.44 78.9071 25.016C78.4485 25.592 78.2191 26.296 78.2191 27.128C78.2191 27.96 78.4485 28.6693 78.9071 29.256ZM89.9674 31.192C88.826 31.192 87.898 30.808 87.1834 30.04C86.4687 29.2613 86.1114 28.2907 86.1114 27.128C86.1114 25.9653 86.4687 25 87.1834 24.232C87.898 23.464 88.826 23.08 89.9674 23.08C91.162 23.08 92.106 23.528 92.7994 24.424L91.9994 25.144C91.5194 24.4827 90.8634 24.152 90.0314 24.152C89.2314 24.152 88.586 24.4347 88.0954 25C87.6047 25.5547 87.3594 26.264 87.3594 27.128C87.3594 28.0027 87.6047 28.7227 88.0954 29.288C88.586 29.8427 89.2314 30.12 90.0314 30.12C90.842 30.12 91.498 29.784 91.9994 29.112L92.7994 29.848C92.106 30.744 91.162 31.192 89.9674 31.192ZM96.4649 31.192C95.3129 31.192 94.7369 30.5893 94.7369 29.384V24.328H93.4569V23.272H94.7369V21.16H95.9529V23.272H97.5209V24.328H95.9529V29.128C95.9529 29.4267 96.0169 29.6667 96.1449 29.848C96.2835 30.0293 96.4755 30.12 96.7209 30.12C97.0622 30.12 97.3342 30.008 97.5369 29.784L97.8889 30.696C97.5369 31.0267 97.0622 31.192 96.4649 31.192ZM105.344 30.024C104.651 30.8027 103.728 31.192 102.576 31.192C101.424 31.192 100.496 30.8027 99.792 30.024C99.0987 29.2453 98.752 28.28 98.752 27.128C98.752 25.976 99.0987 25.016 99.792 24.248C100.496 23.4693 101.424 23.08 102.576 23.08C103.728 23.08 104.651 23.4693 105.344 24.248C106.048 25.016 106.4 25.976 106.4 27.128C106.4 28.28 106.048 29.2453 105.344 30.024ZM100.704 29.256C101.163 29.832 101.787 30.12 102.576 30.12C103.365 30.12 103.989 29.832 104.448 29.256C104.907 28.6693 105.136 27.96 105.136 27.128C105.136 26.296 104.907 25.592 104.448 25.016C103.989 24.44 103.365 24.152 102.576 24.152C101.787 24.152 101.163 24.44 100.704 25.016C100.245 25.592 100.016 26.296 100.016 27.128C100.016 27.96 100.245 28.6693 100.704 29.256ZM109.556 31H108.356V23.272H109.556V24.504C110.292 23.5653 111.151 23.096 112.132 23.096V24.328C111.94 24.3067 111.786 24.296 111.668 24.296C111.295 24.296 110.895 24.424 110.468 24.68C110.042 24.9253 109.738 25.208 109.556 25.528V31ZM120.438 31H119.238V29.848C118.576 30.744 117.707 31.192 116.63 31.192C115.606 31.192 114.774 30.8293 114.134 30.104C113.504 29.368 113.19 28.3813 113.19 27.144C113.19 25.9173 113.51 24.936 114.15 24.2C114.79 23.4533 115.616 23.08 116.63 23.08C117.696 23.08 118.566 23.5333 119.238 24.44V23.272H120.438V31ZM116.934 30.12C117.392 30.12 117.835 30.0027 118.262 29.768C118.699 29.5227 119.024 29.2293 119.238 28.888V25.4C119.024 25.048 118.699 24.7547 118.262 24.52C117.835 24.2747 117.392 24.152 116.934 24.152C116.166 24.152 115.558 24.4347 115.11 25C114.662 25.5547 114.438 26.2693 114.438 27.144C114.438 28.0187 114.662 28.7333 115.11 29.288C115.558 29.8427 116.166 30.12 116.934 30.12ZM129.641 31H128.441V29.848C127.779 30.744 126.91 31.192 125.833 31.192C124.809 31.192 123.977 30.8293 123.337 30.104C122.707 29.368 122.393 28.3813 122.393 27.144C122.393 25.9173 122.713 24.936 123.353 24.2C123.993 23.4533 124.819 23.08 125.833 23.08C126.899 23.08 127.769 23.5333 128.441 24.44V20.328H129.641V31ZM126.137 30.12C126.595 30.12 127.038 30.0027 127.465 29.768C127.902 29.5227 128.227 29.2293 128.441 28.888V25.4C128.227 25.048 127.902 24.7547 127.465 24.52C127.038 24.2747 126.595 24.152 126.137 24.152C125.369 24.152 124.761 24.4347 124.313 25C123.865 25.5547 123.641 26.2693 123.641 27.144C123.641 28.0187 123.865 28.7333 124.313 29.288C124.761 29.8427 125.369 30.12 126.137 30.12ZM138.188 30.024C137.494 30.8027 136.572 31.192 135.42 31.192C134.268 31.192 133.34 30.8027 132.636 30.024C131.942 29.2453 131.596 28.28 131.596 27.128C131.596 25.976 131.942 25.016 132.636 24.248C133.34 23.4693 134.268 23.08 135.42 23.08C136.572 23.08 137.494 23.4693 138.188 24.248C138.892 25.016 139.244 25.976 139.244 27.128C139.244 28.28 138.892 29.2453 138.188 30.024ZM133.548 29.256C134.006 29.832 134.63 30.12 135.42 30.12C136.209 30.12 136.833 29.832 137.292 29.256C137.75 28.6693 137.98 27.96 137.98 27.128C137.98 26.296 137.75 25.592 137.292 25.016C136.833 24.44 136.209 24.152 135.42 24.152C134.63 24.152 134.006 24.44 133.548 25.016C133.089 25.592 132.86 26.296 132.86 27.128C132.86 27.96 133.089 28.6693 133.548 29.256Z" fill="#505050"/>
<rect x="155" y="15" width="515" height="20" fill="#1D5556"/>
<rect x="670" y="15" width="60" height="20" fill="#FAAA8D"/>
<rect x="730" y="15" width="26" height="20" fill="#B6174B"/>
<rect x="727" y="93" width="26" height="20" fill="#B6174B"/>
<rect x="580" y="171" width="26" height="20" fill="#B6174B"/>
<rect x="368" y="249" width="26" height="20" fill="#B6174B"/>
<rect x="724" y="54" width="40" height="20" fill="#B6174B"/>
<rect x="646" y="132" width="40" height="20" fill="#B6174B"/>
<rect x="555" y="210" width="40" height="20" fill="#B6174B"/>
<rect x="664" y="54" width="60" height="20" fill="#FAAA8D"/>
<rect x="667" y="93" width="60" height="20" fill="#FAAA8D"/>
<rect x="586" y="132" width="60" height="20" fill="#FAAA8D"/>
<rect x="520" y="171" width="60" height="20" fill="#FAAA8D"/>
<rect x="495" y="210" width="60" height="20" fill="#FAAA8D"/>
<rect x="308" y="249" width="60" height="20" fill="#FAAA8D"/>
<rect x="155" y="54" width="510" height="20" fill="#1D5556"/>
<rect x="155" y="93" width="512" height="20" fill="#1D5556"/>
<rect x="155" y="132" width="436" height="20" fill="#1D5556"/>
<rect x="155" y="171" width="374" height="20" fill="#1D5556"/>
<rect x="155" y="210" width="351" height="20" fill="#1D5556"/>
<rect x="155" y="249" width="174" height="20" fill="#1D5556"/>
<path opacity="0.4" d="M236 282L236 3.69549e-06" stroke="#1A1A1A" stroke-dasharray="4 4"/>
<path opacity="0.4" d="M321 282L321 3.69549e-06" stroke="#1A1A1A" stroke-dasharray="4 4"/>
<path opacity="0.4" d="M408 282L408 3.45707e-06" stroke="#1A1A1A" stroke-dasharray="4 4"/>
<path opacity="0.4" d="M495 282L495 3.45707e-06" stroke="#1A1A1A" stroke-dasharray="4 4"/>
<path opacity="0.4" d="M582 282L582 3.45707e-06" stroke="#1A1A1A" stroke-dasharray="4 4"/>
<path opacity="0.4" d="M669 282L669 3.45707e-06" stroke="#1A1A1A" stroke-dasharray="4 4"/>
<path opacity="0.4" d="M755 282L755 1.00001" stroke="#1A1A1A" stroke-dasharray="4 4"/>
<path opacity="0.4" d="M842 282L842 3.45707e-06" stroke="#1A1A1A" stroke-dasharray="4 4"/>
<path opacity="0.4" d="M929 282L929 3.45707e-06" stroke="#1A1A1A" stroke-dasharray="4 4"/>
</svg>
