<svg width="247" height="102" viewBox="0 0 247 102" fill="none" xmlns="http://www.w3.org/2000/svg">
<path d="M18.3399 56.85C18.1472 55.8222 18.0509 54.7302 18.0509 53.6382C18.1151 44.5489 25.5343 37.2582 34.6236 37.3545C38.8311 37.3866 42.6531 39.0246 45.5437 41.6583C49.3657 33.6289 57.5557 28.1046 67.0304 28.201C80.0381 28.3294 90.4764 38.9604 90.38 51.936C90.38 53.9273 90.091 55.8543 89.6092 57.7172C93.3349 58.6486 96.7072 60.5757 99.4372 63.1451C102.199 51.1973 111.867 41.8831 124.007 39.6991C123.75 38.2538 123.59 36.7764 123.622 35.2669C123.718 22.7088 133.996 12.5917 146.586 12.6881C152.432 12.7523 157.731 14.9685 161.714 18.6299C166.981 7.51713 178.351 -0.126876 191.455 0.00159506C209.473 0.162184 223.958 14.8721 223.797 32.8902C223.797 35.6523 223.412 38.3181 222.737 40.8875C236.259 44.3241 246.183 56.6252 246.055 71.2066C245.894 88.3254 231.923 102.072 214.804 101.943L22.194 101.301C9.82871 101.205 -0.0956575 91.0875 0.000695701 78.7222C0.097049 67.8021 7.99801 58.7771 18.3399 56.9142V56.85Z" fill="#FAFAFA"/>
</svg>
