<svg width="340" height="141" viewBox="0 0 340 141" fill="none" xmlns="http://www.w3.org/2000/svg">
<path d="M25.6335 78.5583C25.3766 77.1131 25.216 75.6678 25.2481 74.1261C25.3445 61.6323 35.59 51.5795 48.0838 51.6758C53.8972 51.74 59.1645 53.9562 63.1471 57.5855C68.3823 46.537 79.7198 38.9251 92.7597 39.0214C110.681 39.182 125.102 53.8277 124.942 71.7494C124.942 74.5115 124.556 77.1452 123.882 79.7146C129.053 81.0314 133.678 83.633 137.403 87.1659C141.225 70.6895 154.554 57.8745 171.255 54.8233C170.87 52.832 170.677 50.8086 170.709 48.721C170.838 31.4095 185.034 17.4704 202.345 17.631C210.375 17.6952 217.698 20.7785 223.19 25.821C230.448 10.5008 246.122 -0.0337778 264.204 0.126811C289.031 0.351635 308.976 20.6179 308.751 45.445C308.719 49.267 308.206 52.9284 307.306 56.4613C325.935 61.1827 339.649 78.1408 339.456 98.2144C339.263 121.821 319.961 140.77 296.354 140.578L30.933 139.711C13.9106 139.55 0.196276 125.643 0.356865 108.588C0.485336 93.5574 11.3732 81.1278 25.6335 78.5262V78.5583Z" fill="#FAFAFA"/>
</svg>
