<svg width="511" height="318" viewBox="0 0 511 318" fill="none" xmlns="http://www.w3.org/2000/svg">
<path opacity="0.8" d="M290.896 315.192C290.192 315.192 289.568 315.032 289.024 314.712C288.491 314.381 288.064 313.944 287.744 313.4C287.435 312.856 287.2 312.269 287.04 311.64C286.891 311.011 286.816 310.355 286.816 309.672C286.816 308.989 286.891 308.333 287.04 307.704C287.2 307.075 287.435 306.493 287.744 305.96C288.064 305.416 288.491 304.984 289.024 304.664C289.568 304.333 290.192 304.168 290.896 304.168C291.589 304.168 292.208 304.333 292.752 304.664C293.296 304.984 293.723 305.416 294.032 305.96C294.352 306.493 294.587 307.075 294.736 307.704C294.896 308.333 294.976 308.989 294.976 309.672C294.976 310.355 294.896 311.011 294.736 311.64C294.587 312.269 294.352 312.856 294.032 313.4C293.723 313.944 293.296 314.381 292.752 314.712C292.208 315.032 291.589 315.192 290.896 315.192ZM289.296 313.352C289.723 313.789 290.256 314.008 290.896 314.008C291.536 314.008 292.069 313.789 292.496 313.352C292.923 312.904 293.216 312.371 293.376 311.752C293.536 311.133 293.616 310.44 293.616 309.672C293.616 308.904 293.536 308.211 293.376 307.592C293.216 306.973 292.923 306.445 292.496 306.008C292.069 305.571 291.536 305.352 290.896 305.352C290.256 305.352 289.723 305.571 289.296 306.008C288.869 306.445 288.576 306.973 288.416 307.592C288.256 308.211 288.176 308.904 288.176 309.672C288.176 310.44 288.256 311.133 288.416 311.752C288.576 312.371 288.869 312.904 289.296 313.352ZM298.113 314.616C298.113 315.085 297.99 315.533 297.745 315.96C297.51 316.397 297.201 316.755 296.817 317.032L296.209 316.536C296.476 316.365 296.705 316.136 296.897 315.848C297.1 315.571 297.217 315.304 297.249 315.048C297.206 315.069 297.132 315.08 297.025 315.08C296.812 315.08 296.63 315.005 296.481 314.856C296.332 314.696 296.257 314.499 296.257 314.264C296.257 314.029 296.337 313.827 296.497 313.656C296.668 313.485 296.87 313.4 297.105 313.4C297.393 313.4 297.633 313.512 297.825 313.736C298.017 313.949 298.113 314.243 298.113 314.616ZM303.38 315.192C302.676 315.192 302.052 315.032 301.508 314.712C300.975 314.381 300.548 313.944 300.228 313.4C299.919 312.856 299.684 312.269 299.524 311.64C299.375 311.011 299.3 310.355 299.3 309.672C299.3 308.989 299.375 308.333 299.524 307.704C299.684 307.075 299.919 306.493 300.228 305.96C300.548 305.416 300.975 304.984 301.508 304.664C302.052 304.333 302.676 304.168 303.38 304.168C304.074 304.168 304.692 304.333 305.236 304.664C305.78 304.984 306.207 305.416 306.516 305.96C306.836 306.493 307.071 307.075 307.22 307.704C307.38 308.333 307.46 308.989 307.46 309.672C307.46 310.355 307.38 311.011 307.22 311.64C307.071 312.269 306.836 312.856 306.516 313.4C306.207 313.944 305.78 314.381 305.236 314.712C304.692 315.032 304.074 315.192 303.38 315.192ZM301.78 313.352C302.207 313.789 302.74 314.008 303.38 314.008C304.02 314.008 304.554 313.789 304.98 313.352C305.407 312.904 305.7 312.371 305.86 311.752C306.02 311.133 306.1 310.44 306.1 309.672C306.1 308.904 306.02 308.211 305.86 307.592C305.7 306.973 305.407 306.445 304.98 306.008C304.554 305.571 304.02 305.352 303.38 305.352C302.74 305.352 302.207 305.571 301.78 306.008C301.354 306.445 301.06 306.973 300.9 307.592C300.74 308.211 300.66 308.904 300.66 309.672C300.66 310.44 300.74 311.133 300.9 311.752C301.06 312.371 301.354 312.904 301.78 313.352ZM313.209 308.696C312.729 309.187 312.111 309.432 311.353 309.432C310.596 309.432 309.977 309.187 309.497 308.696C309.017 308.195 308.777 307.571 308.777 306.824C308.777 306.056 309.017 305.421 309.497 304.92C309.977 304.419 310.596 304.168 311.353 304.168C312.111 304.168 312.729 304.419 313.209 304.92C313.689 305.421 313.929 306.056 313.929 306.824C313.929 307.571 313.689 308.195 313.209 308.696ZM311.209 315H310.329L317.145 304.328H318.041L311.209 315ZM318.761 314.456C318.292 314.947 317.679 315.192 316.921 315.192C316.164 315.192 315.545 314.941 315.065 314.44C314.585 313.939 314.345 313.315 314.345 312.568C314.345 311.811 314.585 311.181 315.065 310.68C315.545 310.179 316.164 309.928 316.921 309.928C317.668 309.928 318.281 310.179 318.761 310.68C319.241 311.181 319.481 311.811 319.481 312.568C319.481 313.325 319.241 313.955 318.761 314.456ZM310.185 308.104C310.495 308.445 310.884 308.616 311.353 308.616C311.823 308.616 312.207 308.445 312.505 308.104C312.815 307.763 312.969 307.336 312.969 306.824C312.969 306.291 312.82 305.853 312.521 305.512C312.223 305.16 311.833 304.984 311.353 304.984C310.884 304.984 310.495 305.16 310.185 305.512C309.887 305.853 309.737 306.291 309.737 306.824C309.737 307.336 309.887 307.763 310.185 308.104ZM315.737 313.864C316.047 314.205 316.441 314.376 316.921 314.376C317.401 314.376 317.791 314.205 318.089 313.864C318.388 313.523 318.537 313.091 318.537 312.568C318.537 312.045 318.388 311.613 318.089 311.272C317.791 310.92 317.401 310.744 316.921 310.744C316.441 310.744 316.047 310.92 315.737 311.272C315.439 311.613 315.289 312.045 315.289 312.568C315.289 313.091 315.439 313.523 315.737 313.864Z" fill="#FAFAFA"/>
<path opacity="0.8" d="M348.192 315H340.864V313.928C343.051 312.221 344.587 310.904 345.472 309.976C346.357 309.048 346.8 308.157 346.8 307.304C346.8 306.664 346.576 306.179 346.128 305.848C345.691 305.517 345.168 305.352 344.56 305.352C343.333 305.352 342.368 305.8 341.664 306.696L340.848 305.848C341.253 305.315 341.781 304.904 342.432 304.616C343.093 304.317 343.803 304.168 344.56 304.168C345.531 304.168 346.368 304.44 347.072 304.984C347.787 305.528 348.144 306.301 348.144 307.304C348.144 308.296 347.717 309.288 346.864 310.28C346.011 311.261 344.709 312.44 342.96 313.816H348.192V315ZM354.302 315.192C353.598 315.192 352.974 315.032 352.43 314.712C351.897 314.381 351.47 313.944 351.15 313.4C350.841 312.856 350.606 312.269 350.446 311.64C350.297 311.011 350.222 310.355 350.222 309.672C350.222 308.989 350.297 308.333 350.446 307.704C350.606 307.075 350.841 306.493 351.15 305.96C351.47 305.416 351.897 304.984 352.43 304.664C352.974 304.333 353.598 304.168 354.302 304.168C354.996 304.168 355.614 304.333 356.158 304.664C356.702 304.984 357.129 305.416 357.438 305.96C357.758 306.493 357.993 307.075 358.142 307.704C358.302 308.333 358.382 308.989 358.382 309.672C358.382 310.355 358.302 311.011 358.142 311.64C357.993 312.269 357.758 312.856 357.438 313.4C357.129 313.944 356.702 314.381 356.158 314.712C355.614 315.032 354.996 315.192 354.302 315.192ZM352.702 313.352C353.129 313.789 353.662 314.008 354.302 314.008C354.942 314.008 355.476 313.789 355.902 313.352C356.329 312.904 356.622 312.371 356.782 311.752C356.942 311.133 357.022 310.44 357.022 309.672C357.022 308.904 356.942 308.211 356.782 307.592C356.622 306.973 356.329 306.445 355.902 306.008C355.476 305.571 354.942 305.352 354.302 305.352C353.662 305.352 353.129 305.571 352.702 306.008C352.276 306.445 351.982 306.973 351.822 307.592C351.662 308.211 351.582 308.904 351.582 309.672C351.582 310.44 351.662 311.133 351.822 311.752C351.982 312.371 352.276 312.904 352.702 313.352ZM361.519 314.616C361.519 315.085 361.396 315.533 361.151 315.96C360.916 316.397 360.607 316.755 360.223 317.032L359.615 316.536C359.882 316.365 360.111 316.136 360.303 315.848C360.506 315.571 360.623 315.304 360.655 315.048C360.612 315.069 360.538 315.08 360.431 315.08C360.218 315.08 360.036 315.005 359.887 314.856C359.738 314.696 359.663 314.499 359.663 314.264C359.663 314.029 359.743 313.827 359.903 313.656C360.074 313.485 360.276 313.4 360.511 313.4C360.799 313.4 361.039 313.512 361.231 313.736C361.423 313.949 361.519 314.243 361.519 314.616ZM366.787 315.192C366.083 315.192 365.459 315.032 364.915 314.712C364.381 314.381 363.955 313.944 363.635 313.4C363.325 312.856 363.091 312.269 362.931 311.64C362.781 311.011 362.707 310.355 362.707 309.672C362.707 308.989 362.781 308.333 362.931 307.704C363.091 307.075 363.325 306.493 363.635 305.96C363.955 305.416 364.381 304.984 364.915 304.664C365.459 304.333 366.083 304.168 366.787 304.168C367.48 304.168 368.099 304.333 368.643 304.664C369.187 304.984 369.613 305.416 369.923 305.96C370.243 306.493 370.477 307.075 370.627 307.704C370.787 308.333 370.867 308.989 370.867 309.672C370.867 310.355 370.787 311.011 370.627 311.64C370.477 312.269 370.243 312.856 369.923 313.4C369.613 313.944 369.187 314.381 368.643 314.712C368.099 315.032 367.48 315.192 366.787 315.192ZM365.187 313.352C365.613 313.789 366.147 314.008 366.787 314.008C367.427 314.008 367.96 313.789 368.387 313.352C368.813 312.904 369.107 312.371 369.267 311.752C369.427 311.133 369.507 310.44 369.507 309.672C369.507 308.904 369.427 308.211 369.267 307.592C369.107 306.973 368.813 306.445 368.387 306.008C367.96 305.571 367.427 305.352 366.787 305.352C366.147 305.352 365.613 305.571 365.187 306.008C364.76 306.445 364.467 306.973 364.307 307.592C364.147 308.211 364.067 308.904 364.067 309.672C364.067 310.44 364.147 311.133 364.307 311.752C364.467 312.371 364.76 312.904 365.187 313.352ZM376.616 308.696C376.136 309.187 375.517 309.432 374.76 309.432C374.002 309.432 373.384 309.187 372.904 308.696C372.424 308.195 372.184 307.571 372.184 306.824C372.184 306.056 372.424 305.421 372.904 304.92C373.384 304.419 374.002 304.168 374.76 304.168C375.517 304.168 376.136 304.419 376.616 304.92C377.096 305.421 377.336 306.056 377.336 306.824C377.336 307.571 377.096 308.195 376.616 308.696ZM374.616 315H373.736L380.552 304.328H381.448L374.616 315ZM382.168 314.456C381.698 314.947 381.085 315.192 380.328 315.192C379.57 315.192 378.952 314.941 378.472 314.44C377.992 313.939 377.752 313.315 377.752 312.568C377.752 311.811 377.992 311.181 378.472 310.68C378.952 310.179 379.57 309.928 380.328 309.928C381.074 309.928 381.688 310.179 382.168 310.68C382.648 311.181 382.888 311.811 382.888 312.568C382.888 313.325 382.648 313.955 382.168 314.456ZM373.592 308.104C373.901 308.445 374.29 308.616 374.76 308.616C375.229 308.616 375.613 308.445 375.911 308.104C376.221 307.763 376.376 307.336 376.376 306.824C376.376 306.291 376.226 305.853 375.928 305.512C375.629 305.16 375.24 304.984 374.76 304.984C374.29 304.984 373.901 305.16 373.592 305.512C373.293 305.853 373.144 306.291 373.144 306.824C373.144 307.336 373.293 307.763 373.592 308.104ZM379.144 313.864C379.453 314.205 379.848 314.376 380.328 314.376C380.808 314.376 381.197 314.205 381.496 313.864C381.794 313.523 381.944 313.091 381.944 312.568C381.944 312.045 381.794 311.613 381.496 311.272C381.197 310.92 380.808 310.744 380.328 310.744C379.848 310.744 379.453 310.92 379.144 311.272C378.845 311.613 378.696 312.045 378.696 312.568C378.696 313.091 378.845 313.523 379.144 313.864Z" fill="#FAFAFA"/>
<path opacity="0.8" d="M410.912 315H409.584V312.296H404.512V311.192L409.088 304.328H410.912V311.128H412.416V312.296H410.912V315ZM409.584 311.128V305.56L405.84 311.128H409.584ZM417.818 315.192C417.114 315.192 416.49 315.032 415.946 314.712C415.413 314.381 414.986 313.944 414.666 313.4C414.357 312.856 414.122 312.269 413.962 311.64C413.813 311.011 413.738 310.355 413.738 309.672C413.738 308.989 413.813 308.333 413.962 307.704C414.122 307.075 414.357 306.493 414.666 305.96C414.986 305.416 415.413 304.984 415.946 304.664C416.49 304.333 417.114 304.168 417.818 304.168C418.511 304.168 419.13 304.333 419.674 304.664C420.218 304.984 420.645 305.416 420.954 305.96C421.274 306.493 421.509 307.075 421.658 307.704C421.818 308.333 421.898 308.989 421.898 309.672C421.898 310.355 421.818 311.011 421.658 311.64C421.509 312.269 421.274 312.856 420.954 313.4C420.645 313.944 420.218 314.381 419.674 314.712C419.13 315.032 418.511 315.192 417.818 315.192ZM416.218 313.352C416.645 313.789 417.178 314.008 417.818 314.008C418.458 314.008 418.991 313.789 419.418 313.352C419.845 312.904 420.138 312.371 420.298 311.752C420.458 311.133 420.538 310.44 420.538 309.672C420.538 308.904 420.458 308.211 420.298 307.592C420.138 306.973 419.845 306.445 419.418 306.008C418.991 305.571 418.458 305.352 417.818 305.352C417.178 305.352 416.645 305.571 416.218 306.008C415.791 306.445 415.498 306.973 415.338 307.592C415.178 308.211 415.098 308.904 415.098 309.672C415.098 310.44 415.178 311.133 415.338 311.752C415.498 312.371 415.791 312.904 416.218 313.352ZM425.035 314.616C425.035 315.085 424.912 315.533 424.667 315.96C424.432 316.397 424.123 316.755 423.739 317.032L423.131 316.536C423.397 316.365 423.627 316.136 423.819 315.848C424.021 315.571 424.139 315.304 424.171 315.048C424.128 315.069 424.053 315.08 423.947 315.08C423.733 315.08 423.552 315.005 423.403 314.856C423.253 314.696 423.179 314.499 423.179 314.264C423.179 314.029 423.259 313.827 423.419 313.656C423.589 313.485 423.792 313.4 424.027 313.4C424.315 313.4 424.555 313.512 424.747 313.736C424.939 313.949 425.035 314.243 425.035 314.616ZM430.302 315.192C429.598 315.192 428.974 315.032 428.43 314.712C427.897 314.381 427.47 313.944 427.15 313.4C426.841 312.856 426.606 312.269 426.446 311.64C426.297 311.011 426.222 310.355 426.222 309.672C426.222 308.989 426.297 308.333 426.446 307.704C426.606 307.075 426.841 306.493 427.15 305.96C427.47 305.416 427.897 304.984 428.43 304.664C428.974 304.333 429.598 304.168 430.302 304.168C430.996 304.168 431.614 304.333 432.158 304.664C432.702 304.984 433.129 305.416 433.438 305.96C433.758 306.493 433.993 307.075 434.142 307.704C434.302 308.333 434.382 308.989 434.382 309.672C434.382 310.355 434.302 311.011 434.142 311.64C433.993 312.269 433.758 312.856 433.438 313.4C433.129 313.944 432.702 314.381 432.158 314.712C431.614 315.032 430.996 315.192 430.302 315.192ZM428.702 313.352C429.129 313.789 429.662 314.008 430.302 314.008C430.942 314.008 431.476 313.789 431.902 313.352C432.329 312.904 432.622 312.371 432.782 311.752C432.942 311.133 433.022 310.44 433.022 309.672C433.022 308.904 432.942 308.211 432.782 307.592C432.622 306.973 432.329 306.445 431.902 306.008C431.476 305.571 430.942 305.352 430.302 305.352C429.662 305.352 429.129 305.571 428.702 306.008C428.276 306.445 427.982 306.973 427.822 307.592C427.662 308.211 427.582 308.904 427.582 309.672C427.582 310.44 427.662 311.133 427.822 311.752C427.982 312.371 428.276 312.904 428.702 313.352ZM440.131 308.696C439.651 309.187 439.032 309.432 438.275 309.432C437.518 309.432 436.899 309.187 436.419 308.696C435.939 308.195 435.699 307.571 435.699 306.824C435.699 306.056 435.939 305.421 436.419 304.92C436.899 304.419 437.518 304.168 438.275 304.168C439.032 304.168 439.651 304.419 440.131 304.92C440.611 305.421 440.851 306.056 440.851 306.824C440.851 307.571 440.611 308.195 440.131 308.696ZM438.131 315H437.251L444.067 304.328H444.963L438.131 315ZM445.683 314.456C445.214 314.947 444.6 315.192 443.843 315.192C443.086 315.192 442.467 314.941 441.987 314.44C441.507 313.939 441.267 313.315 441.267 312.568C441.267 311.811 441.507 311.181 441.987 310.68C442.467 310.179 443.086 309.928 443.843 309.928C444.59 309.928 445.203 310.179 445.683 310.68C446.163 311.181 446.403 311.811 446.403 312.568C446.403 313.325 446.163 313.955 445.683 314.456ZM437.107 308.104C437.416 308.445 437.806 308.616 438.275 308.616C438.744 308.616 439.128 308.445 439.427 308.104C439.736 307.763 439.891 307.336 439.891 306.824C439.891 306.291 439.742 305.853 439.443 305.512C439.144 305.16 438.755 304.984 438.275 304.984C437.806 304.984 437.416 305.16 437.107 305.512C436.808 305.853 436.659 306.291 436.659 306.824C436.659 307.336 436.808 307.763 437.107 308.104ZM442.659 313.864C442.968 314.205 443.363 314.376 443.843 314.376C444.323 314.376 444.712 314.205 445.011 313.864C445.31 313.523 445.459 313.091 445.459 312.568C445.459 312.045 445.31 311.613 445.011 311.272C444.712 310.92 444.323 310.744 443.843 310.744C443.363 310.744 442.968 310.92 442.659 311.272C442.36 311.613 442.211 312.045 442.211 312.568C442.211 313.091 442.36 313.523 442.659 313.864Z" fill="#FAFAFA"/>
<path opacity="0.8" d="M471.944 315.192C471.219 315.192 470.584 315.043 470.04 314.744C469.496 314.445 469.064 314.035 468.744 313.512C468.435 312.989 468.2 312.408 468.04 311.768C467.891 311.128 467.816 310.429 467.816 309.672C467.816 308.115 468.184 306.808 468.92 305.752C469.667 304.696 470.749 304.168 472.168 304.168C473.405 304.168 474.387 304.595 475.112 305.448L474.44 306.44C473.821 305.715 473.064 305.352 472.168 305.352C471.197 305.352 470.451 305.763 469.928 306.584C469.416 307.405 469.16 308.392 469.16 309.544V309.96C469.427 309.533 469.837 309.149 470.392 308.808C470.957 308.467 471.555 308.296 472.184 308.296C473.197 308.296 474.029 308.595 474.68 309.192C475.341 309.779 475.672 310.616 475.672 311.704C475.672 312.664 475.331 313.485 474.648 314.168C473.965 314.851 473.064 315.192 471.944 315.192ZM471.88 314.008C472.648 314.008 473.245 313.773 473.672 313.304C474.109 312.835 474.328 312.317 474.328 311.752C474.328 311.005 474.099 310.435 473.64 310.04C473.181 309.645 472.595 309.448 471.88 309.448C471.357 309.448 470.856 309.597 470.376 309.896C469.896 310.184 469.507 310.563 469.208 311.032C469.272 311.821 469.523 312.515 469.96 313.112C470.397 313.709 471.037 314.008 471.88 314.008ZM481.349 315.192C480.645 315.192 480.021 315.032 479.477 314.712C478.944 314.381 478.517 313.944 478.197 313.4C477.888 312.856 477.653 312.269 477.493 311.64C477.344 311.011 477.269 310.355 477.269 309.672C477.269 308.989 477.344 308.333 477.493 307.704C477.653 307.075 477.888 306.493 478.197 305.96C478.517 305.416 478.944 304.984 479.477 304.664C480.021 304.333 480.645 304.168 481.349 304.168C482.042 304.168 482.661 304.333 483.205 304.664C483.749 304.984 484.176 305.416 484.485 305.96C484.805 306.493 485.04 307.075 485.189 307.704C485.349 308.333 485.429 308.989 485.429 309.672C485.429 310.355 485.349 311.011 485.189 311.64C485.04 312.269 484.805 312.856 484.485 313.4C484.176 313.944 483.749 314.381 483.205 314.712C482.661 315.032 482.042 315.192 481.349 315.192ZM479.749 313.352C480.176 313.789 480.709 314.008 481.349 314.008C481.989 314.008 482.522 313.789 482.949 313.352C483.376 312.904 483.669 312.371 483.829 311.752C483.989 311.133 484.069 310.44 484.069 309.672C484.069 308.904 483.989 308.211 483.829 307.592C483.669 306.973 483.376 306.445 482.949 306.008C482.522 305.571 481.989 305.352 481.349 305.352C480.709 305.352 480.176 305.571 479.749 306.008C479.322 306.445 479.029 306.973 478.869 307.592C478.709 308.211 478.629 308.904 478.629 309.672C478.629 310.44 478.709 311.133 478.869 311.752C479.029 312.371 479.322 312.904 479.749 313.352ZM488.566 314.616C488.566 315.085 488.443 315.533 488.198 315.96C487.963 316.397 487.654 316.755 487.27 317.032L486.662 316.536C486.929 316.365 487.158 316.136 487.35 315.848C487.553 315.571 487.67 315.304 487.702 315.048C487.659 315.069 487.585 315.08 487.478 315.08C487.265 315.08 487.083 315.005 486.934 314.856C486.785 314.696 486.71 314.499 486.71 314.264C486.71 314.029 486.79 313.827 486.95 313.656C487.121 313.485 487.323 313.4 487.558 313.4C487.846 313.4 488.086 313.512 488.278 313.736C488.47 313.949 488.566 314.243 488.566 314.616ZM493.834 315.192C493.13 315.192 492.506 315.032 491.962 314.712C491.428 314.381 491.002 313.944 490.682 313.4C490.372 312.856 490.138 312.269 489.978 311.64C489.828 311.011 489.754 310.355 489.754 309.672C489.754 308.989 489.828 308.333 489.978 307.704C490.138 307.075 490.372 306.493 490.682 305.96C491.002 305.416 491.428 304.984 491.962 304.664C492.506 304.333 493.13 304.168 493.834 304.168C494.527 304.168 495.146 304.333 495.69 304.664C496.234 304.984 496.66 305.416 496.97 305.96C497.29 306.493 497.524 307.075 497.674 307.704C497.834 308.333 497.914 308.989 497.914 309.672C497.914 310.355 497.834 311.011 497.674 311.64C497.524 312.269 497.29 312.856 496.97 313.4C496.66 313.944 496.234 314.381 495.69 314.712C495.146 315.032 494.527 315.192 493.834 315.192ZM492.234 313.352C492.66 313.789 493.194 314.008 493.834 314.008C494.474 314.008 495.007 313.789 495.434 313.352C495.86 312.904 496.154 312.371 496.314 311.752C496.474 311.133 496.554 310.44 496.554 309.672C496.554 308.904 496.474 308.211 496.314 307.592C496.154 306.973 495.86 306.445 495.434 306.008C495.007 305.571 494.474 305.352 493.834 305.352C493.194 305.352 492.66 305.571 492.234 306.008C491.807 306.445 491.514 306.973 491.354 307.592C491.194 308.211 491.114 308.904 491.114 309.672C491.114 310.44 491.194 311.133 491.354 311.752C491.514 312.371 491.807 312.904 492.234 313.352ZM503.662 308.696C503.182 309.187 502.564 309.432 501.806 309.432C501.049 309.432 500.43 309.187 499.95 308.696C499.47 308.195 499.23 307.571 499.23 306.824C499.23 306.056 499.47 305.421 499.95 304.92C500.43 304.419 501.049 304.168 501.806 304.168C502.564 304.168 503.182 304.419 503.662 304.92C504.142 305.421 504.382 306.056 504.382 306.824C504.382 307.571 504.142 308.195 503.662 308.696ZM501.662 315H500.782L507.598 304.328H508.494L501.662 315ZM509.214 314.456C508.745 314.947 508.132 315.192 507.374 315.192C506.617 315.192 505.998 314.941 505.518 314.44C505.038 313.939 504.798 313.315 504.798 312.568C504.798 311.811 505.038 311.181 505.518 310.68C505.998 310.179 506.617 309.928 507.374 309.928C508.121 309.928 508.734 310.179 509.214 310.68C509.694 311.181 509.934 311.811 509.934 312.568C509.934 313.325 509.694 313.955 509.214 314.456ZM500.638 308.104C500.948 308.445 501.337 308.616 501.806 308.616C502.276 308.616 502.66 308.445 502.958 308.104C503.268 307.763 503.422 307.336 503.422 306.824C503.422 306.291 503.273 305.853 502.974 305.512C502.676 305.16 502.286 304.984 501.806 304.984C501.337 304.984 500.948 305.16 500.638 305.512C500.34 305.853 500.19 306.291 500.19 306.824C500.19 307.336 500.34 307.763 500.638 308.104ZM506.19 313.864C506.5 314.205 506.894 314.376 507.374 314.376C507.854 314.376 508.244 314.205 508.542 313.864C508.841 313.523 508.99 313.091 508.99 312.568C508.99 312.045 508.841 311.613 508.542 311.272C508.244 310.92 507.854 310.744 507.374 310.744C506.894 310.744 506.5 310.92 506.19 311.272C505.892 311.613 505.742 312.045 505.742 312.568C505.742 313.091 505.892 313.523 506.19 313.864Z" fill="#FAFAFA"/>
<path d="M229.22 14H227.56V2.84L225.42 5.12L224.42 4.1L227.76 0.659999H229.22V14ZM236.897 14.24C236.017 14.24 235.237 14.04 234.557 13.64C233.891 13.2267 233.357 12.68 232.957 12C232.571 11.32 232.277 10.5867 232.077 9.8C231.891 9.01333 231.797 8.19333 231.797 7.34C231.797 6.48667 231.891 5.66667 232.077 4.88C232.277 4.09333 232.571 3.36667 232.957 2.7C233.357 2.02 233.891 1.48 234.557 1.08C235.237 0.666666 236.017 0.459999 236.897 0.459999C237.764 0.459999 238.537 0.666666 239.217 1.08C239.897 1.48 240.431 2.02 240.817 2.7C241.217 3.36667 241.511 4.09333 241.697 4.88C241.897 5.66667 241.997 6.48667 241.997 7.34C241.997 8.19333 241.897 9.01333 241.697 9.8C241.511 10.5867 241.217 11.32 240.817 12C240.431 12.68 239.897 13.2267 239.217 13.64C238.537 14.04 237.764 14.24 236.897 14.24ZM234.897 11.94C235.431 12.4867 236.097 12.76 236.897 12.76C237.697 12.76 238.364 12.4867 238.897 11.94C239.431 11.38 239.797 10.7133 239.997 9.94C240.197 9.16667 240.297 8.3 240.297 7.34C240.297 6.38 240.197 5.51333 239.997 4.74C239.797 3.96667 239.431 3.30667 238.897 2.76C238.364 2.21333 237.697 1.94 236.897 1.94C236.097 1.94 235.431 2.21333 234.897 2.76C234.364 3.30667 233.997 3.96667 233.797 4.74C233.597 5.51333 233.497 6.38 233.497 7.34C233.497 8.3 233.597 9.16667 233.797 9.94C233.997 10.7133 234.364 11.38 234.897 11.94ZM249.143 14.24C248.263 14.24 247.483 14.04 246.803 13.64C246.137 13.2267 245.603 12.68 245.203 12C244.817 11.32 244.523 10.5867 244.323 9.8C244.137 9.01333 244.043 8.19333 244.043 7.34C244.043 6.48667 244.137 5.66667 244.323 4.88C244.523 4.09333 244.817 3.36667 245.203 2.7C245.603 2.02 246.137 1.48 246.803 1.08C247.483 0.666666 248.263 0.459999 249.143 0.459999C250.01 0.459999 250.783 0.666666 251.463 1.08C252.143 1.48 252.677 2.02 253.063 2.7C253.463 3.36667 253.757 4.09333 253.943 4.88C254.143 5.66667 254.243 6.48667 254.243 7.34C254.243 8.19333 254.143 9.01333 253.943 9.8C253.757 10.5867 253.463 11.32 253.063 12C252.677 12.68 252.143 13.2267 251.463 13.64C250.783 14.04 250.01 14.24 249.143 14.24ZM247.143 11.94C247.677 12.4867 248.343 12.76 249.143 12.76C249.943 12.76 250.61 12.4867 251.143 11.94C251.677 11.38 252.043 10.7133 252.243 9.94C252.443 9.16667 252.543 8.3 252.543 7.34C252.543 6.38 252.443 5.51333 252.243 4.74C252.043 3.96667 251.677 3.30667 251.143 2.76C250.61 2.21333 249.943 1.94 249.143 1.94C248.343 1.94 247.677 2.21333 247.143 2.76C246.61 3.30667 246.243 3.96667 246.043 4.74C245.843 5.51333 245.743 6.38 245.743 7.34C245.743 8.3 245.843 9.16667 246.043 9.94C246.243 10.7133 246.61 11.38 247.143 11.94ZM265.545 17.92C264.052 17.92 262.819 17.4333 261.845 16.46L262.605 15.38C263.299 16.2467 264.279 16.68 265.545 16.68C266.452 16.68 267.165 16.4333 267.685 15.94C268.205 15.4467 268.465 14.76 268.465 13.88V12.44C268.065 12.8933 267.559 13.2733 266.945 13.58C266.345 13.8867 265.705 14.04 265.025 14.04C262.972 14.04 261.945 13.0133 261.945 10.96V4.34H263.445V10.5C263.445 11.3133 263.632 11.8867 264.005 12.22C264.379 12.5533 264.919 12.72 265.625 12.72C266.172 12.72 266.705 12.58 267.225 12.3C267.759 12.0067 268.172 11.66 268.465 11.26V4.34H269.965V13.88C269.965 15.1867 269.545 16.1867 268.705 16.88C267.865 17.5733 266.812 17.92 265.545 17.92ZM286.037 7.78H282.197V12.04H281.057V7.78H277.217V6.74H281.057V2.6H282.197V6.74H286.037V7.78Z" fill="#FAFAFA"/>
<rect x="303" y="1" width="3" height="13" fill="#698F3F"/>
<rect x="205" y="1" width="3" height="13" fill="#41A5B4"/>
<path d="M228.38 42.22C226.86 42.22 225.627 41.6867 224.68 40.62L225.52 39.38C226.293 40.2867 227.247 40.74 228.38 40.74C229.233 40.74 229.953 40.4733 230.54 39.94C231.127 39.4067 231.54 38.76 231.78 38C232.02 37.24 232.14 36.4067 232.14 35.5C232.14 35.2733 232.133 35.1 232.12 34.98C231.787 35.5133 231.273 35.9933 230.58 36.42C229.887 36.8467 229.147 37.06 228.36 37.06C227.093 37.06 226.047 36.6933 225.22 35.96C224.393 35.2133 223.98 34.16 223.98 32.8C223.98 31.6 224.407 30.5733 225.26 29.72C226.113 28.8667 227.247 28.44 228.66 28.44C229.553 28.44 230.34 28.6267 231.02 29C231.7 29.3733 232.24 29.8867 232.64 30.54C233.04 31.1933 233.333 31.92 233.52 32.72C233.72 33.52 233.82 34.3933 233.82 35.34C233.82 36.5933 233.633 37.7267 233.26 38.74C232.887 39.74 232.28 40.5733 231.44 41.24C230.6 41.8933 229.58 42.22 228.38 42.22ZM228.74 35.62C229.393 35.62 230.02 35.44 230.62 35.08C231.233 34.7067 231.72 34.22 232.08 33.62C232.04 33.18 231.947 32.7533 231.8 32.34C231.667 31.9267 231.473 31.5333 231.22 31.16C230.967 30.7867 230.62 30.4867 230.18 30.26C229.753 30.0333 229.267 29.92 228.72 29.92C227.773 29.92 227.027 30.2133 226.48 30.8C225.933 31.3733 225.66 32.02 225.66 32.74C225.66 33.6733 225.947 34.3867 226.52 34.88C227.093 35.3733 227.833 35.62 228.74 35.62ZM240.936 42.24C240.056 42.24 239.276 42.04 238.596 41.64C237.93 41.2267 237.396 40.68 236.996 40C236.61 39.32 236.316 38.5867 236.116 37.8C235.93 37.0133 235.836 36.1933 235.836 35.34C235.836 34.4867 235.93 33.6667 236.116 32.88C236.316 32.0933 236.61 31.3667 236.996 30.7C237.396 30.02 237.93 29.48 238.596 29.08C239.276 28.6667 240.056 28.46 240.936 28.46C241.803 28.46 242.576 28.6667 243.256 29.08C243.936 29.48 244.47 30.02 244.856 30.7C245.256 31.3667 245.55 32.0933 245.736 32.88C245.936 33.6667 246.036 34.4867 246.036 35.34C246.036 36.1933 245.936 37.0133 245.736 37.8C245.55 38.5867 245.256 39.32 244.856 40C244.47 40.68 243.936 41.2267 243.256 41.64C242.576 42.04 241.803 42.24 240.936 42.24ZM238.936 39.94C239.47 40.4867 240.136 40.76 240.936 40.76C241.736 40.76 242.403 40.4867 242.936 39.94C243.47 39.38 243.836 38.7133 244.036 37.94C244.236 37.1667 244.336 36.3 244.336 35.34C244.336 34.38 244.236 33.5133 244.036 32.74C243.836 31.9667 243.47 31.3067 242.936 30.76C242.403 30.2133 241.736 29.94 240.936 29.94C240.136 29.94 239.47 30.2133 238.936 30.76C238.403 31.3067 238.036 31.9667 237.836 32.74C237.636 33.5133 237.536 34.38 237.536 35.34C237.536 36.3 237.636 37.1667 237.836 37.94C238.036 38.7133 238.403 39.38 238.936 39.94ZM257.638 37.82H252.838V36.5H257.638V37.82ZM268.79 42.22C267.27 42.22 266.037 41.6867 265.09 40.62L265.93 39.38C266.703 40.2867 267.657 40.74 268.79 40.74C269.643 40.74 270.363 40.4733 270.95 39.94C271.537 39.4067 271.95 38.76 272.19 38C272.43 37.24 272.55 36.4067 272.55 35.5C272.55 35.2733 272.543 35.1 272.53 34.98C272.197 35.5133 271.683 35.9933 270.99 36.42C270.297 36.8467 269.557 37.06 268.77 37.06C267.503 37.06 266.457 36.6933 265.63 35.96C264.803 35.2133 264.39 34.16 264.39 32.8C264.39 31.6 264.817 30.5733 265.67 29.72C266.523 28.8667 267.657 28.44 269.07 28.44C269.963 28.44 270.75 28.6267 271.43 29C272.11 29.3733 272.65 29.8867 273.05 30.54C273.45 31.1933 273.743 31.92 273.93 32.72C274.13 33.52 274.23 34.3933 274.23 35.34C274.23 36.5933 274.043 37.7267 273.67 38.74C273.297 39.74 272.69 40.5733 271.85 41.24C271.01 41.8933 269.99 42.22 268.79 42.22ZM269.15 35.62C269.803 35.62 270.43 35.44 271.03 35.08C271.643 34.7067 272.13 34.22 272.49 33.62C272.45 33.18 272.357 32.7533 272.21 32.34C272.077 31.9267 271.883 31.5333 271.63 31.16C271.377 30.7867 271.03 30.4867 270.59 30.26C270.163 30.0333 269.677 29.92 269.13 29.92C268.183 29.92 267.437 30.2133 266.89 30.8C266.343 31.3733 266.07 32.02 266.07 32.74C266.07 33.6733 266.357 34.3867 266.93 34.88C267.503 35.3733 268.243 35.62 269.15 35.62ZM283.867 42H282.207V38.62H275.867V37.24L281.587 28.66H283.867V37.16H285.747V38.62H283.867V42ZM282.207 37.16V30.2L277.527 37.16H282.207Z" fill="#FAFAFA"/>
<rect x="303" y="29" width="20" height="13" fill="#698F3F"/>
<rect x="191" y="29" width="17" height="13" fill="#41A5B4"/>
<rect x="303" y="15" width="5" height="13" fill="#698F3F"/>
<rect x="198" y="15" width="10" height="13" fill="#41A5B4"/>
<rect x="303" y="43" width="24" height="13" fill="#698F3F"/>
<rect x="179" y="43" width="29" height="13" fill="#41A5B4"/>
<rect x="303" y="71" width="59" height="13" fill="#698F3F"/>
<rect x="154" y="71" width="54" height="13" fill="#41A5B4"/>
<rect x="303" y="99" width="91" height="13" fill="#698F3F"/>
<rect x="124" y="99" width="84" height="13" fill="#41A5B4"/>
<rect x="303" y="127" width="120" height="13" fill="#698F3F"/>
<rect x="98" y="127" width="110" height="13" fill="#41A5B4"/>
<rect x="303" y="155" width="137" height="13" fill="#698F3F"/>
<rect x="72" y="155" width="136" height="13" fill="#41A5B4"/>
<rect x="303" y="183" width="168" height="13" fill="#698F3F"/>
<rect x="42" y="183" width="166" height="13" fill="#41A5B4"/>
<rect x="303" y="211" width="200" height="13" fill="#698F3F"/>
<rect x="12" y="211" width="196" height="13" fill="#41A5B4"/>
<rect x="303" y="239" width="180" height="13" fill="#698F3F"/>
<rect x="23" y="239" width="185" height="13" fill="#41A5B4"/>
<rect x="303" y="267" width="168" height="13" fill="#698F3F"/>
<rect x="37" y="267" width="171" height="13" fill="#41A5B4"/>
<path d="M233.22 69.26C232.313 69.9133 231.18 70.24 229.82 70.24C228.46 70.24 227.32 69.9133 226.4 69.26C225.493 68.6067 225.04 67.7267 225.04 66.62C225.04 65.78 225.34 65.0533 225.94 64.44C226.553 63.8267 227.313 63.3867 228.22 63.12C227.367 62.88 226.66 62.4933 226.1 61.96C225.54 61.4133 225.26 60.7333 225.26 59.92C225.26 58.8 225.713 57.9467 226.62 57.36C227.527 56.76 228.593 56.46 229.82 56.46C231.047 56.46 232.113 56.76 233.02 57.36C233.94 57.9467 234.4 58.8 234.4 59.92C234.4 60.7333 234.113 61.4133 233.54 61.96C232.98 62.4933 232.273 62.88 231.42 63.12C232.327 63.3867 233.08 63.8267 233.68 64.44C234.293 65.0533 234.6 65.78 234.6 66.62C234.6 67.7133 234.14 68.5933 233.22 69.26ZM229.82 62.44C230.087 62.4 230.353 62.3333 230.62 62.24C230.9 62.1467 231.213 62.02 231.56 61.86C231.907 61.6867 232.187 61.4533 232.4 61.16C232.613 60.8533 232.72 60.5133 232.72 60.14C232.72 59.4733 232.44 58.94 231.88 58.54C231.333 58.14 230.647 57.94 229.82 57.94C228.993 57.94 228.307 58.14 227.76 58.54C227.213 58.9267 226.94 59.46 226.94 60.14C226.94 60.5133 227.047 60.8533 227.26 61.16C227.473 61.4533 227.753 61.6867 228.1 61.86C228.447 62.02 228.753 62.1467 229.02 62.24C229.287 62.3333 229.553 62.4 229.82 62.44ZM229.82 68.76C230.673 68.76 231.4 68.5467 232 68.12C232.613 67.6933 232.92 67.1333 232.92 66.44C232.92 65.9067 232.707 65.44 232.28 65.04C231.867 64.6267 231.44 64.34 231 64.18C230.573 64.0067 230.18 63.9 229.82 63.86C229.46 63.9 229.06 64.0067 228.62 64.18C228.193 64.34 227.767 64.6267 227.34 65.04C226.927 65.44 226.72 65.9067 226.72 66.44C226.72 67.1333 227.02 67.6933 227.62 68.12C228.22 68.5467 228.953 68.76 229.82 68.76ZM241.761 70.24C240.881 70.24 240.101 70.04 239.421 69.64C238.754 69.2267 238.221 68.68 237.821 68C237.434 67.32 237.141 66.5867 236.941 65.8C236.754 65.0133 236.661 64.1933 236.661 63.34C236.661 62.4867 236.754 61.6667 236.941 60.88C237.141 60.0933 237.434 59.3667 237.821 58.7C238.221 58.02 238.754 57.48 239.421 57.08C240.101 56.6667 240.881 56.46 241.761 56.46C242.627 56.46 243.401 56.6667 244.081 57.08C244.761 57.48 245.294 58.02 245.681 58.7C246.081 59.3667 246.374 60.0933 246.561 60.88C246.761 61.6667 246.861 62.4867 246.861 63.34C246.861 64.1933 246.761 65.0133 246.561 65.8C246.374 66.5867 246.081 67.32 245.681 68C245.294 68.68 244.761 69.2267 244.081 69.64C243.401 70.04 242.627 70.24 241.761 70.24ZM239.761 67.94C240.294 68.4867 240.961 68.76 241.761 68.76C242.561 68.76 243.227 68.4867 243.761 67.94C244.294 67.38 244.661 66.7133 244.861 65.94C245.061 65.1667 245.161 64.3 245.161 63.34C245.161 62.38 245.061 61.5133 244.861 60.74C244.661 59.9667 244.294 59.3067 243.761 58.76C243.227 58.2133 242.561 57.94 241.761 57.94C240.961 57.94 240.294 58.2133 239.761 58.76C239.227 59.3067 238.861 59.9667 238.661 60.74C238.461 61.5133 238.361 62.38 238.361 63.34C238.361 64.3 238.461 65.1667 238.661 65.94C238.861 66.7133 239.227 67.38 239.761 67.94ZM258.463 65.82H253.663V64.5H258.463V65.82ZM273.454 69.26C272.548 69.9133 271.414 70.24 270.054 70.24C268.694 70.24 267.554 69.9133 266.634 69.26C265.728 68.6067 265.274 67.7267 265.274 66.62C265.274 65.78 265.574 65.0533 266.174 64.44C266.788 63.8267 267.548 63.3867 268.454 63.12C267.601 62.88 266.894 62.4933 266.334 61.96C265.774 61.4133 265.494 60.7333 265.494 59.92C265.494 58.8 265.948 57.9467 266.854 57.36C267.761 56.76 268.828 56.46 270.054 56.46C271.281 56.46 272.348 56.76 273.254 57.36C274.174 57.9467 274.634 58.8 274.634 59.92C274.634 60.7333 274.348 61.4133 273.774 61.96C273.214 62.4933 272.508 62.88 271.654 63.12C272.561 63.3867 273.314 63.8267 273.914 64.44C274.528 65.0533 274.834 65.78 274.834 66.62C274.834 67.7133 274.374 68.5933 273.454 69.26ZM270.054 62.44C270.321 62.4 270.588 62.3333 270.854 62.24C271.134 62.1467 271.448 62.02 271.794 61.86C272.141 61.6867 272.421 61.4533 272.634 61.16C272.848 60.8533 272.954 60.5133 272.954 60.14C272.954 59.4733 272.674 58.94 272.114 58.54C271.568 58.14 270.881 57.94 270.054 57.94C269.228 57.94 268.541 58.14 267.994 58.54C267.448 58.9267 267.174 59.46 267.174 60.14C267.174 60.5133 267.281 60.8533 267.494 61.16C267.708 61.4533 267.988 61.6867 268.334 61.86C268.681 62.02 268.988 62.1467 269.254 62.24C269.521 62.3333 269.788 62.4 270.054 62.44ZM270.054 68.76C270.908 68.76 271.634 68.5467 272.234 68.12C272.848 67.6933 273.154 67.1333 273.154 66.44C273.154 65.9067 272.941 65.44 272.514 65.04C272.101 64.6267 271.674 64.34 271.234 64.18C270.808 64.0067 270.414 63.9 270.054 63.86C269.694 63.9 269.294 64.0067 268.854 64.18C268.428 64.34 268.001 64.6267 267.574 65.04C267.161 65.44 266.954 65.9067 266.954 66.44C266.954 67.1333 267.254 67.6933 267.854 68.12C268.454 68.5467 269.188 68.76 270.054 68.76ZM284.515 70H282.855V66.62H276.515V65.24L282.235 56.66H284.515V65.16H286.395V66.62H284.515V70ZM282.855 65.16V58.2L278.175 65.16H282.855Z" fill="#FAFAFA"/>
<rect x="303" y="57" width="42" height="13" fill="#698F3F"/>
<rect x="169" y="57" width="39" height="13" fill="#41A5B4"/>
<path d="M229.26 98H227.42L232.8 86.14H225.62V84.66H234.72V85.8L229.26 98ZM241.413 98.24C240.533 98.24 239.753 98.04 239.073 97.64C238.406 97.2267 237.873 96.68 237.473 96C237.086 95.32 236.793 94.5867 236.593 93.8C236.406 93.0133 236.313 92.1933 236.313 91.34C236.313 90.4867 236.406 89.6667 236.593 88.88C236.793 88.0933 237.086 87.3667 237.473 86.7C237.873 86.02 238.406 85.48 239.073 85.08C239.753 84.6667 240.533 84.46 241.413 84.46C242.28 84.46 243.053 84.6667 243.733 85.08C244.413 85.48 244.946 86.02 245.333 86.7C245.733 87.3667 246.026 88.0933 246.213 88.88C246.413 89.6667 246.513 90.4867 246.513 91.34C246.513 92.1933 246.413 93.0133 246.213 93.8C246.026 94.5867 245.733 95.32 245.333 96C244.946 96.68 244.413 97.2267 243.733 97.64C243.053 98.04 242.28 98.24 241.413 98.24ZM239.413 95.94C239.946 96.4867 240.613 96.76 241.413 96.76C242.213 96.76 242.88 96.4867 243.413 95.94C243.946 95.38 244.313 94.7133 244.513 93.94C244.713 93.1667 244.813 92.3 244.813 91.34C244.813 90.38 244.713 89.5133 244.513 88.74C244.313 87.9667 243.946 87.3067 243.413 86.76C242.88 86.2133 242.213 85.94 241.413 85.94C240.613 85.94 239.946 86.2133 239.413 86.76C238.88 87.3067 238.513 87.9667 238.313 88.74C238.113 89.5133 238.013 90.38 238.013 91.34C238.013 92.3 238.113 93.1667 238.313 93.94C238.513 94.7133 238.88 95.38 239.413 95.94ZM258.115 93.82H253.315V92.5H258.115V93.82ZM268.147 98H266.307L271.687 86.14H264.507V84.66H273.607V85.8L268.147 98ZM282.82 98H281.16V94.62H274.82V93.24L280.54 84.66H282.82V93.16H284.7V94.62H282.82V98ZM281.16 93.16V86.2L276.48 93.16H281.16Z" fill="#FAFAFA"/>
<rect x="303" y="85" width="74" height="13" fill="#698F3F"/>
<rect x="138" y="85" width="70" height="13" fill="#41A5B4"/>
<path d="M229.18 126.24C228.273 126.24 227.48 126.053 226.8 125.68C226.12 125.307 225.58 124.793 225.18 124.14C224.793 123.487 224.5 122.76 224.3 121.96C224.113 121.16 224.02 120.287 224.02 119.34C224.02 117.393 224.48 115.76 225.4 114.44C226.333 113.12 227.687 112.46 229.46 112.46C231.007 112.46 232.233 112.993 233.14 114.06L232.3 115.3C231.527 114.393 230.58 113.94 229.46 113.94C228.247 113.94 227.313 114.453 226.66 115.48C226.02 116.507 225.7 117.74 225.7 119.18V119.7C226.033 119.167 226.547 118.687 227.24 118.26C227.947 117.833 228.693 117.62 229.48 117.62C230.747 117.62 231.787 117.993 232.6 118.74C233.427 119.473 233.84 120.52 233.84 121.88C233.84 123.08 233.413 124.107 232.56 124.96C231.707 125.813 230.58 126.24 229.18 126.24ZM229.1 124.76C230.06 124.76 230.807 124.467 231.34 123.88C231.887 123.293 232.16 122.647 232.16 121.94C232.16 121.007 231.873 120.293 231.3 119.8C230.727 119.307 229.993 119.06 229.1 119.06C228.447 119.06 227.82 119.247 227.22 119.62C226.62 119.98 226.133 120.453 225.76 121.04C225.84 122.027 226.153 122.893 226.7 123.64C227.247 124.387 228.047 124.76 229.1 124.76ZM240.936 126.24C240.056 126.24 239.276 126.04 238.596 125.64C237.93 125.227 237.396 124.68 236.996 124C236.61 123.32 236.316 122.587 236.116 121.8C235.93 121.013 235.836 120.193 235.836 119.34C235.836 118.487 235.93 117.667 236.116 116.88C236.316 116.093 236.61 115.367 236.996 114.7C237.396 114.02 237.93 113.48 238.596 113.08C239.276 112.667 240.056 112.46 240.936 112.46C241.803 112.46 242.576 112.667 243.256 113.08C243.936 113.48 244.47 114.02 244.856 114.7C245.256 115.367 245.55 116.093 245.736 116.88C245.936 117.667 246.036 118.487 246.036 119.34C246.036 120.193 245.936 121.013 245.736 121.8C245.55 122.587 245.256 123.32 244.856 124C244.47 124.68 243.936 125.227 243.256 125.64C242.576 126.04 241.803 126.24 240.936 126.24ZM238.936 123.94C239.47 124.487 240.136 124.76 240.936 124.76C241.736 124.76 242.403 124.487 242.936 123.94C243.47 123.38 243.836 122.713 244.036 121.94C244.236 121.167 244.336 120.3 244.336 119.34C244.336 118.38 244.236 117.513 244.036 116.74C243.836 115.967 243.47 115.307 242.936 114.76C242.403 114.213 241.736 113.94 240.936 113.94C240.136 113.94 239.47 114.213 238.936 114.76C238.403 115.307 238.036 115.967 237.836 116.74C237.636 117.513 237.536 118.38 237.536 119.34C237.536 120.3 237.636 121.167 237.836 121.94C238.036 122.713 238.403 123.38 238.936 123.94ZM257.638 121.82H252.838V120.5H257.638V121.82ZM269.59 126.24C268.683 126.24 267.89 126.053 267.21 125.68C266.53 125.307 265.99 124.793 265.59 124.14C265.203 123.487 264.91 122.76 264.71 121.96C264.523 121.16 264.43 120.287 264.43 119.34C264.43 117.393 264.89 115.76 265.81 114.44C266.743 113.12 268.097 112.46 269.87 112.46C271.417 112.46 272.643 112.993 273.55 114.06L272.71 115.3C271.937 114.393 270.99 113.94 269.87 113.94C268.657 113.94 267.723 114.453 267.07 115.48C266.43 116.507 266.11 117.74 266.11 119.18V119.7C266.443 119.167 266.957 118.687 267.65 118.26C268.357 117.833 269.103 117.62 269.89 117.62C271.157 117.62 272.197 117.993 273.01 118.74C273.837 119.473 274.25 120.52 274.25 121.88C274.25 123.08 273.823 124.107 272.97 124.96C272.117 125.813 270.99 126.24 269.59 126.24ZM269.51 124.76C270.47 124.76 271.217 124.467 271.75 123.88C272.297 123.293 272.57 122.647 272.57 121.94C272.57 121.007 272.283 120.293 271.71 119.8C271.137 119.307 270.403 119.06 269.51 119.06C268.857 119.06 268.23 119.247 267.63 119.62C267.03 119.98 266.543 120.453 266.17 121.04C266.25 122.027 266.563 122.893 267.11 123.64C267.657 124.387 268.457 124.76 269.51 124.76ZM283.867 126H282.207V122.62H275.867V121.24L281.587 112.66H283.867V121.16H285.747V122.62H283.867V126ZM282.207 121.16V114.2L277.527 121.16H282.207Z" fill="#FAFAFA"/>
<rect x="303" y="113" width="104" height="13" fill="#698F3F"/>
<rect x="109" y="113" width="99" height="13" fill="#41A5B4"/>
<path d="M229.02 154.24C226.967 154.24 225.4 153.527 224.32 152.1L225.34 150.98C226.26 152.167 227.487 152.76 229.02 152.76C229.927 152.76 230.667 152.487 231.24 151.94C231.813 151.393 232.1 150.713 232.1 149.9C232.1 149.033 231.813 148.34 231.24 147.82C230.68 147.287 229.947 147.02 229.04 147.02C227.853 147.02 226.827 147.433 225.96 148.26L224.74 147.84V140.66H232.9V142.14H226.4V146.78C227.227 145.98 228.267 145.58 229.52 145.58C230.707 145.58 231.713 145.96 232.54 146.72C233.367 147.48 233.78 148.52 233.78 149.84C233.78 151.16 233.327 152.227 232.42 153.04C231.527 153.84 230.393 154.24 229.02 154.24ZM240.917 154.24C240.037 154.24 239.257 154.04 238.577 153.64C237.91 153.227 237.377 152.68 236.977 152C236.59 151.32 236.297 150.587 236.097 149.8C235.91 149.013 235.817 148.193 235.817 147.34C235.817 146.487 235.91 145.667 236.097 144.88C236.297 144.093 236.59 143.367 236.977 142.7C237.377 142.02 237.91 141.48 238.577 141.08C239.257 140.667 240.037 140.46 240.917 140.46C241.784 140.46 242.557 140.667 243.237 141.08C243.917 141.48 244.45 142.02 244.837 142.7C245.237 143.367 245.53 144.093 245.717 144.88C245.917 145.667 246.017 146.487 246.017 147.34C246.017 148.193 245.917 149.013 245.717 149.8C245.53 150.587 245.237 151.32 244.837 152C244.45 152.68 243.917 153.227 243.237 153.64C242.557 154.04 241.784 154.24 240.917 154.24ZM238.917 151.94C239.45 152.487 240.117 152.76 240.917 152.76C241.717 152.76 242.384 152.487 242.917 151.94C243.45 151.38 243.817 150.713 244.017 149.94C244.217 149.167 244.317 148.3 244.317 147.34C244.317 146.38 244.217 145.513 244.017 144.74C243.817 143.967 243.45 143.307 242.917 142.76C242.384 142.213 241.717 141.94 240.917 141.94C240.117 141.94 239.45 142.213 238.917 142.76C238.384 143.307 238.017 143.967 237.817 144.74C237.617 145.513 237.517 146.38 237.517 147.34C237.517 148.3 237.617 149.167 237.817 149.94C238.017 150.713 238.384 151.38 238.917 151.94ZM257.619 149.82H252.819V148.5H257.619V149.82ZM269.411 154.24C267.357 154.24 265.791 153.527 264.711 152.1L265.731 150.98C266.651 152.167 267.877 152.76 269.411 152.76C270.317 152.76 271.057 152.487 271.631 151.94C272.204 151.393 272.491 150.713 272.491 149.9C272.491 149.033 272.204 148.34 271.631 147.82C271.071 147.287 270.337 147.02 269.431 147.02C268.244 147.02 267.217 147.433 266.351 148.26L265.131 147.84V140.66H273.291V142.14H266.791V146.78C267.617 145.98 268.657 145.58 269.911 145.58C271.097 145.58 272.104 145.96 272.931 146.72C273.757 147.48 274.171 148.52 274.171 149.84C274.171 151.16 273.717 152.227 272.811 153.04C271.917 153.84 270.784 154.24 269.411 154.24ZM283.828 154H282.168V150.62H275.828V149.24L281.548 140.66H283.828V149.16H285.708V150.62H283.828V154ZM282.168 149.16V142.2L277.488 149.16H282.168Z" fill="#FAFAFA"/>
<rect x="303" y="141" width="128" height="13" fill="#698F3F"/>
<rect x="79" y="141" width="129" height="13" fill="#41A5B4"/>
<path d="M232.64 182H230.98V178.62H224.64V177.24L230.36 168.66H232.64V177.16H234.52V178.62H232.64V182ZM230.98 177.16V170.2L226.3 177.16H230.98ZM241.272 182.24C240.392 182.24 239.612 182.04 238.932 181.64C238.266 181.227 237.732 180.68 237.332 180C236.946 179.32 236.652 178.587 236.452 177.8C236.266 177.013 236.172 176.193 236.172 175.34C236.172 174.487 236.266 173.667 236.452 172.88C236.652 172.093 236.946 171.367 237.332 170.7C237.732 170.02 238.266 169.48 238.932 169.08C239.612 168.667 240.392 168.46 241.272 168.46C242.139 168.46 242.912 168.667 243.592 169.08C244.272 169.48 244.806 170.02 245.192 170.7C245.592 171.367 245.886 172.093 246.072 172.88C246.272 173.667 246.372 174.487 246.372 175.34C246.372 176.193 246.272 177.013 246.072 177.8C245.886 178.587 245.592 179.32 245.192 180C244.806 180.68 244.272 181.227 243.592 181.64C242.912 182.04 242.139 182.24 241.272 182.24ZM239.272 179.94C239.806 180.487 240.472 180.76 241.272 180.76C242.072 180.76 242.739 180.487 243.272 179.94C243.806 179.38 244.172 178.713 244.372 177.94C244.572 177.167 244.672 176.3 244.672 175.34C244.672 174.38 244.572 173.513 244.372 172.74C244.172 171.967 243.806 171.307 243.272 170.76C242.739 170.213 242.072 169.94 241.272 169.94C240.472 169.94 239.806 170.213 239.272 170.76C238.739 171.307 238.372 171.967 238.172 172.74C237.972 173.513 237.872 174.38 237.872 175.34C237.872 176.3 237.972 177.167 238.172 177.94C238.372 178.713 238.739 179.38 239.272 179.94ZM257.974 177.82H253.174V176.5H257.974V177.82ZM272.386 182H270.726V178.62H264.386V177.24L270.106 168.66H272.386V177.16H274.266V178.62H272.386V182ZM270.726 177.16V170.2L266.046 177.16H270.726ZM283.538 182H281.878V178.62H275.538V177.24L281.258 168.66H283.538V177.16H285.418V178.62H283.538V182ZM281.878 177.16V170.2L277.198 177.16H281.878Z" fill="#FAFAFA"/>
<rect x="303" y="169" width="153" height="13" fill="#698F3F"/>
<rect x="57" y="169" width="151" height="13" fill="#41A5B4"/>
<path d="M229.32 210.24C228.253 210.24 227.307 210.033 226.48 209.62C225.653 209.207 225.02 208.68 224.58 208.04L225.56 207C225.96 207.533 226.487 207.96 227.14 208.28C227.793 208.6 228.507 208.76 229.28 208.76C230.24 208.76 231 208.533 231.56 208.08C232.12 207.627 232.4 207.02 232.4 206.26C232.4 205.46 232.1 204.867 231.5 204.48C230.913 204.093 230.107 203.9 229.08 203.9C228.293 203.9 227.833 203.907 227.7 203.92V202.4C227.847 202.413 228.307 202.42 229.08 202.42C229.987 202.42 230.727 202.24 231.3 201.88C231.887 201.507 232.18 200.953 232.18 200.22C232.18 199.513 231.893 198.96 231.32 198.56C230.76 198.147 230.053 197.94 229.2 197.94C227.853 197.94 226.68 198.48 225.68 199.56L224.76 198.52C225.88 197.147 227.407 196.46 229.34 196.46C230.66 196.46 231.74 196.78 232.58 197.42C233.42 198.047 233.84 198.907 233.84 200C233.84 200.88 233.547 201.587 232.96 202.12C232.373 202.653 231.713 202.98 230.98 203.1C231.713 203.18 232.407 203.507 233.06 204.08C233.727 204.653 234.06 205.427 234.06 206.4C234.06 207.533 233.627 208.46 232.76 209.18C231.907 209.887 230.76 210.24 229.32 210.24ZM241.253 210.24C240.373 210.24 239.593 210.04 238.913 209.64C238.246 209.227 237.713 208.68 237.313 208C236.926 207.32 236.633 206.587 236.433 205.8C236.246 205.013 236.153 204.193 236.153 203.34C236.153 202.487 236.246 201.667 236.433 200.88C236.633 200.093 236.926 199.367 237.313 198.7C237.713 198.02 238.246 197.48 238.913 197.08C239.593 196.667 240.373 196.46 241.253 196.46C242.119 196.46 242.893 196.667 243.573 197.08C244.253 197.48 244.786 198.02 245.173 198.7C245.573 199.367 245.866 200.093 246.053 200.88C246.253 201.667 246.353 202.487 246.353 203.34C246.353 204.193 246.253 205.013 246.053 205.8C245.866 206.587 245.573 207.32 245.173 208C244.786 208.68 244.253 209.227 243.573 209.64C242.893 210.04 242.119 210.24 241.253 210.24ZM239.253 207.94C239.786 208.487 240.453 208.76 241.253 208.76C242.053 208.76 242.719 208.487 243.253 207.94C243.786 207.38 244.153 206.713 244.353 205.94C244.553 205.167 244.653 204.3 244.653 203.34C244.653 202.38 244.553 201.513 244.353 200.74C244.153 199.967 243.786 199.307 243.253 198.76C242.719 198.213 242.053 197.94 241.253 197.94C240.453 197.94 239.786 198.213 239.253 198.76C238.719 199.307 238.353 199.967 238.153 200.74C237.953 201.513 237.853 202.38 237.853 203.34C237.853 204.3 237.953 205.167 238.153 205.94C238.353 206.713 238.719 207.38 239.253 207.94ZM257.955 205.82H253.155V204.5H257.955V205.82ZM269.047 210.24C267.98 210.24 267.033 210.033 266.207 209.62C265.38 209.207 264.747 208.68 264.307 208.04L265.287 207C265.687 207.533 266.213 207.96 266.867 208.28C267.52 208.6 268.233 208.76 269.007 208.76C269.967 208.76 270.727 208.533 271.287 208.08C271.847 207.627 272.127 207.02 272.127 206.26C272.127 205.46 271.827 204.867 271.227 204.48C270.64 204.093 269.833 203.9 268.807 203.9C268.02 203.9 267.56 203.907 267.427 203.92V202.4C267.573 202.413 268.033 202.42 268.807 202.42C269.713 202.42 270.453 202.24 271.027 201.88C271.613 201.507 271.907 200.953 271.907 200.22C271.907 199.513 271.62 198.96 271.047 198.56C270.487 198.147 269.78 197.94 268.927 197.94C267.58 197.94 266.407 198.48 265.407 199.56L264.487 198.52C265.607 197.147 267.133 196.46 269.067 196.46C270.387 196.46 271.467 196.78 272.307 197.42C273.147 198.047 273.567 198.907 273.567 200C273.567 200.88 273.273 201.587 272.687 202.12C272.1 202.653 271.44 202.98 270.707 203.1C271.44 203.18 272.133 203.507 272.787 204.08C273.453 204.653 273.787 205.427 273.787 206.4C273.787 207.533 273.353 208.46 272.487 209.18C271.633 209.887 270.487 210.24 269.047 210.24ZM283.499 210H281.839V206.62H275.499V205.24L281.219 196.66H283.499V205.16H285.379V206.62H283.499V210ZM281.839 205.16V198.2L277.159 205.16H281.839Z" fill="#FAFAFA"/>
<rect x="303" y="197" width="185" height="13" fill="#698F3F"/>
<rect x="27" y="197" width="181" height="13" fill="#41A5B4"/>
<path d="M234.24 238H225.08V236.66C227.813 234.527 229.733 232.88 230.84 231.72C231.947 230.56 232.5 229.447 232.5 228.38C232.5 227.58 232.22 226.973 231.66 226.56C231.113 226.147 230.46 225.94 229.7 225.94C228.167 225.94 226.96 226.5 226.08 227.62L225.06 226.56C225.567 225.893 226.227 225.38 227.04 225.02C227.867 224.647 228.753 224.46 229.7 224.46C230.913 224.46 231.96 224.8 232.84 225.48C233.733 226.16 234.18 227.127 234.18 228.38C234.18 229.62 233.647 230.86 232.58 232.1C231.513 233.327 229.887 234.8 227.7 236.52H234.24V238ZM241.878 238.24C240.998 238.24 240.218 238.04 239.538 237.64C238.871 237.227 238.338 236.68 237.938 236C237.551 235.32 237.258 234.587 237.058 233.8C236.871 233.013 236.778 232.193 236.778 231.34C236.778 230.487 236.871 229.667 237.058 228.88C237.258 228.093 237.551 227.367 237.938 226.7C238.338 226.02 238.871 225.48 239.538 225.08C240.218 224.667 240.998 224.46 241.878 224.46C242.744 224.46 243.518 224.667 244.198 225.08C244.878 225.48 245.411 226.02 245.798 226.7C246.198 227.367 246.491 228.093 246.678 228.88C246.878 229.667 246.978 230.487 246.978 231.34C246.978 232.193 246.878 233.013 246.678 233.8C246.491 234.587 246.198 235.32 245.798 236C245.411 236.68 244.878 237.227 244.198 237.64C243.518 238.04 242.744 238.24 241.878 238.24ZM239.878 235.94C240.411 236.487 241.078 236.76 241.878 236.76C242.678 236.76 243.344 236.487 243.878 235.94C244.411 235.38 244.778 234.713 244.978 233.94C245.178 233.167 245.278 232.3 245.278 231.34C245.278 230.38 245.178 229.513 244.978 228.74C244.778 227.967 244.411 227.307 243.878 226.76C243.344 226.213 242.678 225.94 241.878 225.94C241.078 225.94 240.411 226.213 239.878 226.76C239.344 227.307 238.978 227.967 238.778 228.74C238.578 229.513 238.478 230.38 238.478 231.34C238.478 232.3 238.578 233.167 238.778 233.94C238.978 234.713 239.344 235.38 239.878 235.94ZM258.58 233.82H253.78V232.5H258.58V233.82ZM274.592 238H265.432V236.66C268.165 234.527 270.085 232.88 271.192 231.72C272.298 230.56 272.852 229.447 272.852 228.38C272.852 227.58 272.572 226.973 272.012 226.56C271.465 226.147 270.812 225.94 270.052 225.94C268.518 225.94 267.312 226.5 266.432 227.62L265.412 226.56C265.918 225.893 266.578 225.38 267.392 225.02C268.218 224.647 269.105 224.46 270.052 224.46C271.265 224.46 272.312 224.8 273.192 225.48C274.085 226.16 274.532 227.127 274.532 228.38C274.532 229.62 273.998 230.86 272.932 232.1C271.865 233.327 270.238 234.8 268.052 236.52H274.592V238ZM284.749 238H283.089V234.62H276.749V233.24L282.469 224.66H284.749V233.16H286.629V234.62H284.749V238ZM283.089 233.16V226.2L278.409 233.16H283.089Z" fill="#FAFAFA"/>
<rect x="303" y="225" width="196" height="13" fill="#698F3F"/>
<rect x="8" y="225" width="200" height="13" fill="#41A5B4"/>
<path d="M233.22 266H231.56V254.84L229.42 257.12L228.42 256.1L231.76 252.66H233.22V266ZM240.897 266.24C240.017 266.24 239.237 266.04 238.557 265.64C237.891 265.227 237.357 264.68 236.957 264C236.571 263.32 236.277 262.587 236.077 261.8C235.891 261.013 235.797 260.193 235.797 259.34C235.797 258.487 235.891 257.667 236.077 256.88C236.277 256.093 236.571 255.367 236.957 254.7C237.357 254.02 237.891 253.48 238.557 253.08C239.237 252.667 240.017 252.46 240.897 252.46C241.764 252.46 242.537 252.667 243.217 253.08C243.897 253.48 244.431 254.02 244.817 254.7C245.217 255.367 245.511 256.093 245.697 256.88C245.897 257.667 245.997 258.487 245.997 259.34C245.997 260.193 245.897 261.013 245.697 261.8C245.511 262.587 245.217 263.32 244.817 264C244.431 264.68 243.897 265.227 243.217 265.64C242.537 266.04 241.764 266.24 240.897 266.24ZM238.897 263.94C239.431 264.487 240.097 264.76 240.897 264.76C241.697 264.76 242.364 264.487 242.897 263.94C243.431 263.38 243.797 262.713 243.997 261.94C244.197 261.167 244.297 260.3 244.297 259.34C244.297 258.38 244.197 257.513 243.997 256.74C243.797 255.967 243.431 255.307 242.897 254.76C242.364 254.213 241.697 253.94 240.897 253.94C240.097 253.94 239.431 254.213 238.897 254.76C238.364 255.307 237.997 255.967 237.797 256.74C237.597 257.513 237.497 258.38 237.497 259.34C237.497 260.3 237.597 261.167 237.797 261.94C237.997 262.713 238.364 263.38 238.897 263.94ZM257.599 261.82H252.799V260.5H257.599V261.82ZM268.591 266H266.931V254.84L264.791 257.12L263.791 256.1L267.131 252.66H268.591V266ZM278.788 266H277.128V262.62H270.788V261.24L276.508 252.66H278.788V261.16H280.668V262.62H278.788V266ZM277.128 261.16V254.2L272.448 261.16H277.128Z" fill="#FAFAFA"/>
<rect x="303" y="253" width="174" height="13" fill="#698F3F"/>
<rect x="30" y="253" width="178" height="13" fill="#41A5B4"/>
<path d="M240.12 294.24C239.24 294.24 238.46 294.04 237.78 293.64C237.113 293.227 236.58 292.68 236.18 292C235.793 291.32 235.5 290.587 235.3 289.8C235.113 289.013 235.02 288.193 235.02 287.34C235.02 286.487 235.113 285.667 235.3 284.88C235.5 284.093 235.793 283.367 236.18 282.7C236.58 282.02 237.113 281.48 237.78 281.08C238.46 280.667 239.24 280.46 240.12 280.46C240.987 280.46 241.76 280.667 242.44 281.08C243.12 281.48 243.653 282.02 244.04 282.7C244.44 283.367 244.733 284.093 244.92 284.88C245.12 285.667 245.22 286.487 245.22 287.34C245.22 288.193 245.12 289.013 244.92 289.8C244.733 290.587 244.44 291.32 244.04 292C243.653 292.68 243.12 293.227 242.44 293.64C241.76 294.04 240.987 294.24 240.12 294.24ZM238.12 291.94C238.653 292.487 239.32 292.76 240.12 292.76C240.92 292.76 241.587 292.487 242.12 291.94C242.653 291.38 243.02 290.713 243.22 289.94C243.42 289.167 243.52 288.3 243.52 287.34C243.52 286.38 243.42 285.513 243.22 284.74C243.02 283.967 242.653 283.307 242.12 282.76C241.587 282.213 240.92 281.94 240.12 281.94C239.32 281.94 238.653 282.213 238.12 282.76C237.587 283.307 237.22 283.967 237.02 284.74C236.82 285.513 236.72 286.38 236.72 287.34C236.72 288.3 236.82 289.167 237.02 289.94C237.22 290.713 237.587 291.38 238.12 291.94ZM256.822 289.82H252.022V288.5H256.822V289.82ZM271.234 294H269.574V290.62H263.234V289.24L268.954 280.66H271.234V289.16H273.114V290.62H271.234V294ZM269.574 289.16V282.2L264.894 289.16H269.574Z" fill="#FAFAFA"/>
<rect x="303" y="281" width="162" height="13" fill="#698F3F"/>
<rect x="43" y="281" width="165" height="13" fill="#41A5B4"/>
<path opacity="0.8" d="M195.896 315.192C195.192 315.192 194.568 315.032 194.024 314.712C193.491 314.381 193.064 313.944 192.744 313.4C192.435 312.856 192.2 312.269 192.04 311.64C191.891 311.011 191.816 310.355 191.816 309.672C191.816 308.989 191.891 308.333 192.04 307.704C192.2 307.075 192.435 306.493 192.744 305.96C193.064 305.416 193.491 304.984 194.024 304.664C194.568 304.333 195.192 304.168 195.896 304.168C196.589 304.168 197.208 304.333 197.752 304.664C198.296 304.984 198.723 305.416 199.032 305.96C199.352 306.493 199.587 307.075 199.736 307.704C199.896 308.333 199.976 308.989 199.976 309.672C199.976 310.355 199.896 311.011 199.736 311.64C199.587 312.269 199.352 312.856 199.032 313.4C198.723 313.944 198.296 314.381 197.752 314.712C197.208 315.032 196.589 315.192 195.896 315.192ZM194.296 313.352C194.723 313.789 195.256 314.008 195.896 314.008C196.536 314.008 197.069 313.789 197.496 313.352C197.923 312.904 198.216 312.371 198.376 311.752C198.536 311.133 198.616 310.44 198.616 309.672C198.616 308.904 198.536 308.211 198.376 307.592C198.216 306.973 197.923 306.445 197.496 306.008C197.069 305.571 196.536 305.352 195.896 305.352C195.256 305.352 194.723 305.571 194.296 306.008C193.869 306.445 193.576 306.973 193.416 307.592C193.256 308.211 193.176 308.904 193.176 309.672C193.176 310.44 193.256 311.133 193.416 311.752C193.576 312.371 193.869 312.904 194.296 313.352ZM203.113 314.616C203.113 315.085 202.99 315.533 202.745 315.96C202.51 316.397 202.201 316.755 201.817 317.032L201.209 316.536C201.476 316.365 201.705 316.136 201.897 315.848C202.1 315.571 202.217 315.304 202.249 315.048C202.206 315.069 202.132 315.08 202.025 315.08C201.812 315.08 201.63 315.005 201.481 314.856C201.332 314.696 201.257 314.499 201.257 314.264C201.257 314.029 201.337 313.827 201.497 313.656C201.668 313.485 201.87 313.4 202.105 313.4C202.393 313.4 202.633 313.512 202.825 313.736C203.017 313.949 203.113 314.243 203.113 314.616ZM208.38 315.192C207.676 315.192 207.052 315.032 206.508 314.712C205.975 314.381 205.548 313.944 205.228 313.4C204.919 312.856 204.684 312.269 204.524 311.64C204.375 311.011 204.3 310.355 204.3 309.672C204.3 308.989 204.375 308.333 204.524 307.704C204.684 307.075 204.919 306.493 205.228 305.96C205.548 305.416 205.975 304.984 206.508 304.664C207.052 304.333 207.676 304.168 208.38 304.168C209.074 304.168 209.692 304.333 210.236 304.664C210.78 304.984 211.207 305.416 211.516 305.96C211.836 306.493 212.071 307.075 212.22 307.704C212.38 308.333 212.46 308.989 212.46 309.672C212.46 310.355 212.38 311.011 212.22 311.64C212.071 312.269 211.836 312.856 211.516 313.4C211.207 313.944 210.78 314.381 210.236 314.712C209.692 315.032 209.074 315.192 208.38 315.192ZM206.78 313.352C207.207 313.789 207.74 314.008 208.38 314.008C209.02 314.008 209.554 313.789 209.98 313.352C210.407 312.904 210.7 312.371 210.86 311.752C211.02 311.133 211.1 310.44 211.1 309.672C211.1 308.904 211.02 308.211 210.86 307.592C210.7 306.973 210.407 306.445 209.98 306.008C209.554 305.571 209.02 305.352 208.38 305.352C207.74 305.352 207.207 305.571 206.78 306.008C206.354 306.445 206.06 306.973 205.9 307.592C205.74 308.211 205.66 308.904 205.66 309.672C205.66 310.44 205.74 311.133 205.9 311.752C206.06 312.371 206.354 312.904 206.78 313.352ZM218.209 308.696C217.729 309.187 217.111 309.432 216.353 309.432C215.596 309.432 214.977 309.187 214.497 308.696C214.017 308.195 213.777 307.571 213.777 306.824C213.777 306.056 214.017 305.421 214.497 304.92C214.977 304.419 215.596 304.168 216.353 304.168C217.111 304.168 217.729 304.419 218.209 304.92C218.689 305.421 218.929 306.056 218.929 306.824C218.929 307.571 218.689 308.195 218.209 308.696ZM216.209 315H215.329L222.145 304.328H223.041L216.209 315ZM223.761 314.456C223.292 314.947 222.679 315.192 221.921 315.192C221.164 315.192 220.545 314.941 220.065 314.44C219.585 313.939 219.345 313.315 219.345 312.568C219.345 311.811 219.585 311.181 220.065 310.68C220.545 310.179 221.164 309.928 221.921 309.928C222.668 309.928 223.281 310.179 223.761 310.68C224.241 311.181 224.481 311.811 224.481 312.568C224.481 313.325 224.241 313.955 223.761 314.456ZM215.185 308.104C215.495 308.445 215.884 308.616 216.353 308.616C216.823 308.616 217.207 308.445 217.505 308.104C217.815 307.763 217.969 307.336 217.969 306.824C217.969 306.291 217.82 305.853 217.521 305.512C217.223 305.16 216.833 304.984 216.353 304.984C215.884 304.984 215.495 305.16 215.185 305.512C214.887 305.853 214.737 306.291 214.737 306.824C214.737 307.336 214.887 307.763 215.185 308.104ZM220.737 313.864C221.047 314.205 221.441 314.376 221.921 314.376C222.401 314.376 222.791 314.205 223.089 313.864C223.388 313.523 223.537 313.091 223.537 312.568C223.537 312.045 223.388 311.613 223.089 311.272C222.791 310.92 222.401 310.744 221.921 310.744C221.441 310.744 221.047 310.92 220.737 311.272C220.439 311.613 220.289 312.045 220.289 312.568C220.289 313.091 220.439 313.523 220.737 313.864Z" fill="#FAFAFA"/>
<path opacity="0.8" d="M135.192 315H127.864V313.928C130.051 312.221 131.587 310.904 132.472 309.976C133.357 309.048 133.8 308.157 133.8 307.304C133.8 306.664 133.576 306.179 133.128 305.848C132.691 305.517 132.168 305.352 131.56 305.352C130.333 305.352 129.368 305.8 128.664 306.696L127.848 305.848C128.253 305.315 128.781 304.904 129.432 304.616C130.093 304.317 130.803 304.168 131.56 304.168C132.531 304.168 133.368 304.44 134.072 304.984C134.787 305.528 135.144 306.301 135.144 307.304C135.144 308.296 134.717 309.288 133.864 310.28C133.011 311.261 131.709 312.44 129.96 313.816H135.192V315ZM141.302 315.192C140.598 315.192 139.974 315.032 139.43 314.712C138.897 314.381 138.47 313.944 138.15 313.4C137.841 312.856 137.606 312.269 137.446 311.64C137.297 311.011 137.222 310.355 137.222 309.672C137.222 308.989 137.297 308.333 137.446 307.704C137.606 307.075 137.841 306.493 138.15 305.96C138.47 305.416 138.897 304.984 139.43 304.664C139.974 304.333 140.598 304.168 141.302 304.168C141.996 304.168 142.614 304.333 143.158 304.664C143.702 304.984 144.129 305.416 144.438 305.96C144.758 306.493 144.993 307.075 145.142 307.704C145.302 308.333 145.382 308.989 145.382 309.672C145.382 310.355 145.302 311.011 145.142 311.64C144.993 312.269 144.758 312.856 144.438 313.4C144.129 313.944 143.702 314.381 143.158 314.712C142.614 315.032 141.996 315.192 141.302 315.192ZM139.702 313.352C140.129 313.789 140.662 314.008 141.302 314.008C141.942 314.008 142.476 313.789 142.902 313.352C143.329 312.904 143.622 312.371 143.782 311.752C143.942 311.133 144.022 310.44 144.022 309.672C144.022 308.904 143.942 308.211 143.782 307.592C143.622 306.973 143.329 306.445 142.902 306.008C142.476 305.571 141.942 305.352 141.302 305.352C140.662 305.352 140.129 305.571 139.702 306.008C139.276 306.445 138.982 306.973 138.822 307.592C138.662 308.211 138.582 308.904 138.582 309.672C138.582 310.44 138.662 311.133 138.822 311.752C138.982 312.371 139.276 312.904 139.702 313.352ZM148.519 314.616C148.519 315.085 148.396 315.533 148.151 315.96C147.916 316.397 147.607 316.755 147.223 317.032L146.615 316.536C146.882 316.365 147.111 316.136 147.303 315.848C147.506 315.571 147.623 315.304 147.655 315.048C147.612 315.069 147.538 315.08 147.431 315.08C147.218 315.08 147.036 315.005 146.887 314.856C146.738 314.696 146.663 314.499 146.663 314.264C146.663 314.029 146.743 313.827 146.903 313.656C147.074 313.485 147.276 313.4 147.511 313.4C147.799 313.4 148.039 313.512 148.231 313.736C148.423 313.949 148.519 314.243 148.519 314.616ZM153.787 315.192C153.083 315.192 152.459 315.032 151.915 314.712C151.381 314.381 150.955 313.944 150.635 313.4C150.325 312.856 150.091 312.269 149.931 311.64C149.781 311.011 149.707 310.355 149.707 309.672C149.707 308.989 149.781 308.333 149.931 307.704C150.091 307.075 150.325 306.493 150.635 305.96C150.955 305.416 151.381 304.984 151.915 304.664C152.459 304.333 153.083 304.168 153.787 304.168C154.48 304.168 155.099 304.333 155.643 304.664C156.187 304.984 156.613 305.416 156.923 305.96C157.243 306.493 157.477 307.075 157.627 307.704C157.787 308.333 157.867 308.989 157.867 309.672C157.867 310.355 157.787 311.011 157.627 311.64C157.477 312.269 157.243 312.856 156.923 313.4C156.613 313.944 156.187 314.381 155.643 314.712C155.099 315.032 154.48 315.192 153.787 315.192ZM152.187 313.352C152.613 313.789 153.147 314.008 153.787 314.008C154.427 314.008 154.96 313.789 155.387 313.352C155.813 312.904 156.107 312.371 156.267 311.752C156.427 311.133 156.507 310.44 156.507 309.672C156.507 308.904 156.427 308.211 156.267 307.592C156.107 306.973 155.813 306.445 155.387 306.008C154.96 305.571 154.427 305.352 153.787 305.352C153.147 305.352 152.613 305.571 152.187 306.008C151.76 306.445 151.467 306.973 151.307 307.592C151.147 308.211 151.067 308.904 151.067 309.672C151.067 310.44 151.147 311.133 151.307 311.752C151.467 312.371 151.76 312.904 152.187 313.352ZM163.616 308.696C163.136 309.187 162.517 309.432 161.76 309.432C161.002 309.432 160.384 309.187 159.904 308.696C159.424 308.195 159.184 307.571 159.184 306.824C159.184 306.056 159.424 305.421 159.904 304.92C160.384 304.419 161.002 304.168 161.76 304.168C162.517 304.168 163.136 304.419 163.616 304.92C164.096 305.421 164.336 306.056 164.336 306.824C164.336 307.571 164.096 308.195 163.616 308.696ZM161.616 315H160.736L167.552 304.328H168.448L161.616 315ZM169.168 314.456C168.698 314.947 168.085 315.192 167.328 315.192C166.57 315.192 165.952 314.941 165.472 314.44C164.992 313.939 164.752 313.315 164.752 312.568C164.752 311.811 164.992 311.181 165.472 310.68C165.952 310.179 166.57 309.928 167.328 309.928C168.074 309.928 168.688 310.179 169.168 310.68C169.648 311.181 169.888 311.811 169.888 312.568C169.888 313.325 169.648 313.955 169.168 314.456ZM160.592 308.104C160.901 308.445 161.29 308.616 161.76 308.616C162.229 308.616 162.613 308.445 162.911 308.104C163.221 307.763 163.376 307.336 163.376 306.824C163.376 306.291 163.226 305.853 162.928 305.512C162.629 305.16 162.24 304.984 161.76 304.984C161.29 304.984 160.901 305.16 160.592 305.512C160.293 305.853 160.144 306.291 160.144 306.824C160.144 307.336 160.293 307.763 160.592 308.104ZM166.144 313.864C166.453 314.205 166.848 314.376 167.328 314.376C167.808 314.376 168.197 314.205 168.496 313.864C168.794 313.523 168.944 313.091 168.944 312.568C168.944 312.045 168.794 311.613 168.496 311.272C168.197 310.92 167.808 310.744 167.328 310.744C166.848 310.744 166.453 310.92 166.144 311.272C165.845 311.613 165.696 312.045 165.696 312.568C165.696 313.091 165.845 313.523 166.144 313.864Z" fill="#FAFAFA"/>
<path opacity="0.8" d="M70.912 315H69.584V312.296H64.512V311.192L69.088 304.328H70.912V311.128H72.416V312.296H70.912V315ZM69.584 311.128V305.56L65.84 311.128H69.584ZM77.8179 315.192C77.1139 315.192 76.4899 315.032 75.9459 314.712C75.4125 314.381 74.9859 313.944 74.6659 313.4C74.3565 312.856 74.1219 312.269 73.9619 311.64C73.8125 311.011 73.7379 310.355 73.7379 309.672C73.7379 308.989 73.8125 308.333 73.9619 307.704C74.1219 307.075 74.3565 306.493 74.6659 305.96C74.9859 305.416 75.4125 304.984 75.9459 304.664C76.4899 304.333 77.1139 304.168 77.8179 304.168C78.5112 304.168 79.1299 304.333 79.6739 304.664C80.2179 304.984 80.6445 305.416 80.9539 305.96C81.2739 306.493 81.5085 307.075 81.6579 307.704C81.8179 308.333 81.8979 308.989 81.8979 309.672C81.8979 310.355 81.8179 311.011 81.6579 311.64C81.5085 312.269 81.2739 312.856 80.9539 313.4C80.6445 313.944 80.2179 314.381 79.6739 314.712C79.1299 315.032 78.5112 315.192 77.8179 315.192ZM76.2179 313.352C76.6445 313.789 77.1779 314.008 77.8179 314.008C78.4579 314.008 78.9912 313.789 79.4179 313.352C79.8445 312.904 80.1379 312.371 80.2979 311.752C80.4579 311.133 80.5379 310.44 80.5379 309.672C80.5379 308.904 80.4579 308.211 80.2979 307.592C80.1379 306.973 79.8445 306.445 79.4179 306.008C78.9912 305.571 78.4579 305.352 77.8179 305.352C77.1779 305.352 76.6445 305.571 76.2179 306.008C75.7912 306.445 75.4979 306.973 75.3379 307.592C75.1779 308.211 75.0979 308.904 75.0979 309.672C75.0979 310.44 75.1779 311.133 75.3379 311.752C75.4979 312.371 75.7912 312.904 76.2179 313.352ZM85.0348 314.616C85.0348 315.085 84.9121 315.533 84.6668 315.96C84.4321 316.397 84.1228 316.755 83.7388 317.032L83.1308 316.536C83.3974 316.365 83.6268 316.136 83.8188 315.848C84.0214 315.571 84.1388 315.304 84.1708 315.048C84.1281 315.069 84.0534 315.08 83.9468 315.08C83.7334 315.08 83.5521 315.005 83.4028 314.856C83.2534 314.696 83.1788 314.499 83.1788 314.264C83.1788 314.029 83.2588 313.827 83.4188 313.656C83.5894 313.485 83.7921 313.4 84.0268 313.4C84.3148 313.4 84.5548 313.512 84.7468 313.736C84.9388 313.949 85.0348 314.243 85.0348 314.616ZM90.3023 315.192C89.5983 315.192 88.9743 315.032 88.4303 314.712C87.8969 314.381 87.4703 313.944 87.1503 313.4C86.8409 312.856 86.6063 312.269 86.4463 311.64C86.2969 311.011 86.2223 310.355 86.2223 309.672C86.2223 308.989 86.2969 308.333 86.4463 307.704C86.6063 307.075 86.8409 306.493 87.1503 305.96C87.4703 305.416 87.8969 304.984 88.4303 304.664C88.9743 304.333 89.5983 304.168 90.3023 304.168C90.9956 304.168 91.6143 304.333 92.1583 304.664C92.7023 304.984 93.1289 305.416 93.4383 305.96C93.7583 306.493 93.9929 307.075 94.1423 307.704C94.3023 308.333 94.3823 308.989 94.3823 309.672C94.3823 310.355 94.3023 311.011 94.1423 311.64C93.9929 312.269 93.7583 312.856 93.4383 313.4C93.1289 313.944 92.7023 314.381 92.1583 314.712C91.6143 315.032 90.9956 315.192 90.3023 315.192ZM88.7023 313.352C89.1289 313.789 89.6623 314.008 90.3023 314.008C90.9423 314.008 91.4756 313.789 91.9023 313.352C92.3289 312.904 92.6223 312.371 92.7823 311.752C92.9423 311.133 93.0223 310.44 93.0223 309.672C93.0223 308.904 92.9423 308.211 92.7823 307.592C92.6223 306.973 92.3289 306.445 91.9023 306.008C91.4756 305.571 90.9423 305.352 90.3023 305.352C89.6623 305.352 89.1289 305.571 88.7023 306.008C88.2756 306.445 87.9823 306.973 87.8223 307.592C87.6623 308.211 87.5823 308.904 87.5823 309.672C87.5823 310.44 87.6623 311.133 87.8223 311.752C87.9823 312.371 88.2756 312.904 88.7023 313.352ZM100.131 308.696C99.6511 309.187 99.0325 309.432 98.2751 309.432C97.5178 309.432 96.8991 309.187 96.4191 308.696C95.9391 308.195 95.6991 307.571 95.6991 306.824C95.6991 306.056 95.9391 305.421 96.4191 304.92C96.8991 304.419 97.5178 304.168 98.2751 304.168C99.0325 304.168 99.6511 304.419 100.131 304.92C100.611 305.421 100.851 306.056 100.851 306.824C100.851 307.571 100.611 308.195 100.131 308.696ZM98.1311 315H97.2511L104.067 304.328H104.963L98.1311 315ZM105.683 314.456C105.214 314.947 104.6 315.192 103.843 315.192C103.086 315.192 102.467 314.941 101.987 314.44C101.507 313.939 101.267 313.315 101.267 312.568C101.267 311.811 101.507 311.181 101.987 310.68C102.467 310.179 103.086 309.928 103.843 309.928C104.59 309.928 105.203 310.179 105.683 310.68C106.163 311.181 106.403 311.811 106.403 312.568C106.403 313.325 106.163 313.955 105.683 314.456ZM97.1071 308.104C97.4165 308.445 97.8058 308.616 98.2751 308.616C98.7445 308.616 99.1285 308.445 99.4271 308.104C99.7365 307.763 99.8911 307.336 99.8911 306.824C99.8911 306.291 99.7418 305.853 99.4431 305.512C99.1445 305.16 98.7551 304.984 98.2751 304.984C97.8058 304.984 97.4165 305.16 97.1071 305.512C96.8085 305.853 96.6591 306.291 96.6591 306.824C96.6591 307.336 96.8085 307.763 97.1071 308.104ZM102.659 313.864C102.968 314.205 103.363 314.376 103.843 314.376C104.323 314.376 104.712 314.205 105.011 313.864C105.31 313.523 105.459 313.091 105.459 312.568C105.459 312.045 105.31 311.613 105.011 311.272C104.712 310.92 104.323 310.744 103.843 310.744C103.363 310.744 102.968 310.92 102.659 311.272C102.36 311.613 102.211 312.045 102.211 312.568C102.211 313.091 102.36 313.523 102.659 313.864Z" fill="#FAFAFA"/>
<path opacity="0.8" d="M4.944 315.192C4.21867 315.192 3.584 315.043 3.04 314.744C2.496 314.445 2.064 314.035 1.744 313.512C1.43467 312.989 1.2 312.408 1.04 311.768C0.890667 311.128 0.816 310.429 0.816 309.672C0.816 308.115 1.184 306.808 1.92 305.752C2.66667 304.696 3.74933 304.168 5.168 304.168C6.40533 304.168 7.38667 304.595 8.112 305.448L7.44 306.44C6.82133 305.715 6.064 305.352 5.168 305.352C4.19733 305.352 3.45067 305.763 2.928 306.584C2.416 307.405 2.16 308.392 2.16 309.544V309.96C2.42667 309.533 2.83733 309.149 3.392 308.808C3.95733 308.467 4.55467 308.296 5.184 308.296C6.19733 308.296 7.02933 308.595 7.68 309.192C8.34133 309.779 8.672 310.616 8.672 311.704C8.672 312.664 8.33067 313.485 7.648 314.168C6.96533 314.851 6.064 315.192 4.944 315.192ZM4.88 314.008C5.648 314.008 6.24533 313.773 6.672 313.304C7.10933 312.835 7.328 312.317 7.328 311.752C7.328 311.005 7.09867 310.435 6.64 310.04C6.18133 309.645 5.59467 309.448 4.88 309.448C4.35733 309.448 3.856 309.597 3.376 309.896C2.896 310.184 2.50667 310.563 2.208 311.032C2.272 311.821 2.52267 312.515 2.96 313.112C3.39733 313.709 4.03733 314.008 4.88 314.008ZM14.3491 315.192C13.6451 315.192 13.0211 315.032 12.4771 314.712C11.9438 314.381 11.5171 313.944 11.1971 313.4C10.8878 312.856 10.6531 312.269 10.4931 311.64C10.3438 311.011 10.2691 310.355 10.2691 309.672C10.2691 308.989 10.3438 308.333 10.4931 307.704C10.6531 307.075 10.8878 306.493 11.1971 305.96C11.5171 305.416 11.9438 304.984 12.4771 304.664C13.0211 304.333 13.6451 304.168 14.3491 304.168C15.0425 304.168 15.6611 304.333 16.2051 304.664C16.7491 304.984 17.1758 305.416 17.4851 305.96C17.8051 306.493 18.0398 307.075 18.1891 307.704C18.3491 308.333 18.4291 308.989 18.4291 309.672C18.4291 310.355 18.3491 311.011 18.1891 311.64C18.0398 312.269 17.8051 312.856 17.4851 313.4C17.1758 313.944 16.7491 314.381 16.2051 314.712C15.6611 315.032 15.0425 315.192 14.3491 315.192ZM12.7491 313.352C13.1758 313.789 13.7091 314.008 14.3491 314.008C14.9891 314.008 15.5225 313.789 15.9491 313.352C16.3758 312.904 16.6691 312.371 16.8291 311.752C16.9891 311.133 17.0691 310.44 17.0691 309.672C17.0691 308.904 16.9891 308.211 16.8291 307.592C16.6691 306.973 16.3758 306.445 15.9491 306.008C15.5225 305.571 14.9891 305.352 14.3491 305.352C13.7091 305.352 13.1758 305.571 12.7491 306.008C12.3225 306.445 12.0291 306.973 11.8691 307.592C11.7091 308.211 11.6291 308.904 11.6291 309.672C11.6291 310.44 11.7091 311.133 11.8691 311.752C12.0291 312.371 12.3225 312.904 12.7491 313.352ZM21.566 314.616C21.566 315.085 21.4433 315.533 21.198 315.96C20.9633 316.397 20.654 316.755 20.27 317.032L19.662 316.536C19.9287 316.365 20.158 316.136 20.35 315.848C20.5527 315.571 20.67 315.304 20.702 315.048C20.6593 315.069 20.5847 315.08 20.478 315.08C20.2647 315.08 20.0833 315.005 19.934 314.856C19.7847 314.696 19.71 314.499 19.71 314.264C19.71 314.029 19.79 313.827 19.95 313.656C20.1207 313.485 20.3233 313.4 20.558 313.4C20.846 313.4 21.086 313.512 21.278 313.736C21.47 313.949 21.566 314.243 21.566 314.616ZM26.8335 315.192C26.1295 315.192 25.5055 315.032 24.9615 314.712C24.4282 314.381 24.0015 313.944 23.6815 313.4C23.3722 312.856 23.1375 312.269 22.9775 311.64C22.8282 311.011 22.7535 310.355 22.7535 309.672C22.7535 308.989 22.8282 308.333 22.9775 307.704C23.1375 307.075 23.3722 306.493 23.6815 305.96C24.0015 305.416 24.4282 304.984 24.9615 304.664C25.5055 304.333 26.1295 304.168 26.8335 304.168C27.5268 304.168 28.1455 304.333 28.6895 304.664C29.2335 304.984 29.6602 305.416 29.9695 305.96C30.2895 306.493 30.5242 307.075 30.6735 307.704C30.8335 308.333 30.9135 308.989 30.9135 309.672C30.9135 310.355 30.8335 311.011 30.6735 311.64C30.5242 312.269 30.2895 312.856 29.9695 313.4C29.6602 313.944 29.2335 314.381 28.6895 314.712C28.1455 315.032 27.5268 315.192 26.8335 315.192ZM25.2335 313.352C25.6602 313.789 26.1935 314.008 26.8335 314.008C27.4735 314.008 28.0068 313.789 28.4335 313.352C28.8602 312.904 29.1535 312.371 29.3135 311.752C29.4735 311.133 29.5535 310.44 29.5535 309.672C29.5535 308.904 29.4735 308.211 29.3135 307.592C29.1535 306.973 28.8602 306.445 28.4335 306.008C28.0068 305.571 27.4735 305.352 26.8335 305.352C26.1935 305.352 25.6602 305.571 25.2335 306.008C24.8068 306.445 24.5135 306.973 24.3535 307.592C24.1935 308.211 24.1135 308.904 24.1135 309.672C24.1135 310.44 24.1935 311.133 24.3535 311.752C24.5135 312.371 24.8068 312.904 25.2335 313.352ZM36.6624 308.696C36.1824 309.187 35.5637 309.432 34.8064 309.432C34.049 309.432 33.4304 309.187 32.9504 308.696C32.4704 308.195 32.2304 307.571 32.2304 306.824C32.2304 306.056 32.4704 305.421 32.9504 304.92C33.4304 304.419 34.049 304.168 34.8064 304.168C35.5637 304.168 36.1824 304.419 36.6624 304.92C37.1424 305.421 37.3824 306.056 37.3824 306.824C37.3824 307.571 37.1424 308.195 36.6624 308.696ZM34.6624 315H33.7824L40.5984 304.328H41.4944L34.6624 315ZM42.2144 314.456C41.745 314.947 41.1317 315.192 40.3744 315.192C39.617 315.192 38.9984 314.941 38.5184 314.44C38.0384 313.939 37.7984 313.315 37.7984 312.568C37.7984 311.811 38.0384 311.181 38.5184 310.68C38.9984 310.179 39.617 309.928 40.3744 309.928C41.121 309.928 41.7344 310.179 42.2144 310.68C42.6944 311.181 42.9344 311.811 42.9344 312.568C42.9344 313.325 42.6944 313.955 42.2144 314.456ZM33.6384 308.104C33.9477 308.445 34.337 308.616 34.8064 308.616C35.2757 308.616 35.6597 308.445 35.9584 308.104C36.2677 307.763 36.4224 307.336 36.4224 306.824C36.4224 306.291 36.273 305.853 35.9744 305.512C35.6757 305.16 35.2864 304.984 34.8064 304.984C34.337 304.984 33.9477 305.16 33.6384 305.512C33.3397 305.853 33.1904 306.291 33.1904 306.824C33.1904 307.336 33.3397 307.763 33.6384 308.104ZM39.1904 313.864C39.4997 314.205 39.8944 314.376 40.3744 314.376C40.8544 314.376 41.2437 314.205 41.5424 313.864C41.841 313.523 41.9904 313.091 41.9904 312.568C41.9904 312.045 41.841 311.613 41.5424 311.272C41.2437 310.92 40.8544 310.744 40.3744 310.744C39.8944 310.744 39.4997 310.92 39.1904 311.272C38.8917 311.613 38.7424 312.045 38.7424 312.568C38.7424 313.091 38.8917 313.523 39.1904 313.864Z" fill="#FAFAFA"/>
</svg>
