<svg width="588" height="318" viewBox="0 0 588 318" fill="none" xmlns="http://www.w3.org/2000/svg">
<path d="M238.22 314H236.56V300.66H241.92C243.213 300.66 244.233 301.047 244.98 301.82C245.727 302.593 246.1 303.547 246.1 304.68C246.1 305.813 245.72 306.767 244.96 307.54C244.213 308.313 243.2 308.7 241.92 308.7H238.22V314ZM241.72 307.22C242.507 307.22 243.147 306.987 243.64 306.52C244.133 306.04 244.38 305.427 244.38 304.68C244.38 303.933 244.133 303.327 243.64 302.86C243.147 302.38 242.507 302.14 241.72 302.14H238.22V307.22H241.72ZM255.664 312.78C254.798 313.753 253.644 314.24 252.204 314.24C250.764 314.24 249.604 313.753 248.724 312.78C247.858 311.807 247.424 310.6 247.424 309.16C247.424 307.72 247.858 306.52 248.724 305.56C249.604 304.587 250.764 304.1 252.204 304.1C253.644 304.1 254.798 304.587 255.664 305.56C256.544 306.52 256.984 307.72 256.984 309.16C256.984 310.6 256.544 311.807 255.664 312.78ZM249.864 311.82C250.438 312.54 251.218 312.9 252.204 312.9C253.191 312.9 253.971 312.54 254.544 311.82C255.118 311.087 255.404 310.2 255.404 309.16C255.404 308.12 255.118 307.24 254.544 306.52C253.971 305.8 253.191 305.44 252.204 305.44C251.218 305.44 250.438 305.8 249.864 306.52C249.291 307.24 249.004 308.12 249.004 309.16C249.004 310.2 249.291 311.087 249.864 311.82ZM260.93 311.38C261.196 311.807 261.596 312.167 262.13 312.46C262.676 312.753 263.243 312.9 263.83 312.9C264.776 312.9 265.53 312.553 266.09 311.86C266.65 311.167 266.93 310.273 266.93 309.18C266.93 308.087 266.65 307.193 266.09 306.5C265.53 305.793 264.776 305.44 263.83 305.44C263.243 305.44 262.676 305.593 262.13 305.9C261.596 306.193 261.196 306.56 260.93 307V311.38ZM260.93 314H259.43V300.66H260.93V305.8C261.77 304.667 262.856 304.1 264.19 304.1C265.47 304.1 266.503 304.567 267.29 305.5C268.09 306.42 268.49 307.647 268.49 309.18C268.49 310.727 268.09 311.96 267.29 312.88C266.503 313.787 265.47 314.24 264.19 314.24C262.843 314.24 261.756 313.68 260.93 312.56V314ZM273.074 314.24C272.367 314.24 271.834 314.047 271.474 313.66C271.114 313.273 270.934 312.713 270.934 311.98V300.66H272.434V311.66C272.434 312.033 272.514 312.333 272.674 312.56C272.847 312.787 273.094 312.9 273.414 312.9C273.854 312.9 274.187 312.76 274.414 312.48L274.874 313.62C274.42 314.033 273.82 314.24 273.074 314.24ZM284.805 314H283.305V312.56C282.478 313.68 281.391 314.24 280.045 314.24C278.765 314.24 277.725 313.787 276.925 312.88C276.138 311.96 275.745 310.727 275.745 309.18C275.745 307.647 276.145 306.42 276.945 305.5C277.745 304.567 278.778 304.1 280.045 304.1C281.378 304.1 282.465 304.667 283.305 305.8V304.34H284.805V314ZM280.425 312.9C280.998 312.9 281.551 312.753 282.085 312.46C282.631 312.153 283.038 311.787 283.305 311.36V307C283.038 306.56 282.631 306.193 282.085 305.9C281.551 305.593 280.998 305.44 280.425 305.44C279.465 305.44 278.705 305.793 278.145 306.5C277.585 307.193 277.305 308.087 277.305 309.18C277.305 310.273 277.585 311.167 278.145 311.86C278.705 312.553 279.465 312.9 280.425 312.9ZM292.069 314.24C290.642 314.24 289.482 313.76 288.589 312.8C287.695 311.827 287.249 310.613 287.249 309.16C287.249 307.707 287.695 306.5 288.589 305.54C289.482 304.58 290.642 304.1 292.069 304.1C293.562 304.1 294.742 304.66 295.609 305.78L294.609 306.68C294.009 305.853 293.189 305.44 292.149 305.44C291.149 305.44 290.342 305.793 289.729 306.5C289.115 307.193 288.809 308.08 288.809 309.16C288.809 310.253 289.115 311.153 289.729 311.86C290.342 312.553 291.149 312.9 292.149 312.9C293.162 312.9 293.982 312.48 294.609 311.64L295.609 312.56C294.742 313.68 293.562 314.24 292.069 314.24ZM299.19 302.68C299.004 302.867 298.77 302.96 298.49 302.96C298.21 302.96 297.97 302.867 297.77 302.68C297.57 302.48 297.47 302.24 297.47 301.96C297.47 301.68 297.57 301.44 297.77 301.24C297.97 301.04 298.21 300.94 298.49 300.94C298.77 300.94 299.004 301.04 299.19 301.24C299.39 301.44 299.49 301.68 299.49 301.96C299.49 302.24 299.39 302.48 299.19 302.68ZM299.23 314H297.73V304.34H299.23V314ZM309.903 312.78C309.036 313.753 307.883 314.24 306.443 314.24C305.003 314.24 303.843 313.753 302.963 312.78C302.096 311.807 301.663 310.6 301.663 309.16C301.663 307.72 302.096 306.52 302.963 305.56C303.843 304.587 305.003 304.1 306.443 304.1C307.883 304.1 309.036 304.587 309.903 305.56C310.783 306.52 311.223 307.72 311.223 309.16C311.223 310.6 310.783 311.807 309.903 312.78ZM304.103 311.82C304.676 312.54 305.456 312.9 306.443 312.9C307.429 312.9 308.209 312.54 308.783 311.82C309.356 311.087 309.643 310.2 309.643 309.16C309.643 308.12 309.356 307.24 308.783 306.52C308.209 305.8 307.429 305.44 306.443 305.44C305.456 305.44 304.676 305.8 304.103 306.52C303.529 307.24 303.243 308.12 303.243 309.16C303.243 310.2 303.529 311.087 304.103 311.82ZM309.643 300L306.263 302.88H305.123L308.083 300H309.643ZM321.688 314H320.208V307.68C320.208 306.867 320.021 306.293 319.648 305.96C319.275 305.613 318.735 305.44 318.028 305.44C317.468 305.44 316.928 305.587 316.408 305.88C315.888 306.173 315.475 306.527 315.168 306.94V314H313.668V304.34H315.168V305.74C315.541 305.287 316.041 304.9 316.668 304.58C317.295 304.26 317.948 304.1 318.628 304.1C320.668 304.1 321.688 305.14 321.688 307.22V314ZM332.999 317.28L332.079 317.98C330.199 315.393 329.259 312.447 329.259 309.14C329.259 305.833 330.199 302.887 332.079 300.3L332.999 300.98C332.292 302.367 331.766 303.68 331.419 304.92C331.072 306.16 330.899 307.567 330.899 309.14C330.899 310.7 331.072 312.107 331.419 313.36C331.766 314.6 332.292 315.907 332.999 317.28ZM339.5 306.12C338.9 306.733 338.127 307.04 337.18 307.04C336.233 307.04 335.46 306.733 334.86 306.12C334.26 305.493 333.96 304.713 333.96 303.78C333.96 302.82 334.26 302.027 334.86 301.4C335.46 300.773 336.233 300.46 337.18 300.46C338.127 300.46 338.9 300.773 339.5 301.4C340.1 302.027 340.4 302.82 340.4 303.78C340.4 304.713 340.1 305.493 339.5 306.12ZM337 314H335.9L344.42 300.66H345.54L337 314ZM346.44 313.32C345.853 313.933 345.087 314.24 344.14 314.24C343.193 314.24 342.42 313.927 341.82 313.3C341.22 312.673 340.92 311.893 340.92 310.96C340.92 310.013 341.22 309.227 341.82 308.6C342.42 307.973 343.193 307.66 344.14 307.66C345.073 307.66 345.84 307.973 346.44 308.6C347.04 309.227 347.34 310.013 347.34 310.96C347.34 311.907 347.04 312.693 346.44 313.32ZM335.72 305.38C336.107 305.807 336.593 306.02 337.18 306.02C337.767 306.02 338.247 305.807 338.62 305.38C339.007 304.953 339.2 304.42 339.2 303.78C339.2 303.113 339.013 302.567 338.64 302.14C338.267 301.7 337.78 301.48 337.18 301.48C336.593 301.48 336.107 301.7 335.72 302.14C335.347 302.567 335.16 303.113 335.16 303.78C335.16 304.42 335.347 304.953 335.72 305.38ZM342.66 312.58C343.047 313.007 343.54 313.22 344.14 313.22C344.74 313.22 345.227 313.007 345.6 312.58C345.973 312.153 346.16 311.613 346.16 310.96C346.16 310.307 345.973 309.767 345.6 309.34C345.227 308.9 344.74 308.68 344.14 308.68C343.54 308.68 343.047 308.9 342.66 309.34C342.287 309.767 342.1 310.307 342.1 310.96C342.1 311.613 342.287 312.153 342.66 312.58ZM349.248 317.98L348.328 317.28C349.035 315.907 349.562 314.6 349.908 313.36C350.255 312.107 350.428 310.7 350.428 309.14C350.428 307.567 350.255 306.16 349.908 304.92C349.562 303.68 349.035 302.367 348.328 300.98L349.248 300.3C351.128 302.887 352.068 305.833 352.068 309.14C352.068 312.447 351.128 315.393 349.248 317.98Z" fill="#FAFAFA"/>
<g opacity="0.4">
<path d="M367 269.946V0V269.946Z" fill="#FAFAFA"/>
<path d="M367 269.946V0" stroke="#FAFAFA" stroke-width="1.06667" stroke-dasharray="4 4"/>
</g>
<g opacity="0.4">
<path d="M420 269.946V0V269.946Z" fill="#FAFAFA"/>
<path d="M420 269.946V0" stroke="#FAFAFA" stroke-width="1.06667" stroke-dasharray="4 4"/>
</g>
<g opacity="0.4">
<path d="M474 269.946V0V269.946Z" fill="#FAFAFA"/>
<path d="M474 269.946V0" stroke="#FAFAFA" stroke-width="1.06667" stroke-dasharray="4 4"/>
</g>
<g opacity="0.4">
<path d="M528 269.946V0V269.946Z" fill="#FAFAFA"/>
<path d="M528 269.946V0" stroke="#FAFAFA" stroke-width="1.06667" stroke-dasharray="4 4"/>
</g>
<g opacity="0.4">
<path d="M583 269.946V0V269.946Z" fill="#FAFAFA"/>
<path d="M583 269.946V0" stroke="#FAFAFA" stroke-width="1.06667" stroke-dasharray="4 4"/>
</g>
<path opacity="0.8" d="M368.176 286H366.848V277.072L365.136 278.896L364.336 278.08L367.008 275.328H368.176V286Z" fill="#FAFAFA"/>
<path opacity="0.8" d="M423.192 286H415.864V284.928C418.051 283.221 419.587 281.904 420.472 280.976C421.357 280.048 421.8 279.157 421.8 278.304C421.8 277.664 421.576 277.179 421.128 276.848C420.691 276.517 420.168 276.352 419.56 276.352C418.333 276.352 417.368 276.8 416.664 277.696L415.848 276.848C416.253 276.315 416.781 275.904 417.432 275.616C418.093 275.317 418.803 275.168 419.56 275.168C420.531 275.168 421.368 275.44 422.072 275.984C422.787 276.528 423.144 277.301 423.144 278.304C423.144 279.296 422.717 280.288 421.864 281.28C421.011 282.261 419.709 283.44 417.96 284.816H423.192V286Z" fill="#FAFAFA"/>
<path opacity="0.8" d="M474.256 286.192C473.403 286.192 472.645 286.027 471.984 285.696C471.323 285.365 470.816 284.944 470.464 284.432L471.248 283.6C471.568 284.027 471.989 284.368 472.512 284.624C473.035 284.88 473.605 285.008 474.224 285.008C474.992 285.008 475.6 284.827 476.048 284.464C476.496 284.101 476.72 283.616 476.72 283.008C476.72 282.368 476.48 281.893 476 281.584C475.531 281.275 474.885 281.12 474.064 281.12C473.435 281.12 473.067 281.125 472.96 281.136V279.92C473.077 279.931 473.445 279.936 474.064 279.936C474.789 279.936 475.381 279.792 475.84 279.504C476.309 279.205 476.544 278.763 476.544 278.176C476.544 277.611 476.315 277.168 475.856 276.848C475.408 276.517 474.843 276.352 474.16 276.352C473.083 276.352 472.144 276.784 471.344 277.648L470.608 276.816C471.504 275.717 472.725 275.168 474.272 275.168C475.328 275.168 476.192 275.424 476.864 275.936C477.536 276.437 477.872 277.125 477.872 278C477.872 278.704 477.637 279.269 477.168 279.696C476.699 280.123 476.171 280.384 475.584 280.48C476.171 280.544 476.725 280.805 477.248 281.264C477.781 281.723 478.048 282.341 478.048 283.12C478.048 284.027 477.701 284.768 477.008 285.344C476.325 285.909 475.408 286.192 474.256 286.192Z" fill="#FAFAFA"/>
<path opacity="0.8" d="M530.912 286H529.584V283.296H524.512V282.192L529.088 275.328H530.912V282.128H532.416V283.296H530.912V286ZM529.584 282.128V276.56L525.84 282.128H529.584Z" fill="#FAFAFA"/>
<path opacity="0.8" d="M582.816 286.192C581.173 286.192 579.92 285.621 579.056 284.48L579.872 283.584C580.608 284.533 581.589 285.008 582.816 285.008C583.541 285.008 584.133 284.789 584.592 284.352C585.051 283.915 585.28 283.371 585.28 282.72C585.28 282.027 585.051 281.472 584.592 281.056C584.144 280.629 583.557 280.416 582.832 280.416C581.883 280.416 581.061 280.747 580.368 281.408L579.392 281.072V275.328H585.92V276.512H580.72V280.224C581.381 279.584 582.213 279.264 583.216 279.264C584.165 279.264 584.971 279.568 585.632 280.176C586.293 280.784 586.624 281.616 586.624 282.672C586.624 283.728 586.261 284.581 585.536 285.232C584.821 285.872 583.915 286.192 582.816 286.192Z" fill="#FAFAFA"/>
<g opacity="0.4">
<path d="M221 269.946V0V269.946Z" fill="#FAFAFA"/>
<path d="M221 269.946V0" stroke="#FAFAFA" stroke-width="1.06667" stroke-dasharray="4 4"/>
</g>
<g opacity="0.4">
<path d="M168 269.946V0V269.946Z" fill="#FAFAFA"/>
<path d="M168 269.946V0" stroke="#FAFAFA" stroke-width="1.06667" stroke-dasharray="4 4"/>
</g>
<g opacity="0.4">
<path d="M113 269.946V0V269.946Z" fill="#FAFAFA"/>
<path d="M113 269.946V0" stroke="#FAFAFA" stroke-width="1.06667" stroke-dasharray="4 4"/>
</g>
<g opacity="0.4">
<path d="M59 269.946V0V269.946Z" fill="#FAFAFA"/>
<path d="M59 269.946V0" stroke="#FAFAFA" stroke-width="1.06667" stroke-dasharray="4 4"/>
</g>
<g opacity="0.4">
<path d="M5 269.946V0V269.946Z" fill="#FAFAFA"/>
<path d="M5 269.946V0" stroke="#FAFAFA" stroke-width="1.06667" stroke-dasharray="4 4"/>
</g>
<path opacity="0.8" d="M222.176 286H220.848V277.072L219.136 278.896L218.336 278.08L221.008 275.328H222.176V286Z" fill="#FAFAFA"/>
<path opacity="0.8" d="M171.192 286H163.864V284.928C166.051 283.221 167.587 281.904 168.472 280.976C169.357 280.048 169.8 279.157 169.8 278.304C169.8 277.664 169.576 277.179 169.128 276.848C168.691 276.517 168.168 276.352 167.56 276.352C166.333 276.352 165.368 276.8 164.664 277.696L163.848 276.848C164.253 276.315 164.781 275.904 165.432 275.616C166.093 275.317 166.803 275.168 167.56 275.168C168.531 275.168 169.368 275.44 170.072 275.984C170.787 276.528 171.144 277.301 171.144 278.304C171.144 279.296 170.717 280.288 169.864 281.28C169.011 282.261 167.709 283.44 165.96 284.816H171.192V286Z" fill="#FAFAFA"/>
<path opacity="0.8" d="M113.256 286.192C112.403 286.192 111.645 286.027 110.984 285.696C110.323 285.365 109.816 284.944 109.464 284.432L110.248 283.6C110.568 284.027 110.989 284.368 111.512 284.624C112.035 284.88 112.605 285.008 113.224 285.008C113.992 285.008 114.6 284.827 115.048 284.464C115.496 284.101 115.72 283.616 115.72 283.008C115.72 282.368 115.48 281.893 115 281.584C114.531 281.275 113.885 281.12 113.064 281.12C112.435 281.12 112.067 281.125 111.96 281.136V279.92C112.077 279.931 112.445 279.936 113.064 279.936C113.789 279.936 114.381 279.792 114.84 279.504C115.309 279.205 115.544 278.763 115.544 278.176C115.544 277.611 115.315 277.168 114.856 276.848C114.408 276.517 113.843 276.352 113.16 276.352C112.083 276.352 111.144 276.784 110.344 277.648L109.608 276.816C110.504 275.717 111.725 275.168 113.272 275.168C114.328 275.168 115.192 275.424 115.864 275.936C116.536 276.437 116.872 277.125 116.872 278C116.872 278.704 116.637 279.269 116.168 279.696C115.699 280.123 115.171 280.384 114.584 280.48C115.171 280.544 115.725 280.805 116.248 281.264C116.781 281.723 117.048 282.341 117.048 283.12C117.048 284.027 116.701 284.768 116.008 285.344C115.325 285.909 114.408 286.192 113.256 286.192Z" fill="#FAFAFA"/>
<path opacity="0.8" d="M61.912 286H60.584V283.296H55.512V282.192L60.088 275.328H61.912V282.128H63.416V283.296H61.912V286ZM60.584 282.128V276.56L56.84 282.128H60.584Z" fill="#FAFAFA"/>
<path opacity="0.8" d="M4.816 286.192C3.17333 286.192 1.92 285.621 1.056 284.48L1.872 283.584C2.608 284.533 3.58933 285.008 4.816 285.008C5.54133 285.008 6.13333 284.789 6.592 284.352C7.05067 283.915 7.28 283.371 7.28 282.72C7.28 282.027 7.05067 281.472 6.592 281.056C6.144 280.629 5.55733 280.416 4.832 280.416C3.88267 280.416 3.06133 280.747 2.368 281.408L1.392 281.072V275.328H7.92V276.512H2.72V280.224C3.38133 279.584 4.21333 279.264 5.216 279.264C6.16533 279.264 6.97067 279.568 7.632 280.176C8.29333 280.784 8.624 281.616 8.624 282.672C8.624 283.728 8.26133 284.581 7.536 285.232C6.82133 285.872 5.91467 286.192 4.816 286.192Z" fill="#FAFAFA"/>
<path d="M274.665 0H252.767V12H274.665V0Z" fill="#41A5B4"/>
<path d="M314.665 0H346.417V12H314.665V0Z" fill="#698F3F"/>
<path d="M274.665 15H248.935V27H274.665V15Z" fill="#41A5B4"/>
<path d="M314.665 15H349.701V27H314.665V15Z" fill="#698F3F"/>
<path d="M274.665 30H230.869V42H274.665V30Z" fill="#41A5B4"/>
<path d="M314.665 30H371.599V42H314.665V30Z" fill="#698F3F"/>
<path d="M274.665 45H208.971V57H274.665V45Z" fill="#41A5B4"/>
<path d="M314.665 45H396.782V57H314.665V45Z" fill="#698F3F"/>
<path d="M274.665 60H183.789V72H274.665V60Z" fill="#41A5B4"/>
<path d="M314.665 60H425.796V72H314.665V60Z" fill="#698F3F"/>
<path d="M274.665 75H158.606V87H274.665V75Z" fill="#41A5B4"/>
<path d="M314.665 75H452.621V87H314.665V75Z" fill="#698F3F"/>
<path d="M274.665 90H141.635V102H274.665V90Z" fill="#41A5B4"/>
<path d="M314.665 90H469.592V102H314.665V90Z" fill="#698F3F"/>
<path d="M274.665 105H134.518V117H274.665V105Z" fill="#41A5B4"/>
<path d="M314.665 105H473.972V117H314.665V105Z" fill="#698F3F"/>
<path d="M274.665 120H118.642V132H274.665V120Z" fill="#41A5B4"/>
<path d="M314.665 120H486.016V132H314.665V120Z" fill="#698F3F"/>
<path d="M274.665 135H94.0074V147H274.665V135Z" fill="#41A5B4"/>
<path d="M314.665 135H507.366V147H314.665V135Z" fill="#698F3F"/>
<path d="M274.665 150H77.5841V162H274.665V150Z" fill="#41A5B4"/>
<path d="M314.665 150H519.41V162H314.665V150Z" fill="#698F3F"/>
<path d="M274.665 165H54.5913V177H274.665V165Z" fill="#41A5B4"/>
<path d="M314.665 165H538.023V177H314.665V165Z" fill="#698F3F"/>
<path d="M274.665 180H42V192H274.665V180Z" fill="#41A5B4"/>
<path d="M314.665 180H546.235V192H314.665V180Z" fill="#698F3F"/>
<path d="M274.665 195H51.8541V207H274.665V195Z" fill="#41A5B4"/>
<path d="M314.665 195H533.096V207H314.665V195Z" fill="#698F3F"/>
<path d="M274.665 210H62.2555V222H274.665V210Z" fill="#41A5B4"/>
<path d="M314.665 210H518.862V222H314.665V210Z" fill="#698F3F"/>
<path d="M274.665 225H63.8979V237H274.665V225Z" fill="#41A5B4"/>
<path d="M314.665 225H516.672V237H314.665V225Z" fill="#698F3F"/>
<path d="M274.665 240H65.5402V252H274.665V240Z" fill="#41A5B4"/>
<path d="M314.665 240H515.03V252H314.665V240Z" fill="#698F3F"/>
<path d="M274.665 255H81.4161V267H274.665V255Z" fill="#41A5B4"/>
<path d="M314.665 255H499.154V267H314.665V255Z" fill="#698F3F"/>
<path opacity="0.8" d="M288.978 265.156C288.406 265.156 287.899 265.026 287.457 264.766C287.024 264.497 286.677 264.142 286.417 263.7C286.166 263.258 285.975 262.781 285.845 262.27C285.724 261.759 285.663 261.226 285.663 260.671C285.663 260.116 285.724 259.583 285.845 259.072C285.975 258.561 286.166 258.088 286.417 257.655C286.677 257.213 287.024 256.862 287.457 256.602C287.899 256.333 288.406 256.199 288.978 256.199C289.541 256.199 290.044 256.333 290.486 256.602C290.928 256.862 291.275 257.213 291.526 257.655C291.786 258.088 291.977 258.561 292.098 259.072C292.228 259.583 292.293 260.116 292.293 260.671C292.293 261.226 292.228 261.759 292.098 262.27C291.977 262.781 291.786 263.258 291.526 263.7C291.275 264.142 290.928 264.497 290.486 264.766C290.044 265.026 289.541 265.156 288.978 265.156ZM287.678 263.661C288.025 264.016 288.458 264.194 288.978 264.194C289.498 264.194 289.931 264.016 290.278 263.661C290.625 263.297 290.863 262.864 290.993 262.361C291.123 261.858 291.188 261.295 291.188 260.671C291.188 260.047 291.123 259.484 290.993 258.981C290.863 258.478 290.625 258.049 290.278 257.694C289.931 257.339 289.498 257.161 288.978 257.161C288.458 257.161 288.025 257.339 287.678 257.694C287.331 258.049 287.093 258.478 286.963 258.981C286.833 259.484 286.768 260.047 286.768 260.671C286.768 261.295 286.833 261.858 286.963 262.361C287.093 262.864 287.331 263.297 287.678 263.661ZM296.47 262.283H293.35V261.425H296.47V262.283ZM302.473 265H301.394V262.803H297.273V261.906L300.991 256.329H302.473V261.854H303.695V262.803H302.473V265ZM301.394 261.854V257.33L298.352 261.854H301.394Z" fill="#FAFAFA"/>
<path opacity="0.8" d="M288.913 250.156C287.578 250.156 286.56 249.692 285.858 248.765L286.521 248.037C287.119 248.808 287.916 249.194 288.913 249.194C289.502 249.194 289.983 249.016 290.356 248.661C290.729 248.306 290.915 247.864 290.915 247.335C290.915 246.772 290.729 246.321 290.356 245.983C289.992 245.636 289.515 245.463 288.926 245.463C288.155 245.463 287.487 245.732 286.924 246.269L286.131 245.996V241.329H291.435V242.291H287.21V245.307C287.747 244.787 288.423 244.527 289.238 244.527C290.009 244.527 290.664 244.774 291.201 245.268C291.738 245.762 292.007 246.438 292.007 247.296C292.007 248.154 291.712 248.847 291.123 249.376C290.542 249.896 289.806 250.156 288.913 250.156ZM296.178 247.283H293.058V246.425H296.178V247.283ZM300.062 250.143C299.074 250.143 298.273 249.796 297.657 249.103L298.203 248.297C298.706 248.886 299.326 249.181 300.062 249.181C300.617 249.181 301.085 249.008 301.466 248.661C301.848 248.314 302.116 247.894 302.272 247.4C302.428 246.906 302.506 246.364 302.506 245.775C302.506 245.628 302.502 245.515 302.493 245.437C302.277 245.784 301.943 246.096 301.492 246.373C301.042 246.65 300.561 246.789 300.049 246.789C299.226 246.789 298.546 246.551 298.008 246.074C297.471 245.589 297.202 244.904 297.202 244.02C297.202 243.24 297.48 242.573 298.034 242.018C298.589 241.463 299.326 241.186 300.244 241.186C300.825 241.186 301.336 241.307 301.778 241.55C302.22 241.793 302.571 242.126 302.831 242.551C303.091 242.976 303.282 243.448 303.403 243.968C303.533 244.488 303.598 245.056 303.598 245.671C303.598 246.486 303.477 247.222 303.234 247.881C302.992 248.531 302.597 249.073 302.051 249.506C301.505 249.931 300.842 250.143 300.062 250.143ZM300.296 245.853C300.721 245.853 301.128 245.736 301.518 245.502C301.917 245.259 302.233 244.943 302.467 244.553C302.441 244.267 302.381 243.99 302.285 243.721C302.199 243.452 302.073 243.197 301.908 242.954C301.744 242.711 301.518 242.516 301.232 242.369C300.955 242.222 300.639 242.148 300.283 242.148C299.668 242.148 299.183 242.339 298.827 242.72C298.472 243.093 298.294 243.513 298.294 243.981C298.294 244.588 298.481 245.051 298.853 245.372C299.226 245.693 299.707 245.853 300.296 245.853Z" fill="#FAFAFA"/>
<path opacity="0.8" d="M284.393 235H283.314V227.746L281.923 229.228L281.273 228.565L283.444 226.329H284.393V235ZM289.383 235.156C288.811 235.156 288.304 235.026 287.862 234.766C287.429 234.497 287.082 234.142 286.822 233.7C286.571 233.258 286.38 232.781 286.25 232.27C286.129 231.759 286.068 231.226 286.068 230.671C286.068 230.116 286.129 229.583 286.25 229.072C286.38 228.561 286.571 228.088 286.822 227.655C287.082 227.213 287.429 226.862 287.862 226.602C288.304 226.333 288.811 226.199 289.383 226.199C289.947 226.199 290.449 226.333 290.891 226.602C291.333 226.862 291.68 227.213 291.931 227.655C292.191 228.088 292.382 228.561 292.503 229.072C292.633 229.583 292.698 230.116 292.698 230.671C292.698 231.226 292.633 231.759 292.503 232.27C292.382 232.781 292.191 233.258 291.931 233.7C291.68 234.142 291.333 234.497 290.891 234.766C290.449 235.026 289.947 235.156 289.383 235.156ZM288.083 233.661C288.43 234.016 288.863 234.194 289.383 234.194C289.903 234.194 290.337 234.016 290.683 233.661C291.03 233.297 291.268 232.864 291.398 232.361C291.528 231.858 291.593 231.295 291.593 230.671C291.593 230.047 291.528 229.484 291.398 228.981C291.268 228.478 291.03 228.049 290.683 227.694C290.337 227.339 289.903 227.161 289.383 227.161C288.863 227.161 288.43 227.339 288.083 227.694C287.737 228.049 287.498 228.478 287.368 228.981C287.238 229.484 287.173 230.047 287.173 230.671C287.173 231.295 287.238 231.858 287.368 232.361C287.498 232.864 287.737 233.297 288.083 233.661ZM296.875 232.283H293.755V231.425H296.875V232.283ZM300.656 235H299.577V227.746L298.186 229.228L297.536 228.565L299.707 226.329H300.656V235ZM307.284 235H306.205V232.803H302.084V231.906L305.802 226.329H307.284V231.854H308.506V232.803H307.284V235ZM306.205 231.854V227.33L303.163 231.854H306.205Z" fill="#FAFAFA"/>
<path opacity="0.8" d="M283.393 220H282.314V212.746L280.923 214.228L280.273 213.565L282.444 211.329H283.393V220ZM288.318 220.156C286.984 220.156 285.965 219.692 285.263 218.765L285.926 218.037C286.524 218.808 287.322 219.194 288.318 219.194C288.908 219.194 289.389 219.016 289.761 218.661C290.134 218.306 290.32 217.864 290.32 217.335C290.32 216.772 290.134 216.321 289.761 215.983C289.397 215.636 288.921 215.463 288.331 215.463C287.56 215.463 286.893 215.732 286.329 216.269L285.536 215.996V211.329H290.84V212.291H286.615V215.307C287.153 214.787 287.829 214.527 288.643 214.527C289.415 214.527 290.069 214.774 290.606 215.268C291.144 215.762 291.412 216.438 291.412 217.296C291.412 218.154 291.118 218.847 290.528 219.376C289.948 219.896 289.211 220.156 288.318 220.156ZM295.583 217.283H292.463V216.425H295.583V217.283ZM299.364 220H298.285V212.746L296.894 214.228L296.244 213.565L298.415 211.329H299.364V220ZM303.873 220.143C302.885 220.143 302.083 219.796 301.468 219.103L302.014 218.297C302.517 218.886 303.136 219.181 303.873 219.181C304.428 219.181 304.896 219.008 305.277 218.661C305.658 218.314 305.927 217.894 306.083 217.4C306.239 216.906 306.317 216.364 306.317 215.775C306.317 215.628 306.313 215.515 306.304 215.437C306.087 215.784 305.754 216.096 305.303 216.373C304.852 216.65 304.371 216.789 303.86 216.789C303.037 216.789 302.356 216.551 301.819 216.074C301.282 215.589 301.013 214.904 301.013 214.02C301.013 213.24 301.29 212.573 301.845 212.018C302.4 211.463 303.136 211.186 304.055 211.186C304.636 211.186 305.147 211.307 305.589 211.55C306.031 211.793 306.382 212.126 306.642 212.551C306.902 212.976 307.093 213.448 307.214 213.968C307.344 214.488 307.409 215.056 307.409 215.671C307.409 216.486 307.288 217.222 307.045 217.881C306.802 218.531 306.408 219.073 305.862 219.506C305.316 219.931 304.653 220.143 303.873 220.143ZM304.107 215.853C304.532 215.853 304.939 215.736 305.329 215.502C305.728 215.259 306.044 214.943 306.278 214.553C306.252 214.267 306.191 213.99 306.096 213.721C306.009 213.452 305.884 213.197 305.719 212.954C305.554 212.711 305.329 212.516 305.043 212.369C304.766 212.222 304.449 212.148 304.094 212.148C303.479 212.148 302.993 212.339 302.638 212.72C302.283 213.093 302.105 213.513 302.105 213.981C302.105 214.588 302.291 215.051 302.664 215.372C303.037 215.693 303.518 215.853 304.107 215.853Z" fill="#FAFAFA"/>
<path opacity="0.8" d="M283.656 205H277.702V204.129C279.479 202.742 280.727 201.672 281.446 200.918C282.165 200.164 282.525 199.44 282.525 198.747C282.525 198.227 282.343 197.833 281.979 197.564C281.624 197.295 281.199 197.161 280.705 197.161C279.708 197.161 278.924 197.525 278.352 198.253L277.689 197.564C278.018 197.131 278.447 196.797 278.976 196.563C279.513 196.32 280.09 196.199 280.705 196.199C281.494 196.199 282.174 196.42 282.746 196.862C283.327 197.304 283.617 197.932 283.617 198.747C283.617 199.553 283.27 200.359 282.577 201.165C281.884 201.962 280.826 202.92 279.405 204.038H283.656V205ZM288.621 205.156C288.049 205.156 287.542 205.026 287.1 204.766C286.666 204.497 286.32 204.142 286.06 203.7C285.808 203.258 285.618 202.781 285.488 202.27C285.366 201.759 285.306 201.226 285.306 200.671C285.306 200.116 285.366 199.583 285.488 199.072C285.618 198.561 285.808 198.088 286.06 197.655C286.32 197.213 286.666 196.862 287.1 196.602C287.542 196.333 288.049 196.199 288.621 196.199C289.184 196.199 289.687 196.333 290.129 196.602C290.571 196.862 290.917 197.213 291.169 197.655C291.429 198.088 291.619 198.561 291.741 199.072C291.871 199.583 291.936 200.116 291.936 200.671C291.936 201.226 291.871 201.759 291.741 202.27C291.619 202.781 291.429 203.258 291.169 203.7C290.917 204.142 290.571 204.497 290.129 204.766C289.687 205.026 289.184 205.156 288.621 205.156ZM287.321 203.661C287.667 204.016 288.101 204.194 288.621 204.194C289.141 204.194 289.574 204.016 289.921 203.661C290.267 203.297 290.506 202.864 290.636 202.361C290.766 201.858 290.831 201.295 290.831 200.671C290.831 200.047 290.766 199.484 290.636 198.981C290.506 198.478 290.267 198.049 289.921 197.694C289.574 197.339 289.141 197.161 288.621 197.161C288.101 197.161 287.667 197.339 287.321 197.694C286.974 198.049 286.736 198.478 286.606 198.981C286.476 199.484 286.411 200.047 286.411 200.671C286.411 201.295 286.476 201.858 286.606 202.361C286.736 202.864 286.974 203.297 287.321 203.661ZM296.113 202.283H292.993V201.425H296.113V202.283ZM303.156 205H297.202V204.129C298.979 202.742 300.227 201.672 300.946 200.918C301.665 200.164 302.025 199.44 302.025 198.747C302.025 198.227 301.843 197.833 301.479 197.564C301.124 197.295 300.699 197.161 300.205 197.161C299.208 197.161 298.424 197.525 297.852 198.253L297.189 197.564C297.518 197.131 297.947 196.797 298.476 196.563C299.013 196.32 299.59 196.199 300.205 196.199C300.994 196.199 301.674 196.42 302.246 196.862C302.827 197.304 303.117 197.932 303.117 198.747C303.117 199.553 302.77 200.359 302.077 201.165C301.384 201.962 300.326 202.92 298.905 204.038H303.156V205ZM309.759 205H308.68V202.803H304.559V201.906L308.277 196.329H309.759V201.854H310.981V202.803H309.759V205ZM308.68 201.854V197.33L305.638 201.854H308.68Z" fill="#FAFAFA"/>
<path opacity="0.8" d="M283.656 190H277.702V189.129C279.479 187.742 280.727 186.672 281.446 185.918C282.165 185.164 282.525 184.44 282.525 183.747C282.525 183.227 282.343 182.833 281.979 182.564C281.624 182.295 281.199 182.161 280.705 182.161C279.708 182.161 278.924 182.525 278.352 183.253L277.689 182.564C278.018 182.131 278.447 181.797 278.976 181.563C279.513 181.32 280.09 181.199 280.705 181.199C281.494 181.199 282.174 181.42 282.746 181.862C283.327 182.304 283.617 182.932 283.617 183.747C283.617 184.553 283.27 185.359 282.577 186.165C281.884 186.962 280.826 187.92 279.405 189.038H283.656V190ZM288.556 190.156C287.221 190.156 286.203 189.692 285.501 188.765L286.164 188.037C286.762 188.808 287.559 189.194 288.556 189.194C289.145 189.194 289.626 189.016 289.999 188.661C290.371 188.306 290.558 187.864 290.558 187.335C290.558 186.772 290.371 186.321 289.999 185.983C289.635 185.636 289.158 185.463 288.569 185.463C287.797 185.463 287.13 185.732 286.567 186.269L285.774 185.996V181.329H291.078V182.291H286.853V185.307C287.39 184.787 288.066 184.527 288.881 184.527C289.652 184.527 290.306 184.774 290.844 185.268C291.381 185.762 291.65 186.438 291.65 187.296C291.65 188.154 291.355 188.847 290.766 189.376C290.185 189.896 289.448 190.156 288.556 190.156ZM295.821 187.283H292.701V186.425H295.821V187.283ZM302.864 190H296.91V189.129C298.687 187.742 299.935 186.672 300.654 185.918C301.373 185.164 301.733 184.44 301.733 183.747C301.733 183.227 301.551 182.833 301.187 182.564C300.832 182.295 300.407 182.161 299.913 182.161C298.916 182.161 298.132 182.525 297.56 183.253L296.897 182.564C297.226 182.131 297.655 181.797 298.184 181.563C298.721 181.32 299.298 181.199 299.913 181.199C300.702 181.199 301.382 181.42 301.954 181.862C302.535 182.304 302.825 182.932 302.825 183.747C302.825 184.553 302.478 185.359 301.785 186.165C301.092 186.962 300.034 187.92 298.613 189.038H302.864V190ZM307.348 190.143C306.36 190.143 305.558 189.796 304.943 189.103L305.489 188.297C305.991 188.886 306.611 189.181 307.348 189.181C307.902 189.181 308.37 189.008 308.752 188.661C309.133 188.314 309.402 187.894 309.558 187.4C309.714 186.906 309.792 186.364 309.792 185.775C309.792 185.628 309.787 185.515 309.779 185.437C309.562 185.784 309.228 186.096 308.778 186.373C308.327 186.65 307.846 186.789 307.335 186.789C306.511 186.789 305.831 186.551 305.294 186.074C304.756 185.589 304.488 184.904 304.488 184.02C304.488 183.24 304.765 182.573 305.32 182.018C305.874 181.463 306.611 181.186 307.53 181.186C308.11 181.186 308.622 181.307 309.064 181.55C309.506 181.793 309.857 182.126 310.117 182.551C310.377 182.976 310.567 183.448 310.689 183.968C310.819 184.488 310.884 185.056 310.884 185.671C310.884 186.486 310.762 187.222 310.52 187.881C310.277 188.531 309.883 189.073 309.337 189.506C308.791 189.931 308.128 190.143 307.348 190.143ZM307.582 185.853C308.006 185.853 308.414 185.736 308.804 185.502C309.202 185.259 309.519 184.943 309.753 184.553C309.727 184.267 309.666 183.99 309.571 183.721C309.484 183.452 309.358 183.197 309.194 182.954C309.029 182.711 308.804 182.516 308.518 182.369C308.24 182.222 307.924 182.148 307.569 182.148C306.953 182.148 306.468 182.339 306.113 182.72C305.757 183.093 305.58 183.513 305.58 183.981C305.58 184.588 305.766 185.051 306.139 185.372C306.511 185.693 306.992 185.853 307.582 185.853Z" fill="#FAFAFA"/>
<path opacity="0.8" d="M281.458 175.156C280.765 175.156 280.149 175.022 279.612 174.753C279.075 174.484 278.663 174.142 278.377 173.726L279.014 173.05C279.274 173.397 279.616 173.674 280.041 173.882C280.466 174.09 280.929 174.194 281.432 174.194C282.056 174.194 282.55 174.047 282.914 173.752C283.278 173.457 283.46 173.063 283.46 172.569C283.46 172.049 283.265 171.663 282.875 171.412C282.494 171.161 281.969 171.035 281.302 171.035C280.791 171.035 280.492 171.039 280.405 171.048V170.06C280.5 170.069 280.799 170.073 281.302 170.073C281.891 170.073 282.372 169.956 282.745 169.722C283.126 169.479 283.317 169.12 283.317 168.643C283.317 168.184 283.131 167.824 282.758 167.564C282.394 167.295 281.935 167.161 281.38 167.161C280.505 167.161 279.742 167.512 279.092 168.214L278.494 167.538C279.222 166.645 280.214 166.199 281.471 166.199C282.329 166.199 283.031 166.407 283.577 166.823C284.123 167.23 284.396 167.789 284.396 168.5C284.396 169.072 284.205 169.531 283.824 169.878C283.443 170.225 283.014 170.437 282.537 170.515C283.014 170.567 283.464 170.779 283.889 171.152C284.322 171.525 284.539 172.027 284.539 172.66C284.539 173.397 284.257 173.999 283.694 174.467C283.139 174.926 282.394 175.156 281.458 175.156ZM289.214 175.156C288.642 175.156 288.135 175.026 287.693 174.766C287.26 174.497 286.913 174.142 286.653 173.7C286.402 173.258 286.211 172.781 286.081 172.27C285.96 171.759 285.899 171.226 285.899 170.671C285.899 170.116 285.96 169.583 286.081 169.072C286.211 168.561 286.402 168.088 286.653 167.655C286.913 167.213 287.26 166.862 287.693 166.602C288.135 166.333 288.642 166.199 289.214 166.199C289.778 166.199 290.28 166.333 290.722 166.602C291.164 166.862 291.511 167.213 291.762 167.655C292.022 168.088 292.213 168.561 292.334 169.072C292.464 169.583 292.529 170.116 292.529 170.671C292.529 171.226 292.464 171.759 292.334 172.27C292.213 172.781 292.022 173.258 291.762 173.7C291.511 174.142 291.164 174.497 290.722 174.766C290.28 175.026 289.778 175.156 289.214 175.156ZM287.914 173.661C288.261 174.016 288.694 174.194 289.214 174.194C289.734 174.194 290.168 174.016 290.514 173.661C290.861 173.297 291.099 172.864 291.229 172.361C291.359 171.858 291.424 171.295 291.424 170.671C291.424 170.047 291.359 169.484 291.229 168.981C291.099 168.478 290.861 168.049 290.514 167.694C290.168 167.339 289.734 167.161 289.214 167.161C288.694 167.161 288.261 167.339 287.914 167.694C287.568 168.049 287.329 168.478 287.199 168.981C287.069 169.484 287.004 170.047 287.004 170.671C287.004 171.295 287.069 171.858 287.199 172.361C287.329 172.864 287.568 173.297 287.914 173.661ZM296.706 172.283H293.586V171.425H296.706V172.283ZM300.552 175.156C299.858 175.156 299.243 175.022 298.706 174.753C298.168 174.484 297.757 174.142 297.471 173.726L298.108 173.05C298.368 173.397 298.71 173.674 299.135 173.882C299.559 174.09 300.023 174.194 300.526 174.194C301.15 174.194 301.644 174.047 302.008 173.752C302.372 173.457 302.554 173.063 302.554 172.569C302.554 172.049 302.359 171.663 301.969 171.412C301.587 171.161 301.063 171.035 300.396 171.035C299.884 171.035 299.585 171.039 299.499 171.048V170.06C299.594 170.069 299.893 170.073 300.396 170.073C300.985 170.073 301.466 169.956 301.839 169.722C302.22 169.479 302.411 169.12 302.411 168.643C302.411 168.184 302.224 167.824 301.852 167.564C301.488 167.295 301.028 167.161 300.474 167.161C299.598 167.161 298.836 167.512 298.186 168.214L297.588 167.538C298.316 166.645 299.308 166.199 300.565 166.199C301.423 166.199 302.125 166.407 302.671 166.823C303.217 167.23 303.49 167.789 303.49 168.5C303.49 169.072 303.299 169.531 302.918 169.878C302.536 170.225 302.107 170.437 301.631 170.515C302.107 170.567 302.558 170.779 302.983 171.152C303.416 171.525 303.633 172.027 303.633 172.66C303.633 173.397 303.351 173.999 302.788 174.467C302.233 174.926 301.488 175.156 300.552 175.156ZM309.946 175H308.867V172.803H304.746V171.906L308.464 166.329H309.946V171.854H311.168V172.803H309.946V175ZM308.867 171.854V167.33L305.825 171.854H308.867Z" fill="#FAFAFA"/>
<path opacity="0.8" d="M281.458 160.156C280.765 160.156 280.149 160.022 279.612 159.753C279.075 159.484 278.663 159.142 278.377 158.726L279.014 158.05C279.274 158.397 279.616 158.674 280.041 158.882C280.466 159.09 280.929 159.194 281.432 159.194C282.056 159.194 282.55 159.047 282.914 158.752C283.278 158.457 283.46 158.063 283.46 157.569C283.46 157.049 283.265 156.663 282.875 156.412C282.494 156.161 281.969 156.035 281.302 156.035C280.791 156.035 280.492 156.039 280.405 156.048V155.06C280.5 155.069 280.799 155.073 281.302 155.073C281.891 155.073 282.372 154.956 282.745 154.722C283.126 154.479 283.317 154.12 283.317 153.643C283.317 153.184 283.131 152.824 282.758 152.564C282.394 152.295 281.935 152.161 281.38 152.161C280.505 152.161 279.742 152.512 279.092 153.214L278.494 152.538C279.222 151.645 280.214 151.199 281.471 151.199C282.329 151.199 283.031 151.407 283.577 151.823C284.123 152.23 284.396 152.789 284.396 153.5C284.396 154.072 284.205 154.531 283.824 154.878C283.443 155.225 283.014 155.437 282.537 155.515C283.014 155.567 283.464 155.779 283.889 156.152C284.322 156.525 284.539 157.027 284.539 157.66C284.539 158.397 284.257 158.999 283.694 159.467C283.139 159.926 282.394 160.156 281.458 160.156ZM289.149 160.156C287.815 160.156 286.796 159.692 286.094 158.765L286.757 158.037C287.355 158.808 288.153 159.194 289.149 159.194C289.739 159.194 290.22 159.016 290.592 158.661C290.965 158.306 291.151 157.864 291.151 157.335C291.151 156.772 290.965 156.321 290.592 155.983C290.228 155.636 289.752 155.463 289.162 155.463C288.391 155.463 287.724 155.732 287.16 156.269L286.367 155.996V151.329H291.671V152.291H287.446V155.307C287.984 154.787 288.66 154.527 289.474 154.527C290.246 154.527 290.9 154.774 291.437 155.268C291.975 155.762 292.243 156.438 292.243 157.296C292.243 158.154 291.949 158.847 291.359 159.376C290.779 159.896 290.042 160.156 289.149 160.156ZM296.414 157.283H293.294V156.425H296.414V157.283ZM300.26 160.156C299.566 160.156 298.951 160.022 298.414 159.753C297.876 159.484 297.465 159.142 297.179 158.726L297.816 158.05C298.076 158.397 298.418 158.674 298.843 158.882C299.267 159.09 299.731 159.194 300.234 159.194C300.858 159.194 301.352 159.047 301.716 158.752C302.08 158.457 302.262 158.063 302.262 157.569C302.262 157.049 302.067 156.663 301.677 156.412C301.295 156.161 300.771 156.035 300.104 156.035C299.592 156.035 299.293 156.039 299.207 156.048V155.06C299.302 155.069 299.601 155.073 300.104 155.073C300.693 155.073 301.174 154.956 301.547 154.722C301.928 154.479 302.119 154.12 302.119 153.643C302.119 153.184 301.932 152.824 301.56 152.564C301.196 152.295 300.736 152.161 300.182 152.161C299.306 152.161 298.544 152.512 297.894 153.214L297.296 152.538C298.024 151.645 299.016 151.199 300.273 151.199C301.131 151.199 301.833 151.407 302.379 151.823C302.925 152.23 303.198 152.789 303.198 153.5C303.198 154.072 303.007 154.531 302.626 154.878C302.244 155.225 301.815 155.437 301.339 155.515C301.815 155.567 302.266 155.779 302.691 156.152C303.124 156.525 303.341 157.027 303.341 157.66C303.341 158.397 303.059 158.999 302.496 159.467C301.941 159.926 301.196 160.156 300.26 160.156ZM307.535 160.143C306.547 160.143 305.745 159.796 305.13 159.103L305.676 158.297C306.179 158.886 306.798 159.181 307.535 159.181C308.09 159.181 308.558 159.008 308.939 158.661C309.32 158.314 309.589 157.894 309.745 157.4C309.901 156.906 309.979 156.364 309.979 155.775C309.979 155.628 309.975 155.515 309.966 155.437C309.749 155.784 309.416 156.096 308.965 156.373C308.514 156.65 308.033 156.789 307.522 156.789C306.699 156.789 306.018 156.551 305.481 156.074C304.944 155.589 304.675 154.904 304.675 154.02C304.675 153.24 304.952 152.573 305.507 152.018C306.062 151.463 306.798 151.186 307.717 151.186C308.298 151.186 308.809 151.307 309.251 151.55C309.693 151.793 310.044 152.126 310.304 152.551C310.564 152.976 310.755 153.448 310.876 153.968C311.006 154.488 311.071 155.056 311.071 155.671C311.071 156.486 310.95 157.222 310.707 157.881C310.464 158.531 310.07 159.073 309.524 159.506C308.978 159.931 308.315 160.143 307.535 160.143ZM307.769 155.853C308.194 155.853 308.601 155.736 308.991 155.502C309.39 155.259 309.706 154.943 309.94 154.553C309.914 154.267 309.853 153.99 309.758 153.721C309.671 153.452 309.546 153.197 309.381 152.954C309.216 152.711 308.991 152.516 308.705 152.369C308.428 152.222 308.111 152.148 307.756 152.148C307.141 152.148 306.655 152.339 306.3 152.72C305.945 153.093 305.767 153.513 305.767 153.981C305.767 154.588 305.953 155.051 306.326 155.372C306.699 155.693 307.18 155.853 307.769 155.853Z" fill="#FAFAFA"/>
<path opacity="0.8" d="M283.616 145H282.537V142.803H278.416V141.906L282.134 136.329H283.616V141.854H284.838V142.803H283.616V145ZM282.537 141.854V137.33L279.495 141.854H282.537ZM289.227 145.156C288.655 145.156 288.148 145.026 287.706 144.766C287.273 144.497 286.926 144.142 286.666 143.7C286.415 143.258 286.224 142.781 286.094 142.27C285.973 141.759 285.912 141.226 285.912 140.671C285.912 140.116 285.973 139.583 286.094 139.072C286.224 138.561 286.415 138.088 286.666 137.655C286.926 137.213 287.273 136.862 287.706 136.602C288.148 136.333 288.655 136.199 289.227 136.199C289.79 136.199 290.293 136.333 290.735 136.602C291.177 136.862 291.524 137.213 291.775 137.655C292.035 138.088 292.226 138.561 292.347 139.072C292.477 139.583 292.542 140.116 292.542 140.671C292.542 141.226 292.477 141.759 292.347 142.27C292.226 142.781 292.035 143.258 291.775 143.7C291.524 144.142 291.177 144.497 290.735 144.766C290.293 145.026 289.79 145.156 289.227 145.156ZM287.927 143.661C288.274 144.016 288.707 144.194 289.227 144.194C289.747 144.194 290.18 144.016 290.527 143.661C290.874 143.297 291.112 142.864 291.242 142.361C291.372 141.858 291.437 141.295 291.437 140.671C291.437 140.047 291.372 139.484 291.242 138.981C291.112 138.478 290.874 138.049 290.527 137.694C290.18 137.339 289.747 137.161 289.227 137.161C288.707 137.161 288.274 137.339 287.927 137.694C287.58 138.049 287.342 138.478 287.212 138.981C287.082 139.484 287.017 140.047 287.017 140.671C287.017 141.295 287.082 141.858 287.212 142.361C287.342 142.864 287.58 143.297 287.927 143.661ZM296.719 142.283H293.599V141.425H296.719V142.283ZM302.722 145H301.643V142.803H297.522V141.906L301.24 136.329H302.722V141.854H303.944V142.803H302.722V145ZM301.643 141.854V137.33L298.601 141.854H301.643ZM309.971 145H308.892V142.803H304.771V141.906L308.489 136.329H309.971V141.854H311.193V142.803H309.971V145ZM308.892 141.854V137.33L305.85 141.854H308.892Z" fill="#FAFAFA"/>
<path opacity="0.8" d="M283.616 130H282.537V127.803H278.416V126.906L282.134 121.329H283.616V126.854H284.838V127.803H283.616V130ZM282.537 126.854V122.33L279.495 126.854H282.537ZM289.162 130.156C287.827 130.156 286.809 129.692 286.107 128.765L286.77 128.037C287.368 128.808 288.165 129.194 289.162 129.194C289.751 129.194 290.232 129.016 290.605 128.661C290.978 128.306 291.164 127.864 291.164 127.335C291.164 126.772 290.978 126.321 290.605 125.983C290.241 125.636 289.764 125.463 289.175 125.463C288.404 125.463 287.736 125.732 287.173 126.269L286.38 125.996V121.329H291.684V122.291H287.459V125.307C287.996 124.787 288.672 124.527 289.487 124.527C290.258 124.527 290.913 124.774 291.45 125.268C291.987 125.762 292.256 126.438 292.256 127.296C292.256 128.154 291.961 128.847 291.372 129.376C290.791 129.896 290.055 130.156 289.162 130.156ZM296.427 127.283H293.307V126.425H296.427V127.283ZM302.43 130H301.351V127.803H297.23V126.906L300.948 121.329H302.43V126.854H303.652V127.803H302.43V130ZM301.351 126.854V122.33L298.309 126.854H301.351ZM307.56 130.143C306.572 130.143 305.771 129.796 305.155 129.103L305.701 128.297C306.204 128.886 306.824 129.181 307.56 129.181C308.115 129.181 308.583 129.008 308.964 128.661C309.346 128.314 309.614 127.894 309.77 127.4C309.926 126.906 310.004 126.364 310.004 125.775C310.004 125.628 310 125.515 309.991 125.437C309.775 125.784 309.441 126.096 308.99 126.373C308.54 126.65 308.059 126.789 307.547 126.789C306.724 126.789 306.044 126.551 305.506 126.074C304.969 125.589 304.7 124.904 304.7 124.02C304.7 123.24 304.978 122.573 305.532 122.018C306.087 121.463 306.824 121.186 307.742 121.186C308.323 121.186 308.834 121.307 309.276 121.55C309.718 121.793 310.069 122.126 310.329 122.551C310.589 122.976 310.78 123.448 310.901 123.968C311.031 124.488 311.096 125.056 311.096 125.671C311.096 126.486 310.975 127.222 310.732 127.881C310.49 128.531 310.095 129.073 309.549 129.506C309.003 129.931 308.34 130.143 307.56 130.143ZM307.794 125.853C308.219 125.853 308.626 125.736 309.016 125.502C309.415 125.259 309.731 124.943 309.965 124.553C309.939 124.267 309.879 123.99 309.783 123.721C309.697 123.452 309.571 123.197 309.406 122.954C309.242 122.711 309.016 122.516 308.73 122.369C308.453 122.222 308.137 122.148 307.781 122.148C307.166 122.148 306.681 122.339 306.325 122.72C305.97 123.093 305.792 123.513 305.792 123.981C305.792 124.588 305.979 125.051 306.351 125.372C306.724 125.693 307.205 125.853 307.794 125.853Z" fill="#FAFAFA"/>
<path opacity="0.8" d="M280.913 115.156C279.578 115.156 278.56 114.692 277.858 113.765L278.521 113.037C279.119 113.808 279.916 114.194 280.913 114.194C281.502 114.194 281.983 114.016 282.356 113.661C282.729 113.306 282.915 112.864 282.915 112.335C282.915 111.772 282.729 111.321 282.356 110.983C281.992 110.636 281.515 110.463 280.926 110.463C280.155 110.463 279.487 110.732 278.924 111.269L278.131 110.996V106.329H283.435V107.291H279.21V110.307C279.747 109.787 280.423 109.527 281.238 109.527C282.009 109.527 282.664 109.774 283.201 110.268C283.738 110.762 284.007 111.438 284.007 112.296C284.007 113.154 283.712 113.847 283.123 114.376C282.542 114.896 281.806 115.156 280.913 115.156ZM288.646 115.156C288.074 115.156 287.567 115.026 287.125 114.766C286.692 114.497 286.345 114.142 286.085 113.7C285.834 113.258 285.643 112.781 285.513 112.27C285.392 111.759 285.331 111.226 285.331 110.671C285.331 110.116 285.392 109.583 285.513 109.072C285.643 108.561 285.834 108.088 286.085 107.655C286.345 107.213 286.692 106.862 287.125 106.602C287.567 106.333 288.074 106.199 288.646 106.199C289.209 106.199 289.712 106.333 290.154 106.602C290.596 106.862 290.943 107.213 291.194 107.655C291.454 108.088 291.645 108.561 291.766 109.072C291.896 109.583 291.961 110.116 291.961 110.671C291.961 111.226 291.896 111.759 291.766 112.27C291.645 112.781 291.454 113.258 291.194 113.7C290.943 114.142 290.596 114.497 290.154 114.766C289.712 115.026 289.209 115.156 288.646 115.156ZM287.346 113.661C287.693 114.016 288.126 114.194 288.646 114.194C289.166 114.194 289.599 114.016 289.946 113.661C290.293 113.297 290.531 112.864 290.661 112.361C290.791 111.858 290.856 111.295 290.856 110.671C290.856 110.047 290.791 109.484 290.661 108.981C290.531 108.478 290.293 108.049 289.946 107.694C289.599 107.339 289.166 107.161 288.646 107.161C288.126 107.161 287.693 107.339 287.346 107.694C286.999 108.049 286.761 108.478 286.631 108.981C286.501 109.484 286.436 110.047 286.436 110.671C286.436 111.295 286.501 111.858 286.631 112.361C286.761 112.864 286.999 113.297 287.346 113.661ZM296.138 112.283H293.018V111.425H296.138V112.283ZM300.438 115.156C299.104 115.156 298.085 114.692 297.383 113.765L298.046 113.037C298.644 113.808 299.442 114.194 300.438 114.194C301.028 114.194 301.509 114.016 301.881 113.661C302.254 113.306 302.44 112.864 302.44 112.335C302.44 111.772 302.254 111.321 301.881 110.983C301.517 110.636 301.041 110.463 300.451 110.463C299.68 110.463 299.013 110.732 298.449 111.269L297.656 110.996V106.329H302.96V107.291H298.735V110.307C299.273 109.787 299.949 109.527 300.763 109.527C301.535 109.527 302.189 109.774 302.726 110.268C303.264 110.762 303.532 111.438 303.532 112.296C303.532 113.154 303.238 113.847 302.648 114.376C302.068 114.896 301.331 115.156 300.438 115.156ZM309.809 115H308.73V112.803H304.609V111.906L308.327 106.329H309.809V111.854H311.031V112.803H309.809V115ZM308.73 111.854V107.33L305.688 111.854H308.73Z" fill="#FAFAFA"/>
<path opacity="0.8" d="M280.913 100.156C279.578 100.156 278.56 99.6923 277.858 98.765L278.521 98.037C279.119 98.8083 279.916 99.194 280.913 99.194C281.502 99.194 281.983 99.0163 282.356 98.661C282.729 98.3057 282.915 97.8637 282.915 97.335C282.915 96.7717 282.729 96.321 282.356 95.983C281.992 95.6363 281.515 95.463 280.926 95.463C280.155 95.463 279.487 95.7317 278.924 96.269L278.131 95.996V91.329H283.435V92.291H279.21V95.307C279.747 94.787 280.423 94.527 281.238 94.527C282.009 94.527 282.664 94.774 283.201 95.268C283.738 95.762 284.007 96.438 284.007 97.296C284.007 98.154 283.712 98.8473 283.123 99.376C282.542 99.896 281.806 100.156 280.913 100.156ZM288.581 100.156C287.246 100.156 286.228 99.6923 285.526 98.765L286.189 98.037C286.787 98.8083 287.584 99.194 288.581 99.194C289.17 99.194 289.651 99.0163 290.024 98.661C290.397 98.3057 290.583 97.8637 290.583 97.335C290.583 96.7717 290.397 96.321 290.024 95.983C289.66 95.6363 289.183 95.463 288.594 95.463C287.823 95.463 287.155 95.7317 286.592 96.269L285.799 95.996V91.329H291.103V92.291H286.878V95.307C287.415 94.787 288.091 94.527 288.906 94.527C289.677 94.527 290.332 94.774 290.869 95.268C291.406 95.762 291.675 96.438 291.675 97.296C291.675 98.154 291.38 98.8473 290.791 99.376C290.21 99.896 289.474 100.156 288.581 100.156ZM295.846 97.283H292.726V96.425H295.846V97.283ZM300.146 100.156C298.812 100.156 297.793 99.6923 297.091 98.765L297.754 98.037C298.352 98.8083 299.15 99.194 300.146 99.194C300.736 99.194 301.217 99.0163 301.589 98.661C301.962 98.3057 302.148 97.8637 302.148 97.335C302.148 96.7717 301.962 96.321 301.589 95.983C301.225 95.6363 300.749 95.463 300.159 95.463C299.388 95.463 298.721 95.7317 298.157 96.269L297.364 95.996V91.329H302.668V92.291H298.443V95.307C298.981 94.787 299.657 94.527 300.471 94.527C301.243 94.527 301.897 94.774 302.434 95.268C302.972 95.762 303.24 96.438 303.24 97.296C303.24 98.154 302.946 98.8473 302.356 99.376C301.776 99.896 301.039 100.156 300.146 100.156ZM307.398 100.143C306.41 100.143 305.609 99.7963 304.993 99.103L305.539 98.297C306.042 98.8863 306.662 99.181 307.398 99.181C307.953 99.181 308.421 99.0077 308.802 98.661C309.184 98.3143 309.452 97.894 309.608 97.4C309.764 96.906 309.842 96.3643 309.842 95.775C309.842 95.6277 309.838 95.515 309.829 95.437C309.613 95.7837 309.279 96.0957 308.828 96.373C308.378 96.6503 307.897 96.789 307.385 96.789C306.562 96.789 305.882 96.5507 305.344 96.074C304.807 95.5887 304.538 94.904 304.538 94.02C304.538 93.24 304.816 92.5727 305.37 92.018C305.925 91.4633 306.662 91.186 307.58 91.186C308.161 91.186 308.672 91.3073 309.114 91.55C309.556 91.7927 309.907 92.1263 310.167 92.551C310.427 92.9757 310.618 93.448 310.739 93.968C310.869 94.488 310.934 95.0557 310.934 95.671C310.934 96.4857 310.813 97.2223 310.57 97.881C310.328 98.531 309.933 99.0727 309.387 99.506C308.841 99.9307 308.178 100.143 307.398 100.143ZM307.632 95.853C308.057 95.853 308.464 95.736 308.854 95.502C309.253 95.2593 309.569 94.943 309.803 94.553C309.777 94.267 309.717 93.9897 309.621 93.721C309.535 93.4523 309.409 93.1967 309.244 92.954C309.08 92.7113 308.854 92.5163 308.568 92.369C308.291 92.2217 307.975 92.148 307.619 92.148C307.004 92.148 306.519 92.3387 306.163 92.72C305.808 93.0927 305.63 93.513 305.63 93.981C305.63 94.5877 305.817 95.0513 306.189 95.372C306.562 95.6927 307.043 95.853 307.632 95.853Z" fill="#FAFAFA"/>
<path opacity="0.8" d="M281.017 85.156C280.428 85.156 279.912 85.0347 279.47 84.792C279.028 84.5493 278.677 84.2157 278.417 83.791C278.166 83.3663 277.975 82.894 277.845 82.374C277.724 81.854 277.663 81.2863 277.663 80.671C277.663 79.4057 277.962 78.344 278.56 77.486C279.167 76.628 280.046 76.199 281.199 76.199C282.204 76.199 283.002 76.5457 283.591 77.239L283.045 78.045C282.542 77.4557 281.927 77.161 281.199 77.161C280.41 77.161 279.804 77.4947 279.379 78.162C278.963 78.8293 278.755 79.631 278.755 80.567V80.905C278.972 80.5583 279.305 80.2463 279.756 79.969C280.215 79.6917 280.701 79.553 281.212 79.553C282.035 79.553 282.711 79.7957 283.24 80.281C283.777 80.7577 284.046 81.438 284.046 82.322C284.046 83.102 283.769 83.7693 283.214 84.324C282.659 84.8787 281.927 85.156 281.017 85.156ZM280.965 84.194C281.589 84.194 282.074 84.0033 282.421 83.622C282.776 83.2407 282.954 82.8203 282.954 82.361C282.954 81.7543 282.768 81.2907 282.395 80.97C282.022 80.6493 281.546 80.489 280.965 80.489C280.54 80.489 280.133 80.6103 279.743 80.853C279.353 81.087 279.037 81.3947 278.794 81.776C278.846 82.4173 279.05 82.9807 279.405 83.466C279.76 83.9513 280.28 84.194 280.965 84.194ZM288.659 85.156C288.087 85.156 287.58 85.026 287.138 84.766C286.704 84.4973 286.358 84.142 286.098 83.7C285.846 83.258 285.656 82.7813 285.526 82.27C285.404 81.7587 285.344 81.2257 285.344 80.671C285.344 80.1163 285.404 79.5833 285.526 79.072C285.656 78.5607 285.846 78.0883 286.098 77.655C286.358 77.213 286.704 76.862 287.138 76.602C287.58 76.3333 288.087 76.199 288.659 76.199C289.222 76.199 289.725 76.3333 290.167 76.602C290.609 76.862 290.955 77.213 291.207 77.655C291.467 78.0883 291.657 78.5607 291.779 79.072C291.909 79.5833 291.974 80.1163 291.974 80.671C291.974 81.2257 291.909 81.7587 291.779 82.27C291.657 82.7813 291.467 83.258 291.207 83.7C290.955 84.142 290.609 84.4973 290.167 84.766C289.725 85.026 289.222 85.156 288.659 85.156ZM287.359 83.661C287.705 84.0163 288.139 84.194 288.659 84.194C289.179 84.194 289.612 84.0163 289.959 83.661C290.305 83.297 290.544 82.8637 290.674 82.361C290.804 81.8583 290.869 81.295 290.869 80.671C290.869 80.047 290.804 79.4837 290.674 78.981C290.544 78.4783 290.305 78.0493 289.959 77.694C289.612 77.3387 289.179 77.161 288.659 77.161C288.139 77.161 287.705 77.3387 287.359 77.694C287.012 78.0493 286.774 78.4783 286.644 78.981C286.514 79.4837 286.449 80.047 286.449 80.671C286.449 81.295 286.514 81.8583 286.644 82.361C286.774 82.8637 287.012 83.297 287.359 83.661ZM296.151 82.283H293.031V81.425H296.151V82.283ZM300.555 85.156C299.966 85.156 299.45 85.0347 299.008 84.792C298.566 84.5493 298.215 84.2157 297.955 83.791C297.704 83.3663 297.513 82.894 297.383 82.374C297.262 81.854 297.201 81.2863 297.201 80.671C297.201 79.4057 297.5 78.344 298.098 77.486C298.705 76.628 299.584 76.199 300.737 76.199C301.742 76.199 302.54 76.5457 303.129 77.239L302.583 78.045C302.08 77.4557 301.465 77.161 300.737 77.161C299.948 77.161 299.342 77.4947 298.917 78.162C298.501 78.8293 298.293 79.631 298.293 80.567V80.905C298.51 80.5583 298.843 80.2463 299.294 79.969C299.753 79.6917 300.239 79.553 300.75 79.553C301.573 79.553 302.249 79.7957 302.778 80.281C303.315 80.7577 303.584 81.438 303.584 82.322C303.584 83.102 303.307 83.7693 302.752 84.324C302.197 84.8787 301.465 85.156 300.555 85.156ZM300.503 84.194C301.127 84.194 301.612 84.0033 301.959 83.622C302.314 83.2407 302.492 82.8203 302.492 82.361C302.492 81.7543 302.306 81.2907 301.933 80.97C301.56 80.6493 301.084 80.489 300.503 80.489C300.078 80.489 299.671 80.6103 299.281 80.853C298.891 81.087 298.575 81.3947 298.332 81.776C298.384 82.4173 298.588 82.9807 298.943 83.466C299.298 83.9513 299.818 84.194 300.503 84.194ZM309.835 85H308.756V82.803H304.635V81.906L308.353 76.329H309.835V81.854H311.057V82.803H309.835V85ZM308.756 81.854V77.33L305.714 81.854H308.756Z" fill="#FAFAFA"/>
<path opacity="0.8" d="M281.017 70.156C280.428 70.156 279.912 70.0347 279.47 69.792C279.028 69.5493 278.677 69.2157 278.417 68.791C278.166 68.3663 277.975 67.894 277.845 67.374C277.724 66.854 277.663 66.2863 277.663 65.671C277.663 64.4057 277.962 63.344 278.56 62.486C279.167 61.628 280.046 61.199 281.199 61.199C282.204 61.199 283.002 61.5457 283.591 62.239L283.045 63.045C282.542 62.4557 281.927 62.161 281.199 62.161C280.41 62.161 279.804 62.4947 279.379 63.162C278.963 63.8293 278.755 64.631 278.755 65.567V65.905C278.972 65.5583 279.305 65.2463 279.756 64.969C280.215 64.6917 280.701 64.553 281.212 64.553C282.035 64.553 282.711 64.7957 283.24 65.281C283.777 65.7577 284.046 66.438 284.046 67.322C284.046 68.102 283.769 68.7693 283.214 69.324C282.659 69.8787 281.927 70.156 281.017 70.156ZM280.965 69.194C281.589 69.194 282.074 69.0033 282.421 68.622C282.776 68.2407 282.954 67.8203 282.954 67.361C282.954 66.7543 282.768 66.2907 282.395 65.97C282.022 65.6493 281.546 65.489 280.965 65.489C280.54 65.489 280.133 65.6103 279.743 65.853C279.353 66.087 279.037 66.3947 278.794 66.776C278.846 67.4173 279.05 67.9807 279.405 68.466C279.76 68.9513 280.28 69.194 280.965 69.194ZM288.594 70.156C287.259 70.156 286.241 69.6923 285.539 68.765L286.202 68.037C286.8 68.8083 287.597 69.194 288.594 69.194C289.183 69.194 289.664 69.0163 290.037 68.661C290.409 68.3057 290.596 67.8637 290.596 67.335C290.596 66.7717 290.409 66.321 290.037 65.983C289.673 65.6363 289.196 65.463 288.607 65.463C287.835 65.463 287.168 65.7317 286.605 66.269L285.812 65.996V61.329H291.116V62.291H286.891V65.307C287.428 64.787 288.104 64.527 288.919 64.527C289.69 64.527 290.344 64.774 290.882 65.268C291.419 65.762 291.688 66.438 291.688 67.296C291.688 68.154 291.393 68.8473 290.804 69.376C290.223 69.896 289.486 70.156 288.594 70.156ZM295.859 67.283H292.739V66.425H295.859V67.283ZM300.263 70.156C299.674 70.156 299.158 70.0347 298.716 69.792C298.274 69.5493 297.923 69.2157 297.663 68.791C297.412 68.3663 297.221 67.894 297.091 67.374C296.97 66.854 296.909 66.2863 296.909 65.671C296.909 64.4057 297.208 63.344 297.806 62.486C298.413 61.628 299.292 61.199 300.445 61.199C301.45 61.199 302.248 61.5457 302.837 62.239L302.291 63.045C301.788 62.4557 301.173 62.161 300.445 62.161C299.656 62.161 299.05 62.4947 298.625 63.162C298.209 63.8293 298.001 64.631 298.001 65.567V65.905C298.218 65.5583 298.551 65.2463 299.002 64.969C299.461 64.6917 299.947 64.553 300.458 64.553C301.281 64.553 301.957 64.7957 302.486 65.281C303.023 65.7577 303.292 66.438 303.292 67.322C303.292 68.102 303.015 68.7693 302.46 69.324C301.905 69.8787 301.173 70.156 300.263 70.156ZM300.211 69.194C300.835 69.194 301.32 69.0033 301.667 68.622C302.022 68.2407 302.2 67.8203 302.2 67.361C302.2 66.7543 302.014 66.2907 301.641 65.97C301.268 65.6493 300.792 65.489 300.211 65.489C299.786 65.489 299.379 65.6103 298.989 65.853C298.599 66.087 298.283 66.3947 298.04 66.776C298.092 67.4173 298.296 67.9807 298.651 68.466C299.006 68.9513 299.526 69.194 300.211 69.194ZM307.424 70.143C306.436 70.143 305.634 69.7963 305.019 69.103L305.565 68.297C306.067 68.8863 306.687 69.181 307.424 69.181C307.978 69.181 308.446 69.0077 308.828 68.661C309.209 68.3143 309.478 67.894 309.634 67.4C309.79 66.906 309.868 66.3643 309.868 65.775C309.868 65.6277 309.863 65.515 309.855 65.437C309.638 65.7837 309.304 66.0957 308.854 66.373C308.403 66.6503 307.922 66.789 307.411 66.789C306.587 66.789 305.907 66.5507 305.37 66.074C304.832 65.5887 304.564 64.904 304.564 64.02C304.564 63.24 304.841 62.5727 305.396 62.018C305.95 61.4633 306.687 61.186 307.606 61.186C308.186 61.186 308.698 61.3073 309.14 61.55C309.582 61.7927 309.933 62.1263 310.193 62.551C310.453 62.9757 310.643 63.448 310.765 63.968C310.895 64.488 310.96 65.0557 310.96 65.671C310.96 66.4857 310.838 67.2223 310.596 67.881C310.353 68.531 309.959 69.0727 309.413 69.506C308.867 69.9307 308.204 70.143 307.424 70.143ZM307.658 65.853C308.082 65.853 308.49 65.736 308.88 65.502C309.278 65.2593 309.595 64.943 309.829 64.553C309.803 64.267 309.742 63.9897 309.647 63.721C309.56 63.4523 309.434 63.1967 309.27 62.954C309.105 62.7113 308.88 62.5163 308.594 62.369C308.316 62.2217 308 62.148 307.645 62.148C307.029 62.148 306.544 62.3387 306.189 62.72C305.833 63.0927 305.656 63.513 305.656 63.981C305.656 64.5877 305.842 65.0513 306.215 65.372C306.587 65.6927 307.068 65.853 307.658 65.853Z" fill="#FAFAFA"/>
<path opacity="0.8" d="M280.769 55H279.573L283.07 47.291H278.403V46.329H284.318V47.07L280.769 55ZM288.668 55.156C288.096 55.156 287.589 55.026 287.147 54.766C286.714 54.4973 286.367 54.142 286.107 53.7C285.856 53.258 285.665 52.7813 285.535 52.27C285.414 51.7587 285.353 51.2257 285.353 50.671C285.353 50.1163 285.414 49.5833 285.535 49.072C285.665 48.5607 285.856 48.0883 286.107 47.655C286.367 47.213 286.714 46.862 287.147 46.602C287.589 46.3333 288.096 46.199 288.668 46.199C289.232 46.199 289.734 46.3333 290.176 46.602C290.618 46.862 290.965 47.213 291.216 47.655C291.476 48.0883 291.667 48.5607 291.788 49.072C291.918 49.5833 291.983 50.1163 291.983 50.671C291.983 51.2257 291.918 51.7587 291.788 52.27C291.667 52.7813 291.476 53.258 291.216 53.7C290.965 54.142 290.618 54.4973 290.176 54.766C289.734 55.026 289.232 55.156 288.668 55.156ZM287.368 53.661C287.715 54.0163 288.148 54.194 288.668 54.194C289.188 54.194 289.622 54.0163 289.968 53.661C290.315 53.297 290.553 52.8637 290.683 52.361C290.813 51.8583 290.878 51.295 290.878 50.671C290.878 50.047 290.813 49.4837 290.683 48.981C290.553 48.4783 290.315 48.0493 289.968 47.694C289.622 47.3387 289.188 47.161 288.668 47.161C288.148 47.161 287.715 47.3387 287.368 47.694C287.022 48.0493 286.783 48.4783 286.653 48.981C286.523 49.4837 286.458 50.047 286.458 50.671C286.458 51.295 286.523 51.8583 286.653 52.361C286.783 52.8637 287.022 53.297 287.368 53.661ZM296.16 52.283H293.04V51.425H296.16V52.283ZM299.317 55H298.121L301.618 47.291H296.951V46.329H302.866V47.07L299.317 55ZM308.854 55H307.775V52.803H303.654V51.906L307.372 46.329H308.854V51.854H310.076V52.803H308.854V55ZM307.775 51.854V47.33L304.733 51.854H307.775Z" fill="#FAFAFA"/>
<path opacity="0.8" d="M280.769 40H279.573L283.07 32.291H278.403V31.329H284.318V32.07L280.769 40ZM288.603 40.156C287.269 40.156 286.25 39.6923 285.548 38.765L286.211 38.037C286.809 38.8083 287.607 39.194 288.603 39.194C289.193 39.194 289.674 39.0163 290.046 38.661C290.419 38.3057 290.605 37.8637 290.605 37.335C290.605 36.7717 290.419 36.321 290.046 35.983C289.682 35.6363 289.206 35.463 288.616 35.463C287.845 35.463 287.178 35.7317 286.614 36.269L285.821 35.996V31.329H291.125V32.291H286.9V35.307C287.438 34.787 288.114 34.527 288.928 34.527C289.7 34.527 290.354 34.774 290.891 35.268C291.429 35.762 291.697 36.438 291.697 37.296C291.697 38.154 291.403 38.8473 290.813 39.376C290.233 39.896 289.496 40.156 288.603 40.156ZM295.868 37.283H292.748V36.425H295.868V37.283ZM299.025 40H297.829L301.326 32.291H296.659V31.329H302.574V32.07L299.025 40ZM306.443 40.143C305.455 40.143 304.654 39.7963 304.038 39.103L304.584 38.297C305.087 38.8863 305.707 39.181 306.443 39.181C306.998 39.181 307.466 39.0077 307.847 38.661C308.229 38.3143 308.497 37.894 308.653 37.4C308.809 36.906 308.887 36.3643 308.887 35.775C308.887 35.6277 308.883 35.515 308.874 35.437C308.658 35.7837 308.324 36.0957 307.873 36.373C307.423 36.6503 306.942 36.789 306.43 36.789C305.607 36.789 304.927 36.5507 304.389 36.074C303.852 35.5887 303.583 34.904 303.583 34.02C303.583 33.24 303.861 32.5727 304.415 32.018C304.97 31.4633 305.707 31.186 306.625 31.186C307.206 31.186 307.717 31.3073 308.159 31.55C308.601 31.7927 308.952 32.1263 309.212 32.551C309.472 32.9757 309.663 33.448 309.784 33.968C309.914 34.488 309.979 35.0557 309.979 35.671C309.979 36.4857 309.858 37.2223 309.615 37.881C309.373 38.531 308.978 39.0727 308.432 39.506C307.886 39.9307 307.223 40.143 306.443 40.143ZM306.677 35.853C307.102 35.853 307.509 35.736 307.899 35.502C308.298 35.2593 308.614 34.943 308.848 34.553C308.822 34.267 308.762 33.9897 308.666 33.721C308.58 33.4523 308.454 33.1967 308.289 32.954C308.125 32.7113 307.899 32.5163 307.613 32.369C307.336 32.2217 307.02 32.148 306.664 32.148C306.049 32.148 305.564 32.3387 305.208 32.72C304.853 33.0927 304.675 33.513 304.675 33.981C304.675 34.5877 304.862 35.0513 305.234 35.372C305.607 35.6927 306.088 35.853 306.677 35.853Z" fill="#FAFAFA"/>
<path opacity="0.8" d="M282.993 24.519C282.404 24.9437 281.667 25.156 280.783 25.156C279.899 25.156 279.158 24.9437 278.56 24.519C277.971 24.0943 277.676 23.5223 277.676 22.803C277.676 22.257 277.871 21.7847 278.261 21.386C278.66 20.9873 279.154 20.7013 279.743 20.528C279.188 20.372 278.729 20.1207 278.365 19.774C278.001 19.4187 277.819 18.9767 277.819 18.448C277.819 17.72 278.114 17.1653 278.703 16.784C279.292 16.394 279.986 16.199 280.783 16.199C281.58 16.199 282.274 16.394 282.863 16.784C283.461 17.1653 283.76 17.72 283.76 18.448C283.76 18.9767 283.574 19.4187 283.201 19.774C282.837 20.1207 282.378 20.372 281.823 20.528C282.412 20.7013 282.902 20.9873 283.292 21.386C283.691 21.7847 283.89 22.257 283.89 22.803C283.89 23.5137 283.591 24.0857 282.993 24.519ZM280.783 20.086C280.956 20.06 281.13 20.0167 281.303 19.956C281.485 19.8953 281.689 19.813 281.914 19.709C282.139 19.5963 282.321 19.4447 282.46 19.254C282.599 19.0547 282.668 18.8337 282.668 18.591C282.668 18.1577 282.486 17.811 282.122 17.551C281.767 17.291 281.32 17.161 280.783 17.161C280.246 17.161 279.799 17.291 279.444 17.551C279.089 17.8023 278.911 18.149 278.911 18.591C278.911 18.8337 278.98 19.0547 279.119 19.254C279.258 19.4447 279.44 19.5963 279.665 19.709C279.89 19.813 280.09 19.8953 280.263 19.956C280.436 20.0167 280.61 20.06 280.783 20.086ZM280.783 24.194C281.338 24.194 281.81 24.0553 282.2 23.778C282.599 23.5007 282.798 23.1367 282.798 22.686C282.798 22.3393 282.659 22.036 282.382 21.776C282.113 21.5073 281.836 21.321 281.55 21.217C281.273 21.1043 281.017 21.035 280.783 21.009C280.549 21.035 280.289 21.1043 280.003 21.217C279.726 21.321 279.448 21.5073 279.171 21.776C278.902 22.036 278.768 22.3393 278.768 22.686C278.768 23.1367 278.963 23.5007 279.353 23.778C279.743 24.0553 280.22 24.194 280.783 24.194ZM288.544 25.156C287.972 25.156 287.465 25.026 287.023 24.766C286.59 24.4973 286.243 24.142 285.983 23.7C285.732 23.258 285.541 22.7813 285.411 22.27C285.29 21.7587 285.229 21.2257 285.229 20.671C285.229 20.1163 285.29 19.5833 285.411 19.072C285.541 18.5607 285.732 18.0883 285.983 17.655C286.243 17.213 286.59 16.862 287.023 16.602C287.465 16.3333 287.972 16.199 288.544 16.199C289.108 16.199 289.61 16.3333 290.052 16.602C290.494 16.862 290.841 17.213 291.092 17.655C291.352 18.0883 291.543 18.5607 291.664 19.072C291.794 19.5833 291.859 20.1163 291.859 20.671C291.859 21.2257 291.794 21.7587 291.664 22.27C291.543 22.7813 291.352 23.258 291.092 23.7C290.841 24.142 290.494 24.4973 290.052 24.766C289.61 25.026 289.108 25.156 288.544 25.156ZM287.244 23.661C287.591 24.0163 288.024 24.194 288.544 24.194C289.064 24.194 289.498 24.0163 289.844 23.661C290.191 23.297 290.429 22.8637 290.559 22.361C290.689 21.8583 290.754 21.295 290.754 20.671C290.754 20.047 290.689 19.4837 290.559 18.981C290.429 18.4783 290.191 18.0493 289.844 17.694C289.498 17.3387 289.064 17.161 288.544 17.161C288.024 17.161 287.591 17.3387 287.244 17.694C286.898 18.0493 286.659 18.4783 286.529 18.981C286.399 19.4837 286.334 20.047 286.334 20.671C286.334 21.295 286.399 21.8583 286.529 22.361C286.659 22.8637 286.898 23.297 287.244 23.661ZM296.036 22.283H292.916V21.425H296.036V22.283ZM302.417 24.519C301.827 24.9437 301.091 25.156 300.207 25.156C299.323 25.156 298.582 24.9437 297.984 24.519C297.394 24.0943 297.1 23.5223 297.1 22.803C297.1 22.257 297.295 21.7847 297.685 21.386C298.083 20.9873 298.577 20.7013 299.167 20.528C298.612 20.372 298.153 20.1207 297.789 19.774C297.425 19.4187 297.243 18.9767 297.243 18.448C297.243 17.72 297.537 17.1653 298.127 16.784C298.716 16.394 299.409 16.199 300.207 16.199C301.004 16.199 301.697 16.394 302.287 16.784C302.885 17.1653 303.184 17.72 303.184 18.448C303.184 18.9767 302.997 19.4187 302.625 19.774C302.261 20.1207 301.801 20.372 301.247 20.528C301.836 20.7013 302.326 20.9873 302.716 21.386C303.114 21.7847 303.314 22.257 303.314 22.803C303.314 23.5137 303.015 24.0857 302.417 24.519ZM300.207 20.086C300.38 20.06 300.553 20.0167 300.727 19.956C300.909 19.8953 301.112 19.813 301.338 19.709C301.563 19.5963 301.745 19.4447 301.884 19.254C302.022 19.0547 302.092 18.8337 302.092 18.591C302.092 18.1577 301.91 17.811 301.546 17.551C301.19 17.291 300.744 17.161 300.207 17.161C299.669 17.161 299.223 17.291 298.868 17.551C298.512 17.8023 298.335 18.149 298.335 18.591C298.335 18.8337 298.404 19.0547 298.543 19.254C298.681 19.4447 298.863 19.5963 299.089 19.709C299.314 19.813 299.513 19.8953 299.687 19.956C299.86 20.0167 300.033 20.06 300.207 20.086ZM300.207 24.194C300.761 24.194 301.234 24.0553 301.624 23.778C302.022 23.5007 302.222 23.1367 302.222 22.686C302.222 22.3393 302.083 22.036 301.806 21.776C301.537 21.5073 301.26 21.321 300.974 21.217C300.696 21.1043 300.441 21.035 300.207 21.009C299.973 21.035 299.713 21.1043 299.427 21.217C299.149 21.321 298.872 21.5073 298.595 21.776C298.326 22.036 298.192 22.3393 298.192 22.686C298.192 23.1367 298.387 23.5007 298.777 23.778C299.167 24.0553 299.643 24.194 300.207 24.194ZM309.606 25H308.527V22.803H304.406V21.906L308.124 16.329H309.606V21.854H310.828V22.803H309.606V25ZM308.527 21.854V17.33L305.485 21.854H308.527Z" fill="#FAFAFA"/>
<path opacity="0.8" d="M280.993 9.519C280.404 9.94367 279.667 10.156 278.783 10.156C277.899 10.156 277.158 9.94367 276.56 9.519C275.971 9.09433 275.676 8.52233 275.676 7.803C275.676 7.257 275.871 6.78467 276.261 6.386C276.66 5.98733 277.154 5.70133 277.743 5.528C277.188 5.372 276.729 5.12067 276.365 4.774C276.001 4.41867 275.819 3.97667 275.819 3.448C275.819 2.72 276.114 2.16533 276.703 1.784C277.292 1.394 277.986 1.199 278.783 1.199C279.58 1.199 280.274 1.394 280.863 1.784C281.461 2.16533 281.76 2.72 281.76 3.448C281.76 3.97667 281.574 4.41867 281.201 4.774C280.837 5.12067 280.378 5.372 279.823 5.528C280.412 5.70133 280.902 5.98733 281.292 6.386C281.691 6.78467 281.89 7.257 281.89 7.803C281.89 8.51367 281.591 9.08567 280.993 9.519ZM278.783 5.086C278.956 5.06 279.13 5.01667 279.303 4.956C279.485 4.89533 279.689 4.813 279.914 4.709C280.139 4.59633 280.321 4.44467 280.46 4.254C280.599 4.05467 280.668 3.83367 280.668 3.591C280.668 3.15767 280.486 2.811 280.122 2.551C279.767 2.291 279.32 2.161 278.783 2.161C278.246 2.161 277.799 2.291 277.444 2.551C277.089 2.80233 276.911 3.149 276.911 3.591C276.911 3.83367 276.98 4.05467 277.119 4.254C277.258 4.44467 277.44 4.59633 277.665 4.709C277.89 4.813 278.09 4.89533 278.263 4.956C278.436 5.01667 278.61 5.06 278.783 5.086ZM278.783 9.194C279.338 9.194 279.81 9.05533 280.2 8.778C280.599 8.50067 280.798 8.13667 280.798 7.686C280.798 7.33933 280.659 7.036 280.382 6.776C280.113 6.50733 279.836 6.321 279.55 6.217C279.273 6.10433 279.017 6.035 278.783 6.009C278.549 6.035 278.289 6.10433 278.003 6.217C277.726 6.321 277.448 6.50733 277.171 6.776C276.902 7.036 276.768 7.33933 276.768 7.686C276.768 8.13667 276.963 8.50067 277.353 8.778C277.743 9.05533 278.22 9.194 278.783 9.194ZM286.479 10.156C285.145 10.156 284.126 9.69233 283.424 8.765L284.087 8.037C284.685 8.80833 285.483 9.194 286.479 9.194C287.069 9.194 287.55 9.01633 287.922 8.661C288.295 8.30567 288.481 7.86367 288.481 7.335C288.481 6.77167 288.295 6.321 287.922 5.983C287.558 5.63633 287.082 5.463 286.492 5.463C285.721 5.463 285.054 5.73167 284.49 6.269L283.697 5.996V1.329H289.001V2.291H284.776V5.307C285.314 4.787 285.99 4.527 286.804 4.527C287.576 4.527 288.23 4.774 288.767 5.268C289.305 5.762 289.573 6.438 289.573 7.296C289.573 8.154 289.279 8.84733 288.689 9.376C288.109 9.896 287.372 10.156 286.479 10.156ZM293.744 7.283H290.624V6.425H293.744V7.283ZM297.525 10H296.446V2.746L295.055 4.228L294.405 3.565L296.576 1.329H297.525V10ZM302.515 10.156C301.943 10.156 301.436 10.026 300.994 9.766C300.561 9.49733 300.214 9.142 299.954 8.7C299.703 8.258 299.512 7.78133 299.382 7.27C299.261 6.75867 299.2 6.22567 299.2 5.671C299.2 5.11633 299.261 4.58333 299.382 4.072C299.512 3.56067 299.703 3.08833 299.954 2.655C300.214 2.213 300.561 1.862 300.994 1.602C301.436 1.33333 301.943 1.199 302.515 1.199C303.078 1.199 303.581 1.33333 304.023 1.602C304.465 1.862 304.812 2.213 305.063 2.655C305.323 3.08833 305.514 3.56067 305.635 4.072C305.765 4.58333 305.83 5.11633 305.83 5.671C305.83 6.22567 305.765 6.75867 305.635 7.27C305.514 7.78133 305.323 8.258 305.063 8.7C304.812 9.142 304.465 9.49733 304.023 9.766C303.581 10.026 303.078 10.156 302.515 10.156ZM301.215 8.661C301.562 9.01633 301.995 9.194 302.515 9.194C303.035 9.194 303.468 9.01633 303.815 8.661C304.162 8.297 304.4 7.86367 304.53 7.361C304.66 6.85833 304.725 6.295 304.725 5.671C304.725 5.047 304.66 4.48367 304.53 3.981C304.4 3.47833 304.162 3.04933 303.815 2.694C303.468 2.33867 303.035 2.161 302.515 2.161C301.995 2.161 301.562 2.33867 301.215 2.694C300.868 3.04933 300.63 3.47833 300.5 3.981C300.37 4.48367 300.305 5.047 300.305 5.671C300.305 6.295 300.37 6.85833 300.5 7.361C300.63 7.86367 300.868 8.297 301.215 8.661ZM310.475 10.156C309.903 10.156 309.396 10.026 308.954 9.766C308.521 9.49733 308.174 9.142 307.914 8.7C307.663 8.258 307.472 7.78133 307.342 7.27C307.221 6.75867 307.16 6.22567 307.16 5.671C307.16 5.11633 307.221 4.58333 307.342 4.072C307.472 3.56067 307.663 3.08833 307.914 2.655C308.174 2.213 308.521 1.862 308.954 1.602C309.396 1.33333 309.903 1.199 310.475 1.199C311.038 1.199 311.541 1.33333 311.983 1.602C312.425 1.862 312.772 2.213 313.023 2.655C313.283 3.08833 313.474 3.56067 313.595 4.072C313.725 4.58333 313.79 5.11633 313.79 5.671C313.79 6.22567 313.725 6.75867 313.595 7.27C313.474 7.78133 313.283 8.258 313.023 8.7C312.772 9.142 312.425 9.49733 311.983 9.766C311.541 10.026 311.038 10.156 310.475 10.156ZM309.175 8.661C309.522 9.01633 309.955 9.194 310.475 9.194C310.995 9.194 311.428 9.01633 311.775 8.661C312.122 8.297 312.36 7.86367 312.49 7.361C312.62 6.85833 312.685 6.295 312.685 5.671C312.685 5.047 312.62 4.48367 312.49 3.981C312.36 3.47833 312.122 3.04933 311.775 2.694C311.428 2.33867 310.995 2.161 310.475 2.161C309.955 2.161 309.522 2.33867 309.175 2.694C308.828 3.04933 308.59 3.47833 308.46 3.981C308.33 4.48367 308.265 5.047 308.265 5.671C308.265 6.295 308.33 6.85833 308.46 7.361C308.59 7.86367 308.828 8.297 309.175 8.661Z" fill="#FAFAFA"/>
</svg>
