<svg width="569" height="267" viewBox="0 0 569 267" fill="none" xmlns="http://www.w3.org/2000/svg">
<g opacity="0.4">
<path d="M79 218.94V0V218.94Z" fill="#FAFAFA"/>
<path d="M79 218.94V0" stroke="#FAFAFA" stroke-width="1.06667" stroke-dasharray="4 4"/>
</g>
<g opacity="0.4">
<path d="M142 218.94V0V218.94Z" fill="#FAFAFA"/>
<path d="M142 218.94V0" stroke="#FAFAFA" stroke-width="1.06667" stroke-dasharray="4 4"/>
</g>
<g opacity="0.4">
<path d="M204 218.94V0V218.94Z" fill="#FAFAFA"/>
<path d="M204 218.94V0" stroke="#FAFAFA" stroke-width="1.06667" stroke-dasharray="4 4"/>
</g>
<g opacity="0.4">
<path d="M267 218.94V0V218.94Z" fill="#FAFAFA"/>
<path d="M267 218.94V0" stroke="#FAFAFA" stroke-width="1.06667" stroke-dasharray="4 4"/>
</g>
<g opacity="0.4">
<path d="M333 218.94V0V218.94Z" fill="#FAFAFA"/>
<path d="M333 218.94V0" stroke="#FAFAFA" stroke-width="1.06667" stroke-dasharray="4 4"/>
</g>
<g opacity="0.4">
<path d="M401 218.94V0V218.94Z" fill="#FAFAFA"/>
<path d="M401 218.94V0" stroke="#FAFAFA" stroke-width="1.06667" stroke-dasharray="4 4"/>
</g>
<g opacity="0.4">
<path d="M469 218.94V0V218.94Z" fill="#FAFAFA"/>
<path d="M469 218.94V0" stroke="#FAFAFA" stroke-width="1.06667" stroke-dasharray="4 4"/>
</g>
<g opacity="0.4">
<path d="M537 218.94V0V218.94Z" fill="#FAFAFA"/>
<path d="M537 218.94V0" stroke="#FAFAFA" stroke-width="1.06667" stroke-dasharray="4 4"/>
</g>
<path d="M16 197H538.234V157H16V197Z" fill="#FAAA8D"/>
<path d="M16 152H539.793V112H16V152Z" fill="#FAAA8D"/>
<path d="M16 107H541.141V67H16V107Z" fill="#FAAA8D"/>
<path d="M16.0002 62H566.459V22H16.0002V62Z" fill="#FAAA8D"/>
<path opacity="0.4" d="M16 0V219H569" stroke="#FAFAFA"/>
<path d="M149.22 263H147.56V249.66H152.92C154.213 249.66 155.233 250.047 155.98 250.82C156.727 251.593 157.1 252.547 157.1 253.68C157.1 254.813 156.72 255.767 155.96 256.54C155.213 257.313 154.2 257.7 152.92 257.7H149.22V263ZM152.72 256.22C153.507 256.22 154.147 255.987 154.64 255.52C155.133 255.04 155.38 254.427 155.38 253.68C155.38 252.933 155.133 252.327 154.64 251.86C154.147 251.38 153.507 251.14 152.72 251.14H149.22V256.22H152.72ZM166.664 261.78C165.798 262.753 164.644 263.24 163.204 263.24C161.764 263.24 160.604 262.753 159.724 261.78C158.858 260.807 158.424 259.6 158.424 258.16C158.424 256.72 158.858 255.52 159.724 254.56C160.604 253.587 161.764 253.1 163.204 253.1C164.644 253.1 165.798 253.587 166.664 254.56C167.544 255.52 167.984 256.72 167.984 258.16C167.984 259.6 167.544 260.807 166.664 261.78ZM160.864 260.82C161.438 261.54 162.218 261.9 163.204 261.9C164.191 261.9 164.971 261.54 165.544 260.82C166.118 260.087 166.404 259.2 166.404 258.16C166.404 257.12 166.118 256.24 165.544 255.52C164.971 254.8 164.191 254.44 163.204 254.44C162.218 254.44 161.438 254.8 160.864 255.52C160.291 256.24 160.004 257.12 160.004 258.16C160.004 259.2 160.291 260.087 160.864 260.82ZM171.93 263H170.43V253.34H171.93V254.88C172.85 253.707 173.923 253.12 175.15 253.12V254.66C174.91 254.633 174.716 254.62 174.57 254.62C174.103 254.62 173.603 254.78 173.07 255.1C172.536 255.407 172.156 255.76 171.93 256.16V263ZM181.291 263.24C179.865 263.24 178.705 262.76 177.811 261.8C176.918 260.827 176.471 259.613 176.471 258.16C176.471 256.707 176.918 255.5 177.811 254.54C178.705 253.58 179.865 253.1 181.291 253.1C182.785 253.1 183.965 253.66 184.831 254.78L183.831 255.68C183.231 254.853 182.411 254.44 181.371 254.44C180.371 254.44 179.565 254.793 178.951 255.5C178.338 256.193 178.031 257.08 178.031 258.16C178.031 259.253 178.338 260.153 178.951 260.86C179.565 261.553 180.371 261.9 181.371 261.9C182.385 261.9 183.205 261.48 183.831 260.64L184.831 261.56C183.965 262.68 182.785 263.24 181.291 263.24ZM191.333 263.24C189.88 263.24 188.693 262.773 187.773 261.84C186.853 260.893 186.393 259.667 186.393 258.16C186.393 256.747 186.846 255.553 187.753 254.58C188.66 253.593 189.793 253.1 191.153 253.1C192.58 253.1 193.706 253.593 194.533 254.58C195.373 255.553 195.793 256.787 195.793 258.28V258.66H187.993C188.06 259.607 188.4 260.4 189.013 261.04C189.64 261.68 190.453 262 191.453 262C192.653 262 193.653 261.587 194.453 260.76L195.173 261.74C194.146 262.74 192.866 263.24 191.333 263.24ZM194.313 257.54C194.3 256.727 194.02 255.993 193.473 255.34C192.926 254.673 192.146 254.34 191.133 254.34C190.173 254.34 189.413 254.667 188.853 255.32C188.306 255.973 188.013 256.713 187.973 257.54H194.313ZM206.243 263H204.763V256.68C204.763 255.867 204.576 255.293 204.203 254.96C203.829 254.613 203.289 254.44 202.583 254.44C202.023 254.44 201.483 254.587 200.963 254.88C200.443 255.173 200.029 255.527 199.723 255.94V263H198.223V253.34H199.723V254.74C200.096 254.287 200.596 253.9 201.223 253.58C201.849 253.26 202.503 253.1 203.183 253.1C205.223 253.1 206.243 254.14 206.243 256.22V263ZM211.718 263.24C210.278 263.24 209.558 262.487 209.558 260.98V254.66H207.958V253.34H209.558V250.7H211.078V253.34H213.038V254.66H211.078V260.66C211.078 261.033 211.158 261.333 211.318 261.56C211.491 261.787 211.731 261.9 212.038 261.9C212.464 261.9 212.804 261.76 213.058 261.48L213.498 262.62C213.058 263.033 212.464 263.24 211.718 263.24ZM223.637 263H222.137V261.56C221.31 262.68 220.223 263.24 218.877 263.24C217.597 263.24 216.557 262.787 215.757 261.88C214.97 260.96 214.577 259.727 214.577 258.18C214.577 256.647 214.977 255.42 215.777 254.5C216.577 253.567 217.61 253.1 218.877 253.1C220.21 253.1 221.297 253.667 222.137 254.8V253.34H223.637V263ZM219.257 261.9C219.83 261.9 220.383 261.753 220.917 261.46C221.463 261.153 221.87 260.787 222.137 260.36V256C221.87 255.56 221.463 255.193 220.917 254.9C220.383 254.593 219.83 254.44 219.257 254.44C218.297 254.44 217.537 254.793 216.977 255.5C216.417 256.193 216.137 257.087 216.137 258.18C216.137 259.273 216.417 260.167 216.977 260.86C217.537 261.553 218.297 261.9 219.257 261.9ZM228.101 251.68C227.914 251.867 227.681 251.96 227.401 251.96C227.121 251.96 226.881 251.867 226.681 251.68C226.481 251.48 226.381 251.24 226.381 250.96C226.381 250.68 226.481 250.44 226.681 250.24C226.881 250.04 227.121 249.94 227.401 249.94C227.681 249.94 227.914 250.04 228.101 250.24C228.301 250.44 228.401 250.68 228.401 250.96C228.401 251.24 228.301 251.48 228.101 251.68ZM225.281 266.92C224.481 266.92 223.781 266.68 223.181 266.2L223.701 265.08C224.101 265.48 224.561 265.68 225.081 265.68C225.561 265.68 225.941 265.533 226.221 265.24C226.501 264.96 226.641 264.527 226.641 263.94V253.34H228.141V263.94C228.141 264.9 227.894 265.633 227.401 266.14C226.907 266.66 226.201 266.92 225.281 266.92ZM235.513 263.24C234.059 263.24 232.873 262.773 231.953 261.84C231.033 260.893 230.573 259.667 230.573 258.16C230.573 256.747 231.026 255.553 231.933 254.58C232.839 253.593 233.973 253.1 235.333 253.1C236.759 253.1 237.886 253.593 238.713 254.58C239.553 255.553 239.973 256.787 239.973 258.28V258.66H232.173C232.239 259.607 232.579 260.4 233.193 261.04C233.819 261.68 234.633 262 235.633 262C236.833 262 237.833 261.587 238.633 260.76L239.353 261.74C238.326 262.74 237.046 263.24 235.513 263.24ZM238.493 257.54C238.479 256.727 238.199 255.993 237.653 255.34C237.106 254.673 236.326 254.34 235.313 254.34C234.353 254.34 233.593 254.667 233.033 255.32C232.486 255.973 232.193 256.713 232.153 257.54H238.493ZM256.078 263H254.578V261.56C253.751 262.68 252.665 263.24 251.318 263.24C250.038 263.24 248.998 262.787 248.198 261.88C247.411 260.96 247.018 259.727 247.018 258.18C247.018 256.647 247.418 255.42 248.218 254.5C249.018 253.567 250.051 253.1 251.318 253.1C252.651 253.1 253.738 253.667 254.578 254.8V249.66H256.078V263ZM251.698 261.9C252.271 261.9 252.825 261.753 253.358 261.46C253.905 261.153 254.311 260.787 254.578 260.36V256C254.311 255.56 253.905 255.193 253.358 254.9C252.825 254.593 252.271 254.44 251.698 254.44C250.738 254.44 249.978 254.793 249.418 255.5C248.858 256.193 248.578 257.087 248.578 258.18C248.578 259.273 248.858 260.167 249.418 260.86C249.978 261.553 250.738 261.9 251.698 261.9ZM263.462 263.24C262.009 263.24 260.822 262.773 259.902 261.84C258.982 260.893 258.522 259.667 258.522 258.16C258.522 256.747 258.975 255.553 259.882 254.58C260.789 253.593 261.922 253.1 263.282 253.1C264.709 253.1 265.835 253.593 266.662 254.58C267.502 255.553 267.922 256.787 267.922 258.28V258.66H260.122C260.189 259.607 260.529 260.4 261.142 261.04C261.769 261.68 262.582 262 263.582 262C264.782 262 265.782 261.587 266.582 260.76L267.302 261.74C266.275 262.74 264.995 263.24 263.462 263.24ZM266.442 257.54C266.429 256.727 266.149 255.993 265.602 255.34C265.055 254.673 264.275 254.34 263.262 254.34C262.302 254.34 261.542 254.667 260.982 255.32C260.435 255.973 260.142 256.713 260.102 257.54H266.442ZM280.287 263.24C278.967 263.24 277.881 262.673 277.027 261.54V266.68H275.527V253.34H277.027V254.78C277.387 254.273 277.854 253.867 278.427 253.56C279.001 253.253 279.621 253.1 280.287 253.1C281.567 253.1 282.601 253.56 283.387 254.48C284.187 255.387 284.587 256.613 284.587 258.16C284.587 259.707 284.187 260.94 283.387 261.86C282.601 262.78 281.567 263.24 280.287 263.24ZM279.907 261.9C280.854 261.9 281.607 261.553 282.167 260.86C282.727 260.153 283.007 259.253 283.007 258.16C283.007 257.067 282.727 256.173 282.167 255.48C281.607 254.787 280.854 254.44 279.907 254.44C279.334 254.44 278.774 254.593 278.227 254.9C277.694 255.193 277.294 255.553 277.027 255.98V260.34C277.294 260.78 277.694 261.153 278.227 261.46C278.774 261.753 279.334 261.9 279.907 261.9ZM291.353 263.24C289.899 263.24 288.713 262.773 287.793 261.84C286.873 260.893 286.413 259.667 286.413 258.16C286.413 256.747 286.866 255.553 287.773 254.58C288.679 253.593 289.813 253.1 291.173 253.1C292.599 253.1 293.726 253.593 294.553 254.58C295.393 255.553 295.813 256.787 295.813 258.28V258.66H288.013C288.079 259.607 288.419 260.4 289.033 261.04C289.659 261.68 290.473 262 291.473 262C292.673 262 293.673 261.587 294.473 260.76L295.193 261.74C294.166 262.74 292.886 263.24 291.353 263.24ZM294.333 257.54C294.319 256.727 294.039 255.993 293.493 255.34C292.946 254.673 292.166 254.34 291.153 254.34C290.193 254.34 289.433 254.667 288.873 255.32C288.326 255.973 288.033 256.713 287.993 257.54H294.333ZM299.742 263H298.242V253.34H299.742V254.88C300.662 253.707 301.736 253.12 302.962 253.12V254.66C302.722 254.633 302.529 254.62 302.382 254.62C301.916 254.62 301.416 254.78 300.882 255.1C300.349 255.407 299.969 255.76 299.742 256.16V263ZM307.924 263.24C306.297 263.24 304.997 262.733 304.024 261.72L304.784 260.64C305.117 261.027 305.57 261.353 306.144 261.62C306.73 261.887 307.337 262.02 307.964 262.02C308.684 262.02 309.244 261.867 309.644 261.56C310.057 261.253 310.264 260.853 310.264 260.36C310.264 259.933 310.057 259.6 309.644 259.36C309.23 259.107 308.73 258.92 308.144 258.8C307.557 258.667 306.97 258.52 306.384 258.36C305.81 258.187 305.317 257.9 304.904 257.5C304.49 257.087 304.284 256.547 304.284 255.88C304.284 255.093 304.604 254.433 305.244 253.9C305.884 253.367 306.757 253.1 307.864 253.1C309.344 253.1 310.537 253.567 311.444 254.5L310.744 255.54C310.064 254.727 309.104 254.32 307.864 254.32C307.21 254.32 306.69 254.467 306.304 254.76C305.917 255.04 305.724 255.4 305.724 255.84C305.724 256.16 305.87 256.427 306.164 256.64C306.457 256.853 306.824 257.007 307.264 257.1C307.717 257.193 308.197 257.313 308.704 257.46C309.224 257.607 309.704 257.773 310.144 257.96C310.597 258.133 310.97 258.427 311.264 258.84C311.557 259.24 311.704 259.733 311.704 260.32C311.704 261.173 311.37 261.873 310.704 262.42C310.05 262.967 309.124 263.24 307.924 263.24ZM321.821 261.78C320.954 262.753 319.801 263.24 318.361 263.24C316.921 263.24 315.761 262.753 314.881 261.78C314.014 260.807 313.581 259.6 313.581 258.16C313.581 256.72 314.014 255.52 314.881 254.56C315.761 253.587 316.921 253.1 318.361 253.1C319.801 253.1 320.954 253.587 321.821 254.56C322.701 255.52 323.141 256.72 323.141 258.16C323.141 259.6 322.701 260.807 321.821 261.78ZM316.021 260.82C316.594 261.54 317.374 261.9 318.361 261.9C319.347 261.9 320.127 261.54 320.701 260.82C321.274 260.087 321.561 259.2 321.561 258.16C321.561 257.12 321.274 256.24 320.701 255.52C320.127 254.8 319.347 254.44 318.361 254.44C317.374 254.44 316.594 254.8 316.021 255.52C315.447 256.24 315.161 257.12 315.161 258.16C315.161 259.2 315.447 260.087 316.021 260.82ZM333.606 263H332.126V256.68C332.126 255.867 331.939 255.293 331.566 254.96C331.193 254.613 330.653 254.44 329.946 254.44C329.386 254.44 328.846 254.587 328.326 254.88C327.806 255.173 327.393 255.527 327.086 255.94V263H325.586V253.34H327.086V254.74C327.459 254.287 327.959 253.9 328.586 253.58C329.213 253.26 329.866 253.1 330.546 253.1C332.586 253.1 333.606 254.14 333.606 256.22V263ZM345.121 263H343.621V261.56C342.794 262.68 341.708 263.24 340.361 263.24C339.081 263.24 338.041 262.787 337.241 261.88C336.454 260.96 336.061 259.727 336.061 258.18C336.061 256.647 336.461 255.42 337.261 254.5C338.061 253.567 339.094 253.1 340.361 253.1C341.694 253.1 342.781 253.667 343.621 254.8V253.34H345.121V263ZM340.741 261.9C341.314 261.9 341.868 261.753 342.401 261.46C342.948 261.153 343.354 260.787 343.621 260.36V256C343.354 255.56 342.948 255.193 342.401 254.9C341.868 254.593 341.314 254.44 340.741 254.44C339.781 254.44 339.021 254.793 338.461 255.5C337.901 256.193 337.621 257.087 337.621 258.18C337.621 259.273 337.901 260.167 338.461 260.86C339.021 261.553 339.781 261.9 340.741 261.9ZM351.205 263.24C349.578 263.24 348.278 262.733 347.305 261.72L348.065 260.64C348.398 261.027 348.852 261.353 349.425 261.62C350.012 261.887 350.618 262.02 351.245 262.02C351.965 262.02 352.525 261.867 352.925 261.56C353.338 261.253 353.545 260.853 353.545 260.36C353.545 259.933 353.338 259.6 352.925 259.36C352.512 259.107 352.012 258.92 351.425 258.8C350.838 258.667 350.252 258.52 349.665 258.36C349.092 258.187 348.598 257.9 348.185 257.5C347.772 257.087 347.565 256.547 347.565 255.88C347.565 255.093 347.885 254.433 348.525 253.9C349.165 253.367 350.038 253.1 351.145 253.1C352.625 253.1 353.818 253.567 354.725 254.5L354.025 255.54C353.345 254.727 352.385 254.32 351.145 254.32C350.492 254.32 349.972 254.467 349.585 254.76C349.198 255.04 349.005 255.4 349.005 255.84C349.005 256.16 349.152 256.427 349.445 256.64C349.738 256.853 350.105 257.007 350.545 257.1C350.998 257.193 351.478 257.313 351.985 257.46C352.505 257.607 352.985 257.773 353.425 257.96C353.878 258.133 354.252 258.427 354.545 258.84C354.838 259.24 354.985 259.733 354.985 260.32C354.985 261.173 354.652 261.873 353.985 262.42C353.332 262.967 352.405 263.24 351.205 263.24ZM375.758 263H374.258V256.44C374.258 255.107 373.664 254.44 372.478 254.44C371.998 254.44 371.518 254.587 371.038 254.88C370.558 255.16 370.184 255.507 369.918 255.92V263H368.418V256.44C368.418 255.107 367.824 254.44 366.638 254.44C366.171 254.44 365.698 254.587 365.218 254.88C364.751 255.173 364.378 255.527 364.098 255.94V263H362.598V253.34H364.098V254.74C364.351 254.353 364.771 253.987 365.358 253.64C365.958 253.28 366.584 253.1 367.238 253.1C367.931 253.1 368.498 253.267 368.938 253.6C369.378 253.933 369.671 254.367 369.818 254.9C370.111 254.42 370.558 254 371.158 253.64C371.758 253.28 372.391 253.1 373.058 253.1C374.858 253.1 375.758 254.073 375.758 256.02V263ZM387.25 263H385.75V261.56C384.923 262.68 383.837 263.24 382.49 263.24C381.21 263.24 380.17 262.787 379.37 261.88C378.583 260.96 378.19 259.727 378.19 258.18C378.19 256.647 378.59 255.42 379.39 254.5C380.19 253.567 381.223 253.1 382.49 253.1C383.823 253.1 384.91 253.667 385.75 254.8V253.34H387.25V263ZM382.87 261.9C383.443 261.9 383.997 261.753 384.53 261.46C385.077 261.153 385.483 260.787 385.75 260.36V256C385.483 255.56 385.077 255.193 384.53 254.9C383.997 254.593 383.443 254.44 382.87 254.44C381.91 254.44 381.15 254.793 380.59 255.5C380.03 256.193 379.75 257.087 379.75 258.18C379.75 259.273 380.03 260.167 380.59 260.86C381.15 261.553 381.91 261.9 382.87 261.9ZM393.854 266.92C392.361 266.92 391.127 266.433 390.154 265.46L390.914 264.38C391.607 265.247 392.587 265.68 393.854 265.68C394.761 265.68 395.474 265.433 395.994 264.94C396.514 264.447 396.774 263.76 396.774 262.88V261.44C396.374 261.893 395.867 262.273 395.254 262.58C394.654 262.887 394.014 263.04 393.334 263.04C391.281 263.04 390.254 262.013 390.254 259.96V253.34H391.754V259.5C391.754 260.313 391.941 260.887 392.314 261.22C392.687 261.553 393.227 261.72 393.934 261.72C394.481 261.72 395.014 261.58 395.534 261.3C396.067 261.007 396.481 260.66 396.774 260.26V253.34H398.274V262.88C398.274 264.187 397.854 265.187 397.014 265.88C396.174 266.573 395.121 266.92 393.854 266.92ZM408.95 261.78C408.083 262.753 406.93 263.24 405.49 263.24C404.05 263.24 402.89 262.753 402.01 261.78C401.143 260.807 400.71 259.6 400.71 258.16C400.71 256.72 401.143 255.52 402.01 254.56C402.89 253.587 404.05 253.1 405.49 253.1C406.93 253.1 408.083 253.587 408.95 254.56C409.83 255.52 410.27 256.72 410.27 258.16C410.27 259.6 409.83 260.807 408.95 261.78ZM403.15 260.82C403.723 261.54 404.503 261.9 405.49 261.9C406.476 261.9 407.256 261.54 407.83 260.82C408.403 260.087 408.69 259.2 408.69 258.16C408.69 257.12 408.403 256.24 407.83 255.52C407.256 254.8 406.476 254.44 405.49 254.44C404.503 254.44 403.723 254.8 403.15 255.52C402.576 256.24 402.29 257.12 402.29 258.16C402.29 259.2 402.576 260.087 403.15 260.82ZM414.215 263H412.715V253.34H414.215V254.88C415.135 253.707 416.208 253.12 417.435 253.12V254.66C417.195 254.633 417.002 254.62 416.855 254.62C416.388 254.62 415.888 254.78 415.355 255.1C414.822 255.407 414.442 255.76 414.215 256.16V263ZM423.696 263.24C422.243 263.24 421.056 262.773 420.136 261.84C419.216 260.893 418.756 259.667 418.756 258.16C418.756 256.747 419.21 255.553 420.116 254.58C421.023 253.593 422.156 253.1 423.516 253.1C424.943 253.1 426.07 253.593 426.896 254.58C427.736 255.553 428.156 256.787 428.156 258.28V258.66H420.356C420.423 259.607 420.763 260.4 421.376 261.04C422.003 261.68 422.816 262 423.816 262C425.016 262 426.016 261.587 426.816 260.76L427.536 261.74C426.51 262.74 425.23 263.24 423.696 263.24ZM426.676 257.54C426.663 256.727 426.383 255.993 425.836 255.34C425.29 254.673 424.51 254.34 423.496 254.34C422.536 254.34 421.776 254.667 421.216 255.32C420.67 255.973 420.376 256.713 420.336 257.54H426.676ZM433.666 263.24C432.039 263.24 430.739 262.733 429.766 261.72L430.526 260.64C430.859 261.027 431.313 261.353 431.886 261.62C432.473 261.887 433.079 262.02 433.706 262.02C434.426 262.02 434.986 261.867 435.386 261.56C435.799 261.253 436.006 260.853 436.006 260.36C436.006 259.933 435.799 259.6 435.386 259.36C434.973 259.107 434.473 258.92 433.886 258.8C433.299 258.667 432.713 258.52 432.126 258.36C431.553 258.187 431.059 257.9 430.646 257.5C430.233 257.087 430.026 256.547 430.026 255.88C430.026 255.093 430.346 254.433 430.986 253.9C431.626 253.367 432.499 253.1 433.606 253.1C435.086 253.1 436.279 253.567 437.186 254.5L436.486 255.54C435.806 254.727 434.846 254.32 433.606 254.32C432.953 254.32 432.433 254.467 432.046 254.76C431.659 255.04 431.466 255.4 431.466 255.84C431.466 256.16 431.613 256.427 431.906 256.64C432.199 256.853 432.566 257.007 433.006 257.1C433.459 257.193 433.939 257.313 434.446 257.46C434.966 257.607 435.446 257.773 435.886 257.96C436.339 258.133 436.713 258.427 437.006 258.84C437.299 259.24 437.446 259.733 437.446 260.32C437.446 261.173 437.113 261.873 436.446 262.42C435.793 262.967 434.866 263.24 433.666 263.24Z" fill="#FAFAFA"/>
<path opacity="0.8" d="M318.176 235H316.848V226.072L315.136 227.896L314.336 227.08L317.008 224.328H318.176V235ZM324.318 235.192C323.614 235.192 322.99 235.032 322.446 234.712C321.913 234.381 321.486 233.944 321.166 233.4C320.857 232.856 320.622 232.269 320.462 231.64C320.313 231.011 320.238 230.355 320.238 229.672C320.238 228.989 320.313 228.333 320.462 227.704C320.622 227.075 320.857 226.493 321.166 225.96C321.486 225.416 321.913 224.984 322.446 224.664C322.99 224.333 323.614 224.168 324.318 224.168C325.011 224.168 325.63 224.333 326.174 224.664C326.718 224.984 327.145 225.416 327.454 225.96C327.774 226.493 328.009 227.075 328.158 227.704C328.318 228.333 328.398 228.989 328.398 229.672C328.398 230.355 328.318 231.011 328.158 231.64C328.009 232.269 327.774 232.856 327.454 233.4C327.145 233.944 326.718 234.381 326.174 234.712C325.63 235.032 325.011 235.192 324.318 235.192ZM322.718 233.352C323.145 233.789 323.678 234.008 324.318 234.008C324.958 234.008 325.491 233.789 325.918 233.352C326.345 232.904 326.638 232.371 326.798 231.752C326.958 231.133 327.038 230.44 327.038 229.672C327.038 228.904 326.958 228.211 326.798 227.592C326.638 226.973 326.345 226.445 325.918 226.008C325.491 225.571 324.958 225.352 324.318 225.352C323.678 225.352 323.145 225.571 322.718 226.008C322.291 226.445 321.998 226.973 321.838 227.592C321.678 228.211 321.598 228.904 321.598 229.672C321.598 230.44 321.678 231.133 321.838 231.752C321.998 232.371 322.291 232.904 322.718 233.352ZM331.535 234.616C331.535 235.085 331.412 235.533 331.167 235.96C330.932 236.397 330.623 236.755 330.239 237.032L329.631 236.536C329.897 236.365 330.127 236.136 330.319 235.848C330.521 235.571 330.639 235.304 330.671 235.048C330.628 235.069 330.553 235.08 330.447 235.08C330.233 235.08 330.052 235.005 329.903 234.856C329.753 234.696 329.679 234.499 329.679 234.264C329.679 234.029 329.759 233.827 329.919 233.656C330.089 233.485 330.292 233.4 330.527 233.4C330.815 233.4 331.055 233.512 331.247 233.736C331.439 233.949 331.535 234.243 331.535 234.616ZM336.802 235.192C336.098 235.192 335.474 235.032 334.93 234.712C334.397 234.381 333.97 233.944 333.65 233.4C333.341 232.856 333.106 232.269 332.946 231.64C332.797 231.011 332.722 230.355 332.722 229.672C332.722 228.989 332.797 228.333 332.946 227.704C333.106 227.075 333.341 226.493 333.65 225.96C333.97 225.416 334.397 224.984 334.93 224.664C335.474 224.333 336.098 224.168 336.802 224.168C337.496 224.168 338.114 224.333 338.658 224.664C339.202 224.984 339.629 225.416 339.938 225.96C340.258 226.493 340.493 227.075 340.642 227.704C340.802 228.333 340.882 228.989 340.882 229.672C340.882 230.355 340.802 231.011 340.642 231.64C340.493 232.269 340.258 232.856 339.938 233.4C339.629 233.944 339.202 234.381 338.658 234.712C338.114 235.032 337.496 235.192 336.802 235.192ZM335.202 233.352C335.629 233.789 336.162 234.008 336.802 234.008C337.442 234.008 337.976 233.789 338.402 233.352C338.829 232.904 339.122 232.371 339.282 231.752C339.442 231.133 339.522 230.44 339.522 229.672C339.522 228.904 339.442 228.211 339.282 227.592C339.122 226.973 338.829 226.445 338.402 226.008C337.976 225.571 337.442 225.352 336.802 225.352C336.162 225.352 335.629 225.571 335.202 226.008C334.776 226.445 334.482 226.973 334.322 227.592C334.162 228.211 334.082 228.904 334.082 229.672C334.082 230.44 334.162 231.133 334.322 231.752C334.482 232.371 334.776 232.904 335.202 233.352ZM346.599 235.192C345.895 235.192 345.271 235.032 344.727 234.712C344.194 234.381 343.767 233.944 343.447 233.4C343.138 232.856 342.903 232.269 342.743 231.64C342.594 231.011 342.519 230.355 342.519 229.672C342.519 228.989 342.594 228.333 342.743 227.704C342.903 227.075 343.138 226.493 343.447 225.96C343.767 225.416 344.194 224.984 344.727 224.664C345.271 224.333 345.895 224.168 346.599 224.168C347.292 224.168 347.911 224.333 348.455 224.664C348.999 224.984 349.426 225.416 349.735 225.96C350.055 226.493 350.29 227.075 350.439 227.704C350.599 228.333 350.679 228.989 350.679 229.672C350.679 230.355 350.599 231.011 350.439 231.64C350.29 232.269 350.055 232.856 349.735 233.4C349.426 233.944 348.999 234.381 348.455 234.712C347.911 235.032 347.292 235.192 346.599 235.192ZM344.999 233.352C345.426 233.789 345.959 234.008 346.599 234.008C347.239 234.008 347.772 233.789 348.199 233.352C348.626 232.904 348.919 232.371 349.079 231.752C349.239 231.133 349.319 230.44 349.319 229.672C349.319 228.904 349.239 228.211 349.079 227.592C348.919 226.973 348.626 226.445 348.199 226.008C347.772 225.571 347.239 225.352 346.599 225.352C345.959 225.352 345.426 225.571 344.999 226.008C344.572 226.445 344.279 226.973 344.119 227.592C343.959 228.211 343.879 228.904 343.879 229.672C343.879 230.44 343.959 231.133 344.119 231.752C344.279 232.371 344.572 232.904 344.999 233.352Z" fill="#FAFAFA"/>
<path opacity="0.8" d="M386.176 235H384.848V226.072L383.136 227.896L382.336 227.08L385.008 224.328H386.176V235ZM395.614 235H388.286V233.928C390.473 232.221 392.009 230.904 392.894 229.976C393.779 229.048 394.222 228.157 394.222 227.304C394.222 226.664 393.998 226.179 393.55 225.848C393.113 225.517 392.59 225.352 391.982 225.352C390.755 225.352 389.79 225.8 389.086 226.696L388.27 225.848C388.675 225.315 389.203 224.904 389.854 224.616C390.515 224.317 391.225 224.168 391.982 224.168C392.953 224.168 393.79 224.44 394.494 224.984C395.209 225.528 395.566 226.301 395.566 227.304C395.566 228.296 395.139 229.288 394.286 230.28C393.433 231.261 392.131 232.44 390.382 233.816H395.614V235ZM399.644 234.616C399.644 235.085 399.521 235.533 399.276 235.96C399.041 236.397 398.732 236.755 398.348 237.032L397.74 236.536C398.007 236.365 398.236 236.136 398.428 235.848C398.631 235.571 398.748 235.304 398.78 235.048C398.737 235.069 398.663 235.08 398.556 235.08C398.343 235.08 398.161 235.005 398.012 234.856C397.863 234.696 397.788 234.499 397.788 234.264C397.788 234.029 397.868 233.827 398.028 233.656C398.199 233.485 398.401 233.4 398.636 233.4C398.924 233.4 399.164 233.512 399.356 233.736C399.548 233.949 399.644 234.243 399.644 234.616ZM404.912 235.192C404.208 235.192 403.584 235.032 403.04 234.712C402.506 234.381 402.08 233.944 401.76 233.4C401.45 232.856 401.216 232.269 401.056 231.64C400.906 231.011 400.832 230.355 400.832 229.672C400.832 228.989 400.906 228.333 401.056 227.704C401.216 227.075 401.45 226.493 401.76 225.96C402.08 225.416 402.506 224.984 403.04 224.664C403.584 224.333 404.208 224.168 404.912 224.168C405.605 224.168 406.224 224.333 406.768 224.664C407.312 224.984 407.738 225.416 408.048 225.96C408.368 226.493 408.602 227.075 408.752 227.704C408.912 228.333 408.992 228.989 408.992 229.672C408.992 230.355 408.912 231.011 408.752 231.64C408.602 232.269 408.368 232.856 408.048 233.4C407.738 233.944 407.312 234.381 406.768 234.712C406.224 235.032 405.605 235.192 404.912 235.192ZM403.312 233.352C403.738 233.789 404.272 234.008 404.912 234.008C405.552 234.008 406.085 233.789 406.512 233.352C406.938 232.904 407.232 232.371 407.392 231.752C407.552 231.133 407.632 230.44 407.632 229.672C407.632 228.904 407.552 228.211 407.392 227.592C407.232 226.973 406.938 226.445 406.512 226.008C406.085 225.571 405.552 225.352 404.912 225.352C404.272 225.352 403.738 225.571 403.312 226.008C402.885 226.445 402.592 226.973 402.432 227.592C402.272 228.211 402.192 228.904 402.192 229.672C402.192 230.44 402.272 231.133 402.432 231.752C402.592 232.371 402.885 232.904 403.312 233.352ZM414.709 235.192C414.005 235.192 413.381 235.032 412.837 234.712C412.303 234.381 411.877 233.944 411.557 233.4C411.247 232.856 411.013 232.269 410.853 231.64C410.703 231.011 410.629 230.355 410.629 229.672C410.629 228.989 410.703 228.333 410.853 227.704C411.013 227.075 411.247 226.493 411.557 225.96C411.877 225.416 412.303 224.984 412.837 224.664C413.381 224.333 414.005 224.168 414.709 224.168C415.402 224.168 416.021 224.333 416.565 224.664C417.109 224.984 417.535 225.416 417.845 225.96C418.165 226.493 418.399 227.075 418.549 227.704C418.709 228.333 418.789 228.989 418.789 229.672C418.789 230.355 418.709 231.011 418.549 231.64C418.399 232.269 418.165 232.856 417.845 233.4C417.535 233.944 417.109 234.381 416.565 234.712C416.021 235.032 415.402 235.192 414.709 235.192ZM413.109 233.352C413.535 233.789 414.069 234.008 414.709 234.008C415.349 234.008 415.882 233.789 416.309 233.352C416.735 232.904 417.029 232.371 417.189 231.752C417.349 231.133 417.429 230.44 417.429 229.672C417.429 228.904 417.349 228.211 417.189 227.592C417.029 226.973 416.735 226.445 416.309 226.008C415.882 225.571 415.349 225.352 414.709 225.352C414.069 225.352 413.535 225.571 413.109 226.008C412.682 226.445 412.389 226.973 412.229 227.592C412.069 228.211 411.989 228.904 411.989 229.672C411.989 230.44 412.069 231.133 412.229 231.752C412.389 232.371 412.682 232.904 413.109 233.352Z" fill="#FAFAFA"/>
<path opacity="0.8" d="M454.176 235H452.848V226.072L451.136 227.896L450.336 227.08L453.008 224.328H454.176V235ZM462.334 235H461.006V232.296H455.934V231.192L460.51 224.328H462.334V231.128H463.838V232.296H462.334V235ZM461.006 231.128V225.56L457.262 231.128H461.006ZM467.16 234.616C467.16 235.085 467.037 235.533 466.792 235.96C466.557 236.397 466.248 236.755 465.864 237.032L465.256 236.536C465.522 236.365 465.752 236.136 465.944 235.848C466.146 235.571 466.264 235.304 466.296 235.048C466.253 235.069 466.178 235.08 466.072 235.08C465.858 235.08 465.677 235.005 465.528 234.856C465.378 234.696 465.304 234.499 465.304 234.264C465.304 234.029 465.384 233.827 465.544 233.656C465.714 233.485 465.917 233.4 466.152 233.4C466.44 233.4 466.68 233.512 466.872 233.736C467.064 233.949 467.16 234.243 467.16 234.616ZM472.427 235.192C471.723 235.192 471.099 235.032 470.555 234.712C470.022 234.381 469.595 233.944 469.275 233.4C468.966 232.856 468.731 232.269 468.571 231.64C468.422 231.011 468.347 230.355 468.347 229.672C468.347 228.989 468.422 228.333 468.571 227.704C468.731 227.075 468.966 226.493 469.275 225.96C469.595 225.416 470.022 224.984 470.555 224.664C471.099 224.333 471.723 224.168 472.427 224.168C473.121 224.168 473.739 224.333 474.283 224.664C474.827 224.984 475.254 225.416 475.563 225.96C475.883 226.493 476.118 227.075 476.267 227.704C476.427 228.333 476.507 228.989 476.507 229.672C476.507 230.355 476.427 231.011 476.267 231.64C476.118 232.269 475.883 232.856 475.563 233.4C475.254 233.944 474.827 234.381 474.283 234.712C473.739 235.032 473.121 235.192 472.427 235.192ZM470.827 233.352C471.254 233.789 471.787 234.008 472.427 234.008C473.067 234.008 473.601 233.789 474.027 233.352C474.454 232.904 474.747 232.371 474.907 231.752C475.067 231.133 475.147 230.44 475.147 229.672C475.147 228.904 475.067 228.211 474.907 227.592C474.747 226.973 474.454 226.445 474.027 226.008C473.601 225.571 473.067 225.352 472.427 225.352C471.787 225.352 471.254 225.571 470.827 226.008C470.401 226.445 470.107 226.973 469.947 227.592C469.787 228.211 469.707 228.904 469.707 229.672C469.707 230.44 469.787 231.133 469.947 231.752C470.107 232.371 470.401 232.904 470.827 233.352ZM482.224 235.192C481.52 235.192 480.896 235.032 480.352 234.712C479.819 234.381 479.392 233.944 479.072 233.4C478.763 232.856 478.528 232.269 478.368 231.64C478.219 231.011 478.144 230.355 478.144 229.672C478.144 228.989 478.219 228.333 478.368 227.704C478.528 227.075 478.763 226.493 479.072 225.96C479.392 225.416 479.819 224.984 480.352 224.664C480.896 224.333 481.52 224.168 482.224 224.168C482.917 224.168 483.536 224.333 484.08 224.664C484.624 224.984 485.051 225.416 485.36 225.96C485.68 226.493 485.915 227.075 486.064 227.704C486.224 228.333 486.304 228.989 486.304 229.672C486.304 230.355 486.224 231.011 486.064 231.64C485.915 232.269 485.68 232.856 485.36 233.4C485.051 233.944 484.624 234.381 484.08 234.712C483.536 235.032 482.917 235.192 482.224 235.192ZM480.624 233.352C481.051 233.789 481.584 234.008 482.224 234.008C482.864 234.008 483.397 233.789 483.824 233.352C484.251 232.904 484.544 232.371 484.704 231.752C484.864 231.133 484.944 230.44 484.944 229.672C484.944 228.904 484.864 228.211 484.704 227.592C484.544 226.973 484.251 226.445 483.824 226.008C483.397 225.571 482.864 225.352 482.224 225.352C481.584 225.352 481.051 225.571 480.624 226.008C480.197 226.445 479.904 226.973 479.744 227.592C479.584 228.211 479.504 228.904 479.504 229.672C479.504 230.44 479.584 231.133 479.744 231.752C479.904 232.371 480.197 232.904 480.624 233.352Z" fill="#FAFAFA"/>
<path opacity="0.8" d="M522.176 235H520.848V226.072L519.136 227.896L518.336 227.08L521.008 224.328H522.176V235ZM528.366 235.192C527.641 235.192 527.006 235.043 526.462 234.744C525.918 234.445 525.486 234.035 525.166 233.512C524.857 232.989 524.622 232.408 524.462 231.768C524.313 231.128 524.238 230.429 524.238 229.672C524.238 228.115 524.606 226.808 525.342 225.752C526.089 224.696 527.171 224.168 528.59 224.168C529.827 224.168 530.809 224.595 531.534 225.448L530.862 226.44C530.243 225.715 529.486 225.352 528.59 225.352C527.619 225.352 526.873 225.763 526.35 226.584C525.838 227.405 525.582 228.392 525.582 229.544V229.96C525.849 229.533 526.259 229.149 526.814 228.808C527.379 228.467 527.977 228.296 528.606 228.296C529.619 228.296 530.451 228.595 531.102 229.192C531.763 229.779 532.094 230.616 532.094 231.704C532.094 232.664 531.753 233.485 531.07 234.168C530.387 234.851 529.486 235.192 528.366 235.192ZM528.302 234.008C529.07 234.008 529.667 233.773 530.094 233.304C530.531 232.835 530.75 232.317 530.75 231.752C530.75 231.005 530.521 230.435 530.062 230.04C529.603 229.645 529.017 229.448 528.302 229.448C527.779 229.448 527.278 229.597 526.798 229.896C526.318 230.184 525.929 230.563 525.63 231.032C525.694 231.821 525.945 232.515 526.382 233.112C526.819 233.709 527.459 234.008 528.302 234.008ZM535.691 234.616C535.691 235.085 535.568 235.533 535.323 235.96C535.088 236.397 534.779 236.755 534.395 237.032L533.787 236.536C534.054 236.365 534.283 236.136 534.475 235.848C534.678 235.571 534.795 235.304 534.827 235.048C534.784 235.069 534.71 235.08 534.603 235.08C534.39 235.08 534.208 235.005 534.059 234.856C533.91 234.696 533.835 234.499 533.835 234.264C533.835 234.029 533.915 233.827 534.075 233.656C534.246 233.485 534.448 233.4 534.683 233.4C534.971 233.4 535.211 233.512 535.403 233.736C535.595 233.949 535.691 234.243 535.691 234.616ZM540.959 235.192C540.255 235.192 539.631 235.032 539.087 234.712C538.553 234.381 538.127 233.944 537.807 233.4C537.497 232.856 537.263 232.269 537.103 231.64C536.953 231.011 536.879 230.355 536.879 229.672C536.879 228.989 536.953 228.333 537.103 227.704C537.263 227.075 537.497 226.493 537.807 225.96C538.127 225.416 538.553 224.984 539.087 224.664C539.631 224.333 540.255 224.168 540.959 224.168C541.652 224.168 542.271 224.333 542.815 224.664C543.359 224.984 543.785 225.416 544.095 225.96C544.415 226.493 544.649 227.075 544.799 227.704C544.959 228.333 545.039 228.989 545.039 229.672C545.039 230.355 544.959 231.011 544.799 231.64C544.649 232.269 544.415 232.856 544.095 233.4C543.785 233.944 543.359 234.381 542.815 234.712C542.271 235.032 541.652 235.192 540.959 235.192ZM539.359 233.352C539.785 233.789 540.319 234.008 540.959 234.008C541.599 234.008 542.132 233.789 542.559 233.352C542.985 232.904 543.279 232.371 543.439 231.752C543.599 231.133 543.679 230.44 543.679 229.672C543.679 228.904 543.599 228.211 543.439 227.592C543.279 226.973 542.985 226.445 542.559 226.008C542.132 225.571 541.599 225.352 540.959 225.352C540.319 225.352 539.785 225.571 539.359 226.008C538.932 226.445 538.639 226.973 538.479 227.592C538.319 228.211 538.239 228.904 538.239 229.672C538.239 230.44 538.319 231.133 538.479 231.752C538.639 232.371 538.932 232.904 539.359 233.352ZM550.755 235.192C550.051 235.192 549.427 235.032 548.883 234.712C548.35 234.381 547.923 233.944 547.603 233.4C547.294 232.856 547.059 232.269 546.899 231.64C546.75 231.011 546.675 230.355 546.675 229.672C546.675 228.989 546.75 228.333 546.899 227.704C547.059 227.075 547.294 226.493 547.603 225.96C547.923 225.416 548.35 224.984 548.883 224.664C549.427 224.333 550.051 224.168 550.755 224.168C551.449 224.168 552.067 224.333 552.611 224.664C553.155 224.984 553.582 225.416 553.891 225.96C554.211 226.493 554.446 227.075 554.595 227.704C554.755 228.333 554.835 228.989 554.835 229.672C554.835 230.355 554.755 231.011 554.595 231.64C554.446 232.269 554.211 232.856 553.891 233.4C553.582 233.944 553.155 234.381 552.611 234.712C552.067 235.032 551.449 235.192 550.755 235.192ZM549.155 233.352C549.582 233.789 550.115 234.008 550.755 234.008C551.395 234.008 551.929 233.789 552.355 233.352C552.782 232.904 553.075 232.371 553.235 231.752C553.395 231.133 553.475 230.44 553.475 229.672C553.475 228.904 553.395 228.211 553.235 227.592C553.075 226.973 552.782 226.445 552.355 226.008C551.929 225.571 551.395 225.352 550.755 225.352C550.115 225.352 549.582 225.571 549.155 226.008C548.729 226.445 548.435 226.973 548.275 227.592C548.115 228.211 548.035 228.904 548.035 229.672C548.035 230.44 548.115 231.133 548.275 231.752C548.435 232.371 548.729 232.904 549.155 233.352Z" fill="#FAFAFA"/>
<path opacity="0.8" d="M258.376 234.408C257.651 234.931 256.744 235.192 255.656 235.192C254.568 235.192 253.656 234.931 252.92 234.408C252.195 233.885 251.832 233.181 251.832 232.296C251.832 231.624 252.072 231.043 252.552 230.552C253.043 230.061 253.651 229.709 254.376 229.496C253.693 229.304 253.128 228.995 252.68 228.568C252.232 228.131 252.008 227.587 252.008 226.936C252.008 226.04 252.371 225.357 253.096 224.888C253.821 224.408 254.675 224.168 255.656 224.168C256.637 224.168 257.491 224.408 258.216 224.888C258.952 225.357 259.32 226.04 259.32 226.936C259.32 227.587 259.091 228.131 258.632 228.568C258.184 228.995 257.619 229.304 256.936 229.496C257.661 229.709 258.264 230.061 258.744 230.552C259.235 231.043 259.48 231.624 259.48 232.296C259.48 233.171 259.112 233.875 258.376 234.408ZM255.656 228.952C255.869 228.92 256.083 228.867 256.296 228.792C256.52 228.717 256.771 228.616 257.048 228.488C257.325 228.349 257.549 228.163 257.72 227.928C257.891 227.683 257.976 227.411 257.976 227.112C257.976 226.579 257.752 226.152 257.304 225.832C256.867 225.512 256.317 225.352 255.656 225.352C254.995 225.352 254.445 225.512 254.008 225.832C253.571 226.141 253.352 226.568 253.352 227.112C253.352 227.411 253.437 227.683 253.608 227.928C253.779 228.163 254.003 228.349 254.28 228.488C254.557 228.616 254.803 228.717 255.016 228.792C255.229 228.867 255.443 228.92 255.656 228.952ZM255.656 234.008C256.339 234.008 256.92 233.837 257.4 233.496C257.891 233.155 258.136 232.707 258.136 232.152C258.136 231.725 257.965 231.352 257.624 231.032C257.293 230.701 256.952 230.472 256.6 230.344C256.259 230.205 255.944 230.12 255.656 230.088C255.368 230.12 255.048 230.205 254.696 230.344C254.355 230.472 254.013 230.701 253.672 231.032C253.341 231.352 253.176 231.725 253.176 232.152C253.176 232.707 253.416 233.155 253.896 233.496C254.376 233.837 254.963 234.008 255.656 234.008ZM263.129 234.616C263.129 235.085 263.006 235.533 262.761 235.96C262.526 236.397 262.217 236.755 261.833 237.032L261.225 236.536C261.491 236.365 261.721 236.136 261.913 235.848C262.115 235.571 262.233 235.304 262.265 235.048C262.222 235.069 262.147 235.08 262.041 235.08C261.827 235.08 261.646 235.005 261.497 234.856C261.347 234.696 261.273 234.499 261.273 234.264C261.273 234.029 261.353 233.827 261.513 233.656C261.683 233.485 261.886 233.4 262.121 233.4C262.409 233.4 262.649 233.512 262.841 233.736C263.033 233.949 263.129 234.243 263.129 234.616ZM268.396 235.192C267.692 235.192 267.068 235.032 266.524 234.712C265.991 234.381 265.564 233.944 265.244 233.4C264.935 232.856 264.7 232.269 264.54 231.64C264.391 231.011 264.316 230.355 264.316 229.672C264.316 228.989 264.391 228.333 264.54 227.704C264.7 227.075 264.935 226.493 265.244 225.96C265.564 225.416 265.991 224.984 266.524 224.664C267.068 224.333 267.692 224.168 268.396 224.168C269.089 224.168 269.708 224.333 270.252 224.664C270.796 224.984 271.223 225.416 271.532 225.96C271.852 226.493 272.087 227.075 272.236 227.704C272.396 228.333 272.476 228.989 272.476 229.672C272.476 230.355 272.396 231.011 272.236 231.64C272.087 232.269 271.852 232.856 271.532 233.4C271.223 233.944 270.796 234.381 270.252 234.712C269.708 235.032 269.089 235.192 268.396 235.192ZM266.796 233.352C267.223 233.789 267.756 234.008 268.396 234.008C269.036 234.008 269.569 233.789 269.996 233.352C270.423 232.904 270.716 232.371 270.876 231.752C271.036 231.133 271.116 230.44 271.116 229.672C271.116 228.904 271.036 228.211 270.876 227.592C270.716 226.973 270.423 226.445 269.996 226.008C269.569 225.571 269.036 225.352 268.396 225.352C267.756 225.352 267.223 225.571 266.796 226.008C266.369 226.445 266.076 226.973 265.916 227.592C265.756 228.211 265.676 228.904 265.676 229.672C265.676 230.44 265.756 231.133 265.916 231.752C266.076 232.371 266.369 232.904 266.796 233.352ZM278.193 235.192C277.489 235.192 276.865 235.032 276.321 234.712C275.788 234.381 275.361 233.944 275.041 233.4C274.732 232.856 274.497 232.269 274.337 231.64C274.188 231.011 274.113 230.355 274.113 229.672C274.113 228.989 274.188 228.333 274.337 227.704C274.497 227.075 274.732 226.493 275.041 225.96C275.361 225.416 275.788 224.984 276.321 224.664C276.865 224.333 277.489 224.168 278.193 224.168C278.886 224.168 279.505 224.333 280.049 224.664C280.593 224.984 281.02 225.416 281.329 225.96C281.649 226.493 281.884 227.075 282.033 227.704C282.193 228.333 282.273 228.989 282.273 229.672C282.273 230.355 282.193 231.011 282.033 231.64C281.884 232.269 281.649 232.856 281.329 233.4C281.02 233.944 280.593 234.381 280.049 234.712C279.505 235.032 278.886 235.192 278.193 235.192ZM276.593 233.352C277.02 233.789 277.553 234.008 278.193 234.008C278.833 234.008 279.366 233.789 279.793 233.352C280.22 232.904 280.513 232.371 280.673 231.752C280.833 231.133 280.913 230.44 280.913 229.672C280.913 228.904 280.833 228.211 280.673 227.592C280.513 226.973 280.22 226.445 279.793 226.008C279.366 225.571 278.833 225.352 278.193 225.352C277.553 225.352 277.02 225.571 276.593 226.008C276.166 226.445 275.873 226.973 275.713 227.592C275.553 228.211 275.473 228.904 275.473 229.672C275.473 230.44 275.553 231.133 275.713 231.752C275.873 232.371 276.166 232.904 276.593 233.352Z" fill="#FAFAFA"/>
<path opacity="0.8" d="M192.944 235.192C192.219 235.192 191.584 235.043 191.04 234.744C190.496 234.445 190.064 234.035 189.744 233.512C189.435 232.989 189.2 232.408 189.04 231.768C188.891 231.128 188.816 230.429 188.816 229.672C188.816 228.115 189.184 226.808 189.92 225.752C190.667 224.696 191.749 224.168 193.168 224.168C194.405 224.168 195.387 224.595 196.112 225.448L195.44 226.44C194.821 225.715 194.064 225.352 193.168 225.352C192.197 225.352 191.451 225.763 190.928 226.584C190.416 227.405 190.16 228.392 190.16 229.544V229.96C190.427 229.533 190.837 229.149 191.392 228.808C191.957 228.467 192.555 228.296 193.184 228.296C194.197 228.296 195.029 228.595 195.68 229.192C196.341 229.779 196.672 230.616 196.672 231.704C196.672 232.664 196.331 233.485 195.648 234.168C194.965 234.851 194.064 235.192 192.944 235.192ZM192.88 234.008C193.648 234.008 194.245 233.773 194.672 233.304C195.109 232.835 195.328 232.317 195.328 231.752C195.328 231.005 195.099 230.435 194.64 230.04C194.181 229.645 193.595 229.448 192.88 229.448C192.357 229.448 191.856 229.597 191.376 229.896C190.896 230.184 190.507 230.563 190.208 231.032C190.272 231.821 190.523 232.515 190.96 233.112C191.397 233.709 192.037 234.008 192.88 234.008ZM200.269 234.616C200.269 235.085 200.146 235.533 199.901 235.96C199.666 236.397 199.357 236.755 198.973 237.032L198.365 236.536C198.632 236.365 198.861 236.136 199.053 235.848C199.256 235.571 199.373 235.304 199.405 235.048C199.362 235.069 199.288 235.08 199.181 235.08C198.968 235.08 198.786 235.005 198.637 234.856C198.488 234.696 198.413 234.499 198.413 234.264C198.413 234.029 198.493 233.827 198.653 233.656C198.824 233.485 199.026 233.4 199.261 233.4C199.549 233.4 199.789 233.512 199.981 233.736C200.173 233.949 200.269 234.243 200.269 234.616ZM205.537 235.192C204.833 235.192 204.209 235.032 203.665 234.712C203.131 234.381 202.705 233.944 202.385 233.4C202.075 232.856 201.841 232.269 201.681 231.64C201.531 231.011 201.457 230.355 201.457 229.672C201.457 228.989 201.531 228.333 201.681 227.704C201.841 227.075 202.075 226.493 202.385 225.96C202.705 225.416 203.131 224.984 203.665 224.664C204.209 224.333 204.833 224.168 205.537 224.168C206.23 224.168 206.849 224.333 207.393 224.664C207.937 224.984 208.363 225.416 208.673 225.96C208.993 226.493 209.227 227.075 209.377 227.704C209.537 228.333 209.617 228.989 209.617 229.672C209.617 230.355 209.537 231.011 209.377 231.64C209.227 232.269 208.993 232.856 208.673 233.4C208.363 233.944 207.937 234.381 207.393 234.712C206.849 235.032 206.23 235.192 205.537 235.192ZM203.937 233.352C204.363 233.789 204.897 234.008 205.537 234.008C206.177 234.008 206.71 233.789 207.137 233.352C207.563 232.904 207.857 232.371 208.017 231.752C208.177 231.133 208.257 230.44 208.257 229.672C208.257 228.904 208.177 228.211 208.017 227.592C207.857 226.973 207.563 226.445 207.137 226.008C206.71 225.571 206.177 225.352 205.537 225.352C204.897 225.352 204.363 225.571 203.937 226.008C203.51 226.445 203.217 226.973 203.057 227.592C202.897 228.211 202.817 228.904 202.817 229.672C202.817 230.44 202.897 231.133 203.057 231.752C203.217 232.371 203.51 232.904 203.937 233.352ZM215.334 235.192C214.63 235.192 214.006 235.032 213.462 234.712C212.928 234.381 212.502 233.944 212.182 233.4C211.872 232.856 211.638 232.269 211.478 231.64C211.328 231.011 211.254 230.355 211.254 229.672C211.254 228.989 211.328 228.333 211.478 227.704C211.638 227.075 211.872 226.493 212.182 225.96C212.502 225.416 212.928 224.984 213.462 224.664C214.006 224.333 214.63 224.168 215.334 224.168C216.027 224.168 216.646 224.333 217.19 224.664C217.734 224.984 218.16 225.416 218.47 225.96C218.79 226.493 219.024 227.075 219.174 227.704C219.334 228.333 219.414 228.989 219.414 229.672C219.414 230.355 219.334 231.011 219.174 231.64C219.024 232.269 218.79 232.856 218.47 233.4C218.16 233.944 217.734 234.381 217.19 234.712C216.646 235.032 216.027 235.192 215.334 235.192ZM213.734 233.352C214.16 233.789 214.694 234.008 215.334 234.008C215.974 234.008 216.507 233.789 216.934 233.352C217.36 232.904 217.654 232.371 217.814 231.752C217.974 231.133 218.054 230.44 218.054 229.672C218.054 228.904 217.974 228.211 217.814 227.592C217.654 226.973 217.36 226.445 216.934 226.008C216.507 225.571 215.974 225.352 215.334 225.352C214.694 225.352 214.16 225.571 213.734 226.008C213.307 226.445 213.014 226.973 212.854 227.592C212.694 228.211 212.614 228.904 212.614 229.672C212.614 230.44 212.694 231.133 212.854 231.752C213.014 232.371 213.307 232.904 213.734 233.352Z" fill="#FAFAFA"/>
<path opacity="0.8" d="M132.912 235H131.584V232.296H126.512V231.192L131.088 224.328H132.912V231.128H134.416V232.296H132.912V235ZM131.584 231.128V225.56L127.84 231.128H131.584ZM137.738 234.616C137.738 235.085 137.615 235.533 137.37 235.96C137.135 236.397 136.826 236.755 136.442 237.032L135.834 236.536C136.101 236.365 136.33 236.136 136.522 235.848C136.725 235.571 136.842 235.304 136.874 235.048C136.831 235.069 136.757 235.08 136.65 235.08C136.437 235.08 136.255 235.005 136.106 234.856C135.957 234.696 135.882 234.499 135.882 234.264C135.882 234.029 135.962 233.827 136.122 233.656C136.293 233.485 136.495 233.4 136.73 233.4C137.018 233.4 137.258 233.512 137.45 233.736C137.642 233.949 137.738 234.243 137.738 234.616ZM143.005 235.192C142.301 235.192 141.677 235.032 141.133 234.712C140.6 234.381 140.173 233.944 139.853 233.4C139.544 232.856 139.309 232.269 139.149 231.64C139 231.011 138.925 230.355 138.925 229.672C138.925 228.989 139 228.333 139.149 227.704C139.309 227.075 139.544 226.493 139.853 225.96C140.173 225.416 140.6 224.984 141.133 224.664C141.677 224.333 142.301 224.168 143.005 224.168C143.699 224.168 144.317 224.333 144.861 224.664C145.405 224.984 145.832 225.416 146.141 225.96C146.461 226.493 146.696 227.075 146.845 227.704C147.005 228.333 147.085 228.989 147.085 229.672C147.085 230.355 147.005 231.011 146.845 231.64C146.696 232.269 146.461 232.856 146.141 233.4C145.832 233.944 145.405 234.381 144.861 234.712C144.317 235.032 143.699 235.192 143.005 235.192ZM141.405 233.352C141.832 233.789 142.365 234.008 143.005 234.008C143.645 234.008 144.179 233.789 144.605 233.352C145.032 232.904 145.325 232.371 145.485 231.752C145.645 231.133 145.725 230.44 145.725 229.672C145.725 228.904 145.645 228.211 145.485 227.592C145.325 226.973 145.032 226.445 144.605 226.008C144.179 225.571 143.645 225.352 143.005 225.352C142.365 225.352 141.832 225.571 141.405 226.008C140.979 226.445 140.685 226.973 140.525 227.592C140.365 228.211 140.285 228.904 140.285 229.672C140.285 230.44 140.365 231.133 140.525 231.752C140.685 232.371 140.979 232.904 141.405 233.352ZM152.802 235.192C152.098 235.192 151.474 235.032 150.93 234.712C150.397 234.381 149.97 233.944 149.65 233.4C149.341 232.856 149.106 232.269 148.946 231.64C148.797 231.011 148.722 230.355 148.722 229.672C148.722 228.989 148.797 228.333 148.946 227.704C149.106 227.075 149.341 226.493 149.65 225.96C149.97 225.416 150.397 224.984 150.93 224.664C151.474 224.333 152.098 224.168 152.802 224.168C153.496 224.168 154.114 224.333 154.658 224.664C155.202 224.984 155.629 225.416 155.938 225.96C156.258 226.493 156.493 227.075 156.642 227.704C156.802 228.333 156.882 228.989 156.882 229.672C156.882 230.355 156.802 231.011 156.642 231.64C156.493 232.269 156.258 232.856 155.938 233.4C155.629 233.944 155.202 234.381 154.658 234.712C154.114 235.032 153.496 235.192 152.802 235.192ZM151.202 233.352C151.629 233.789 152.162 234.008 152.802 234.008C153.442 234.008 153.976 233.789 154.402 233.352C154.829 232.904 155.122 232.371 155.282 231.752C155.442 231.133 155.522 230.44 155.522 229.672C155.522 228.904 155.442 228.211 155.282 227.592C155.122 226.973 154.829 226.445 154.402 226.008C153.976 225.571 153.442 225.352 152.802 225.352C152.162 225.352 151.629 225.571 151.202 226.008C150.776 226.445 150.482 226.973 150.322 227.592C150.162 228.211 150.082 228.904 150.082 229.672C150.082 230.44 150.162 231.133 150.322 231.752C150.482 232.371 150.776 232.904 151.202 233.352Z" fill="#FAFAFA"/>
<path opacity="0.8" d="M71.192 235H63.864V233.928C66.0507 232.221 67.5867 230.904 68.472 229.976C69.3573 229.048 69.8 228.157 69.8 227.304C69.8 226.664 69.576 226.179 69.128 225.848C68.6907 225.517 68.168 225.352 67.56 225.352C66.3333 225.352 65.368 225.8 64.664 226.696L63.848 225.848C64.2533 225.315 64.7813 224.904 65.432 224.616C66.0933 224.317 66.8027 224.168 67.56 224.168C68.5307 224.168 69.368 224.44 70.072 224.984C70.7867 225.528 71.144 226.301 71.144 227.304C71.144 228.296 70.7173 229.288 69.864 230.28C69.0107 231.261 67.7093 232.44 65.96 233.816H71.192V235ZM75.2223 234.616C75.2223 235.085 75.0996 235.533 74.8543 235.96C74.6196 236.397 74.3103 236.755 73.9263 237.032L73.3183 236.536C73.5849 236.365 73.8143 236.136 74.0063 235.848C74.2089 235.571 74.3263 235.304 74.3583 235.048C74.3156 235.069 74.2409 235.08 74.1343 235.08C73.9209 235.08 73.7396 235.005 73.5903 234.856C73.4409 234.696 73.3663 234.499 73.3663 234.264C73.3663 234.029 73.4463 233.827 73.6063 233.656C73.7769 233.485 73.9796 233.4 74.2143 233.4C74.5023 233.4 74.7423 233.512 74.9343 233.736C75.1263 233.949 75.2223 234.243 75.2223 234.616ZM80.4898 235.192C79.7858 235.192 79.1618 235.032 78.6178 234.712C78.0844 234.381 77.6578 233.944 77.3378 233.4C77.0284 232.856 76.7938 232.269 76.6338 231.64C76.4844 231.011 76.4098 230.355 76.4098 229.672C76.4098 228.989 76.4844 228.333 76.6338 227.704C76.7938 227.075 77.0284 226.493 77.3378 225.96C77.6578 225.416 78.0844 224.984 78.6178 224.664C79.1618 224.333 79.7858 224.168 80.4898 224.168C81.1831 224.168 81.8018 224.333 82.3458 224.664C82.8898 224.984 83.3164 225.416 83.6258 225.96C83.9458 226.493 84.1804 227.075 84.3298 227.704C84.4898 228.333 84.5698 228.989 84.5698 229.672C84.5698 230.355 84.4898 231.011 84.3298 231.64C84.1804 232.269 83.9458 232.856 83.6258 233.4C83.3164 233.944 82.8898 234.381 82.3458 234.712C81.8018 235.032 81.1831 235.192 80.4898 235.192ZM78.8898 233.352C79.3164 233.789 79.8498 234.008 80.4898 234.008C81.1298 234.008 81.6631 233.789 82.0898 233.352C82.5164 232.904 82.8098 232.371 82.9698 231.752C83.1298 231.133 83.2098 230.44 83.2098 229.672C83.2098 228.904 83.1298 228.211 82.9698 227.592C82.8098 226.973 82.5164 226.445 82.0898 226.008C81.6631 225.571 81.1298 225.352 80.4898 225.352C79.8498 225.352 79.3164 225.571 78.8898 226.008C78.4631 226.445 78.1698 226.973 78.0098 227.592C77.8498 228.211 77.7698 228.904 77.7698 229.672C77.7698 230.44 77.8498 231.133 78.0098 231.752C78.1698 232.371 78.4631 232.904 78.8898 233.352ZM90.2866 235.192C89.5826 235.192 88.9586 235.032 88.4146 234.712C87.8813 234.381 87.4546 233.944 87.1346 233.4C86.8253 232.856 86.5906 232.269 86.4306 231.64C86.2813 231.011 86.2066 230.355 86.2066 229.672C86.2066 228.989 86.2813 228.333 86.4306 227.704C86.5906 227.075 86.8253 226.493 87.1346 225.96C87.4546 225.416 87.8813 224.984 88.4146 224.664C88.9586 224.333 89.5826 224.168 90.2866 224.168C90.98 224.168 91.5986 224.333 92.1426 224.664C92.6866 224.984 93.1133 225.416 93.4226 225.96C93.7426 226.493 93.9773 227.075 94.1266 227.704C94.2866 228.333 94.3666 228.989 94.3666 229.672C94.3666 230.355 94.2866 231.011 94.1266 231.64C93.9773 232.269 93.7426 232.856 93.4226 233.4C93.1133 233.944 92.6866 234.381 92.1426 234.712C91.5986 235.032 90.98 235.192 90.2866 235.192ZM88.6866 233.352C89.1133 233.789 89.6466 234.008 90.2866 234.008C90.9266 234.008 91.46 233.789 91.8866 233.352C92.3133 232.904 92.6066 232.371 92.7666 231.752C92.9266 231.133 93.0066 230.44 93.0066 229.672C93.0066 228.904 92.9266 228.211 92.7666 227.592C92.6066 226.973 92.3133 226.445 91.8866 226.008C91.46 225.571 90.9266 225.352 90.2866 225.352C89.6466 225.352 89.1133 225.571 88.6866 226.008C88.26 226.445 87.9666 226.973 87.8066 227.592C87.6466 228.211 87.5666 228.904 87.5666 229.672C87.5666 230.44 87.6466 231.133 87.8066 231.752C87.9666 232.371 88.26 232.904 88.6866 233.352Z" fill="#FAFAFA"/>
<path opacity="0.8" d="M4.896 235.192C4.192 235.192 3.568 235.032 3.024 234.712C2.49067 234.381 2.064 233.944 1.744 233.4C1.43467 232.856 1.2 232.269 1.04 231.64C0.890667 231.011 0.816 230.355 0.816 229.672C0.816 228.989 0.890667 228.333 1.04 227.704C1.2 227.075 1.43467 226.493 1.744 225.96C2.064 225.416 2.49067 224.984 3.024 224.664C3.568 224.333 4.192 224.168 4.896 224.168C5.58933 224.168 6.208 224.333 6.752 224.664C7.296 224.984 7.72267 225.416 8.032 225.96C8.352 226.493 8.58667 227.075 8.736 227.704C8.896 228.333 8.976 228.989 8.976 229.672C8.976 230.355 8.896 231.011 8.736 231.64C8.58667 232.269 8.352 232.856 8.032 233.4C7.72267 233.944 7.296 234.381 6.752 234.712C6.208 235.032 5.58933 235.192 4.896 235.192ZM3.296 233.352C3.72267 233.789 4.256 234.008 4.896 234.008C5.536 234.008 6.06933 233.789 6.496 233.352C6.92267 232.904 7.216 232.371 7.376 231.752C7.536 231.133 7.616 230.44 7.616 229.672C7.616 228.904 7.536 228.211 7.376 227.592C7.216 226.973 6.92267 226.445 6.496 226.008C6.06933 225.571 5.536 225.352 4.896 225.352C4.256 225.352 3.72267 225.571 3.296 226.008C2.86933 226.445 2.576 226.973 2.416 227.592C2.256 228.211 2.176 228.904 2.176 229.672C2.176 230.44 2.256 231.133 2.416 231.752C2.576 232.371 2.86933 232.904 3.296 233.352ZM12.1129 234.616C12.1129 235.085 11.9902 235.533 11.7449 235.96C11.5102 236.397 11.2009 236.755 10.8169 237.032L10.2089 236.536C10.4755 236.365 10.7049 236.136 10.8969 235.848C11.0995 235.571 11.2169 235.304 11.2489 235.048C11.2062 235.069 11.1315 235.08 11.0249 235.08C10.8115 235.08 10.6302 235.005 10.4809 234.856C10.3315 234.696 10.2569 234.499 10.2569 234.264C10.2569 234.029 10.3369 233.827 10.4969 233.656C10.6675 233.485 10.8702 233.4 11.1049 233.4C11.3929 233.4 11.6329 233.512 11.8249 233.736C12.0169 233.949 12.1129 234.243 12.1129 234.616ZM17.3804 235.192C16.6764 235.192 16.0524 235.032 15.5084 234.712C14.975 234.381 14.5484 233.944 14.2284 233.4C13.919 232.856 13.6844 232.269 13.5244 231.64C13.375 231.011 13.3004 230.355 13.3004 229.672C13.3004 228.989 13.375 228.333 13.5244 227.704C13.6844 227.075 13.919 226.493 14.2284 225.96C14.5484 225.416 14.975 224.984 15.5084 224.664C16.0524 224.333 16.6764 224.168 17.3804 224.168C18.0737 224.168 18.6924 224.333 19.2364 224.664C19.7804 224.984 20.207 225.416 20.5164 225.96C20.8364 226.493 21.071 227.075 21.2204 227.704C21.3804 228.333 21.4604 228.989 21.4604 229.672C21.4604 230.355 21.3804 231.011 21.2204 231.64C21.071 232.269 20.8364 232.856 20.5164 233.4C20.207 233.944 19.7804 234.381 19.2364 234.712C18.6924 235.032 18.0737 235.192 17.3804 235.192ZM15.7804 233.352C16.207 233.789 16.7404 234.008 17.3804 234.008C18.0204 234.008 18.5537 233.789 18.9804 233.352C19.407 232.904 19.7004 232.371 19.8604 231.752C20.0204 231.133 20.1004 230.44 20.1004 229.672C20.1004 228.904 20.0204 228.211 19.8604 227.592C19.7004 226.973 19.407 226.445 18.9804 226.008C18.5537 225.571 18.0204 225.352 17.3804 225.352C16.7404 225.352 16.207 225.571 15.7804 226.008C15.3537 226.445 15.0604 226.973 14.9004 227.592C14.7404 228.211 14.6604 228.904 14.6604 229.672C14.6604 230.44 14.7404 231.133 14.9004 231.752C15.0604 232.371 15.3537 232.904 15.7804 233.352ZM27.1773 235.192C26.4733 235.192 25.8493 235.032 25.3053 234.712C24.7719 234.381 24.3453 233.944 24.0253 233.4C23.7159 232.856 23.4813 232.269 23.3213 231.64C23.1719 231.011 23.0973 230.355 23.0973 229.672C23.0973 228.989 23.1719 228.333 23.3213 227.704C23.4813 227.075 23.7159 226.493 24.0253 225.96C24.3453 225.416 24.7719 224.984 25.3053 224.664C25.8493 224.333 26.4733 224.168 27.1773 224.168C27.8706 224.168 28.4893 224.333 29.0333 224.664C29.5773 224.984 30.0039 225.416 30.3133 225.96C30.6333 226.493 30.8679 227.075 31.0173 227.704C31.1773 228.333 31.2573 228.989 31.2573 229.672C31.2573 230.355 31.1773 231.011 31.0173 231.64C30.8679 232.269 30.6333 232.856 30.3133 233.4C30.0039 233.944 29.5773 234.381 29.0333 234.712C28.4893 235.032 27.8706 235.192 27.1773 235.192ZM25.5773 233.352C26.0039 233.789 26.5373 234.008 27.1773 234.008C27.8173 234.008 28.3506 233.789 28.7773 233.352C29.2039 232.904 29.4973 232.371 29.6573 231.752C29.8173 231.133 29.8973 230.44 29.8973 229.672C29.8973 228.904 29.8173 228.211 29.6573 227.592C29.4973 226.973 29.2039 226.445 28.7773 226.008C28.3506 225.571 27.8173 225.352 27.1773 225.352C26.5373 225.352 26.0039 225.571 25.5773 226.008C25.1506 226.445 24.8573 226.973 24.6973 227.592C24.5373 228.211 24.4573 228.904 24.4573 229.672C24.4573 230.44 24.5373 231.133 24.6973 231.752C24.8573 232.371 25.1506 232.904 25.5773 233.352Z" fill="#FAFAFA"/>
<path opacity="0.8" d="M42.096 47H40.448L36.144 36.328H37.664L41.264 45.544L44.864 36.328H46.384L42.096 47ZM53.5781 47H52.3781V45.848C51.7168 46.744 50.8475 47.192 49.7701 47.192C48.7461 47.192 47.9141 46.8293 47.2741 46.104C46.6448 45.368 46.3301 44.3813 46.3301 43.144C46.3301 41.9173 46.6501 40.936 47.2901 40.2C47.9301 39.4533 48.7568 39.08 49.7701 39.08C50.8368 39.08 51.7061 39.5333 52.3781 40.44V39.272H53.5781V47ZM50.0741 46.12C50.5328 46.12 50.9755 46.0027 51.4021 45.768C51.8395 45.5227 52.1648 45.2293 52.3781 44.888V41.4C52.1648 41.048 51.8395 40.7547 51.4021 40.52C50.9755 40.2747 50.5328 40.152 50.0741 40.152C49.3061 40.152 48.6981 40.4347 48.2501 41C47.8021 41.5547 47.5781 42.2693 47.5781 43.144C47.5781 44.0187 47.8021 44.7333 48.2501 45.288C48.6981 45.8427 49.3061 46.12 50.0741 46.12ZM57.6933 47.192C57.1279 47.192 56.7013 47.0373 56.4133 46.728C56.1253 46.4187 55.9813 45.9707 55.9813 45.384V36.328H57.1813V45.128C57.1813 45.4267 57.2453 45.6667 57.3733 45.848C57.5119 46.0293 57.7093 46.12 57.9653 46.12C58.3173 46.12 58.5839 46.008 58.7653 45.784L59.1333 46.696C58.7706 47.0267 58.2906 47.192 57.6933 47.192ZM61.9901 47.192C61.4248 47.192 60.9981 47.0373 60.7101 46.728C60.4221 46.4187 60.2781 45.9707 60.2781 45.384V36.328H61.4781V45.128C61.4781 45.4267 61.5421 45.6667 61.6701 45.848C61.8088 46.0293 62.0061 46.12 62.2621 46.12C62.6141 46.12 62.8808 46.008 63.0621 45.784L63.4301 46.696C63.0675 47.0267 62.5875 47.192 61.9901 47.192ZM68.079 47.192C66.9163 47.192 65.967 46.8187 65.231 46.072C64.495 45.3147 64.127 44.3333 64.127 43.128C64.127 41.9973 64.4897 41.0427 65.215 40.264C65.9403 39.4747 66.847 39.08 67.935 39.08C69.0763 39.08 69.9777 39.4747 70.639 40.264C71.311 41.0427 71.647 42.0293 71.647 43.224V43.528H65.407C65.4603 44.2853 65.7323 44.92 66.223 45.432C66.7243 45.944 67.375 46.2 68.175 46.2C69.135 46.2 69.935 45.8693 70.575 45.208L71.151 45.992C70.3297 46.792 69.3057 47.192 68.079 47.192ZM70.463 42.632C70.4523 41.9813 70.2283 41.3947 69.791 40.872C69.3537 40.3387 68.7297 40.072 67.919 40.072C67.151 40.072 66.543 40.3333 66.095 40.856C65.6577 41.3787 65.423 41.9707 65.391 42.632H70.463ZM84.5312 47H83.3313V45.848C82.6699 46.744 81.8006 47.192 80.7233 47.192C79.6993 47.192 78.8673 46.8293 78.2273 46.104C77.5979 45.368 77.2833 44.3813 77.2833 43.144C77.2833 41.9173 77.6033 40.936 78.2433 40.2C78.8833 39.4533 79.7099 39.08 80.7233 39.08C81.7899 39.08 82.6593 39.5333 83.3313 40.44V36.328H84.5312V47ZM81.0273 46.12C81.4859 46.12 81.9286 46.0027 82.3553 45.768C82.7926 45.5227 83.1179 45.2293 83.3313 44.888V41.4C83.1179 41.048 82.7926 40.7547 82.3553 40.52C81.9286 40.2747 81.4859 40.152 81.0273 40.152C80.2593 40.152 79.6513 40.4347 79.2033 41C78.7553 41.5547 78.5312 42.2693 78.5312 43.144C78.5312 44.0187 78.7553 44.7333 79.2033 45.288C79.6513 45.8427 80.2593 46.12 81.0273 46.12ZM90.4384 47.192C89.2757 47.192 88.3264 46.8187 87.5904 46.072C86.8544 45.3147 86.4864 44.3333 86.4864 43.128C86.4864 41.9973 86.849 41.0427 87.5744 40.264C88.2997 39.4747 89.2064 39.08 90.2944 39.08C91.4357 39.08 92.337 39.4747 92.9984 40.264C93.6704 41.0427 94.0064 42.0293 94.0064 43.224V43.528H87.7664C87.8197 44.2853 88.0917 44.92 88.5824 45.432C89.0837 45.944 89.7344 46.2 90.5344 46.2C91.4944 46.2 92.2944 45.8693 92.9344 45.208L93.5104 45.992C92.689 46.792 91.665 47.192 90.4384 47.192ZM92.8224 42.632C92.8117 41.9813 92.5877 41.3947 92.1504 40.872C91.713 40.3387 91.089 40.072 90.2784 40.072C89.5104 40.072 88.9024 40.3333 88.4544 40.856C88.017 41.3787 87.7824 41.9707 87.7504 42.632H92.8224ZM97.662 47.192C97.0967 47.192 96.67 47.0373 96.382 46.728C96.094 46.4187 95.95 45.9707 95.95 45.384V36.328H97.15V45.128C97.15 45.4267 97.214 45.6667 97.342 45.848C97.4807 46.0293 97.678 46.12 97.934 46.12C98.286 46.12 98.5527 46.008 98.734 45.784L99.102 46.696C98.7393 47.0267 98.2593 47.192 97.662 47.192ZM109.492 47.192C107.934 47.192 106.628 46.68 105.572 45.656C104.526 44.6213 104.004 43.2933 104.004 41.672C104.004 40.0507 104.526 38.728 105.572 37.704C106.628 36.6693 107.934 36.152 109.492 36.152C111.209 36.152 112.558 36.856 113.54 38.264L112.436 38.888C112.126 38.4187 111.705 38.0453 111.172 37.768C110.649 37.48 110.089 37.336 109.492 37.336C108.308 37.336 107.326 37.7413 106.548 38.552C105.769 39.3627 105.38 40.4027 105.38 41.672C105.38 42.9307 105.769 43.9707 106.548 44.792C107.337 45.6027 108.318 46.008 109.492 46.008C110.089 46.008 110.649 45.864 111.172 45.576C111.705 45.288 112.126 44.9147 112.436 44.456L113.556 45.064C112.521 46.4827 111.166 47.192 109.492 47.192ZM122 47H120.8V45.848C120.139 46.744 119.269 47.192 118.192 47.192C117.168 47.192 116.336 46.8293 115.696 46.104C115.067 45.368 114.752 44.3813 114.752 43.144C114.752 41.9173 115.072 40.936 115.712 40.2C116.352 39.4533 117.179 39.08 118.192 39.08C119.259 39.08 120.128 39.5333 120.8 40.44V39.272H122V47ZM118.496 46.12C118.955 46.12 119.397 46.0027 119.824 45.768C120.261 45.5227 120.587 45.2293 120.8 44.888V41.4C120.587 41.048 120.261 40.7547 119.824 40.52C119.397 40.2747 118.955 40.152 118.496 40.152C117.728 40.152 117.12 40.4347 116.672 41C116.224 41.5547 116 42.2693 116 43.144C116 44.0187 116.224 44.7333 116.672 45.288C117.12 45.8427 117.728 46.12 118.496 46.12ZM130.819 47H129.619V45.912C129.299 46.2747 128.894 46.5787 128.403 46.824C127.923 47.0693 127.411 47.192 126.867 47.192C125.224 47.192 124.403 46.3707 124.403 44.728V39.272H125.603V44.36C125.603 45 125.752 45.4533 126.051 45.72C126.35 45.9867 126.782 46.12 127.347 46.12C127.795 46.12 128.227 46.008 128.643 45.784C129.059 45.56 129.384 45.2827 129.619 44.952V39.272H130.819V47ZM136.624 47.192C135.482 47.192 134.554 46.808 133.84 46.04C133.125 45.2613 132.768 44.2907 132.768 43.128C132.768 41.9653 133.125 41 133.84 40.232C134.554 39.464 135.482 39.08 136.624 39.08C137.818 39.08 138.762 39.528 139.456 40.424L138.656 41.144C138.176 40.4827 137.52 40.152 136.688 40.152C135.888 40.152 135.242 40.4347 134.752 41C134.261 41.5547 134.016 42.264 134.016 43.128C134.016 44.0027 134.261 44.7227 134.752 45.288C135.242 45.8427 135.888 46.12 136.688 46.12C137.498 46.12 138.154 45.784 138.656 45.112L139.456 45.848C138.762 46.744 137.818 47.192 136.624 47.192ZM147.953 47H146.753V45.848C146.092 46.744 145.222 47.192 144.145 47.192C143.121 47.192 142.289 46.8293 141.649 46.104C141.02 45.368 140.705 44.3813 140.705 43.144C140.705 41.9173 141.025 40.936 141.665 40.2C142.305 39.4533 143.132 39.08 144.145 39.08C145.212 39.08 146.081 39.5333 146.753 40.44V39.272H147.953V47ZM144.449 46.12C144.908 46.12 145.35 46.0027 145.777 45.768C146.214 45.5227 146.54 45.2293 146.753 44.888V41.4C146.54 41.048 146.214 40.7547 145.777 40.52C145.35 40.2747 144.908 40.152 144.449 40.152C143.681 40.152 143.073 40.4347 142.625 41C142.177 41.5547 141.953 42.2693 141.953 43.144C141.953 44.0187 142.177 44.7333 142.625 45.288C143.073 45.8427 143.681 46.12 144.449 46.12Z" fill="#1A1A1A"/>
<path opacity="0.8" d="M42.304 92.192C40.7467 92.192 39.44 91.68 38.384 90.656C37.3387 89.6213 36.816 88.2933 36.816 86.672C36.816 85.0507 37.3387 83.728 38.384 82.704C39.44 81.6693 40.7467 81.152 42.304 81.152C44.0213 81.152 45.3707 81.856 46.352 83.264L45.248 83.888C44.9387 83.4187 44.5173 83.0453 43.984 82.768C43.4613 82.48 42.9013 82.336 42.304 82.336C41.12 82.336 40.1387 82.7413 39.36 83.552C38.5813 84.3627 38.192 85.4027 38.192 86.672C38.192 87.9307 38.5813 88.9707 39.36 89.792C40.1493 90.6027 41.1307 91.008 42.304 91.008C42.9013 91.008 43.4613 90.864 43.984 90.576C44.5173 90.288 44.9387 89.9147 45.248 89.456L46.368 90.064C45.3333 91.4827 43.9787 92.192 42.304 92.192ZM54.8125 92H53.6125V90.848C52.9512 91.744 52.0818 92.192 51.0045 92.192C49.9805 92.192 49.1485 91.8293 48.5085 91.104C47.8792 90.368 47.5645 89.3813 47.5645 88.144C47.5645 86.9173 47.8845 85.936 48.5245 85.2C49.1645 84.4533 49.9912 84.08 51.0045 84.08C52.0712 84.08 52.9405 84.5333 53.6125 85.44V84.272H54.8125V92ZM51.3085 91.12C51.7672 91.12 52.2098 91.0027 52.6365 90.768C53.0738 90.5227 53.3992 90.2293 53.6125 89.888V86.4C53.3992 86.048 53.0738 85.7547 52.6365 85.52C52.2098 85.2747 51.7672 85.152 51.3085 85.152C50.5405 85.152 49.9325 85.4347 49.4845 86C49.0365 86.5547 48.8125 87.2693 48.8125 88.144C48.8125 89.0187 49.0365 89.7333 49.4845 90.288C49.9325 90.8427 50.5405 91.12 51.3085 91.12ZM63.6316 92H62.4316V90.912C62.1116 91.2747 61.7063 91.5787 61.2156 91.824C60.7356 92.0693 60.2236 92.192 59.6796 92.192C58.037 92.192 57.2156 91.3707 57.2156 89.728V84.272H58.4156V89.36C58.4156 90 58.565 90.4533 58.8636 90.72C59.1623 90.9867 59.5943 91.12 60.1596 91.12C60.6076 91.12 61.0396 91.008 61.4556 90.784C61.8716 90.56 62.197 90.2827 62.4316 89.952V84.272H63.6316V92ZM69.4361 92.192C68.2948 92.192 67.3668 91.808 66.6521 91.04C65.9375 90.2613 65.5801 89.2907 65.5801 88.128C65.5801 86.9653 65.9375 86 66.6521 85.232C67.3668 84.464 68.2948 84.08 69.4361 84.08C70.6308 84.08 71.5748 84.528 72.2681 85.424L71.4681 86.144C70.9881 85.4827 70.3321 85.152 69.5001 85.152C68.7001 85.152 68.0548 85.4347 67.5641 86C67.0735 86.5547 66.8281 87.264 66.8281 88.128C66.8281 89.0027 67.0735 89.7227 67.5641 90.288C68.0548 90.8427 68.7001 91.12 69.5001 91.12C70.3108 91.12 70.9668 90.784 71.4681 90.112L72.2681 90.848C71.5748 91.744 70.6308 92.192 69.4361 92.192ZM80.7656 92H79.5656V90.848C78.9043 91.744 78.035 92.192 76.9576 92.192C75.9336 92.192 75.1016 91.8293 74.4616 91.104C73.8323 90.368 73.5176 89.3813 73.5176 88.144C73.5176 86.9173 73.8376 85.936 74.4776 85.2C75.1176 84.4533 75.9443 84.08 76.9576 84.08C78.0243 84.08 78.8936 84.5333 79.5656 85.44V84.272H80.7656V92ZM77.2616 91.12C77.7203 91.12 78.163 91.0027 78.5896 90.768C79.027 90.5227 79.3523 90.2293 79.5656 89.888V86.4C79.3523 86.048 79.027 85.7547 78.5896 85.52C78.163 85.2747 77.7203 85.152 77.2616 85.152C76.4936 85.152 75.8856 85.4347 75.4376 86C74.9896 86.5547 74.7656 87.2693 74.7656 88.144C74.7656 89.0187 74.9896 89.7333 75.4376 90.288C75.8856 90.8427 76.4936 91.12 77.2616 91.12Z" fill="#1A1A1A"/>
<path opacity="0.8" d="M40.704 137.192C38.976 137.192 37.6107 136.627 36.608 135.496L37.408 134.472C38.2933 135.496 39.408 136.008 40.752 136.008C41.616 136.008 42.2507 135.821 42.656 135.448C43.0613 135.075 43.264 134.643 43.264 134.152C43.264 133.725 43.104 133.373 42.784 133.096C42.4747 132.808 42.0853 132.6 41.616 132.472C41.1573 132.344 40.6507 132.2 40.096 132.04C39.552 131.869 39.0453 131.693 38.576 131.512C38.1173 131.331 37.728 131.037 37.408 130.632C37.0987 130.227 36.944 129.725 36.944 129.128C36.944 128.253 37.2907 127.539 37.984 126.984C38.6773 126.429 39.5573 126.152 40.624 126.152C42.192 126.152 43.4507 126.653 44.4 127.656L43.6 128.632C42.8427 127.779 41.8133 127.352 40.512 127.352C39.872 127.352 39.344 127.512 38.928 127.832C38.5227 128.141 38.32 128.547 38.32 129.048C38.32 129.421 38.4747 129.731 38.784 129.976C39.104 130.221 39.4933 130.403 39.952 130.52C40.4213 130.637 40.928 130.787 41.472 130.968C42.0267 131.139 42.5333 131.325 42.992 131.528C43.4613 131.72 43.8507 132.035 44.16 132.472C44.48 132.909 44.64 133.437 44.64 134.056C44.64 134.92 44.3147 135.661 43.664 136.28C43.024 136.888 42.0373 137.192 40.704 137.192ZM53.375 137H52.175V135.848C51.5137 136.744 50.6443 137.192 49.567 137.192C48.543 137.192 47.711 136.829 47.071 136.104C46.4417 135.368 46.127 134.381 46.127 133.144C46.127 131.917 46.447 130.936 47.087 130.2C47.727 129.453 48.5537 129.08 49.567 129.08C50.6337 129.08 51.503 129.533 52.175 130.44V129.272H53.375V137ZM49.871 136.12C50.3297 136.12 50.7723 136.003 51.199 135.768C51.6363 135.523 51.9617 135.229 52.175 134.888V131.4C51.9617 131.048 51.6363 130.755 51.199 130.52C50.7723 130.275 50.3297 130.152 49.871 130.152C49.103 130.152 48.495 130.435 48.047 131C47.599 131.555 47.375 132.269 47.375 133.144C47.375 134.019 47.599 134.733 48.047 135.288C48.495 135.843 49.103 136.12 49.871 136.12ZM62.1941 137H61.0101V131.944C61.0101 131.293 60.8608 130.835 60.5621 130.568C60.2635 130.291 59.8315 130.152 59.2661 130.152C58.8181 130.152 58.3861 130.269 57.9701 130.504C57.5541 130.739 57.2235 131.021 56.9781 131.352V137H55.7781V129.272H56.9781V130.392C57.2768 130.029 57.6768 129.72 58.1781 129.464C58.6795 129.208 59.2021 129.08 59.7461 129.08C61.3781 129.08 62.1941 129.912 62.1941 131.576V137ZM66.5743 137.192C65.4223 137.192 64.8463 136.589 64.8463 135.384V130.328H63.5663V129.272H64.8463V127.16H66.0623V129.272H67.6302V130.328H66.0623V135.128C66.0623 135.427 66.1263 135.667 66.2543 135.848C66.3929 136.029 66.5849 136.12 66.8303 136.12C67.1716 136.12 67.4436 136.008 67.6463 135.784L67.9983 136.696C67.6463 137.027 67.1716 137.192 66.5743 137.192ZM76.1094 137H74.9094V135.848C74.248 136.744 73.3787 137.192 72.3014 137.192C71.2774 137.192 70.4454 136.829 69.8054 136.104C69.176 135.368 68.8614 134.381 68.8614 133.144C68.8614 131.917 69.1814 130.936 69.8214 130.2C70.4614 129.453 71.288 129.08 72.3014 129.08C73.368 129.08 74.2374 129.533 74.9094 130.44V129.272H76.1094V137ZM72.6054 136.12C73.064 136.12 73.5067 136.003 73.9334 135.768C74.3707 135.523 74.696 135.229 74.9094 134.888V131.4C74.696 131.048 74.3707 130.755 73.9334 130.52C73.5067 130.275 73.064 130.152 72.6054 130.152C71.8374 130.152 71.2294 130.435 70.7814 131C70.3334 131.555 70.1094 132.269 70.1094 133.144C70.1094 134.019 70.3334 134.733 70.7814 135.288C71.2294 135.843 71.8374 136.12 72.6054 136.12ZM84.9285 137H83.7445V131.944C83.7445 131.293 83.5952 130.835 83.2965 130.568C82.9978 130.291 82.5658 130.152 82.0005 130.152C81.5525 130.152 81.1205 130.269 80.7045 130.504C80.2885 130.739 79.9578 131.021 79.7125 131.352V137H78.5125V129.272H79.7125V130.392C80.0112 130.029 80.4112 129.72 80.9125 129.464C81.4138 129.208 81.9365 129.08 82.4805 129.08C84.1125 129.08 84.9285 129.912 84.9285 131.576V137ZM94.1406 137H92.9406V135.848C92.2793 136.744 91.41 137.192 90.3326 137.192C89.3086 137.192 88.4766 136.829 87.8366 136.104C87.2073 135.368 86.8926 134.381 86.8926 133.144C86.8926 131.917 87.2126 130.936 87.8526 130.2C88.4926 129.453 89.3193 129.08 90.3326 129.08C91.3993 129.08 92.2686 129.533 92.9406 130.44V126.328H94.1406V137ZM90.6366 136.12C91.0953 136.12 91.538 136.003 91.9646 135.768C92.402 135.523 92.7273 135.229 92.9406 134.888V131.4C92.7273 131.048 92.402 130.755 91.9646 130.52C91.538 130.275 91.0953 130.152 90.6366 130.152C89.8686 130.152 89.2606 130.435 88.8126 131C88.3646 131.555 88.1406 132.269 88.1406 133.144C88.1406 134.019 88.3646 134.733 88.8126 135.288C89.2606 135.843 89.8686 136.12 90.6366 136.12ZM100.048 137.192C98.8851 137.192 97.9358 136.819 97.1998 136.072C96.4638 135.315 96.0958 134.333 96.0958 133.128C96.0958 131.997 96.4584 131.043 97.1838 130.264C97.9091 129.475 98.8158 129.08 99.9038 129.08C101.045 129.08 101.946 129.475 102.608 130.264C103.28 131.043 103.616 132.029 103.616 133.224V133.528H97.3758C97.4291 134.285 97.7011 134.92 98.1918 135.432C98.6931 135.944 99.3438 136.2 100.144 136.2C101.104 136.2 101.904 135.869 102.544 135.208L103.12 135.992C102.298 136.792 101.274 137.192 100.048 137.192ZM102.432 132.632C102.421 131.981 102.197 131.395 101.76 130.872C101.322 130.339 100.698 130.072 99.8878 130.072C99.1198 130.072 98.5118 130.333 98.0638 130.856C97.6264 131.379 97.3918 131.971 97.3598 132.632H102.432ZM106.759 137H105.559V129.272H106.759V130.504C107.495 129.565 108.354 129.096 109.335 129.096V130.328C109.143 130.307 108.989 130.296 108.871 130.296C108.498 130.296 108.098 130.424 107.671 130.68C107.245 130.925 106.941 131.208 106.759 131.528V137Z" fill="#1A1A1A"/>
<path opacity="0.8" d="M46.384 182H44.864L43.92 179.616H38.608L37.664 182H36.144L40.448 171.328H42.096L46.384 182ZM43.536 178.448L41.264 172.688L39.008 178.448H43.536ZM54.1473 182H52.9633V176.944C52.9633 176.293 52.8139 175.835 52.5153 175.568C52.2166 175.291 51.7846 175.152 51.2193 175.152C50.7713 175.152 50.3393 175.269 49.9233 175.504C49.5073 175.739 49.1766 176.021 48.9313 176.352V182H47.7313V174.272H48.9313V175.392C49.2299 175.029 49.6299 174.72 50.1313 174.464C50.6326 174.208 51.1553 174.08 51.6993 174.08C53.3313 174.08 54.1473 174.912 54.1473 176.576V182ZM58.5274 182.192C57.3754 182.192 56.7994 181.589 56.7994 180.384V175.328H55.5194V174.272H56.7994V172.16H58.0154V174.272H59.5834V175.328H58.0154V180.128C58.0154 180.427 58.0794 180.667 58.2074 180.848C58.346 181.029 58.538 181.12 58.7834 181.12C59.1247 181.12 59.3967 181.008 59.5994 180.784L59.9514 181.696C59.5994 182.027 59.1247 182.192 58.5274 182.192ZM62.4305 172.944C62.2812 173.093 62.0945 173.168 61.8705 173.168C61.6465 173.168 61.4545 173.093 61.2945 172.944C61.1345 172.784 61.0545 172.592 61.0545 172.368C61.0545 172.144 61.1345 171.952 61.2945 171.792C61.4545 171.632 61.6465 171.552 61.8705 171.552C62.0945 171.552 62.2812 171.632 62.4305 171.792C62.5905 171.952 62.6705 172.144 62.6705 172.368C62.6705 172.592 62.5905 172.784 62.4305 172.944ZM62.4625 182H61.2625V174.272H62.4625V182ZM71.0003 181.024C70.3069 181.803 69.3843 182.192 68.2323 182.192C67.0803 182.192 66.1523 181.803 65.4483 181.024C64.7549 180.245 64.4083 179.28 64.4083 178.128C64.4083 176.976 64.7549 176.016 65.4483 175.248C66.1523 174.469 67.0803 174.08 68.2323 174.08C69.3843 174.08 70.3069 174.469 71.0003 175.248C71.7043 176.016 72.0563 176.976 72.0563 178.128C72.0563 179.28 71.7043 180.245 71.0003 181.024ZM66.3603 180.256C66.8189 180.832 67.4429 181.12 68.2323 181.12C69.0216 181.12 69.6456 180.832 70.1043 180.256C70.5629 179.669 70.7923 178.96 70.7923 178.128C70.7923 177.296 70.5629 176.592 70.1043 176.016C69.6456 175.44 69.0216 175.152 68.2323 175.152C67.4429 175.152 66.8189 175.44 66.3603 176.016C65.9016 176.592 65.6723 177.296 65.6723 178.128C65.6723 178.96 65.9016 179.669 66.3603 180.256ZM77.2605 181.12C77.7192 181.12 78.1618 181.003 78.5885 180.768C79.0258 180.523 79.3512 180.224 79.5645 179.872V176.384C79.3512 176.043 79.0258 175.755 78.5885 175.52C78.1618 175.275 77.7192 175.152 77.2605 175.152C76.5032 175.152 75.9005 175.429 75.4525 175.984C75.0045 176.539 74.7805 177.253 74.7805 178.128C74.7805 179.003 75.0045 179.723 75.4525 180.288C75.9005 180.843 76.5032 181.12 77.2605 181.12ZM76.9565 182.192C75.9325 182.192 75.1005 181.824 74.4605 181.088C73.8312 180.352 73.5165 179.365 73.5165 178.128C73.5165 176.891 73.8312 175.909 74.4605 175.184C75.1005 174.448 75.9325 174.08 76.9565 174.08C77.4898 174.08 77.9858 174.203 78.4445 174.448C78.9032 174.693 79.2765 175.019 79.5645 175.424V174.272H80.7645V184.944H79.5645V180.832C78.8818 181.739 78.0125 182.192 76.9565 182.192ZM89.5848 182H88.3848V180.912C88.0648 181.275 87.6594 181.579 87.1688 181.824C86.6888 182.069 86.1768 182.192 85.6328 182.192C83.9901 182.192 83.1688 181.371 83.1688 179.728V174.272H84.3688V179.36C84.3688 180 84.5181 180.453 84.8168 180.72C85.1154 180.987 85.5474 181.12 86.1128 181.12C86.5608 181.12 86.9928 181.008 87.4088 180.784C87.8248 180.56 88.1501 180.283 88.3848 179.952V174.272H89.5848V182ZM93.1493 172.944C92.9999 173.093 92.8133 173.168 92.5893 173.168C92.3653 173.168 92.1733 173.093 92.0133 172.944C91.8533 172.784 91.7733 172.592 91.7733 172.368C91.7733 172.144 91.8533 171.952 92.0133 171.792C92.1733 171.632 92.3653 171.552 92.5893 171.552C92.8133 171.552 92.9999 171.632 93.1493 171.792C93.3093 171.952 93.3893 172.144 93.3893 172.368C93.3893 172.592 93.3093 172.784 93.1493 172.944ZM93.1813 182H91.9813V174.272H93.1813V182ZM102.375 182H101.175V180.848C100.514 181.744 99.6443 182.192 98.567 182.192C97.543 182.192 96.711 181.829 96.071 181.104C95.4417 180.368 95.127 179.381 95.127 178.144C95.127 176.917 95.447 175.936 96.087 175.2C96.727 174.453 97.5537 174.08 98.567 174.08C99.6337 174.08 100.503 174.533 101.175 175.44V174.272H102.375V182ZM98.871 181.12C99.3297 181.12 99.7723 181.003 100.199 180.768C100.636 180.523 100.962 180.229 101.175 179.888V176.4C100.962 176.048 100.636 175.755 100.199 175.52C99.7723 175.275 99.3297 175.152 98.871 175.152C98.103 175.152 97.495 175.435 97.047 176C96.599 176.555 96.375 177.269 96.375 178.144C96.375 179.019 96.599 179.733 97.047 180.288C97.495 180.843 98.103 181.12 98.871 181.12Z" fill="#1A1A1A"/>
</svg>
