<svg width="543" height="255" viewBox="0 0 543 255" fill="none" xmlns="http://www.w3.org/2000/svg">
<path d="M205.437 251.192C203.879 251.192 202.573 250.68 201.517 249.656C200.471 248.621 199.949 247.293 199.949 245.672C199.949 244.051 200.471 242.728 201.517 241.704C202.573 240.669 203.879 240.152 205.437 240.152C207.154 240.152 208.503 240.856 209.485 242.264L208.381 242.888C208.071 242.419 207.65 242.045 207.117 241.768C206.594 241.48 206.034 241.336 205.437 241.336C204.253 241.336 203.271 241.741 202.493 242.552C201.714 243.363 201.325 244.403 201.325 245.672C201.325 246.931 201.714 247.971 202.493 248.792C203.282 249.603 204.263 250.008 205.437 250.008C206.034 250.008 206.594 249.864 207.117 249.576C207.65 249.288 208.071 248.915 208.381 248.456L209.501 249.064C208.466 250.483 207.111 251.192 205.437 251.192ZM217.945 251H216.745V249.848C216.084 250.744 215.215 251.192 214.137 251.192C213.113 251.192 212.281 250.829 211.641 250.104C211.012 249.368 210.697 248.381 210.697 247.144C210.697 245.917 211.017 244.936 211.657 244.2C212.297 243.453 213.124 243.08 214.137 243.08C215.204 243.08 216.073 243.533 216.745 244.44V243.272H217.945V251ZM214.441 250.12C214.9 250.12 215.343 250.003 215.769 249.768C216.207 249.523 216.532 249.229 216.745 248.888V245.4C216.532 245.048 216.207 244.755 215.769 244.52C215.343 244.275 214.9 244.152 214.441 244.152C213.673 244.152 213.065 244.435 212.617 245C212.169 245.555 211.945 246.269 211.945 247.144C211.945 248.019 212.169 248.733 212.617 249.288C213.065 249.843 213.673 250.12 214.441 250.12ZM226.764 251H225.58V245.944C225.58 245.293 225.431 244.835 225.132 244.568C224.834 244.291 224.402 244.152 223.836 244.152C223.388 244.152 222.956 244.269 222.54 244.504C222.124 244.739 221.794 245.021 221.548 245.352V251H220.348V243.272H221.548V244.392C221.847 244.029 222.247 243.72 222.748 243.464C223.25 243.208 223.772 243.08 224.316 243.08C225.948 243.08 226.764 243.912 226.764 245.576V251ZM231.145 251.192C229.993 251.192 229.417 250.589 229.417 249.384V244.328H228.137V243.272H229.417V241.16H230.633V243.272H232.201V244.328H230.633V249.128C230.633 249.427 230.697 249.667 230.825 249.848C230.963 250.029 231.155 250.12 231.401 250.12C231.742 250.12 232.014 250.008 232.217 249.784L232.569 250.696C232.217 251.027 231.742 251.192 231.145 251.192ZM235.048 241.944C234.898 242.093 234.712 242.168 234.488 242.168C234.264 242.168 234.072 242.093 233.912 241.944C233.752 241.784 233.672 241.592 233.672 241.368C233.672 241.144 233.752 240.952 233.912 240.792C234.072 240.632 234.264 240.552 234.488 240.552C234.712 240.552 234.898 240.632 235.048 240.792C235.208 240.952 235.288 241.144 235.288 241.368C235.288 241.592 235.208 241.784 235.048 241.944ZM235.08 251H233.88V243.272H235.08V251ZM244.273 251H243.073V249.848C242.412 250.744 241.543 251.192 240.465 251.192C239.441 251.192 238.609 250.829 237.969 250.104C237.34 249.368 237.025 248.381 237.025 247.144C237.025 245.917 237.345 244.936 237.985 244.2C238.625 243.453 239.452 243.08 240.465 243.08C241.532 243.08 242.401 243.533 243.073 244.44V240.328H244.273V251ZM240.769 250.12C241.228 250.12 241.671 250.003 242.097 249.768C242.535 249.523 242.86 249.229 243.073 248.888V245.4C242.86 245.048 242.535 244.755 242.097 244.52C241.671 244.275 241.228 244.152 240.769 244.152C240.001 244.152 239.393 244.435 238.945 245C238.497 245.555 238.273 246.269 238.273 247.144C238.273 248.019 238.497 248.733 238.945 249.288C239.393 249.843 240.001 250.12 240.769 250.12ZM253.477 251H252.277V249.848C251.615 250.744 250.746 251.192 249.669 251.192C248.645 251.192 247.813 250.829 247.173 250.104C246.543 249.368 246.229 248.381 246.229 247.144C246.229 245.917 246.549 244.936 247.189 244.2C247.829 243.453 248.655 243.08 249.669 243.08C250.735 243.08 251.605 243.533 252.277 244.44V243.272H253.477V251ZM249.973 250.12C250.431 250.12 250.874 250.003 251.301 249.768C251.738 249.523 252.063 249.229 252.277 248.888V245.4C252.063 245.048 251.738 244.755 251.301 244.52C250.874 244.275 250.431 244.152 249.973 244.152C249.205 244.152 248.597 244.435 248.149 245C247.701 245.555 247.477 246.269 247.477 247.144C247.477 248.019 247.701 248.733 248.149 249.288C248.597 249.843 249.205 250.12 249.973 250.12ZM262.68 251H261.48V249.848C260.818 250.744 259.949 251.192 258.872 251.192C257.848 251.192 257.016 250.829 256.376 250.104C255.746 249.368 255.432 248.381 255.432 247.144C255.432 245.917 255.752 244.936 256.392 244.2C257.032 243.453 257.858 243.08 258.872 243.08C259.938 243.08 260.808 243.533 261.48 244.44V240.328H262.68V251ZM259.176 250.12C259.634 250.12 260.077 250.003 260.504 249.768C260.941 249.523 261.266 249.229 261.48 248.888V245.4C261.266 245.048 260.941 244.755 260.504 244.52C260.077 244.275 259.634 244.152 259.176 244.152C258.408 244.152 257.8 244.435 257.352 245C256.904 245.555 256.68 246.269 256.68 247.144C256.68 248.019 256.904 248.733 257.352 249.288C257.8 249.843 258.408 250.12 259.176 250.12ZM276.023 251H274.823V249.848C274.162 250.744 273.293 251.192 272.215 251.192C271.191 251.192 270.359 250.829 269.719 250.104C269.09 249.368 268.775 248.381 268.775 247.144C268.775 245.917 269.095 244.936 269.735 244.2C270.375 243.453 271.202 243.08 272.215 243.08C273.282 243.08 274.151 243.533 274.823 244.44V240.328H276.023V251ZM272.519 250.12C272.978 250.12 273.421 250.003 273.847 249.768C274.285 249.523 274.61 249.229 274.823 248.888V245.4C274.61 245.048 274.285 244.755 273.847 244.52C273.421 244.275 272.978 244.152 272.519 244.152C271.751 244.152 271.143 244.435 270.695 245C270.247 245.555 270.023 246.269 270.023 247.144C270.023 248.019 270.247 248.733 270.695 249.288C271.143 249.843 271.751 250.12 272.519 250.12ZM281.931 251.192C280.768 251.192 279.819 250.819 279.083 250.072C278.347 249.315 277.979 248.333 277.979 247.128C277.979 245.997 278.341 245.043 279.067 244.264C279.792 243.475 280.699 243.08 281.787 243.08C282.928 243.08 283.829 243.475 284.491 244.264C285.163 245.043 285.499 246.029 285.499 247.224V247.528H279.259C279.312 248.285 279.584 248.92 280.075 249.432C280.576 249.944 281.227 250.2 282.027 250.2C282.987 250.2 283.787 249.869 284.427 249.208L285.003 249.992C284.181 250.792 283.157 251.192 281.931 251.192ZM284.315 246.632C284.304 245.981 284.08 245.395 283.643 244.872C283.205 244.339 282.581 244.072 281.771 244.072C281.003 244.072 280.395 244.333 279.947 244.856C279.509 245.379 279.275 245.971 279.243 246.632H284.315ZM295.391 251.192C294.335 251.192 293.465 250.739 292.783 249.832V253.944H291.583V243.272H292.783V244.424C293.071 244.019 293.444 243.693 293.903 243.448C294.361 243.203 294.857 243.08 295.391 243.08C296.415 243.08 297.241 243.448 297.871 244.184C298.511 244.909 298.831 245.891 298.831 247.128C298.831 248.365 298.511 249.352 297.871 250.088C297.241 250.824 296.415 251.192 295.391 251.192ZM295.087 250.12C295.844 250.12 296.447 249.843 296.895 249.288C297.343 248.723 297.567 248.003 297.567 247.128C297.567 246.253 297.343 245.539 296.895 244.984C296.447 244.429 295.844 244.152 295.087 244.152C294.628 244.152 294.18 244.275 293.743 244.52C293.316 244.755 292.996 245.043 292.783 245.384V248.872C292.996 249.224 293.316 249.523 293.743 249.768C294.18 250.003 294.628 250.12 295.087 250.12ZM304.243 251.192C303.08 251.192 302.131 250.819 301.395 250.072C300.659 249.315 300.291 248.333 300.291 247.128C300.291 245.997 300.654 245.043 301.379 244.264C302.104 243.475 303.011 243.08 304.099 243.08C305.24 243.08 306.142 243.475 306.803 244.264C307.475 245.043 307.811 246.029 307.811 247.224V247.528H301.571C301.624 248.285 301.896 248.92 302.387 249.432C302.888 249.944 303.539 250.2 304.339 250.2C305.299 250.2 306.099 249.869 306.739 249.208L307.315 249.992C306.494 250.792 305.47 251.192 304.243 251.192ZM306.627 246.632C306.616 245.981 306.392 245.395 305.955 244.872C305.518 244.339 304.894 244.072 304.083 244.072C303.315 244.072 302.707 244.333 302.259 244.856C301.822 245.379 301.587 245.971 301.555 246.632H306.627ZM310.955 251H309.755V243.272H310.955V244.504C311.691 243.565 312.549 243.096 313.531 243.096V244.328C313.339 244.307 313.184 244.296 313.067 244.296C312.693 244.296 312.293 244.424 311.867 244.68C311.44 244.925 311.136 245.208 310.955 245.528V251ZM317.5 251.192C316.199 251.192 315.159 250.787 314.38 249.976L314.988 249.112C315.255 249.421 315.617 249.683 316.076 249.896C316.545 250.109 317.031 250.216 317.532 250.216C318.108 250.216 318.556 250.093 318.876 249.848C319.207 249.603 319.372 249.283 319.372 248.888C319.372 248.547 319.207 248.28 318.876 248.088C318.545 247.885 318.145 247.736 317.676 247.64C317.207 247.533 316.737 247.416 316.268 247.288C315.809 247.149 315.415 246.92 315.084 246.6C314.753 246.269 314.588 245.837 314.588 245.304C314.588 244.675 314.844 244.147 315.356 243.72C315.868 243.293 316.567 243.08 317.452 243.08C318.636 243.08 319.591 243.453 320.316 244.2L319.756 245.032C319.212 244.381 318.444 244.056 317.452 244.056C316.929 244.056 316.513 244.173 316.204 244.408C315.895 244.632 315.74 244.92 315.74 245.272C315.74 245.528 315.857 245.741 316.092 245.912C316.327 246.083 316.62 246.205 316.972 246.28C317.335 246.355 317.719 246.451 318.124 246.568C318.54 246.685 318.924 246.819 319.276 246.968C319.639 247.107 319.937 247.341 320.172 247.672C320.407 247.992 320.524 248.387 320.524 248.856C320.524 249.539 320.257 250.099 319.724 250.536C319.201 250.973 318.46 251.192 317.5 251.192ZM328.617 250.024C327.924 250.803 327.001 251.192 325.849 251.192C324.697 251.192 323.769 250.803 323.065 250.024C322.372 249.245 322.025 248.28 322.025 247.128C322.025 245.976 322.372 245.016 323.065 244.248C323.769 243.469 324.697 243.08 325.849 243.08C327.001 243.08 327.924 243.469 328.617 244.248C329.321 245.016 329.673 245.976 329.673 247.128C329.673 248.28 329.321 249.245 328.617 250.024ZM323.977 249.256C324.436 249.832 325.06 250.12 325.849 250.12C326.639 250.12 327.263 249.832 327.721 249.256C328.18 248.669 328.409 247.96 328.409 247.128C328.409 246.296 328.18 245.592 327.721 245.016C327.263 244.44 326.639 244.152 325.849 244.152C325.06 244.152 324.436 244.44 323.977 245.016C323.519 245.592 323.289 246.296 323.289 247.128C323.289 247.96 323.519 248.669 323.977 249.256ZM338.046 251H336.862V245.944C336.862 245.293 336.712 244.835 336.414 244.568C336.115 244.291 335.683 244.152 335.118 244.152C334.67 244.152 334.238 244.269 333.822 244.504C333.406 244.739 333.075 245.021 332.83 245.352V251H331.63V243.272H332.83V244.392C333.128 244.029 333.528 243.72 334.03 243.464C334.531 243.208 335.054 243.08 335.598 243.08C337.23 243.08 338.046 243.912 338.046 245.576V251ZM347.258 251H346.058V249.848C345.396 250.744 344.527 251.192 343.45 251.192C342.426 251.192 341.594 250.829 340.954 250.104C340.324 249.368 340.01 248.381 340.01 247.144C340.01 245.917 340.33 244.936 340.97 244.2C341.61 243.453 342.436 243.08 343.45 243.08C344.516 243.08 345.386 243.533 346.058 244.44V243.272H347.258V251ZM343.754 250.12C344.212 250.12 344.655 250.003 345.082 249.768C345.519 249.523 345.844 249.229 346.058 248.888V245.4C345.844 245.048 345.519 244.755 345.082 244.52C344.655 244.275 344.212 244.152 343.754 244.152C342.986 244.152 342.378 244.435 341.93 245C341.482 245.555 341.258 246.269 341.258 247.144C341.258 248.019 341.482 248.733 341.93 249.288C342.378 249.843 342.986 250.12 343.754 250.12ZM352.125 251.192C350.824 251.192 349.784 250.787 349.005 249.976L349.613 249.112C349.88 249.421 350.242 249.683 350.701 249.896C351.17 250.109 351.656 250.216 352.157 250.216C352.733 250.216 353.181 250.093 353.501 249.848C353.832 249.603 353.997 249.283 353.997 248.888C353.997 248.547 353.832 248.28 353.501 248.088C353.17 247.885 352.77 247.736 352.301 247.64C351.832 247.533 351.362 247.416 350.893 247.288C350.434 247.149 350.04 246.92 349.709 246.6C349.378 246.269 349.213 245.837 349.213 245.304C349.213 244.675 349.469 244.147 349.981 243.72C350.493 243.293 351.192 243.08 352.077 243.08C353.261 243.08 354.216 243.453 354.941 244.2L354.381 245.032C353.837 244.381 353.069 244.056 352.077 244.056C351.554 244.056 351.138 244.173 350.829 244.408C350.52 244.632 350.365 244.92 350.365 245.272C350.365 245.528 350.482 245.741 350.717 245.912C350.952 246.083 351.245 246.205 351.597 246.28C351.96 246.355 352.344 246.451 352.749 246.568C353.165 246.685 353.549 246.819 353.901 246.968C354.264 247.107 354.562 247.341 354.797 247.672C355.032 247.992 355.149 248.387 355.149 248.856C355.149 249.539 354.882 250.099 354.349 250.536C353.826 250.973 353.085 251.192 352.125 251.192ZM371.767 251H370.567V245.752C370.567 244.685 370.092 244.152 369.143 244.152C368.759 244.152 368.375 244.269 367.991 244.504C367.607 244.728 367.308 245.005 367.095 245.336V251H365.895V245.752C365.895 244.685 365.42 244.152 364.471 244.152C364.098 244.152 363.719 244.269 363.335 244.504C362.962 244.739 362.663 245.021 362.439 245.352V251H361.239V243.272H362.439V244.392C362.642 244.083 362.978 243.789 363.447 243.512C363.927 243.224 364.428 243.08 364.951 243.08C365.506 243.08 365.959 243.213 366.311 243.48C366.663 243.747 366.898 244.093 367.015 244.52C367.25 244.136 367.607 243.8 368.087 243.512C368.567 243.224 369.074 243.08 369.607 243.08C371.047 243.08 371.767 243.859 371.767 245.416V251ZM380.961 251H379.761V249.848C379.1 250.744 378.23 251.192 377.153 251.192C376.129 251.192 375.297 250.829 374.657 250.104C374.028 249.368 373.713 248.381 373.713 247.144C373.713 245.917 374.033 244.936 374.673 244.2C375.313 243.453 376.14 243.08 377.153 243.08C378.22 243.08 379.089 243.533 379.761 244.44V243.272H380.961V251ZM377.457 250.12C377.916 250.12 378.358 250.003 378.785 249.768C379.222 249.523 379.548 249.229 379.761 248.888V245.4C379.548 245.048 379.222 244.755 378.785 244.52C378.358 244.275 377.916 244.152 377.457 244.152C376.689 244.152 376.081 244.435 375.633 245C375.185 245.555 374.961 246.269 374.961 247.144C374.961 248.019 375.185 248.733 375.633 249.288C376.081 249.843 376.689 250.12 377.457 250.12ZM386.244 254.136C385.049 254.136 384.063 253.747 383.284 252.968L383.892 252.104C384.447 252.797 385.231 253.144 386.244 253.144C386.969 253.144 387.54 252.947 387.956 252.552C388.372 252.157 388.58 251.608 388.58 250.904V249.752C388.26 250.115 387.855 250.419 387.364 250.664C386.884 250.909 386.372 251.032 385.828 251.032C384.185 251.032 383.364 250.211 383.364 248.568V243.272H384.564V248.2C384.564 248.851 384.713 249.309 385.012 249.576C385.311 249.843 385.743 249.976 386.308 249.976C386.745 249.976 387.172 249.864 387.588 249.64C388.015 249.405 388.345 249.128 388.58 248.808V243.272H389.78V250.904C389.78 251.949 389.444 252.749 388.772 253.304C388.1 253.859 387.257 254.136 386.244 254.136ZM398.321 250.024C397.627 250.803 396.705 251.192 395.553 251.192C394.401 251.192 393.473 250.803 392.769 250.024C392.075 249.245 391.729 248.28 391.729 247.128C391.729 245.976 392.075 245.016 392.769 244.248C393.473 243.469 394.401 243.08 395.553 243.08C396.705 243.08 397.627 243.469 398.321 244.248C399.025 245.016 399.377 245.976 399.377 247.128C399.377 248.28 399.025 249.245 398.321 250.024ZM393.681 249.256C394.139 249.832 394.763 250.12 395.553 250.12C396.342 250.12 396.966 249.832 397.425 249.256C397.883 248.669 398.113 247.96 398.113 247.128C398.113 246.296 397.883 245.592 397.425 245.016C396.966 244.44 396.342 244.152 395.553 244.152C394.763 244.152 394.139 244.44 393.681 245.016C393.222 245.592 392.993 246.296 392.993 247.128C392.993 247.96 393.222 248.669 393.681 249.256ZM402.533 251H401.333V243.272H402.533V244.504C403.269 243.565 404.127 243.096 405.109 243.096V244.328C404.917 244.307 404.762 244.296 404.645 244.296C404.271 244.296 403.871 244.424 403.445 244.68C403.018 244.925 402.714 245.208 402.533 245.528V251ZM410.118 251.192C408.955 251.192 408.006 250.819 407.27 250.072C406.534 249.315 406.166 248.333 406.166 247.128C406.166 245.997 406.529 245.043 407.254 244.264C407.979 243.475 408.886 243.08 409.974 243.08C411.115 243.08 412.017 243.475 412.678 244.264C413.35 245.043 413.686 246.029 413.686 247.224V247.528H407.446C407.499 248.285 407.771 248.92 408.262 249.432C408.763 249.944 409.414 250.2 410.214 250.2C411.174 250.2 411.974 249.869 412.614 249.208L413.19 249.992C412.369 250.792 411.345 251.192 410.118 251.192ZM412.502 246.632C412.491 245.981 412.267 245.395 411.83 244.872C411.393 244.339 410.769 244.072 409.958 244.072C409.19 244.072 408.582 244.333 408.134 244.856C407.697 245.379 407.462 245.971 407.43 246.632H412.502ZM418.094 251.192C416.792 251.192 415.752 250.787 414.974 249.976L415.582 249.112C415.848 249.421 416.211 249.683 416.67 249.896C417.139 250.109 417.624 250.216 418.126 250.216C418.702 250.216 419.15 250.093 419.47 249.848C419.8 249.603 419.966 249.283 419.966 248.888C419.966 248.547 419.8 248.28 419.47 248.088C419.139 247.885 418.739 247.736 418.27 247.64C417.8 247.533 417.331 247.416 416.862 247.288C416.403 247.149 416.008 246.92 415.678 246.6C415.347 246.269 415.182 245.837 415.182 245.304C415.182 244.675 415.438 244.147 415.95 243.72C416.462 243.293 417.16 243.08 418.046 243.08C419.23 243.08 420.184 243.453 420.91 244.2L420.35 245.032C419.806 244.381 419.038 244.056 418.046 244.056C417.523 244.056 417.107 244.173 416.798 244.408C416.488 244.632 416.334 244.92 416.334 245.272C416.334 245.528 416.451 245.741 416.686 245.912C416.92 246.083 417.214 246.205 417.566 246.28C417.928 246.355 418.312 246.451 418.718 246.568C419.134 246.685 419.518 246.819 419.87 246.968C420.232 247.107 420.531 247.341 420.766 247.672C421 247.992 421.118 248.387 421.118 248.856C421.118 249.539 420.851 250.099 420.318 250.536C419.795 250.973 419.054 251.192 418.094 251.192Z" fill="#FAFAFA"/>
<rect x="77" y="87" width="279" height="30" fill="#FAAA8D"/>
<rect x="77" y="15" width="369" height="30" fill="#FAAA8D"/>
<rect x="77" y="123" width="251" height="30" fill="#FAAA8D"/>
<rect x="77" y="51" width="299" height="30" fill="#FAAA8D"/>
<rect x="77" y="159" width="189" height="30" fill="#FAAA8D"/>
<path d="M18.4245 180H13.5605V169.328H18.3125C19.2298 169.328 19.9552 169.579 20.4885 170.08C21.0325 170.581 21.3045 171.237 21.3045 172.048C21.3045 172.688 21.1232 173.232 20.7605 173.68C20.3978 174.117 19.9552 174.389 19.4325 174.496C19.9978 174.581 20.4832 174.88 20.8885 175.392C21.3045 175.904 21.5125 176.48 21.5125 177.12C21.5125 177.984 21.2352 178.683 20.6805 179.216C20.1365 179.739 19.3845 180 18.4245 180ZM18.0885 173.952C18.6752 173.952 19.1285 173.792 19.4485 173.472C19.7685 173.152 19.9285 172.741 19.9285 172.24C19.9285 171.739 19.7632 171.328 19.4325 171.008C19.1125 170.677 18.6645 170.512 18.0885 170.512H14.8885V173.952H18.0885ZM18.1685 178.816C18.7872 178.816 19.2672 178.651 19.6085 178.32C19.9605 177.989 20.1365 177.541 20.1365 176.976C20.1365 176.464 19.9605 176.032 19.6085 175.68C19.2672 175.317 18.7872 175.136 18.1685 175.136H14.8885V178.816H18.1685ZM29.719 179.024C29.0257 179.803 28.103 180.192 26.951 180.192C25.799 180.192 24.871 179.803 24.167 179.024C23.4737 178.245 23.127 177.28 23.127 176.128C23.127 174.976 23.4737 174.016 24.167 173.248C24.871 172.469 25.799 172.08 26.951 172.08C28.103 172.08 29.0257 172.469 29.719 173.248C30.423 174.016 30.775 174.976 30.775 176.128C30.775 177.28 30.423 178.245 29.719 179.024ZM25.079 178.256C25.5377 178.832 26.1617 179.12 26.951 179.12C27.7403 179.12 28.3643 178.832 28.823 178.256C29.2817 177.669 29.511 176.96 29.511 176.128C29.511 175.296 29.2817 174.592 28.823 174.016C28.3643 173.44 27.7403 173.152 26.951 173.152C26.1617 173.152 25.5377 173.44 25.079 174.016C24.6203 174.592 24.391 175.296 24.391 176.128C24.391 176.96 24.6203 177.669 25.079 178.256ZM35.6113 183.136C34.4166 183.136 33.4299 182.747 32.6513 181.968L33.2593 181.104C33.8139 181.797 34.5979 182.144 35.6113 182.144C36.3366 182.144 36.9073 181.947 37.3233 181.552C37.7393 181.157 37.9473 180.608 37.9473 179.904V178.752C37.6273 179.115 37.2219 179.419 36.7313 179.664C36.2513 179.909 35.7393 180.032 35.1953 180.032C33.5526 180.032 32.7313 179.211 32.7313 177.568V172.272H33.9313V177.2C33.9313 177.851 34.0806 178.309 34.3793 178.576C34.6779 178.843 35.1099 178.976 35.6753 178.976C36.1126 178.976 36.5393 178.864 36.9553 178.64C37.3819 178.405 37.7126 178.128 37.9473 177.808V172.272H39.1473V179.904C39.1473 180.949 38.8113 181.749 38.1393 182.304C37.4673 182.859 36.6246 183.136 35.6113 183.136ZM48.3438 180H47.1438V178.848C46.4824 179.744 45.6131 180.192 44.5358 180.192C43.5118 180.192 42.6798 179.829 42.0398 179.104C41.4104 178.368 41.0958 177.381 41.0958 176.144C41.0958 174.917 41.4158 173.936 42.0558 173.2C42.6958 172.453 43.5224 172.08 44.5358 172.08C45.6024 172.08 46.4718 172.533 47.1438 173.44V172.272H48.3438V180ZM44.8398 179.12C45.2984 179.12 45.7411 179.003 46.1678 178.768C46.6051 178.523 46.9304 178.229 47.1438 177.888V174.4C46.9304 174.048 46.6051 173.755 46.1678 173.52C45.7411 173.275 45.2984 173.152 44.8398 173.152C44.0718 173.152 43.4638 173.435 43.0158 174C42.5678 174.555 42.3438 175.269 42.3438 176.144C42.3438 177.019 42.5678 177.733 43.0158 178.288C43.4638 178.843 44.0718 179.12 44.8398 179.12ZM54.1549 180.192C53.0135 180.192 52.0855 179.808 51.3709 179.04C50.6562 178.261 50.2989 177.291 50.2989 176.128C50.2989 174.965 50.6562 174 51.3709 173.232C52.0855 172.464 53.0135 172.08 54.1549 172.08C55.3495 172.08 56.2935 172.528 56.9869 173.424L56.1869 174.144C55.7069 173.483 55.0509 173.152 54.2189 173.152C53.4189 173.152 52.7735 173.435 52.2829 174C51.7922 174.555 51.5469 175.264 51.5469 176.128C51.5469 177.003 51.7922 177.723 52.2829 178.288C52.7735 178.843 53.4189 179.12 54.2189 179.12C55.0295 179.12 55.6855 178.784 56.1869 178.112L56.9869 178.848C56.2935 179.744 55.3495 180.192 54.1549 180.192ZM64.7484 168.8L62.0444 171.104H61.1324L63.5004 168.8H64.7484ZM65.4844 180H64.2844V178.848C63.623 179.744 62.7537 180.192 61.6764 180.192C60.6524 180.192 59.8204 179.829 59.1804 179.104C58.551 178.368 58.2364 177.381 58.2364 176.144C58.2364 174.917 58.5564 173.936 59.1964 173.2C59.8364 172.453 60.663 172.08 61.6764 172.08C62.743 172.08 63.6124 172.533 64.2844 173.44V172.272H65.4844V180ZM61.9804 179.12C62.439 179.12 62.8817 179.003 63.3084 178.768C63.7457 178.523 64.071 178.229 64.2844 177.888V174.4C64.071 174.048 63.7457 173.755 63.3084 173.52C62.8817 173.275 62.439 173.152 61.9804 173.152C61.2124 173.152 60.6044 173.435 60.1564 174C59.7084 174.555 59.4844 175.269 59.4844 176.144C59.4844 177.019 59.7084 177.733 60.1564 178.288C60.6044 178.843 61.2124 179.12 61.9804 179.12Z" fill="#FAFAFA"/>
<path d="M25.4894 144H24.1614V134.512H20.7854V133.328H28.8814V134.512H25.4894V144ZM34.8987 143.024C34.2054 143.803 33.2827 144.192 32.1307 144.192C30.9787 144.192 30.0507 143.803 29.3467 143.024C28.6534 142.245 28.3067 141.28 28.3067 140.128C28.3067 138.976 28.6534 138.016 29.3467 137.248C30.0507 136.469 30.9787 136.08 32.1307 136.08C33.2827 136.08 34.2054 136.469 34.8987 137.248C35.6027 138.016 35.9547 138.976 35.9547 140.128C35.9547 141.28 35.6027 142.245 34.8987 143.024ZM30.2587 142.256C30.7174 142.832 31.3414 143.12 32.1307 143.12C32.92 143.12 33.544 142.832 34.0027 142.256C34.4614 141.669 34.6907 140.96 34.6907 140.128C34.6907 139.296 34.4614 138.592 34.0027 138.016C33.544 137.44 32.92 137.152 32.1307 137.152C31.3414 137.152 30.7174 137.44 30.2587 138.016C29.8 138.592 29.5707 139.296 29.5707 140.128C29.5707 140.96 29.8 141.669 30.2587 142.256ZM39.6229 144.192C39.0576 144.192 38.6309 144.037 38.3429 143.728C38.0549 143.419 37.9109 142.971 37.9109 142.384V133.328H39.1109V142.128C39.1109 142.427 39.1749 142.667 39.3029 142.848C39.4416 143.029 39.6389 143.12 39.8949 143.12C40.2469 143.12 40.5136 143.008 40.6949 142.784L41.0629 143.696C40.7003 144.027 40.2203 144.192 39.6229 144.192ZM43.3758 134.944C43.2265 135.093 43.0398 135.168 42.8158 135.168C42.5918 135.168 42.3998 135.093 42.2398 134.944C42.0798 134.784 41.9998 134.592 41.9998 134.368C41.9998 134.144 42.0798 133.952 42.2398 133.792C42.3998 133.632 42.5918 133.552 42.8158 133.552C43.0398 133.552 43.2265 133.632 43.3758 133.792C43.5358 133.952 43.6158 134.144 43.6158 134.368C43.6158 134.592 43.5358 134.784 43.3758 134.944ZM43.4078 144H42.2078V136.272H43.4078V144ZM56.3296 144H55.1296V138.752C55.1296 137.685 54.6549 137.152 53.7056 137.152C53.3216 137.152 52.9376 137.269 52.5536 137.504C52.1696 137.728 51.8709 138.005 51.6576 138.336V144H50.4576V138.752C50.4576 137.685 49.9829 137.152 49.0336 137.152C48.6602 137.152 48.2816 137.269 47.8976 137.504C47.5242 137.739 47.2256 138.021 47.0016 138.352V144H45.8016V136.272H47.0016V137.392C47.2042 137.083 47.5402 136.789 48.0096 136.512C48.4896 136.224 48.9909 136.08 49.5136 136.08C50.0682 136.08 50.5216 136.213 50.8736 136.48C51.2256 136.747 51.4602 137.093 51.5776 137.52C51.8122 137.136 52.1696 136.8 52.6496 136.512C53.1296 136.224 53.6362 136.08 54.1696 136.08C55.6096 136.08 56.3296 136.859 56.3296 138.416V144ZM65.5234 144H64.3234V142.848C63.6621 143.744 62.7928 144.192 61.7154 144.192C60.6914 144.192 59.8594 143.829 59.2194 143.104C58.5901 142.368 58.2754 141.381 58.2754 140.144C58.2754 138.917 58.5954 137.936 59.2354 137.2C59.8754 136.453 60.7021 136.08 61.7154 136.08C62.7821 136.08 63.6514 136.533 64.3234 137.44V136.272H65.5234V144ZM62.0194 143.12C62.4781 143.12 62.9208 143.003 63.3474 142.768C63.7848 142.523 64.1101 142.229 64.3234 141.888V138.4C64.1101 138.048 63.7848 137.755 63.3474 137.52C62.9208 137.275 62.4781 137.152 62.0194 137.152C61.2514 137.152 60.6434 137.435 60.1954 138C59.7474 138.555 59.5234 139.269 59.5234 140.144C59.5234 141.019 59.7474 141.733 60.1954 142.288C60.6434 142.843 61.2514 143.12 62.0194 143.12Z" fill="#FAFAFA"/>
<path d="M9.40606 108H7.83806L5.13406 103.76H2.99006V108H1.66206V97.328H5.95006C6.94206 97.328 7.7474 97.6213 8.36606 98.208C8.9954 98.7947 9.31006 99.5733 9.31006 100.544C9.31006 101.461 9.03806 102.192 8.49406 102.736C7.96073 103.28 7.30473 103.584 6.52606 103.648L9.40606 108ZM5.79006 102.592C6.4194 102.592 6.9314 102.4 7.32606 102.016C7.7314 101.632 7.93406 101.141 7.93406 100.544C7.93406 99.936 7.7314 99.4453 7.32606 99.072C6.9314 98.6987 6.4194 98.512 5.79006 98.512H2.99006V102.592H5.79006ZM12.5321 98.944C12.3827 99.0933 12.1961 99.168 11.9721 99.168C11.7481 99.168 11.5561 99.0933 11.3961 98.944C11.2361 98.784 11.1561 98.592 11.1561 98.368C11.1561 98.144 11.2361 97.952 11.3961 97.792C11.5561 97.632 11.7481 97.552 11.9721 97.552C12.1961 97.552 12.3827 97.632 12.5321 97.792C12.6921 97.952 12.7721 98.144 12.7721 98.368C12.7721 98.592 12.6921 98.784 12.5321 98.944ZM12.5641 108H11.3641V100.272H12.5641V108ZM17.4218 108.192C16.1205 108.192 15.0805 107.787 14.3018 106.976L14.9098 106.112C15.1765 106.421 15.5391 106.683 15.9978 106.896C16.4671 107.109 16.9525 107.216 17.4538 107.216C18.0298 107.216 18.4778 107.093 18.7978 106.848C19.1285 106.603 19.2938 106.283 19.2938 105.888C19.2938 105.547 19.1285 105.28 18.7978 105.088C18.4671 104.885 18.0671 104.736 17.5978 104.64C17.1285 104.533 16.6591 104.416 16.1898 104.288C15.7311 104.149 15.3365 103.92 15.0058 103.6C14.6751 103.269 14.5098 102.837 14.5098 102.304C14.5098 101.675 14.7658 101.147 15.2778 100.72C15.7898 100.293 16.4885 100.08 17.3738 100.08C18.5578 100.08 19.5125 100.453 20.2378 101.2L19.6778 102.032C19.1338 101.381 18.3658 101.056 17.3738 101.056C16.8511 101.056 16.4351 101.173 16.1258 101.408C15.8165 101.632 15.6618 101.92 15.6618 102.272C15.6618 102.528 15.7791 102.741 16.0138 102.912C16.2485 103.083 16.5418 103.205 16.8938 103.28C17.2565 103.355 17.6405 103.451 18.0458 103.568C18.4618 103.685 18.8458 103.819 19.1978 103.968C19.5605 104.107 19.8591 104.341 20.0938 104.672C20.3285 104.992 20.4458 105.387 20.4458 105.856C20.4458 106.539 20.1791 107.099 19.6458 107.536C19.1231 107.973 18.3818 108.192 17.4218 108.192ZM29.1953 108H27.9953V106.848C27.334 107.744 26.4646 108.192 25.3873 108.192C24.3633 108.192 23.5313 107.829 22.8913 107.104C22.262 106.368 21.9473 105.381 21.9473 104.144C21.9473 102.917 22.2673 101.936 22.9073 101.2C23.5473 100.453 24.374 100.08 25.3873 100.08C26.454 100.08 27.3233 100.533 27.9953 101.44V100.272H29.1953V108ZM25.6913 107.12C26.15 107.12 26.5926 107.003 27.0193 106.768C27.4566 106.523 27.782 106.229 27.9953 105.888V102.4C27.782 102.048 27.4566 101.755 27.0193 101.52C26.5926 101.275 26.15 101.152 25.6913 101.152C24.9233 101.152 24.3153 101.435 23.8673 102C23.4193 102.555 23.1953 103.269 23.1953 104.144C23.1953 105.019 23.4193 105.733 23.8673 106.288C24.3153 106.843 24.9233 107.12 25.6913 107.12ZM32.7984 108H31.5984V100.272H32.7984V101.504C33.5344 100.565 34.3931 100.096 35.3744 100.096V101.328C35.1824 101.307 35.0278 101.296 34.9104 101.296C34.5371 101.296 34.1371 101.424 33.7104 101.68C33.2838 101.925 32.9798 102.208 32.7984 102.528V108ZM43.6797 108H42.4797V106.848C41.8184 107.744 40.949 108.192 39.8717 108.192C38.8477 108.192 38.0157 107.829 37.3757 107.104C36.7464 106.368 36.4317 105.381 36.4317 104.144C36.4317 102.917 36.7517 101.936 37.3917 101.2C38.0317 100.453 38.8584 100.08 39.8717 100.08C40.9384 100.08 41.8077 100.533 42.4797 101.44V100.272H43.6797V108ZM40.1757 107.12C40.6344 107.12 41.077 107.003 41.5037 106.768C41.941 106.523 42.2664 106.229 42.4797 105.888V102.4C42.2664 102.048 41.941 101.755 41.5037 101.52C41.077 101.275 40.6344 101.152 40.1757 101.152C39.4077 101.152 38.7997 101.435 38.3517 102C37.9037 102.555 37.6797 103.269 37.6797 104.144C37.6797 105.019 37.9037 105.733 38.3517 106.288C38.7997 106.843 39.4077 107.12 40.1757 107.12ZM47.7948 108.192C47.2295 108.192 46.8028 108.037 46.5148 107.728C46.2268 107.419 46.0828 106.971 46.0828 106.384V97.328H47.2828V106.128C47.2828 106.427 47.3468 106.667 47.4748 106.848C47.6135 107.029 47.8108 107.12 48.0668 107.12C48.4188 107.12 48.6855 107.008 48.8668 106.784L49.2348 107.696C48.8721 108.027 48.3921 108.192 47.7948 108.192ZM57.1797 108H55.9797V106.848C55.3184 107.744 54.449 108.192 53.3717 108.192C52.3477 108.192 51.5157 107.829 50.8757 107.104C50.2464 106.368 49.9317 105.381 49.9317 104.144C49.9317 102.917 50.2517 101.936 50.8917 101.2C51.5317 100.453 52.3584 100.08 53.3717 100.08C54.4384 100.08 55.3077 100.533 55.9797 101.44V97.328H57.1797V108ZM53.6757 107.12C54.1344 107.12 54.577 107.003 55.0037 106.768C55.441 106.523 55.7664 106.229 55.9797 105.888V102.4C55.7664 102.048 55.441 101.755 55.0037 101.52C54.577 101.275 54.1344 101.152 53.6757 101.152C52.9077 101.152 52.2997 101.435 51.8517 102C51.4037 102.555 51.1797 103.269 51.1797 104.144C51.1797 105.019 51.4037 105.733 51.8517 106.288C52.2997 106.843 52.9077 107.12 53.6757 107.12ZM66.3828 108H65.1828V106.848C64.5215 107.744 63.6521 108.192 62.5748 108.192C61.5508 108.192 60.7188 107.829 60.0788 107.104C59.4495 106.368 59.1348 105.381 59.1348 104.144C59.1348 102.917 59.4548 101.936 60.0948 101.2C60.7348 100.453 61.5615 100.08 62.5748 100.08C63.6415 100.08 64.5108 100.533 65.1828 101.44V100.272H66.3828V108ZM62.8788 107.12C63.3375 107.12 63.7801 107.003 64.2068 106.768C64.6441 106.523 64.9695 106.229 65.1828 105.888V102.4C64.9695 102.048 64.6441 101.755 64.2068 101.52C63.7801 101.275 63.3375 101.152 62.8788 101.152C62.1108 101.152 61.5028 101.435 61.0548 102C60.6068 102.555 60.3828 103.269 60.3828 104.144C60.3828 105.019 60.6068 105.733 61.0548 106.288C61.5028 106.843 62.1108 107.12 62.8788 107.12Z" fill="#FAFAFA"/>
<path d="M22.7259 72.192C21.1685 72.192 19.8619 71.68 18.8059 70.656C17.7605 69.6213 17.2379 68.2933 17.2379 66.672C17.2379 65.0507 17.7605 63.728 18.8059 62.704C19.8619 61.6693 21.1685 61.152 22.7259 61.152C24.4432 61.152 25.7925 61.856 26.7739 63.264L25.6699 63.888C25.3605 63.4187 24.9392 63.0453 24.4059 62.768C23.8832 62.48 23.3232 62.336 22.7259 62.336C21.5419 62.336 20.5605 62.7413 19.7819 63.552C19.0032 64.3627 18.6139 65.4027 18.6139 66.672C18.6139 67.9307 19.0032 68.9707 19.7819 69.792C20.5712 70.6027 21.5525 71.008 22.7259 71.008C23.3232 71.008 23.8832 70.864 24.4059 70.576C24.9392 70.288 25.3605 69.9147 25.6699 69.456L26.7899 70.064C25.7552 71.4827 24.4005 72.192 22.7259 72.192ZM35.2344 72H34.0344V70.848C33.373 71.744 32.5037 72.192 31.4264 72.192C30.4024 72.192 29.5704 71.8293 28.9304 71.104C28.301 70.368 27.9864 69.3813 27.9864 68.144C27.9864 66.9173 28.3064 65.936 28.9464 65.2C29.5864 64.4533 30.413 64.08 31.4264 64.08C32.493 64.08 33.3624 64.5333 34.0344 65.44V64.272H35.2344V72ZM31.7304 71.12C32.189 71.12 32.6317 71.0027 33.0584 70.768C33.4957 70.5227 33.821 70.2293 34.0344 69.888V66.4C33.821 66.048 33.4957 65.7547 33.0584 65.52C32.6317 65.2747 32.189 65.152 31.7304 65.152C30.9624 65.152 30.3544 65.4347 29.9064 66C29.4584 66.5547 29.2344 67.2693 29.2344 68.144C29.2344 69.0187 29.4584 69.7333 29.9064 70.288C30.3544 70.8427 30.9624 71.12 31.7304 71.12ZM39.3495 72.192C38.7842 72.192 38.3575 72.0373 38.0695 71.728C37.7815 71.4187 37.6375 70.9707 37.6375 70.384V61.328H38.8375V70.128C38.8375 70.4267 38.9015 70.6667 39.0295 70.848C39.1682 71.0293 39.3655 71.12 39.6215 71.12C39.9735 71.12 40.2402 71.008 40.4215 70.784L40.7895 71.696C40.4268 72.0267 39.9468 72.192 39.3495 72.192ZM48.7344 72H47.5344V70.848C46.873 71.744 46.0037 72.192 44.9264 72.192C43.9024 72.192 43.0704 71.8293 42.4304 71.104C41.801 70.368 41.4864 69.3813 41.4864 68.144C41.4864 66.9173 41.8064 65.936 42.4464 65.2C43.0864 64.4533 43.913 64.08 44.9264 64.08C45.993 64.08 46.8624 64.5333 47.5344 65.44V61.328H48.7344V72ZM45.2304 71.12C45.689 71.12 46.1317 71.0027 46.5584 70.768C46.9957 70.5227 47.321 70.2293 47.5344 69.888V66.4C47.321 66.048 46.9957 65.7547 46.5584 65.52C46.1317 65.2747 45.689 65.152 45.2304 65.152C44.4624 65.152 43.8544 65.4347 43.4064 66C42.9584 66.5547 42.7344 67.2693 42.7344 68.144C42.7344 69.0187 42.9584 69.7333 43.4064 70.288C43.8544 70.8427 44.4624 71.12 45.2304 71.12ZM57.9375 72H56.7375V70.848C56.0762 71.744 55.2068 72.192 54.1295 72.192C53.1055 72.192 52.2735 71.8293 51.6335 71.104C51.0042 70.368 50.6895 69.3813 50.6895 68.144C50.6895 66.9173 51.0095 65.936 51.6495 65.2C52.2895 64.4533 53.1162 64.08 54.1295 64.08C55.1962 64.08 56.0655 64.5333 56.7375 65.44V64.272H57.9375V72ZM54.4335 71.12C54.8922 71.12 55.3348 71.0027 55.7615 70.768C56.1988 70.5227 56.5242 70.2293 56.7375 69.888V66.4C56.5242 66.048 56.1988 65.7547 55.7615 65.52C55.3348 65.2747 54.8922 65.152 54.4335 65.152C53.6655 65.152 53.0575 65.4347 52.6095 66C52.1615 66.5547 51.9375 67.2693 51.9375 68.144C51.9375 69.0187 52.1615 69.7333 52.6095 70.288C53.0575 70.8427 53.6655 71.12 54.4335 71.12ZM62.8046 72.192C61.5033 72.192 60.4633 71.7867 59.6846 70.976L60.2926 70.112C60.5593 70.4213 60.922 70.6827 61.3806 70.896C61.85 71.1093 62.3353 71.216 62.8366 71.216C63.4126 71.216 63.8606 71.0933 64.1806 70.848C64.5113 70.6027 64.6766 70.2827 64.6766 69.888C64.6766 69.5467 64.5113 69.28 64.1806 69.088C63.85 68.8853 63.45 68.736 62.9806 68.64C62.5113 68.5333 62.042 68.416 61.5726 68.288C61.114 68.1493 60.7193 67.92 60.3886 67.6C60.058 67.2693 59.8926 66.8373 59.8926 66.304C59.8926 65.6747 60.1486 65.1467 60.6606 64.72C61.1726 64.2933 61.8713 64.08 62.7566 64.08C63.9406 64.08 64.8953 64.4533 65.6206 65.2L65.0606 66.032C64.5166 65.3813 63.7486 65.056 62.7566 65.056C62.234 65.056 61.818 65.1733 61.5086 65.408C61.1993 65.632 61.0446 65.92 61.0446 66.272C61.0446 66.528 61.162 66.7413 61.3966 66.912C61.6313 67.0827 61.9246 67.2053 62.2766 67.28C62.6393 67.3547 63.0233 67.4507 63.4286 67.568C63.8446 67.6853 64.2286 67.8187 64.5806 67.968C64.9433 68.1067 65.242 68.3413 65.4766 68.672C65.7113 68.992 65.8286 69.3867 65.8286 69.856C65.8286 70.5387 65.562 71.0987 65.0286 71.536C64.506 71.9733 63.7646 72.192 62.8046 72.192Z" fill="#FAFAFA"/>
<path d="M17.4011 36.192C15.8437 36.192 14.5691 35.6693 13.5771 34.624C12.5957 33.5787 12.1051 32.2613 12.1051 30.672C12.1051 29.0827 12.5957 27.7653 13.5771 26.72C14.5691 25.6747 15.8437 25.152 17.4011 25.152C18.9584 25.152 20.2331 25.6747 21.2251 26.72C22.2171 27.7653 22.7131 29.0827 22.7131 30.672C22.7131 32.2613 22.2224 33.5787 21.2411 34.624L22.2491 35.696L21.3371 36.496L20.2971 35.392C19.4651 35.9253 18.4997 36.192 17.4011 36.192ZM17.4011 35.008C18.1584 35.008 18.8357 34.8267 19.4331 34.464L17.9131 32.816L18.8411 32.032L20.3451 33.664C21.0064 32.8533 21.3371 31.856 21.3371 30.672C21.3371 29.4133 20.9744 28.3787 20.2491 27.568C19.5237 26.7467 18.5744 26.336 17.4011 26.336C16.2171 26.336 15.2677 26.7413 14.5531 27.552C13.8384 28.3627 13.4811 29.4027 13.4811 30.672C13.4811 31.9307 13.8384 32.9707 14.5531 33.792C15.2677 34.6027 16.2171 35.008 17.4011 35.008ZM31.1394 36H29.9394V34.912C29.6194 35.2747 29.2141 35.5787 28.7234 35.824C28.2434 36.0693 27.7314 36.192 27.1874 36.192C25.5448 36.192 24.7234 35.3707 24.7234 33.728V28.272H25.9234V33.36C25.9234 34 26.0728 34.4533 26.3714 34.72C26.6701 34.9867 27.1021 35.12 27.6674 35.12C28.1154 35.12 28.5474 35.008 28.9634 34.784C29.3794 34.56 29.7048 34.2827 29.9394 33.952V28.272H31.1394V36ZM34.7039 26.944C34.5546 27.0933 34.3679 27.168 34.1439 27.168C33.9199 27.168 33.7279 27.0933 33.5679 26.944C33.4079 26.784 33.3279 26.592 33.3279 26.368C33.3279 26.144 33.4079 25.952 33.5679 25.792C33.7279 25.632 33.9199 25.552 34.1439 25.552C34.3679 25.552 34.5546 25.632 34.7039 25.792C34.8639 25.952 34.9439 26.144 34.9439 26.368C34.9439 26.592 34.8639 26.784 34.7039 26.944ZM34.7359 36H33.5359V28.272H34.7359V36ZM43.5457 36H42.3617V30.944C42.3617 30.2933 42.2124 29.8347 41.9137 29.568C41.615 29.2907 41.183 29.152 40.6177 29.152C40.1697 29.152 39.7377 29.2693 39.3217 29.504C38.9057 29.7387 38.575 30.0213 38.3297 30.352V36H37.1297V28.272H38.3297V29.392C38.6284 29.0293 39.0284 28.72 39.5297 28.464C40.031 28.208 40.5537 28.08 41.0977 28.08C42.7297 28.08 43.5457 28.912 43.5457 30.576V36ZM52.7578 36H51.5578V34.848C50.8965 35.744 50.0271 36.192 48.9498 36.192C47.9258 36.192 47.0938 35.8293 46.4538 35.104C45.8245 34.368 45.5098 33.3813 45.5098 32.144C45.5098 30.9173 45.8298 29.936 46.4698 29.2C47.1098 28.4533 47.9365 28.08 48.9498 28.08C50.0165 28.08 50.8858 28.5333 51.5578 29.44V25.328H52.7578V36ZM49.2538 35.12C49.7125 35.12 50.1551 35.0027 50.5818 34.768C51.0191 34.5227 51.3445 34.2293 51.5578 33.888V30.4C51.3445 30.048 51.0191 29.7547 50.5818 29.52C50.1551 29.2747 49.7125 29.152 49.2538 29.152C48.4858 29.152 47.8778 29.4347 47.4298 30C46.9818 30.5547 46.7578 31.2693 46.7578 32.144C46.7578 33.0187 46.9818 33.7333 47.4298 34.288C47.8778 34.8427 48.4858 35.12 49.2538 35.12ZM58.3289 24.8L55.6249 27.104H54.7129L57.0809 24.8H58.3289ZM56.3609 36H55.1609V28.272H56.3609V36ZM64.8987 35.024C64.2054 35.8027 63.2827 36.192 62.1307 36.192C60.9787 36.192 60.0507 35.8027 59.3467 35.024C58.6534 34.2453 58.3067 33.28 58.3067 32.128C58.3067 30.976 58.6534 30.016 59.3467 29.248C60.0507 28.4693 60.9787 28.08 62.1307 28.08C63.2827 28.08 64.2054 28.4693 64.8987 29.248C65.6027 30.016 65.9547 30.976 65.9547 32.128C65.9547 33.28 65.6027 34.2453 64.8987 35.024ZM60.2587 34.256C60.7174 34.832 61.3414 35.12 62.1307 35.12C62.92 35.12 63.544 34.832 64.0027 34.256C64.4614 33.6693 64.6907 32.96 64.6907 32.128C64.6907 31.296 64.4614 30.592 64.0027 30.016C63.544 29.44 62.92 29.152 62.1307 29.152C61.3414 29.152 60.7174 29.44 60.2587 30.016C59.8 30.592 59.5707 31.296 59.5707 32.128C59.5707 32.96 59.8 33.6693 60.2587 34.256Z" fill="#FAFAFA"/>
<path opacity="0.8" d="M499.192 225H491.864V223.928C494.051 222.221 495.587 220.904 496.472 219.976C497.357 219.048 497.8 218.157 497.8 217.304C497.8 216.664 497.576 216.179 497.128 215.848C496.691 215.517 496.168 215.352 495.56 215.352C494.333 215.352 493.368 215.8 492.664 216.696L491.848 215.848C492.253 215.315 492.781 214.904 493.432 214.616C494.093 214.317 494.803 214.168 495.56 214.168C496.531 214.168 497.368 214.44 498.072 214.984C498.787 215.528 499.144 216.301 499.144 217.304C499.144 218.296 498.717 219.288 497.864 220.28C497.011 221.261 495.709 222.44 493.96 223.816H499.192V225ZM505.302 225.192C504.598 225.192 503.974 225.032 503.43 224.712C502.897 224.381 502.47 223.944 502.15 223.4C501.841 222.856 501.606 222.269 501.446 221.64C501.297 221.011 501.222 220.355 501.222 219.672C501.222 218.989 501.297 218.333 501.446 217.704C501.606 217.075 501.841 216.493 502.15 215.96C502.47 215.416 502.897 214.984 503.43 214.664C503.974 214.333 504.598 214.168 505.302 214.168C505.996 214.168 506.614 214.333 507.158 214.664C507.702 214.984 508.129 215.416 508.438 215.96C508.758 216.493 508.993 217.075 509.142 217.704C509.302 218.333 509.382 218.989 509.382 219.672C509.382 220.355 509.302 221.011 509.142 221.64C508.993 222.269 508.758 222.856 508.438 223.4C508.129 223.944 507.702 224.381 507.158 224.712C506.614 225.032 505.996 225.192 505.302 225.192ZM503.702 223.352C504.129 223.789 504.662 224.008 505.302 224.008C505.942 224.008 506.476 223.789 506.902 223.352C507.329 222.904 507.622 222.371 507.782 221.752C507.942 221.133 508.022 220.44 508.022 219.672C508.022 218.904 507.942 218.211 507.782 217.592C507.622 216.973 507.329 216.445 506.902 216.008C506.476 215.571 505.942 215.352 505.302 215.352C504.662 215.352 504.129 215.571 503.702 216.008C503.276 216.445 502.982 216.973 502.822 217.592C502.662 218.211 502.582 218.904 502.582 219.672C502.582 220.44 502.662 221.133 502.822 221.752C502.982 222.371 503.276 222.904 503.702 223.352ZM515.099 225.192C514.395 225.192 513.771 225.032 513.227 224.712C512.694 224.381 512.267 223.944 511.947 223.4C511.638 222.856 511.403 222.269 511.243 221.64C511.094 221.011 511.019 220.355 511.019 219.672C511.019 218.989 511.094 218.333 511.243 217.704C511.403 217.075 511.638 216.493 511.947 215.96C512.267 215.416 512.694 214.984 513.227 214.664C513.771 214.333 514.395 214.168 515.099 214.168C515.792 214.168 516.411 214.333 516.955 214.664C517.499 214.984 517.926 215.416 518.235 215.96C518.555 216.493 518.79 217.075 518.939 217.704C519.099 218.333 519.179 218.989 519.179 219.672C519.179 220.355 519.099 221.011 518.939 221.64C518.79 222.269 518.555 222.856 518.235 223.4C517.926 223.944 517.499 224.381 516.955 224.712C516.411 225.032 515.792 225.192 515.099 225.192ZM513.499 223.352C513.926 223.789 514.459 224.008 515.099 224.008C515.739 224.008 516.272 223.789 516.699 223.352C517.126 222.904 517.419 222.371 517.579 221.752C517.739 221.133 517.819 220.44 517.819 219.672C517.819 218.904 517.739 218.211 517.579 217.592C517.419 216.973 517.126 216.445 516.699 216.008C516.272 215.571 515.739 215.352 515.099 215.352C514.459 215.352 513.926 215.571 513.499 216.008C513.072 216.445 512.779 216.973 512.619 217.592C512.459 218.211 512.379 218.904 512.379 219.672C512.379 220.44 512.459 221.133 512.619 221.752C512.779 222.371 513.072 222.904 513.499 223.352ZM524.896 225.192C524.192 225.192 523.568 225.032 523.024 224.712C522.491 224.381 522.064 223.944 521.744 223.4C521.435 222.856 521.2 222.269 521.04 221.64C520.891 221.011 520.816 220.355 520.816 219.672C520.816 218.989 520.891 218.333 521.04 217.704C521.2 217.075 521.435 216.493 521.744 215.96C522.064 215.416 522.491 214.984 523.024 214.664C523.568 214.333 524.192 214.168 524.896 214.168C525.589 214.168 526.208 214.333 526.752 214.664C527.296 214.984 527.723 215.416 528.032 215.96C528.352 216.493 528.587 217.075 528.736 217.704C528.896 218.333 528.976 218.989 528.976 219.672C528.976 220.355 528.896 221.011 528.736 221.64C528.587 222.269 528.352 222.856 528.032 223.4C527.723 223.944 527.296 224.381 526.752 224.712C526.208 225.032 525.589 225.192 524.896 225.192ZM523.296 223.352C523.723 223.789 524.256 224.008 524.896 224.008C525.536 224.008 526.069 223.789 526.496 223.352C526.923 222.904 527.216 222.371 527.376 221.752C527.536 221.133 527.616 220.44 527.616 219.672C527.616 218.904 527.536 218.211 527.376 217.592C527.216 216.973 526.923 216.445 526.496 216.008C526.069 215.571 525.536 215.352 524.896 215.352C524.256 215.352 523.723 215.571 523.296 216.008C522.869 216.445 522.576 216.973 522.416 217.592C522.256 218.211 522.176 218.904 522.176 219.672C522.176 220.44 522.256 221.133 522.416 221.752C522.576 222.371 522.869 222.904 523.296 223.352ZM534.693 225.192C533.989 225.192 533.365 225.032 532.821 224.712C532.288 224.381 531.861 223.944 531.541 223.4C531.232 222.856 530.997 222.269 530.837 221.64C530.688 221.011 530.613 220.355 530.613 219.672C530.613 218.989 530.688 218.333 530.837 217.704C530.997 217.075 531.232 216.493 531.541 215.96C531.861 215.416 532.288 214.984 532.821 214.664C533.365 214.333 533.989 214.168 534.693 214.168C535.386 214.168 536.005 214.333 536.549 214.664C537.093 214.984 537.52 215.416 537.829 215.96C538.149 216.493 538.384 217.075 538.533 217.704C538.693 218.333 538.773 218.989 538.773 219.672C538.773 220.355 538.693 221.011 538.533 221.64C538.384 222.269 538.149 222.856 537.829 223.4C537.52 223.944 537.093 224.381 536.549 224.712C536.005 225.032 535.386 225.192 534.693 225.192ZM533.093 223.352C533.52 223.789 534.053 224.008 534.693 224.008C535.333 224.008 535.866 223.789 536.293 223.352C536.72 222.904 537.013 222.371 537.173 221.752C537.333 221.133 537.413 220.44 537.413 219.672C537.413 218.904 537.333 218.211 537.173 217.592C537.013 216.973 536.72 216.445 536.293 216.008C535.866 215.571 535.333 215.352 534.693 215.352C534.053 215.352 533.52 215.571 533.093 216.008C532.666 216.445 532.373 216.973 532.213 217.592C532.053 218.211 531.973 218.904 531.973 219.672C531.973 220.44 532.053 221.133 532.213 221.752C532.373 222.371 532.666 222.904 533.093 223.352Z" fill="#FAFAFA"/>
<path opacity="0.8" d="M380.176 225H378.848V216.072L377.136 217.896L376.336 217.08L379.008 214.328H380.176V225ZM386.238 225.192C384.595 225.192 383.342 224.621 382.478 223.48L383.294 222.584C384.03 223.533 385.011 224.008 386.238 224.008C386.963 224.008 387.555 223.789 388.014 223.352C388.473 222.915 388.702 222.371 388.702 221.72C388.702 221.027 388.473 220.472 388.014 220.056C387.566 219.629 386.979 219.416 386.254 219.416C385.305 219.416 384.483 219.747 383.79 220.408L382.814 220.072V214.328H389.342V215.512H384.142V219.224C384.803 218.584 385.635 218.264 386.638 218.264C387.587 218.264 388.393 218.568 389.054 219.176C389.715 219.784 390.046 220.616 390.046 221.672C390.046 222.728 389.683 223.581 388.958 224.232C388.243 224.872 387.337 225.192 386.238 225.192ZM395.755 225.192C395.051 225.192 394.427 225.032 393.883 224.712C393.35 224.381 392.923 223.944 392.603 223.4C392.294 222.856 392.059 222.269 391.899 221.64C391.75 221.011 391.675 220.355 391.675 219.672C391.675 218.989 391.75 218.333 391.899 217.704C392.059 217.075 392.294 216.493 392.603 215.96C392.923 215.416 393.35 214.984 393.883 214.664C394.427 214.333 395.051 214.168 395.755 214.168C396.449 214.168 397.067 214.333 397.611 214.664C398.155 214.984 398.582 215.416 398.891 215.96C399.211 216.493 399.446 217.075 399.595 217.704C399.755 218.333 399.835 218.989 399.835 219.672C399.835 220.355 399.755 221.011 399.595 221.64C399.446 222.269 399.211 222.856 398.891 223.4C398.582 223.944 398.155 224.381 397.611 224.712C397.067 225.032 396.449 225.192 395.755 225.192ZM394.155 223.352C394.582 223.789 395.115 224.008 395.755 224.008C396.395 224.008 396.929 223.789 397.355 223.352C397.782 222.904 398.075 222.371 398.235 221.752C398.395 221.133 398.475 220.44 398.475 219.672C398.475 218.904 398.395 218.211 398.235 217.592C398.075 216.973 397.782 216.445 397.355 216.008C396.929 215.571 396.395 215.352 395.755 215.352C395.115 215.352 394.582 215.571 394.155 216.008C393.729 216.445 393.435 216.973 393.275 217.592C393.115 218.211 393.035 218.904 393.035 219.672C393.035 220.44 393.115 221.133 393.275 221.752C393.435 222.371 393.729 222.904 394.155 223.352ZM405.552 225.192C404.848 225.192 404.224 225.032 403.68 224.712C403.147 224.381 402.72 223.944 402.4 223.4C402.091 222.856 401.856 222.269 401.696 221.64C401.547 221.011 401.472 220.355 401.472 219.672C401.472 218.989 401.547 218.333 401.696 217.704C401.856 217.075 402.091 216.493 402.4 215.96C402.72 215.416 403.147 214.984 403.68 214.664C404.224 214.333 404.848 214.168 405.552 214.168C406.246 214.168 406.864 214.333 407.408 214.664C407.952 214.984 408.379 215.416 408.688 215.96C409.008 216.493 409.243 217.075 409.392 217.704C409.552 218.333 409.632 218.989 409.632 219.672C409.632 220.355 409.552 221.011 409.392 221.64C409.243 222.269 409.008 222.856 408.688 223.4C408.379 223.944 407.952 224.381 407.408 224.712C406.864 225.032 406.246 225.192 405.552 225.192ZM403.952 223.352C404.379 223.789 404.912 224.008 405.552 224.008C406.192 224.008 406.726 223.789 407.152 223.352C407.579 222.904 407.872 222.371 408.032 221.752C408.192 221.133 408.272 220.44 408.272 219.672C408.272 218.904 408.192 218.211 408.032 217.592C407.872 216.973 407.579 216.445 407.152 216.008C406.726 215.571 406.192 215.352 405.552 215.352C404.912 215.352 404.379 215.571 403.952 216.008C403.526 216.445 403.232 216.973 403.072 217.592C402.912 218.211 402.832 218.904 402.832 219.672C402.832 220.44 402.912 221.133 403.072 221.752C403.232 222.371 403.526 222.904 403.952 223.352ZM415.349 225.192C414.645 225.192 414.021 225.032 413.477 224.712C412.944 224.381 412.517 223.944 412.197 223.4C411.888 222.856 411.653 222.269 411.493 221.64C411.344 221.011 411.269 220.355 411.269 219.672C411.269 218.989 411.344 218.333 411.493 217.704C411.653 217.075 411.888 216.493 412.197 215.96C412.517 215.416 412.944 214.984 413.477 214.664C414.021 214.333 414.645 214.168 415.349 214.168C416.042 214.168 416.661 214.333 417.205 214.664C417.749 214.984 418.176 215.416 418.485 215.96C418.805 216.493 419.04 217.075 419.189 217.704C419.349 218.333 419.429 218.989 419.429 219.672C419.429 220.355 419.349 221.011 419.189 221.64C419.04 222.269 418.805 222.856 418.485 223.4C418.176 223.944 417.749 224.381 417.205 224.712C416.661 225.032 416.042 225.192 415.349 225.192ZM413.749 223.352C414.176 223.789 414.709 224.008 415.349 224.008C415.989 224.008 416.522 223.789 416.949 223.352C417.376 222.904 417.669 222.371 417.829 221.752C417.989 221.133 418.069 220.44 418.069 219.672C418.069 218.904 417.989 218.211 417.829 217.592C417.669 216.973 417.376 216.445 416.949 216.008C416.522 215.571 415.989 215.352 415.349 215.352C414.709 215.352 414.176 215.571 413.749 216.008C413.322 216.445 413.029 216.973 412.869 217.592C412.709 218.211 412.629 218.904 412.629 219.672C412.629 220.44 412.709 221.133 412.869 221.752C413.029 222.371 413.322 222.904 413.749 223.352Z" fill="#FAFAFA"/>
<path opacity="0.8" d="M265.176 225H263.848V216.072L262.136 217.896L261.336 217.08L264.008 214.328H265.176V225ZM271.318 225.192C270.614 225.192 269.99 225.032 269.446 224.712C268.913 224.381 268.486 223.944 268.166 223.4C267.857 222.856 267.622 222.269 267.462 221.64C267.313 221.011 267.238 220.355 267.238 219.672C267.238 218.989 267.313 218.333 267.462 217.704C267.622 217.075 267.857 216.493 268.166 215.96C268.486 215.416 268.913 214.984 269.446 214.664C269.99 214.333 270.614 214.168 271.318 214.168C272.011 214.168 272.63 214.333 273.174 214.664C273.718 214.984 274.145 215.416 274.454 215.96C274.774 216.493 275.009 217.075 275.158 217.704C275.318 218.333 275.398 218.989 275.398 219.672C275.398 220.355 275.318 221.011 275.158 221.64C275.009 222.269 274.774 222.856 274.454 223.4C274.145 223.944 273.718 224.381 273.174 224.712C272.63 225.032 272.011 225.192 271.318 225.192ZM269.718 223.352C270.145 223.789 270.678 224.008 271.318 224.008C271.958 224.008 272.491 223.789 272.918 223.352C273.345 222.904 273.638 222.371 273.798 221.752C273.958 221.133 274.038 220.44 274.038 219.672C274.038 218.904 273.958 218.211 273.798 217.592C273.638 216.973 273.345 216.445 272.918 216.008C272.491 215.571 271.958 215.352 271.318 215.352C270.678 215.352 270.145 215.571 269.718 216.008C269.291 216.445 268.998 216.973 268.838 217.592C268.678 218.211 268.598 218.904 268.598 219.672C268.598 220.44 268.678 221.133 268.838 221.752C268.998 222.371 269.291 222.904 269.718 223.352ZM281.115 225.192C280.411 225.192 279.787 225.032 279.243 224.712C278.709 224.381 278.283 223.944 277.963 223.4C277.653 222.856 277.419 222.269 277.259 221.64C277.109 221.011 277.035 220.355 277.035 219.672C277.035 218.989 277.109 218.333 277.259 217.704C277.419 217.075 277.653 216.493 277.963 215.96C278.283 215.416 278.709 214.984 279.243 214.664C279.787 214.333 280.411 214.168 281.115 214.168C281.808 214.168 282.427 214.333 282.971 214.664C283.515 214.984 283.941 215.416 284.251 215.96C284.571 216.493 284.805 217.075 284.955 217.704C285.115 218.333 285.195 218.989 285.195 219.672C285.195 220.355 285.115 221.011 284.955 221.64C284.805 222.269 284.571 222.856 284.251 223.4C283.941 223.944 283.515 224.381 282.971 224.712C282.427 225.032 281.808 225.192 281.115 225.192ZM279.515 223.352C279.941 223.789 280.475 224.008 281.115 224.008C281.755 224.008 282.288 223.789 282.715 223.352C283.141 222.904 283.435 222.371 283.595 221.752C283.755 221.133 283.835 220.44 283.835 219.672C283.835 218.904 283.755 218.211 283.595 217.592C283.435 216.973 283.141 216.445 282.715 216.008C282.288 215.571 281.755 215.352 281.115 215.352C280.475 215.352 279.941 215.571 279.515 216.008C279.088 216.445 278.795 216.973 278.635 217.592C278.475 218.211 278.395 218.904 278.395 219.672C278.395 220.44 278.475 221.133 278.635 221.752C278.795 222.371 279.088 222.904 279.515 223.352ZM290.912 225.192C290.208 225.192 289.584 225.032 289.04 224.712C288.506 224.381 288.08 223.944 287.76 223.4C287.45 222.856 287.216 222.269 287.056 221.64C286.906 221.011 286.832 220.355 286.832 219.672C286.832 218.989 286.906 218.333 287.056 217.704C287.216 217.075 287.45 216.493 287.76 215.96C288.08 215.416 288.506 214.984 289.04 214.664C289.584 214.333 290.208 214.168 290.912 214.168C291.605 214.168 292.224 214.333 292.768 214.664C293.312 214.984 293.738 215.416 294.048 215.96C294.368 216.493 294.602 217.075 294.752 217.704C294.912 218.333 294.992 218.989 294.992 219.672C294.992 220.355 294.912 221.011 294.752 221.64C294.602 222.269 294.368 222.856 294.048 223.4C293.738 223.944 293.312 224.381 292.768 224.712C292.224 225.032 291.605 225.192 290.912 225.192ZM289.312 223.352C289.738 223.789 290.272 224.008 290.912 224.008C291.552 224.008 292.085 223.789 292.512 223.352C292.938 222.904 293.232 222.371 293.392 221.752C293.552 221.133 293.632 220.44 293.632 219.672C293.632 218.904 293.552 218.211 293.392 217.592C293.232 216.973 292.938 216.445 292.512 216.008C292.085 215.571 291.552 215.352 290.912 215.352C290.272 215.352 289.738 215.571 289.312 216.008C288.885 216.445 288.592 216.973 288.432 217.592C288.272 218.211 288.192 218.904 288.192 219.672C288.192 220.44 288.272 221.133 288.432 221.752C288.592 222.371 288.885 222.904 289.312 223.352ZM300.709 225.192C300.005 225.192 299.381 225.032 298.837 224.712C298.303 224.381 297.877 223.944 297.557 223.4C297.247 222.856 297.013 222.269 296.853 221.64C296.703 221.011 296.629 220.355 296.629 219.672C296.629 218.989 296.703 218.333 296.853 217.704C297.013 217.075 297.247 216.493 297.557 215.96C297.877 215.416 298.303 214.984 298.837 214.664C299.381 214.333 300.005 214.168 300.709 214.168C301.402 214.168 302.021 214.333 302.565 214.664C303.109 214.984 303.535 215.416 303.845 215.96C304.165 216.493 304.399 217.075 304.549 217.704C304.709 218.333 304.789 218.989 304.789 219.672C304.789 220.355 304.709 221.011 304.549 221.64C304.399 222.269 304.165 222.856 303.845 223.4C303.535 223.944 303.109 224.381 302.565 224.712C302.021 225.032 301.402 225.192 300.709 225.192ZM299.109 223.352C299.535 223.789 300.069 224.008 300.709 224.008C301.349 224.008 301.882 223.789 302.309 223.352C302.735 222.904 303.029 222.371 303.189 221.752C303.349 221.133 303.429 220.44 303.429 219.672C303.429 218.904 303.349 218.211 303.189 217.592C303.029 216.973 302.735 216.445 302.309 216.008C301.882 215.571 301.349 215.352 300.709 215.352C300.069 215.352 299.535 215.571 299.109 216.008C298.682 216.445 298.389 216.973 298.229 217.592C298.069 218.211 297.989 218.904 297.989 219.672C297.989 220.44 298.069 221.133 298.229 221.752C298.389 222.371 298.682 222.904 299.109 223.352Z" fill="#FAFAFA"/>
<path opacity="0.8" d="M156.816 225.192C155.173 225.192 153.92 224.621 153.056 223.48L153.872 222.584C154.608 223.533 155.589 224.008 156.816 224.008C157.541 224.008 158.133 223.789 158.592 223.352C159.051 222.915 159.28 222.371 159.28 221.72C159.28 221.027 159.051 220.472 158.592 220.056C158.144 219.629 157.557 219.416 156.832 219.416C155.883 219.416 155.061 219.747 154.368 220.408L153.392 220.072V214.328H159.92V215.512H154.72V219.224C155.381 218.584 156.213 218.264 157.216 218.264C158.165 218.264 158.971 218.568 159.632 219.176C160.293 219.784 160.624 220.616 160.624 221.672C160.624 222.728 160.261 223.581 159.536 224.232C158.821 224.872 157.915 225.192 156.816 225.192ZM166.334 225.192C165.63 225.192 165.006 225.032 164.462 224.712C163.928 224.381 163.502 223.944 163.182 223.4C162.872 222.856 162.638 222.269 162.478 221.64C162.328 221.011 162.254 220.355 162.254 219.672C162.254 218.989 162.328 218.333 162.478 217.704C162.638 217.075 162.872 216.493 163.182 215.96C163.502 215.416 163.928 214.984 164.462 214.664C165.006 214.333 165.63 214.168 166.334 214.168C167.027 214.168 167.646 214.333 168.19 214.664C168.734 214.984 169.16 215.416 169.47 215.96C169.79 216.493 170.024 217.075 170.174 217.704C170.334 218.333 170.414 218.989 170.414 219.672C170.414 220.355 170.334 221.011 170.174 221.64C170.024 222.269 169.79 222.856 169.47 223.4C169.16 223.944 168.734 224.381 168.19 224.712C167.646 225.032 167.027 225.192 166.334 225.192ZM164.734 223.352C165.16 223.789 165.694 224.008 166.334 224.008C166.974 224.008 167.507 223.789 167.934 223.352C168.36 222.904 168.654 222.371 168.814 221.752C168.974 221.133 169.054 220.44 169.054 219.672C169.054 218.904 168.974 218.211 168.814 217.592C168.654 216.973 168.36 216.445 167.934 216.008C167.507 215.571 166.974 215.352 166.334 215.352C165.694 215.352 165.16 215.571 164.734 216.008C164.307 216.445 164.014 216.973 163.854 217.592C163.694 218.211 163.614 218.904 163.614 219.672C163.614 220.44 163.694 221.133 163.854 221.752C164.014 222.371 164.307 222.904 164.734 223.352ZM176.13 225.192C175.426 225.192 174.802 225.032 174.258 224.712C173.725 224.381 173.298 223.944 172.978 223.4C172.669 222.856 172.434 222.269 172.274 221.64C172.125 221.011 172.05 220.355 172.05 219.672C172.05 218.989 172.125 218.333 172.274 217.704C172.434 217.075 172.669 216.493 172.978 215.96C173.298 215.416 173.725 214.984 174.258 214.664C174.802 214.333 175.426 214.168 176.13 214.168C176.824 214.168 177.442 214.333 177.986 214.664C178.53 214.984 178.957 215.416 179.266 215.96C179.586 216.493 179.821 217.075 179.97 217.704C180.13 218.333 180.21 218.989 180.21 219.672C180.21 220.355 180.13 221.011 179.97 221.64C179.821 222.269 179.586 222.856 179.266 223.4C178.957 223.944 178.53 224.381 177.986 224.712C177.442 225.032 176.824 225.192 176.13 225.192ZM174.53 223.352C174.957 223.789 175.49 224.008 176.13 224.008C176.77 224.008 177.304 223.789 177.73 223.352C178.157 222.904 178.45 222.371 178.61 221.752C178.77 221.133 178.85 220.44 178.85 219.672C178.85 218.904 178.77 218.211 178.61 217.592C178.45 216.973 178.157 216.445 177.73 216.008C177.304 215.571 176.77 215.352 176.13 215.352C175.49 215.352 174.957 215.571 174.53 216.008C174.104 216.445 173.81 216.973 173.65 217.592C173.49 218.211 173.41 218.904 173.41 219.672C173.41 220.44 173.49 221.133 173.65 221.752C173.81 222.371 174.104 222.904 174.53 223.352ZM185.927 225.192C185.223 225.192 184.599 225.032 184.055 224.712C183.522 224.381 183.095 223.944 182.775 223.4C182.466 222.856 182.231 222.269 182.071 221.64C181.922 221.011 181.847 220.355 181.847 219.672C181.847 218.989 181.922 218.333 182.071 217.704C182.231 217.075 182.466 216.493 182.775 215.96C183.095 215.416 183.522 214.984 184.055 214.664C184.599 214.333 185.223 214.168 185.927 214.168C186.621 214.168 187.239 214.333 187.783 214.664C188.327 214.984 188.754 215.416 189.063 215.96C189.383 216.493 189.618 217.075 189.767 217.704C189.927 218.333 190.007 218.989 190.007 219.672C190.007 220.355 189.927 221.011 189.767 221.64C189.618 222.269 189.383 222.856 189.063 223.4C188.754 223.944 188.327 224.381 187.783 224.712C187.239 225.032 186.621 225.192 185.927 225.192ZM184.327 223.352C184.754 223.789 185.287 224.008 185.927 224.008C186.567 224.008 187.101 223.789 187.527 223.352C187.954 222.904 188.247 222.371 188.407 221.752C188.567 221.133 188.647 220.44 188.647 219.672C188.647 218.904 188.567 218.211 188.407 217.592C188.247 216.973 187.954 216.445 187.527 216.008C187.101 215.571 186.567 215.352 185.927 215.352C185.287 215.352 184.754 215.571 184.327 216.008C183.901 216.445 183.607 216.973 183.447 217.592C183.287 218.211 183.207 218.904 183.207 219.672C183.207 220.44 183.287 221.133 183.447 221.752C183.607 222.371 183.901 222.904 184.327 223.352Z" fill="#FAFAFA"/>
<path opacity="0.8" d="M76.896 225.192C76.192 225.192 75.568 225.032 75.024 224.712C74.4907 224.381 74.064 223.944 73.744 223.4C73.4347 222.856 73.2 222.269 73.04 221.64C72.8907 221.011 72.816 220.355 72.816 219.672C72.816 218.989 72.8907 218.333 73.04 217.704C73.2 217.075 73.4347 216.493 73.744 215.96C74.064 215.416 74.4907 214.984 75.024 214.664C75.568 214.333 76.192 214.168 76.896 214.168C77.5893 214.168 78.208 214.333 78.752 214.664C79.296 214.984 79.7227 215.416 80.032 215.96C80.352 216.493 80.5867 217.075 80.736 217.704C80.896 218.333 80.976 218.989 80.976 219.672C80.976 220.355 80.896 221.011 80.736 221.64C80.5867 222.269 80.352 222.856 80.032 223.4C79.7227 223.944 79.296 224.381 78.752 224.712C78.208 225.032 77.5893 225.192 76.896 225.192ZM75.296 223.352C75.7227 223.789 76.256 224.008 76.896 224.008C77.536 224.008 78.0693 223.789 78.496 223.352C78.9227 222.904 79.216 222.371 79.376 221.752C79.536 221.133 79.616 220.44 79.616 219.672C79.616 218.904 79.536 218.211 79.376 217.592C79.216 216.973 78.9227 216.445 78.496 216.008C78.0693 215.571 77.536 215.352 76.896 215.352C76.256 215.352 75.7227 215.571 75.296 216.008C74.8693 216.445 74.576 216.973 74.416 217.592C74.256 218.211 74.176 218.904 74.176 219.672C74.176 220.44 74.256 221.133 74.416 221.752C74.576 222.371 74.8693 222.904 75.296 223.352Z" fill="#FAFAFA"/>
<path opacity="0.8" d="M172 204L172 -8.34465e-07" stroke="#FAFAFA" stroke-dasharray="2 2"/>
<path opacity="0.8" d="M284 204L284 -8.34465e-07" stroke="#FAFAFA" stroke-dasharray="2 2"/>
<path opacity="0.8" d="M399 204L399 -8.34465e-07" stroke="#FAFAFA" stroke-dasharray="2 2"/>
<path opacity="0.8" d="M516 204L516 -8.34465e-07" stroke="#FAFAFA" stroke-dasharray="2 2"/>
<path d="M77 0V204H543" stroke="#FAFAFA"/>
</svg>
