<svg width="242" height="120" viewBox="0 0 242 120" fill="none" xmlns="http://www.w3.org/2000/svg">
<path d="M98.8012 104H95.1742V99.319H85.3162V96.405L93.8102 83.323H98.8012V96.126H101.56V99.319H98.8012V104ZM95.1742 96.126V86.578L88.8812 96.126H95.1742ZM116.784 104H113.157V99.319H103.299V96.405L111.793 83.323H116.784V96.126H119.543V99.319H116.784V104ZM113.157 96.126V86.578L106.864 96.126H113.157ZM126.551 102.822C126.551 103.876 126.282 104.868 125.745 105.798C125.228 106.728 124.536 107.503 123.668 108.123L122.18 106.914C122.697 106.604 123.172 106.17 123.606 105.612C124.061 105.054 124.329 104.517 124.412 104C124.288 104.062 124.112 104.093 123.885 104.093C123.368 104.093 122.934 103.907 122.583 103.535C122.232 103.163 122.056 102.688 122.056 102.109C122.056 101.53 122.263 101.034 122.676 100.621C123.089 100.208 123.585 100.001 124.164 100.001C124.825 100.001 125.383 100.259 125.838 100.776C126.313 101.272 126.551 101.954 126.551 102.822ZM142.365 104H138.738V99.319H128.88V96.405L137.374 83.323H142.365V96.126H145.124V99.319H142.365V104ZM138.738 96.126V86.578L132.445 96.126H138.738ZM152.008 93.274C150.499 93.274 149.259 92.7883 148.288 91.817C147.337 90.8457 146.862 89.6263 146.862 88.159C146.862 86.6917 147.337 85.4723 148.288 84.501C149.259 83.509 150.499 83.013 152.008 83.013C153.537 83.013 154.777 83.4987 155.728 84.47C156.679 85.4413 157.154 86.671 157.154 88.159C157.154 89.6263 156.679 90.8457 155.728 91.817C154.777 92.7883 153.537 93.274 152.008 93.274ZM152.07 104H149.993L163.199 83.323H165.307L152.07 104ZM166.826 102.915C165.875 103.886 164.646 104.372 163.137 104.372C161.628 104.372 160.388 103.886 159.417 102.915C158.466 101.944 157.991 100.724 157.991 99.257C157.991 97.7897 158.466 96.5703 159.417 95.599C160.388 94.607 161.628 94.111 163.137 94.111C164.646 94.111 165.875 94.607 166.826 95.599C167.797 96.5703 168.283 97.7897 168.283 99.257C168.283 100.724 167.797 101.944 166.826 102.915ZM152.008 91.197C152.814 91.197 153.475 90.918 153.992 90.36C154.509 89.7813 154.767 89.0477 154.767 88.159C154.767 87.2497 154.509 86.5057 153.992 85.927C153.475 85.3483 152.814 85.059 152.008 85.059C151.223 85.059 150.572 85.3483 150.055 85.927C149.538 86.5057 149.28 87.2497 149.28 88.159C149.28 89.0477 149.538 89.7813 150.055 90.36C150.572 90.918 151.223 91.197 152.008 91.197ZM161.153 101.458C161.67 102.016 162.331 102.295 163.137 102.295C163.943 102.295 164.604 102.016 165.121 101.458C165.638 100.879 165.896 100.146 165.896 99.257C165.896 98.3477 165.638 97.6037 165.121 97.025C164.604 96.4463 163.943 96.157 163.137 96.157C162.331 96.157 161.67 96.4463 161.153 97.025C160.636 97.6037 160.378 98.3477 160.378 99.257C160.378 100.146 160.636 100.879 161.153 101.458Z" fill="#B6174B"/>
<path d="M187.29 104H185.962V99.104H179.722V104H178.394V93.328H179.722V97.92H185.962V93.328H187.29V104ZM195.88 103.024C195.187 103.803 194.264 104.192 193.112 104.192C191.96 104.192 191.032 103.803 190.328 103.024C189.635 102.245 189.288 101.28 189.288 100.128C189.288 98.976 189.635 98.016 190.328 97.248C191.032 96.4693 191.96 96.08 193.112 96.08C194.264 96.08 195.187 96.4693 195.88 97.248C196.584 98.016 196.936 98.976 196.936 100.128C196.936 101.28 196.584 102.245 195.88 103.024ZM191.24 102.256C191.699 102.832 192.323 103.12 193.112 103.12C193.901 103.12 194.525 102.832 194.984 102.256C195.443 101.669 195.672 100.96 195.672 100.128C195.672 99.296 195.443 98.592 194.984 98.016C194.525 97.44 193.901 97.152 193.112 97.152C192.323 97.152 191.699 97.44 191.24 98.016C190.781 98.592 190.552 99.296 190.552 100.128C190.552 100.96 190.781 101.669 191.24 102.256ZM209.42 104H208.22V98.752C208.22 97.6853 207.746 97.152 206.796 97.152C206.412 97.152 206.028 97.2693 205.644 97.504C205.26 97.728 204.962 98.0053 204.748 98.336V104H203.548V98.752C203.548 97.6853 203.074 97.152 202.124 97.152C201.751 97.152 201.372 97.2693 200.988 97.504C200.615 97.7387 200.316 98.0213 200.092 98.352V104H198.892V96.272H200.092V97.392C200.295 97.0827 200.631 96.7893 201.1 96.512C201.58 96.224 202.082 96.08 202.604 96.08C203.159 96.08 203.612 96.2133 203.964 96.48C204.316 96.7467 204.551 97.0933 204.668 97.52C204.903 97.136 205.26 96.8 205.74 96.512C206.22 96.224 206.727 96.08 207.26 96.08C208.7 96.08 209.42 96.8587 209.42 98.416V104ZM213.014 101.904C213.228 102.245 213.548 102.533 213.974 102.768C214.412 103.003 214.865 103.12 215.334 103.12C216.092 103.12 216.694 102.843 217.142 102.288C217.59 101.733 217.814 101.019 217.814 100.144C217.814 99.2693 217.59 98.5547 217.142 98C216.694 97.4347 216.092 97.152 215.334 97.152C214.865 97.152 214.412 97.2747 213.974 97.52C213.548 97.7547 213.228 98.048 213.014 98.4V101.904ZM213.014 104H211.814V93.328H213.014V97.44C213.686 96.5333 214.556 96.08 215.622 96.08C216.646 96.08 217.473 96.4533 218.102 97.2C218.742 97.936 219.062 98.9173 219.062 100.144C219.062 101.381 218.742 102.368 218.102 103.104C217.473 103.829 216.646 104.192 215.622 104.192C214.545 104.192 213.676 103.744 213.014 102.848V104ZM222.217 104H221.017V96.272H222.217V97.504C222.953 96.5653 223.812 96.096 224.793 96.096V97.328C224.601 97.3067 224.447 97.296 224.329 97.296C223.956 97.296 223.556 97.424 223.129 97.68C222.703 97.9253 222.399 98.208 222.217 98.528V104ZM229.803 104.192C228.64 104.192 227.691 103.819 226.955 103.072C226.219 102.315 225.851 101.333 225.851 100.128C225.851 98.9973 226.213 98.0427 226.939 97.264C227.664 96.4747 228.571 96.08 229.659 96.08C230.8 96.08 231.701 96.4747 232.363 97.264C233.035 98.0427 233.371 99.0293 233.371 100.224V100.528H227.131C227.184 101.285 227.456 101.92 227.947 102.432C228.448 102.944 229.099 103.2 229.899 103.2C230.859 103.2 231.659 102.869 232.299 102.208L232.875 102.992C232.053 103.792 231.029 104.192 229.803 104.192ZM232.187 99.632C232.176 98.9813 231.952 98.3947 231.515 97.872C231.077 97.3387 230.453 97.072 229.643 97.072C228.875 97.072 228.267 97.3333 227.819 97.856C227.381 98.3787 227.147 98.9707 227.115 99.632H232.187ZM237.778 104.192C236.477 104.192 235.437 103.787 234.658 102.976L235.266 102.112C235.533 102.421 235.896 102.683 236.354 102.896C236.824 103.109 237.309 103.216 237.81 103.216C238.386 103.216 238.834 103.093 239.154 102.848C239.485 102.603 239.65 102.283 239.65 101.888C239.65 101.547 239.485 101.28 239.154 101.088C238.824 100.885 238.424 100.736 237.954 100.64C237.485 100.533 237.016 100.416 236.546 100.288C236.088 100.149 235.693 99.92 235.362 99.6C235.032 99.2693 234.866 98.8373 234.866 98.304C234.866 97.6747 235.122 97.1467 235.634 96.72C236.146 96.2933 236.845 96.08 237.73 96.08C238.914 96.08 239.869 96.4533 240.594 97.2L240.034 98.032C239.49 97.3813 238.722 97.056 237.73 97.056C237.208 97.056 236.792 97.1733 236.482 97.408C236.173 97.632 236.018 97.92 236.018 98.272C236.018 98.528 236.136 98.7413 236.37 98.912C236.605 99.0827 236.898 99.2053 237.25 99.28C237.613 99.3547 237.997 99.4507 238.402 99.568C238.818 99.6853 239.202 99.8187 239.554 99.968C239.917 100.107 240.216 100.341 240.45 100.672C240.685 100.992 240.802 101.387 240.802 101.856C240.802 102.539 240.536 103.099 240.002 103.536C239.48 103.973 238.738 104.192 237.778 104.192Z" fill="#1A1A1A"/>
<path d="M93.6203 61.372C90.3343 61.372 87.782 60.3077 85.9633 58.179L88.0403 55.668C89.4456 57.3213 91.2953 58.148 93.5893 58.148C94.8706 58.148 95.8936 57.807 96.6583 57.125C97.4436 56.4223 97.8363 55.544 97.8363 54.49C97.8363 53.3947 97.454 52.5163 96.6893 51.855C95.9453 51.173 94.943 50.832 93.6823 50.832C91.9256 50.832 90.417 51.421 89.1563 52.599L86.5833 51.855V40.323H100.13V43.516H90.2103V49.468C91.471 48.29 93.0313 47.701 94.8913 47.701C96.7306 47.701 98.291 48.3003 99.5723 49.499C100.874 50.6977 101.525 52.32 101.525 54.366C101.525 56.474 100.792 58.1687 99.3243 59.45C97.857 60.7313 95.9556 61.372 93.6203 61.372ZM112.208 61.372C108.922 61.372 106.37 60.3077 104.551 58.179L106.628 55.668C108.034 57.3213 109.883 58.148 112.177 58.148C113.459 58.148 114.482 57.807 115.246 57.125C116.032 56.4223 116.424 55.544 116.424 54.49C116.424 53.3947 116.042 52.5163 115.277 51.855C114.533 51.173 113.531 50.832 112.27 50.832C110.514 50.832 109.005 51.421 107.744 52.599L105.171 51.855V40.323H118.718V43.516H108.798V49.468C110.059 48.29 111.619 47.701 113.479 47.701C115.319 47.701 116.879 48.3003 118.16 49.499C119.462 50.6977 120.113 52.32 120.113 54.366C120.113 56.474 119.38 58.1687 117.912 59.45C116.445 60.7313 114.544 61.372 112.208 61.372ZM127.51 59.822C127.51 60.876 127.241 61.868 126.704 62.798C126.187 63.728 125.495 64.503 124.627 65.123L123.139 63.914C123.656 63.604 124.131 63.17 124.565 62.612C125.02 62.054 125.288 61.5167 125.371 61C125.247 61.062 125.071 61.093 124.844 61.093C124.327 61.093 123.893 60.907 123.542 60.535C123.191 60.163 123.015 59.6877 123.015 59.109C123.015 58.5303 123.222 58.0343 123.635 57.621C124.048 57.2077 124.544 57.001 125.123 57.001C125.784 57.001 126.342 57.2593 126.797 57.776C127.272 58.272 127.51 58.954 127.51 59.822ZM138.395 61.372C135.109 61.372 132.556 60.3077 130.738 58.179L132.815 55.668C134.22 57.3213 136.07 58.148 138.364 58.148C139.645 58.148 140.668 57.807 141.433 57.125C142.218 56.4223 142.611 55.544 142.611 54.49C142.611 53.3947 142.228 52.5163 141.464 51.855C140.72 51.173 139.717 50.832 138.457 50.832C136.7 50.832 135.191 51.421 133.931 52.599L131.358 51.855V40.323H144.905V43.516H134.985V49.468C136.245 48.29 137.806 47.701 139.666 47.701C141.505 47.701 143.065 48.3003 144.347 49.499C145.649 50.6977 146.3 52.32 146.3 54.366C146.3 56.474 145.566 58.1687 144.099 59.45C142.631 60.7313 140.73 61.372 138.395 61.372ZM153.573 50.274C152.064 50.274 150.824 49.7883 149.853 48.817C148.902 47.8457 148.427 46.6263 148.427 45.159C148.427 43.6917 148.902 42.4723 149.853 41.501C150.824 40.509 152.064 40.013 153.573 40.013C155.102 40.013 156.342 40.4987 157.293 41.47C158.243 42.4413 158.719 43.671 158.719 45.159C158.719 46.6263 158.243 47.8457 157.293 48.817C156.342 49.7883 155.102 50.274 153.573 50.274ZM153.635 61H151.558L164.764 40.323H166.872L153.635 61ZM168.391 59.915C167.44 60.8863 166.21 61.372 164.702 61.372C163.193 61.372 161.953 60.8863 160.982 59.915C160.031 58.9437 159.556 57.7243 159.556 56.257C159.556 54.7897 160.031 53.5703 160.982 52.599C161.953 51.607 163.193 51.111 164.702 51.111C166.21 51.111 167.44 51.607 168.391 52.599C169.362 53.5703 169.848 54.7897 169.848 56.257C169.848 57.7243 169.362 58.9437 168.391 59.915ZM153.573 48.197C154.379 48.197 155.04 47.918 155.557 47.36C156.073 46.7813 156.332 46.0477 156.332 45.159C156.332 44.2497 156.073 43.5057 155.557 42.927C155.04 42.3483 154.379 42.059 153.573 42.059C152.787 42.059 152.136 42.3483 151.62 42.927C151.103 43.5057 150.845 44.2497 150.845 45.159C150.845 46.0477 151.103 46.7813 151.62 47.36C152.136 47.918 152.787 48.197 153.573 48.197ZM162.718 58.458C163.234 59.016 163.896 59.295 164.702 59.295C165.508 59.295 166.169 59.016 166.686 58.458C167.202 57.8793 167.461 57.1457 167.461 56.257C167.461 55.3477 167.202 54.6037 166.686 54.025C166.169 53.4463 165.508 53.157 164.702 53.157C163.896 53.157 163.234 53.4463 162.718 54.025C162.201 54.6037 161.943 55.3477 161.943 56.257C161.943 57.1457 162.201 57.8793 162.718 58.458Z" fill="#1D5556"/>
<path d="M190.406 61H189.078V52.024L185.462 61H184.918L181.286 52.024V61H179.958V50.328H181.862L185.19 58.552L188.502 50.328H190.406V61ZM199.263 61H198.063V59.912C197.743 60.2747 197.338 60.5787 196.847 60.824C196.367 61.0693 195.855 61.192 195.311 61.192C193.669 61.192 192.847 60.3707 192.847 58.728V53.272H194.047V58.36C194.047 59 194.197 59.4533 194.495 59.72C194.794 59.9867 195.226 60.12 195.791 60.12C196.239 60.12 196.671 60.008 197.087 59.784C197.503 59.56 197.829 59.2827 198.063 58.952V53.272H199.263V61ZM202.828 51.944C202.679 52.0933 202.492 52.168 202.268 52.168C202.044 52.168 201.852 52.0933 201.692 51.944C201.532 51.784 201.452 51.592 201.452 51.368C201.452 51.144 201.532 50.952 201.692 50.792C201.852 50.632 202.044 50.552 202.268 50.552C202.492 50.552 202.679 50.632 202.828 50.792C202.988 50.952 203.068 51.144 203.068 51.368C203.068 51.592 202.988 51.784 202.828 51.944ZM200.572 64.136C199.932 64.136 199.372 63.944 198.892 63.56L199.308 62.664C199.628 62.984 199.996 63.144 200.412 63.144C200.796 63.144 201.1 63.0267 201.324 62.792C201.548 62.568 201.66 62.2213 201.66 61.752V53.272H202.86V61.752C202.86 62.52 202.663 63.1067 202.268 63.512C201.873 63.928 201.308 64.136 200.572 64.136ZM208.758 61.192C207.595 61.192 206.646 60.8187 205.91 60.072C205.174 59.3147 204.806 58.3333 204.806 57.128C204.806 55.9973 205.168 55.0427 205.894 54.264C206.619 53.4747 207.526 53.08 208.614 53.08C209.755 53.08 210.656 53.4747 211.318 54.264C211.99 55.0427 212.326 56.0293 212.326 57.224V57.528H206.086C206.139 58.2853 206.411 58.92 206.902 59.432C207.403 59.944 208.054 60.2 208.854 60.2C209.814 60.2 210.614 59.8693 211.254 59.208L211.83 59.992C211.008 60.792 209.984 61.192 208.758 61.192ZM211.142 56.632C211.131 55.9813 210.907 55.3947 210.47 54.872C210.032 54.3387 209.408 54.072 208.598 54.072C207.83 54.072 207.222 54.3333 206.774 54.856C206.336 55.3787 206.102 55.9707 206.07 56.632H211.142ZM215.469 61H214.269V53.272H215.469V54.504C216.205 53.5653 217.064 53.096 218.045 53.096V54.328C217.853 54.3067 217.699 54.296 217.581 54.296C217.208 54.296 216.808 54.424 216.381 54.68C215.955 54.9253 215.651 55.208 215.469 55.528V61ZM223.055 61.192C221.892 61.192 220.943 60.8187 220.207 60.072C219.471 59.3147 219.103 58.3333 219.103 57.128C219.103 55.9973 219.465 55.0427 220.191 54.264C220.916 53.4747 221.823 53.08 222.911 53.08C224.052 53.08 224.953 53.4747 225.615 54.264C226.287 55.0427 226.623 56.0293 226.623 57.224V57.528H220.383C220.436 58.2853 220.708 58.92 221.199 59.432C221.7 59.944 222.351 60.2 223.151 60.2C224.111 60.2 224.911 59.8693 225.551 59.208L226.127 59.992C225.305 60.792 224.281 61.192 223.055 61.192ZM225.439 56.632C225.428 55.9813 225.204 55.3947 224.767 54.872C224.329 54.3387 223.705 54.072 222.895 54.072C222.127 54.072 221.519 54.3333 221.071 54.856C220.633 55.3787 220.399 55.9707 220.367 56.632H225.439ZM231.03 61.192C229.729 61.192 228.689 60.7867 227.91 59.976L228.518 59.112C228.785 59.4213 229.148 59.6827 229.606 59.896C230.076 60.1093 230.561 60.216 231.062 60.216C231.638 60.216 232.086 60.0933 232.406 59.848C232.737 59.6027 232.902 59.2827 232.902 58.888C232.902 58.5467 232.737 58.28 232.406 58.088C232.076 57.8853 231.676 57.736 231.206 57.64C230.737 57.5333 230.268 57.416 229.798 57.288C229.34 57.1493 228.945 56.92 228.614 56.6C228.284 56.2693 228.118 55.8373 228.118 55.304C228.118 54.6747 228.374 54.1467 228.886 53.72C229.398 53.2933 230.097 53.08 230.982 53.08C232.166 53.08 233.121 53.4533 233.846 54.2L233.286 55.032C232.742 54.3813 231.974 54.056 230.982 54.056C230.46 54.056 230.044 54.1733 229.734 54.408C229.425 54.632 229.27 54.92 229.27 55.272C229.27 55.528 229.388 55.7413 229.622 55.912C229.857 56.0827 230.15 56.2053 230.502 56.28C230.865 56.3547 231.249 56.4507 231.654 56.568C232.07 56.6853 232.454 56.8187 232.806 56.968C233.169 57.1067 233.468 57.3413 233.702 57.672C233.937 57.992 234.054 58.3867 234.054 58.856C234.054 59.5387 233.788 60.0987 233.254 60.536C232.732 60.9733 231.99 61.192 231.03 61.192Z" fill="#1A1A1A"/>
<path d="M22.5 0C30.7842 0 37.5 6.69453 37.5 14.9525C37.5 23.2105 30.7842 29.9051 22.5 29.9051C14.2158 29.9051 7.5 23.2105 7.5 14.9525C7.5 6.69453 14.2158 0 22.5 0ZM33.75 33.6432H31.0875C25.7646 36.083 19.4648 36.1884 13.9125 33.6432H11.25C5.03672 33.6432 0 38.664 0 44.8576V76.6317C0 79.7285 2.51836 82.2389 5.625 82.2389H9.375V114.013C9.375 117.11 11.8934 119.62 15 119.62H30C33.1066 119.62 35.625 117.11 35.625 114.013V82.2389H39.375C42.4816 82.2389 45 79.7285 45 76.6317V44.8576C45 38.664 39.9633 33.6432 33.75 33.6432Z" fill="#B6174B"/>
<g clip-path="url(#clip0_2303_5857)">
<path d="M22.5714 0C30.8819 0 37.619 6.71578 37.619 15C37.619 23.2842 30.8819 30 22.5714 30C14.2609 30 7.52381 23.2842 7.52381 15C7.52381 6.71578 14.2609 0 22.5714 0ZM33.8571 33.75H31.1862C25.8464 36.1976 19.5266 36.3033 13.9567 33.75H11.2857C5.05271 33.75 0 38.7867 0 45V76.875C0 79.9816 2.52635 82.5 5.64286 82.5H9.40476V114.375C9.40476 117.482 11.9311 120 15.0476 120H30.0952C33.2117 120 35.7381 117.482 35.7381 114.375V82.5H39.5C42.6165 82.5 45.1429 79.9816 45.1429 76.875V45C45.1429 38.7867 40.0901 33.75 33.8571 33.75Z" fill="#1D5556"/>
</g>
<line x1="51" y1="50.5" x2="76" y2="50.5" stroke="#1D5556"/>
<line x1="51" y1="93.5" x2="76" y2="93.5" stroke="#B6174B"/>
<defs>
<clipPath id="clip0_2303_5857">
<rect width="45" height="67" fill="white"/>
</clipPath>
</defs>
</svg>

