<svg width="250" height="120" viewBox="0 0 250 120" fill="none" xmlns="http://www.w3.org/2000/svg">
<path d="M90.5517 104H86.9247V99.319H77.0667V96.405L85.5607 83.323H90.5517V96.126H93.3107V99.319H90.5517V104ZM86.9247 96.126V86.578L80.6317 96.126H86.9247ZM108.534 104H104.907V99.319H95.0492V96.405L103.543 83.323H108.534V96.126H111.293V99.319H108.534V104ZM104.907 96.126V86.578L98.6142 96.126H104.907ZM118.302 102.822C118.302 103.876 118.033 104.868 117.496 105.798C116.979 106.728 116.287 107.503 115.419 108.123L113.931 106.914C114.447 106.604 114.923 106.17 115.357 105.612C115.811 105.054 116.08 104.517 116.163 104C116.039 104.062 115.863 104.093 115.636 104.093C115.119 104.093 114.685 103.907 114.334 103.535C113.982 103.163 113.807 102.688 113.807 102.109C113.807 101.53 114.013 101.034 114.427 100.621C114.84 100.208 115.336 100.001 115.915 100.001C116.576 100.001 117.134 100.259 117.589 100.776C118.064 101.272 118.302 101.954 118.302 102.822ZM134.115 104H130.488V99.319H120.63V96.405L129.124 83.323H134.115V96.126H136.874V99.319H134.115V104ZM130.488 96.126V86.578L124.195 96.126H130.488ZM145.495 104H141.496L149.308 86.516H138.582V83.323H153.493V85.834L145.495 104ZM160.258 93.274C158.749 93.274 157.509 92.7883 156.538 91.817C155.587 90.8457 155.112 89.6263 155.112 88.159C155.112 86.6917 155.587 85.4723 156.538 84.501C157.509 83.509 158.749 83.013 160.258 83.013C161.787 83.013 163.027 83.4987 163.978 84.47C164.928 85.4413 165.404 86.671 165.404 88.159C165.404 89.6263 164.928 90.8457 163.978 91.817C163.027 92.7883 161.787 93.274 160.258 93.274ZM160.32 104H158.243L171.449 83.323H173.557L160.32 104ZM175.076 102.915C174.125 103.886 172.895 104.372 171.387 104.372C169.878 104.372 168.638 103.886 167.667 102.915C166.716 101.944 166.241 100.724 166.241 99.257C166.241 97.7897 166.716 96.5703 167.667 95.599C168.638 94.607 169.878 94.111 171.387 94.111C172.895 94.111 174.125 94.607 175.076 95.599C176.047 96.5703 176.533 97.7897 176.533 99.257C176.533 100.724 176.047 101.944 175.076 102.915ZM160.258 91.197C161.064 91.197 161.725 90.918 162.242 90.36C162.758 89.7813 163.017 89.0477 163.017 88.159C163.017 87.2497 162.758 86.5057 162.242 85.927C161.725 85.3483 161.064 85.059 160.258 85.059C159.472 85.059 158.821 85.3483 158.305 85.927C157.788 86.5057 157.53 87.2497 157.53 88.159C157.53 89.0477 157.788 89.7813 158.305 90.36C158.821 90.918 159.472 91.197 160.258 91.197ZM169.403 101.458C169.919 102.016 170.581 102.295 171.387 102.295C172.193 102.295 172.854 102.016 173.371 101.458C173.887 100.879 174.146 100.146 174.146 99.257C174.146 98.3477 173.887 97.6037 173.371 97.025C172.854 96.4463 172.193 96.157 171.387 96.157C170.581 96.157 169.919 96.4463 169.403 97.025C168.886 97.6037 168.628 98.3477 168.628 99.257C168.628 100.146 168.886 100.879 169.403 101.458Z" fill="black"/>
<path d="M195.539 104H194.211V99.104H187.971V104H186.643V93.328H187.971V97.92H194.211V93.328H195.539V104ZM204.13 103.024C203.436 103.803 202.514 104.192 201.362 104.192C200.21 104.192 199.282 103.803 198.578 103.024C197.884 102.245 197.538 101.28 197.538 100.128C197.538 98.976 197.884 98.016 198.578 97.248C199.282 96.4693 200.21 96.08 201.362 96.08C202.514 96.08 203.436 96.4693 204.13 97.248C204.834 98.016 205.186 98.976 205.186 100.128C205.186 101.28 204.834 102.245 204.13 103.024ZM199.49 102.256C199.948 102.832 200.572 103.12 201.362 103.12C202.151 103.12 202.775 102.832 203.234 102.256C203.692 101.669 203.922 100.96 203.922 100.128C203.922 99.296 203.692 98.592 203.234 98.016C202.775 97.44 202.151 97.152 201.362 97.152C200.572 97.152 199.948 97.44 199.49 98.016C199.031 98.592 198.802 99.296 198.802 100.128C198.802 100.96 199.031 101.669 199.49 102.256ZM217.67 104H216.47V98.752C216.47 97.6853 215.995 97.152 215.046 97.152C214.662 97.152 214.278 97.2693 213.894 97.504C213.51 97.728 213.211 98.0053 212.998 98.336V104H211.798V98.752C211.798 97.6853 211.323 97.152 210.374 97.152C210.001 97.152 209.622 97.2693 209.238 97.504C208.865 97.7387 208.566 98.0213 208.342 98.352V104H207.142V96.272H208.342V97.392C208.545 97.0827 208.881 96.7893 209.35 96.512C209.83 96.224 210.331 96.08 210.854 96.08C211.409 96.08 211.862 96.2133 212.214 96.48C212.566 96.7467 212.801 97.0933 212.918 97.52C213.153 97.136 213.51 96.8 213.99 96.512C214.47 96.224 214.977 96.08 215.51 96.08C216.95 96.08 217.67 96.8587 217.67 98.416V104ZM221.264 101.904C221.477 102.245 221.797 102.533 222.224 102.768C222.661 103.003 223.114 103.12 223.584 103.12C224.341 103.12 224.944 102.843 225.392 102.288C225.84 101.733 226.064 101.019 226.064 100.144C226.064 99.2693 225.84 98.5547 225.392 98C224.944 97.4347 224.341 97.152 223.584 97.152C223.114 97.152 222.661 97.2747 222.224 97.52C221.797 97.7547 221.477 98.048 221.264 98.4V101.904ZM221.264 104H220.064V93.328H221.264V97.44C221.936 96.5333 222.805 96.08 223.872 96.08C224.896 96.08 225.722 96.4533 226.352 97.2C226.992 97.936 227.312 98.9173 227.312 100.144C227.312 101.381 226.992 102.368 226.352 103.104C225.722 103.829 224.896 104.192 223.872 104.192C222.794 104.192 221.925 103.744 221.264 102.848V104ZM230.467 104H229.267V96.272H230.467V97.504C231.203 96.5653 232.062 96.096 233.043 96.096V97.328C232.851 97.3067 232.696 97.296 232.579 97.296C232.206 97.296 231.806 97.424 231.379 97.68C230.952 97.9253 230.648 98.208 230.467 98.528V104ZM238.052 104.192C236.889 104.192 235.94 103.819 235.204 103.072C234.468 102.315 234.1 101.333 234.1 100.128C234.1 98.9973 234.463 98.0427 235.188 97.264C235.913 96.4747 236.82 96.08 237.908 96.08C239.049 96.08 239.951 96.4747 240.612 97.264C241.284 98.0427 241.62 99.0293 241.62 100.224V100.528H235.38C235.433 101.285 235.705 101.92 236.196 102.432C236.697 102.944 237.348 103.2 238.148 103.2C239.108 103.2 239.908 102.869 240.548 102.208L241.124 102.992C240.303 103.792 239.279 104.192 238.052 104.192ZM240.436 99.632C240.425 98.9813 240.201 98.3947 239.764 97.872C239.327 97.3387 238.703 97.072 237.892 97.072C237.124 97.072 236.516 97.3333 236.068 97.856C235.631 98.3787 235.396 98.9707 235.364 99.632H240.436ZM246.028 104.192C244.726 104.192 243.686 103.787 242.908 102.976L243.516 102.112C243.782 102.421 244.145 102.683 244.604 102.896C245.073 103.109 245.558 103.216 246.06 103.216C246.636 103.216 247.084 103.093 247.404 102.848C247.734 102.603 247.9 102.283 247.9 101.888C247.9 101.547 247.734 101.28 247.404 101.088C247.073 100.885 246.673 100.736 246.204 100.64C245.734 100.533 245.265 100.416 244.796 100.288C244.337 100.149 243.942 99.92 243.612 99.6C243.281 99.2693 243.116 98.8373 243.116 98.304C243.116 97.6747 243.372 97.1467 243.884 96.72C244.396 96.2933 245.094 96.08 245.98 96.08C247.164 96.08 248.118 96.4533 248.844 97.2L248.284 98.032C247.74 97.3813 246.972 97.056 245.98 97.056C245.457 97.056 245.041 97.1733 244.732 97.408C244.422 97.632 244.268 97.92 244.268 98.272C244.268 98.528 244.385 98.7413 244.62 98.912C244.854 99.0827 245.148 99.2053 245.5 99.28C245.862 99.3547 246.246 99.4507 246.652 99.568C247.068 99.6853 247.452 99.8187 247.804 99.968C248.166 100.107 248.465 100.341 248.7 100.672C248.934 100.992 249.052 101.387 249.052 101.856C249.052 102.539 248.785 103.099 248.252 103.536C247.729 103.973 246.988 104.192 246.028 104.192Z" fill="#1A1A1A"/>
<path d="M84.7199 61.372C81.4339 61.372 78.8816 60.3077 77.0629 58.179L79.1399 55.668C80.5452 57.3213 82.3949 58.148 84.6889 58.148C85.9702 58.148 86.9932 57.807 87.7579 57.125C88.5432 56.4223 88.9359 55.544 88.9359 54.49C88.9359 53.3947 88.5536 52.5163 87.7889 51.855C87.0449 51.173 86.0426 50.832 84.7819 50.832C83.0252 50.832 81.5166 51.421 80.2559 52.599L77.6829 51.855V40.323H91.2299V43.516H81.3099V49.468C82.5706 48.29 84.1309 47.701 85.9909 47.701C87.8302 47.701 89.3906 48.3003 90.6719 49.499C91.9739 50.6977 92.6249 52.32 92.6249 54.366C92.6249 56.474 91.8912 58.1687 90.4239 59.45C88.9566 60.7313 87.0552 61.372 84.7199 61.372ZM103.308 61.372C100.022 61.372 97.4695 60.3077 95.6508 58.179L97.7278 55.668C99.1331 57.3213 100.983 58.148 103.277 58.148C104.558 58.148 105.581 57.807 106.346 57.125C107.131 56.4223 107.524 55.544 107.524 54.49C107.524 53.3947 107.141 52.5163 106.377 51.855C105.633 51.173 104.63 50.832 103.37 50.832C101.613 50.832 100.104 51.421 98.8438 52.599L96.2708 51.855V40.323H109.818V43.516H99.8978V49.468C101.158 48.29 102.719 47.701 104.579 47.701C106.418 47.701 107.978 48.3003 109.26 49.499C110.562 50.6977 111.213 52.32 111.213 54.366C111.213 56.474 110.479 58.1687 109.012 59.45C107.544 60.7313 105.643 61.372 103.308 61.372ZM118.61 59.822C118.61 60.876 118.341 61.868 117.804 62.798C117.287 63.728 116.595 64.503 115.727 65.123L114.239 63.914C114.755 63.604 115.231 63.17 115.665 62.612C116.119 62.054 116.388 61.5167 116.471 61C116.347 61.062 116.171 61.093 115.944 61.093C115.427 61.093 114.993 60.907 114.642 60.535C114.29 60.163 114.115 59.6877 114.115 59.109C114.115 58.5303 114.321 58.0343 114.735 57.621C115.148 57.2077 115.644 57.001 116.223 57.001C116.884 57.001 117.442 57.2593 117.897 57.776C118.372 58.272 118.61 58.954 118.61 59.822ZM129.494 61.372C126.208 61.372 123.656 60.3077 121.837 58.179L123.914 55.668C125.32 57.3213 127.169 58.148 129.463 58.148C130.745 58.148 131.768 57.807 132.532 57.125C133.318 56.4223 133.71 55.544 133.71 54.49C133.71 53.3947 133.328 52.5163 132.563 51.855C131.819 51.173 130.817 50.832 129.556 50.832C127.8 50.832 126.291 51.421 125.03 52.599L122.457 51.855V40.323H136.004V43.516H126.084V49.468C127.345 48.29 128.905 47.701 130.765 47.701C132.605 47.701 134.165 48.3003 135.446 49.499C136.748 50.6977 137.399 52.32 137.399 54.366C137.399 56.474 136.666 58.1687 135.198 59.45C133.731 60.7313 131.83 61.372 129.494 61.372ZM147.214 61.372C145.478 61.372 143.928 61.062 142.564 60.442C141.221 59.822 140.167 59.016 139.402 58.024L141.386 55.637C142.048 56.4223 142.885 57.0423 143.897 57.497C144.931 57.931 145.995 58.148 147.09 58.148C148.434 58.148 149.488 57.8587 150.252 57.28C151.017 56.7013 151.399 55.9367 151.399 54.986C151.399 53.0227 149.87 52.041 146.811 52.041C145.654 52.041 144.869 52.0617 144.455 52.103V48.817C144.683 48.8377 145.468 48.848 146.811 48.848C148.093 48.848 149.126 48.6207 149.911 48.166C150.697 47.7113 151.089 47.0293 151.089 46.12C151.089 45.2107 150.686 44.508 149.88 44.012C149.095 43.4953 148.103 43.237 146.904 43.237C144.817 43.237 143.029 44.0017 141.541 45.531L139.681 43.268C141.541 41.098 144.063 40.013 147.245 40.013C149.498 40.013 151.296 40.509 152.639 41.501C154.003 42.493 154.685 43.8467 154.685 45.562C154.685 46.864 154.231 47.9387 153.321 48.786C152.433 49.6127 151.399 50.119 150.221 50.305C151.399 50.429 152.495 50.9353 153.507 51.824C154.52 52.7127 155.026 53.8803 155.026 55.327C155.026 57.125 154.313 58.582 152.887 59.698C151.482 60.814 149.591 61.372 147.214 61.372ZM162.473 50.274C160.964 50.274 159.724 49.7883 158.753 48.817C157.802 47.8457 157.327 46.6263 157.327 45.159C157.327 43.6917 157.802 42.4723 158.753 41.501C159.724 40.509 160.964 40.013 162.473 40.013C164.002 40.013 165.242 40.4987 166.193 41.47C167.144 42.4413 167.619 43.671 167.619 45.159C167.619 46.6263 167.144 47.8457 166.193 48.817C165.242 49.7883 164.002 50.274 162.473 50.274ZM162.535 61H160.458L173.664 40.323H175.772L162.535 61ZM177.291 59.915C176.34 60.8863 175.111 61.372 173.602 61.372C172.093 61.372 170.853 60.8863 169.882 59.915C168.931 58.9437 168.456 57.7243 168.456 56.257C168.456 54.7897 168.931 53.5703 169.882 52.599C170.853 51.607 172.093 51.111 173.602 51.111C175.111 51.111 176.34 51.607 177.291 52.599C178.262 53.5703 178.748 54.7897 178.748 56.257C178.748 57.7243 178.262 58.9437 177.291 59.915ZM162.473 48.197C163.279 48.197 163.94 47.918 164.457 47.36C164.974 46.7813 165.232 46.0477 165.232 45.159C165.232 44.2497 164.974 43.5057 164.457 42.927C163.94 42.3483 163.279 42.059 162.473 42.059C161.688 42.059 161.037 42.3483 160.52 42.927C160.003 43.5057 159.745 44.2497 159.745 45.159C159.745 46.0477 160.003 46.7813 160.52 47.36C161.037 47.918 161.688 48.197 162.473 48.197ZM171.618 58.458C172.135 59.016 172.796 59.295 173.602 59.295C174.408 59.295 175.069 59.016 175.586 58.458C176.103 57.8793 176.361 57.1457 176.361 56.257C176.361 55.3477 176.103 54.6037 175.586 54.025C175.069 53.4463 174.408 53.157 173.602 53.157C172.796 53.157 172.135 53.4463 171.618 54.025C171.101 54.6037 170.843 55.3477 170.843 56.257C170.843 57.1457 171.101 57.8793 171.618 58.458Z" fill="black"/>
<path d="M199.306 61H197.978V52.024L194.362 61H193.818L190.186 52.024V61H188.858V50.328H190.762L194.09 58.552L197.402 50.328H199.306V61ZM208.164 61H206.964V59.912C206.644 60.2747 206.239 60.5787 205.748 60.824C205.268 61.0693 204.756 61.192 204.212 61.192C202.569 61.192 201.748 60.3707 201.748 58.728V53.272H202.948V58.36C202.948 59 203.097 59.4533 203.396 59.72C203.695 59.9867 204.127 60.12 204.692 60.12C205.14 60.12 205.572 60.008 205.988 59.784C206.404 59.56 206.729 59.2827 206.964 58.952V53.272H208.164V61ZM211.728 51.944C211.579 52.0933 211.392 52.168 211.168 52.168C210.944 52.168 210.752 52.0933 210.592 51.944C210.432 51.784 210.352 51.592 210.352 51.368C210.352 51.144 210.432 50.952 210.592 50.792C210.752 50.632 210.944 50.552 211.168 50.552C211.392 50.552 211.579 50.632 211.728 50.792C211.888 50.952 211.968 51.144 211.968 51.368C211.968 51.592 211.888 51.784 211.728 51.944ZM209.472 64.136C208.832 64.136 208.272 63.944 207.792 63.56L208.208 62.664C208.528 62.984 208.896 63.144 209.312 63.144C209.696 63.144 210 63.0267 210.224 62.792C210.448 62.568 210.56 62.2213 210.56 61.752V53.272H211.76V61.752C211.76 62.52 211.563 63.1067 211.168 63.512C210.774 63.928 210.208 64.136 209.472 64.136ZM217.658 61.192C216.495 61.192 215.546 60.8187 214.81 60.072C214.074 59.3147 213.706 58.3333 213.706 57.128C213.706 55.9973 214.069 55.0427 214.794 54.264C215.519 53.4747 216.426 53.08 217.514 53.08C218.655 53.08 219.557 53.4747 220.218 54.264C220.89 55.0427 221.226 56.0293 221.226 57.224V57.528H214.986C215.039 58.2853 215.311 58.92 215.802 59.432C216.303 59.944 216.954 60.2 217.754 60.2C218.714 60.2 219.514 59.8693 220.154 59.208L220.73 59.992C219.909 60.792 218.885 61.192 217.658 61.192ZM220.042 56.632C220.031 55.9813 219.807 55.3947 219.37 54.872C218.933 54.3387 218.309 54.072 217.498 54.072C216.73 54.072 216.122 54.3333 215.674 54.856C215.237 55.3787 215.002 55.9707 214.97 56.632H220.042ZM224.37 61H223.17V53.272H224.37V54.504C225.106 53.5653 225.964 53.096 226.946 53.096V54.328C226.754 54.3067 226.599 54.296 226.482 54.296C226.108 54.296 225.708 54.424 225.282 54.68C224.855 54.9253 224.551 55.208 224.37 55.528V61ZM231.955 61.192C230.792 61.192 229.843 60.8187 229.107 60.072C228.371 59.3147 228.003 58.3333 228.003 57.128C228.003 55.9973 228.366 55.0427 229.091 54.264C229.816 53.4747 230.723 53.08 231.811 53.08C232.952 53.08 233.854 53.4747 234.515 54.264C235.187 55.0427 235.523 56.0293 235.523 57.224V57.528H229.283C229.336 58.2853 229.608 58.92 230.099 59.432C230.6 59.944 231.251 60.2 232.051 60.2C233.011 60.2 233.811 59.8693 234.451 59.208L235.027 59.992C234.206 60.792 233.182 61.192 231.955 61.192ZM234.339 56.632C234.328 55.9813 234.104 55.3947 233.667 54.872C233.23 54.3387 232.606 54.072 231.795 54.072C231.027 54.072 230.419 54.3333 229.971 54.856C229.534 55.3787 229.299 55.9707 229.267 56.632H234.339ZM239.931 61.192C238.629 61.192 237.589 60.7867 236.811 59.976L237.419 59.112C237.685 59.4213 238.048 59.6827 238.507 59.896C238.976 60.1093 239.461 60.216 239.963 60.216C240.539 60.216 240.987 60.0933 241.307 59.848C241.637 59.6027 241.803 59.2827 241.803 58.888C241.803 58.5467 241.637 58.28 241.307 58.088C240.976 57.8853 240.576 57.736 240.107 57.64C239.637 57.5333 239.168 57.416 238.699 57.288C238.24 57.1493 237.845 56.92 237.515 56.6C237.184 56.2693 237.019 55.8373 237.019 55.304C237.019 54.6747 237.275 54.1467 237.787 53.72C238.299 53.2933 238.997 53.08 239.883 53.08C241.067 53.08 242.021 53.4533 242.747 54.2L242.187 55.032C241.643 54.3813 240.875 54.056 239.883 54.056C239.36 54.056 238.944 54.1733 238.635 54.408C238.325 54.632 238.171 54.92 238.171 55.272C238.171 55.528 238.288 55.7413 238.523 55.912C238.757 56.0827 239.051 56.2053 239.403 56.28C239.765 56.3547 240.149 56.4507 240.555 56.568C240.971 56.6853 241.355 56.8187 241.707 56.968C242.069 57.1067 242.368 57.3413 242.603 57.672C242.837 57.992 242.955 58.3867 242.955 58.856C242.955 59.5387 242.688 60.0987 242.155 60.536C241.632 60.9733 240.891 61.192 239.931 61.192Z" fill="#1A1A1A"/>
<path d="M22.5 0C30.7842 0 37.5 6.69453 37.5 14.9525C37.5 23.2105 30.7842 29.9051 22.5 29.9051C14.2158 29.9051 7.5 23.2105 7.5 14.9525C7.5 6.69453 14.2158 0 22.5 0ZM33.75 33.6432H31.0875C25.7646 36.083 19.4648 36.1884 13.9125 33.6432H11.25C5.03672 33.6432 0 38.664 0 44.8576V76.6317C0 79.7285 2.51836 82.2389 5.625 82.2389H9.375V114.013C9.375 117.11 11.8934 119.62 15 119.62H30C33.1066 119.62 35.625 117.11 35.625 114.013V82.2389H39.375C42.4816 82.2389 45 79.7285 45 76.6317V44.8576C45 38.664 39.9633 33.6432 33.75 33.6432Z" fill="#B6174B"/>
<g clip-path="url(#clip0_2303_5857)">
<path d="M22.5714 0C30.8819 0 37.619 6.71578 37.619 15C37.619 23.2842 30.8819 30 22.5714 30C14.2609 30 7.52381 23.2842 7.52381 15C7.52381 6.71578 14.2609 0 22.5714 0ZM33.8571 33.75H31.1862C25.8464 36.1976 19.5266 36.3033 13.9567 33.75H11.2857C5.05271 33.75 0 38.7867 0 45V76.875C0 79.9816 2.52635 82.5 5.64286 82.5H9.40476V114.375C9.40476 117.482 11.9311 120 15.0476 120H30.0952C33.2117 120 35.7381 117.482 35.7381 114.375V82.5H39.5C42.6165 82.5 45.1429 79.9816 45.1429 76.875V45C45.1429 38.7867 40.0901 33.75 33.8571 33.75Z" fill="#1D5556"/>
</g>
<line x1="51" y1="50.5" x2="71" y2="50.5" stroke="#1D5556"/>
<line x1="51" y1="93.5" x2="71" y2="93.5" stroke="#B6174B"/>
<defs>
<clipPath id="clip0_2303_5857">
<rect width="45" height="67" fill="white"/>
</clipPath>
</defs>
</svg>
