<svg width="224" height="120" viewBox="0 0 224 120" fill="none" xmlns="http://www.w3.org/2000/svg">
<path d="M81.6926 91H66.7196V88.117C71.0802 84.8103 74.0356 82.382 75.5856 80.832C77.1356 79.282 77.9106 77.794 77.9106 76.368C77.9106 75.3553 77.5386 74.5803 76.7946 74.043C76.0506 73.5057 75.1619 73.237 74.1286 73.237C71.8759 73.237 70.0159 74.0533 68.5486 75.686L66.4406 73.33C67.3292 72.2553 68.4452 71.439 69.7886 70.881C71.1526 70.3023 72.5889 70.013 74.0976 70.013C76.2056 70.013 77.9726 70.5813 79.3986 71.718C80.8452 72.834 81.5686 74.384 81.5686 76.368C81.5686 78.166 80.8246 79.9433 79.3366 81.7C77.8692 83.4567 75.6062 85.4923 72.5476 87.807H81.6926V91ZM93.1851 91.372C91.7797 91.372 90.5294 91.062 89.4341 90.442C88.3594 89.822 87.5017 88.9953 86.8611 87.962C86.2204 86.9287 85.7347 85.792 85.4041 84.552C85.0734 83.312 84.9081 82.0203 84.9081 80.677C84.9081 79.3337 85.0631 78.042 85.3731 76.802C85.7037 75.562 86.1894 74.4253 86.8301 73.392C87.4914 72.3587 88.3594 71.5423 89.4341 70.943C90.5294 70.323 91.7797 70.013 93.1851 70.013C95.0244 70.013 96.5847 70.5503 97.8661 71.625C99.1474 72.6997 100.057 74.0223 100.594 75.593C101.152 77.143 101.431 78.8377 101.431 80.677C101.431 82.4957 101.152 84.1903 100.594 85.761C100.057 87.3317 99.1474 88.6647 97.8661 89.76C96.5847 90.8347 95.0244 91.372 93.1851 91.372ZM89.7131 86.04C90.4571 87.4453 91.6144 88.148 93.1851 88.148C94.7557 88.148 95.9027 87.4453 96.6261 86.04C97.3701 84.6347 97.7421 82.847 97.7421 80.677C97.7421 79.2717 97.5974 78.042 97.3081 76.988C97.0394 75.9133 96.5537 75.0247 95.8511 74.322C95.1484 73.5987 94.2597 73.237 93.1851 73.237C92.1104 73.237 91.2114 73.5987 90.4881 74.322C89.7854 75.0247 89.2894 75.9133 89.0001 76.988C88.7314 78.042 88.5971 79.2717 88.5971 80.677C88.5971 82.847 88.9691 84.6347 89.7131 86.04ZM108.09 89.822C108.09 90.876 107.821 91.868 107.284 92.798C106.767 93.728 106.075 94.503 105.207 95.123L103.719 93.914C104.235 93.604 104.711 93.17 105.145 92.612C105.599 92.054 105.868 91.5167 105.951 91C105.827 91.062 105.651 91.093 105.424 91.093C104.907 91.093 104.473 90.907 104.122 90.535C103.77 90.163 103.595 89.6877 103.595 89.109C103.595 88.5303 103.801 88.0343 104.215 87.621C104.628 87.2077 105.124 87.001 105.703 87.001C106.364 87.001 106.922 87.2593 107.377 87.776C107.852 88.272 108.09 88.954 108.09 89.822ZM115.121 91H111.122L118.934 73.516H108.208V70.323H123.119V72.834L115.121 91ZM129.884 80.274C128.375 80.274 127.135 79.7883 126.164 78.817C125.213 77.8457 124.738 76.6263 124.738 75.159C124.738 73.6917 125.213 72.4723 126.164 71.501C127.135 70.509 128.375 70.013 129.884 70.013C131.413 70.013 132.653 70.4987 133.604 71.47C134.554 72.4413 135.03 73.671 135.03 75.159C135.03 76.6263 134.554 77.8457 133.604 78.817C132.653 79.7883 131.413 80.274 129.884 80.274ZM129.946 91H127.869L141.075 70.323H143.183L129.946 91ZM144.702 89.915C143.751 90.8863 142.521 91.372 141.013 91.372C139.504 91.372 138.264 90.8863 137.293 89.915C136.342 88.9437 135.867 87.7243 135.867 86.257C135.867 84.7897 136.342 83.5703 137.293 82.599C138.264 81.607 139.504 81.111 141.013 81.111C142.521 81.111 143.751 81.607 144.702 82.599C145.673 83.5703 146.159 84.7897 146.159 86.257C146.159 87.7243 145.673 88.9437 144.702 89.915ZM129.884 78.197C130.69 78.197 131.351 77.918 131.868 77.36C132.384 76.7813 132.643 76.0477 132.643 75.159C132.643 74.2497 132.384 73.5057 131.868 72.927C131.351 72.3483 130.69 72.059 129.884 72.059C129.098 72.059 128.447 72.3483 127.931 72.927C127.414 73.5057 127.156 74.2497 127.156 75.159C127.156 76.0477 127.414 76.7813 127.931 77.36C128.447 77.918 129.098 78.197 129.884 78.197ZM139.029 88.458C139.545 89.016 140.207 89.295 141.013 89.295C141.819 89.295 142.48 89.016 142.997 88.458C143.513 87.8793 143.772 87.1457 143.772 86.257C143.772 85.3477 143.513 84.6037 142.997 84.025C142.48 83.4463 141.819 83.157 141.013 83.157C140.207 83.157 139.545 83.4463 139.029 84.025C138.512 84.6037 138.254 85.3477 138.254 86.257C138.254 87.1457 138.512 87.8793 139.029 88.458Z" fill="#B6174B"/>
<path d="M166.717 91H165.389V82.024L161.773 91H161.229L157.597 82.024V91H156.269V80.328H158.173L161.501 88.552L164.813 80.328H166.717V91ZM175.575 91H174.375V89.912C174.055 90.2747 173.649 90.5787 173.159 90.824C172.679 91.0693 172.167 91.192 171.623 91.192C169.98 91.192 169.159 90.3707 169.159 88.728V83.272H170.359V88.36C170.359 89 170.508 89.4533 170.807 89.72C171.105 89.9867 171.537 90.12 172.103 90.12C172.551 90.12 172.983 90.008 173.399 89.784C173.815 89.56 174.14 89.2827 174.375 88.952V83.272H175.575V91ZM179.139 81.944C178.99 82.0933 178.803 82.168 178.579 82.168C178.355 82.168 178.163 82.0933 178.003 81.944C177.843 81.784 177.763 81.592 177.763 81.368C177.763 81.144 177.843 80.952 178.003 80.792C178.163 80.632 178.355 80.552 178.579 80.552C178.803 80.552 178.99 80.632 179.139 80.792C179.299 80.952 179.379 81.144 179.379 81.368C179.379 81.592 179.299 81.784 179.139 81.944ZM176.883 94.136C176.243 94.136 175.683 93.944 175.203 93.56L175.619 92.664C175.939 92.984 176.307 93.144 176.723 93.144C177.107 93.144 177.411 93.0267 177.635 92.792C177.859 92.568 177.971 92.2213 177.971 91.752V83.272H179.171V91.752C179.171 92.52 178.974 93.1067 178.579 93.512C178.184 93.928 177.619 94.136 176.883 94.136ZM185.069 91.192C183.906 91.192 182.957 90.8187 182.221 90.072C181.485 89.3147 181.117 88.3333 181.117 87.128C181.117 85.9973 181.48 85.0427 182.205 84.264C182.93 83.4747 183.837 83.08 184.925 83.08C186.066 83.08 186.968 83.4747 187.629 84.264C188.301 85.0427 188.637 86.0293 188.637 87.224V87.528H182.397C182.45 88.2853 182.722 88.92 183.213 89.432C183.714 89.944 184.365 90.2 185.165 90.2C186.125 90.2 186.925 89.8693 187.565 89.208L188.141 89.992C187.32 90.792 186.296 91.192 185.069 91.192ZM187.453 86.632C187.442 85.9813 187.218 85.3947 186.781 84.872C186.344 84.3387 185.72 84.072 184.909 84.072C184.141 84.072 183.533 84.3333 183.085 84.856C182.648 85.3787 182.413 85.9707 182.381 86.632H187.453ZM191.78 91H190.58V83.272H191.78V84.504C192.516 83.5653 193.375 83.096 194.356 83.096V84.328C194.164 84.3067 194.01 84.296 193.892 84.296C193.519 84.296 193.119 84.424 192.692 84.68C192.266 84.9253 191.962 85.208 191.78 85.528V91ZM199.366 91.192C198.203 91.192 197.254 90.8187 196.518 90.072C195.782 89.3147 195.414 88.3333 195.414 87.128C195.414 85.9973 195.776 85.0427 196.502 84.264C197.227 83.4747 198.134 83.08 199.222 83.08C200.363 83.08 201.264 83.4747 201.926 84.264C202.598 85.0427 202.934 86.0293 202.934 87.224V87.528H196.694C196.747 88.2853 197.019 88.92 197.51 89.432C198.011 89.944 198.662 90.2 199.462 90.2C200.422 90.2 201.222 89.8693 201.862 89.208L202.438 89.992C201.616 90.792 200.592 91.192 199.366 91.192ZM201.75 86.632C201.739 85.9813 201.515 85.3947 201.078 84.872C200.64 84.3387 200.016 84.072 199.206 84.072C198.438 84.072 197.83 84.3333 197.382 84.856C196.944 85.3787 196.71 85.9707 196.678 86.632H201.75ZM207.341 91.192C206.04 91.192 205 90.7867 204.221 89.976L204.829 89.112C205.096 89.4213 205.459 89.6827 205.917 89.896C206.387 90.1093 206.872 90.216 207.373 90.216C207.949 90.216 208.397 90.0933 208.717 89.848C209.048 89.6027 209.213 89.2827 209.213 88.888C209.213 88.5467 209.048 88.28 208.717 88.088C208.387 87.8853 207.987 87.736 207.517 87.64C207.048 87.5333 206.579 87.416 206.109 87.288C205.651 87.1493 205.256 86.92 204.925 86.6C204.595 86.2693 204.429 85.8373 204.429 85.304C204.429 84.6747 204.685 84.1467 205.197 83.72C205.709 83.2933 206.408 83.08 207.293 83.08C208.477 83.08 209.432 83.4533 210.157 84.2L209.597 85.032C209.053 84.3813 208.285 84.056 207.293 84.056C206.771 84.056 206.355 84.1733 206.045 84.408C205.736 84.632 205.581 84.92 205.581 85.272C205.581 85.528 205.699 85.7413 205.933 85.912C206.168 86.0827 206.461 86.2053 206.813 86.28C207.176 86.3547 207.56 86.4507 207.965 86.568C208.381 86.6853 208.765 86.8187 209.117 86.968C209.48 87.1067 209.779 87.3413 210.013 87.672C210.248 87.992 210.365 88.3867 210.365 88.856C210.365 89.5387 210.099 90.0987 209.565 90.536C209.043 90.9733 208.301 91.192 207.341 91.192Z" fill="#1A1A1A"/>
<path d="M81.735 50H66.762V47.117C71.1227 43.8103 74.078 41.382 75.628 39.832C77.178 38.282 77.953 36.794 77.953 35.368C77.953 34.3553 77.581 33.5803 76.837 33.043C76.093 32.5057 75.2044 32.237 74.171 32.237C71.9184 32.237 70.0584 33.0533 68.591 34.686L66.483 32.33C67.3717 31.2553 68.4877 30.439 69.831 29.881C71.195 29.3023 72.6314 29.013 74.14 29.013C76.248 29.013 78.015 29.5813 79.441 30.718C80.8877 31.834 81.611 33.384 81.611 35.368C81.611 37.166 80.867 38.9433 79.379 40.7C77.9117 42.4567 75.6487 44.4923 72.59 46.807H81.735V50ZM91.8946 50.341C89.4972 50.341 87.5132 49.5763 85.9426 48.047L87.6476 45.288C88.8049 46.5073 90.2206 47.117 91.8946 47.117C93.6512 47.117 94.9946 46.4453 95.9246 45.102C96.8752 43.7587 97.3506 42.157 97.3506 40.297C97.3506 40.0283 97.3402 39.832 97.3196 39.708C96.8029 40.4727 96.0382 41.1443 95.0256 41.723C94.0129 42.3017 92.9279 42.591 91.7706 42.591C89.8072 42.591 88.1642 42.0123 86.8416 40.855C85.5189 39.677 84.8576 38.034 84.8576 35.926C84.8576 33.9627 85.5602 32.3197 86.9656 30.997C88.3709 29.6537 90.2102 28.982 92.4836 28.982C93.9509 28.982 95.2426 29.2713 96.3586 29.85C97.4746 30.408 98.3632 31.183 99.0246 32.175C99.6859 33.167 100.182 34.2933 100.513 35.554C100.843 36.794 101.009 38.158 101.009 39.646C101.009 42.7667 100.213 45.3293 98.6216 47.334C97.0302 49.3387 94.7879 50.341 91.8946 50.341ZM92.7626 39.491C93.6306 39.491 94.4676 39.274 95.2736 38.84C96.0796 38.3853 96.7512 37.786 97.2886 37.042C97.1646 35.7193 96.7306 34.5827 95.9866 33.632C95.2426 32.6813 94.1369 32.206 92.6696 32.206C91.3882 32.206 90.3756 32.578 89.6316 33.322C88.8876 34.0453 88.5156 34.872 88.5156 35.802C88.5156 37.0007 88.9186 37.9203 89.7246 38.561C90.5306 39.181 91.5432 39.491 92.7626 39.491ZM107.618 48.822C107.618 49.876 107.349 50.868 106.812 51.798C106.295 52.728 105.603 53.503 104.735 54.123L103.247 52.914C103.763 52.604 104.239 52.17 104.673 51.612C105.127 51.054 105.396 50.5167 105.479 50C105.355 50.062 105.179 50.093 104.952 50.093C104.435 50.093 104.001 49.907 103.65 49.535C103.298 49.163 103.123 48.6877 103.123 48.109C103.123 47.5303 103.329 47.0343 103.743 46.621C104.156 46.2077 104.652 46.001 105.231 46.001C105.892 46.001 106.45 46.2593 106.905 46.776C107.38 47.272 107.618 47.954 107.618 48.822ZM125.601 50H110.628V47.117C114.989 43.8103 117.944 41.382 119.494 39.832C121.044 38.282 121.819 36.794 121.819 35.368C121.819 34.3553 121.447 33.5803 120.703 33.043C119.959 32.5057 119.071 32.237 118.037 32.237C115.785 32.237 113.925 33.0533 112.457 34.686L110.349 32.33C111.238 31.2553 112.354 30.439 113.697 29.881C115.061 29.3023 116.498 29.013 118.006 29.013C120.114 29.013 121.881 29.5813 123.307 30.718C124.754 31.834 125.477 33.384 125.477 35.368C125.477 37.166 124.733 38.9433 123.245 40.7C121.778 42.4567 119.515 44.4923 116.456 46.807H125.601V50ZM133.529 39.274C132.02 39.274 130.78 38.7883 129.809 37.817C128.858 36.8457 128.383 35.6263 128.383 34.159C128.383 32.6917 128.858 31.4723 129.809 30.501C130.78 29.509 132.02 29.013 133.529 29.013C135.058 29.013 136.298 29.4987 137.249 30.47C138.199 31.4413 138.675 32.671 138.675 34.159C138.675 35.6263 138.199 36.8457 137.249 37.817C136.298 38.7883 135.058 39.274 133.529 39.274ZM133.591 50H131.514L144.72 29.323H146.828L133.591 50ZM148.347 48.915C147.396 49.8863 146.166 50.372 144.658 50.372C143.149 50.372 141.909 49.8863 140.938 48.915C139.987 47.9437 139.512 46.7243 139.512 45.257C139.512 43.7897 139.987 42.5703 140.938 41.599C141.909 40.607 143.149 40.111 144.658 40.111C146.166 40.111 147.396 40.607 148.347 41.599C149.318 42.5703 149.804 43.7897 149.804 45.257C149.804 46.7243 149.318 47.9437 148.347 48.915ZM133.529 37.197C134.335 37.197 134.996 36.918 135.513 36.36C136.029 35.7813 136.288 35.0477 136.288 34.159C136.288 33.2497 136.029 32.5057 135.513 31.927C134.996 31.3483 134.335 31.059 133.529 31.059C132.743 31.059 132.092 31.3483 131.576 31.927C131.059 32.5057 130.801 33.2497 130.801 34.159C130.801 35.0477 131.059 35.7813 131.576 36.36C132.092 36.918 132.743 37.197 133.529 37.197ZM142.674 47.458C143.19 48.016 143.852 48.295 144.658 48.295C145.464 48.295 146.125 48.016 146.642 47.458C147.158 46.8793 147.417 46.1457 147.417 45.257C147.417 44.3477 147.158 43.6037 146.642 43.025C146.125 42.4463 145.464 42.157 144.658 42.157C143.852 42.157 143.19 42.4463 142.674 43.025C142.157 43.6037 141.899 44.3477 141.899 45.257C141.899 46.1457 142.157 46.8793 142.674 47.458Z" fill="#1D5556"/>
<path d="M168.81 50H167.482V45.104H161.242V50H159.914V39.328H161.242V43.92H167.482V39.328H168.81V50ZM177.401 49.024C176.707 49.8027 175.785 50.192 174.633 50.192C173.481 50.192 172.553 49.8027 171.849 49.024C171.155 48.2453 170.809 47.28 170.809 46.128C170.809 44.976 171.155 44.016 171.849 43.248C172.553 42.4693 173.481 42.08 174.633 42.08C175.785 42.08 176.707 42.4693 177.401 43.248C178.105 44.016 178.457 44.976 178.457 46.128C178.457 47.28 178.105 48.2453 177.401 49.024ZM172.761 48.256C173.219 48.832 173.843 49.12 174.633 49.12C175.422 49.12 176.046 48.832 176.505 48.256C176.963 47.6693 177.193 46.96 177.193 46.128C177.193 45.296 176.963 44.592 176.505 44.016C176.046 43.44 175.422 43.152 174.633 43.152C173.843 43.152 173.219 43.44 172.761 44.016C172.302 44.592 172.073 45.296 172.073 46.128C172.073 46.96 172.302 47.6693 172.761 48.256ZM190.941 50H189.741V44.752C189.741 43.6853 189.266 43.152 188.317 43.152C187.933 43.152 187.549 43.2693 187.165 43.504C186.781 43.728 186.482 44.0053 186.269 44.336V50H185.069V44.752C185.069 43.6853 184.594 43.152 183.645 43.152C183.272 43.152 182.893 43.2693 182.509 43.504C182.136 43.7387 181.837 44.0213 181.613 44.352V50H180.413V42.272H181.613V43.392C181.816 43.0827 182.152 42.7893 182.621 42.512C183.101 42.224 183.602 42.08 184.125 42.08C184.68 42.08 185.133 42.2133 185.485 42.48C185.837 42.7467 186.072 43.0933 186.189 43.52C186.424 43.136 186.781 42.8 187.261 42.512C187.741 42.224 188.248 42.08 188.781 42.08C190.221 42.08 190.941 42.8587 190.941 44.416V50ZM194.535 47.904C194.748 48.2453 195.068 48.5333 195.495 48.768C195.932 49.0027 196.386 49.12 196.855 49.12C197.612 49.12 198.215 48.8427 198.663 48.288C199.111 47.7333 199.335 47.0187 199.335 46.144C199.335 45.2693 199.111 44.5547 198.663 44C198.215 43.4347 197.612 43.152 196.855 43.152C196.386 43.152 195.932 43.2747 195.495 43.52C195.068 43.7547 194.748 44.048 194.535 44.4V47.904ZM194.535 50H193.335V39.328H194.535V43.44C195.207 42.5333 196.076 42.08 197.143 42.08C198.167 42.08 198.994 42.4533 199.623 43.2C200.263 43.936 200.583 44.9173 200.583 46.144C200.583 47.3813 200.263 48.368 199.623 49.104C198.994 49.8293 198.167 50.192 197.143 50.192C196.066 50.192 195.196 49.744 194.535 48.848V50ZM203.738 50H202.538V42.272H203.738V43.504C204.474 42.5653 205.333 42.096 206.314 42.096V43.328C206.122 43.3067 205.967 43.296 205.85 43.296C205.477 43.296 205.077 43.424 204.65 43.68C204.223 43.9253 203.919 44.208 203.738 44.528V50ZM211.323 50.192C210.161 50.192 209.211 49.8187 208.475 49.072C207.739 48.3147 207.371 47.3333 207.371 46.128C207.371 44.9973 207.734 44.0427 208.459 43.264C209.185 42.4747 210.091 42.08 211.179 42.08C212.321 42.08 213.222 42.4747 213.883 43.264C214.555 44.0427 214.891 45.0293 214.891 46.224V46.528H208.651C208.705 47.2853 208.977 47.92 209.467 48.432C209.969 48.944 210.619 49.2 211.419 49.2C212.379 49.2 213.179 48.8693 213.819 48.208L214.395 48.992C213.574 49.792 212.55 50.192 211.323 50.192ZM213.707 45.632C213.697 44.9813 213.473 44.3947 213.035 43.872C212.598 43.3387 211.974 43.072 211.163 43.072C210.395 43.072 209.787 43.3333 209.339 43.856C208.902 44.3787 208.667 44.9707 208.635 45.632H213.707ZM219.299 50.192C217.998 50.192 216.958 49.7867 216.179 48.976L216.787 48.112C217.054 48.4213 217.416 48.6827 217.875 48.896C218.344 49.1093 218.83 49.216 219.331 49.216C219.907 49.216 220.355 49.0933 220.675 48.848C221.006 48.6027 221.171 48.2827 221.171 47.888C221.171 47.5467 221.006 47.28 220.675 47.088C220.344 46.8853 219.944 46.736 219.475 46.64C219.006 46.5333 218.536 46.416 218.067 46.288C217.608 46.1493 217.214 45.92 216.883 45.6C216.552 45.2693 216.387 44.8373 216.387 44.304C216.387 43.6747 216.643 43.1467 217.155 42.72C217.667 42.2933 218.366 42.08 219.251 42.08C220.435 42.08 221.39 42.4533 222.115 43.2L221.555 44.032C221.011 43.3813 220.243 43.056 219.251 43.056C218.728 43.056 218.312 43.1733 218.003 43.408C217.694 43.632 217.539 43.92 217.539 44.272C217.539 44.528 217.656 44.7413 217.891 44.912C218.126 45.0827 218.419 45.2053 218.771 45.28C219.134 45.3547 219.518 45.4507 219.923 45.568C220.339 45.6853 220.723 45.8187 221.075 45.968C221.438 46.1067 221.736 46.3413 221.971 46.672C222.206 46.992 222.323 47.3867 222.323 47.856C222.323 48.5387 222.056 49.0987 221.523 49.536C221 49.9733 220.259 50.192 219.299 50.192Z" fill="#1A1A1A"/>
<path d="M22.5714 0C30.8819 0 37.619 6.71578 37.619 15C37.619 23.2842 30.8819 30 22.5714 30C14.2609 30 7.52381 23.2842 7.52381 15C7.52381 6.71578 14.2609 0 22.5714 0ZM33.8571 33.75H31.1862C25.8464 36.1976 19.5266 36.3033 13.9567 33.75H11.2857C5.05271 33.75 0 38.7867 0 45V76.875C0 79.9816 2.52635 82.5 5.64286 82.5H9.40476V114.375C9.40476 117.482 11.9311 120 15.0476 120H30.0952C33.2117 120 35.7381 117.482 35.7381 114.375V82.5H39.5C42.6165 82.5 45.1429 79.9816 45.1429 76.875V45C45.1429 38.7867 40.0901 33.75 33.8571 33.75Z" fill="#B6174B"/>
<path fill-rule="evenodd" clip-rule="evenodd" d="M37.619 15C37.619 6.71578 30.8819 0 22.5714 0C14.2609 0 7.52381 6.71578 7.52381 15C7.52381 23.2842 14.2609 30 22.5714 30C30.8819 30 37.619 23.2842 37.619 15ZM31.1862 33.75H33.8571C40.0901 33.75 45.1429 38.7867 45.1429 45V76.875C45.1429 77.3093 45.0935 77.7322 45 78.1382V70H0V45C0 38.7867 5.05271 33.75 11.2857 33.75H13.9567C19.5266 36.3033 25.8464 36.1976 31.1862 33.75Z" fill="#1D5556"/>
</svg>
