<svg width="175" height="32" viewBox="0 0 175 32" fill="none" xmlns="http://www.w3.org/2000/svg">
<path d="M6.01905 0C8.23519 0 10.0317 1.79087 10.0317 4C10.0317 6.20913 8.23519 8 6.01905 8C3.80291 8 2.00635 6.20913 2.00635 4C2.00635 1.79087 3.80291 0 6.01905 0ZM9.02857 9H8.31632C6.89237 9.65269 5.2071 9.68087 3.72178 9H3.00952C1.34739 9 0 10.3431 0 12V20.5C0 21.3284 0.673694 22 1.50476 22H2.50794V30.5C2.50794 31.3284 3.18163 32 4.0127 32H8.0254C8.85646 32 9.53016 31.3284 9.53016 30.5V22H10.5333C11.3644 22 12.0381 21.3284 12.0381 20.5V12C12.0381 10.3431 10.6907 9 9.02857 9Z" fill="#1D5556"/>
<path opacity="0.2" d="M60.1334 0C62.3495 0 64.146 1.79087 64.146 4C64.146 6.20913 62.3495 8 60.1334 8C57.9172 8 56.1207 6.20913 56.1207 4C56.1207 1.79087 57.9172 0 60.1334 0ZM63.1429 9H62.4306C61.0067 9.65269 59.3214 9.68087 57.8361 9H57.1238C55.4617 9 54.1143 10.3431 54.1143 12V20.5C54.1143 21.3284 54.788 22 55.6191 22H56.6222V30.5C56.6222 31.3284 57.2959 32 58.127 32H62.1397C62.9708 32 63.6445 31.3284 63.6445 30.5V22H64.6476C65.4787 22 66.1524 21.3284 66.1524 20.5V12C66.1524 10.3431 64.805 9 63.1429 9Z" fill="#1A1A1A"/>
<path opacity="0.2" d="M96.2095 0C98.4257 0 100.222 1.79087 100.222 4C100.222 6.20913 98.4257 8 96.2095 8C93.9934 8 92.1968 6.20913 92.1968 4C92.1968 1.79087 93.9934 0 96.2095 0ZM99.2191 9H98.5068C97.0829 9.65269 95.3976 9.68087 93.9123 9H93.2C91.5379 9 90.1905 10.3431 90.1905 12V20.5C90.1905 21.3284 90.8642 22 91.6953 22H92.6984V30.5C92.6984 31.3284 93.3721 32 94.2032 32H98.2159C99.047 32 99.7206 31.3284 99.7206 30.5V22H100.724C101.555 22 102.229 21.3284 102.229 20.5V12C102.229 10.3431 100.881 9 99.2191 9Z" fill="#1A1A1A"/>
<path opacity="0.2" d="M132.286 0C134.502 0 136.298 1.79087 136.298 4C136.298 6.20913 134.502 8 132.286 8C130.07 8 128.273 6.20913 128.273 4C128.273 1.79087 130.07 0 132.286 0ZM135.295 9H134.583C133.159 9.65269 131.474 9.68087 129.988 9H129.276C127.614 9 126.267 10.3431 126.267 12V20.5C126.267 21.3284 126.94 22 127.771 22H128.775V30.5C128.775 31.3284 129.448 32 130.279 32H134.292C135.123 32 135.797 31.3284 135.797 30.5V22H136.8C137.631 22 138.305 21.3284 138.305 20.5V12C138.305 10.3431 136.957 9 135.295 9Z" fill="#1A1A1A"/>
<path opacity="0.2" d="M168.362 0C170.578 0 172.375 1.79087 172.375 4C172.375 6.20913 170.578 8 168.362 8C166.146 8 164.349 6.20913 164.349 4C164.349 1.79087 166.146 0 168.362 0ZM171.371 9H170.659C169.235 9.65269 167.55 9.68087 166.065 9H165.352C163.69 9 162.343 10.3431 162.343 12V20.5C162.343 21.3284 163.017 22 163.848 22H164.851V30.5C164.851 31.3284 165.524 32 166.356 32H170.368C171.199 32 171.873 31.3284 171.873 30.5V22H172.876C173.707 22 174.381 21.3284 174.381 20.5V12C174.381 10.3431 173.034 9 171.371 9Z" fill="#1A1A1A"/>
<path opacity="0.2" d="M42.0952 0C44.3114 0 46.1079 1.79087 46.1079 4C46.1079 6.20913 44.3114 8 42.0952 8C39.8791 8 38.0826 6.20913 38.0826 4C38.0826 1.79087 39.8791 0 42.0952 0ZM45.1048 9H44.3925C42.9686 9.65269 41.2833 9.68087 39.798 9H39.0857C37.4236 9 36.0762 10.3431 36.0762 12V20.5C36.0762 21.3284 36.7499 22 37.581 22H38.5841V30.5C38.5841 31.3284 39.2578 32 40.0889 32H44.1016C44.9327 32 45.6064 31.3284 45.6064 30.5V22H46.6095C47.4406 22 48.1143 21.3284 48.1143 20.5V12C48.1143 10.3431 46.7669 9 45.1048 9Z" fill="#1A1A1A"/>
<g clip-path="url(#clip0_2594_975)">
<path d="M24.019 0C26.2352 0 28.0317 1.79087 28.0317 4C28.0317 6.20913 26.2352 8 24.019 8C21.8029 8 20.0063 6.20913 20.0063 4C20.0063 1.79087 21.8029 0 24.019 0ZM27.0286 9H26.3163C24.8924 9.65269 23.2071 9.68087 21.7218 9H21.0095C19.3474 9 18 10.3431 18 12V20.5C18 21.3284 18.6737 22 19.5048 22H20.5079V30.5C20.5079 31.3284 21.1816 32 22.0127 32H26.0254C26.8565 32 27.5302 31.3284 27.5302 30.5V22H28.5333C29.3644 22 30.0381 21.3284 30.0381 20.5V12C30.0381 10.3431 28.6907 9 27.0286 9Z" fill="#1D5556"/>
</g>
<path opacity="0.2" d="M24.019 0C26.2352 0 28.0317 1.79087 28.0317 4C28.0317 6.20913 26.2352 8 24.019 8C21.8029 8 20.0063 6.20913 20.0063 4C20.0063 1.79087 21.8029 0 24.019 0ZM27.0286 9H26.3163C24.8924 9.65269 23.2071 9.68087 21.7218 9H21.0095C19.3474 9 18 10.3431 18 12V20.5C18 21.3284 18.6737 22 19.5048 22H20.5079V30.5C20.5079 31.3284 21.1816 32 22.0127 32H26.0254C26.8565 32 27.5302 31.3284 27.5302 30.5V22H28.5333C29.3644 22 30.0381 21.3284 30.0381 20.5V12C30.0381 10.3431 28.6907 9 27.0286 9Z" fill="#1A1A1A"/>
<path opacity="0.2" d="M78.1715 0C80.3876 0 82.1842 1.79087 82.1842 4C82.1842 6.20913 80.3876 8 78.1715 8C75.9553 8 74.1588 6.20913 74.1588 4C74.1588 1.79087 75.9553 0 78.1715 0ZM81.181 9H80.4687C79.0448 9.65269 77.3595 9.68087 75.8742 9H75.1619C73.4998 9 72.1524 10.3431 72.1524 12V20.5C72.1524 21.3284 72.8261 22 73.6572 22H74.6603V30.5C74.6603 31.3284 75.334 32 76.1651 32H80.1778C81.0089 32 81.6826 31.3284 81.6826 30.5V22H82.6857C83.5168 22 84.1905 21.3284 84.1905 20.5V12C84.1905 10.3431 82.8431 9 81.181 9Z" fill="#1A1A1A"/>
<path opacity="0.2" d="M114.248 0C116.464 0 118.26 1.79087 118.26 4C118.26 6.20913 116.464 8 114.248 8C112.031 8 110.235 6.20913 110.235 4C110.235 1.79087 112.031 0 114.248 0ZM117.257 9H116.545C115.121 9.65269 113.436 9.68087 111.95 9H111.238C109.576 9 108.229 10.3431 108.229 12V20.5C108.229 21.3284 108.902 22 109.733 22H110.737V30.5C110.737 31.3284 111.41 32 112.241 32H116.254C117.085 32 117.759 31.3284 117.759 30.5V22H118.762C119.593 22 120.267 21.3284 120.267 20.5V12C120.267 10.3431 118.919 9 117.257 9Z" fill="#1A1A1A"/>
<path opacity="0.2" d="M150.324 0C152.54 0 154.336 1.79087 154.336 4C154.336 6.20913 152.54 8 150.324 8C148.108 8 146.311 6.20913 146.311 4C146.311 1.79087 148.108 0 150.324 0ZM153.333 9H152.621C151.197 9.65269 149.512 9.68087 148.027 9H147.314C145.652 9 144.305 10.3431 144.305 12V20.5C144.305 21.3284 144.978 22 145.81 22H146.813V30.5C146.813 31.3284 147.486 32 148.317 32H152.33C153.161 32 153.835 31.3284 153.835 30.5V22H154.838C155.669 22 156.343 21.3284 156.343 20.5V12C156.343 10.3431 154.995 9 153.333 9Z" fill="#1A1A1A"/>
<defs>
<clipPath id="clip0_2594_975">
<rect width="6" height="32" fill="white" transform="translate(18)"/>
</clipPath>
</defs>
</svg>
