<svg width="491" height="53" viewBox="0 0 491 53" fill="none" xmlns="http://www.w3.org/2000/svg">
<rect width="484.772" height="11.0002" rx="5.5" transform="matrix(-1 0 0.00526378 -0.999986 484.779 52.8262)" fill="url(#paint0_linear_2622_1050)"/>
<line opacity="0.4" x1="0.5" y1="-0.5" x2="14.5" y2="-0.5" transform="matrix(0.00655257 -0.999978 0.999999 0.0012889 13.6007 41.5312)" stroke="#1A1A1A" stroke-linecap="round"/>
<path d="M11.6495 11.192C10.9455 11.192 10.3215 11.032 9.77754 10.712C9.24421 10.3813 8.81754 9.944 8.49754 9.4C8.18821 8.856 7.95354 8.26933 7.79354 7.64C7.64421 7.01067 7.56954 6.35467 7.56954 5.672C7.56954 4.98933 7.64421 4.33333 7.79354 3.704C7.95354 3.07467 8.18821 2.49333 8.49754 1.96C8.81754 1.416 9.24421 0.983999 9.77754 0.664C10.3215 0.333333 10.9455 0.167999 11.6495 0.167999C12.3429 0.167999 12.9615 0.333333 13.5055 0.664C14.0495 0.983999 14.4762 1.416 14.7855 1.96C15.1055 2.49333 15.3402 3.07467 15.4895 3.704C15.6495 4.33333 15.7295 4.98933 15.7295 5.672C15.7295 6.35467 15.6495 7.01067 15.4895 7.64C15.3402 8.26933 15.1055 8.856 14.7855 9.4C14.4762 9.944 14.0495 10.3813 13.5055 10.712C12.9615 11.032 12.3429 11.192 11.6495 11.192ZM10.0495 9.352C10.4762 9.78933 11.0095 10.008 11.6495 10.008C12.2895 10.008 12.8229 9.78933 13.2495 9.352C13.6762 8.904 13.9695 8.37067 14.1295 7.752C14.2895 7.13333 14.3695 6.44 14.3695 5.672C14.3695 4.904 14.2895 4.21067 14.1295 3.592C13.9695 2.97333 13.6762 2.44533 13.2495 2.008C12.8229 1.57067 12.2895 1.352 11.6495 1.352C11.0095 1.352 10.4762 1.57067 10.0495 2.008C9.62287 2.44533 9.32954 2.97333 9.16954 3.592C9.00954 4.21067 8.92954 4.904 8.92954 5.672C8.92954 6.44 9.00954 7.13333 9.16954 7.752C9.32954 8.37067 9.62287 8.904 10.0495 9.352ZM21.4784 4.696C20.9984 5.18667 20.3797 5.432 19.6224 5.432C18.8651 5.432 18.2464 5.18667 17.7664 4.696C17.2864 4.19467 17.0464 3.57067 17.0464 2.824C17.0464 2.056 17.2864 1.42133 17.7664 0.919999C18.2464 0.418666 18.8651 0.167999 19.6224 0.167999C20.3797 0.167999 20.9984 0.418666 21.4784 0.919999C21.9584 1.42133 22.1984 2.056 22.1984 2.824C22.1984 3.57067 21.9584 4.19467 21.4784 4.696ZM19.4784 11H18.5984L25.4144 0.327999H26.3104L19.4784 11ZM27.0304 10.456C26.5611 10.9467 25.9477 11.192 25.1904 11.192C24.4331 11.192 23.8144 10.9413 23.3344 10.44C22.8544 9.93867 22.6144 9.31467 22.6144 8.568C22.6144 7.81067 22.8544 7.18133 23.3344 6.68C23.8144 6.17867 24.4331 5.928 25.1904 5.928C25.9371 5.928 26.5504 6.17867 27.0304 6.68C27.5104 7.18133 27.7504 7.81067 27.7504 8.568C27.7504 9.32533 27.5104 9.95467 27.0304 10.456ZM18.4544 4.104C18.7637 4.44533 19.1531 4.616 19.6224 4.616C20.0917 4.616 20.4757 4.44533 20.7744 4.104C21.0837 3.76267 21.2384 3.336 21.2384 2.824C21.2384 2.29067 21.0891 1.85333 20.7904 1.512C20.4917 1.16 20.1024 0.983999 19.6224 0.983999C19.1531 0.983999 18.7637 1.16 18.4544 1.512C18.1557 1.85333 18.0064 2.29067 18.0064 2.824C18.0064 3.336 18.1557 3.76267 18.4544 4.104ZM24.0064 9.864C24.3157 10.2053 24.7104 10.376 25.1904 10.376C25.6704 10.376 26.0597 10.2053 26.3584 9.864C26.6571 9.52267 26.8064 9.09067 26.8064 8.568C26.8064 8.04533 26.6571 7.61333 26.3584 7.272C26.0597 6.92 25.6704 6.744 25.1904 6.744C24.7104 6.744 24.3157 6.92 24.0064 7.272C23.7077 7.61333 23.5584 8.04533 23.5584 8.568C23.5584 9.09067 23.7077 9.52267 24.0064 9.864Z" fill="#505050"/>
<line opacity="0.4" x1="0.5" y1="-0.5" x2="14.5" y2="-0.5" transform="matrix(0.00655257 -0.999978 0.999999 0.0012889 128.593 41.6797)" stroke="#1A1A1A" stroke-linecap="round"/>
<path d="M121.036 11H113.708V9.928C115.895 8.22133 117.431 6.904 118.316 5.976C119.201 5.048 119.644 4.15733 119.644 3.304C119.644 2.664 119.42 2.17867 118.972 1.848C118.535 1.51733 118.012 1.352 117.404 1.352C116.177 1.352 115.212 1.8 114.508 2.696L113.692 1.848C114.097 1.31467 114.625 0.903999 115.276 0.615999C115.937 0.317333 116.647 0.167999 117.404 0.167999C118.375 0.167999 119.212 0.439999 119.916 0.983999C120.631 1.528 120.988 2.30133 120.988 3.304C120.988 4.296 120.561 5.288 119.708 6.28C118.855 7.26133 117.553 8.44 115.804 9.816H121.036V11ZM127.066 11.192C125.424 11.192 124.17 10.6213 123.306 9.48L124.122 8.584C124.858 9.53333 125.84 10.008 127.066 10.008C127.792 10.008 128.384 9.78933 128.842 9.352C129.301 8.91467 129.53 8.37067 129.53 7.72C129.53 7.02667 129.301 6.472 128.842 6.056C128.394 5.62933 127.808 5.416 127.082 5.416C126.133 5.416 125.312 5.74667 124.618 6.408L123.642 6.072V0.327999H130.17V1.512H124.97V5.224C125.632 4.584 126.464 4.264 127.466 4.264C128.416 4.264 129.221 4.568 129.882 5.176C130.544 5.784 130.874 6.616 130.874 7.672C130.874 8.728 130.512 9.58133 129.786 10.232C129.072 10.872 128.165 11.192 127.066 11.192ZM136.616 4.696C136.136 5.18667 135.517 5.432 134.76 5.432C134.003 5.432 133.384 5.18667 132.904 4.696C132.424 4.19467 132.184 3.57067 132.184 2.824C132.184 2.056 132.424 1.42133 132.904 0.919999C133.384 0.418666 134.003 0.167999 134.76 0.167999C135.517 0.167999 136.136 0.418666 136.616 0.919999C137.096 1.42133 137.336 2.056 137.336 2.824C137.336 3.57067 137.096 4.19467 136.616 4.696ZM134.616 11H133.736L140.552 0.327999H141.448L134.616 11ZM142.168 10.456C141.699 10.9467 141.085 11.192 140.328 11.192C139.571 11.192 138.952 10.9413 138.472 10.44C137.992 9.93867 137.752 9.31467 137.752 8.568C137.752 7.81067 137.992 7.18133 138.472 6.68C138.952 6.17867 139.571 5.928 140.328 5.928C141.075 5.928 141.688 6.17867 142.168 6.68C142.648 7.18133 142.888 7.81067 142.888 8.568C142.888 9.32533 142.648 9.95467 142.168 10.456ZM133.592 4.104C133.901 4.44533 134.291 4.616 134.76 4.616C135.229 4.616 135.613 4.44533 135.912 4.104C136.221 3.76267 136.376 3.336 136.376 2.824C136.376 2.29067 136.227 1.85333 135.928 1.512C135.629 1.16 135.24 0.983999 134.76 0.983999C134.291 0.983999 133.901 1.16 133.592 1.512C133.293 1.85333 133.144 2.29067 133.144 2.824C133.144 3.336 133.293 3.76267 133.592 4.104ZM139.144 9.864C139.453 10.2053 139.848 10.376 140.328 10.376C140.808 10.376 141.197 10.2053 141.496 9.864C141.795 9.52267 141.944 9.09067 141.944 8.568C141.944 8.04533 141.795 7.61333 141.496 7.272C141.197 6.92 140.808 6.744 140.328 6.744C139.848 6.744 139.453 6.92 139.144 7.272C138.845 7.61333 138.696 8.04533 138.696 8.568C138.696 9.09067 138.845 9.52267 139.144 9.864Z" fill="#505050"/>
<line opacity="0.4" x1="0.5" y1="-0.5" x2="14.5" y2="-0.5" transform="matrix(0.00655257 -0.999978 0.999999 0.0012889 243.585 41.8281)" stroke="#1A1A1A" stroke-linecap="round"/>
<path d="M232.66 11.192C231.017 11.192 229.764 10.6213 228.9 9.48L229.716 8.584C230.452 9.53333 231.433 10.008 232.66 10.008C233.385 10.008 233.977 9.78933 234.436 9.352C234.895 8.91467 235.124 8.37067 235.124 7.72C235.124 7.02667 234.895 6.472 234.436 6.056C233.988 5.62933 233.401 5.416 232.676 5.416C231.727 5.416 230.905 5.74667 230.212 6.408L229.236 6.072V0.327999H235.764V1.512H230.564V5.224C231.225 4.584 232.057 4.264 233.06 4.264C234.009 4.264 234.815 4.568 235.476 5.176C236.137 5.784 236.468 6.616 236.468 7.672C236.468 8.728 236.105 9.58133 235.38 10.232C234.665 10.872 233.759 11.192 232.66 11.192ZM242.177 11.192C241.473 11.192 240.849 11.032 240.305 10.712C239.772 10.3813 239.345 9.944 239.025 9.4C238.716 8.856 238.481 8.26933 238.321 7.64C238.172 7.01067 238.097 6.35467 238.097 5.672C238.097 4.98933 238.172 4.33333 238.321 3.704C238.481 3.07467 238.716 2.49333 239.025 1.96C239.345 1.416 239.772 0.983999 240.305 0.664C240.849 0.333333 241.473 0.167999 242.177 0.167999C242.871 0.167999 243.489 0.333333 244.033 0.664C244.577 0.983999 245.004 1.416 245.313 1.96C245.633 2.49333 245.868 3.07467 246.017 3.704C246.177 4.33333 246.257 4.98933 246.257 5.672C246.257 6.35467 246.177 7.01067 246.017 7.64C245.868 8.26933 245.633 8.856 245.313 9.4C245.004 9.944 244.577 10.3813 244.033 10.712C243.489 11.032 242.871 11.192 242.177 11.192ZM240.577 9.352C241.004 9.78933 241.537 10.008 242.177 10.008C242.817 10.008 243.351 9.78933 243.777 9.352C244.204 8.904 244.497 8.37067 244.657 7.752C244.817 7.13333 244.897 6.44 244.897 5.672C244.897 4.904 244.817 4.21067 244.657 3.592C244.497 2.97333 244.204 2.44533 243.777 2.008C243.351 1.57067 242.817 1.352 242.177 1.352C241.537 1.352 241.004 1.57067 240.577 2.008C240.151 2.44533 239.857 2.97333 239.697 3.592C239.537 4.21067 239.457 4.904 239.457 5.672C239.457 6.44 239.537 7.13333 239.697 7.752C239.857 8.37067 240.151 8.904 240.577 9.352ZM252.006 4.696C251.526 5.18667 250.908 5.432 250.15 5.432C249.393 5.432 248.774 5.18667 248.294 4.696C247.814 4.19467 247.574 3.57067 247.574 2.824C247.574 2.056 247.814 1.42133 248.294 0.919999C248.774 0.418666 249.393 0.167999 250.15 0.167999C250.908 0.167999 251.526 0.418666 252.006 0.919999C252.486 1.42133 252.726 2.056 252.726 2.824C252.726 3.57067 252.486 4.19467 252.006 4.696ZM250.006 11H249.126L255.942 0.327999H256.838L250.006 11ZM257.558 10.456C257.089 10.9467 256.476 11.192 255.718 11.192C254.961 11.192 254.342 10.9413 253.862 10.44C253.382 9.93867 253.142 9.31467 253.142 8.568C253.142 7.81067 253.382 7.18133 253.862 6.68C254.342 6.17867 254.961 5.928 255.718 5.928C256.465 5.928 257.078 6.17867 257.558 6.68C258.038 7.18133 258.278 7.81067 258.278 8.568C258.278 9.32533 258.038 9.95467 257.558 10.456ZM248.982 4.104C249.292 4.44533 249.681 4.616 250.15 4.616C250.62 4.616 251.004 4.44533 251.302 4.104C251.612 3.76267 251.766 3.336 251.766 2.824C251.766 2.29067 251.617 1.85333 251.318 1.512C251.02 1.16 250.63 0.983999 250.15 0.983999C249.681 0.983999 249.292 1.16 248.982 1.512C248.684 1.85333 248.534 2.29067 248.534 2.824C248.534 3.336 248.684 3.76267 248.982 4.104ZM254.534 9.864C254.844 10.2053 255.238 10.376 255.718 10.376C256.198 10.376 256.588 10.2053 256.886 9.864C257.185 9.52267 257.334 9.09067 257.334 8.568C257.334 8.04533 257.185 7.61333 256.886 7.272C256.588 6.92 256.198 6.744 255.718 6.744C255.238 6.744 254.844 6.92 254.534 7.272C254.236 7.61333 254.086 8.04533 254.086 8.568C254.086 9.09067 254.236 9.52267 254.534 9.864Z" fill="#505050"/>
<line opacity="0.4" x1="0.5" y1="-0.5" x2="14.5" y2="-0.5" transform="matrix(0.00655257 -0.999978 0.999999 0.0012889 358.578 41.9766)" stroke="#1A1A1A" stroke-linecap="round"/>
<path d="M347.252 11H345.78L350.084 1.512H344.34V0.327999H351.62V1.24L347.252 11ZM356.894 11.192C355.252 11.192 353.998 10.6213 353.134 9.48L353.95 8.584C354.686 9.53333 355.668 10.008 356.894 10.008C357.62 10.008 358.212 9.78933 358.67 9.352C359.129 8.91467 359.358 8.37067 359.358 7.72C359.358 7.02667 359.129 6.472 358.67 6.056C358.222 5.62933 357.636 5.416 356.91 5.416C355.961 5.416 355.14 5.74667 354.446 6.408L353.47 6.072V0.327999H359.998V1.512H354.798V5.224C355.46 4.584 356.292 4.264 357.294 4.264C358.244 4.264 359.049 4.568 359.71 5.176C360.372 5.784 360.702 6.616 360.702 7.672C360.702 8.728 360.34 9.58133 359.614 10.232C358.9 10.872 357.993 11.192 356.894 11.192ZM366.444 4.696C365.964 5.18667 365.345 5.432 364.588 5.432C363.831 5.432 363.212 5.18667 362.732 4.696C362.252 4.19467 362.012 3.57067 362.012 2.824C362.012 2.056 362.252 1.42133 362.732 0.919999C363.212 0.418666 363.831 0.167999 364.588 0.167999C365.345 0.167999 365.964 0.418666 366.444 0.919999C366.924 1.42133 367.164 2.056 367.164 2.824C367.164 3.57067 366.924 4.19467 366.444 4.696ZM364.444 11H363.564L370.38 0.327999H371.276L364.444 11ZM371.996 10.456C371.527 10.9467 370.913 11.192 370.156 11.192C369.399 11.192 368.78 10.9413 368.3 10.44C367.82 9.93867 367.58 9.31467 367.58 8.568C367.58 7.81067 367.82 7.18133 368.3 6.68C368.78 6.17867 369.399 5.928 370.156 5.928C370.903 5.928 371.516 6.17867 371.996 6.68C372.476 7.18133 372.716 7.81067 372.716 8.568C372.716 9.32533 372.476 9.95467 371.996 10.456ZM363.42 4.104C363.729 4.44533 364.119 4.616 364.588 4.616C365.057 4.616 365.441 4.44533 365.74 4.104C366.049 3.76267 366.204 3.336 366.204 2.824C366.204 2.29067 366.055 1.85333 365.756 1.512C365.457 1.16 365.068 0.983999 364.588 0.983999C364.119 0.983999 363.729 1.16 363.42 1.512C363.121 1.85333 362.972 2.29067 362.972 2.824C362.972 3.336 363.121 3.76267 363.42 4.104ZM368.972 9.864C369.281 10.2053 369.676 10.376 370.156 10.376C370.636 10.376 371.025 10.2053 371.324 9.864C371.623 9.52267 371.772 9.09067 371.772 8.568C371.772 8.04533 371.623 7.61333 371.324 7.272C371.025 6.92 370.636 6.744 370.156 6.744C369.676 6.744 369.281 6.92 368.972 7.272C368.673 7.61333 368.524 8.04533 368.524 8.568C368.524 9.09067 368.673 9.52267 368.972 9.864Z" fill="#505050"/>
<line opacity="0.4" x1="0.5" y1="-0.5" x2="14.5" y2="-0.5" transform="matrix(0.00655257 -0.999978 0.999999 0.0012889 473.57 42.125)" stroke="#1A1A1A" stroke-linecap="round"/>
<path d="M458.02 11H456.692V2.072L454.98 3.896L454.18 3.08L456.852 0.327999H458.02V11ZM464.162 11.192C463.458 11.192 462.834 11.032 462.29 10.712C461.757 10.3813 461.33 9.944 461.01 9.4C460.701 8.856 460.466 8.26933 460.306 7.64C460.157 7.01067 460.082 6.35467 460.082 5.672C460.082 4.98933 460.157 4.33333 460.306 3.704C460.466 3.07467 460.701 2.49333 461.01 1.96C461.33 1.416 461.757 0.983999 462.29 0.664C462.834 0.333333 463.458 0.167999 464.162 0.167999C464.855 0.167999 465.474 0.333333 466.018 0.664C466.562 0.983999 466.989 1.416 467.298 1.96C467.618 2.49333 467.853 3.07467 468.002 3.704C468.162 4.33333 468.242 4.98933 468.242 5.672C468.242 6.35467 468.162 7.01067 468.002 7.64C467.853 8.26933 467.618 8.856 467.298 9.4C466.989 9.944 466.562 10.3813 466.018 10.712C465.474 11.032 464.855 11.192 464.162 11.192ZM462.562 9.352C462.989 9.78933 463.522 10.008 464.162 10.008C464.802 10.008 465.335 9.78933 465.762 9.352C466.189 8.904 466.482 8.37067 466.642 7.752C466.802 7.13333 466.882 6.44 466.882 5.672C466.882 4.904 466.802 4.21067 466.642 3.592C466.482 2.97333 466.189 2.44533 465.762 2.008C465.335 1.57067 464.802 1.352 464.162 1.352C463.522 1.352 462.989 1.57067 462.562 2.008C462.135 2.44533 461.842 2.97333 461.682 3.592C461.522 4.21067 461.442 4.904 461.442 5.672C461.442 6.44 461.522 7.13333 461.682 7.752C461.842 8.37067 462.135 8.904 462.562 9.352ZM473.959 11.192C473.255 11.192 472.631 11.032 472.087 10.712C471.553 10.3813 471.127 9.944 470.807 9.4C470.497 8.856 470.263 8.26933 470.103 7.64C469.953 7.01067 469.879 6.35467 469.879 5.672C469.879 4.98933 469.953 4.33333 470.103 3.704C470.263 3.07467 470.497 2.49333 470.807 1.96C471.127 1.416 471.553 0.983999 472.087 0.664C472.631 0.333333 473.255 0.167999 473.959 0.167999C474.652 0.167999 475.271 0.333333 475.815 0.664C476.359 0.983999 476.785 1.416 477.095 1.96C477.415 2.49333 477.649 3.07467 477.799 3.704C477.959 4.33333 478.039 4.98933 478.039 5.672C478.039 6.35467 477.959 7.01067 477.799 7.64C477.649 8.26933 477.415 8.856 477.095 9.4C476.785 9.944 476.359 10.3813 475.815 10.712C475.271 11.032 474.652 11.192 473.959 11.192ZM472.359 9.352C472.785 9.78933 473.319 10.008 473.959 10.008C474.599 10.008 475.132 9.78933 475.559 9.352C475.985 8.904 476.279 8.37067 476.439 7.752C476.599 7.13333 476.679 6.44 476.679 5.672C476.679 4.904 476.599 4.21067 476.439 3.592C476.279 2.97333 475.985 2.44533 475.559 2.008C475.132 1.57067 474.599 1.352 473.959 1.352C473.319 1.352 472.785 1.57067 472.359 2.008C471.932 2.44533 471.639 2.97333 471.479 3.592C471.319 4.21067 471.239 4.904 471.239 5.672C471.239 6.44 471.319 7.13333 471.479 7.752C471.639 8.37067 471.932 8.904 472.359 9.352ZM483.788 4.696C483.308 5.18667 482.689 5.432 481.932 5.432C481.174 5.432 480.556 5.18667 480.076 4.696C479.596 4.19467 479.356 3.57067 479.356 2.824C479.356 2.056 479.596 1.42133 480.076 0.919999C480.556 0.418666 481.174 0.167999 481.932 0.167999C482.689 0.167999 483.308 0.418666 483.788 0.919999C484.268 1.42133 484.508 2.056 484.508 2.824C484.508 3.57067 484.268 4.19467 483.788 4.696ZM481.788 11H480.908L487.724 0.327999H488.62L481.788 11ZM489.34 10.456C488.87 10.9467 488.257 11.192 487.5 11.192C486.742 11.192 486.124 10.9413 485.644 10.44C485.164 9.93867 484.924 9.31467 484.924 8.568C484.924 7.81067 485.164 7.18133 485.644 6.68C486.124 6.17867 486.742 5.928 487.5 5.928C488.246 5.928 488.86 6.17867 489.34 6.68C489.82 7.18133 490.06 7.81067 490.06 8.568C490.06 9.32533 489.82 9.95467 489.34 10.456ZM480.764 4.104C481.073 4.44533 481.462 4.616 481.932 4.616C482.401 4.616 482.785 4.44533 483.084 4.104C483.393 3.76267 483.548 3.336 483.548 2.824C483.548 2.29067 483.398 1.85333 483.1 1.512C482.801 1.16 482.412 0.983999 481.932 0.983999C481.462 0.983999 481.073 1.16 480.764 1.512C480.465 1.85333 480.316 2.29067 480.316 2.824C480.316 3.336 480.465 3.76267 480.764 4.104ZM486.316 9.864C486.625 10.2053 487.02 10.376 487.5 10.376C487.98 10.376 488.369 10.2053 488.668 9.864C488.966 9.52267 489.116 9.09067 489.116 8.568C489.116 8.04533 488.966 7.61333 488.668 7.272C488.369 6.92 487.98 6.744 487.5 6.744C487.02 6.744 486.625 6.92 486.316 7.272C486.017 7.61333 485.868 8.04533 485.868 8.568C485.868 9.09067 486.017 9.52267 486.316 9.864Z" fill="#505050"/>
<defs>
<linearGradient id="paint0_linear_2622_1050" x1="484.772" y1="5.50009" x2="0" y2="5.50009" gradientUnits="userSpaceOnUse">
<stop stop-color="#1D5556"/>
<stop offset="1" stop-color="#90EE90"/>
</linearGradient>
</defs>
</svg>
