<svg width="492" height="56" viewBox="0 0 492 56" fill="none" xmlns="http://www.w3.org/2000/svg">
<rect width="484.772" height="11.0002" rx="5.5" transform="matrix(0.999999 0.00128892 -0.00655267 0.999978 0.228027 43.5137)" fill="url(#paint0_linear_2521_987)"/>
<line opacity="0.4" x1="0.5" y1="-0.5" x2="14.5" y2="-0.5" transform="matrix(0.00655257 -0.999978 0.999999 0.0012889 13.7566 43.5312)" stroke="#1A1A1A" stroke-linecap="round"/>
<path d="M11.8054 13.36C11.1014 13.36 10.4774 13.2 9.93342 12.88C9.40009 12.5493 8.97342 12.112 8.65342 11.568C8.34409 11.024 8.10942 10.4373 7.94942 9.80797C7.80009 9.17864 7.72542 8.52264 7.72542 7.83997C7.72542 7.1573 7.80009 6.5013 7.94942 5.87197C8.10942 5.24263 8.34409 4.6613 8.65342 4.12797C8.97342 3.58397 9.40009 3.15197 9.93342 2.83197C10.4774 2.5013 11.1014 2.33597 11.8054 2.33597C12.4988 2.33597 13.1174 2.5013 13.6614 2.83197C14.2054 3.15197 14.6321 3.58397 14.9414 4.12797C15.2614 4.6613 15.4961 5.24263 15.6454 5.87197C15.8054 6.5013 15.8854 7.1573 15.8854 7.83997C15.8854 8.52264 15.8054 9.17864 15.6454 9.80797C15.4961 10.4373 15.2614 11.024 14.9414 11.568C14.6321 12.112 14.2054 12.5493 13.6614 12.88C13.1174 13.2 12.4988 13.36 11.8054 13.36ZM10.2054 11.52C10.6321 11.9573 11.1654 12.176 11.8054 12.176C12.4454 12.176 12.9788 11.9573 13.4054 11.52C13.8321 11.072 14.1254 10.5386 14.2854 9.91997C14.4454 9.3013 14.5254 8.60797 14.5254 7.83997C14.5254 7.07197 14.4454 6.37863 14.2854 5.75997C14.1254 5.1413 13.8321 4.6133 13.4054 4.17597C12.9788 3.73863 12.4454 3.51997 11.8054 3.51997C11.1654 3.51997 10.6321 3.73863 10.2054 4.17597C9.77876 4.6133 9.48542 5.1413 9.32542 5.75997C9.16542 6.37863 9.08542 7.07197 9.08542 7.83997C9.08542 8.60797 9.16542 9.3013 9.32542 9.91997C9.48542 10.5386 9.77876 11.072 10.2054 11.52ZM21.6343 6.86397C21.1543 7.35464 20.5356 7.59997 19.7783 7.59997C19.021 7.59997 18.4023 7.35464 17.9223 6.86397C17.4423 6.36264 17.2023 5.73864 17.2023 4.99197C17.2023 4.22397 17.4423 3.5893 17.9223 3.08797C18.4023 2.58663 19.021 2.33597 19.7783 2.33597C20.5356 2.33597 21.1543 2.58663 21.6343 3.08797C22.1143 3.5893 22.3543 4.22397 22.3543 4.99197C22.3543 5.73864 22.1143 6.36264 21.6343 6.86397ZM19.6343 13.168H18.7543L25.5703 2.49597H26.4663L19.6343 13.168ZM27.1863 12.624C26.717 13.1146 26.1036 13.36 25.3463 13.36C24.589 13.36 23.9703 13.1093 23.4903 12.608C23.0103 12.1066 22.7703 11.4826 22.7703 10.736C22.7703 9.97864 23.0103 9.3493 23.4903 8.84797C23.9703 8.34664 24.589 8.09597 25.3463 8.09597C26.093 8.09597 26.7063 8.34664 27.1863 8.84797C27.6663 9.3493 27.9063 9.97864 27.9063 10.736C27.9063 11.4933 27.6663 12.1226 27.1863 12.624ZM18.6103 6.27197C18.9196 6.6133 19.309 6.78397 19.7783 6.78397C20.2476 6.78397 20.6316 6.6133 20.9303 6.27197C21.2396 5.93063 21.3943 5.50397 21.3943 4.99197C21.3943 4.45863 21.245 4.0213 20.9463 3.67997C20.6476 3.32797 20.2583 3.15197 19.7783 3.15197C19.309 3.15197 18.9196 3.32797 18.6103 3.67997C18.3116 4.0213 18.1623 4.45863 18.1623 4.99197C18.1623 5.50397 18.3116 5.93063 18.6103 6.27197ZM24.1623 12.032C24.4716 12.3733 24.8663 12.544 25.3463 12.544C25.8263 12.544 26.2156 12.3733 26.5143 12.032C26.813 11.6906 26.9623 11.2586 26.9623 10.736C26.9623 10.2133 26.813 9.7813 26.5143 9.43997C26.2156 9.08797 25.8263 8.91197 25.3463 8.91197C24.8663 8.91197 24.4716 9.08797 24.1623 9.43997C23.8636 9.7813 23.7143 10.2133 23.7143 10.736C23.7143 11.2586 23.8636 11.6906 24.1623 12.032Z" fill="#505050"/>
<line opacity="0.4" x1="0.5" y1="-0.5" x2="14.5" y2="-0.5" transform="matrix(0.00655257 -0.999978 0.999999 0.0012889 128.749 43.6797)" stroke="#1A1A1A" stroke-linecap="round"/>
<path d="M121.192 13.3496H113.864V12.2776C116.051 10.5709 117.587 9.25361 118.472 8.32561C119.357 7.39761 119.8 6.50694 119.8 5.65361C119.8 5.01361 119.576 4.52828 119.128 4.19761C118.691 3.86694 118.168 3.70161 117.56 3.70161C116.333 3.70161 115.368 4.14961 114.664 5.04561L113.848 4.19761C114.253 3.66428 114.781 3.25361 115.432 2.96561C116.093 2.66694 116.803 2.51761 117.56 2.51761C118.531 2.51761 119.368 2.78961 120.072 3.33361C120.787 3.87761 121.144 4.65094 121.144 5.65361C121.144 6.64561 120.717 7.63761 119.864 8.62961C119.011 9.61094 117.709 10.7896 115.96 12.1656H121.192V13.3496ZM127.222 13.5416C125.58 13.5416 124.326 12.9709 123.462 11.8296L124.278 10.9336C125.014 11.8829 125.996 12.3576 127.222 12.3576C127.948 12.3576 128.54 12.1389 128.998 11.7016C129.457 11.2643 129.686 10.7203 129.686 10.0696C129.686 9.37628 129.457 8.82161 128.998 8.40561C128.55 7.97894 127.964 7.76561 127.238 7.76561C126.289 7.76561 125.468 8.09628 124.774 8.75761L123.798 8.42161V2.67761H130.326V3.86161H125.126V7.57361C125.788 6.93361 126.62 6.61361 127.622 6.61361C128.572 6.61361 129.377 6.91761 130.038 7.52561C130.7 8.13361 131.03 8.96561 131.03 10.0216C131.03 11.0776 130.668 11.9309 129.942 12.5816C129.228 13.2216 128.321 13.5416 127.222 13.5416ZM136.772 7.04561C136.292 7.53628 135.673 7.78161 134.916 7.78161C134.158 7.78161 133.54 7.53628 133.06 7.04561C132.58 6.54428 132.34 5.92028 132.34 5.17361C132.34 4.40561 132.58 3.77094 133.06 3.26961C133.54 2.76828 134.158 2.51761 134.916 2.51761C135.673 2.51761 136.292 2.76828 136.772 3.26961C137.252 3.77094 137.492 4.40561 137.492 5.17361C137.492 5.92028 137.252 6.54428 136.772 7.04561ZM134.772 13.3496H133.892L140.708 2.67761H141.604L134.772 13.3496ZM142.324 12.8056C141.854 13.2963 141.241 13.5416 140.484 13.5416C139.726 13.5416 139.108 13.2909 138.628 12.7896C138.148 12.2883 137.908 11.6643 137.908 10.9176C137.908 10.1603 138.148 9.53094 138.628 9.02961C139.108 8.52828 139.726 8.27761 140.484 8.27761C141.23 8.27761 141.844 8.52828 142.324 9.02961C142.804 9.53094 143.044 10.1603 143.044 10.9176C143.044 11.6749 142.804 12.3043 142.324 12.8056ZM133.748 6.45361C134.057 6.79494 134.446 6.96561 134.916 6.96561C135.385 6.96561 135.769 6.79494 136.068 6.45361C136.377 6.11228 136.532 5.68561 136.532 5.17361C136.532 4.64028 136.382 4.20294 136.084 3.86161C135.785 3.50961 135.396 3.33361 134.916 3.33361C134.446 3.33361 134.057 3.50961 133.748 3.86161C133.449 4.20294 133.3 4.64028 133.3 5.17361C133.3 5.68561 133.449 6.11228 133.748 6.45361ZM139.3 12.2136C139.609 12.5549 140.004 12.7256 140.484 12.7256C140.964 12.7256 141.353 12.5549 141.652 12.2136C141.95 11.8723 142.1 11.4403 142.1 10.9176C142.1 10.3949 141.95 9.96294 141.652 9.62161C141.353 9.26961 140.964 9.09361 140.484 9.09361C140.004 9.09361 139.609 9.26961 139.3 9.62161C139.001 9.96294 138.852 10.3949 138.852 10.9176C138.852 11.4403 139.001 11.8723 139.3 12.2136Z" fill="#505050"/>
<line opacity="0.4" x1="0.5" y1="-0.5" x2="14.5" y2="-0.5" transform="matrix(0.00655257 -0.999978 0.999999 0.0012889 243.741 43.8281)" stroke="#1A1A1A" stroke-linecap="round"/>
<path d="M232.816 13.0318C231.173 13.0318 229.92 12.4612 229.056 11.3198L229.872 10.4238C230.608 11.3732 231.589 11.8478 232.816 11.8478C233.541 11.8478 234.133 11.6292 234.592 11.1918C235.051 10.7545 235.28 10.2105 235.28 9.55984C235.28 8.86651 235.051 8.31184 234.592 7.89584C234.144 7.46918 233.557 7.25584 232.832 7.25584C231.883 7.25584 231.061 7.58651 230.368 8.24784L229.392 7.91184V2.16784H235.92V3.35184H230.72V7.06384C231.381 6.42384 232.213 6.10384 233.216 6.10384C234.165 6.10384 234.971 6.40784 235.632 7.01584C236.293 7.62384 236.624 8.45584 236.624 9.51184C236.624 10.5678 236.261 11.4212 235.536 12.0718C234.821 12.7118 233.915 13.0318 232.816 13.0318ZM242.334 13.0318C241.63 13.0318 241.006 12.8718 240.462 12.5518C239.928 12.2212 239.502 11.7838 239.182 11.2398C238.872 10.6958 238.638 10.1092 238.478 9.47984C238.328 8.85051 238.254 8.19451 238.254 7.51184C238.254 6.82918 238.328 6.17318 238.478 5.54384C238.638 4.91451 238.872 4.33318 239.182 3.79984C239.502 3.25584 239.928 2.82384 240.462 2.50384C241.006 2.17318 241.63 2.00784 242.334 2.00784C243.027 2.00784 243.646 2.17318 244.19 2.50384C244.734 2.82384 245.16 3.25584 245.47 3.79984C245.79 4.33318 246.024 4.91451 246.174 5.54384C246.334 6.17318 246.414 6.82918 246.414 7.51184C246.414 8.19451 246.334 8.85051 246.174 9.47984C246.024 10.1092 245.79 10.6958 245.47 11.2398C245.16 11.7838 244.734 12.2212 244.19 12.5518C243.646 12.8718 243.027 13.0318 242.334 13.0318ZM240.734 11.1918C241.16 11.6292 241.694 11.8478 242.334 11.8478C242.974 11.8478 243.507 11.6292 243.934 11.1918C244.36 10.7438 244.654 10.2105 244.814 9.59184C244.974 8.97318 245.054 8.27984 245.054 7.51184C245.054 6.74384 244.974 6.05051 244.814 5.43184C244.654 4.81318 244.36 4.28518 243.934 3.84784C243.507 3.41051 242.974 3.19184 242.334 3.19184C241.694 3.19184 241.16 3.41051 240.734 3.84784C240.307 4.28518 240.014 4.81318 239.854 5.43184C239.694 6.05051 239.614 6.74384 239.614 7.51184C239.614 8.27984 239.694 8.97318 239.854 9.59184C240.014 10.2105 240.307 10.7438 240.734 11.1918ZM252.162 6.53584C251.682 7.02651 251.064 7.27184 250.306 7.27184C249.549 7.27184 248.93 7.02651 248.45 6.53584C247.97 6.03451 247.73 5.41051 247.73 4.66384C247.73 3.89584 247.97 3.26118 248.45 2.75984C248.93 2.25851 249.549 2.00784 250.306 2.00784C251.064 2.00784 251.682 2.25851 252.162 2.75984C252.642 3.26118 252.882 3.89584 252.882 4.66384C252.882 5.41051 252.642 6.03451 252.162 6.53584ZM250.162 12.8398H249.282L256.098 2.16784H256.994L250.162 12.8398ZM257.714 12.2958C257.245 12.7865 256.632 13.0318 255.874 13.0318C255.117 13.0318 254.498 12.7812 254.018 12.2798C253.538 11.7785 253.298 11.1545 253.298 10.4078C253.298 9.65051 253.538 9.02118 254.018 8.51984C254.498 8.01851 255.117 7.76784 255.874 7.76784C256.621 7.76784 257.234 8.01851 257.714 8.51984C258.194 9.02118 258.434 9.65051 258.434 10.4078C258.434 11.1652 258.194 11.7945 257.714 12.2958ZM249.138 5.94384C249.448 6.28518 249.837 6.45584 250.306 6.45584C250.776 6.45584 251.16 6.28518 251.458 5.94384C251.768 5.60251 251.922 5.17584 251.922 4.66384C251.922 4.13051 251.773 3.69318 251.474 3.35184C251.176 2.99984 250.786 2.82384 250.306 2.82384C249.837 2.82384 249.448 2.99984 249.138 3.35184C248.84 3.69318 248.69 4.13051 248.69 4.66384C248.69 5.17584 248.84 5.60251 249.138 5.94384ZM254.69 11.7038C255 12.0452 255.394 12.2158 255.874 12.2158C256.354 12.2158 256.744 12.0452 257.042 11.7038C257.341 11.3625 257.49 10.9305 257.49 10.4078C257.49 9.88518 257.341 9.45318 257.042 9.11184C256.744 8.75984 256.354 8.58384 255.874 8.58384C255.394 8.58384 255 8.75984 254.69 9.11184C254.392 9.45318 254.242 9.88518 254.242 10.4078C254.242 10.9305 254.392 11.3625 254.69 11.7038Z" fill="#505050"/>
<line opacity="0.4" x1="0.5" y1="-0.5" x2="14.5" y2="-0.5" transform="matrix(0.00655257 -0.999978 0.999999 0.0012889 358.734 43.9766)" stroke="#1A1A1A" stroke-linecap="round"/>
<path d="M347.408 13H345.936L350.24 3.512H344.496V2.328H351.776V3.24L347.408 13ZM357.05 13.192C355.408 13.192 354.154 12.6213 353.29 11.48L354.106 10.584C354.842 11.5333 355.824 12.008 357.05 12.008C357.776 12.008 358.368 11.7893 358.826 11.352C359.285 10.9147 359.514 10.3707 359.514 9.72C359.514 9.02667 359.285 8.472 358.826 8.056C358.378 7.62933 357.792 7.416 357.066 7.416C356.117 7.416 355.296 7.74667 354.602 8.408L353.626 8.072V2.328H360.154V3.512H354.954V7.224C355.616 6.584 356.448 6.264 357.45 6.264C358.4 6.264 359.205 6.568 359.866 7.176C360.528 7.784 360.858 8.616 360.858 9.672C360.858 10.728 360.496 11.5813 359.77 12.232C359.056 12.872 358.149 13.192 357.05 13.192ZM366.6 6.696C366.12 7.18667 365.501 7.432 364.744 7.432C363.987 7.432 363.368 7.18667 362.888 6.696C362.408 6.19467 362.168 5.57067 362.168 4.824C362.168 4.056 362.408 3.42133 362.888 2.92C363.368 2.41867 363.987 2.168 364.744 2.168C365.501 2.168 366.12 2.41867 366.6 2.92C367.08 3.42133 367.32 4.056 367.32 4.824C367.32 5.57067 367.08 6.19467 366.6 6.696ZM364.6 13H363.72L370.536 2.328H371.432L364.6 13ZM372.152 12.456C371.683 12.9467 371.069 13.192 370.312 13.192C369.555 13.192 368.936 12.9413 368.456 12.44C367.976 11.9387 367.736 11.3147 367.736 10.568C367.736 9.81067 367.976 9.18133 368.456 8.68C368.936 8.17867 369.555 7.928 370.312 7.928C371.059 7.928 371.672 8.17867 372.152 8.68C372.632 9.18133 372.872 9.81067 372.872 10.568C372.872 11.3253 372.632 11.9547 372.152 12.456ZM363.576 6.104C363.885 6.44533 364.275 6.616 364.744 6.616C365.213 6.616 365.597 6.44533 365.896 6.104C366.205 5.76267 366.36 5.336 366.36 4.824C366.36 4.29067 366.211 3.85333 365.912 3.512C365.613 3.16 365.224 2.984 364.744 2.984C364.275 2.984 363.885 3.16 363.576 3.512C363.277 3.85333 363.128 4.29067 363.128 4.824C363.128 5.336 363.277 5.76267 363.576 6.104ZM369.128 11.864C369.437 12.2053 369.832 12.376 370.312 12.376C370.792 12.376 371.181 12.2053 371.48 11.864C371.779 11.5227 371.928 11.0907 371.928 10.568C371.928 10.0453 371.779 9.61333 371.48 9.272C371.181 8.92 370.792 8.744 370.312 8.744C369.832 8.744 369.437 8.92 369.128 9.272C368.829 9.61333 368.68 10.0453 368.68 10.568C368.68 11.0907 368.829 11.5227 369.128 11.864Z" fill="#505050"/>
<line opacity="0.4" x1="0.5" y1="-0.5" x2="14.5" y2="-0.5" transform="matrix(0.00655257 -0.999978 0.999999 0.0012889 473.726 44.125)" stroke="#1A1A1A" stroke-linecap="round"/>
<path d="M458.176 13H456.848V4.072L455.136 5.896L454.336 5.08L457.008 2.328H458.176V13ZM464.318 13.192C463.614 13.192 462.99 13.032 462.446 12.712C461.913 12.3813 461.486 11.944 461.166 11.4C460.857 10.856 460.622 10.2693 460.462 9.64C460.313 9.01067 460.238 8.35467 460.238 7.672C460.238 6.98933 460.313 6.33333 460.462 5.704C460.622 5.07467 460.857 4.49333 461.166 3.96C461.486 3.416 461.913 2.984 462.446 2.664C462.99 2.33333 463.614 2.168 464.318 2.168C465.011 2.168 465.63 2.33333 466.174 2.664C466.718 2.984 467.145 3.416 467.454 3.96C467.774 4.49333 468.009 5.07467 468.158 5.704C468.318 6.33333 468.398 6.98933 468.398 7.672C468.398 8.35467 468.318 9.01067 468.158 9.64C468.009 10.2693 467.774 10.856 467.454 11.4C467.145 11.944 466.718 12.3813 466.174 12.712C465.63 13.032 465.011 13.192 464.318 13.192ZM462.718 11.352C463.145 11.7893 463.678 12.008 464.318 12.008C464.958 12.008 465.491 11.7893 465.918 11.352C466.345 10.904 466.638 10.3707 466.798 9.752C466.958 9.13333 467.038 8.44 467.038 7.672C467.038 6.904 466.958 6.21067 466.798 5.592C466.638 4.97333 466.345 4.44533 465.918 4.008C465.491 3.57067 464.958 3.352 464.318 3.352C463.678 3.352 463.145 3.57067 462.718 4.008C462.291 4.44533 461.998 4.97333 461.838 5.592C461.678 6.21067 461.598 6.904 461.598 7.672C461.598 8.44 461.678 9.13333 461.838 9.752C461.998 10.3707 462.291 10.904 462.718 11.352ZM474.115 13.192C473.411 13.192 472.787 13.032 472.243 12.712C471.709 12.3813 471.283 11.944 470.963 11.4C470.653 10.856 470.419 10.2693 470.259 9.64C470.109 9.01067 470.035 8.35467 470.035 7.672C470.035 6.98933 470.109 6.33333 470.259 5.704C470.419 5.07467 470.653 4.49333 470.963 3.96C471.283 3.416 471.709 2.984 472.243 2.664C472.787 2.33333 473.411 2.168 474.115 2.168C474.808 2.168 475.427 2.33333 475.971 2.664C476.515 2.984 476.941 3.416 477.251 3.96C477.571 4.49333 477.805 5.07467 477.955 5.704C478.115 6.33333 478.195 6.98933 478.195 7.672C478.195 8.35467 478.115 9.01067 477.955 9.64C477.805 10.2693 477.571 10.856 477.251 11.4C476.941 11.944 476.515 12.3813 475.971 12.712C475.427 13.032 474.808 13.192 474.115 13.192ZM472.515 11.352C472.941 11.7893 473.475 12.008 474.115 12.008C474.755 12.008 475.288 11.7893 475.715 11.352C476.141 10.904 476.435 10.3707 476.595 9.752C476.755 9.13333 476.835 8.44 476.835 7.672C476.835 6.904 476.755 6.21067 476.595 5.592C476.435 4.97333 476.141 4.44533 475.715 4.008C475.288 3.57067 474.755 3.352 474.115 3.352C473.475 3.352 472.941 3.57067 472.515 4.008C472.088 4.44533 471.795 4.97333 471.635 5.592C471.475 6.21067 471.395 6.904 471.395 7.672C471.395 8.44 471.475 9.13333 471.635 9.752C471.795 10.3707 472.088 10.904 472.515 11.352ZM483.944 6.696C483.464 7.18667 482.845 7.432 482.088 7.432C481.33 7.432 480.712 7.18667 480.232 6.696C479.752 6.19467 479.512 5.57067 479.512 4.824C479.512 4.056 479.752 3.42133 480.232 2.92C480.712 2.41867 481.33 2.168 482.088 2.168C482.845 2.168 483.464 2.41867 483.944 2.92C484.424 3.42133 484.664 4.056 484.664 4.824C484.664 5.57067 484.424 6.19467 483.944 6.696ZM481.944 13H481.064L487.88 2.328H488.776L481.944 13ZM489.496 12.456C489.026 12.9467 488.413 13.192 487.656 13.192C486.898 13.192 486.28 12.9413 485.8 12.44C485.32 11.9387 485.08 11.3147 485.08 10.568C485.08 9.81067 485.32 9.18133 485.8 8.68C486.28 8.17867 486.898 7.928 487.656 7.928C488.402 7.928 489.016 8.17867 489.496 8.68C489.976 9.18133 490.216 9.81067 490.216 10.568C490.216 11.3253 489.976 11.9547 489.496 12.456ZM480.92 6.104C481.229 6.44533 481.618 6.616 482.088 6.616C482.557 6.616 482.941 6.44533 483.24 6.104C483.549 5.76267 483.704 5.336 483.704 4.824C483.704 4.29067 483.554 3.85333 483.256 3.512C482.957 3.16 482.568 2.984 482.088 2.984C481.618 2.984 481.229 3.16 480.92 3.512C480.621 3.85333 480.472 4.29067 480.472 4.824C480.472 5.336 480.621 5.76267 480.92 6.104ZM486.472 11.864C486.781 12.2053 487.176 12.376 487.656 12.376C488.136 12.376 488.525 12.2053 488.824 11.864C489.122 11.5227 489.272 11.0907 489.272 10.568C489.272 10.0453 489.122 9.61333 488.824 9.272C488.525 8.92 488.136 8.744 487.656 8.744C487.176 8.744 486.781 8.92 486.472 9.272C486.173 9.61333 486.024 10.0453 486.024 10.568C486.024 11.0907 486.173 11.5227 486.472 11.864Z" fill="#505050"/>
<defs>
<linearGradient id="paint0_linear_2521_987" x1="484.772" y1="5.50009" x2="0" y2="5.50009" gradientUnits="userSpaceOnUse">
<stop stop-color="#1D5556"/>
<stop offset="1" stop-color="#90EE90"/>
</linearGradient>
</defs>
</svg>
