<svg width="382" height="216" viewBox="0 0 382 216" fill="none" xmlns="http://www.w3.org/2000/svg">
<rect x="11" width="215" height="11" rx="5.5" transform="rotate(90 11 0)" fill="url(#paint0_linear_1555_1990)"/>
<line opacity="0.4" x1="11.5" y1="5.5" x2="25.5" y2="5.5" stroke="#1A1A1A" stroke-linecap="round"/>
<path d="M46.3378 11H45.0578L38.8338 2.488V11H37.5058V0.327999H38.8658L45.0098 8.664V0.327999H46.3378V11ZM54.9299 10.024C54.2366 10.8027 53.3139 11.192 52.1619 11.192C51.0099 11.192 50.0819 10.8027 49.3779 10.024C48.6846 9.24533 48.3379 8.28 48.3379 7.128C48.3379 5.976 48.6846 5.016 49.3779 4.248C50.0819 3.46933 51.0099 3.08 52.1619 3.08C53.3139 3.08 54.2366 3.46933 54.9299 4.248C55.6339 5.016 55.9859 5.976 55.9859 7.128C55.9859 8.28 55.6339 9.24533 54.9299 10.024ZM50.2899 9.256C50.7486 9.832 51.3726 10.12 52.1619 10.12C52.9513 10.12 53.5753 9.832 54.0339 9.256C54.4926 8.66933 54.7219 7.96 54.7219 7.128C54.7219 6.296 54.4926 5.592 54.0339 5.016C53.5753 4.44 52.9513 4.152 52.1619 4.152C51.3726 4.152 50.7486 4.44 50.2899 5.016C49.8313 5.592 49.6019 6.296 49.6019 7.128C49.6019 7.96 49.8313 8.66933 50.2899 9.256ZM68.4988 11H67.2988V9.912C66.9788 10.2747 66.5735 10.5787 66.0828 10.824C65.6028 11.0693 65.0908 11.192 64.5468 11.192C62.9041 11.192 62.0828 10.3707 62.0828 8.728V3.272H63.2828V8.36C63.2828 9 63.4321 9.45333 63.7308 9.72C64.0295 9.98667 64.4615 10.12 65.0268 10.12C65.4748 10.12 65.9068 10.008 66.3228 9.784C66.7388 9.56 67.0641 9.28267 67.2988 8.952V3.272H68.4988V11ZM72.8633 11.192C71.7113 11.192 71.1353 10.5893 71.1353 9.384V4.328H69.8553V3.272H71.1353V1.16H72.3513V3.272H73.9193V4.328H72.3513V9.128C72.3513 9.42667 72.4153 9.66667 72.5433 9.848C72.682 10.0293 72.874 10.12 73.1193 10.12C73.4606 10.12 73.7326 10.008 73.9353 9.784L74.2873 10.696C73.9353 11.0267 73.4606 11.192 72.8633 11.192ZM76.7664 1.944C76.6171 2.09333 76.4304 2.168 76.2064 2.168C75.9824 2.168 75.7904 2.09333 75.6304 1.944C75.4704 1.784 75.3904 1.592 75.3904 1.368C75.3904 1.144 75.4704 0.952 75.6304 0.792C75.7904 0.631999 75.9824 0.551999 76.2064 0.551999C76.4304 0.551999 76.6171 0.631999 76.7664 0.792C76.9264 0.952 77.0064 1.144 77.0064 1.368C77.0064 1.592 76.9264 1.784 76.7664 1.944ZM76.7984 11H75.5984V3.272H76.7984V11ZM80.9042 11.192C80.3389 11.192 79.9122 11.0373 79.6242 10.728C79.3362 10.4187 79.1922 9.97067 79.1922 9.384V0.327999H80.3922V9.128C80.3922 9.42667 80.4562 9.66667 80.5842 9.848C80.7229 10.0293 80.9202 10.12 81.1762 10.12C81.5282 10.12 81.7949 10.008 81.9762 9.784L82.3442 10.696C81.9815 11.0267 81.5015 11.192 80.9042 11.192ZM84.6571 1.944C84.5077 2.09333 84.3211 2.168 84.0971 2.168C83.8731 2.168 83.6811 2.09333 83.5211 1.944C83.3611 1.784 83.2811 1.592 83.2811 1.368C83.2811 1.144 83.3611 0.952 83.5211 0.792C83.6811 0.631999 83.8731 0.551999 84.0971 0.551999C84.3211 0.551999 84.5077 0.631999 84.6571 0.792C84.8171 0.952 84.8971 1.144 84.8971 1.368C84.8971 1.592 84.8171 1.784 84.6571 1.944ZM84.6891 11H83.4891V3.272H84.6891V11ZM92.6028 11H86.7148V10.056L90.9708 4.328H86.7148V3.272H92.5388V4.184L88.2508 9.944H92.6028V11ZM101.43 11H100.23V9.848C99.5684 10.744 98.699 11.192 97.6217 11.192C96.5977 11.192 95.7657 10.8293 95.1257 10.104C94.4964 9.368 94.1817 8.38133 94.1817 7.144C94.1817 5.91733 94.5017 4.936 95.1417 4.2C95.7817 3.45333 96.6084 3.08 97.6217 3.08C98.6884 3.08 99.5577 3.53333 100.23 4.44V3.272H101.43V11ZM97.9257 10.12C98.3844 10.12 98.827 10.0027 99.2537 9.768C99.691 9.52267 100.016 9.22933 100.23 8.888V5.4C100.016 5.048 99.691 4.75467 99.2537 4.52C98.827 4.27467 98.3844 4.152 97.9257 4.152C97.1577 4.152 96.5497 4.43467 96.1017 5C95.6537 5.55467 95.4297 6.26933 95.4297 7.144C95.4297 8.01867 95.6537 8.73333 96.1017 9.288C96.5497 9.84267 97.1577 10.12 97.9257 10.12ZM109.141 1.944C108.992 2.09333 108.805 2.168 108.581 2.168C108.357 2.168 108.165 2.09333 108.005 1.944C107.845 1.784 107.765 1.592 107.765 1.368C107.765 1.144 107.845 0.952 108.005 0.792C108.165 0.631999 108.357 0.551999 108.581 0.551999C108.805 0.551999 108.992 0.631999 109.141 0.792C109.301 0.952 109.381 1.144 109.381 1.368C109.381 1.592 109.301 1.784 109.141 1.944ZM109.173 11H107.973V3.272H109.173V11ZM117.983 11H116.799V5.944C116.799 5.29333 116.65 4.83467 116.351 4.568C116.053 4.29067 115.621 4.152 115.055 4.152C114.607 4.152 114.175 4.26933 113.759 4.504C113.343 4.73867 113.013 5.02133 112.767 5.352V11H111.567V3.272H112.767V4.392C113.066 4.02933 113.466 3.72 113.967 3.464C114.469 3.208 114.991 3.08 115.535 3.08C117.167 3.08 117.983 3.912 117.983 5.576V11ZM122.363 11.192C121.211 11.192 120.635 10.5893 120.635 9.384V4.328H119.355V3.272H120.635V1.16H121.851V3.272H123.419V4.328H121.851V9.128C121.851 9.42667 121.915 9.66667 122.043 9.848C122.182 10.0293 122.374 10.12 122.619 10.12C122.961 10.12 123.233 10.008 123.435 9.784L123.787 10.696C123.435 11.0267 122.961 11.192 122.363 11.192ZM128.602 11.192C127.44 11.192 126.49 10.8187 125.754 10.072C125.018 9.31467 124.65 8.33333 124.65 7.128C124.65 5.99733 125.013 5.04267 125.738 4.264C126.464 3.47467 127.37 3.08 128.458 3.08C129.6 3.08 130.501 3.47467 131.162 4.264C131.834 5.04267 132.17 6.02933 132.17 7.224V7.528H125.93C125.984 8.28533 126.256 8.92 126.746 9.432C127.248 9.944 127.898 10.2 128.698 10.2C129.658 10.2 130.458 9.86933 131.098 9.208L131.674 9.992C130.853 10.792 129.829 11.192 128.602 11.192ZM130.986 6.632C130.976 5.98133 130.752 5.39467 130.314 4.872C129.877 4.33867 129.253 4.072 128.442 4.072C127.674 4.072 127.066 4.33333 126.618 4.856C126.181 5.37867 125.946 5.97067 125.914 6.632H130.986ZM135.314 11H134.114V3.272H135.314V4.504C136.05 3.56533 136.909 3.096 137.89 3.096V4.328C137.698 4.30667 137.543 4.296 137.426 4.296C137.053 4.296 136.653 4.424 136.226 4.68C135.799 4.92533 135.495 5.208 135.314 5.528V11ZM145.811 11H144.627V5.944C144.627 5.29333 144.478 4.83467 144.179 4.568C143.881 4.29067 143.449 4.152 142.883 4.152C142.435 4.152 142.003 4.26933 141.587 4.504C141.171 4.73867 140.841 5.02133 140.595 5.352V11H139.395V3.272H140.595V4.392C140.894 4.02933 141.294 3.72 141.795 3.464C142.297 3.208 142.819 3.08 143.363 3.08C144.995 3.08 145.811 3.912 145.811 5.576V11ZM151.727 11.192C150.565 11.192 149.615 10.8187 148.879 10.072C148.143 9.31467 147.775 8.33333 147.775 7.128C147.775 5.99733 148.138 5.04267 148.863 4.264C149.589 3.47467 150.495 3.08 151.583 3.08C152.725 3.08 153.626 3.47467 154.287 4.264C154.959 5.04267 155.295 6.02933 155.295 7.224V7.528H149.055C149.109 8.28533 149.381 8.92 149.871 9.432C150.373 9.944 151.023 10.2 151.823 10.2C152.783 10.2 153.583 9.86933 154.223 9.208L154.799 9.992C153.978 10.792 152.954 11.192 151.727 11.192ZM154.111 6.632C154.101 5.98133 153.877 5.39467 153.439 4.872C153.002 4.33867 152.378 4.072 151.567 4.072C150.799 4.072 150.191 4.33333 149.743 4.856C149.306 5.37867 149.071 5.97067 149.039 6.632H154.111ZM159.207 11.192C158.055 11.192 157.479 10.5893 157.479 9.384V4.328H156.199V3.272H157.479V1.16H158.695V3.272H160.263V4.328H158.695V9.128C158.695 9.42667 158.759 9.66667 158.887 9.848C159.026 10.0293 159.218 10.12 159.463 10.12C159.804 10.12 160.076 10.008 160.279 9.784L160.631 10.696C160.279 11.0267 159.804 11.192 159.207 11.192Z" fill="#505050"/>
<line opacity="0.4" x1="11.5" y1="56.5" x2="25.5" y2="56.5" stroke="#1A1A1A" stroke-linecap="round"/>
<path d="M46.384 62H44.864L43.92 59.616H38.608L37.664 62H36.144L40.448 51.328H42.096L46.384 62ZM43.536 58.448L41.264 52.688L39.008 58.448H43.536ZM49.4433 62.192C48.8779 62.192 48.4513 62.0373 48.1633 61.728C47.8753 61.4187 47.7313 60.9707 47.7313 60.384V51.328H48.9313V60.128C48.9313 60.4267 48.9953 60.6667 49.1233 60.848C49.2619 61.0293 49.4593 61.12 49.7153 61.12C50.0673 61.12 50.3339 61.008 50.5153 60.784L50.8833 61.696C50.5206 62.0267 50.0406 62.192 49.4433 62.192ZM66.6968 62H65.4968V56.752C65.4968 55.6853 65.0221 55.152 64.0728 55.152C63.6888 55.152 63.3048 55.2693 62.9208 55.504C62.5368 55.728 62.2381 56.0053 62.0248 56.336V62H60.8248V56.752C60.8248 55.6853 60.3501 55.152 59.4008 55.152C59.0274 55.152 58.6488 55.2693 58.2648 55.504C57.8914 55.7387 57.5928 56.0213 57.3688 56.352V62H56.1688V54.272H57.3688V55.392C57.5714 55.0827 57.9074 54.7893 58.3768 54.512C58.8568 54.224 59.3581 54.08 59.8808 54.08C60.4354 54.08 60.8888 54.2133 61.2408 54.48C61.5928 54.7467 61.8274 55.0933 61.9448 55.52C62.1794 55.136 62.5368 54.8 63.0168 54.512C63.4968 54.224 64.0034 54.08 64.5368 54.08C65.9768 54.08 66.6968 54.8587 66.6968 56.416V62ZM72.5946 62.192C71.432 62.192 70.4826 61.8187 69.7466 61.072C69.0106 60.3147 68.6426 59.3333 68.6426 58.128C68.6426 56.9973 69.0053 56.0427 69.7306 55.264C70.456 54.4747 71.3626 54.08 72.4506 54.08C73.592 54.08 74.4933 54.4747 75.1546 55.264C75.8266 56.0427 76.1626 57.0293 76.1626 58.224V58.528H69.9226C69.976 59.2853 70.248 59.92 70.7386 60.432C71.24 60.944 71.8906 61.2 72.6906 61.2C73.6506 61.2 74.4506 60.8693 75.0906 60.208L75.6666 60.992C74.8453 61.792 73.8213 62.192 72.5946 62.192ZM74.9786 57.632C74.968 56.9813 74.744 56.3947 74.3066 55.872C73.8693 55.3387 73.2453 55.072 72.4346 55.072C71.6666 55.072 71.0586 55.3333 70.6106 55.856C70.1733 56.3787 69.9386 56.9707 69.9066 57.632H74.9786ZM84.5223 62H83.3383V56.944C83.3383 56.2933 83.1889 55.8347 82.8903 55.568C82.5916 55.2907 82.1596 55.152 81.5943 55.152C81.1463 55.152 80.7143 55.2693 80.2983 55.504C79.8823 55.7387 79.5516 56.0213 79.3063 56.352V62H78.1063V54.272H79.3063V55.392C79.6049 55.0293 80.0049 54.72 80.5063 54.464C81.0076 54.208 81.5303 54.08 82.0743 54.08C83.7063 54.08 84.5223 54.912 84.5223 56.576V62ZM93.0784 61.024C92.385 61.8027 91.4624 62.192 90.3104 62.192C89.1584 62.192 88.2304 61.8027 87.5264 61.024C86.833 60.2453 86.4864 59.28 86.4864 58.128C86.4864 56.976 86.833 56.016 87.5264 55.248C88.2304 54.4693 89.1584 54.08 90.3104 54.08C91.4624 54.08 92.385 54.4693 93.0784 55.248C93.7824 56.016 94.1344 56.976 94.1344 58.128C94.1344 59.28 93.7824 60.2453 93.0784 61.024ZM88.4384 60.256C88.897 60.832 89.521 61.12 90.3104 61.12C91.0997 61.12 91.7237 60.832 92.1824 60.256C92.641 59.6693 92.8704 58.96 92.8704 58.128C92.8704 57.296 92.641 56.592 92.1824 56.016C91.7237 55.44 91.0997 55.152 90.3104 55.152C89.521 55.152 88.897 55.44 88.4384 56.016C87.9797 56.592 87.7504 57.296 87.7504 58.128C87.7504 58.96 87.9797 59.6693 88.4384 60.256ZM98.5546 62.192C97.2533 62.192 96.2133 61.7867 95.4346 60.976L96.0426 60.112C96.3093 60.4213 96.672 60.6827 97.1306 60.896C97.6 61.1093 98.0853 61.216 98.5866 61.216C99.1626 61.216 99.6106 61.0933 99.9306 60.848C100.261 60.6027 100.427 60.2827 100.427 59.888C100.427 59.5467 100.261 59.28 99.9306 59.088C99.6 58.8853 99.2 58.736 98.7306 58.64C98.2613 58.5333 97.792 58.416 97.3226 58.288C96.864 58.1493 96.4693 57.92 96.1386 57.6C95.808 57.2693 95.6426 56.8373 95.6426 56.304C95.6426 55.6747 95.8986 55.1467 96.4106 54.72C96.9226 54.2933 97.6213 54.08 98.5066 54.08C99.6906 54.08 100.645 54.4533 101.371 55.2L100.811 56.032C100.267 55.3813 99.4986 55.056 98.5066 55.056C97.984 55.056 97.568 55.1733 97.2586 55.408C96.9493 55.632 96.7946 55.92 96.7946 56.272C96.7946 56.528 96.912 56.7413 97.1466 56.912C97.3813 57.0827 97.6746 57.2053 98.0266 57.28C98.3893 57.3547 98.7733 57.4507 99.1786 57.568C99.5946 57.6853 99.9786 57.8187 100.331 57.968C100.693 58.1067 100.992 58.3413 101.227 58.672C101.461 58.992 101.579 59.3867 101.579 59.856C101.579 60.5387 101.312 61.0987 100.779 61.536C100.256 61.9733 99.5146 62.192 98.5546 62.192ZM114.085 62H112.885V60.912C112.565 61.2747 112.159 61.5787 111.669 61.824C111.189 62.0693 110.677 62.192 110.133 62.192C108.49 62.192 107.669 61.3707 107.669 59.728V54.272H108.869V59.36C108.869 60 109.018 60.4533 109.317 60.72C109.615 60.9867 110.047 61.12 110.613 61.12C111.061 61.12 111.493 61.008 111.909 60.784C112.325 60.56 112.65 60.2827 112.885 59.952V54.272H114.085V62ZM122.897 62H121.713V56.944C121.713 56.2933 121.564 55.8347 121.265 55.568C120.967 55.2907 120.535 55.152 119.969 55.152C119.521 55.152 119.089 55.2693 118.673 55.504C118.257 55.7387 117.927 56.0213 117.681 56.352V62H116.481V54.272H117.681V55.392C117.98 55.0293 118.38 54.72 118.881 54.464C119.383 54.208 119.905 54.08 120.449 54.08C122.081 54.08 122.897 54.912 122.897 56.576V62ZM132.109 62H130.909V60.848C130.248 61.744 129.379 62.192 128.301 62.192C127.277 62.192 126.445 61.8293 125.805 61.104C125.176 60.368 124.861 59.3813 124.861 58.144C124.861 56.9173 125.181 55.936 125.821 55.2C126.461 54.4533 127.288 54.08 128.301 54.08C129.368 54.08 130.237 54.5333 130.909 55.44V54.272H132.109V62ZM128.605 61.12C129.064 61.12 129.507 61.0027 129.933 60.768C130.371 60.5227 130.696 60.2293 130.909 59.888V56.4C130.696 56.048 130.371 55.7547 129.933 55.52C129.507 55.2747 129.064 55.152 128.605 55.152C127.837 55.152 127.229 55.4347 126.781 56C126.333 56.5547 126.109 57.2693 126.109 58.144C126.109 59.0187 126.333 59.7333 126.781 60.288C127.229 60.8427 127.837 61.12 128.605 61.12ZM142.029 62H140.717L137.501 54.272H138.813L141.373 60.608L143.949 54.272H145.245L142.029 62ZM150.001 62.192C148.838 62.192 147.889 61.8187 147.153 61.072C146.417 60.3147 146.049 59.3333 146.049 58.128C146.049 56.9973 146.412 56.0427 147.137 55.264C147.862 54.4747 148.769 54.08 149.857 54.08C150.998 54.08 151.9 54.4747 152.561 55.264C153.233 56.0427 153.569 57.0293 153.569 58.224V58.528H147.329C147.382 59.2853 147.654 59.92 148.145 60.432C148.646 60.944 149.297 61.2 150.097 61.2C151.057 61.2 151.857 60.8693 152.497 60.208L153.073 60.992C152.252 61.792 151.228 62.192 150.001 62.192ZM152.385 57.632C152.374 56.9813 152.15 56.3947 151.713 55.872C151.276 55.3387 150.652 55.072 149.841 55.072C149.073 55.072 148.465 55.3333 148.017 55.856C147.58 56.3787 147.345 56.9707 147.313 57.632H152.385ZM161.033 62H155.145V61.056L159.401 55.328H155.145V54.272H160.969V55.184L156.681 60.944H161.033V62ZM174 62H172.8V60.848C172.139 61.744 171.269 62.192 170.192 62.192C169.168 62.192 168.336 61.8293 167.696 61.104C167.067 60.368 166.752 59.3813 166.752 58.144C166.752 56.9173 167.072 55.936 167.712 55.2C168.352 54.4533 169.179 54.08 170.192 54.08C171.259 54.08 172.128 54.5333 172.8 55.44V54.272H174V62ZM170.496 61.12C170.955 61.12 171.397 61.0027 171.824 60.768C172.261 60.5227 172.587 60.2293 172.8 59.888V56.4C172.587 56.048 172.261 55.7547 171.824 55.52C171.397 55.2747 170.955 55.152 170.496 55.152C169.728 55.152 169.12 55.4347 168.672 56C168.224 56.5547 168 57.2693 168 58.144C168 59.0187 168.224 59.7333 168.672 60.288C169.12 60.8427 169.728 61.12 170.496 61.12ZM178.115 62.192C177.55 62.192 177.123 62.0373 176.835 61.728C176.547 61.4187 176.403 60.9707 176.403 60.384V51.328H177.603V60.128C177.603 60.4267 177.667 60.6667 177.795 60.848C177.934 61.0293 178.131 61.12 178.387 61.12C178.739 61.12 179.006 61.008 179.187 60.784L179.555 61.696C179.192 62.0267 178.712 62.192 178.115 62.192ZM191.641 62H190.441V60.848C189.779 61.744 188.91 62.192 187.833 62.192C186.809 62.192 185.977 61.8293 185.337 61.104C184.707 60.368 184.393 59.3813 184.393 58.144C184.393 56.9173 184.713 55.936 185.353 55.2C185.993 54.4533 186.819 54.08 187.833 54.08C188.899 54.08 189.769 54.5333 190.441 55.44V54.272H191.641V62ZM188.137 61.12C188.595 61.12 189.038 61.0027 189.465 60.768C189.902 60.5227 190.227 60.2293 190.441 59.888V56.4C190.227 56.048 189.902 55.7547 189.465 55.52C189.038 55.2747 188.595 55.152 188.137 55.152C187.369 55.152 186.761 55.4347 186.313 56C185.865 56.5547 185.641 57.2693 185.641 58.144C185.641 59.0187 185.865 59.7333 186.313 60.288C186.761 60.8427 187.369 61.12 188.137 61.12ZM200.508 62H199.324V56.944C199.324 56.2933 199.174 55.8347 198.876 55.568C198.577 55.2907 198.145 55.152 197.58 55.152C197.132 55.152 196.7 55.2693 196.284 55.504C195.868 55.7387 195.537 56.0213 195.292 56.352V62H194.092V54.272H195.292V55.392C195.59 55.0293 195.99 54.72 196.492 54.464C196.993 54.208 197.516 54.08 198.06 54.08C199.692 54.08 200.508 54.912 200.508 56.576V62ZM198.22 53.136C197.964 53.136 197.734 53.0613 197.532 52.912C197.34 52.752 197.19 52.5813 197.084 52.4C196.988 52.2187 196.865 52.0533 196.716 51.904C196.577 51.744 196.422 51.664 196.252 51.664C196.028 51.664 195.841 51.7813 195.692 52.016C195.553 52.24 195.484 52.5813 195.484 53.04H194.764C194.764 52.4 194.897 51.8827 195.164 51.488C195.441 51.0933 195.825 50.896 196.316 50.896C196.572 50.896 196.796 50.976 196.988 51.136C197.19 51.2853 197.34 51.4507 197.436 51.632C197.542 51.8133 197.665 51.984 197.804 52.144C197.953 52.2933 198.113 52.368 198.284 52.368C198.508 52.368 198.689 52.256 198.828 52.032C198.977 51.7973 199.052 51.4507 199.052 50.992H199.772C199.772 51.632 199.633 52.1493 199.356 52.544C199.089 52.9387 198.71 53.136 198.22 53.136ZM209.016 61.024C208.323 61.8027 207.4 62.192 206.248 62.192C205.096 62.192 204.168 61.8027 203.464 61.024C202.771 60.2453 202.424 59.28 202.424 58.128C202.424 56.976 202.771 56.016 203.464 55.248C204.168 54.4693 205.096 54.08 206.248 54.08C207.4 54.08 208.323 54.4693 209.016 55.248C209.72 56.016 210.072 56.976 210.072 58.128C210.072 59.28 209.72 60.2453 209.016 61.024ZM204.376 60.256C204.835 60.832 205.459 61.12 206.248 61.12C207.037 61.12 207.661 60.832 208.12 60.256C208.579 59.6693 208.808 58.96 208.808 58.128C208.808 57.296 208.579 56.592 208.12 56.016C207.661 55.44 207.037 55.152 206.248 55.152C205.459 55.152 204.835 55.44 204.376 56.016C203.917 56.592 203.688 57.296 203.688 58.128C203.688 58.96 203.917 59.6693 204.376 60.256ZM213.644 61.616C213.644 62.0853 213.521 62.5333 213.276 62.96C213.041 63.3973 212.732 63.7547 212.348 64.032L211.74 63.536C212.007 63.3653 212.236 63.136 212.428 62.848C212.631 62.5707 212.748 62.304 212.78 62.048C212.737 62.0693 212.663 62.08 212.556 62.08C212.343 62.08 212.161 62.0053 212.012 61.856C211.863 61.696 211.788 61.4987 211.788 61.264C211.788 61.0293 211.868 60.8267 212.028 60.656C212.199 60.4853 212.401 60.4 212.636 60.4C212.924 60.4 213.164 60.512 213.356 60.736C213.548 60.9493 213.644 61.2427 213.644 61.616ZM223.664 62.192C222.608 62.192 221.739 61.7387 221.056 60.832V64.944H219.856V54.272H221.056V55.424C221.344 55.0187 221.718 54.6933 222.176 54.448C222.635 54.2027 223.131 54.08 223.664 54.08C224.688 54.08 225.515 54.448 226.144 55.184C226.784 55.9093 227.104 56.8907 227.104 58.128C227.104 59.3653 226.784 60.352 226.144 61.088C225.515 61.824 224.688 62.192 223.664 62.192ZM223.36 61.12C224.118 61.12 224.72 60.8427 225.168 60.288C225.616 59.7227 225.84 59.0027 225.84 58.128C225.84 57.2533 225.616 56.5387 225.168 55.984C224.72 55.4293 224.118 55.152 223.36 55.152C222.902 55.152 222.454 55.2747 222.016 55.52C221.59 55.7547 221.27 56.0427 221.056 56.384V59.872C221.27 60.224 221.59 60.5227 222.016 60.768C222.454 61.0027 222.902 61.12 223.36 61.12ZM232.516 62.192C231.354 62.192 230.405 61.8187 229.669 61.072C228.933 60.3147 228.565 59.3333 228.565 58.128C228.565 56.9973 228.927 56.0427 229.653 55.264C230.378 54.4747 231.285 54.08 232.373 54.08C233.514 54.08 234.415 54.4747 235.077 55.264C235.749 56.0427 236.085 57.0293 236.085 58.224V58.528H229.845C229.898 59.2853 230.17 59.92 230.661 60.432C231.162 60.944 231.813 61.2 232.613 61.2C233.573 61.2 234.373 60.8693 235.013 60.208L235.589 60.992C234.767 61.792 233.743 62.192 232.516 62.192ZM234.901 57.632C234.89 56.9813 234.666 56.3947 234.229 55.872C233.791 55.3387 233.167 55.072 232.357 55.072C231.589 55.072 230.981 55.3333 230.533 55.856C230.095 56.3787 229.861 56.9707 229.829 57.632H234.901ZM239.228 62H238.028V54.272H239.228V55.504C239.964 54.5653 240.823 54.096 241.804 54.096V55.328C241.612 55.3067 241.457 55.296 241.34 55.296C240.967 55.296 240.567 55.424 240.14 55.68C239.713 55.9253 239.409 56.208 239.228 56.528V62ZM249.453 61.024C248.76 61.8027 247.837 62.192 246.685 62.192C245.533 62.192 244.605 61.8027 243.901 61.024C243.208 60.2453 242.861 59.28 242.861 58.128C242.861 56.976 243.208 56.016 243.901 55.248C244.605 54.4693 245.533 54.08 246.685 54.08C247.837 54.08 248.76 54.4693 249.453 55.248C250.157 56.016 250.509 56.976 250.509 58.128C250.509 59.28 250.157 60.2453 249.453 61.024ZM244.813 60.256C245.272 60.832 245.896 61.12 246.685 61.12C247.475 61.12 248.099 60.832 248.557 60.256C249.016 59.6693 249.245 58.96 249.245 58.128C249.245 57.296 249.016 56.592 248.557 56.016C248.099 55.44 247.475 55.152 246.685 55.152C245.896 55.152 245.272 55.44 244.813 56.016C244.355 56.592 244.125 57.296 244.125 58.128C244.125 58.96 244.355 59.6693 244.813 60.256ZM263.022 62H261.838V56.944C261.838 56.2933 261.689 55.8347 261.39 55.568C261.092 55.2907 260.66 55.152 260.094 55.152C259.646 55.152 259.214 55.2693 258.798 55.504C258.382 55.7387 258.052 56.0213 257.806 56.352V62H256.606V54.272H257.806V55.392C258.105 55.0293 258.505 54.72 259.006 54.464C259.508 54.208 260.03 54.08 260.574 54.08C262.206 54.08 263.022 54.912 263.022 56.576V62ZM271.578 61.024C270.885 61.8027 269.962 62.192 268.81 62.192C267.658 62.192 266.73 61.8027 266.026 61.024C265.333 60.2453 264.986 59.28 264.986 58.128C264.986 56.976 265.333 56.016 266.026 55.248C266.73 54.4693 267.658 54.08 268.81 54.08C269.962 54.08 270.885 54.4693 271.578 55.248C272.282 56.016 272.634 56.976 272.634 58.128C272.634 59.28 272.282 60.2453 271.578 61.024ZM266.938 60.256C267.397 60.832 268.021 61.12 268.81 61.12C269.6 61.12 270.224 60.832 270.682 60.256C271.141 59.6693 271.37 58.96 271.37 58.128C271.37 57.296 271.141 56.592 270.682 56.016C270.224 55.44 269.6 55.152 268.81 55.152C268.021 55.152 267.397 55.44 266.938 56.016C266.48 56.592 266.25 57.296 266.25 58.128C266.25 58.96 266.48 59.6693 266.938 60.256ZM282.139 62.192C280.998 62.192 280.07 61.808 279.355 61.04C278.641 60.2613 278.283 59.2907 278.283 58.128C278.283 56.9653 278.641 56 279.355 55.232C280.07 54.464 280.998 54.08 282.139 54.08C283.334 54.08 284.278 54.528 284.971 55.424L284.171 56.144C283.691 55.4827 283.035 55.152 282.203 55.152C281.403 55.152 280.758 55.4347 280.267 56C279.777 56.5547 279.531 57.264 279.531 58.128C279.531 59.0027 279.777 59.7227 280.267 60.288C280.758 60.8427 281.403 61.12 282.203 61.12C283.014 61.12 283.67 60.784 284.171 60.112L284.971 60.848C284.278 61.744 283.334 62.192 282.139 62.192ZM293.469 62H292.269V60.848C291.607 61.744 290.738 62.192 289.661 62.192C288.637 62.192 287.805 61.8293 287.165 61.104C286.535 60.368 286.221 59.3813 286.221 58.144C286.221 56.9173 286.541 55.936 287.181 55.2C287.821 54.4533 288.647 54.08 289.661 54.08C290.727 54.08 291.597 54.5333 292.269 55.44V54.272H293.469V62ZM289.965 61.12C290.423 61.12 290.866 61.0027 291.293 60.768C291.73 60.5227 292.055 60.2293 292.269 59.888V56.4C292.055 56.048 291.73 55.7547 291.293 55.52C290.866 55.2747 290.423 55.152 289.965 55.152C289.197 55.152 288.589 55.4347 288.141 56C287.693 56.5547 287.469 57.2693 287.469 58.144C287.469 59.0187 287.693 59.7333 288.141 60.288C288.589 60.8427 289.197 61.12 289.965 61.12ZM302.672 62H301.472V60.848C300.811 61.744 299.941 62.192 298.864 62.192C297.84 62.192 297.008 61.8293 296.368 61.104C295.739 60.368 295.424 59.3813 295.424 58.144C295.424 56.9173 295.744 55.936 296.384 55.2C297.024 54.4533 297.851 54.08 298.864 54.08C299.931 54.08 300.8 54.5333 301.472 55.44V51.328H302.672V62ZM299.168 61.12C299.627 61.12 300.069 61.0027 300.496 60.768C300.933 60.5227 301.259 60.2293 301.472 59.888V56.4C301.259 56.048 300.933 55.7547 300.496 55.52C300.069 55.2747 299.627 55.152 299.168 55.152C298.4 55.152 297.792 55.4347 297.344 56C296.896 56.5547 296.672 57.2693 296.672 58.144C296.672 59.0187 296.896 59.7333 297.344 60.288C297.792 60.8427 298.4 61.12 299.168 61.12ZM311.875 62H310.675V60.848C310.014 61.744 309.144 62.192 308.067 62.192C307.043 62.192 306.211 61.8293 305.571 61.104C304.942 60.368 304.627 59.3813 304.627 58.144C304.627 56.9173 304.947 55.936 305.587 55.2C306.227 54.4533 307.054 54.08 308.067 54.08C309.134 54.08 310.003 54.5333 310.675 55.44V54.272H311.875V62ZM308.371 61.12C308.83 61.12 309.272 61.0027 309.699 60.768C310.136 60.5227 310.462 60.2293 310.675 59.888V56.4C310.462 56.048 310.136 55.7547 309.699 55.52C309.272 55.2747 308.83 55.152 308.371 55.152C307.603 55.152 306.995 55.4347 306.547 56C306.099 56.5547 305.875 57.2693 305.875 58.144C305.875 59.0187 306.099 59.7333 306.547 60.288C306.995 60.8427 307.603 61.12 308.371 61.12ZM328.947 62H327.747V56.752C327.747 55.6853 327.272 55.152 326.323 55.152C325.939 55.152 325.555 55.2693 325.171 55.504C324.787 55.728 324.488 56.0053 324.275 56.336V62H323.075V56.752C323.075 55.6853 322.6 55.152 321.651 55.152C321.277 55.152 320.899 55.2693 320.515 55.504C320.141 55.7387 319.843 56.0213 319.619 56.352V62H318.419V54.272H319.619V55.392C319.821 55.0827 320.157 54.7893 320.627 54.512C321.107 54.224 321.608 54.08 322.131 54.08C322.685 54.08 323.139 54.2133 323.491 54.48C323.843 54.7467 324.077 55.0933 324.195 55.52C324.429 55.136 324.787 54.8 325.267 54.512C325.747 54.224 326.253 54.08 326.787 54.08C328.227 54.08 328.947 54.8587 328.947 56.416V62ZM334.845 62.192C333.682 62.192 332.733 61.8187 331.997 61.072C331.261 60.3147 330.893 59.3333 330.893 58.128C330.893 56.9973 331.255 56.0427 331.981 55.264C332.706 54.4747 333.613 54.08 334.701 54.08C335.842 54.08 336.743 54.4747 337.405 55.264C338.077 56.0427 338.413 57.0293 338.413 58.224V58.528H332.173C332.226 59.2853 332.498 59.92 332.989 60.432C333.49 60.944 334.141 61.2 334.941 61.2C335.901 61.2 336.701 60.8693 337.341 60.208L337.917 60.992C337.095 61.792 336.071 62.192 334.845 62.192ZM337.229 57.632C337.218 56.9813 336.994 56.3947 336.557 55.872C336.119 55.3387 335.495 55.072 334.685 55.072C333.917 55.072 333.309 55.3333 332.861 55.856C332.423 56.3787 332.189 56.9707 332.157 57.632H337.229ZM342.82 62.192C341.519 62.192 340.479 61.7867 339.7 60.976L340.308 60.112C340.575 60.4213 340.938 60.6827 341.396 60.896C341.866 61.1093 342.351 61.216 342.852 61.216C343.428 61.216 343.876 61.0933 344.196 60.848C344.527 60.6027 344.692 60.2827 344.692 59.888C344.692 59.5467 344.527 59.28 344.196 59.088C343.866 58.8853 343.466 58.736 342.996 58.64C342.527 58.5333 342.058 58.416 341.588 58.288C341.13 58.1493 340.735 57.92 340.404 57.6C340.074 57.2693 339.908 56.8373 339.908 56.304C339.908 55.6747 340.164 55.1467 340.676 54.72C341.188 54.2933 341.887 54.08 342.772 54.08C343.956 54.08 344.911 54.4533 345.636 55.2L345.076 56.032C344.532 55.3813 343.764 55.056 342.772 55.056C342.25 55.056 341.834 55.1733 341.524 55.408C341.215 55.632 341.06 55.92 341.06 56.272C341.06 56.528 341.178 56.7413 341.412 56.912C341.647 57.0827 341.94 57.2053 342.292 57.28C342.655 57.3547 343.039 57.4507 343.444 57.568C343.86 57.6853 344.244 57.8187 344.596 57.968C344.959 58.1067 345.258 58.3413 345.492 58.672C345.727 58.992 345.844 59.3867 345.844 59.856C345.844 60.5387 345.578 61.0987 345.044 61.536C344.522 61.9733 343.78 62.192 342.82 62.192Z" fill="#505050"/>
<line opacity="0.4" x1="11.5" y1="107.5" x2="25.5" y2="107.5" stroke="#1A1A1A" stroke-linecap="round"/>
<path d="M46.384 113H44.864L43.92 110.616H38.608L37.664 113H36.144L40.448 102.328H42.096L46.384 113ZM43.536 109.448L41.264 103.688L39.008 109.448H43.536ZM49.4433 113.192C48.8779 113.192 48.4513 113.037 48.1633 112.728C47.8753 112.419 47.7313 111.971 47.7313 111.384V102.328H48.9313V111.128C48.9313 111.427 48.9953 111.667 49.1233 111.848C49.2619 112.029 49.4593 112.12 49.7153 112.12C50.0673 112.12 50.3339 112.008 50.5153 111.784L50.8833 112.696C50.5206 113.027 50.0406 113.192 49.4433 113.192ZM66.6968 113H65.4968V107.752C65.4968 106.685 65.0221 106.152 64.0728 106.152C63.6888 106.152 63.3048 106.269 62.9208 106.504C62.5368 106.728 62.2381 107.005 62.0248 107.336V113H60.8248V107.752C60.8248 106.685 60.3501 106.152 59.4008 106.152C59.0274 106.152 58.6488 106.269 58.2648 106.504C57.8914 106.739 57.5928 107.021 57.3688 107.352V113H56.1688V105.272H57.3688V106.392C57.5714 106.083 57.9074 105.789 58.3768 105.512C58.8568 105.224 59.3581 105.08 59.8808 105.08C60.4354 105.08 60.8888 105.213 61.2408 105.48C61.5928 105.747 61.8274 106.093 61.9448 106.52C62.1794 106.136 62.5368 105.8 63.0168 105.512C63.4968 105.224 64.0034 105.08 64.5368 105.08C65.9768 105.08 66.6968 105.859 66.6968 107.416V113ZM72.5946 113.192C71.432 113.192 70.4826 112.819 69.7466 112.072C69.0106 111.315 68.6426 110.333 68.6426 109.128C68.6426 107.997 69.0053 107.043 69.7306 106.264C70.456 105.475 71.3626 105.08 72.4506 105.08C73.592 105.08 74.4933 105.475 75.1546 106.264C75.8266 107.043 76.1626 108.029 76.1626 109.224V109.528H69.9226C69.976 110.285 70.248 110.92 70.7386 111.432C71.24 111.944 71.8906 112.2 72.6906 112.2C73.6506 112.2 74.4506 111.869 75.0906 111.208L75.6666 111.992C74.8453 112.792 73.8213 113.192 72.5946 113.192ZM74.9786 108.632C74.968 107.981 74.744 107.395 74.3066 106.872C73.8693 106.339 73.2453 106.072 72.4346 106.072C71.6666 106.072 71.0586 106.333 70.6106 106.856C70.1733 107.379 69.9386 107.971 69.9066 108.632H74.9786ZM84.5223 113H83.3383V107.944C83.3383 107.293 83.1889 106.835 82.8903 106.568C82.5916 106.291 82.1596 106.152 81.5943 106.152C81.1463 106.152 80.7143 106.269 80.2983 106.504C79.8823 106.739 79.5516 107.021 79.3063 107.352V113H78.1063V105.272H79.3063V106.392C79.6049 106.029 80.0049 105.72 80.5063 105.464C81.0076 105.208 81.5303 105.08 82.0743 105.08C83.7063 105.08 84.5223 105.912 84.5223 107.576V113ZM93.0784 112.024C92.385 112.803 91.4624 113.192 90.3104 113.192C89.1584 113.192 88.2304 112.803 87.5264 112.024C86.833 111.245 86.4864 110.28 86.4864 109.128C86.4864 107.976 86.833 107.016 87.5264 106.248C88.2304 105.469 89.1584 105.08 90.3104 105.08C91.4624 105.08 92.385 105.469 93.0784 106.248C93.7824 107.016 94.1344 107.976 94.1344 109.128C94.1344 110.28 93.7824 111.245 93.0784 112.024ZM88.4384 111.256C88.897 111.832 89.521 112.12 90.3104 112.12C91.0997 112.12 91.7237 111.832 92.1824 111.256C92.641 110.669 92.8704 109.96 92.8704 109.128C92.8704 108.296 92.641 107.592 92.1824 107.016C91.7237 106.44 91.0997 106.152 90.3104 106.152C89.521 106.152 88.897 106.44 88.4384 107.016C87.9797 107.592 87.7504 108.296 87.7504 109.128C87.7504 109.96 87.9797 110.669 88.4384 111.256ZM98.5546 113.192C97.2533 113.192 96.2133 112.787 95.4346 111.976L96.0426 111.112C96.3093 111.421 96.672 111.683 97.1306 111.896C97.6 112.109 98.0853 112.216 98.5866 112.216C99.1626 112.216 99.6106 112.093 99.9306 111.848C100.261 111.603 100.427 111.283 100.427 110.888C100.427 110.547 100.261 110.28 99.9306 110.088C99.6 109.885 99.2 109.736 98.7306 109.64C98.2613 109.533 97.792 109.416 97.3226 109.288C96.864 109.149 96.4693 108.92 96.1386 108.6C95.808 108.269 95.6426 107.837 95.6426 107.304C95.6426 106.675 95.8986 106.147 96.4106 105.72C96.9226 105.293 97.6213 105.08 98.5066 105.08C99.6906 105.08 100.645 105.453 101.371 106.2L100.811 107.032C100.267 106.381 99.4986 106.056 98.5066 106.056C97.984 106.056 97.568 106.173 97.2586 106.408C96.9493 106.632 96.7946 106.92 96.7946 107.272C96.7946 107.528 96.912 107.741 97.1466 107.912C97.3813 108.083 97.6746 108.205 98.0266 108.28C98.3893 108.355 98.7733 108.451 99.1786 108.568C99.5946 108.685 99.9786 108.819 100.331 108.968C100.693 109.107 100.992 109.341 101.227 109.672C101.461 109.992 101.579 110.387 101.579 110.856C101.579 111.539 101.312 112.099 100.779 112.536C100.256 112.973 99.5146 113.192 98.5546 113.192ZM114.085 113H112.885V111.912C112.565 112.275 112.159 112.579 111.669 112.824C111.189 113.069 110.677 113.192 110.133 113.192C108.49 113.192 107.669 112.371 107.669 110.728V105.272H108.869V110.36C108.869 111 109.018 111.453 109.317 111.72C109.615 111.987 110.047 112.12 110.613 112.12C111.061 112.12 111.493 112.008 111.909 111.784C112.325 111.56 112.65 111.283 112.885 110.952V105.272H114.085V113ZM122.897 113H121.713V107.944C121.713 107.293 121.564 106.835 121.265 106.568C120.967 106.291 120.535 106.152 119.969 106.152C119.521 106.152 119.089 106.269 118.673 106.504C118.257 106.739 117.927 107.021 117.681 107.352V113H116.481V105.272H117.681V106.392C117.98 106.029 118.38 105.72 118.881 105.464C119.383 105.208 119.905 105.08 120.449 105.08C122.081 105.08 122.897 105.912 122.897 107.576V113ZM132.109 113H130.909V111.848C130.248 112.744 129.379 113.192 128.301 113.192C127.277 113.192 126.445 112.829 125.805 112.104C125.176 111.368 124.861 110.381 124.861 109.144C124.861 107.917 125.181 106.936 125.821 106.2C126.461 105.453 127.288 105.08 128.301 105.08C129.368 105.08 130.237 105.533 130.909 106.44V105.272H132.109V113ZM128.605 112.12C129.064 112.12 129.507 112.003 129.933 111.768C130.371 111.523 130.696 111.229 130.909 110.888V107.4C130.696 107.048 130.371 106.755 129.933 106.52C129.507 106.275 129.064 106.152 128.605 106.152C127.837 106.152 127.229 106.435 126.781 107C126.333 107.555 126.109 108.269 126.109 109.144C126.109 110.019 126.333 110.733 126.781 111.288C127.229 111.843 127.837 112.12 128.605 112.12ZM142.029 113H140.717L137.501 105.272H138.813L141.373 111.608L143.949 105.272H145.245L142.029 113ZM150.001 113.192C148.838 113.192 147.889 112.819 147.153 112.072C146.417 111.315 146.049 110.333 146.049 109.128C146.049 107.997 146.412 107.043 147.137 106.264C147.862 105.475 148.769 105.08 149.857 105.08C150.998 105.08 151.9 105.475 152.561 106.264C153.233 107.043 153.569 108.029 153.569 109.224V109.528H147.329C147.382 110.285 147.654 110.92 148.145 111.432C148.646 111.944 149.297 112.2 150.097 112.2C151.057 112.2 151.857 111.869 152.497 111.208L153.073 111.992C152.252 112.792 151.228 113.192 150.001 113.192ZM152.385 108.632C152.374 107.981 152.15 107.395 151.713 106.872C151.276 106.339 150.652 106.072 149.841 106.072C149.073 106.072 148.465 106.333 148.017 106.856C147.58 107.379 147.345 107.971 147.313 108.632H152.385ZM161.033 113H155.145V112.056L159.401 106.328H155.145V105.272H160.969V106.184L156.681 111.944H161.033V113ZM174 113H172.8V111.848C172.139 112.744 171.269 113.192 170.192 113.192C169.168 113.192 168.336 112.829 167.696 112.104C167.067 111.368 166.752 110.381 166.752 109.144C166.752 107.917 167.072 106.936 167.712 106.2C168.352 105.453 169.179 105.08 170.192 105.08C171.259 105.08 172.128 105.533 172.8 106.44V105.272H174V113ZM170.496 112.12C170.955 112.12 171.397 112.003 171.824 111.768C172.261 111.523 172.587 111.229 172.8 110.888V107.4C172.587 107.048 172.261 106.755 171.824 106.52C171.397 106.275 170.955 106.152 170.496 106.152C169.728 106.152 169.12 106.435 168.672 107C168.224 107.555 168 108.269 168 109.144C168 110.019 168.224 110.733 168.672 111.288C169.12 111.843 169.728 112.12 170.496 112.12ZM178.115 113.192C177.55 113.192 177.123 113.037 176.835 112.728C176.547 112.419 176.403 111.971 176.403 111.384V102.328H177.603V111.128C177.603 111.427 177.667 111.667 177.795 111.848C177.934 112.029 178.131 112.12 178.387 112.12C178.739 112.12 179.006 112.008 179.187 111.784L179.555 112.696C179.192 113.027 178.712 113.192 178.115 113.192ZM195.369 113H194.169V107.752C194.169 106.685 193.694 106.152 192.745 106.152C192.361 106.152 191.977 106.269 191.593 106.504C191.209 106.728 190.91 107.005 190.697 107.336V113H189.497V107.752C189.497 106.685 189.022 106.152 188.073 106.152C187.699 106.152 187.321 106.269 186.937 106.504C186.563 106.739 186.265 107.021 186.041 107.352V113H184.841V105.272H186.041V106.392C186.243 106.083 186.579 105.789 187.049 105.512C187.529 105.224 188.03 105.08 188.553 105.08C189.107 105.08 189.561 105.213 189.913 105.48C190.265 105.747 190.499 106.093 190.617 106.52C190.851 106.136 191.209 105.8 191.689 105.512C192.169 105.224 192.675 105.08 193.209 105.08C194.649 105.08 195.369 105.859 195.369 107.416V113ZM201.266 113.192C200.104 113.192 199.155 112.819 198.419 112.072C197.683 111.315 197.315 110.333 197.315 109.128C197.315 107.997 197.677 107.043 198.403 106.264C199.128 105.475 200.035 105.08 201.123 105.08C202.264 105.08 203.165 105.475 203.827 106.264C204.499 107.043 204.835 108.029 204.835 109.224V109.528H198.595C198.648 110.285 198.92 110.92 199.411 111.432C199.912 111.944 200.563 112.2 201.363 112.2C202.323 112.2 203.123 111.869 203.763 111.208L204.339 111.992C203.517 112.792 202.493 113.192 201.266 113.192ZM203.651 108.632C203.64 107.981 203.416 107.395 202.979 106.872C202.541 106.339 201.917 106.072 201.107 106.072C200.339 106.072 199.731 106.333 199.283 106.856C198.845 107.379 198.611 107.971 198.579 108.632H203.651ZM209.242 113.192C207.941 113.192 206.901 112.787 206.122 111.976L206.73 111.112C206.997 111.421 207.359 111.683 207.818 111.896C208.287 112.109 208.773 112.216 209.274 112.216C209.85 112.216 210.298 112.093 210.618 111.848C210.949 111.603 211.114 111.283 211.114 110.888C211.114 110.547 210.949 110.28 210.618 110.088C210.287 109.885 209.887 109.736 209.418 109.64C208.949 109.533 208.479 109.416 208.01 109.288C207.551 109.149 207.157 108.92 206.826 108.6C206.495 108.269 206.33 107.837 206.33 107.304C206.33 106.675 206.586 106.147 207.098 105.72C207.61 105.293 208.309 105.08 209.194 105.08C210.378 105.08 211.333 105.453 212.058 106.2L211.498 107.032C210.954 106.381 210.186 106.056 209.194 106.056C208.671 106.056 208.255 106.173 207.946 106.408C207.637 106.632 207.482 106.92 207.482 107.272C207.482 107.528 207.599 107.741 207.834 107.912C208.069 108.083 208.362 108.205 208.714 108.28C209.077 108.355 209.461 108.451 209.866 108.568C210.282 108.685 210.666 108.819 211.018 108.968C211.381 109.107 211.679 109.341 211.914 109.672C212.149 109.992 212.266 110.387 212.266 110.856C212.266 111.539 211.999 112.099 211.466 112.536C210.943 112.973 210.202 113.192 209.242 113.192ZM215.832 112.616C215.832 113.085 215.709 113.533 215.464 113.96C215.229 114.397 214.92 114.755 214.536 115.032L213.928 114.536C214.194 114.365 214.424 114.136 214.616 113.848C214.818 113.571 214.936 113.304 214.968 113.048C214.925 113.069 214.85 113.08 214.744 113.08C214.53 113.08 214.349 113.005 214.2 112.856C214.05 112.696 213.976 112.499 213.976 112.264C213.976 112.029 214.056 111.827 214.216 111.656C214.386 111.485 214.589 111.4 214.824 111.4C215.112 111.4 215.352 111.512 215.544 111.736C215.736 111.949 215.832 112.243 215.832 112.616ZM225.852 113.192C224.796 113.192 223.926 112.739 223.244 111.832V115.944H222.044V105.272H223.244V106.424C223.532 106.019 223.905 105.693 224.364 105.448C224.822 105.203 225.318 105.08 225.852 105.08C226.876 105.08 227.702 105.448 228.332 106.184C228.972 106.909 229.292 107.891 229.292 109.128C229.292 110.365 228.972 111.352 228.332 112.088C227.702 112.824 226.876 113.192 225.852 113.192ZM225.548 112.12C226.305 112.12 226.908 111.843 227.356 111.288C227.804 110.723 228.028 110.003 228.028 109.128C228.028 108.253 227.804 107.539 227.356 106.984C226.908 106.429 226.305 106.152 225.548 106.152C225.089 106.152 224.641 106.275 224.204 106.52C223.777 106.755 223.457 107.043 223.244 107.384V110.872C223.457 111.224 223.777 111.523 224.204 111.768C224.641 112.003 225.089 112.12 225.548 112.12ZM234.704 113.192C233.541 113.192 232.592 112.819 231.856 112.072C231.12 111.315 230.752 110.333 230.752 109.128C230.752 107.997 231.115 107.043 231.84 106.264C232.565 105.475 233.472 105.08 234.56 105.08C235.701 105.08 236.603 105.475 237.264 106.264C237.936 107.043 238.272 108.029 238.272 109.224V109.528H232.032C232.085 110.285 232.357 110.92 232.848 111.432C233.349 111.944 234 112.2 234.8 112.2C235.76 112.2 236.56 111.869 237.2 111.208L237.776 111.992C236.955 112.792 235.931 113.192 234.704 113.192ZM237.088 108.632C237.077 107.981 236.853 107.395 236.416 106.872C235.979 106.339 235.355 106.072 234.544 106.072C233.776 106.072 233.168 106.333 232.72 106.856C232.283 107.379 232.048 107.971 232.016 108.632H237.088ZM241.416 113H240.216V105.272H241.416V106.504C242.152 105.565 243.01 105.096 243.992 105.096V106.328C243.8 106.307 243.645 106.296 243.528 106.296C243.154 106.296 242.754 106.424 242.328 106.68C241.901 106.925 241.597 107.208 241.416 107.528V113ZM251.641 112.024C250.948 112.803 250.025 113.192 248.873 113.192C247.721 113.192 246.793 112.803 246.089 112.024C245.396 111.245 245.049 110.28 245.049 109.128C245.049 107.976 245.396 107.016 246.089 106.248C246.793 105.469 247.721 105.08 248.873 105.08C250.025 105.08 250.948 105.469 251.641 106.248C252.345 107.016 252.697 107.976 252.697 109.128C252.697 110.28 252.345 111.245 251.641 112.024ZM247.001 111.256C247.46 111.832 248.084 112.12 248.873 112.12C249.662 112.12 250.286 111.832 250.745 111.256C251.204 110.669 251.433 109.96 251.433 109.128C251.433 108.296 251.204 107.592 250.745 107.016C250.286 106.44 249.662 106.152 248.873 106.152C248.084 106.152 247.46 106.44 247.001 107.016C246.542 107.592 246.313 108.296 246.313 109.128C246.313 109.96 246.542 110.669 247.001 111.256ZM265.21 113H264.026V107.944C264.026 107.293 263.876 106.835 263.578 106.568C263.279 106.291 262.847 106.152 262.282 106.152C261.834 106.152 261.402 106.269 260.986 106.504C260.57 106.739 260.239 107.021 259.994 107.352V113H258.794V105.272H259.994V106.392C260.292 106.029 260.692 105.72 261.194 105.464C261.695 105.208 262.218 105.08 262.762 105.08C264.394 105.08 265.21 105.912 265.21 107.576V113ZM273.766 112.024C273.073 112.803 272.15 113.192 270.998 113.192C269.846 113.192 268.918 112.803 268.214 112.024C267.521 111.245 267.174 110.28 267.174 109.128C267.174 107.976 267.521 107.016 268.214 106.248C268.918 105.469 269.846 105.08 270.998 105.08C272.15 105.08 273.073 105.469 273.766 106.248C274.47 107.016 274.822 107.976 274.822 109.128C274.822 110.28 274.47 111.245 273.766 112.024ZM269.126 111.256C269.585 111.832 270.209 112.12 270.998 112.12C271.787 112.12 272.411 111.832 272.87 111.256C273.329 110.669 273.558 109.96 273.558 109.128C273.558 108.296 273.329 107.592 272.87 107.016C272.411 106.44 271.787 106.152 270.998 106.152C270.209 106.152 269.585 106.44 269.126 107.016C268.667 107.592 268.438 108.296 268.438 109.128C268.438 109.96 268.667 110.669 269.126 111.256ZM284.327 113.192C283.185 113.192 282.257 112.808 281.543 112.04C280.828 111.261 280.471 110.291 280.471 109.128C280.471 107.965 280.828 107 281.543 106.232C282.257 105.464 283.185 105.08 284.327 105.08C285.521 105.08 286.465 105.528 287.159 106.424L286.359 107.144C285.879 106.483 285.223 106.152 284.391 106.152C283.591 106.152 282.945 106.435 282.455 107C281.964 107.555 281.719 108.264 281.719 109.128C281.719 110.003 281.964 110.723 282.455 111.288C282.945 111.843 283.591 112.12 284.391 112.12C285.201 112.12 285.857 111.784 286.359 111.112L287.159 111.848C286.465 112.744 285.521 113.192 284.327 113.192ZM295.656 113H294.456V111.848C293.795 112.744 292.926 113.192 291.848 113.192C290.824 113.192 289.992 112.829 289.352 112.104C288.723 111.368 288.408 110.381 288.408 109.144C288.408 107.917 288.728 106.936 289.368 106.2C290.008 105.453 290.835 105.08 291.848 105.08C292.915 105.08 293.784 105.533 294.456 106.44V105.272H295.656V113ZM292.152 112.12C292.611 112.12 293.054 112.003 293.48 111.768C293.918 111.523 294.243 111.229 294.456 110.888V107.4C294.243 107.048 293.918 106.755 293.48 106.52C293.054 106.275 292.611 106.152 292.152 106.152C291.384 106.152 290.776 106.435 290.328 107C289.88 107.555 289.656 108.269 289.656 109.144C289.656 110.019 289.88 110.733 290.328 111.288C290.776 111.843 291.384 112.12 292.152 112.12ZM304.859 113H303.659V111.848C302.998 112.744 302.129 113.192 301.051 113.192C300.027 113.192 299.195 112.829 298.555 112.104C297.926 111.368 297.611 110.381 297.611 109.144C297.611 107.917 297.931 106.936 298.571 106.2C299.211 105.453 300.038 105.08 301.051 105.08C302.118 105.08 302.987 105.533 303.659 106.44V102.328H304.859V113ZM301.355 112.12C301.814 112.12 302.257 112.003 302.683 111.768C303.121 111.523 303.446 111.229 303.659 110.888V107.4C303.446 107.048 303.121 106.755 302.683 106.52C302.257 106.275 301.814 106.152 301.355 106.152C300.587 106.152 299.979 106.435 299.531 107C299.083 107.555 298.859 108.269 298.859 109.144C298.859 110.019 299.083 110.733 299.531 111.288C299.979 111.843 300.587 112.12 301.355 112.12ZM314.062 113H312.863V111.848C312.201 112.744 311.332 113.192 310.255 113.192C309.231 113.192 308.399 112.829 307.759 112.104C307.129 111.368 306.815 110.381 306.815 109.144C306.815 107.917 307.135 106.936 307.775 106.2C308.415 105.453 309.241 105.08 310.255 105.08C311.321 105.08 312.191 105.533 312.863 106.44V105.272H314.062V113ZM310.559 112.12C311.017 112.12 311.46 112.003 311.887 111.768C312.324 111.523 312.649 111.229 312.863 110.888V107.4C312.649 107.048 312.324 106.755 311.887 106.52C311.46 106.275 311.017 106.152 310.559 106.152C309.791 106.152 309.183 106.435 308.735 107C308.287 107.555 308.062 108.269 308.062 109.144C308.062 110.019 308.287 110.733 308.735 111.288C309.183 111.843 309.791 112.12 310.559 112.12ZM323.07 113.192C321.769 113.192 320.729 112.787 319.95 111.976L320.558 111.112C320.825 111.421 321.188 111.683 321.646 111.896C322.116 112.109 322.601 112.216 323.102 112.216C323.678 112.216 324.126 112.093 324.446 111.848C324.777 111.603 324.942 111.283 324.942 110.888C324.942 110.547 324.777 110.28 324.446 110.088C324.116 109.885 323.716 109.736 323.246 109.64C322.777 109.533 322.308 109.416 321.838 109.288C321.38 109.149 320.985 108.92 320.654 108.6C320.324 108.269 320.158 107.837 320.158 107.304C320.158 106.675 320.414 106.147 320.926 105.72C321.438 105.293 322.137 105.08 323.022 105.08C324.206 105.08 325.161 105.453 325.886 106.2L325.326 107.032C324.782 106.381 324.014 106.056 323.022 106.056C322.5 106.056 322.084 106.173 321.774 106.408C321.465 106.632 321.31 106.92 321.31 107.272C321.31 107.528 321.428 107.741 321.662 107.912C321.897 108.083 322.19 108.205 322.542 108.28C322.905 108.355 323.289 108.451 323.694 108.568C324.11 108.685 324.494 108.819 324.846 108.968C325.209 109.107 325.508 109.341 325.742 109.672C325.977 109.992 326.094 110.387 326.094 110.856C326.094 111.539 325.828 112.099 325.294 112.536C324.772 112.973 324.03 113.192 323.07 113.192ZM331.548 113.192C330.385 113.192 329.436 112.819 328.7 112.072C327.964 111.315 327.596 110.333 327.596 109.128C327.596 107.997 327.958 107.043 328.684 106.264C329.409 105.475 330.316 105.08 331.404 105.08C332.545 105.08 333.446 105.475 334.108 106.264C334.78 107.043 335.116 108.029 335.116 109.224V109.528H328.876C328.929 110.285 329.201 110.92 329.692 111.432C330.193 111.944 330.844 112.2 331.644 112.2C332.604 112.2 333.404 111.869 334.044 111.208L334.62 111.992C333.798 112.792 332.774 113.192 331.548 113.192ZM333.932 108.632C333.921 107.981 333.697 107.395 333.26 106.872C332.822 106.339 332.198 106.072 331.388 106.072C330.62 106.072 330.012 106.333 329.564 106.856C329.126 107.379 328.892 107.971 328.86 108.632H333.932ZM347.587 113H346.387V107.752C346.387 106.685 345.913 106.152 344.963 106.152C344.579 106.152 344.195 106.269 343.811 106.504C343.427 106.728 343.129 107.005 342.915 107.336V113H341.715V107.752C341.715 106.685 341.241 106.152 340.291 106.152C339.918 106.152 339.539 106.269 339.155 106.504C338.782 106.739 338.483 107.021 338.259 107.352V113H337.059V105.272H338.259V106.392C338.462 106.083 338.798 105.789 339.267 105.512C339.747 105.224 340.249 105.08 340.771 105.08C341.326 105.08 341.779 105.213 342.131 105.48C342.483 105.747 342.718 106.093 342.835 106.52C343.07 106.136 343.427 105.8 343.907 105.512C344.387 105.224 344.894 105.08 345.427 105.08C346.867 105.08 347.587 105.859 347.587 107.416V113ZM356.781 113H355.581V111.848C354.92 112.744 354.051 113.192 352.973 113.192C351.949 113.192 351.117 112.829 350.477 112.104C349.848 111.368 349.533 110.381 349.533 109.144C349.533 107.917 349.853 106.936 350.493 106.2C351.133 105.453 351.96 105.08 352.973 105.08C354.04 105.08 354.909 105.533 355.581 106.44V105.272H356.781V113ZM353.277 112.12C353.736 112.12 354.179 112.003 354.605 111.768C355.043 111.523 355.368 111.229 355.581 110.888V107.4C355.368 107.048 355.043 106.755 354.605 106.52C354.179 106.275 353.736 106.152 353.277 106.152C352.509 106.152 351.901 106.435 351.453 107C351.005 107.555 350.781 108.269 350.781 109.144C350.781 110.019 351.005 110.733 351.453 111.288C351.901 111.843 352.509 112.12 353.277 112.12ZM365.6 113H364.416V107.944C364.416 107.293 364.267 106.835 363.968 106.568C363.67 106.291 363.238 106.152 362.672 106.152C362.224 106.152 361.792 106.269 361.376 106.504C360.96 106.739 360.63 107.021 360.384 107.352V113H359.184V105.272H360.384V106.392C360.683 106.029 361.083 105.72 361.584 105.464C362.086 105.208 362.608 105.08 363.152 105.08C364.784 105.08 365.6 105.912 365.6 107.576V113ZM374.812 113H373.613V111.848C372.951 112.744 372.082 113.192 371.005 113.192C369.981 113.192 369.149 112.829 368.509 112.104C367.879 111.368 367.565 110.381 367.565 109.144C367.565 107.917 367.885 106.936 368.525 106.2C369.165 105.453 369.991 105.08 371.005 105.08C372.071 105.08 372.941 105.533 373.613 106.44V105.272H374.812V113ZM371.309 112.12C371.767 112.12 372.21 112.003 372.637 111.768C373.074 111.523 373.399 111.229 373.613 110.888V107.4C373.399 107.048 373.074 106.755 372.637 106.52C372.21 106.275 371.767 106.152 371.309 106.152C370.541 106.152 369.933 106.435 369.485 107C369.037 107.555 368.812 108.269 368.812 109.144C368.812 110.019 369.037 110.733 369.485 111.288C369.933 111.843 370.541 112.12 371.309 112.12Z" fill="#505050"/>
<line opacity="0.4" x1="11.5" y1="158.5" x2="25.5" y2="158.5" stroke="#1A1A1A" stroke-linecap="round"/>
<path d="M46.384 164H44.864L43.92 161.616H38.608L37.664 164H36.144L40.448 153.328H42.096L46.384 164ZM43.536 160.448L41.264 154.688L39.008 160.448H43.536ZM49.4433 164.192C48.8779 164.192 48.4513 164.037 48.1633 163.728C47.8753 163.419 47.7313 162.971 47.7313 162.384V153.328H48.9313V162.128C48.9313 162.427 48.9953 162.667 49.1233 162.848C49.2619 163.029 49.4593 163.12 49.7153 163.12C50.0673 163.12 50.3339 163.008 50.5153 162.784L50.8833 163.696C50.5206 164.027 50.0406 164.192 49.4433 164.192ZM66.6968 164H65.4968V158.752C65.4968 157.685 65.0221 157.152 64.0728 157.152C63.6888 157.152 63.3048 157.269 62.9208 157.504C62.5368 157.728 62.2381 158.005 62.0248 158.336V164H60.8248V158.752C60.8248 157.685 60.3501 157.152 59.4008 157.152C59.0274 157.152 58.6488 157.269 58.2648 157.504C57.8914 157.739 57.5928 158.021 57.3688 158.352V164H56.1688V156.272H57.3688V157.392C57.5714 157.083 57.9074 156.789 58.3768 156.512C58.8568 156.224 59.3581 156.08 59.8808 156.08C60.4354 156.08 60.8888 156.213 61.2408 156.48C61.5928 156.747 61.8274 157.093 61.9448 157.52C62.1794 157.136 62.5368 156.8 63.0168 156.512C63.4968 156.224 64.0034 156.08 64.5368 156.08C65.9768 156.08 66.6968 156.859 66.6968 158.416V164ZM72.5946 164.192C71.432 164.192 70.4826 163.819 69.7466 163.072C69.0106 162.315 68.6426 161.333 68.6426 160.128C68.6426 158.997 69.0053 158.043 69.7306 157.264C70.456 156.475 71.3626 156.08 72.4506 156.08C73.592 156.08 74.4933 156.475 75.1546 157.264C75.8266 158.043 76.1626 159.029 76.1626 160.224V160.528H69.9226C69.976 161.285 70.248 161.92 70.7386 162.432C71.24 162.944 71.8906 163.2 72.6906 163.2C73.6506 163.2 74.4506 162.869 75.0906 162.208L75.6666 162.992C74.8453 163.792 73.8213 164.192 72.5946 164.192ZM74.9786 159.632C74.968 158.981 74.744 158.395 74.3066 157.872C73.8693 157.339 73.2453 157.072 72.4346 157.072C71.6666 157.072 71.0586 157.333 70.6106 157.856C70.1733 158.379 69.9386 158.971 69.9066 159.632H74.9786ZM84.5223 164H83.3383V158.944C83.3383 158.293 83.1889 157.835 82.8903 157.568C82.5916 157.291 82.1596 157.152 81.5943 157.152C81.1463 157.152 80.7143 157.269 80.2983 157.504C79.8823 157.739 79.5516 158.021 79.3063 158.352V164H78.1063V156.272H79.3063V157.392C79.6049 157.029 80.0049 156.72 80.5063 156.464C81.0076 156.208 81.5303 156.08 82.0743 156.08C83.7063 156.08 84.5223 156.912 84.5223 158.576V164ZM93.0784 163.024C92.385 163.803 91.4624 164.192 90.3104 164.192C89.1584 164.192 88.2304 163.803 87.5264 163.024C86.833 162.245 86.4864 161.28 86.4864 160.128C86.4864 158.976 86.833 158.016 87.5264 157.248C88.2304 156.469 89.1584 156.08 90.3104 156.08C91.4624 156.08 92.385 156.469 93.0784 157.248C93.7824 158.016 94.1344 158.976 94.1344 160.128C94.1344 161.28 93.7824 162.245 93.0784 163.024ZM88.4384 162.256C88.897 162.832 89.521 163.12 90.3104 163.12C91.0997 163.12 91.7237 162.832 92.1824 162.256C92.641 161.669 92.8704 160.96 92.8704 160.128C92.8704 159.296 92.641 158.592 92.1824 158.016C91.7237 157.44 91.0997 157.152 90.3104 157.152C89.521 157.152 88.897 157.44 88.4384 158.016C87.9797 158.592 87.7504 159.296 87.7504 160.128C87.7504 160.96 87.9797 161.669 88.4384 162.256ZM98.5546 164.192C97.2533 164.192 96.2133 163.787 95.4346 162.976L96.0426 162.112C96.3093 162.421 96.672 162.683 97.1306 162.896C97.6 163.109 98.0853 163.216 98.5866 163.216C99.1626 163.216 99.6106 163.093 99.9306 162.848C100.261 162.603 100.427 162.283 100.427 161.888C100.427 161.547 100.261 161.28 99.9306 161.088C99.6 160.885 99.2 160.736 98.7306 160.64C98.2613 160.533 97.792 160.416 97.3226 160.288C96.864 160.149 96.4693 159.92 96.1386 159.6C95.808 159.269 95.6426 158.837 95.6426 158.304C95.6426 157.675 95.8986 157.147 96.4106 156.72C96.9226 156.293 97.6213 156.08 98.5066 156.08C99.6906 156.08 100.645 156.453 101.371 157.2L100.811 158.032C100.267 157.381 99.4986 157.056 98.5066 157.056C97.984 157.056 97.568 157.173 97.2586 157.408C96.9493 157.632 96.7946 157.92 96.7946 158.272C96.7946 158.528 96.912 158.741 97.1466 158.912C97.3813 159.083 97.6746 159.205 98.0266 159.28C98.3893 159.355 98.7733 159.451 99.1786 159.568C99.5946 159.685 99.9786 159.819 100.331 159.968C100.693 160.107 100.992 160.341 101.227 160.672C101.461 160.992 101.579 161.387 101.579 161.856C101.579 162.539 101.312 163.099 100.779 163.536C100.256 163.973 99.5146 164.192 98.5546 164.192ZM114.085 164H112.885V162.912C112.565 163.275 112.159 163.579 111.669 163.824C111.189 164.069 110.677 164.192 110.133 164.192C108.49 164.192 107.669 163.371 107.669 161.728V156.272H108.869V161.36C108.869 162 109.018 162.453 109.317 162.72C109.615 162.987 110.047 163.12 110.613 163.12C111.061 163.12 111.493 163.008 111.909 162.784C112.325 162.56 112.65 162.283 112.885 161.952V156.272H114.085V164ZM122.897 164H121.713V158.944C121.713 158.293 121.564 157.835 121.265 157.568C120.967 157.291 120.535 157.152 119.969 157.152C119.521 157.152 119.089 157.269 118.673 157.504C118.257 157.739 117.927 158.021 117.681 158.352V164H116.481V156.272H117.681V157.392C117.98 157.029 118.38 156.72 118.881 156.464C119.383 156.208 119.905 156.08 120.449 156.08C122.081 156.08 122.897 156.912 122.897 158.576V164ZM132.109 164H130.909V162.848C130.248 163.744 129.379 164.192 128.301 164.192C127.277 164.192 126.445 163.829 125.805 163.104C125.176 162.368 124.861 161.381 124.861 160.144C124.861 158.917 125.181 157.936 125.821 157.2C126.461 156.453 127.288 156.08 128.301 156.08C129.368 156.08 130.237 156.533 130.909 157.44V156.272H132.109V164ZM128.605 163.12C129.064 163.12 129.507 163.003 129.933 162.768C130.371 162.523 130.696 162.229 130.909 161.888V158.4C130.696 158.048 130.371 157.755 129.933 157.52C129.507 157.275 129.064 157.152 128.605 157.152C127.837 157.152 127.229 157.435 126.781 158C126.333 158.555 126.109 159.269 126.109 160.144C126.109 161.019 126.333 161.733 126.781 162.288C127.229 162.843 127.837 163.12 128.605 163.12ZM142.029 164H140.717L137.501 156.272H138.813L141.373 162.608L143.949 156.272H145.245L142.029 164ZM150.001 164.192C148.838 164.192 147.889 163.819 147.153 163.072C146.417 162.315 146.049 161.333 146.049 160.128C146.049 158.997 146.412 158.043 147.137 157.264C147.862 156.475 148.769 156.08 149.857 156.08C150.998 156.08 151.9 156.475 152.561 157.264C153.233 158.043 153.569 159.029 153.569 160.224V160.528H147.329C147.382 161.285 147.654 161.92 148.145 162.432C148.646 162.944 149.297 163.2 150.097 163.2C151.057 163.2 151.857 162.869 152.497 162.208L153.073 162.992C152.252 163.792 151.228 164.192 150.001 164.192ZM152.385 159.632C152.374 158.981 152.15 158.395 151.713 157.872C151.276 157.339 150.652 157.072 149.841 157.072C149.073 157.072 148.465 157.333 148.017 157.856C147.58 158.379 147.345 158.971 147.313 159.632H152.385ZM161.033 164H155.145V163.056L159.401 157.328H155.145V156.272H160.969V157.184L156.681 162.944H161.033V164ZM174 164H172.8V162.848C172.139 163.744 171.269 164.192 170.192 164.192C169.168 164.192 168.336 163.829 167.696 163.104C167.067 162.368 166.752 161.381 166.752 160.144C166.752 158.917 167.072 157.936 167.712 157.2C168.352 156.453 169.179 156.08 170.192 156.08C171.259 156.08 172.128 156.533 172.8 157.44V156.272H174V164ZM170.496 163.12C170.955 163.12 171.397 163.003 171.824 162.768C172.261 162.523 172.587 162.229 172.8 161.888V158.4C172.587 158.048 172.261 157.755 171.824 157.52C171.397 157.275 170.955 157.152 170.496 157.152C169.728 157.152 169.12 157.435 168.672 158C168.224 158.555 168 159.269 168 160.144C168 161.019 168.224 161.733 168.672 162.288C169.12 162.843 169.728 163.12 170.496 163.12ZM182.256 164.192C181.69 164.192 181.264 164.037 180.976 163.728C180.688 163.419 180.544 162.971 180.544 162.384V153.328H181.744V162.128C181.744 162.427 181.808 162.667 181.936 162.848C182.074 163.029 182.272 163.12 182.528 163.12C182.88 163.12 183.146 163.008 183.328 162.784L183.696 163.696C183.333 164.027 182.853 164.192 182.256 164.192ZM191.641 164H190.441V162.848C189.779 163.744 188.91 164.192 187.833 164.192C186.809 164.192 185.977 163.829 185.337 163.104C184.707 162.368 184.393 161.381 184.393 160.144C184.393 158.917 184.713 157.936 185.353 157.2C185.993 156.453 186.819 156.08 187.833 156.08C188.899 156.08 189.769 156.533 190.441 157.44V156.272H191.641V164ZM188.137 163.12C188.595 163.12 189.038 163.003 189.465 162.768C189.902 162.523 190.227 162.229 190.441 161.888V158.4C190.227 158.048 189.902 157.755 189.465 157.52C189.038 157.275 188.595 157.152 188.137 157.152C187.369 157.152 186.761 157.435 186.313 158C185.865 158.555 185.641 159.269 185.641 160.144C185.641 161.019 185.865 161.733 186.313 162.288C186.761 162.843 187.369 163.12 188.137 163.12ZM200.648 164.192C199.347 164.192 198.307 163.787 197.528 162.976L198.136 162.112C198.403 162.421 198.766 162.683 199.224 162.896C199.694 163.109 200.179 163.216 200.68 163.216C201.256 163.216 201.704 163.093 202.024 162.848C202.355 162.603 202.52 162.283 202.52 161.888C202.52 161.547 202.355 161.28 202.024 161.088C201.694 160.885 201.294 160.736 200.824 160.64C200.355 160.533 199.886 160.416 199.416 160.288C198.958 160.149 198.563 159.92 198.232 159.6C197.902 159.269 197.736 158.837 197.736 158.304C197.736 157.675 197.992 157.147 198.504 156.72C199.016 156.293 199.715 156.08 200.6 156.08C201.784 156.08 202.739 156.453 203.464 157.2L202.904 158.032C202.36 157.381 201.592 157.056 200.6 157.056C200.078 157.056 199.662 157.173 199.352 157.408C199.043 157.632 198.888 157.92 198.888 158.272C198.888 158.528 199.006 158.741 199.24 158.912C199.475 159.083 199.768 159.205 200.12 159.28C200.483 159.355 200.867 159.451 201.272 159.568C201.688 159.685 202.072 159.819 202.424 159.968C202.787 160.107 203.086 160.341 203.32 160.672C203.555 160.992 203.672 161.387 203.672 161.856C203.672 162.539 203.406 163.099 202.872 163.536C202.35 163.973 201.608 164.192 200.648 164.192ZM209.126 164.192C207.963 164.192 207.014 163.819 206.278 163.072C205.542 162.315 205.174 161.333 205.174 160.128C205.174 158.997 205.537 158.043 206.262 157.264C206.987 156.475 207.894 156.08 208.982 156.08C210.123 156.08 211.025 156.475 211.686 157.264C212.358 158.043 212.694 159.029 212.694 160.224V160.528H206.454C206.507 161.285 206.779 161.92 207.27 162.432C207.771 162.944 208.422 163.2 209.222 163.2C210.182 163.2 210.982 162.869 211.622 162.208L212.198 162.992C211.377 163.792 210.353 164.192 209.126 164.192ZM211.51 159.632C211.499 158.981 211.275 158.395 210.838 157.872C210.401 157.339 209.777 157.072 208.966 157.072C208.198 157.072 207.59 157.333 207.142 157.856C206.705 158.379 206.47 158.971 206.438 159.632H211.51ZM225.166 164H223.966V158.752C223.966 157.685 223.491 157.152 222.542 157.152C222.158 157.152 221.774 157.269 221.39 157.504C221.006 157.728 220.707 158.005 220.494 158.336V164H219.294V158.752C219.294 157.685 218.819 157.152 217.87 157.152C217.496 157.152 217.118 157.269 216.734 157.504C216.36 157.739 216.062 158.021 215.838 158.352V164H214.638V156.272H215.838V157.392C216.04 157.083 216.376 156.789 216.846 156.512C217.326 156.224 217.827 156.08 218.35 156.08C218.904 156.08 219.358 156.213 219.71 156.48C220.062 156.747 220.296 157.093 220.414 157.52C220.648 157.136 221.006 156.8 221.486 156.512C221.966 156.224 222.472 156.08 223.006 156.08C224.446 156.08 225.166 156.859 225.166 158.416V164ZM234.359 164H233.159V162.848C232.498 163.744 231.629 164.192 230.551 164.192C229.527 164.192 228.695 163.829 228.055 163.104C227.426 162.368 227.111 161.381 227.111 160.144C227.111 158.917 227.431 157.936 228.071 157.2C228.711 156.453 229.538 156.08 230.551 156.08C231.618 156.08 232.487 156.533 233.159 157.44V156.272H234.359V164ZM230.855 163.12C231.314 163.12 231.757 163.003 232.183 162.768C232.621 162.523 232.946 162.229 233.159 161.888V158.4C232.946 158.048 232.621 157.755 232.183 157.52C231.757 157.275 231.314 157.152 230.855 157.152C230.087 157.152 229.479 157.435 229.031 158C228.583 158.555 228.359 159.269 228.359 160.144C228.359 161.019 228.583 161.733 229.031 162.288C229.479 162.843 230.087 163.12 230.855 163.12ZM243.179 164H241.995V158.944C241.995 158.293 241.845 157.835 241.547 157.568C241.248 157.291 240.816 157.152 240.251 157.152C239.803 157.152 239.371 157.269 238.955 157.504C238.539 157.739 238.208 158.021 237.963 158.352V164H236.763V156.272H237.963V157.392C238.261 157.029 238.661 156.72 239.163 156.464C239.664 156.208 240.187 156.08 240.731 156.08C242.363 156.08 243.179 156.912 243.179 158.576V164ZM252.391 164H251.191V162.848C250.529 163.744 249.66 164.192 248.583 164.192C247.559 164.192 246.727 163.829 246.087 163.104C245.457 162.368 245.143 161.381 245.143 160.144C245.143 158.917 245.463 157.936 246.103 157.2C246.743 156.453 247.569 156.08 248.583 156.08C249.649 156.08 250.519 156.533 251.191 157.44V156.272H252.391V164ZM248.887 163.12C249.345 163.12 249.788 163.003 250.215 162.768C250.652 162.523 250.977 162.229 251.191 161.888V158.4C250.977 158.048 250.652 157.755 250.215 157.52C249.788 157.275 249.345 157.152 248.887 157.152C248.119 157.152 247.511 157.435 247.063 158C246.615 158.555 246.391 159.269 246.391 160.144C246.391 161.019 246.615 161.733 247.063 162.288C247.511 162.843 248.119 163.12 248.887 163.12ZM256.41 163.616C256.41 164.085 256.287 164.533 256.042 164.96C255.807 165.397 255.498 165.755 255.114 166.032L254.506 165.536C254.772 165.365 255.002 165.136 255.194 164.848C255.396 164.571 255.514 164.304 255.546 164.048C255.503 164.069 255.428 164.08 255.322 164.08C255.108 164.08 254.927 164.005 254.778 163.856C254.628 163.696 254.554 163.499 254.554 163.264C254.554 163.029 254.634 162.827 254.794 162.656C254.964 162.485 255.167 162.4 255.402 162.4C255.69 162.4 255.93 162.512 256.122 162.736C256.314 162.949 256.41 163.243 256.41 163.616ZM266.43 164.192C265.374 164.192 264.505 163.739 263.822 162.832V166.944H262.622V156.272H263.822V157.424C264.11 157.019 264.483 156.693 264.942 156.448C265.401 156.203 265.897 156.08 266.43 156.08C267.454 156.08 268.281 156.448 268.91 157.184C269.55 157.909 269.87 158.891 269.87 160.128C269.87 161.365 269.55 162.352 268.91 163.088C268.281 163.824 267.454 164.192 266.43 164.192ZM266.126 163.12C266.883 163.12 267.486 162.843 267.934 162.288C268.382 161.723 268.606 161.003 268.606 160.128C268.606 159.253 268.382 158.539 267.934 157.984C267.486 157.429 266.883 157.152 266.126 157.152C265.667 157.152 265.219 157.275 264.782 157.52C264.355 157.755 264.035 158.043 263.822 158.384V161.872C264.035 162.224 264.355 162.523 264.782 162.768C265.219 163.003 265.667 163.12 266.126 163.12ZM275.282 164.192C274.119 164.192 273.17 163.819 272.434 163.072C271.698 162.315 271.33 161.333 271.33 160.128C271.33 158.997 271.693 158.043 272.418 157.264C273.143 156.475 274.05 156.08 275.138 156.08C276.279 156.08 277.181 156.475 277.842 157.264C278.514 158.043 278.85 159.029 278.85 160.224V160.528H272.61C272.663 161.285 272.935 161.92 273.426 162.432C273.927 162.944 274.578 163.2 275.378 163.2C276.338 163.2 277.138 162.869 277.778 162.208L278.354 162.992C277.533 163.792 276.509 164.192 275.282 164.192ZM277.666 159.632C277.655 158.981 277.431 158.395 276.994 157.872C276.557 157.339 275.933 157.072 275.122 157.072C274.354 157.072 273.746 157.333 273.298 157.856C272.861 158.379 272.626 158.971 272.594 159.632H277.666ZM281.994 164H280.794V156.272H281.994V157.504C282.73 156.565 283.588 156.096 284.57 156.096V157.328C284.378 157.307 284.223 157.296 284.106 157.296C283.732 157.296 283.332 157.424 282.906 157.68C282.479 157.925 282.175 158.208 281.994 158.528V164ZM292.219 163.024C291.526 163.803 290.603 164.192 289.451 164.192C288.299 164.192 287.371 163.803 286.667 163.024C285.974 162.245 285.627 161.28 285.627 160.128C285.627 158.976 285.974 158.016 286.667 157.248C287.371 156.469 288.299 156.08 289.451 156.08C290.603 156.08 291.526 156.469 292.219 157.248C292.923 158.016 293.275 158.976 293.275 160.128C293.275 161.28 292.923 162.245 292.219 163.024ZM287.579 162.256C288.038 162.832 288.662 163.12 289.451 163.12C290.24 163.12 290.864 162.832 291.323 162.256C291.782 161.669 292.011 160.96 292.011 160.128C292.011 159.296 291.782 158.592 291.323 158.016C290.864 157.44 290.24 157.152 289.451 157.152C288.662 157.152 288.038 157.44 287.579 158.016C287.12 158.592 286.891 159.296 286.891 160.128C286.891 160.96 287.12 161.669 287.579 162.256ZM305.788 164H304.604V158.944C304.604 158.293 304.455 157.835 304.156 157.568C303.857 157.291 303.425 157.152 302.86 157.152C302.412 157.152 301.98 157.269 301.564 157.504C301.148 157.739 300.817 158.021 300.572 158.352V164H299.372V156.272H300.572V157.392C300.871 157.029 301.271 156.72 301.772 156.464C302.273 156.208 302.796 156.08 303.34 156.08C304.972 156.08 305.788 156.912 305.788 158.576V164ZM314.344 163.024C313.651 163.803 312.728 164.192 311.576 164.192C310.424 164.192 309.496 163.803 308.792 163.024C308.099 162.245 307.752 161.28 307.752 160.128C307.752 158.976 308.099 158.016 308.792 157.248C309.496 156.469 310.424 156.08 311.576 156.08C312.728 156.08 313.651 156.469 314.344 157.248C315.048 158.016 315.4 158.976 315.4 160.128C315.4 161.28 315.048 162.245 314.344 163.024ZM309.704 162.256C310.163 162.832 310.787 163.12 311.576 163.12C312.365 163.12 312.989 162.832 313.448 162.256C313.907 161.669 314.136 160.96 314.136 160.128C314.136 159.296 313.907 158.592 313.448 158.016C312.989 157.44 312.365 157.152 311.576 157.152C310.787 157.152 310.163 157.44 309.704 158.016C309.245 158.592 309.016 159.296 309.016 160.128C309.016 160.96 309.245 161.669 309.704 162.256ZM324.905 164.192C323.764 164.192 322.836 163.808 322.121 163.04C321.406 162.261 321.049 161.291 321.049 160.128C321.049 158.965 321.406 158 322.121 157.232C322.836 156.464 323.764 156.08 324.905 156.08C326.1 156.08 327.044 156.528 327.737 157.424L326.937 158.144C326.457 157.483 325.801 157.152 324.969 157.152C324.169 157.152 323.524 157.435 323.033 158C322.542 158.555 322.297 159.264 322.297 160.128C322.297 161.003 322.542 161.723 323.033 162.288C323.524 162.843 324.169 163.12 324.969 163.12C325.78 163.12 326.436 162.784 326.937 162.112L327.737 162.848C327.044 163.744 326.1 164.192 324.905 164.192ZM336.234 164H335.034V162.848C334.373 163.744 333.504 164.192 332.426 164.192C331.402 164.192 330.57 163.829 329.93 163.104C329.301 162.368 328.986 161.381 328.986 160.144C328.986 158.917 329.306 157.936 329.946 157.2C330.586 156.453 331.413 156.08 332.426 156.08C333.493 156.08 334.362 156.533 335.034 157.44V156.272H336.234V164ZM332.73 163.12C333.189 163.12 333.632 163.003 334.058 162.768C334.496 162.523 334.821 162.229 335.034 161.888V158.4C334.821 158.048 334.496 157.755 334.058 157.52C333.632 157.275 333.189 157.152 332.73 157.152C331.962 157.152 331.354 157.435 330.906 158C330.458 158.555 330.234 159.269 330.234 160.144C330.234 161.019 330.458 161.733 330.906 162.288C331.354 162.843 331.962 163.12 332.73 163.12ZM345.438 164H344.238V162.848C343.576 163.744 342.707 164.192 341.63 164.192C340.606 164.192 339.774 163.829 339.134 163.104C338.504 162.368 338.19 161.381 338.19 160.144C338.19 158.917 338.51 157.936 339.15 157.2C339.79 156.453 340.616 156.08 341.63 156.08C342.696 156.08 343.566 156.533 344.238 157.44V153.328H345.438V164ZM341.934 163.12C342.392 163.12 342.835 163.003 343.262 162.768C343.699 162.523 344.024 162.229 344.238 161.888V158.4C344.024 158.048 343.699 157.755 343.262 157.52C342.835 157.275 342.392 157.152 341.934 157.152C341.166 157.152 340.558 157.435 340.11 158C339.662 158.555 339.438 159.269 339.438 160.144C339.438 161.019 339.662 161.733 340.11 162.288C340.558 162.843 341.166 163.12 341.934 163.12ZM354.641 164H353.441V162.848C352.779 163.744 351.91 164.192 350.833 164.192C349.809 164.192 348.977 163.829 348.337 163.104C347.707 162.368 347.393 161.381 347.393 160.144C347.393 158.917 347.713 157.936 348.353 157.2C348.993 156.453 349.819 156.08 350.833 156.08C351.899 156.08 352.769 156.533 353.441 157.44V156.272H354.641V164ZM351.137 163.12C351.595 163.12 352.038 163.003 352.465 162.768C352.902 162.523 353.227 162.229 353.441 161.888V158.4C353.227 158.048 352.902 157.755 352.465 157.52C352.038 157.275 351.595 157.152 351.137 157.152C350.369 157.152 349.761 157.435 349.313 158C348.865 158.555 348.641 159.269 348.641 160.144C348.641 161.019 348.865 161.733 349.313 162.288C349.761 162.843 350.369 163.12 351.137 163.12ZM367.984 164H366.784V162.848C366.123 163.744 365.254 164.192 364.176 164.192C363.152 164.192 362.32 163.829 361.68 163.104C361.051 162.368 360.736 161.381 360.736 160.144C360.736 158.917 361.056 157.936 361.696 157.2C362.336 156.453 363.163 156.08 364.176 156.08C365.243 156.08 366.112 156.533 366.784 157.44V153.328H367.984V164ZM364.48 163.12C364.939 163.12 365.382 163.003 365.808 162.768C366.246 162.523 366.571 162.229 366.784 161.888V158.4C366.571 158.048 366.246 157.755 365.808 157.52C365.382 157.275 364.939 157.152 364.48 157.152C363.712 157.152 363.104 157.435 362.656 158C362.208 158.555 361.984 159.269 361.984 160.144C361.984 161.019 362.208 161.733 362.656 162.288C363.104 162.843 363.712 163.12 364.48 163.12ZM373.556 152.8L370.852 155.104H369.94L372.308 152.8H373.556ZM371.588 164H370.388V156.272H371.588V164ZM380.781 164H379.581V162.848C378.92 163.744 378.051 164.192 376.973 164.192C375.949 164.192 375.117 163.829 374.477 163.104C373.848 162.368 373.533 161.381 373.533 160.144C373.533 158.917 373.853 157.936 374.493 157.2C375.133 156.453 375.96 156.08 376.973 156.08C378.04 156.08 378.909 156.533 379.581 157.44V156.272H380.781V164ZM377.277 163.12C377.736 163.12 378.179 163.003 378.605 162.768C379.043 162.523 379.368 162.229 379.581 161.888V158.4C379.368 158.048 379.043 157.755 378.605 157.52C378.179 157.275 377.736 157.152 377.277 157.152C376.509 157.152 375.901 157.435 375.453 158C375.005 158.555 374.781 159.269 374.781 160.144C374.781 161.019 375.005 161.733 375.453 162.288C375.901 162.843 376.509 163.12 377.277 163.12Z" fill="#505050"/>
<line opacity="0.4" x1="11.5" y1="209.5" x2="25.5" y2="209.5" stroke="#1A1A1A" stroke-linecap="round"/>
<path d="M41.216 215H39.888V205.512H36.512V204.328H44.608V205.512H41.216V215ZM50.6253 214.024C49.9319 214.803 49.0093 215.192 47.8573 215.192C46.7053 215.192 45.7773 214.803 45.0733 214.024C44.3799 213.245 44.0333 212.28 44.0333 211.128C44.0333 209.976 44.3799 209.016 45.0733 208.248C45.7773 207.469 46.7053 207.08 47.8573 207.08C49.0093 207.08 49.9319 207.469 50.6253 208.248C51.3293 209.016 51.6813 209.976 51.6813 211.128C51.6813 212.28 51.3293 213.245 50.6253 214.024ZM45.9853 213.256C46.4439 213.832 47.0679 214.12 47.8573 214.12C48.6466 214.12 49.2706 213.832 49.7293 213.256C50.1879 212.669 50.4173 211.96 50.4173 211.128C50.4173 210.296 50.1879 209.592 49.7293 209.016C49.2706 208.44 48.6466 208.152 47.8573 208.152C47.0679 208.152 46.4439 208.44 45.9853 209.016C45.5266 209.592 45.2973 210.296 45.2973 211.128C45.2973 211.96 45.5266 212.669 45.9853 213.256ZM60.4375 215H59.2375V213.848C58.5762 214.744 57.7068 215.192 56.6295 215.192C55.6055 215.192 54.7735 214.829 54.1335 214.104C53.5042 213.368 53.1895 212.381 53.1895 211.144C53.1895 209.917 53.5095 208.936 54.1495 208.2C54.7895 207.453 55.6162 207.08 56.6295 207.08C57.6962 207.08 58.5655 207.533 59.2375 208.44V204.328H60.4375V215ZM56.9335 214.12C57.3922 214.12 57.8348 214.003 58.2615 213.768C58.6988 213.523 59.0242 213.229 59.2375 212.888V209.4C59.0242 209.048 58.6988 208.755 58.2615 208.52C57.8348 208.275 57.3922 208.152 56.9335 208.152C56.1655 208.152 55.5575 208.435 55.1095 209C54.6615 209.555 54.4375 210.269 54.4375 211.144C54.4375 212.019 54.6615 212.733 55.1095 213.288C55.5575 213.843 56.1655 214.12 56.9335 214.12ZM68.9846 214.024C68.2913 214.803 67.3686 215.192 66.2166 215.192C65.0646 215.192 64.1366 214.803 63.4326 214.024C62.7393 213.245 62.3926 212.28 62.3926 211.128C62.3926 209.976 62.7393 209.016 63.4326 208.248C64.1366 207.469 65.0646 207.08 66.2166 207.08C67.3686 207.08 68.2913 207.469 68.9846 208.248C69.6886 209.016 70.0406 209.976 70.0406 211.128C70.0406 212.28 69.6886 213.245 68.9846 214.024ZM64.3446 213.256C64.8033 213.832 65.4273 214.12 66.2166 214.12C67.006 214.12 67.63 213.832 68.0886 213.256C68.5473 212.669 68.7766 211.96 68.7766 211.128C68.7766 210.296 68.5473 209.592 68.0886 209.016C67.63 208.44 67.006 208.152 66.2166 208.152C65.4273 208.152 64.8033 208.44 64.3446 209.016C63.886 209.592 63.6566 210.296 63.6566 211.128C63.6566 211.96 63.886 212.669 64.3446 213.256ZM74.4609 215.192C73.1595 215.192 72.1195 214.787 71.3409 213.976L71.9489 213.112C72.2155 213.421 72.5782 213.683 73.0369 213.896C73.5062 214.109 73.9915 214.216 74.4929 214.216C75.0689 214.216 75.5169 214.093 75.8369 213.848C76.1675 213.603 76.3329 213.283 76.3329 212.888C76.3329 212.547 76.1675 212.28 75.8369 212.088C75.5062 211.885 75.1062 211.736 74.6369 211.64C74.1675 211.533 73.6982 211.416 73.2289 211.288C72.7702 211.149 72.3755 210.92 72.0449 210.6C71.7142 210.269 71.5489 209.837 71.5489 209.304C71.5489 208.675 71.8049 208.147 72.3169 207.72C72.8289 207.293 73.5275 207.08 74.4129 207.08C75.5969 207.08 76.5515 207.453 77.2769 208.2L76.7169 209.032C76.1729 208.381 75.4049 208.056 74.4129 208.056C73.8902 208.056 73.4742 208.173 73.1649 208.408C72.8555 208.632 72.7009 208.92 72.7009 209.272C72.7009 209.528 72.8182 209.741 73.0529 209.912C73.2875 210.083 73.5809 210.205 73.9329 210.28C74.2955 210.355 74.6795 210.451 75.0849 210.568C75.5009 210.685 75.8849 210.819 76.2369 210.968C76.5995 211.107 76.8982 211.341 77.1329 211.672C77.3675 211.992 77.4849 212.387 77.4849 212.856C77.4849 213.539 77.2182 214.099 76.6849 214.536C76.1622 214.973 75.4209 215.192 74.4609 215.192ZM85.287 215.192C84.7217 215.192 84.295 215.037 84.007 214.728C83.719 214.419 83.575 213.971 83.575 213.384V204.328H84.775V213.128C84.775 213.427 84.839 213.667 84.967 213.848C85.1057 214.029 85.303 214.12 85.559 214.12C85.911 214.12 86.1777 214.008 86.359 213.784L86.727 214.696C86.3643 215.027 85.8843 215.192 85.287 215.192ZM94.0159 214.024C93.3225 214.803 92.3999 215.192 91.2479 215.192C90.0959 215.192 89.1679 214.803 88.4639 214.024C87.7705 213.245 87.4239 212.28 87.4239 211.128C87.4239 209.976 87.7705 209.016 88.4639 208.248C89.1679 207.469 90.0959 207.08 91.2479 207.08C92.3999 207.08 93.3225 207.469 94.0159 208.248C94.7199 209.016 95.0719 209.976 95.0719 211.128C95.0719 212.28 94.7199 213.245 94.0159 214.024ZM89.3759 213.256C89.8345 213.832 90.4585 214.12 91.2479 214.12C92.0372 214.12 92.6612 213.832 93.1199 213.256C93.5785 212.669 93.8079 211.96 93.8079 211.128C93.8079 210.296 93.5785 209.592 93.1199 209.016C92.6612 208.44 92.0372 208.152 91.2479 208.152C90.4585 208.152 89.8345 208.44 89.3759 209.016C88.9172 209.592 88.6879 210.296 88.6879 211.128C88.6879 211.96 88.9172 212.669 89.3759 213.256ZM99.4921 215.192C98.1908 215.192 97.1508 214.787 96.3721 213.976L96.9801 213.112C97.2468 213.421 97.6095 213.683 98.0681 213.896C98.5375 214.109 99.0228 214.216 99.5241 214.216C100.1 214.216 100.548 214.093 100.868 213.848C101.199 213.603 101.364 213.283 101.364 212.888C101.364 212.547 101.199 212.28 100.868 212.088C100.537 211.885 100.137 211.736 99.6681 211.64C99.1988 211.533 98.7295 211.416 98.2601 211.288C97.8015 211.149 97.4068 210.92 97.0761 210.6C96.7455 210.269 96.5801 209.837 96.5801 209.304C96.5801 208.675 96.8361 208.147 97.3481 207.72C97.8601 207.293 98.5588 207.08 99.4441 207.08C100.628 207.08 101.583 207.453 102.308 208.2L101.748 209.032C101.204 208.381 100.436 208.056 99.4441 208.056C98.9215 208.056 98.5055 208.173 98.1961 208.408C97.8868 208.632 97.7321 208.92 97.7321 209.272C97.7321 209.528 97.8495 209.741 98.0841 209.912C98.3188 210.083 98.6121 210.205 98.9641 210.28C99.3268 210.355 99.7108 210.451 100.116 210.568C100.532 210.685 100.916 210.819 101.268 210.968C101.631 211.107 101.929 211.341 102.164 211.672C102.399 211.992 102.516 212.387 102.516 212.856C102.516 213.539 102.249 214.099 101.716 214.536C101.193 214.973 100.452 215.192 99.4921 215.192ZM115.406 215H114.206V213.848C113.545 214.744 112.676 215.192 111.598 215.192C110.574 215.192 109.742 214.829 109.102 214.104C108.473 213.368 108.158 212.381 108.158 211.144C108.158 209.917 108.478 208.936 109.118 208.2C109.758 207.453 110.585 207.08 111.598 207.08C112.665 207.08 113.534 207.533 114.206 208.44V204.328H115.406V215ZM111.902 214.12C112.361 214.12 112.804 214.003 113.23 213.768C113.668 213.523 113.993 213.229 114.206 212.888V209.4C113.993 209.048 113.668 208.755 113.23 208.52C112.804 208.275 112.361 208.152 111.902 208.152C111.134 208.152 110.526 208.435 110.078 209C109.63 209.555 109.406 210.269 109.406 211.144C109.406 212.019 109.63 212.733 110.078 213.288C110.526 213.843 111.134 214.12 111.902 214.12ZM120.977 203.8L118.273 206.104H117.361L119.729 203.8H120.977ZM119.009 215H117.809V207.272H119.009V215ZM128.203 215H127.003V213.848C126.342 214.744 125.472 215.192 124.395 215.192C123.371 215.192 122.539 214.829 121.899 214.104C121.27 213.368 120.955 212.381 120.955 211.144C120.955 209.917 121.275 208.936 121.915 208.2C122.555 207.453 123.382 207.08 124.395 207.08C125.462 207.08 126.331 207.533 127.003 208.44V207.272H128.203V215ZM124.699 214.12C125.158 214.12 125.6 214.003 126.027 213.768C126.464 213.523 126.79 213.229 127.003 212.888V209.4C126.79 209.048 126.464 208.755 126.027 208.52C125.6 208.275 125.158 208.152 124.699 208.152C123.931 208.152 123.323 208.435 122.875 209C122.427 209.555 122.203 210.269 122.203 211.144C122.203 212.019 122.427 212.733 122.875 213.288C123.323 213.843 123.931 214.12 124.699 214.12ZM133.07 215.192C131.769 215.192 130.729 214.787 129.95 213.976L130.558 213.112C130.825 213.421 131.188 213.683 131.646 213.896C132.116 214.109 132.601 214.216 133.102 214.216C133.678 214.216 134.126 214.093 134.446 213.848C134.777 213.603 134.942 213.283 134.942 212.888C134.942 212.547 134.777 212.28 134.446 212.088C134.116 211.885 133.716 211.736 133.246 211.64C132.777 211.533 132.308 211.416 131.838 211.288C131.38 211.149 130.985 210.92 130.654 210.6C130.324 210.269 130.158 209.837 130.158 209.304C130.158 208.675 130.414 208.147 130.926 207.72C131.438 207.293 132.137 207.08 133.022 207.08C134.206 207.08 135.161 207.453 135.886 208.2L135.326 209.032C134.782 208.381 134.014 208.056 133.022 208.056C132.5 208.056 132.084 208.173 131.774 208.408C131.465 208.632 131.31 208.92 131.31 209.272C131.31 209.528 131.428 209.741 131.662 209.912C131.897 210.083 132.19 210.205 132.542 210.28C132.905 210.355 133.289 210.451 133.694 210.568C134.11 210.685 134.494 210.819 134.846 210.968C135.209 211.107 135.508 211.341 135.742 211.672C135.977 211.992 136.094 212.387 136.094 212.856C136.094 213.539 135.828 214.099 135.294 214.536C134.772 214.973 134.03 215.192 133.07 215.192ZM148.984 215H147.784V213.848C147.123 214.744 146.254 215.192 145.176 215.192C144.152 215.192 143.32 214.829 142.68 214.104C142.051 213.368 141.736 212.381 141.736 211.144C141.736 209.917 142.056 208.936 142.696 208.2C143.336 207.453 144.163 207.08 145.176 207.08C146.243 207.08 147.112 207.533 147.784 208.44V204.328H148.984V215ZM145.48 214.12C145.939 214.12 146.382 214.003 146.808 213.768C147.246 213.523 147.571 213.229 147.784 212.888V209.4C147.571 209.048 147.246 208.755 146.808 208.52C146.382 208.275 145.939 208.152 145.48 208.152C144.712 208.152 144.104 208.435 143.656 209C143.208 209.555 142.984 210.269 142.984 211.144C142.984 212.019 143.208 212.733 143.656 213.288C144.104 213.843 144.712 214.12 145.48 214.12ZM154.891 215.192C153.729 215.192 152.78 214.819 152.044 214.072C151.308 213.315 150.94 212.333 150.94 211.128C150.94 209.997 151.302 209.043 152.028 208.264C152.753 207.475 153.66 207.08 154.748 207.08C155.889 207.08 156.79 207.475 157.452 208.264C158.124 209.043 158.46 210.029 158.46 211.224V211.528H152.22C152.273 212.285 152.545 212.92 153.036 213.432C153.537 213.944 154.188 214.2 154.988 214.2C155.948 214.2 156.748 213.869 157.388 213.208L157.964 213.992C157.142 214.792 156.118 215.192 154.891 215.192ZM157.276 210.632C157.265 209.981 157.041 209.395 156.604 208.872C156.166 208.339 155.542 208.072 154.732 208.072C153.964 208.072 153.356 208.333 152.908 208.856C152.47 209.379 152.236 209.971 152.204 210.632H157.276ZM166.256 215.192C165.69 215.192 165.264 215.037 164.976 214.728C164.688 214.419 164.544 213.971 164.544 213.384V204.328H165.744V213.128C165.744 213.427 165.808 213.667 165.936 213.848C166.074 214.029 166.272 214.12 166.528 214.12C166.88 214.12 167.146 214.008 167.328 213.784L167.696 214.696C167.333 215.027 166.853 215.192 166.256 215.192ZM175.641 215H174.441V213.848C173.779 214.744 172.91 215.192 171.833 215.192C170.809 215.192 169.977 214.829 169.337 214.104C168.707 213.368 168.393 212.381 168.393 211.144C168.393 209.917 168.713 208.936 169.353 208.2C169.993 207.453 170.819 207.08 171.833 207.08C172.899 207.08 173.769 207.533 174.441 208.44V207.272H175.641V215ZM172.137 214.12C172.595 214.12 173.038 214.003 173.465 213.768C173.902 213.523 174.227 213.229 174.441 212.888V209.4C174.227 209.048 173.902 208.755 173.465 208.52C173.038 208.275 172.595 208.152 172.137 208.152C171.369 208.152 170.761 208.435 170.313 209C169.865 209.555 169.641 210.269 169.641 211.144C169.641 212.019 169.865 212.733 170.313 213.288C170.761 213.843 171.369 214.12 172.137 214.12ZM184.648 215.192C183.347 215.192 182.307 214.787 181.528 213.976L182.136 213.112C182.403 213.421 182.766 213.683 183.224 213.896C183.694 214.109 184.179 214.216 184.68 214.216C185.256 214.216 185.704 214.093 186.024 213.848C186.355 213.603 186.52 213.283 186.52 212.888C186.52 212.547 186.355 212.28 186.024 212.088C185.694 211.885 185.294 211.736 184.824 211.64C184.355 211.533 183.886 211.416 183.416 211.288C182.958 211.149 182.563 210.92 182.232 210.6C181.902 210.269 181.736 209.837 181.736 209.304C181.736 208.675 181.992 208.147 182.504 207.72C183.016 207.293 183.715 207.08 184.6 207.08C185.784 207.08 186.739 207.453 187.464 208.2L186.904 209.032C186.36 208.381 185.592 208.056 184.6 208.056C184.078 208.056 183.662 208.173 183.352 208.408C183.043 208.632 182.888 208.92 182.888 209.272C182.888 209.528 183.006 209.741 183.24 209.912C183.475 210.083 183.768 210.205 184.12 210.28C184.483 210.355 184.867 210.451 185.272 210.568C185.688 210.685 186.072 210.819 186.424 210.968C186.787 211.107 187.086 211.341 187.32 211.672C187.555 211.992 187.672 212.387 187.672 212.856C187.672 213.539 187.406 214.099 186.872 214.536C186.35 214.973 185.608 215.192 184.648 215.192ZM193.126 215.192C191.963 215.192 191.014 214.819 190.278 214.072C189.542 213.315 189.174 212.333 189.174 211.128C189.174 209.997 189.537 209.043 190.262 208.264C190.987 207.475 191.894 207.08 192.982 207.08C194.123 207.08 195.025 207.475 195.686 208.264C196.358 209.043 196.694 210.029 196.694 211.224V211.528H190.454C190.507 212.285 190.779 212.92 191.27 213.432C191.771 213.944 192.422 214.2 193.222 214.2C194.182 214.2 194.982 213.869 195.622 213.208L196.198 213.992C195.377 214.792 194.353 215.192 193.126 215.192ZM195.51 210.632C195.499 209.981 195.275 209.395 194.838 208.872C194.401 208.339 193.777 208.072 192.966 208.072C192.198 208.072 191.59 208.333 191.142 208.856C190.705 209.379 190.47 209.971 190.438 210.632H195.51ZM209.166 215H207.966V209.752C207.966 208.685 207.491 208.152 206.542 208.152C206.158 208.152 205.774 208.269 205.39 208.504C205.006 208.728 204.707 209.005 204.494 209.336V215H203.294V209.752C203.294 208.685 202.819 208.152 201.87 208.152C201.496 208.152 201.118 208.269 200.734 208.504C200.36 208.739 200.062 209.021 199.838 209.352V215H198.638V207.272H199.838V208.392C200.04 208.083 200.376 207.789 200.846 207.512C201.326 207.224 201.827 207.08 202.35 207.08C202.904 207.08 203.358 207.213 203.71 207.48C204.062 207.747 204.296 208.093 204.414 208.52C204.648 208.136 205.006 207.8 205.486 207.512C205.966 207.224 206.472 207.08 207.006 207.08C208.446 207.08 209.166 207.859 209.166 209.416V215ZM218.359 215H217.159V213.848C216.498 214.744 215.629 215.192 214.551 215.192C213.527 215.192 212.695 214.829 212.055 214.104C211.426 213.368 211.111 212.381 211.111 211.144C211.111 209.917 211.431 208.936 212.071 208.2C212.711 207.453 213.538 207.08 214.551 207.08C215.618 207.08 216.487 207.533 217.159 208.44V207.272H218.359V215ZM214.855 214.12C215.314 214.12 215.757 214.003 216.183 213.768C216.621 213.523 216.946 213.229 217.159 212.888V209.4C216.946 209.048 216.621 208.755 216.183 208.52C215.757 208.275 215.314 208.152 214.855 208.152C214.087 208.152 213.479 208.435 213.031 209C212.583 209.555 212.359 210.269 212.359 211.144C212.359 212.019 212.583 212.733 213.031 213.288C213.479 213.843 214.087 214.12 214.855 214.12ZM227.179 215H225.995V209.944C225.995 209.293 225.845 208.835 225.547 208.568C225.248 208.291 224.816 208.152 224.251 208.152C223.803 208.152 223.371 208.269 222.955 208.504C222.539 208.739 222.208 209.021 221.963 209.352V215H220.763V207.272H221.963V208.392C222.261 208.029 222.661 207.72 223.163 207.464C223.664 207.208 224.187 207.08 224.731 207.08C226.363 207.08 227.179 207.912 227.179 209.576V215ZM236.391 215H235.191V213.848C234.529 214.744 233.66 215.192 232.583 215.192C231.559 215.192 230.727 214.829 230.087 214.104C229.457 213.368 229.143 212.381 229.143 211.144C229.143 209.917 229.463 208.936 230.103 208.2C230.743 207.453 231.569 207.08 232.583 207.08C233.649 207.08 234.519 207.533 235.191 208.44V207.272H236.391V215ZM232.887 214.12C233.345 214.12 233.788 214.003 234.215 213.768C234.652 213.523 234.977 213.229 235.191 212.888V209.4C234.977 209.048 234.652 208.755 234.215 208.52C233.788 208.275 233.345 208.152 232.887 208.152C232.119 208.152 231.511 208.435 231.063 209C230.615 209.555 230.391 210.269 230.391 211.144C230.391 212.019 230.615 212.733 231.063 213.288C231.511 213.843 232.119 214.12 232.887 214.12Z" fill="#505050"/>
<defs>
<linearGradient id="paint0_linear_1555_1990" x1="226" y1="5.5" x2="11" y2="5.5" gradientUnits="userSpaceOnUse">
<stop stop-color="#1D5556"/>
<stop offset="1" stop-color="#90EE90"/>
</linearGradient>
</defs>
</svg>
