<svg width="306" height="245" viewBox="0 0 306 245" fill="none" xmlns="http://www.w3.org/2000/svg">
<path opacity="0.4" d="M26 13L26 184L306 184" stroke="#1A1A1A"/>
<path opacity="0.8" d="M11.978 187.156C11.406 187.156 10.899 187.026 10.457 186.766C10.0237 186.497 9.677 186.142 9.417 185.7C9.16567 185.258 8.975 184.781 8.845 184.27C8.72367 183.759 8.663 183.226 8.663 182.671C8.663 182.116 8.72367 181.583 8.845 181.072C8.975 180.561 9.16567 180.088 9.417 179.655C9.677 179.213 10.0237 178.862 10.457 178.602C10.899 178.333 11.406 178.199 11.978 178.199C12.5413 178.199 13.044 178.333 13.486 178.602C13.928 178.862 14.2747 179.213 14.526 179.655C14.786 180.088 14.9767 180.561 15.098 181.072C15.228 181.583 15.293 182.116 15.293 182.671C15.293 183.226 15.228 183.759 15.098 184.27C14.9767 184.781 14.786 185.258 14.526 185.7C14.2747 186.142 13.928 186.497 13.486 186.766C13.044 187.026 12.5413 187.156 11.978 187.156ZM10.678 185.661C11.0247 186.016 11.458 186.194 11.978 186.194C12.498 186.194 12.9313 186.016 13.278 185.661C13.6247 185.297 13.863 184.864 13.993 184.361C14.123 183.858 14.188 183.295 14.188 182.671C14.188 182.047 14.123 181.484 13.993 180.981C13.863 180.478 13.6247 180.049 13.278 179.694C12.9313 179.339 12.498 179.161 11.978 179.161C11.458 179.161 11.0247 179.339 10.678 179.694C10.3313 180.049 10.093 180.478 9.963 180.981C9.833 181.484 9.768 182.047 9.768 182.671C9.768 183.295 9.833 183.858 9.963 184.361C10.093 184.864 10.3313 185.297 10.678 185.661Z" fill="#1A1A1A"/>
<path opacity="0.8" d="M6.393 151H5.314V143.746L3.923 145.228L3.273 144.565L5.444 142.329H6.393V151ZM11.3833 151.156C10.8113 151.156 10.3043 151.026 9.86227 150.766C9.42894 150.497 9.08227 150.142 8.82227 149.7C8.57094 149.258 8.38027 148.781 8.25027 148.27C8.12894 147.759 8.06827 147.226 8.06827 146.671C8.06827 146.116 8.12894 145.583 8.25027 145.072C8.38027 144.561 8.57094 144.088 8.82227 143.655C9.08227 143.213 9.42894 142.862 9.86227 142.602C10.3043 142.333 10.8113 142.199 11.3833 142.199C11.9466 142.199 12.4493 142.333 12.8913 142.602C13.3333 142.862 13.6799 143.213 13.9313 143.655C14.1913 144.088 14.3819 144.561 14.5033 145.072C14.6333 145.583 14.6983 146.116 14.6983 146.671C14.6983 147.226 14.6333 147.759 14.5033 148.27C14.3819 148.781 14.1913 149.258 13.9313 149.7C13.6799 150.142 13.3333 150.497 12.8913 150.766C12.4493 151.026 11.9466 151.156 11.3833 151.156ZM10.0833 149.661C10.4299 150.016 10.8633 150.194 11.3833 150.194C11.9033 150.194 12.3366 150.016 12.6833 149.661C13.0299 149.297 13.2683 148.864 13.3983 148.361C13.5283 147.858 13.5933 147.295 13.5933 146.671C13.5933 146.047 13.5283 145.484 13.3983 144.981C13.2683 144.478 13.0299 144.049 12.6833 143.694C12.3366 143.339 11.9033 143.161 11.3833 143.161C10.8633 143.161 10.4299 143.339 10.0833 143.694C9.73661 144.049 9.49827 144.478 9.36827 144.981C9.23827 145.484 9.17327 146.047 9.17327 146.671C9.17327 147.295 9.23827 147.858 9.36827 148.361C9.49827 148.864 9.73661 149.297 10.0833 149.661Z" fill="#1A1A1A"/>
<path opacity="0.8" d="M6.656 115H0.702V114.129C2.47867 112.742 3.72667 111.672 4.446 110.918C5.16533 110.164 5.525 109.44 5.525 108.747C5.525 108.227 5.343 107.833 4.979 107.564C4.62367 107.295 4.199 107.161 3.705 107.161C2.70833 107.161 1.924 107.525 1.352 108.253L0.689 107.564C1.01833 107.131 1.44733 106.797 1.976 106.563C2.51333 106.32 3.08967 106.199 3.705 106.199C4.49367 106.199 5.174 106.42 5.746 106.862C6.32667 107.304 6.617 107.932 6.617 108.747C6.617 109.553 6.27033 110.359 5.577 111.165C4.88367 111.962 3.82633 112.92 2.405 114.038H6.656V115ZM11.6206 115.156C11.0486 115.156 10.5416 115.026 10.0996 114.766C9.66624 114.497 9.31958 114.142 9.05958 113.7C8.80824 113.258 8.61758 112.781 8.48758 112.27C8.36624 111.759 8.30558 111.226 8.30558 110.671C8.30558 110.116 8.36624 109.583 8.48758 109.072C8.61758 108.561 8.80824 108.088 9.05958 107.655C9.31958 107.213 9.66624 106.862 10.0996 106.602C10.5416 106.333 11.0486 106.199 11.6206 106.199C12.1839 106.199 12.6866 106.333 13.1286 106.602C13.5706 106.862 13.9172 107.213 14.1686 107.655C14.4286 108.088 14.6192 108.561 14.7406 109.072C14.8706 109.583 14.9356 110.116 14.9356 110.671C14.9356 111.226 14.8706 111.759 14.7406 112.27C14.6192 112.781 14.4286 113.258 14.1686 113.7C13.9172 114.142 13.5706 114.497 13.1286 114.766C12.6866 115.026 12.1839 115.156 11.6206 115.156ZM10.3206 113.661C10.6672 114.016 11.1006 114.194 11.6206 114.194C12.1406 114.194 12.5739 114.016 12.9206 113.661C13.2672 113.297 13.5056 112.864 13.6356 112.361C13.7656 111.858 13.8306 111.295 13.8306 110.671C13.8306 110.047 13.7656 109.484 13.6356 108.981C13.5056 108.478 13.2672 108.049 12.9206 107.694C12.5739 107.339 12.1406 107.161 11.6206 107.161C11.1006 107.161 10.6672 107.339 10.3206 107.694C9.97391 108.049 9.73558 108.478 9.60558 108.981C9.47558 109.484 9.41058 110.047 9.41058 110.671C9.41058 111.295 9.47558 111.858 9.60558 112.361C9.73558 112.864 9.97391 113.297 10.3206 113.661Z" fill="#1A1A1A"/>
<path opacity="0.8" d="M3.458 79.156C2.76467 79.156 2.14933 79.0217 1.612 78.753C1.07467 78.4843 0.663 78.142 0.377 77.726L1.014 77.05C1.274 77.3967 1.61633 77.674 2.041 77.882C2.46567 78.09 2.92933 78.194 3.432 78.194C4.056 78.194 4.55 78.0467 4.914 77.752C5.278 77.4573 5.46 77.063 5.46 76.569C5.46 76.049 5.265 75.6633 4.875 75.412C4.49367 75.1607 3.96933 75.035 3.302 75.035C2.79067 75.035 2.49167 75.0393 2.405 75.048V74.06C2.50033 74.0687 2.79933 74.073 3.302 74.073C3.89133 74.073 4.37233 73.956 4.745 73.722C5.12633 73.4793 5.317 73.1197 5.317 72.643C5.317 72.1837 5.13067 71.824 4.758 71.564C4.394 71.2953 3.93467 71.161 3.38 71.161C2.50467 71.161 1.742 71.512 1.092 72.214L0.494 71.538C1.222 70.6453 2.21433 70.199 3.471 70.199C4.329 70.199 5.031 70.407 5.577 70.823C6.123 71.2303 6.396 71.7893 6.396 72.5C6.396 73.072 6.20533 73.5313 5.824 73.878C5.44267 74.2247 5.01367 74.437 4.537 74.515C5.01367 74.567 5.46433 74.7793 5.889 75.152C6.32233 75.5247 6.539 76.0273 6.539 76.66C6.539 77.3967 6.25733 77.999 5.694 78.467C5.13933 78.9263 4.394 79.156 3.458 79.156ZM11.2143 79.156C10.6423 79.156 10.1353 79.026 9.69333 78.766C9.25999 78.4973 8.91333 78.142 8.65333 77.7C8.40199 77.258 8.21133 76.7813 8.08133 76.27C7.95999 75.7587 7.89933 75.2257 7.89933 74.671C7.89933 74.1163 7.95999 73.5833 8.08133 73.072C8.21133 72.5607 8.40199 72.0883 8.65333 71.655C8.91333 71.213 9.25999 70.862 9.69333 70.602C10.1353 70.3333 10.6423 70.199 11.2143 70.199C11.7777 70.199 12.2803 70.3333 12.7223 70.602C13.1643 70.862 13.511 71.213 13.7623 71.655C14.0223 72.0883 14.213 72.5607 14.3343 73.072C14.4643 73.5833 14.5293 74.1163 14.5293 74.671C14.5293 75.2257 14.4643 75.7587 14.3343 76.27C14.213 76.7813 14.0223 77.258 13.7623 77.7C13.511 78.142 13.1643 78.4973 12.7223 78.766C12.2803 79.026 11.7777 79.156 11.2143 79.156ZM9.91433 77.661C10.261 78.0163 10.6943 78.194 11.2143 78.194C11.7343 78.194 12.1677 78.0163 12.5143 77.661C12.861 77.297 13.0993 76.8637 13.2293 76.361C13.3593 75.8583 13.4243 75.295 13.4243 74.671C13.4243 74.047 13.3593 73.4837 13.2293 72.981C13.0993 72.4783 12.861 72.0493 12.5143 71.694C12.1677 71.3387 11.7343 71.161 11.2143 71.161C10.6943 71.161 10.261 71.3387 9.91433 71.694C9.56766 72.0493 9.32933 72.4783 9.19933 72.981C9.06933 73.4837 9.00433 74.047 9.00433 74.671C9.00433 75.295 9.06933 75.8583 9.19933 76.361C9.32933 76.8637 9.56766 77.297 9.91433 77.661Z" fill="#1A1A1A"/>
<path opacity="0.8" d="M5.616 43H4.537V40.803H0.416V39.906L4.134 34.329H5.616V39.854H6.838V40.803H5.616V43ZM4.537 39.854V35.33L1.495 39.854H4.537ZM11.227 43.156C10.655 43.156 10.148 43.026 9.70602 42.766C9.27269 42.4973 8.92602 42.142 8.66602 41.7C8.41469 41.258 8.22402 40.7813 8.09402 40.27C7.97269 39.7587 7.91202 39.2257 7.91202 38.671C7.91202 38.1163 7.97269 37.5833 8.09402 37.072C8.22402 36.5607 8.41469 36.0883 8.66602 35.655C8.92602 35.213 9.27269 34.862 9.70602 34.602C10.148 34.3333 10.655 34.199 11.227 34.199C11.7904 34.199 12.293 34.3333 12.735 34.602C13.177 34.862 13.5237 35.213 13.775 35.655C14.035 36.0883 14.2257 36.5607 14.347 37.072C14.477 37.5833 14.542 38.1163 14.542 38.671C14.542 39.2257 14.477 39.7587 14.347 40.27C14.2257 40.7813 14.035 41.258 13.775 41.7C13.5237 42.142 13.177 42.4973 12.735 42.766C12.293 43.026 11.7904 43.156 11.227 43.156ZM9.92702 41.661C10.2737 42.0163 10.707 42.194 11.227 42.194C11.747 42.194 12.1804 42.0163 12.527 41.661C12.8737 41.297 13.112 40.8637 13.242 40.361C13.372 39.8583 13.437 39.295 13.437 38.671C13.437 38.047 13.372 37.4837 13.242 36.981C13.112 36.4783 12.8737 36.0493 12.527 35.694C12.1804 35.3387 11.747 35.161 11.227 35.161C10.707 35.161 10.2737 35.3387 9.92702 35.694C9.58036 36.0493 9.34202 36.4783 9.21202 36.981C9.08202 37.4837 9.01702 38.047 9.01702 38.671C9.01702 39.295 9.08202 39.8583 9.21202 40.361C9.34202 40.8637 9.58036 41.297 9.92702 41.661Z" fill="#1A1A1A"/>
<g opacity="0.4">
<path d="M26 40L306 40L26 40Z" fill="#1A1A1A"/>
<path d="M26 40L306 40" stroke="#1A1A1A" stroke-width="1.06667" stroke-dasharray="4 4"/>
</g>
<g opacity="0.4">
<path d="M26 76L306 76L26 76Z" fill="#1A1A1A"/>
<path d="M26 76L306 76" stroke="#1A1A1A" stroke-width="1.06667" stroke-dasharray="4 4"/>
</g>
<g opacity="0.4">
<path d="M26 112L306 112L26 112Z" fill="#1A1A1A"/>
<path d="M26 112L306 112" stroke="#1A1A1A" stroke-width="1.06667" stroke-dasharray="4 4"/>
</g>
<g opacity="0.4">
<path d="M26 148L306 148L26 148Z" fill="#1A1A1A"/>
<path d="M26 148L306 148" stroke="#1A1A1A" stroke-width="1.06667" stroke-dasharray="4 4"/>
</g>
<path d="M49.944 125H48.072V116.744L46.328 118.568L45.24 117.432L48.312 114.328H49.944V125ZM55.4941 125.192C54.5981 125.192 53.7981 125.032 53.0941 124.712C52.4008 124.392 51.8568 123.976 51.4621 123.464L52.4861 122.232C52.8275 122.637 53.2595 122.957 53.7821 123.192C54.3155 123.416 54.8648 123.528 55.4301 123.528C56.1235 123.528 56.6675 123.379 57.0621 123.08C57.4568 122.781 57.6541 122.387 57.6541 121.896C57.6541 120.883 56.8648 120.376 55.2861 120.376C54.6888 120.376 54.2835 120.387 54.0701 120.408V118.712C54.1875 118.723 54.5928 118.728 55.2861 118.728C55.9475 118.728 56.4808 118.611 56.8861 118.376C57.2915 118.141 57.4941 117.789 57.4941 117.32C57.4941 116.851 57.2861 116.488 56.8701 116.232C56.4648 115.965 55.9528 115.832 55.3341 115.832C54.2568 115.832 53.3341 116.227 52.5661 117.016L51.6061 115.848C52.5661 114.728 53.8675 114.168 55.5101 114.168C56.6728 114.168 57.6008 114.424 58.2941 114.936C58.9981 115.448 59.3501 116.147 59.3501 117.032C59.3501 117.704 59.1155 118.259 58.6461 118.696C58.1875 119.123 57.6541 119.384 57.0461 119.48C57.6541 119.544 58.2195 119.805 58.7421 120.264C59.2648 120.723 59.5261 121.325 59.5261 122.072C59.5261 123 59.1581 123.752 58.4221 124.328C57.6968 124.904 56.7208 125.192 55.4941 125.192ZM63.4336 124.392C63.4336 124.936 63.295 125.448 63.0176 125.928C62.751 126.408 62.3936 126.808 61.9456 127.128L61.1776 126.504C61.4443 126.344 61.6896 126.12 61.9136 125.832C62.1483 125.544 62.287 125.267 62.3296 125C62.2656 125.032 62.175 125.048 62.0576 125.048C61.791 125.048 61.567 124.952 61.3856 124.76C61.2043 124.568 61.1136 124.323 61.1136 124.024C61.1136 123.725 61.2203 123.469 61.4336 123.256C61.647 123.043 61.903 122.936 62.2016 122.936C62.543 122.936 62.831 123.069 63.0656 123.336C63.311 123.592 63.4336 123.944 63.4336 124.392ZM67.0625 125H64.9985L69.0305 115.976H63.4945V114.328H71.1905V115.624L67.0625 125ZM74.6821 119.464C73.9035 119.464 73.2635 119.213 72.7621 118.712C72.2715 118.211 72.0261 117.581 72.0261 116.824C72.0261 116.067 72.2715 115.437 72.7621 114.936C73.2635 114.424 73.9035 114.168 74.6821 114.168C75.4715 114.168 76.1115 114.419 76.6021 114.92C77.0928 115.421 77.3381 116.056 77.3381 116.824C77.3381 117.581 77.0928 118.211 76.6021 118.712C76.1115 119.213 75.4715 119.464 74.6821 119.464ZM74.7141 125H73.6421L80.4581 114.328H81.5461L74.7141 125ZM82.3301 124.44C81.8395 124.941 81.2048 125.192 80.4261 125.192C79.6475 125.192 79.0075 124.941 78.5061 124.44C78.0155 123.939 77.7701 123.309 77.7701 122.552C77.7701 121.795 78.0155 121.165 78.5061 120.664C79.0075 120.152 79.6475 119.896 80.4261 119.896C81.2048 119.896 81.8395 120.152 82.3301 120.664C82.8315 121.165 83.0821 121.795 83.0821 122.552C83.0821 123.309 82.8315 123.939 82.3301 124.44ZM74.6821 118.392C75.0981 118.392 75.4395 118.248 75.7061 117.96C75.9728 117.661 76.1061 117.283 76.1061 116.824C76.1061 116.355 75.9728 115.971 75.7061 115.672C75.4395 115.373 75.0981 115.224 74.6821 115.224C74.2768 115.224 73.9408 115.373 73.6741 115.672C73.4075 115.971 73.2741 116.355 73.2741 116.824C73.2741 117.283 73.4075 117.661 73.6741 117.96C73.9408 118.248 74.2768 118.392 74.6821 118.392ZM79.4021 123.688C79.6688 123.976 80.0101 124.12 80.4261 124.12C80.8421 124.12 81.1835 123.976 81.4501 123.688C81.7168 123.389 81.8501 123.011 81.8501 122.552C81.8501 122.083 81.7168 121.699 81.4501 121.4C81.1835 121.101 80.8421 120.952 80.4261 120.952C80.0101 120.952 79.6688 121.101 79.4021 121.4C79.1355 121.699 79.0021 122.083 79.0021 122.552C79.0021 123.011 79.1355 123.389 79.4021 123.688Z" fill="#1A1A1A"/>
<path d="M89 184.066L89 135L39 135L39 184.066L89 184.066Z" fill="#41A5B4"/>
<path d="M48.4488 203H47.3698V195.707L44.4318 203H43.9898L41.0388 195.707V203H39.9598V194.329H41.5068L44.2108 201.011L46.9018 194.329H48.4488V203ZM53.2795 203.156C52.3349 203.156 51.5635 202.853 50.9655 202.246C50.3675 201.631 50.0685 200.833 50.0685 199.854C50.0685 198.935 50.3632 198.16 50.9525 197.527C51.5419 196.886 52.2785 196.565 53.1625 196.565C54.0899 196.565 54.8222 196.886 55.3595 197.527C55.9055 198.16 56.1785 198.961 56.1785 199.932V200.179H51.1085C51.1519 200.794 51.3729 201.31 51.7715 201.726C52.1789 202.142 52.7075 202.35 53.3575 202.35C54.1375 202.35 54.7875 202.081 55.3075 201.544L55.7755 202.181C55.1082 202.831 54.2762 203.156 53.2795 203.156ZM55.2165 199.451C55.2079 198.922 55.0259 198.446 54.6705 198.021C54.3152 197.588 53.8082 197.371 53.1495 197.371C52.5255 197.371 52.0315 197.583 51.6675 198.008C51.3122 198.433 51.1215 198.914 51.0955 199.451H55.2165ZM62.9707 203H62.0087V198.892C62.0087 198.363 61.8874 197.991 61.6447 197.774C61.402 197.549 61.051 197.436 60.5917 197.436C60.2277 197.436 59.8767 197.531 59.5387 197.722C59.2007 197.913 58.932 198.142 58.7327 198.411V203H57.7577V196.721H58.7327V197.631C58.9754 197.336 59.3004 197.085 59.7077 196.877C60.115 196.669 60.5397 196.565 60.9817 196.565C62.3077 196.565 62.9707 197.241 62.9707 198.593V203ZM69.9226 202.207C69.3592 202.84 68.6096 203.156 67.6736 203.156C66.7376 203.156 65.9836 202.84 65.4116 202.207C64.8482 201.574 64.5666 200.79 64.5666 199.854C64.5666 198.918 64.8482 198.138 65.4116 197.514C65.9836 196.881 66.7376 196.565 67.6736 196.565C68.6096 196.565 69.3592 196.881 69.9226 197.514C70.4946 198.138 70.7806 198.918 70.7806 199.854C70.7806 200.79 70.4946 201.574 69.9226 202.207ZM66.1526 201.583C66.5252 202.051 67.0322 202.285 67.6736 202.285C68.3149 202.285 68.8219 202.051 69.1946 201.583C69.5672 201.106 69.7536 200.53 69.7536 199.854C69.7536 199.178 69.5672 198.606 69.1946 198.138C68.8219 197.67 68.3149 197.436 67.6736 197.436C67.0322 197.436 66.5252 197.67 66.1526 198.138C65.7799 198.606 65.5936 199.178 65.5936 199.854C65.5936 200.53 65.7799 201.106 66.1526 201.583ZM73.345 203H72.37V196.721H73.345V197.722C73.943 196.959 74.6407 196.578 75.438 196.578V197.579C75.282 197.562 75.1564 197.553 75.061 197.553C74.7577 197.553 74.4327 197.657 74.086 197.865C73.7394 198.064 73.4924 198.294 73.345 198.554V203ZM79.508 203.156C78.5634 203.156 77.792 202.853 77.194 202.246C76.596 201.631 76.297 200.833 76.297 199.854C76.297 198.935 76.5917 198.16 77.181 197.527C77.7704 196.886 78.507 196.565 79.391 196.565C80.3184 196.565 81.0507 196.886 81.588 197.527C82.134 198.16 82.407 198.961 82.407 199.932V200.179H77.337C77.3804 200.794 77.6014 201.31 78 201.726C78.4074 202.142 78.936 202.35 79.586 202.35C80.366 202.35 81.016 202.081 81.536 201.544L82.004 202.181C81.3367 202.831 80.5047 203.156 79.508 203.156ZM81.445 199.451C81.4364 198.922 81.2544 198.446 80.899 198.021C80.5437 197.588 80.0367 197.371 79.378 197.371C78.754 197.371 78.26 197.583 77.896 198.008C77.5407 198.433 77.35 198.914 77.324 199.451H81.445ZM85.9882 203.156C84.9309 203.156 84.0859 202.827 83.4532 202.168L83.9472 201.466C84.1639 201.717 84.4586 201.93 84.8312 202.103C85.2126 202.276 85.6069 202.363 86.0142 202.363C86.4822 202.363 86.8462 202.263 87.1062 202.064C87.3749 201.865 87.5092 201.605 87.5092 201.284C87.5092 201.007 87.3749 200.79 87.1062 200.634C86.8376 200.469 86.5126 200.348 86.1312 200.27C85.7499 200.183 85.3686 200.088 84.9872 199.984C84.6146 199.871 84.2939 199.685 84.0252 199.425C83.7566 199.156 83.6222 198.805 83.6222 198.372C83.6222 197.861 83.8302 197.432 84.2462 197.085C84.6622 196.738 85.2299 196.565 85.9492 196.565C86.9112 196.565 87.6869 196.868 88.2762 197.475L87.8212 198.151C87.3792 197.622 86.7552 197.358 85.9492 197.358C85.5246 197.358 85.1866 197.453 84.9352 197.644C84.6839 197.826 84.5582 198.06 84.5582 198.346C84.5582 198.554 84.6536 198.727 84.8442 198.866C85.0349 199.005 85.2732 199.104 85.5592 199.165C85.8539 199.226 86.1659 199.304 86.4952 199.399C86.8332 199.494 87.1452 199.603 87.4312 199.724C87.7259 199.837 87.9686 200.027 88.1592 200.296C88.3499 200.556 88.4452 200.877 88.4452 201.258C88.4452 201.813 88.2286 202.268 87.7952 202.623C87.3706 202.978 86.7682 203.156 85.9882 203.156ZM55.5894 216H54.6144V215.064C54.077 215.792 53.3707 216.156 52.4954 216.156C51.6634 216.156 50.9874 215.861 50.4674 215.272C49.956 214.674 49.7004 213.872 49.7004 212.867C49.7004 211.87 49.9604 211.073 50.4804 210.475C51.0004 209.868 51.672 209.565 52.4954 209.565C53.362 209.565 54.0684 209.933 54.6144 210.67V207.329H55.5894V216ZM52.7424 215.285C53.115 215.285 53.4747 215.19 53.8214 214.999C54.1767 214.8 54.441 214.561 54.6144 214.284V211.45C54.441 211.164 54.1767 210.926 53.8214 210.735C53.4747 210.536 53.115 210.436 52.7424 210.436C52.1184 210.436 51.6244 210.666 51.2604 211.125C50.8964 211.576 50.7144 212.156 50.7144 212.867C50.7144 213.578 50.8964 214.158 51.2604 214.609C51.6244 215.06 52.1184 215.285 52.7424 215.285ZM60.3889 216.156C59.4442 216.156 58.6729 215.853 58.0749 215.246C57.4769 214.631 57.1779 213.833 57.1779 212.854C57.1779 211.935 57.4726 211.16 58.0619 210.527C58.6512 209.886 59.3879 209.565 60.2719 209.565C61.1992 209.565 61.9316 209.886 62.4689 210.527C63.0149 211.16 63.2879 211.961 63.2879 212.932V213.179H58.2179C58.2612 213.794 58.4822 214.31 58.8809 214.726C59.2882 215.142 59.8169 215.35 60.4669 215.35C61.2469 215.35 61.8969 215.081 62.4169 214.544L62.8849 215.181C62.2176 215.831 61.3856 216.156 60.3889 216.156ZM62.3259 212.451C62.3172 211.922 62.1352 211.446 61.7799 211.021C61.4246 210.588 60.9176 210.371 60.2589 210.371C59.6349 210.371 59.1409 210.583 58.7769 211.008C58.4216 211.433 58.2309 211.914 58.2049 212.451H62.3259ZM70.6493 216H69.5703V208.746L68.1793 210.228L67.5293 209.565L69.7003 207.329H70.6493V216ZM77.2776 216H76.1986V213.803H72.0776V212.906L75.7956 207.329H77.2776V212.854H78.4996V213.803H77.2776V216ZM76.1986 212.854V208.33L73.1566 212.854H76.1986ZM56.4336 229H55.4586V228.064C54.9213 228.792 54.2149 229.156 53.3396 229.156C52.5076 229.156 51.8316 228.861 51.3116 228.272C50.8003 227.674 50.5446 226.872 50.5446 225.867C50.5446 224.87 50.8046 224.073 51.3246 223.475C51.8446 222.868 52.5163 222.565 53.3396 222.565C54.2063 222.565 54.9126 222.933 55.4586 223.67V222.721H56.4336V229ZM53.5866 228.285C53.9593 228.285 54.3189 228.19 54.6656 227.999C55.0209 227.8 55.2853 227.561 55.4586 227.284V224.45C55.2853 224.164 55.0209 223.926 54.6656 223.735C54.3189 223.536 53.9593 223.436 53.5866 223.436C52.9626 223.436 52.4686 223.666 52.1046 224.125C51.7406 224.576 51.5586 225.156 51.5586 225.867C51.5586 226.578 51.7406 227.158 52.1046 227.609C52.4686 228.06 52.9626 228.285 53.5866 228.285ZM63.6381 229H62.6761V224.892C62.6761 224.363 62.5548 223.991 62.3121 223.774C62.0695 223.549 61.7185 223.436 61.2591 223.436C60.8951 223.436 60.5441 223.531 60.2061 223.722C59.8681 223.913 59.5995 224.142 59.4001 224.411V229H58.4251V222.721H59.4001V223.631C59.6428 223.336 59.9678 223.085 60.3751 222.877C60.7825 222.669 61.2071 222.565 61.6491 222.565C62.9751 222.565 63.6381 223.241 63.6381 224.593V229ZM61.7791 221.798C61.5711 221.798 61.3848 221.737 61.2201 221.616C61.0641 221.486 60.9428 221.347 60.8561 221.2C60.7781 221.053 60.6785 220.918 60.5571 220.797C60.4445 220.667 60.3188 220.602 60.1801 220.602C59.9981 220.602 59.8465 220.697 59.7251 220.888C59.6125 221.07 59.5561 221.347 59.5561 221.72H58.9711C58.9711 221.2 59.0795 220.78 59.2961 220.459C59.5215 220.138 59.8335 219.978 60.2321 219.978C60.4401 219.978 60.6221 220.043 60.7781 220.173C60.9428 220.294 61.0641 220.429 61.1421 220.576C61.2288 220.723 61.3285 220.862 61.4411 220.992C61.5625 221.113 61.6925 221.174 61.8311 221.174C62.0131 221.174 62.1605 221.083 62.2731 220.901C62.3945 220.71 62.4551 220.429 62.4551 220.056H63.0401C63.0401 220.576 62.9275 220.996 62.7021 221.317C62.4855 221.638 62.1778 221.798 61.7791 221.798ZM70.551 228.207C69.9877 228.84 69.238 229.156 68.302 229.156C67.366 229.156 66.612 228.84 66.04 228.207C65.4767 227.574 65.195 226.79 65.195 225.854C65.195 224.918 65.4767 224.138 66.04 223.514C66.612 222.881 67.366 222.565 68.302 222.565C69.238 222.565 69.9877 222.881 70.551 223.514C71.123 224.138 71.409 224.918 71.409 225.854C71.409 226.79 71.123 227.574 70.551 228.207ZM66.781 227.583C67.1537 228.051 67.6607 228.285 68.302 228.285C68.9433 228.285 69.4503 228.051 69.823 227.583C70.1957 227.106 70.382 226.53 70.382 225.854C70.382 225.178 70.1957 224.606 69.823 224.138C69.4503 223.67 68.9433 223.436 68.302 223.436C67.6607 223.436 67.1537 223.67 66.781 224.138C66.4083 224.606 66.222 225.178 66.222 225.854C66.222 226.53 66.4083 227.106 66.781 227.583ZM75.0004 229.156C73.9431 229.156 73.0981 228.827 72.4654 228.168L72.9594 227.466C73.1761 227.717 73.4708 227.93 73.8434 228.103C74.2248 228.276 74.6191 228.363 75.0264 228.363C75.4944 228.363 75.8584 228.263 76.1184 228.064C76.3871 227.865 76.5214 227.605 76.5214 227.284C76.5214 227.007 76.3871 226.79 76.1184 226.634C75.8498 226.469 75.5248 226.348 75.1434 226.27C74.7621 226.183 74.3808 226.088 73.9994 225.984C73.6268 225.871 73.3061 225.685 73.0374 225.425C72.7688 225.156 72.6344 224.805 72.6344 224.372C72.6344 223.861 72.8424 223.432 73.2584 223.085C73.6744 222.738 74.2421 222.565 74.9614 222.565C75.9234 222.565 76.6991 222.868 77.2884 223.475L76.8334 224.151C76.3914 223.622 75.7674 223.358 74.9614 223.358C74.5368 223.358 74.1988 223.453 73.9474 223.644C73.6961 223.826 73.5704 224.06 73.5704 224.346C73.5704 224.554 73.6658 224.727 73.8564 224.866C74.0471 225.005 74.2854 225.104 74.5714 225.165C74.8661 225.226 75.1781 225.304 75.5074 225.399C75.8454 225.494 76.1574 225.603 76.4434 225.724C76.7381 225.837 76.9808 226.027 77.1714 226.296C77.3621 226.556 77.4574 226.877 77.4574 227.258C77.4574 227.813 77.2408 228.268 76.8074 228.623C76.3828 228.978 75.7804 229.156 75.0004 229.156Z" fill="#1A1A1A"/>
<path d="M186.408 11H184.536V8.584L179.448 8.584V7.08L183.832 0.327999L186.408 0.327999V6.936L187.832 6.936V8.584H186.408V11ZM184.536 6.936V2.008L181.288 6.936L184.536 6.936ZM193.145 11.192C191.449 11.192 190.132 10.6427 189.193 9.544L190.265 8.248C190.991 9.10133 191.945 9.528 193.129 9.528C193.791 9.528 194.319 9.352 194.713 9C195.119 8.63733 195.321 8.184 195.321 7.64C195.321 7.07467 195.124 6.62133 194.729 6.28C194.345 5.928 193.828 5.752 193.177 5.752C192.271 5.752 191.492 6.056 190.841 6.664L189.513 6.28V0.327999L196.505 0.327999V1.976L191.385 1.976V5.048C192.036 4.44 192.841 4.136 193.801 4.136C194.751 4.136 195.556 4.44533 196.217 5.064C196.889 5.68267 197.225 6.52 197.225 7.576C197.225 8.664 196.847 9.53867 196.089 10.2C195.332 10.8613 194.351 11.192 193.145 11.192ZM201.043 10.392C201.043 10.936 200.904 11.448 200.627 11.928C200.36 12.408 200.003 12.808 199.555 13.128L198.787 12.504C199.054 12.344 199.299 12.12 199.523 11.832C199.758 11.544 199.896 11.2667 199.939 11C199.875 11.032 199.784 11.048 199.667 11.048C199.4 11.048 199.176 10.952 198.995 10.76C198.814 10.568 198.723 10.3227 198.723 10.024C198.723 9.72533 198.83 9.46933 199.043 9.256C199.256 9.04267 199.512 8.936 199.811 8.936C200.152 8.936 200.44 9.06933 200.675 9.336C200.92 9.592 201.043 9.944 201.043 10.392ZM206.661 11.192C204.965 11.192 203.648 10.6427 202.709 9.544L203.781 8.248C204.506 9.10133 205.461 9.528 206.645 9.528C207.306 9.528 207.834 9.352 208.229 9C208.634 8.63733 208.837 8.184 208.837 7.64C208.837 7.07467 208.64 6.62133 208.245 6.28C207.861 5.928 207.344 5.752 206.693 5.752C205.786 5.752 205.008 6.056 204.357 6.664L203.029 6.28V0.327999L210.021 0.327999V1.976L204.901 1.976V5.048C205.552 4.44 206.357 4.136 207.317 4.136C208.266 4.136 209.072 4.44533 209.733 5.064C210.405 5.68267 210.741 6.52 210.741 7.576C210.741 8.664 210.362 9.53867 209.605 10.2C208.848 10.8613 207.866 11.192 206.661 11.192ZM214.495 5.464C213.716 5.464 213.076 5.21333 212.575 4.712C212.084 4.21067 211.839 3.58133 211.839 2.824C211.839 2.06667 212.084 1.43733 212.575 0.936C213.076 0.423999 213.716 0.167999 214.495 0.167999C215.284 0.167999 215.924 0.418666 216.415 0.919999C216.905 1.42133 217.151 2.056 217.151 2.824C217.151 3.58133 216.905 4.21067 216.415 4.712C215.924 5.21333 215.284 5.464 214.495 5.464ZM214.527 11H213.455L220.271 0.327999L221.359 0.327999L214.527 11ZM222.143 10.44C221.652 10.9413 221.017 11.192 220.239 11.192C219.46 11.192 218.82 10.9413 218.319 10.44C217.828 9.93867 217.583 9.30933 217.583 8.552C217.583 7.79467 217.828 7.16533 218.319 6.664C218.82 6.152 219.46 5.896 220.239 5.896C221.017 5.896 221.652 6.152 222.143 6.664C222.644 7.16533 222.895 7.79467 222.895 8.552C222.895 9.30933 222.644 9.93867 222.143 10.44ZM214.495 4.392C214.911 4.392 215.252 4.248 215.519 3.96C215.785 3.66133 215.919 3.28267 215.919 2.824C215.919 2.35467 215.785 1.97067 215.519 1.672C215.252 1.37333 214.911 1.224 214.495 1.224C214.089 1.224 213.753 1.37333 213.487 1.672C213.22 1.97067 213.087 2.35467 213.087 2.824C213.087 3.28267 213.22 3.66133 213.487 3.96C213.753 4.248 214.089 4.392 214.495 4.392ZM219.215 9.688C219.481 9.976 219.823 10.12 220.239 10.12C220.655 10.12 220.996 9.976 221.263 9.688C221.529 9.38933 221.663 9.01067 221.663 8.552C221.663 8.08267 221.529 7.69867 221.263 7.4C220.996 7.10133 220.655 6.952 220.239 6.952C219.823 6.952 219.481 7.10133 219.215 7.4C218.948 7.69867 218.815 8.08267 218.815 8.552C218.815 9.01067 218.948 9.38933 219.215 9.688Z" fill="#1A1A1A"/>
<path d="M226 184.107L226 21.1488L176 21.1488L176 184.107L226 184.107Z" fill="#B6174B"/>
<path d="M187.442 203H186.207L185.44 201.063H181.124L180.357 203H179.122L182.619 194.329H183.958L187.442 203ZM185.128 200.114L183.282 195.434L181.449 200.114H185.128ZM194.062 203H193.087V202.064C192.55 202.792 191.843 203.156 190.968 203.156C190.136 203.156 189.46 202.861 188.94 202.272C188.429 201.674 188.173 200.872 188.173 199.867C188.173 198.87 188.433 198.073 188.953 197.475C189.473 196.868 190.145 196.565 190.968 196.565C191.835 196.565 192.541 196.933 193.087 197.67V194.329H194.062V203ZM191.215 202.285C191.588 202.285 191.947 202.19 192.294 201.999C192.649 201.8 192.914 201.561 193.087 201.284V198.45C192.914 198.164 192.649 197.926 192.294 197.735C191.947 197.536 191.588 197.436 191.215 197.436C190.591 197.436 190.097 197.666 189.733 198.125C189.369 198.576 189.187 199.156 189.187 199.867C189.187 200.578 189.369 201.158 189.733 201.609C190.097 202.06 190.591 202.285 191.215 202.285ZM201.228 203H200.253V202.116C199.993 202.411 199.663 202.658 199.265 202.857C198.875 203.056 198.459 203.156 198.017 203.156C196.682 203.156 196.015 202.489 196.015 201.154V196.721H196.99V200.855C196.99 201.375 197.111 201.743 197.354 201.96C197.596 202.177 197.947 202.285 198.407 202.285C198.771 202.285 199.122 202.194 199.46 202.012C199.798 201.83 200.062 201.605 200.253 201.336V196.721H201.228V203ZM204.566 203.156C204.106 203.156 203.76 203.03 203.526 202.779C203.292 202.528 203.175 202.164 203.175 201.687V194.329H204.15V201.479C204.15 201.722 204.202 201.917 204.306 202.064C204.418 202.211 204.579 202.285 204.787 202.285C205.073 202.285 205.289 202.194 205.437 202.012L205.736 202.753C205.441 203.022 205.051 203.156 204.566 203.156ZM208.265 203.156C207.329 203.156 206.861 202.666 206.861 201.687V197.579H205.821V196.721H206.861V195.005H207.849V196.721H209.123V197.579H207.849V201.479C207.849 201.722 207.901 201.917 208.005 202.064C208.118 202.211 208.274 202.285 208.473 202.285C208.75 202.285 208.971 202.194 209.136 202.012L209.422 202.753C209.136 203.022 208.75 203.156 208.265 203.156ZM215.479 202.207C214.916 202.84 214.166 203.156 213.23 203.156C212.294 203.156 211.54 202.84 210.968 202.207C210.405 201.574 210.123 200.79 210.123 199.854C210.123 198.918 210.405 198.138 210.968 197.514C211.54 196.881 212.294 196.565 213.23 196.565C214.166 196.565 214.916 196.881 215.479 197.514C216.051 198.138 216.337 198.918 216.337 199.854C216.337 200.79 216.051 201.574 215.479 202.207ZM211.709 201.583C212.082 202.051 212.589 202.285 213.23 202.285C213.872 202.285 214.379 202.051 214.751 201.583C215.124 201.106 215.31 200.53 215.31 199.854C215.31 199.178 215.124 198.606 214.751 198.138C214.379 197.67 213.872 197.436 213.23 197.436C212.589 197.436 212.082 197.67 211.709 198.138C211.337 198.606 211.15 199.178 211.15 199.854C211.15 200.53 211.337 201.106 211.709 201.583ZM219.929 203.156C218.871 203.156 218.026 202.827 217.394 202.168L217.888 201.466C218.104 201.717 218.399 201.93 218.772 202.103C219.153 202.276 219.547 202.363 219.955 202.363C220.423 202.363 220.787 202.263 221.047 202.064C221.315 201.865 221.45 201.605 221.45 201.284C221.45 201.007 221.315 200.79 221.047 200.634C220.778 200.469 220.453 200.348 220.072 200.27C219.69 200.183 219.309 200.088 218.928 199.984C218.555 199.871 218.234 199.685 217.966 199.425C217.697 199.156 217.563 198.805 217.563 198.372C217.563 197.861 217.771 197.432 218.187 197.085C218.603 196.738 219.17 196.565 219.89 196.565C220.852 196.565 221.627 196.868 222.217 197.475L221.762 198.151C221.32 197.622 220.696 197.358 219.89 197.358C219.465 197.358 219.127 197.453 218.876 197.644C218.624 197.826 218.499 198.06 218.499 198.346C218.499 198.554 218.594 198.727 218.785 198.866C218.975 199.005 219.214 199.104 219.5 199.165C219.794 199.226 220.106 199.304 220.436 199.399C220.774 199.494 221.086 199.603 221.372 199.724C221.666 199.837 221.909 200.027 222.1 200.296C222.29 200.556 222.386 200.877 222.386 201.258C222.386 201.813 222.169 202.268 221.736 202.623C221.311 202.978 220.709 203.156 219.929 203.156ZM185.601 218.132L185.003 218.587C183.781 216.906 183.17 214.99 183.17 212.841C183.17 210.692 183.781 208.776 185.003 207.095L185.601 207.537C185.142 208.438 184.799 209.292 184.574 210.098C184.349 210.904 184.236 211.818 184.236 212.841C184.236 213.855 184.349 214.769 184.574 215.584C184.799 216.39 185.142 217.239 185.601 218.132ZM192.479 216H186.525V215.129C188.301 213.742 189.549 212.672 190.269 211.918C190.988 211.164 191.348 210.44 191.348 209.747C191.348 209.227 191.166 208.833 190.802 208.564C190.446 208.295 190.022 208.161 189.528 208.161C188.531 208.161 187.747 208.525 187.175 209.253L186.512 208.564C186.841 208.131 187.27 207.797 187.799 207.563C188.336 207.32 188.912 207.199 189.528 207.199C190.316 207.199 190.997 207.42 191.569 207.862C192.149 208.304 192.44 208.932 192.44 209.747C192.44 210.553 192.093 211.359 191.4 212.165C190.706 212.962 189.649 213.92 188.228 215.038H192.479V216ZM196.234 216H195.038L198.535 208.291H193.868V207.329H199.783V208.07L196.234 216ZM203.666 213.283H200.546V212.425H203.666V213.283ZM207.966 216.156C206.632 216.156 205.613 215.692 204.911 214.765L205.574 214.037C206.172 214.808 206.97 215.194 207.966 215.194C208.556 215.194 209.037 215.016 209.409 214.661C209.782 214.306 209.968 213.864 209.968 213.335C209.968 212.772 209.782 212.321 209.409 211.983C209.045 211.636 208.569 211.463 207.979 211.463C207.208 211.463 206.541 211.732 205.977 212.269L205.184 211.996V207.329H210.488V208.291H206.263V211.307C206.801 210.787 207.477 210.527 208.291 210.527C209.063 210.527 209.717 210.774 210.254 211.268C210.792 211.762 211.06 212.438 211.06 213.296C211.06 214.154 210.766 214.847 210.176 215.376C209.596 215.896 208.859 216.156 207.966 216.156ZM215.218 216.143C214.23 216.143 213.429 215.796 212.813 215.103L213.359 214.297C213.862 214.886 214.482 215.181 215.218 215.181C215.773 215.181 216.241 215.008 216.622 214.661C217.004 214.314 217.272 213.894 217.428 213.4C217.584 212.906 217.662 212.364 217.662 211.775C217.662 211.628 217.658 211.515 217.649 211.437C217.433 211.784 217.099 212.096 216.648 212.373C216.198 212.65 215.717 212.789 215.205 212.789C214.382 212.789 213.702 212.551 213.164 212.074C212.627 211.589 212.358 210.904 212.358 210.02C212.358 209.24 212.636 208.573 213.19 208.018C213.745 207.463 214.482 207.186 215.4 207.186C215.981 207.186 216.492 207.307 216.934 207.55C217.376 207.793 217.727 208.126 217.987 208.551C218.247 208.976 218.438 209.448 218.559 209.968C218.689 210.488 218.754 211.056 218.754 211.671C218.754 212.486 218.633 213.222 218.39 213.881C218.148 214.531 217.753 215.073 217.207 215.506C216.661 215.931 215.998 216.143 215.218 216.143ZM215.452 211.853C215.877 211.853 216.284 211.736 216.674 211.502C217.073 211.259 217.389 210.943 217.623 210.553C217.597 210.267 217.537 209.99 217.441 209.721C217.355 209.452 217.229 209.197 217.064 208.954C216.9 208.711 216.674 208.516 216.388 208.369C216.111 208.222 215.795 208.148 215.439 208.148C214.824 208.148 214.339 208.339 213.983 208.72C213.628 209.093 213.45 209.513 213.45 209.981C213.45 210.588 213.637 211.051 214.009 211.372C214.382 211.693 214.863 211.853 215.452 211.853ZM191.821 229H190.846V228.064C190.309 228.792 189.603 229.156 188.727 229.156C187.895 229.156 187.219 228.861 186.699 228.272C186.188 227.674 185.932 226.872 185.932 225.867C185.932 224.87 186.192 224.073 186.712 223.475C187.232 222.868 187.904 222.565 188.727 222.565C189.594 222.565 190.3 222.933 190.846 223.67V222.721H191.821V229ZM188.974 228.285C189.347 228.285 189.707 228.19 190.053 227.999C190.409 227.8 190.673 227.561 190.846 227.284V224.45C190.673 224.164 190.409 223.926 190.053 223.735C189.707 223.536 189.347 223.436 188.974 223.436C188.35 223.436 187.856 223.666 187.492 224.125C187.128 224.576 186.946 225.156 186.946 225.867C186.946 226.578 187.128 227.158 187.492 227.609C187.856 228.06 188.35 228.285 188.974 228.285ZM199.026 229H198.064V224.892C198.064 224.363 197.942 223.991 197.7 223.774C197.457 223.549 197.106 223.436 196.647 223.436C196.283 223.436 195.932 223.531 195.594 223.722C195.256 223.913 194.987 224.142 194.788 224.411V229H193.813V222.721H194.788V223.631C195.03 223.336 195.355 223.085 195.763 222.877C196.17 222.669 196.595 222.565 197.037 222.565C198.363 222.565 199.026 223.241 199.026 224.593V229ZM197.167 221.798C196.959 221.798 196.772 221.737 196.608 221.616C196.452 221.486 196.33 221.347 196.244 221.2C196.166 221.053 196.066 220.918 195.945 220.797C195.832 220.667 195.706 220.602 195.568 220.602C195.386 220.602 195.234 220.697 195.113 220.888C195 221.07 194.944 221.347 194.944 221.72H194.359C194.359 221.2 194.467 220.78 194.684 220.459C194.909 220.138 195.221 219.978 195.62 219.978C195.828 219.978 196.01 220.043 196.166 220.173C196.33 220.294 196.452 220.429 196.53 220.576C196.616 220.723 196.716 220.862 196.829 220.992C196.95 221.113 197.08 221.174 197.219 221.174C197.401 221.174 197.548 221.083 197.661 220.901C197.782 220.71 197.843 220.429 197.843 220.056H198.428C198.428 220.576 198.315 220.996 198.09 221.317C197.873 221.638 197.565 221.798 197.167 221.798ZM205.939 228.207C205.375 228.84 204.626 229.156 203.69 229.156C202.754 229.156 202 228.84 201.428 228.207C200.864 227.574 200.583 226.79 200.583 225.854C200.583 224.918 200.864 224.138 201.428 223.514C202 222.881 202.754 222.565 203.69 222.565C204.626 222.565 205.375 222.881 205.939 223.514C206.511 224.138 206.797 224.918 206.797 225.854C206.797 226.79 206.511 227.574 205.939 228.207ZM202.169 227.583C202.541 228.051 203.048 228.285 203.69 228.285C204.331 228.285 204.838 228.051 205.211 227.583C205.583 227.106 205.77 226.53 205.77 225.854C205.77 225.178 205.583 224.606 205.211 224.138C204.838 223.67 204.331 223.436 203.69 223.436C203.048 223.436 202.541 223.67 202.169 224.138C201.796 224.606 201.61 225.178 201.61 225.854C201.61 226.53 201.796 227.106 202.169 227.583ZM210.388 229.156C209.331 229.156 208.486 228.827 207.853 228.168L208.347 227.466C208.564 227.717 208.858 227.93 209.231 228.103C209.612 228.276 210.007 228.363 210.414 228.363C210.882 228.363 211.246 228.263 211.506 228.064C211.775 227.865 211.909 227.605 211.909 227.284C211.909 227.007 211.775 226.79 211.506 226.634C211.237 226.469 210.912 226.348 210.531 226.27C210.15 226.183 209.768 226.088 209.387 225.984C209.014 225.871 208.694 225.685 208.425 225.425C208.156 225.156 208.022 224.805 208.022 224.372C208.022 223.861 208.23 223.432 208.646 223.085C209.062 222.738 209.63 222.565 210.349 222.565C211.311 222.565 212.087 222.868 212.676 223.475L212.221 224.151C211.779 223.622 211.155 223.358 210.349 223.358C209.924 223.358 209.586 223.453 209.335 223.644C209.084 223.826 208.958 224.06 208.958 224.346C208.958 224.554 209.053 224.727 209.244 224.866C209.435 225.005 209.673 225.104 209.959 225.165C210.254 225.226 210.566 225.304 210.895 225.399C211.233 225.494 211.545 225.603 211.831 225.724C212.126 225.837 212.368 226.027 212.559 226.296C212.75 226.556 212.845 226.877 212.845 227.258C212.845 227.813 212.628 228.268 212.195 228.623C211.77 228.978 211.168 229.156 210.388 229.156ZM214.273 231.587L213.675 231.132C214.134 230.239 214.477 229.39 214.702 228.584C214.927 227.769 215.04 226.855 215.04 225.841C215.04 224.818 214.927 223.904 214.702 223.098C214.477 222.292 214.134 221.438 213.675 220.537L214.273 220.095C215.495 221.776 216.106 223.692 216.106 225.841C216.106 227.99 215.495 229.906 214.273 231.587Z" fill="#1A1A1A"/>
<path d="M115.944 121H114.072V112.744L112.328 114.568L111.24 113.432L114.312 110.328H115.944V121ZM124.486 121H122.614V118.584H117.526V117.08L121.91 110.328H124.486V116.936H125.91V118.584H124.486V121ZM122.614 116.936V112.008L119.366 116.936H122.614ZM129.527 120.392C129.527 120.936 129.389 121.448 129.111 121.928C128.845 122.408 128.487 122.808 128.039 123.128L127.271 122.504C127.538 122.344 127.783 122.12 128.007 121.832C128.242 121.544 128.381 121.267 128.423 121C128.359 121.032 128.269 121.048 128.151 121.048C127.885 121.048 127.661 120.952 127.479 120.76C127.298 120.568 127.207 120.323 127.207 120.024C127.207 119.725 127.314 119.469 127.527 119.256C127.741 119.043 127.997 118.936 128.295 118.936C128.637 118.936 128.925 119.069 129.159 119.336C129.405 119.592 129.527 119.944 129.527 120.392ZM137.961 120.408C137.172 120.931 136.201 121.192 135.049 121.192C133.897 121.192 132.927 120.931 132.137 120.408C131.348 119.885 130.953 119.165 130.953 118.248C130.953 117.608 131.177 117.048 131.625 116.568C132.084 116.088 132.66 115.731 133.353 115.496C132.692 115.283 132.153 114.968 131.737 114.552C131.332 114.125 131.129 113.597 131.129 112.968C131.129 112.051 131.519 111.357 132.297 110.888C133.076 110.408 133.993 110.168 135.049 110.168C136.105 110.168 137.023 110.408 137.801 110.888C138.58 111.357 138.969 112.051 138.969 112.968C138.969 113.597 138.761 114.125 138.345 114.552C137.94 114.968 137.407 115.283 136.745 115.496C137.439 115.731 138.009 116.088 138.457 116.568C138.916 117.048 139.145 117.608 139.145 118.248C139.145 119.165 138.751 119.885 137.961 120.408ZM135.049 114.744C135.252 114.712 135.449 114.664 135.641 114.6C135.844 114.536 136.057 114.451 136.281 114.344C136.516 114.227 136.703 114.077 136.841 113.896C136.991 113.704 137.065 113.491 137.065 113.256C137.065 112.808 136.879 112.461 136.505 112.216C136.132 111.96 135.647 111.832 135.049 111.832C134.452 111.832 133.967 111.96 133.593 112.216C133.22 112.461 133.033 112.808 133.033 113.256C133.033 113.491 133.103 113.704 133.241 113.896C133.391 114.077 133.577 114.227 133.801 114.344C134.036 114.451 134.249 114.536 134.441 114.6C134.644 114.664 134.847 114.712 135.049 114.744ZM135.049 119.528C135.668 119.528 136.185 119.389 136.601 119.112C137.028 118.835 137.241 118.467 137.241 118.008C137.241 117.528 136.996 117.149 136.505 116.872C136.025 116.584 135.54 116.403 135.049 116.328C134.559 116.403 134.068 116.584 133.577 116.872C133.097 117.149 132.857 117.528 132.857 118.008C132.857 118.467 133.065 118.835 133.481 119.112C133.897 119.389 134.42 119.528 135.049 119.528ZM142.917 115.464C142.138 115.464 141.498 115.213 140.997 114.712C140.506 114.211 140.261 113.581 140.261 112.824C140.261 112.067 140.506 111.437 140.997 110.936C141.498 110.424 142.138 110.168 142.917 110.168C143.706 110.168 144.346 110.419 144.837 110.92C145.327 111.421 145.573 112.056 145.573 112.824C145.573 113.581 145.327 114.211 144.837 114.712C144.346 115.213 143.706 115.464 142.917 115.464ZM142.949 121H141.877L148.693 110.328H149.781L142.949 121ZM150.565 120.44C150.074 120.941 149.439 121.192 148.661 121.192C147.882 121.192 147.242 120.941 146.741 120.44C146.25 119.939 146.005 119.309 146.005 118.552C146.005 117.795 146.25 117.165 146.741 116.664C147.242 116.152 147.882 115.896 148.661 115.896C149.439 115.896 150.074 116.152 150.565 116.664C151.066 117.165 151.317 117.795 151.317 118.552C151.317 119.309 151.066 119.939 150.565 120.44ZM142.917 114.392C143.333 114.392 143.674 114.248 143.941 113.96C144.207 113.661 144.341 113.283 144.341 112.824C144.341 112.355 144.207 111.971 143.941 111.672C143.674 111.373 143.333 111.224 142.917 111.224C142.511 111.224 142.175 111.373 141.909 111.672C141.642 111.971 141.509 112.355 141.509 112.824C141.509 113.283 141.642 113.661 141.909 113.96C142.175 114.248 142.511 114.392 142.917 114.392ZM147.637 119.688C147.903 119.976 148.245 120.12 148.661 120.12C149.077 120.12 149.418 119.976 149.685 119.688C149.951 119.389 150.085 119.011 150.085 118.552C150.085 118.083 149.951 117.699 149.685 117.4C149.418 117.101 149.077 116.952 148.661 116.952C148.245 116.952 147.903 117.101 147.637 117.4C147.37 117.699 147.237 118.083 147.237 118.552C147.237 119.011 147.37 119.389 147.637 119.688Z" fill="#1A1A1A"/>
<path d="M156 184.107L156 131.101L106 131.101L106 184.107L156 184.107Z" fill="#1D5556"/>
<path d="M109.481 203.156C108.545 203.156 107.791 202.822 107.219 202.155L107.791 201.336C108.25 201.908 108.792 202.194 109.416 202.194C109.944 202.194 110.365 202.029 110.677 201.7C110.997 201.362 111.158 200.92 111.158 200.374V194.329H112.237V200.387C112.237 201.288 111.981 201.977 111.47 202.454C110.958 202.922 110.295 203.156 109.481 203.156ZM119.213 202.207C118.649 202.84 117.9 203.156 116.964 203.156C116.028 203.156 115.274 202.84 114.702 202.207C114.138 201.574 113.857 200.79 113.857 199.854C113.857 198.918 114.138 198.138 114.702 197.514C115.274 196.881 116.028 196.565 116.964 196.565C117.9 196.565 118.649 196.881 119.213 197.514C119.785 198.138 120.071 198.918 120.071 199.854C120.071 200.79 119.785 201.574 119.213 202.207ZM115.443 201.583C115.815 202.051 116.322 202.285 116.964 202.285C117.605 202.285 118.112 202.051 118.485 201.583C118.857 201.106 119.044 200.53 119.044 199.854C119.044 199.178 118.857 198.606 118.485 198.138C118.112 197.67 117.605 197.436 116.964 197.436C116.322 197.436 115.815 197.67 115.443 198.138C115.07 198.606 114.884 199.178 114.884 199.854C114.884 200.53 115.07 201.106 115.443 201.583ZM119.044 193.9L116.847 195.772H116.106L118.03 193.9H119.044ZM124.403 203H123.337L120.724 196.721H121.79L123.87 201.869L125.963 196.721H127.016L124.403 203ZM130.88 203.156C129.935 203.156 129.164 202.853 128.566 202.246C127.968 201.631 127.669 200.833 127.669 199.854C127.669 198.935 127.964 198.16 128.553 197.527C129.142 196.886 129.879 196.565 130.763 196.565C131.69 196.565 132.423 196.886 132.96 197.527C133.506 198.16 133.779 198.961 133.779 199.932V200.179H128.709C128.752 200.794 128.973 201.31 129.372 201.726C129.779 202.142 130.308 202.35 130.958 202.35C131.738 202.35 132.388 202.081 132.908 201.544L133.376 202.181C132.709 202.831 131.877 203.156 130.88 203.156ZM132.817 199.451C132.808 198.922 132.626 198.446 132.271 198.021C131.916 197.588 131.409 197.371 130.75 197.371C130.126 197.371 129.632 197.583 129.268 198.008C128.913 198.433 128.722 198.914 128.696 199.451H132.817ZM140.571 203H139.609V198.892C139.609 198.363 139.488 197.991 139.245 197.774C139.003 197.549 138.652 197.436 138.192 197.436C137.828 197.436 137.477 197.531 137.139 197.722C136.801 197.913 136.533 198.142 136.333 198.411V203H135.358V196.721H136.333V197.631C136.576 197.336 136.901 197.085 137.308 196.877C137.716 196.669 138.14 196.565 138.582 196.565C139.908 196.565 140.571 197.241 140.571 198.593V203ZM145.378 203.156C144.433 203.156 143.662 202.853 143.064 202.246C142.466 201.631 142.167 200.833 142.167 199.854C142.167 198.935 142.462 198.16 143.051 197.527C143.64 196.886 144.377 196.565 145.261 196.565C146.188 196.565 146.921 196.886 147.458 197.527C148.004 198.16 148.277 198.961 148.277 199.932V200.179H143.207C143.25 200.794 143.471 201.31 143.87 201.726C144.277 202.142 144.806 202.35 145.456 202.35C146.236 202.35 146.886 202.081 147.406 201.544L147.874 202.181C147.207 202.831 146.375 203.156 145.378 203.156ZM147.315 199.451C147.306 198.922 147.124 198.446 146.769 198.021C146.414 197.588 145.907 197.371 145.248 197.371C144.624 197.371 144.13 197.583 143.766 198.008C143.411 198.433 143.22 198.914 143.194 199.451H147.315ZM151.858 203.156C150.801 203.156 149.956 202.827 149.323 202.168L149.817 201.466C150.034 201.717 150.329 201.93 150.701 202.103C151.083 202.276 151.477 202.363 151.884 202.363C152.352 202.363 152.716 202.263 152.976 202.064C153.245 201.865 153.379 201.605 153.379 201.284C153.379 201.007 153.245 200.79 152.976 200.634C152.708 200.469 152.383 200.348 152.001 200.27C151.62 200.183 151.239 200.088 150.857 199.984C150.485 199.871 150.164 199.685 149.895 199.425C149.627 199.156 149.492 198.805 149.492 198.372C149.492 197.861 149.7 197.432 150.116 197.085C150.532 196.738 151.1 196.565 151.819 196.565C152.781 196.565 153.557 196.868 154.146 197.475L153.691 198.151C153.249 197.622 152.625 197.358 151.819 197.358C151.395 197.358 151.057 197.453 150.805 197.644C150.554 197.826 150.428 198.06 150.428 198.346C150.428 198.554 150.524 198.727 150.714 198.866C150.905 199.005 151.143 199.104 151.429 199.165C151.724 199.226 152.036 199.304 152.365 199.399C152.703 199.494 153.015 199.603 153.301 199.724C153.596 199.837 153.839 200.027 154.029 200.296C154.22 200.556 154.315 200.877 154.315 201.258C154.315 201.813 154.099 202.268 153.665 202.623C153.241 202.978 152.638 203.156 151.858 203.156ZM116.953 218.132L116.355 218.587C115.133 216.906 114.522 214.99 114.522 212.841C114.522 210.692 115.133 208.776 116.355 207.095L116.953 207.537C116.494 208.438 116.152 209.292 115.926 210.098C115.701 210.904 115.588 211.818 115.588 212.841C115.588 213.855 115.701 214.769 115.926 215.584C116.152 216.39 116.494 217.239 116.953 218.132ZM120.568 216H119.489V208.746L118.098 210.228L117.448 209.565L119.619 207.329H120.568V216ZM127.196 216H126.117V213.803H121.996V212.906L125.714 207.329H127.196V212.854H128.418V213.803H127.196V216ZM126.117 212.854V208.33L123.075 212.854H126.117ZM132.339 213.283H129.219V212.425H132.339V213.283ZM139.383 216H133.429V215.129C135.205 213.742 136.453 212.672 137.173 211.918C137.892 211.164 138.252 210.44 138.252 209.747C138.252 209.227 138.07 208.833 137.706 208.564C137.35 208.295 136.926 208.161 136.432 208.161C135.435 208.161 134.651 208.525 134.079 209.253L133.416 208.564C133.745 208.131 134.174 207.797 134.703 207.563C135.24 207.32 135.816 207.199 136.432 207.199C137.22 207.199 137.901 207.42 138.473 207.862C139.053 208.304 139.344 208.932 139.344 209.747C139.344 210.553 138.997 211.359 138.304 212.165C137.61 212.962 136.553 213.92 135.132 215.038H139.383V216ZM144.386 216.156C143.797 216.156 143.281 216.035 142.839 215.792C142.397 215.549 142.046 215.216 141.786 214.791C141.535 214.366 141.344 213.894 141.214 213.374C141.093 212.854 141.032 212.286 141.032 211.671C141.032 210.406 141.331 209.344 141.929 208.486C142.536 207.628 143.415 207.199 144.568 207.199C145.573 207.199 146.371 207.546 146.96 208.239L146.414 209.045C145.911 208.456 145.296 208.161 144.568 208.161C143.779 208.161 143.173 208.495 142.748 209.162C142.332 209.829 142.124 210.631 142.124 211.567V211.905C142.341 211.558 142.674 211.246 143.125 210.969C143.584 210.692 144.07 210.553 144.581 210.553C145.404 210.553 146.08 210.796 146.609 211.281C147.146 211.758 147.415 212.438 147.415 213.322C147.415 214.102 147.138 214.769 146.583 215.324C146.028 215.879 145.296 216.156 144.386 216.156ZM144.334 215.194C144.958 215.194 145.443 215.003 145.79 214.622C146.145 214.241 146.323 213.82 146.323 213.361C146.323 212.754 146.137 212.291 145.764 211.97C145.391 211.649 144.915 211.489 144.334 211.489C143.909 211.489 143.502 211.61 143.112 211.853C142.722 212.087 142.406 212.395 142.163 212.776C142.215 213.417 142.419 213.981 142.774 214.466C143.129 214.951 143.649 215.194 144.334 215.194ZM121.821 229H120.846V228.064C120.309 228.792 119.603 229.156 118.727 229.156C117.895 229.156 117.219 228.861 116.699 228.272C116.188 227.674 115.932 226.872 115.932 225.867C115.932 224.87 116.192 224.073 116.712 223.475C117.232 222.868 117.904 222.565 118.727 222.565C119.594 222.565 120.3 222.933 120.846 223.67V222.721H121.821V229ZM118.974 228.285C119.347 228.285 119.707 228.19 120.053 227.999C120.409 227.8 120.673 227.561 120.846 227.284V224.45C120.673 224.164 120.409 223.926 120.053 223.735C119.707 223.536 119.347 223.436 118.974 223.436C118.35 223.436 117.856 223.666 117.492 224.125C117.128 224.576 116.946 225.156 116.946 225.867C116.946 226.578 117.128 227.158 117.492 227.609C117.856 228.06 118.35 228.285 118.974 228.285ZM129.026 229H128.064V224.892C128.064 224.363 127.942 223.991 127.7 223.774C127.457 223.549 127.106 223.436 126.647 223.436C126.283 223.436 125.932 223.531 125.594 223.722C125.256 223.913 124.987 224.142 124.788 224.411V229H123.813V222.721H124.788V223.631C125.03 223.336 125.355 223.085 125.763 222.877C126.17 222.669 126.595 222.565 127.037 222.565C128.363 222.565 129.026 223.241 129.026 224.593V229ZM127.167 221.798C126.959 221.798 126.772 221.737 126.608 221.616C126.452 221.486 126.33 221.347 126.244 221.2C126.166 221.053 126.066 220.918 125.945 220.797C125.832 220.667 125.706 220.602 125.568 220.602C125.386 220.602 125.234 220.697 125.113 220.888C125 221.07 124.944 221.347 124.944 221.72H124.359C124.359 221.2 124.467 220.78 124.684 220.459C124.909 220.138 125.221 219.978 125.62 219.978C125.828 219.978 126.01 220.043 126.166 220.173C126.33 220.294 126.452 220.429 126.53 220.576C126.616 220.723 126.716 220.862 126.829 220.992C126.95 221.113 127.08 221.174 127.219 221.174C127.401 221.174 127.548 221.083 127.661 220.901C127.782 220.71 127.843 220.429 127.843 220.056H128.428C128.428 220.576 128.315 220.996 128.09 221.317C127.873 221.638 127.565 221.798 127.167 221.798ZM135.939 228.207C135.375 228.84 134.626 229.156 133.69 229.156C132.754 229.156 132 228.84 131.428 228.207C130.864 227.574 130.583 226.79 130.583 225.854C130.583 224.918 130.864 224.138 131.428 223.514C132 222.881 132.754 222.565 133.69 222.565C134.626 222.565 135.375 222.881 135.939 223.514C136.511 224.138 136.797 224.918 136.797 225.854C136.797 226.79 136.511 227.574 135.939 228.207ZM132.169 227.583C132.541 228.051 133.048 228.285 133.69 228.285C134.331 228.285 134.838 228.051 135.211 227.583C135.583 227.106 135.77 226.53 135.77 225.854C135.77 225.178 135.583 224.606 135.211 224.138C134.838 223.67 134.331 223.436 133.69 223.436C133.048 223.436 132.541 223.67 132.169 224.138C131.796 224.606 131.61 225.178 131.61 225.854C131.61 226.53 131.796 227.106 132.169 227.583ZM140.388 229.156C139.331 229.156 138.486 228.827 137.853 228.168L138.347 227.466C138.564 227.717 138.858 227.93 139.231 228.103C139.612 228.276 140.007 228.363 140.414 228.363C140.882 228.363 141.246 228.263 141.506 228.064C141.775 227.865 141.909 227.605 141.909 227.284C141.909 227.007 141.775 226.79 141.506 226.634C141.237 226.469 140.912 226.348 140.531 226.27C140.15 226.183 139.768 226.088 139.387 225.984C139.014 225.871 138.694 225.685 138.425 225.425C138.156 225.156 138.022 224.805 138.022 224.372C138.022 223.861 138.23 223.432 138.646 223.085C139.062 222.738 139.63 222.565 140.349 222.565C141.311 222.565 142.087 222.868 142.676 223.475L142.221 224.151C141.779 223.622 141.155 223.358 140.349 223.358C139.924 223.358 139.586 223.453 139.335 223.644C139.084 223.826 138.958 224.06 138.958 224.346C138.958 224.554 139.053 224.727 139.244 224.866C139.435 225.005 139.673 225.104 139.959 225.165C140.254 225.226 140.566 225.304 140.895 225.399C141.233 225.494 141.545 225.603 141.831 225.724C142.126 225.837 142.368 226.027 142.559 226.296C142.75 226.556 142.845 226.877 142.845 227.258C142.845 227.813 142.628 228.268 142.195 228.623C141.77 228.978 141.168 229.156 140.388 229.156ZM144.273 231.587L143.675 231.132C144.134 230.239 144.477 229.39 144.702 228.584C144.927 227.769 145.04 226.855 145.04 225.841C145.04 224.818 144.927 223.904 144.702 223.098C144.477 222.292 144.134 221.438 143.675 220.537L144.273 220.095C145.495 221.776 146.106 223.692 146.106 225.841C146.106 227.99 145.495 229.906 144.273 231.587Z" fill="#1A1A1A"/>
<path d="M262.528 82H254.8V80.512C257.051 78.8053 258.576 77.552 259.376 76.752C260.176 75.952 260.576 75.184 260.576 74.448C260.576 73.9253 260.384 73.5253 260 73.248C259.616 72.9707 259.157 72.832 258.624 72.832C257.461 72.832 256.501 73.2533 255.744 74.096L254.656 72.88C255.115 72.3253 255.691 71.904 256.384 71.616C257.088 71.3173 257.829 71.168 258.608 71.168C259.696 71.168 260.608 71.4613 261.344 72.048C262.091 72.624 262.464 73.424 262.464 74.448C262.464 75.376 262.08 76.2933 261.312 77.2C260.555 78.1067 259.387 79.1573 257.808 80.352H262.528V82ZM268.38 82.192C266.684 82.192 265.366 81.6427 264.428 80.544L265.5 79.248C266.225 80.1013 267.18 80.528 268.364 80.528C269.025 80.528 269.553 80.352 269.948 80C270.353 79.6373 270.556 79.184 270.556 78.64C270.556 78.0747 270.358 77.6213 269.964 77.28C269.58 76.928 269.062 76.752 268.412 76.752C267.505 76.752 266.726 77.056 266.076 77.664L264.748 77.28V71.328H271.74V72.976H266.62V76.048C267.27 75.44 268.076 75.136 269.036 75.136C269.985 75.136 270.79 75.4453 271.452 76.064C272.124 76.6827 272.46 77.52 272.46 78.576C272.46 79.664 272.081 80.5387 271.324 81.2C270.566 81.8613 269.585 82.192 268.38 82.192ZM276.277 81.392C276.277 81.936 276.139 82.448 275.861 82.928C275.595 83.408 275.237 83.808 274.789 84.128L274.021 83.504C274.288 83.344 274.533 83.12 274.757 82.832C274.992 82.544 275.131 82.2667 275.173 82C275.109 82.032 275.019 82.048 274.901 82.048C274.635 82.048 274.411 81.952 274.229 81.76C274.048 81.568 273.957 81.3227 273.957 81.024C273.957 80.7253 274.064 80.4693 274.277 80.256C274.491 80.0427 274.747 79.936 275.045 79.936C275.387 79.936 275.675 80.0693 275.909 80.336C276.155 80.592 276.277 80.944 276.277 81.392ZM284.711 81.408C283.922 81.9307 282.951 82.192 281.799 82.192C280.647 82.192 279.677 81.9307 278.887 81.408C278.098 80.8853 277.703 80.1653 277.703 79.248C277.703 78.608 277.927 78.048 278.375 77.568C278.834 77.088 279.41 76.7307 280.103 76.496C279.442 76.2827 278.903 75.968 278.487 75.552C278.082 75.1253 277.879 74.5973 277.879 73.968C277.879 73.0507 278.269 72.3573 279.047 71.888C279.826 71.408 280.743 71.168 281.799 71.168C282.855 71.168 283.773 71.408 284.551 71.888C285.33 72.3573 285.719 73.0507 285.719 73.968C285.719 74.5973 285.511 75.1253 285.095 75.552C284.69 75.968 284.157 76.2827 283.495 76.496C284.189 76.7307 284.759 77.088 285.207 77.568C285.666 78.048 285.895 78.608 285.895 79.248C285.895 80.1653 285.501 80.8853 284.711 81.408ZM281.799 75.744C282.002 75.712 282.199 75.664 282.391 75.6C282.594 75.536 282.807 75.4507 283.031 75.344C283.266 75.2267 283.453 75.0773 283.591 74.896C283.741 74.704 283.815 74.4907 283.815 74.256C283.815 73.808 283.629 73.4613 283.255 73.216C282.882 72.96 282.397 72.832 281.799 72.832C281.202 72.832 280.717 72.96 280.343 73.216C279.97 73.4613 279.783 73.808 279.783 74.256C279.783 74.4907 279.853 74.704 279.991 74.896C280.141 75.0773 280.327 75.2267 280.551 75.344C280.786 75.4507 280.999 75.536 281.191 75.6C281.394 75.664 281.597 75.712 281.799 75.744ZM281.799 80.528C282.418 80.528 282.935 80.3893 283.351 80.112C283.778 79.8347 283.991 79.4667 283.991 79.008C283.991 78.528 283.746 78.1493 283.255 77.872C282.775 77.584 282.29 77.4027 281.799 77.328C281.309 77.4027 280.818 77.584 280.327 77.872C279.847 78.1493 279.607 78.528 279.607 79.008C279.607 79.4667 279.815 79.8347 280.231 80.112C280.647 80.3893 281.17 80.528 281.799 80.528ZM289.667 76.464C288.888 76.464 288.248 76.2133 287.747 75.712C287.256 75.2107 287.011 74.5813 287.011 73.824C287.011 73.0667 287.256 72.4373 287.747 71.936C288.248 71.424 288.888 71.168 289.667 71.168C290.456 71.168 291.096 71.4187 291.587 71.92C292.077 72.4213 292.323 73.056 292.323 73.824C292.323 74.5813 292.077 75.2107 291.587 75.712C291.096 76.2133 290.456 76.464 289.667 76.464ZM289.699 82H288.627L295.443 71.328H296.531L289.699 82ZM297.315 81.44C296.824 81.9413 296.189 82.192 295.411 82.192C294.632 82.192 293.992 81.9413 293.491 81.44C293 80.9387 292.755 80.3093 292.755 79.552C292.755 78.7947 293 78.1653 293.491 77.664C293.992 77.152 294.632 76.896 295.411 76.896C296.189 76.896 296.824 77.152 297.315 77.664C297.816 78.1653 298.067 78.7947 298.067 79.552C298.067 80.3093 297.816 80.9387 297.315 81.44ZM289.667 75.392C290.083 75.392 290.424 75.248 290.691 74.96C290.957 74.6613 291.091 74.2827 291.091 73.824C291.091 73.3547 290.957 72.9707 290.691 72.672C290.424 72.3733 290.083 72.224 289.667 72.224C289.261 72.224 288.925 72.3733 288.659 72.672C288.392 72.9707 288.259 73.3547 288.259 73.824C288.259 74.2827 288.392 74.6613 288.659 74.96C288.925 75.248 289.261 75.392 289.667 75.392ZM294.387 80.688C294.653 80.976 294.995 81.12 295.411 81.12C295.827 81.12 296.168 80.976 296.435 80.688C296.701 80.3893 296.835 80.0107 296.835 79.552C296.835 79.0827 296.701 78.6987 296.435 78.4C296.168 78.1013 295.827 77.952 295.411 77.952C294.995 77.952 294.653 78.1013 294.387 78.4C294.12 78.6987 293.987 79.0827 293.987 79.552C293.987 80.0107 294.12 80.3893 294.387 80.688Z" fill="#1A1A1A"/>
<path d="M301 184.107L301 91.7045L251 91.7045L251 184.107L301 184.107Z" fill="#698F3F"/>
<path d="M251.465 203H250.386V194.329H253.87C254.71 194.329 255.373 194.58 255.859 195.083C256.344 195.586 256.587 196.205 256.587 196.942C256.587 197.679 256.34 198.298 255.846 198.801C255.36 199.304 254.702 199.555 253.87 199.555H251.465V203ZM253.74 198.593C254.251 198.593 254.667 198.441 254.988 198.138C255.308 197.826 255.469 197.427 255.469 196.942C255.469 196.457 255.308 196.062 254.988 195.759C254.667 195.447 254.251 195.291 253.74 195.291H251.465V198.593H253.74ZM260.658 203.156C259.714 203.156 258.942 202.853 258.344 202.246C257.746 201.631 257.447 200.833 257.447 199.854C257.447 198.935 257.742 198.16 258.331 197.527C258.921 196.886 259.657 196.565 260.541 196.565C261.469 196.565 262.201 196.886 262.738 197.527C263.284 198.16 263.557 198.961 263.557 199.932V200.179H258.487C258.531 200.794 258.752 201.31 259.15 201.726C259.558 202.142 260.086 202.35 260.736 202.35C261.516 202.35 262.166 202.081 262.686 201.544L263.154 202.181C262.487 202.831 261.655 203.156 260.658 203.156ZM262.595 199.451C262.587 198.922 262.405 198.446 262.049 198.021C261.694 197.588 261.187 197.371 260.528 197.371C259.904 197.371 259.41 197.583 259.046 198.008C258.691 198.433 258.5 198.914 258.474 199.451H262.595ZM266.112 203H265.137V196.721H266.112V197.722C266.71 196.959 267.407 196.578 268.205 196.578V197.579C268.049 197.562 267.923 197.553 267.828 197.553C267.524 197.553 267.199 197.657 266.853 197.865C266.506 198.064 266.259 198.294 266.112 198.554V203ZM271.43 203.156C270.372 203.156 269.527 202.827 268.895 202.168L269.389 201.466C269.605 201.717 269.9 201.93 270.273 202.103C270.654 202.276 271.048 202.363 271.456 202.363C271.924 202.363 272.288 202.263 272.548 202.064C272.816 201.865 272.951 201.605 272.951 201.284C272.951 201.007 272.816 200.79 272.548 200.634C272.279 200.469 271.954 200.348 271.573 200.27C271.191 200.183 270.81 200.088 270.429 199.984C270.056 199.871 269.735 199.685 269.467 199.425C269.198 199.156 269.064 198.805 269.064 198.372C269.064 197.861 269.272 197.432 269.688 197.085C270.104 196.738 270.671 196.565 271.391 196.565C272.353 196.565 273.128 196.868 273.718 197.475L273.263 198.151C272.821 197.622 272.197 197.358 271.391 197.358C270.966 197.358 270.628 197.453 270.377 197.644C270.125 197.826 270 198.06 270 198.346C270 198.554 270.095 198.727 270.286 198.866C270.476 199.005 270.715 199.104 271.001 199.165C271.295 199.226 271.607 199.304 271.937 199.399C272.275 199.494 272.587 199.603 272.873 199.724C273.167 199.837 273.41 200.027 273.601 200.296C273.791 200.556 273.887 200.877 273.887 201.258C273.887 201.813 273.67 202.268 273.237 202.623C272.812 202.978 272.21 203.156 271.43 203.156ZM280.463 202.207C279.899 202.84 279.15 203.156 278.214 203.156C277.278 203.156 276.524 202.84 275.952 202.207C275.388 201.574 275.107 200.79 275.107 199.854C275.107 198.918 275.388 198.138 275.952 197.514C276.524 196.881 277.278 196.565 278.214 196.565C279.15 196.565 279.899 196.881 280.463 197.514C281.035 198.138 281.321 198.918 281.321 199.854C281.321 200.79 281.035 201.574 280.463 202.207ZM276.693 201.583C277.065 202.051 277.572 202.285 278.214 202.285C278.855 202.285 279.362 202.051 279.735 201.583C280.107 201.106 280.294 200.53 280.294 199.854C280.294 199.178 280.107 198.606 279.735 198.138C279.362 197.67 278.855 197.436 278.214 197.436C277.572 197.436 277.065 197.67 276.693 198.138C276.32 198.606 276.134 199.178 276.134 199.854C276.134 200.53 276.32 201.106 276.693 201.583ZM288.123 203H287.161V198.892C287.161 198.363 287.04 197.991 286.797 197.774C286.554 197.549 286.203 197.436 285.744 197.436C285.38 197.436 285.029 197.531 284.691 197.722C284.353 197.913 284.084 198.142 283.885 198.411V203H282.91V196.721H283.885V197.631C284.128 197.336 284.453 197.085 284.86 196.877C285.267 196.669 285.692 196.565 286.134 196.565C287.46 196.565 288.123 197.241 288.123 198.593V203ZM295.608 203H294.633V202.064C294.096 202.792 293.389 203.156 292.514 203.156C291.682 203.156 291.006 202.861 290.486 202.272C289.975 201.674 289.719 200.872 289.719 199.867C289.719 198.87 289.979 198.073 290.499 197.475C291.019 196.868 291.691 196.565 292.514 196.565C293.381 196.565 294.087 196.933 294.633 197.67V196.721H295.608V203ZM292.761 202.285C293.134 202.285 293.493 202.19 293.84 201.999C294.195 201.8 294.46 201.561 294.633 201.284V198.45C294.46 198.164 294.195 197.926 293.84 197.735C293.493 197.536 293.134 197.436 292.761 197.436C292.137 197.436 291.643 197.666 291.279 198.125C290.915 198.576 290.733 199.156 290.733 199.867C290.733 200.578 290.915 201.158 291.279 201.609C291.643 202.06 292.137 202.285 292.761 202.285ZM299.562 203.156C298.505 203.156 297.66 202.827 297.027 202.168L297.521 201.466C297.738 201.717 298.033 201.93 298.405 202.103C298.787 202.276 299.181 202.363 299.588 202.363C300.056 202.363 300.42 202.263 300.68 202.064C300.949 201.865 301.083 201.605 301.083 201.284C301.083 201.007 300.949 200.79 300.68 200.634C300.412 200.469 300.087 200.348 299.705 200.27C299.324 200.183 298.943 200.088 298.561 199.984C298.189 199.871 297.868 199.685 297.599 199.425C297.331 199.156 297.196 198.805 297.196 198.372C297.196 197.861 297.404 197.432 297.82 197.085C298.236 196.738 298.804 196.565 299.523 196.565C300.485 196.565 301.261 196.868 301.85 197.475L301.395 198.151C300.953 197.622 300.329 197.358 299.523 197.358C299.099 197.358 298.761 197.453 298.509 197.644C298.258 197.826 298.132 198.06 298.132 198.346C298.132 198.554 298.228 198.727 298.418 198.866C298.609 199.005 298.847 199.104 299.133 199.165C299.428 199.226 299.74 199.304 300.069 199.399C300.407 199.494 300.719 199.603 301.005 199.724C301.3 199.837 301.543 200.027 301.733 200.296C301.924 200.556 302.019 200.877 302.019 201.258C302.019 201.813 301.803 202.268 301.369 202.623C300.945 202.978 300.342 203.156 299.562 203.156ZM260.411 216H259.436V211.736C259.436 210.869 259.051 210.436 258.279 210.436C257.967 210.436 257.655 210.531 257.343 210.722C257.031 210.904 256.789 211.129 256.615 211.398V216H255.64V211.736C255.64 210.869 255.255 210.436 254.483 210.436C254.18 210.436 253.872 210.531 253.56 210.722C253.257 210.913 253.014 211.142 252.832 211.411V216H251.857V209.721H252.832V210.631C252.997 210.38 253.27 210.141 253.651 209.916C254.041 209.682 254.449 209.565 254.873 209.565C255.324 209.565 255.692 209.673 255.978 209.89C256.264 210.107 256.455 210.388 256.55 210.735C256.741 210.423 257.031 210.15 257.421 209.916C257.811 209.682 258.223 209.565 258.656 209.565C259.826 209.565 260.411 210.198 260.411 211.463V216ZM267.881 216H266.906V215.064C266.369 215.792 265.663 216.156 264.787 216.156C263.955 216.156 263.279 215.861 262.759 215.272C262.248 214.674 261.992 213.872 261.992 212.867C261.992 211.87 262.252 211.073 262.772 210.475C263.292 209.868 263.964 209.565 264.787 209.565C265.654 209.565 266.36 209.933 266.906 210.67V209.721H267.881V216ZM265.034 215.285C265.407 215.285 265.767 215.19 266.113 214.999C266.469 214.8 266.733 214.561 266.906 214.284V211.45C266.733 211.164 266.469 210.926 266.113 210.735C265.767 210.536 265.407 210.436 265.034 210.436C264.41 210.436 263.916 210.666 263.552 211.125C263.188 211.576 263.006 212.156 263.006 212.867C263.006 213.578 263.188 214.158 263.552 214.609C263.916 215.06 264.41 215.285 265.034 215.285ZM272.174 218.548C271.203 218.548 270.402 218.232 269.769 217.599L270.263 216.897C270.714 217.46 271.351 217.742 272.174 217.742C272.763 217.742 273.227 217.582 273.565 217.261C273.903 216.94 274.072 216.494 274.072 215.922V214.986C273.812 215.281 273.483 215.528 273.084 215.727C272.694 215.926 272.278 216.026 271.836 216.026C270.501 216.026 269.834 215.359 269.834 214.024V209.721H270.809V213.725C270.809 214.254 270.93 214.626 271.173 214.843C271.416 215.06 271.767 215.168 272.226 215.168C272.581 215.168 272.928 215.077 273.266 214.895C273.613 214.704 273.881 214.479 274.072 214.219V209.721H275.047V215.922C275.047 216.771 274.774 217.421 274.228 217.872C273.682 218.323 272.997 218.548 272.174 218.548ZM281.986 215.207C281.423 215.84 280.673 216.156 279.737 216.156C278.801 216.156 278.047 215.84 277.475 215.207C276.912 214.574 276.63 213.79 276.63 212.854C276.63 211.918 276.912 211.138 277.475 210.514C278.047 209.881 278.801 209.565 279.737 209.565C280.673 209.565 281.423 209.881 281.986 210.514C282.558 211.138 282.844 211.918 282.844 212.854C282.844 213.79 282.558 214.574 281.986 215.207ZM278.216 214.583C278.589 215.051 279.096 215.285 279.737 215.285C280.378 215.285 280.885 215.051 281.258 214.583C281.631 214.106 281.817 213.53 281.817 212.854C281.817 212.178 281.631 211.606 281.258 211.138C280.885 210.67 280.378 210.436 279.737 210.436C279.096 210.436 278.589 210.67 278.216 211.138C277.843 211.606 277.657 212.178 277.657 212.854C277.657 213.53 277.843 214.106 278.216 214.583ZM285.408 216H284.433V209.721H285.408V210.722C286.006 209.959 286.704 209.578 287.501 209.578V210.579C287.345 210.562 287.22 210.553 287.124 210.553C286.821 210.553 286.496 210.657 286.149 210.865C285.803 211.064 285.556 211.294 285.408 211.554V216ZM291.572 216.156C290.627 216.156 289.856 215.853 289.258 215.246C288.66 214.631 288.361 213.833 288.361 212.854C288.361 211.935 288.655 211.16 289.245 210.527C289.834 209.886 290.571 209.565 291.455 209.565C292.382 209.565 293.114 209.886 293.652 210.527C294.198 211.16 294.471 211.961 294.471 212.932V213.179H289.401C289.444 213.794 289.665 214.31 290.064 214.726C290.471 215.142 291 215.35 291.65 215.35C292.43 215.35 293.08 215.081 293.6 214.544L294.068 215.181C293.4 215.831 292.568 216.156 291.572 216.156ZM293.509 212.451C293.5 211.922 293.318 211.446 292.963 211.021C292.607 210.588 292.1 210.371 291.442 210.371C290.818 210.371 290.324 210.583 289.96 211.008C289.604 211.433 289.414 211.914 289.388 212.451H293.509ZM298.052 216.156C296.994 216.156 296.149 215.827 295.517 215.168L296.011 214.466C296.227 214.717 296.522 214.93 296.895 215.103C297.276 215.276 297.67 215.363 298.078 215.363C298.546 215.363 298.91 215.263 299.17 215.064C299.438 214.865 299.573 214.605 299.573 214.284C299.573 214.007 299.438 213.79 299.17 213.634C298.901 213.469 298.576 213.348 298.195 213.27C297.813 213.183 297.432 213.088 297.051 212.984C296.678 212.871 296.357 212.685 296.089 212.425C295.82 212.156 295.686 211.805 295.686 211.372C295.686 210.861 295.894 210.432 296.31 210.085C296.726 209.738 297.293 209.565 298.013 209.565C298.975 209.565 299.75 209.868 300.34 210.475L299.885 211.151C299.443 210.622 298.819 210.358 298.013 210.358C297.588 210.358 297.25 210.453 296.999 210.644C296.747 210.826 296.622 211.06 296.622 211.346C296.622 211.554 296.717 211.727 296.908 211.866C297.098 212.005 297.337 212.104 297.623 212.165C297.917 212.226 298.229 212.304 298.559 212.399C298.897 212.494 299.209 212.603 299.495 212.724C299.789 212.837 300.032 213.027 300.223 213.296C300.413 213.556 300.509 213.877 300.509 214.258C300.509 214.813 300.292 215.268 299.859 215.623C299.434 215.978 298.832 216.156 298.052 216.156ZM253.822 231.132L253.224 231.587C252.002 229.906 251.391 227.99 251.391 225.841C251.391 223.692 252.002 221.776 253.224 220.095L253.822 220.537C253.363 221.438 253.02 222.292 252.795 223.098C252.57 223.904 252.457 224.818 252.457 225.841C252.457 226.855 252.57 227.769 252.795 228.584C253.02 229.39 253.363 230.239 253.822 231.132ZM258.06 229.156C257.471 229.156 256.955 229.035 256.513 228.792C256.071 228.549 255.72 228.216 255.46 227.791C255.209 227.366 255.018 226.894 254.888 226.374C254.767 225.854 254.706 225.286 254.706 224.671C254.706 223.406 255.005 222.344 255.603 221.486C256.21 220.628 257.09 220.199 258.242 220.199C259.248 220.199 260.045 220.546 260.634 221.239L260.088 222.045C259.586 221.456 258.97 221.161 258.242 221.161C257.454 221.161 256.847 221.495 256.422 222.162C256.006 222.829 255.798 223.631 255.798 224.567V224.905C256.015 224.558 256.349 224.246 256.799 223.969C257.259 223.692 257.744 223.553 258.255 223.553C259.079 223.553 259.755 223.796 260.283 224.281C260.821 224.758 261.089 225.438 261.089 226.322C261.089 227.102 260.812 227.769 260.257 228.324C259.703 228.879 258.97 229.156 258.06 229.156ZM258.008 228.194C258.632 228.194 259.118 228.003 259.464 227.622C259.82 227.241 259.997 226.82 259.997 226.361C259.997 225.754 259.811 225.291 259.438 224.97C259.066 224.649 258.589 224.489 258.008 224.489C257.584 224.489 257.176 224.61 256.786 224.853C256.396 225.087 256.08 225.395 255.837 225.776C255.889 226.417 256.093 226.981 256.448 227.466C256.804 227.951 257.324 228.194 258.008 228.194ZM265.702 229.156C265.13 229.156 264.623 229.026 264.181 228.766C263.748 228.497 263.401 228.142 263.141 227.7C262.89 227.258 262.699 226.781 262.569 226.27C262.448 225.759 262.387 225.226 262.387 224.671C262.387 224.116 262.448 223.583 262.569 223.072C262.699 222.561 262.89 222.088 263.141 221.655C263.401 221.213 263.748 220.862 264.181 220.602C264.623 220.333 265.13 220.199 265.702 220.199C266.265 220.199 266.768 220.333 267.21 220.602C267.652 220.862 267.999 221.213 268.25 221.655C268.51 222.088 268.701 222.561 268.822 223.072C268.952 223.583 269.017 224.116 269.017 224.671C269.017 225.226 268.952 225.759 268.822 226.27C268.701 226.781 268.51 227.258 268.25 227.7C267.999 228.142 267.652 228.497 267.21 228.766C266.768 229.026 266.265 229.156 265.702 229.156ZM264.402 227.661C264.749 228.016 265.182 228.194 265.702 228.194C266.222 228.194 266.655 228.016 267.002 227.661C267.349 227.297 267.587 226.864 267.717 226.361C267.847 225.858 267.912 225.295 267.912 224.671C267.912 224.047 267.847 223.484 267.717 222.981C267.587 222.478 267.349 222.049 267.002 221.694C266.655 221.339 266.222 221.161 265.702 221.161C265.182 221.161 264.749 221.339 264.402 221.694C264.055 222.049 263.817 222.478 263.687 222.981C263.557 223.484 263.492 224.047 263.492 224.671C263.492 225.295 263.557 225.858 263.687 226.361C263.817 226.864 264.055 227.297 264.402 227.661ZM279.548 229H278.573V228.064C278.036 228.792 277.33 229.156 276.454 229.156C275.622 229.156 274.946 228.861 274.426 228.272C273.915 227.674 273.659 226.872 273.659 225.867C273.659 224.87 273.919 224.073 274.439 223.475C274.959 222.868 275.631 222.565 276.454 222.565C277.321 222.565 278.027 222.933 278.573 223.67V222.721H279.548V229ZM276.701 228.285C277.074 228.285 277.434 228.19 277.78 227.999C278.136 227.8 278.4 227.561 278.573 227.284V224.45C278.4 224.164 278.136 223.926 277.78 223.735C277.434 223.536 277.074 223.436 276.701 223.436C276.077 223.436 275.583 223.666 275.219 224.125C274.855 224.576 274.673 225.156 274.673 225.867C274.673 226.578 274.855 227.158 275.219 227.609C275.583 228.06 276.077 228.285 276.701 228.285ZM286.753 229H285.791V224.892C285.791 224.363 285.67 223.991 285.427 223.774C285.184 223.549 284.833 223.436 284.374 223.436C284.01 223.436 283.659 223.531 283.321 223.722C282.983 223.913 282.714 224.142 282.515 224.411V229H281.54V222.721H282.515V223.631C282.758 223.336 283.083 223.085 283.49 222.877C283.897 222.669 284.322 222.565 284.764 222.565C286.09 222.565 286.753 223.241 286.753 224.593V229ZM284.894 221.798C284.686 221.798 284.5 221.737 284.335 221.616C284.179 221.486 284.058 221.347 283.971 221.2C283.893 221.053 283.793 220.918 283.672 220.797C283.559 220.667 283.434 220.602 283.295 220.602C283.113 220.602 282.961 220.697 282.84 220.888C282.727 221.07 282.671 221.347 282.671 221.72H282.086C282.086 221.2 282.194 220.78 282.411 220.459C282.636 220.138 282.948 219.978 283.347 219.978C283.555 219.978 283.737 220.043 283.893 220.173C284.058 220.294 284.179 220.429 284.257 220.576C284.344 220.723 284.443 220.862 284.556 220.992C284.677 221.113 284.807 221.174 284.946 221.174C285.128 221.174 285.275 221.083 285.388 220.901C285.509 220.71 285.57 220.429 285.57 220.056H286.155C286.155 220.576 286.042 220.996 285.817 221.317C285.6 221.638 285.293 221.798 284.894 221.798ZM293.666 228.207C293.102 228.84 292.353 229.156 291.417 229.156C290.481 229.156 289.727 228.84 289.155 228.207C288.591 227.574 288.31 226.79 288.31 225.854C288.31 224.918 288.591 224.138 289.155 223.514C289.727 222.881 290.481 222.565 291.417 222.565C292.353 222.565 293.102 222.881 293.666 223.514C294.238 224.138 294.524 224.918 294.524 225.854C294.524 226.79 294.238 227.574 293.666 228.207ZM289.896 227.583C290.268 228.051 290.775 228.285 291.417 228.285C292.058 228.285 292.565 228.051 292.938 227.583C293.31 227.106 293.497 226.53 293.497 225.854C293.497 225.178 293.31 224.606 292.938 224.138C292.565 223.67 292.058 223.436 291.417 223.436C290.775 223.436 290.268 223.67 289.896 224.138C289.523 224.606 289.337 225.178 289.337 225.854C289.337 226.53 289.523 227.106 289.896 227.583ZM298.115 229.156C297.058 229.156 296.213 228.827 295.58 228.168L296.074 227.466C296.291 227.717 296.586 227.93 296.958 228.103C297.34 228.276 297.734 228.363 298.141 228.363C298.609 228.363 298.973 228.263 299.233 228.064C299.502 227.865 299.636 227.605 299.636 227.284C299.636 227.007 299.502 226.79 299.233 226.634C298.965 226.469 298.64 226.348 298.258 226.27C297.877 226.183 297.496 226.088 297.114 225.984C296.742 225.871 296.421 225.685 296.152 225.425C295.884 225.156 295.749 224.805 295.749 224.372C295.749 223.861 295.957 223.432 296.373 223.085C296.789 222.738 297.357 222.565 298.076 222.565C299.038 222.565 299.814 222.868 300.403 223.475L299.948 224.151C299.506 223.622 298.882 223.358 298.076 223.358C297.652 223.358 297.314 223.453 297.062 223.644C296.811 223.826 296.685 224.06 296.685 224.346C296.685 224.554 296.781 224.727 296.971 224.866C297.162 225.005 297.4 225.104 297.686 225.165C297.981 225.226 298.293 225.304 298.622 225.399C298.96 225.494 299.272 225.603 299.558 225.724C299.853 225.837 300.096 226.027 300.286 226.296C300.477 226.556 300.572 226.877 300.572 227.258C300.572 227.813 300.356 228.268 299.922 228.623C299.498 228.978 298.895 229.156 298.115 229.156ZM262.943 241.207C262.38 241.84 261.63 242.156 260.694 242.156C259.758 242.156 259.004 241.84 258.432 241.207C257.869 240.574 257.587 239.79 257.587 238.854C257.587 237.918 257.869 237.138 258.432 236.514C259.004 235.881 259.758 235.565 260.694 235.565C261.63 235.565 262.38 235.881 262.943 236.514C263.515 237.138 263.801 237.918 263.801 238.854C263.801 239.79 263.515 240.574 262.943 241.207ZM259.173 240.583C259.546 241.051 260.053 241.285 260.694 241.285C261.335 241.285 261.842 241.051 262.215 240.583C262.588 240.106 262.774 239.53 262.774 238.854C262.774 238.178 262.588 237.606 262.215 237.138C261.842 236.67 261.335 236.436 260.694 236.436C260.053 236.436 259.546 236.67 259.173 237.138C258.8 237.606 258.614 238.178 258.614 238.854C258.614 239.53 258.8 240.106 259.173 240.583ZM277.309 242H276.334V237.736C276.334 236.869 275.948 236.436 275.177 236.436C274.865 236.436 274.553 236.531 274.241 236.722C273.929 236.904 273.686 237.129 273.513 237.398V242H272.538V237.736C272.538 236.869 272.152 236.436 271.381 236.436C271.077 236.436 270.77 236.531 270.458 236.722C270.154 236.913 269.912 237.142 269.73 237.411V242H268.755V235.721H269.73V236.631C269.894 236.38 270.167 236.141 270.549 235.916C270.939 235.682 271.346 235.565 271.771 235.565C272.221 235.565 272.59 235.673 272.876 235.89C273.162 236.107 273.352 236.388 273.448 236.735C273.638 236.423 273.929 236.15 274.319 235.916C274.709 235.682 275.12 235.565 275.554 235.565C276.724 235.565 277.309 236.198 277.309 237.463V242ZM284.181 232.9L281.984 234.772H281.243L283.167 232.9H284.181ZM284.779 242H283.804V241.064C283.266 241.792 282.56 242.156 281.685 242.156C280.853 242.156 280.177 241.861 279.657 241.272C279.145 240.674 278.89 239.872 278.89 238.867C278.89 237.87 279.15 237.073 279.67 236.475C280.19 235.868 280.861 235.565 281.685 235.565C282.551 235.565 283.258 235.933 283.804 236.67V235.721H284.779V242ZM281.932 241.285C282.304 241.285 282.664 241.19 283.011 240.999C283.366 240.8 283.63 240.561 283.804 240.284V237.45C283.63 237.164 283.366 236.926 283.011 236.735C282.664 236.536 282.304 236.436 281.932 236.436C281.308 236.436 280.814 236.666 280.45 237.125C280.086 237.576 279.904 238.156 279.904 238.867C279.904 239.578 280.086 240.158 280.45 240.609C280.814 241.06 281.308 241.285 281.932 241.285ZM288.733 242.156C287.676 242.156 286.831 241.827 286.198 241.168L286.692 240.466C286.909 240.717 287.204 240.93 287.576 241.103C287.958 241.276 288.352 241.363 288.759 241.363C289.227 241.363 289.591 241.263 289.851 241.064C290.12 240.865 290.254 240.605 290.254 240.284C290.254 240.007 290.12 239.79 289.851 239.634C289.583 239.469 289.258 239.348 288.876 239.27C288.495 239.183 288.114 239.088 287.732 238.984C287.36 238.871 287.039 238.685 286.77 238.425C286.502 238.156 286.367 237.805 286.367 237.372C286.367 236.861 286.575 236.432 286.991 236.085C287.407 235.738 287.975 235.565 288.694 235.565C289.656 235.565 290.432 235.868 291.021 236.475L290.566 237.151C290.124 236.622 289.5 236.358 288.694 236.358C288.27 236.358 287.932 236.453 287.68 236.644C287.429 236.826 287.303 237.06 287.303 237.346C287.303 237.554 287.399 237.727 287.589 237.866C287.78 238.005 288.018 238.104 288.304 238.165C288.599 238.226 288.911 238.304 289.24 238.399C289.578 238.494 289.89 238.603 290.176 238.724C290.471 238.837 290.714 239.027 290.904 239.296C291.095 239.556 291.19 239.877 291.19 240.258C291.19 240.813 290.974 241.268 290.54 241.623C290.116 241.978 289.513 242.156 288.733 242.156ZM292.618 244.587L292.02 244.132C292.48 243.239 292.822 242.39 293.047 241.584C293.273 240.769 293.385 239.855 293.385 238.841C293.385 237.818 293.273 236.904 293.047 236.098C292.822 235.292 292.48 234.438 292.02 233.537L292.618 233.095C293.84 234.776 294.451 236.692 294.451 238.841C294.451 240.99 293.84 242.906 292.618 244.587Z" fill="#1A1A1A"/>
</svg>
