<svg width="306" height="219" viewBox="0 0 306 219" fill="none" xmlns="http://www.w3.org/2000/svg">
<path opacity="0.4" d="M26 13L26 184L306 184" stroke="#1A1A1A"/>
<path opacity="0.8" d="M11.978 187.156C11.406 187.156 10.899 187.026 10.457 186.766C10.0237 186.497 9.677 186.142 9.417 185.7C9.16567 185.258 8.975 184.781 8.845 184.27C8.72367 183.759 8.663 183.226 8.663 182.671C8.663 182.116 8.72367 181.583 8.845 181.072C8.975 180.561 9.16567 180.088 9.417 179.655C9.677 179.213 10.0237 178.862 10.457 178.602C10.899 178.333 11.406 178.199 11.978 178.199C12.5413 178.199 13.044 178.333 13.486 178.602C13.928 178.862 14.2747 179.213 14.526 179.655C14.786 180.088 14.9767 180.561 15.098 181.072C15.228 181.583 15.293 182.116 15.293 182.671C15.293 183.226 15.228 183.759 15.098 184.27C14.9767 184.781 14.786 185.258 14.526 185.7C14.2747 186.142 13.928 186.497 13.486 186.766C13.044 187.026 12.5413 187.156 11.978 187.156ZM10.678 185.661C11.0247 186.016 11.458 186.194 11.978 186.194C12.498 186.194 12.9313 186.016 13.278 185.661C13.6247 185.297 13.863 184.864 13.993 184.361C14.123 183.858 14.188 183.295 14.188 182.671C14.188 182.047 14.123 181.484 13.993 180.981C13.863 180.478 13.6247 180.049 13.278 179.694C12.9313 179.339 12.498 179.161 11.978 179.161C11.458 179.161 11.0247 179.339 10.678 179.694C10.3313 180.049 10.093 180.478 9.963 180.981C9.833 181.484 9.768 182.047 9.768 182.671C9.768 183.295 9.833 183.858 9.963 184.361C10.093 184.864 10.3313 185.297 10.678 185.661Z" fill="#1A1A1A"/>
<path opacity="0.8" d="M6.393 151H5.314V143.746L3.923 145.228L3.273 144.565L5.444 142.329H6.393V151ZM11.3833 151.156C10.8113 151.156 10.3043 151.026 9.86227 150.766C9.42894 150.497 9.08227 150.142 8.82227 149.7C8.57094 149.258 8.38027 148.781 8.25027 148.27C8.12894 147.759 8.06827 147.226 8.06827 146.671C8.06827 146.116 8.12894 145.583 8.25027 145.072C8.38027 144.561 8.57094 144.088 8.82227 143.655C9.08227 143.213 9.42894 142.862 9.86227 142.602C10.3043 142.333 10.8113 142.199 11.3833 142.199C11.9466 142.199 12.4493 142.333 12.8913 142.602C13.3333 142.862 13.6799 143.213 13.9313 143.655C14.1913 144.088 14.3819 144.561 14.5033 145.072C14.6333 145.583 14.6983 146.116 14.6983 146.671C14.6983 147.226 14.6333 147.759 14.5033 148.27C14.3819 148.781 14.1913 149.258 13.9313 149.7C13.6799 150.142 13.3333 150.497 12.8913 150.766C12.4493 151.026 11.9466 151.156 11.3833 151.156ZM10.0833 149.661C10.4299 150.016 10.8633 150.194 11.3833 150.194C11.9033 150.194 12.3366 150.016 12.6833 149.661C13.0299 149.297 13.2683 148.864 13.3983 148.361C13.5283 147.858 13.5933 147.295 13.5933 146.671C13.5933 146.047 13.5283 145.484 13.3983 144.981C13.2683 144.478 13.0299 144.049 12.6833 143.694C12.3366 143.339 11.9033 143.161 11.3833 143.161C10.8633 143.161 10.4299 143.339 10.0833 143.694C9.73661 144.049 9.49827 144.478 9.36827 144.981C9.23827 145.484 9.17327 146.047 9.17327 146.671C9.17327 147.295 9.23827 147.858 9.36827 148.361C9.49827 148.864 9.73661 149.297 10.0833 149.661Z" fill="#1A1A1A"/>
<path opacity="0.8" d="M6.656 115H0.702V114.129C2.47867 112.742 3.72667 111.672 4.446 110.918C5.16533 110.164 5.525 109.44 5.525 108.747C5.525 108.227 5.343 107.833 4.979 107.564C4.62367 107.295 4.199 107.161 3.705 107.161C2.70833 107.161 1.924 107.525 1.352 108.253L0.689 107.564C1.01833 107.131 1.44733 106.797 1.976 106.563C2.51333 106.32 3.08967 106.199 3.705 106.199C4.49367 106.199 5.174 106.42 5.746 106.862C6.32667 107.304 6.617 107.932 6.617 108.747C6.617 109.553 6.27033 110.359 5.577 111.165C4.88367 111.962 3.82633 112.92 2.405 114.038H6.656V115ZM11.6206 115.156C11.0486 115.156 10.5416 115.026 10.0996 114.766C9.66624 114.497 9.31958 114.142 9.05958 113.7C8.80824 113.258 8.61758 112.781 8.48758 112.27C8.36624 111.759 8.30558 111.226 8.30558 110.671C8.30558 110.116 8.36624 109.583 8.48758 109.072C8.61758 108.561 8.80824 108.088 9.05958 107.655C9.31958 107.213 9.66624 106.862 10.0996 106.602C10.5416 106.333 11.0486 106.199 11.6206 106.199C12.1839 106.199 12.6866 106.333 13.1286 106.602C13.5706 106.862 13.9172 107.213 14.1686 107.655C14.4286 108.088 14.6192 108.561 14.7406 109.072C14.8706 109.583 14.9356 110.116 14.9356 110.671C14.9356 111.226 14.8706 111.759 14.7406 112.27C14.6192 112.781 14.4286 113.258 14.1686 113.7C13.9172 114.142 13.5706 114.497 13.1286 114.766C12.6866 115.026 12.1839 115.156 11.6206 115.156ZM10.3206 113.661C10.6672 114.016 11.1006 114.194 11.6206 114.194C12.1406 114.194 12.5739 114.016 12.9206 113.661C13.2672 113.297 13.5056 112.864 13.6356 112.361C13.7656 111.858 13.8306 111.295 13.8306 110.671C13.8306 110.047 13.7656 109.484 13.6356 108.981C13.5056 108.478 13.2672 108.049 12.9206 107.694C12.5739 107.339 12.1406 107.161 11.6206 107.161C11.1006 107.161 10.6672 107.339 10.3206 107.694C9.97391 108.049 9.73558 108.478 9.60558 108.981C9.47558 109.484 9.41058 110.047 9.41058 110.671C9.41058 111.295 9.47558 111.858 9.60558 112.361C9.73558 112.864 9.97391 113.297 10.3206 113.661Z" fill="#1A1A1A"/>
<path opacity="0.8" d="M3.458 79.156C2.76467 79.156 2.14933 79.0217 1.612 78.753C1.07467 78.4843 0.663 78.142 0.377 77.726L1.014 77.05C1.274 77.3967 1.61633 77.674 2.041 77.882C2.46567 78.09 2.92933 78.194 3.432 78.194C4.056 78.194 4.55 78.0467 4.914 77.752C5.278 77.4573 5.46 77.063 5.46 76.569C5.46 76.049 5.265 75.6633 4.875 75.412C4.49367 75.1607 3.96933 75.035 3.302 75.035C2.79067 75.035 2.49167 75.0393 2.405 75.048V74.06C2.50033 74.0687 2.79933 74.073 3.302 74.073C3.89133 74.073 4.37233 73.956 4.745 73.722C5.12633 73.4793 5.317 73.1197 5.317 72.643C5.317 72.1837 5.13067 71.824 4.758 71.564C4.394 71.2953 3.93467 71.161 3.38 71.161C2.50467 71.161 1.742 71.512 1.092 72.214L0.494 71.538C1.222 70.6453 2.21433 70.199 3.471 70.199C4.329 70.199 5.031 70.407 5.577 70.823C6.123 71.2303 6.396 71.7893 6.396 72.5C6.396 73.072 6.20533 73.5313 5.824 73.878C5.44267 74.2247 5.01367 74.437 4.537 74.515C5.01367 74.567 5.46433 74.7793 5.889 75.152C6.32233 75.5247 6.539 76.0273 6.539 76.66C6.539 77.3967 6.25733 77.999 5.694 78.467C5.13933 78.9263 4.394 79.156 3.458 79.156ZM11.2143 79.156C10.6423 79.156 10.1353 79.026 9.69333 78.766C9.25999 78.4973 8.91333 78.142 8.65333 77.7C8.40199 77.258 8.21133 76.7813 8.08133 76.27C7.95999 75.7587 7.89933 75.2257 7.89933 74.671C7.89933 74.1163 7.95999 73.5833 8.08133 73.072C8.21133 72.5607 8.40199 72.0883 8.65333 71.655C8.91333 71.213 9.25999 70.862 9.69333 70.602C10.1353 70.3333 10.6423 70.199 11.2143 70.199C11.7777 70.199 12.2803 70.3333 12.7223 70.602C13.1643 70.862 13.511 71.213 13.7623 71.655C14.0223 72.0883 14.213 72.5607 14.3343 73.072C14.4643 73.5833 14.5293 74.1163 14.5293 74.671C14.5293 75.2257 14.4643 75.7587 14.3343 76.27C14.213 76.7813 14.0223 77.258 13.7623 77.7C13.511 78.142 13.1643 78.4973 12.7223 78.766C12.2803 79.026 11.7777 79.156 11.2143 79.156ZM9.91433 77.661C10.261 78.0163 10.6943 78.194 11.2143 78.194C11.7343 78.194 12.1677 78.0163 12.5143 77.661C12.861 77.297 13.0993 76.8637 13.2293 76.361C13.3593 75.8583 13.4243 75.295 13.4243 74.671C13.4243 74.047 13.3593 73.4837 13.2293 72.981C13.0993 72.4783 12.861 72.0493 12.5143 71.694C12.1677 71.3387 11.7343 71.161 11.2143 71.161C10.6943 71.161 10.261 71.3387 9.91433 71.694C9.56766 72.0493 9.32933 72.4783 9.19933 72.981C9.06933 73.4837 9.00433 74.047 9.00433 74.671C9.00433 75.295 9.06933 75.8583 9.19933 76.361C9.32933 76.8637 9.56766 77.297 9.91433 77.661Z" fill="#1A1A1A"/>
<path opacity="0.8" d="M5.616 43H4.537V40.803H0.416V39.906L4.134 34.329H5.616V39.854H6.838V40.803H5.616V43ZM4.537 39.854V35.33L1.495 39.854H4.537ZM11.227 43.156C10.655 43.156 10.148 43.026 9.70602 42.766C9.27269 42.4973 8.92602 42.142 8.66602 41.7C8.41469 41.258 8.22402 40.7813 8.09402 40.27C7.97269 39.7587 7.91202 39.2257 7.91202 38.671C7.91202 38.1163 7.97269 37.5833 8.09402 37.072C8.22402 36.5607 8.41469 36.0883 8.66602 35.655C8.92602 35.213 9.27269 34.862 9.70602 34.602C10.148 34.3333 10.655 34.199 11.227 34.199C11.7904 34.199 12.293 34.3333 12.735 34.602C13.177 34.862 13.5237 35.213 13.775 35.655C14.035 36.0883 14.2257 36.5607 14.347 37.072C14.477 37.5833 14.542 38.1163 14.542 38.671C14.542 39.2257 14.477 39.7587 14.347 40.27C14.2257 40.7813 14.035 41.258 13.775 41.7C13.5237 42.142 13.177 42.4973 12.735 42.766C12.293 43.026 11.7904 43.156 11.227 43.156ZM9.92702 41.661C10.2737 42.0163 10.707 42.194 11.227 42.194C11.747 42.194 12.1804 42.0163 12.527 41.661C12.8737 41.297 13.112 40.8637 13.242 40.361C13.372 39.8583 13.437 39.295 13.437 38.671C13.437 38.047 13.372 37.4837 13.242 36.981C13.112 36.4783 12.8737 36.0493 12.527 35.694C12.1804 35.3387 11.747 35.161 11.227 35.161C10.707 35.161 10.2737 35.3387 9.92702 35.694C9.58036 36.0493 9.34202 36.4783 9.21202 36.981C9.08202 37.4837 9.01702 38.047 9.01702 38.671C9.01702 39.295 9.08202 39.8583 9.21202 40.361C9.34202 40.8637 9.58036 41.297 9.92702 41.661Z" fill="#1A1A1A"/>
<g opacity="0.4">
<path d="M26 40L306 40L26 40Z" fill="#1A1A1A"/>
<path d="M26 40L306 40" stroke="#1A1A1A" stroke-width="1.06667" stroke-dasharray="4 4"/>
</g>
<g opacity="0.4">
<path d="M26 76L306 76L26 76Z" fill="#1A1A1A"/>
<path d="M26 76L306 76" stroke="#1A1A1A" stroke-width="1.06667" stroke-dasharray="4 4"/>
</g>
<g opacity="0.4">
<path d="M26 112L306 112L26 112Z" fill="#1A1A1A"/>
<path d="M26 112L306 112" stroke="#1A1A1A" stroke-width="1.06667" stroke-dasharray="4 4"/>
</g>
<g opacity="0.4">
<path d="M26 148L306 148L26 148Z" fill="#1A1A1A"/>
<path d="M26 148L306 148" stroke="#1A1A1A" stroke-width="1.06667" stroke-dasharray="4 4"/>
</g>
<path d="M256.944 125H255.072V116.744L253.328 118.568L252.24 117.432L255.312 114.328H256.944V125ZM262.494 125.192C261.598 125.192 260.798 125.032 260.094 124.712C259.401 124.392 258.857 123.976 258.462 123.464L259.486 122.232C259.827 122.637 260.259 122.957 260.782 123.192C261.315 123.416 261.865 123.528 262.43 123.528C263.123 123.528 263.667 123.379 264.062 123.08C264.457 122.781 264.654 122.387 264.654 121.896C264.654 120.883 263.865 120.376 262.286 120.376C261.689 120.376 261.283 120.387 261.07 120.408V118.712C261.187 118.723 261.593 118.728 262.286 118.728C262.947 118.728 263.481 118.611 263.886 118.376C264.291 118.141 264.494 117.789 264.494 117.32C264.494 116.851 264.286 116.488 263.87 116.232C263.465 115.965 262.953 115.832 262.334 115.832C261.257 115.832 260.334 116.227 259.566 117.016L258.606 115.848C259.566 114.728 260.867 114.168 262.51 114.168C263.673 114.168 264.601 114.424 265.294 114.936C265.998 115.448 266.35 116.147 266.35 117.032C266.35 117.704 266.115 118.259 265.646 118.696C265.187 119.123 264.654 119.384 264.046 119.48C264.654 119.544 265.219 119.805 265.742 120.264C266.265 120.723 266.526 121.325 266.526 122.072C266.526 123 266.158 123.752 265.422 124.328C264.697 124.904 263.721 125.192 262.494 125.192ZM270.434 124.392C270.434 124.936 270.295 125.448 270.018 125.928C269.751 126.408 269.394 126.808 268.946 127.128L268.178 126.504C268.444 126.344 268.69 126.12 268.914 125.832C269.148 125.544 269.287 125.267 269.33 125C269.266 125.032 269.175 125.048 269.058 125.048C268.791 125.048 268.567 124.952 268.386 124.76C268.204 124.568 268.114 124.323 268.114 124.024C268.114 123.725 268.22 123.469 268.434 123.256C268.647 123.043 268.903 122.936 269.202 122.936C269.543 122.936 269.831 123.069 270.066 123.336C270.311 123.592 270.434 123.944 270.434 124.392ZM274.062 125H271.999L276.031 115.976H270.495V114.328H278.191V115.624L274.062 125ZM281.682 119.464C280.903 119.464 280.263 119.213 279.762 118.712C279.271 118.211 279.026 117.581 279.026 116.824C279.026 116.067 279.271 115.437 279.762 114.936C280.263 114.424 280.903 114.168 281.682 114.168C282.471 114.168 283.111 114.419 283.602 114.92C284.093 115.421 284.338 116.056 284.338 116.824C284.338 117.581 284.093 118.211 283.602 118.712C283.111 119.213 282.471 119.464 281.682 119.464ZM281.714 125H280.642L287.458 114.328H288.546L281.714 125ZM289.33 124.44C288.839 124.941 288.205 125.192 287.426 125.192C286.647 125.192 286.007 124.941 285.506 124.44C285.015 123.939 284.77 123.309 284.77 122.552C284.77 121.795 285.015 121.165 285.506 120.664C286.007 120.152 286.647 119.896 287.426 119.896C288.205 119.896 288.839 120.152 289.33 120.664C289.831 121.165 290.082 121.795 290.082 122.552C290.082 123.309 289.831 123.939 289.33 124.44ZM281.682 118.392C282.098 118.392 282.439 118.248 282.706 117.96C282.973 117.661 283.106 117.283 283.106 116.824C283.106 116.355 282.973 115.971 282.706 115.672C282.439 115.373 282.098 115.224 281.682 115.224C281.277 115.224 280.941 115.373 280.674 115.672C280.407 115.971 280.274 116.355 280.274 116.824C280.274 117.283 280.407 117.661 280.674 117.96C280.941 118.248 281.277 118.392 281.682 118.392ZM286.402 123.688C286.669 123.976 287.01 124.12 287.426 124.12C287.842 124.12 288.183 123.976 288.45 123.688C288.717 123.389 288.85 123.011 288.85 122.552C288.85 122.083 288.717 121.699 288.45 121.4C288.183 121.101 287.842 120.952 287.426 120.952C287.01 120.952 286.669 121.101 286.402 121.4C286.135 121.699 286.002 122.083 286.002 122.552C286.002 123.011 286.135 123.389 286.402 123.688Z" fill="#1A1A1A"/>
<path d="M296 184.066L296 135L246 135L246 184.066L296 184.066Z" fill="#41A5B4"/>
<path d="M185.944 121H184.072V112.744L182.328 114.568L181.24 113.432L184.312 110.328H185.944V121ZM194.486 121H192.614V118.584H187.526V117.08L191.91 110.328H194.486V116.936H195.91V118.584H194.486V121ZM192.614 116.936V112.008L189.366 116.936H192.614ZM199.527 120.392C199.527 120.936 199.389 121.448 199.111 121.928C198.845 122.408 198.487 122.808 198.039 123.128L197.271 122.504C197.538 122.344 197.783 122.12 198.007 121.832C198.242 121.544 198.381 121.267 198.423 121C198.359 121.032 198.269 121.048 198.151 121.048C197.885 121.048 197.661 120.952 197.479 120.76C197.298 120.568 197.207 120.323 197.207 120.024C197.207 119.725 197.314 119.469 197.527 119.256C197.741 119.043 197.997 118.936 198.295 118.936C198.637 118.936 198.925 119.069 199.159 119.336C199.405 119.592 199.527 119.944 199.527 120.392ZM207.961 120.408C207.172 120.931 206.201 121.192 205.049 121.192C203.897 121.192 202.927 120.931 202.137 120.408C201.348 119.885 200.953 119.165 200.953 118.248C200.953 117.608 201.177 117.048 201.625 116.568C202.084 116.088 202.66 115.731 203.353 115.496C202.692 115.283 202.153 114.968 201.737 114.552C201.332 114.125 201.129 113.597 201.129 112.968C201.129 112.051 201.519 111.357 202.297 110.888C203.076 110.408 203.993 110.168 205.049 110.168C206.105 110.168 207.023 110.408 207.801 110.888C208.58 111.357 208.969 112.051 208.969 112.968C208.969 113.597 208.761 114.125 208.345 114.552C207.94 114.968 207.407 115.283 206.745 115.496C207.439 115.731 208.009 116.088 208.457 116.568C208.916 117.048 209.145 117.608 209.145 118.248C209.145 119.165 208.751 119.885 207.961 120.408ZM205.049 114.744C205.252 114.712 205.449 114.664 205.641 114.6C205.844 114.536 206.057 114.451 206.281 114.344C206.516 114.227 206.703 114.077 206.841 113.896C206.991 113.704 207.065 113.491 207.065 113.256C207.065 112.808 206.879 112.461 206.505 112.216C206.132 111.96 205.647 111.832 205.049 111.832C204.452 111.832 203.967 111.96 203.593 112.216C203.22 112.461 203.033 112.808 203.033 113.256C203.033 113.491 203.103 113.704 203.241 113.896C203.391 114.077 203.577 114.227 203.801 114.344C204.036 114.451 204.249 114.536 204.441 114.6C204.644 114.664 204.847 114.712 205.049 114.744ZM205.049 119.528C205.668 119.528 206.185 119.389 206.601 119.112C207.028 118.835 207.241 118.467 207.241 118.008C207.241 117.528 206.996 117.149 206.505 116.872C206.025 116.584 205.54 116.403 205.049 116.328C204.559 116.403 204.068 116.584 203.577 116.872C203.097 117.149 202.857 117.528 202.857 118.008C202.857 118.467 203.065 118.835 203.481 119.112C203.897 119.389 204.42 119.528 205.049 119.528ZM212.917 115.464C212.138 115.464 211.498 115.213 210.997 114.712C210.506 114.211 210.261 113.581 210.261 112.824C210.261 112.067 210.506 111.437 210.997 110.936C211.498 110.424 212.138 110.168 212.917 110.168C213.706 110.168 214.346 110.419 214.837 110.92C215.327 111.421 215.573 112.056 215.573 112.824C215.573 113.581 215.327 114.211 214.837 114.712C214.346 115.213 213.706 115.464 212.917 115.464ZM212.949 121H211.877L218.693 110.328H219.781L212.949 121ZM220.565 120.44C220.074 120.941 219.439 121.192 218.661 121.192C217.882 121.192 217.242 120.941 216.741 120.44C216.25 119.939 216.005 119.309 216.005 118.552C216.005 117.795 216.25 117.165 216.741 116.664C217.242 116.152 217.882 115.896 218.661 115.896C219.439 115.896 220.074 116.152 220.565 116.664C221.066 117.165 221.317 117.795 221.317 118.552C221.317 119.309 221.066 119.939 220.565 120.44ZM212.917 114.392C213.333 114.392 213.674 114.248 213.941 113.96C214.207 113.661 214.341 113.283 214.341 112.824C214.341 112.355 214.207 111.971 213.941 111.672C213.674 111.373 213.333 111.224 212.917 111.224C212.511 111.224 212.175 111.373 211.909 111.672C211.642 111.971 211.509 112.355 211.509 112.824C211.509 113.283 211.642 113.661 211.909 113.96C212.175 114.248 212.511 114.392 212.917 114.392ZM217.637 119.688C217.903 119.976 218.245 120.12 218.661 120.12C219.077 120.12 219.418 119.976 219.685 119.688C219.951 119.389 220.085 119.011 220.085 118.552C220.085 118.083 219.951 117.699 219.685 117.4C219.418 117.101 219.077 116.952 218.661 116.952C218.245 116.952 217.903 117.101 217.637 117.4C217.37 117.699 217.237 118.083 217.237 118.552C217.237 119.011 217.37 119.389 217.637 119.688Z" fill="#1A1A1A"/>
<path d="M226 184.107L226 131.101L176 131.101L176 184.107L226 184.107Z" fill="#1D5556"/>
<path d="M116.408 11H114.536V8.584L109.448 8.584V7.08L113.832 0.327999L116.408 0.327999V6.936L117.832 6.936V8.584H116.408V11ZM114.536 6.936V2.008L111.288 6.936L114.536 6.936ZM123.145 11.192C121.449 11.192 120.132 10.6427 119.193 9.544L120.265 8.248C120.991 9.10133 121.945 9.528 123.129 9.528C123.791 9.528 124.319 9.352 124.713 9C125.119 8.63733 125.321 8.184 125.321 7.64C125.321 7.07467 125.124 6.62133 124.729 6.28C124.345 5.928 123.828 5.752 123.177 5.752C122.271 5.752 121.492 6.056 120.841 6.664L119.513 6.28V0.327999L126.505 0.327999V1.976L121.385 1.976V5.048C122.036 4.44 122.841 4.136 123.801 4.136C124.751 4.136 125.556 4.44533 126.217 5.064C126.889 5.68267 127.225 6.52 127.225 7.576C127.225 8.664 126.847 9.53867 126.089 10.2C125.332 10.8613 124.351 11.192 123.145 11.192ZM131.043 10.392C131.043 10.936 130.904 11.448 130.627 11.928C130.36 12.408 130.003 12.808 129.555 13.128L128.787 12.504C129.054 12.344 129.299 12.12 129.523 11.832C129.758 11.544 129.896 11.2667 129.939 11C129.875 11.032 129.784 11.048 129.667 11.048C129.4 11.048 129.176 10.952 128.995 10.76C128.814 10.568 128.723 10.3227 128.723 10.024C128.723 9.72533 128.83 9.46933 129.043 9.256C129.256 9.04267 129.512 8.936 129.811 8.936C130.152 8.936 130.44 9.06933 130.675 9.336C130.92 9.592 131.043 9.944 131.043 10.392ZM136.661 11.192C134.965 11.192 133.648 10.6427 132.709 9.544L133.781 8.248C134.506 9.10133 135.461 9.528 136.645 9.528C137.306 9.528 137.834 9.352 138.229 9C138.634 8.63733 138.837 8.184 138.837 7.64C138.837 7.07467 138.64 6.62133 138.245 6.28C137.861 5.928 137.344 5.752 136.693 5.752C135.786 5.752 135.008 6.056 134.357 6.664L133.029 6.28V0.327999L140.021 0.327999V1.976L134.901 1.976V5.048C135.552 4.44 136.357 4.136 137.317 4.136C138.266 4.136 139.072 4.44533 139.733 5.064C140.405 5.68267 140.741 6.52 140.741 7.576C140.741 8.664 140.362 9.53867 139.605 10.2C138.848 10.8613 137.866 11.192 136.661 11.192ZM144.495 5.464C143.716 5.464 143.076 5.21333 142.575 4.712C142.084 4.21067 141.839 3.58133 141.839 2.824C141.839 2.06667 142.084 1.43733 142.575 0.936C143.076 0.423999 143.716 0.167999 144.495 0.167999C145.284 0.167999 145.924 0.418666 146.415 0.919999C146.905 1.42133 147.151 2.056 147.151 2.824C147.151 3.58133 146.905 4.21067 146.415 4.712C145.924 5.21333 145.284 5.464 144.495 5.464ZM144.527 11H143.455L150.271 0.327999L151.359 0.327999L144.527 11ZM152.143 10.44C151.652 10.9413 151.017 11.192 150.239 11.192C149.46 11.192 148.82 10.9413 148.319 10.44C147.828 9.93867 147.583 9.30933 147.583 8.552C147.583 7.79467 147.828 7.16533 148.319 6.664C148.82 6.152 149.46 5.896 150.239 5.896C151.017 5.896 151.652 6.152 152.143 6.664C152.644 7.16533 152.895 7.79467 152.895 8.552C152.895 9.30933 152.644 9.93867 152.143 10.44ZM144.495 4.392C144.911 4.392 145.252 4.248 145.519 3.96C145.785 3.66133 145.919 3.28267 145.919 2.824C145.919 2.35467 145.785 1.97067 145.519 1.672C145.252 1.37333 144.911 1.224 144.495 1.224C144.089 1.224 143.753 1.37333 143.487 1.672C143.22 1.97067 143.087 2.35467 143.087 2.824C143.087 3.28267 143.22 3.66133 143.487 3.96C143.753 4.248 144.089 4.392 144.495 4.392ZM149.215 9.688C149.481 9.976 149.823 10.12 150.239 10.12C150.655 10.12 150.996 9.976 151.263 9.688C151.529 9.38933 151.663 9.01067 151.663 8.552C151.663 8.08267 151.529 7.69867 151.263 7.4C150.996 7.10133 150.655 6.952 150.239 6.952C149.823 6.952 149.481 7.10133 149.215 7.4C148.948 7.69867 148.815 8.08267 148.815 8.552C148.815 9.01067 148.948 9.38933 149.215 9.688Z" fill="#1A1A1A"/>
<path d="M156 184.107L156 21.1488L106 21.1488L106 184.107L156 184.107Z" fill="#B6174B"/>
<path d="M47.528 82H39.8V80.512C42.0507 78.8053 43.576 77.552 44.376 76.752C45.176 75.952 45.576 75.184 45.576 74.448C45.576 73.9253 45.384 73.5253 45 73.248C44.616 72.9707 44.1573 72.832 43.624 72.832C42.4613 72.832 41.5013 73.2533 40.744 74.096L39.656 72.88C40.1147 72.3253 40.6907 71.904 41.384 71.616C42.088 71.3173 42.8293 71.168 43.608 71.168C44.696 71.168 45.608 71.4613 46.344 72.048C47.0907 72.624 47.464 73.424 47.464 74.448C47.464 75.376 47.08 76.2933 46.312 77.2C45.5547 78.1067 44.3867 79.1573 42.808 80.352H47.528V82ZM53.3796 82.192C51.6836 82.192 50.3663 81.6427 49.4276 80.544L50.4996 79.248C51.225 80.1013 52.1796 80.528 53.3636 80.528C54.025 80.528 54.553 80.352 54.9476 80C55.353 79.6373 55.5556 79.184 55.5556 78.64C55.5556 78.0747 55.3583 77.6213 54.9636 77.28C54.5796 76.928 54.0623 76.752 53.4116 76.752C52.505 76.752 51.7263 77.056 51.0756 77.664L49.7476 77.28V71.328H56.7396V72.976H51.6196V76.048C52.2703 75.44 53.0756 75.136 54.0356 75.136C54.985 75.136 55.7903 75.4453 56.4516 76.064C57.1236 76.6827 57.4596 77.52 57.4596 78.576C57.4596 79.664 57.081 80.5387 56.3236 81.2C55.5663 81.8613 54.585 82.192 53.3796 82.192ZM61.2774 81.392C61.2774 81.936 61.1387 82.448 60.8614 82.928C60.5947 83.408 60.2374 83.808 59.7894 84.128L59.0214 83.504C59.288 83.344 59.5334 83.12 59.7574 82.832C59.992 82.544 60.1307 82.2667 60.1734 82C60.1094 82.032 60.0187 82.048 59.9014 82.048C59.6347 82.048 59.4107 81.952 59.2294 81.76C59.048 81.568 58.9574 81.3227 58.9574 81.024C58.9574 80.7253 59.064 80.4693 59.2774 80.256C59.4907 80.0427 59.7467 79.936 60.0454 79.936C60.3867 79.936 60.6747 80.0693 60.9094 80.336C61.1547 80.592 61.2774 80.944 61.2774 81.392ZM69.7113 81.408C68.9219 81.9307 67.9513 82.192 66.7993 82.192C65.6473 82.192 64.6766 81.9307 63.8873 81.408C63.0979 80.8853 62.7033 80.1653 62.7033 79.248C62.7033 78.608 62.9273 78.048 63.3753 77.568C63.8339 77.088 64.4099 76.7307 65.1033 76.496C64.4419 76.2827 63.9033 75.968 63.4873 75.552C63.0819 75.1253 62.8793 74.5973 62.8793 73.968C62.8793 73.0507 63.2686 72.3573 64.0473 71.888C64.8259 71.408 65.7433 71.168 66.7993 71.168C67.8553 71.168 68.7726 71.408 69.5513 71.888C70.3299 72.3573 70.7193 73.0507 70.7193 73.968C70.7193 74.5973 70.5113 75.1253 70.0953 75.552C69.6899 75.968 69.1566 76.2827 68.4953 76.496C69.1886 76.7307 69.7593 77.088 70.2073 77.568C70.6659 78.048 70.8953 78.608 70.8953 79.248C70.8953 80.1653 70.5006 80.8853 69.7113 81.408ZM66.7993 75.744C67.0019 75.712 67.1993 75.664 67.3913 75.6C67.5939 75.536 67.8073 75.4507 68.0313 75.344C68.2659 75.2267 68.4526 75.0773 68.5913 74.896C68.7406 74.704 68.8153 74.4907 68.8153 74.256C68.8153 73.808 68.6286 73.4613 68.2553 73.216C67.8819 72.96 67.3966 72.832 66.7993 72.832C66.2019 72.832 65.7166 72.96 65.3433 73.216C64.9699 73.4613 64.7833 73.808 64.7833 74.256C64.7833 74.4907 64.8526 74.704 64.9913 74.896C65.1406 75.0773 65.3273 75.2267 65.5513 75.344C65.7859 75.4507 65.9993 75.536 66.1913 75.6C66.3939 75.664 66.5966 75.712 66.7993 75.744ZM66.7993 80.528C67.4179 80.528 67.9353 80.3893 68.3513 80.112C68.7779 79.8347 68.9913 79.4667 68.9913 79.008C68.9913 78.528 68.7459 78.1493 68.2553 77.872C67.7753 77.584 67.2899 77.4027 66.7993 77.328C66.3086 77.4027 65.8179 77.584 65.3273 77.872C64.8473 78.1493 64.6073 78.528 64.6073 79.008C64.6073 79.4667 64.8153 79.8347 65.2313 80.112C65.6473 80.3893 66.1699 80.528 66.7993 80.528ZM74.6665 76.464C73.8878 76.464 73.2478 76.2133 72.7465 75.712C72.2558 75.2107 72.0105 74.5813 72.0105 73.824C72.0105 73.0667 72.2558 72.4373 72.7465 71.936C73.2478 71.424 73.8878 71.168 74.6665 71.168C75.4558 71.168 76.0958 71.4187 76.5865 71.92C77.0772 72.4213 77.3225 73.056 77.3225 73.824C77.3225 74.5813 77.0772 75.2107 76.5865 75.712C76.0958 76.2133 75.4558 76.464 74.6665 76.464ZM74.6985 82H73.6265L80.4425 71.328H81.5305L74.6985 82ZM82.3145 81.44C81.8238 81.9413 81.1892 82.192 80.4105 82.192C79.6318 82.192 78.9918 81.9413 78.4905 81.44C77.9998 80.9387 77.7545 80.3093 77.7545 79.552C77.7545 78.7947 77.9998 78.1653 78.4905 77.664C78.9918 77.152 79.6318 76.896 80.4105 76.896C81.1892 76.896 81.8238 77.152 82.3145 77.664C82.8158 78.1653 83.0665 78.7947 83.0665 79.552C83.0665 80.3093 82.8158 80.9387 82.3145 81.44ZM74.6665 75.392C75.0825 75.392 75.4238 75.248 75.6905 74.96C75.9572 74.6613 76.0905 74.2827 76.0905 73.824C76.0905 73.3547 75.9572 72.9707 75.6905 72.672C75.4238 72.3733 75.0825 72.224 74.6665 72.224C74.2612 72.224 73.9252 72.3733 73.6585 72.672C73.3918 72.9707 73.2585 73.3547 73.2585 73.824C73.2585 74.2827 73.3918 74.6613 73.6585 74.96C73.9252 75.248 74.2612 75.392 74.6665 75.392ZM79.3865 80.688C79.6532 80.976 79.9945 81.12 80.4105 81.12C80.8265 81.12 81.1678 80.976 81.4345 80.688C81.7012 80.3893 81.8345 80.0107 81.8345 79.552C81.8345 79.0827 81.7012 78.6987 81.4345 78.4C81.1678 78.1013 80.8265 77.952 80.4105 77.952C79.9945 77.952 79.6532 78.1013 79.3865 78.4C79.1198 78.6987 78.9865 79.0827 78.9865 79.552C78.9865 80.0107 79.1198 80.3893 79.3865 80.688Z" fill="#1A1A1A"/>
<path d="M86 184.107L86 91.7045L36 91.7045L36 184.107L86 184.107Z" fill="#698F3F"/>
<path d="M256.449 203H255.37V195.707L252.432 203H251.99L249.039 195.707V203H247.96V194.329H249.507L252.211 201.011L254.902 194.329H256.449V203ZM261.28 203.156C260.335 203.156 259.564 202.853 258.966 202.246C258.368 201.631 258.069 200.833 258.069 199.854C258.069 198.935 258.363 198.16 258.953 197.527C259.542 196.886 260.279 196.565 261.163 196.565C262.09 196.565 262.822 196.886 263.36 197.527C263.906 198.16 264.179 198.961 264.179 199.932V200.179H259.109C259.152 200.794 259.373 201.31 259.772 201.726C260.179 202.142 260.708 202.35 261.358 202.35C262.138 202.35 262.788 202.081 263.308 201.544L263.776 202.181C263.108 202.831 262.276 203.156 261.28 203.156ZM263.217 199.451C263.208 198.922 263.026 198.446 262.671 198.021C262.315 197.588 261.808 197.371 261.15 197.371C260.526 197.371 260.032 197.583 259.668 198.008C259.312 198.433 259.122 198.914 259.096 199.451H263.217ZM270.971 203H270.009V198.892C270.009 198.363 269.887 197.991 269.645 197.774C269.402 197.549 269.051 197.436 268.592 197.436C268.228 197.436 267.877 197.531 267.539 197.722C267.201 197.913 266.932 198.142 266.733 198.411V203H265.758V196.721H266.733V197.631C266.975 197.336 267.3 197.085 267.708 196.877C268.115 196.669 268.54 196.565 268.982 196.565C270.308 196.565 270.971 197.241 270.971 198.593V203ZM277.923 202.207C277.359 202.84 276.61 203.156 275.674 203.156C274.738 203.156 273.984 202.84 273.412 202.207C272.848 201.574 272.567 200.79 272.567 199.854C272.567 198.918 272.848 198.138 273.412 197.514C273.984 196.881 274.738 196.565 275.674 196.565C276.61 196.565 277.359 196.881 277.923 197.514C278.495 198.138 278.781 198.918 278.781 199.854C278.781 200.79 278.495 201.574 277.923 202.207ZM274.153 201.583C274.525 202.051 275.032 202.285 275.674 202.285C276.315 202.285 276.822 202.051 277.195 201.583C277.567 201.106 277.754 200.53 277.754 199.854C277.754 199.178 277.567 198.606 277.195 198.138C276.822 197.67 276.315 197.436 275.674 197.436C275.032 197.436 274.525 197.67 274.153 198.138C273.78 198.606 273.594 199.178 273.594 199.854C273.594 200.53 273.78 201.106 274.153 201.583ZM281.345 203H280.37V196.721H281.345V197.722C281.943 196.959 282.641 196.578 283.438 196.578V197.579C283.282 197.562 283.156 197.553 283.061 197.553C282.758 197.553 282.433 197.657 282.086 197.865C281.739 198.064 281.492 198.294 281.345 198.554V203ZM287.508 203.156C286.563 203.156 285.792 202.853 285.194 202.246C284.596 201.631 284.297 200.833 284.297 199.854C284.297 198.935 284.592 198.16 285.181 197.527C285.77 196.886 286.507 196.565 287.391 196.565C288.318 196.565 289.051 196.886 289.588 197.527C290.134 198.16 290.407 198.961 290.407 199.932V200.179H285.337C285.38 200.794 285.601 201.31 286 201.726C286.407 202.142 286.936 202.35 287.586 202.35C288.366 202.35 289.016 202.081 289.536 201.544L290.004 202.181C289.337 202.831 288.505 203.156 287.508 203.156ZM289.445 199.451C289.436 198.922 289.254 198.446 288.899 198.021C288.544 197.588 288.037 197.371 287.378 197.371C286.754 197.371 286.26 197.583 285.896 198.008C285.541 198.433 285.35 198.914 285.324 199.451H289.445ZM293.988 203.156C292.931 203.156 292.086 202.827 291.453 202.168L291.947 201.466C292.164 201.717 292.459 201.93 292.831 202.103C293.213 202.276 293.607 202.363 294.014 202.363C294.482 202.363 294.846 202.263 295.106 202.064C295.375 201.865 295.509 201.605 295.509 201.284C295.509 201.007 295.375 200.79 295.106 200.634C294.838 200.469 294.513 200.348 294.131 200.27C293.75 200.183 293.369 200.088 292.987 199.984C292.615 199.871 292.294 199.685 292.025 199.425C291.757 199.156 291.622 198.805 291.622 198.372C291.622 197.861 291.83 197.432 292.246 197.085C292.662 196.738 293.23 196.565 293.949 196.565C294.911 196.565 295.687 196.868 296.276 197.475L295.821 198.151C295.379 197.622 294.755 197.358 293.949 197.358C293.525 197.358 293.187 197.453 292.935 197.644C292.684 197.826 292.558 198.06 292.558 198.346C292.558 198.554 292.654 198.727 292.844 198.866C293.035 199.005 293.273 199.104 293.559 199.165C293.854 199.226 294.166 199.304 294.495 199.399C294.833 199.494 295.145 199.603 295.431 199.724C295.726 199.837 295.969 200.027 296.159 200.296C296.35 200.556 296.445 200.877 296.445 201.258C296.445 201.813 296.229 202.268 295.795 202.623C295.371 202.978 294.768 203.156 293.988 203.156ZM247.841 216H246.866V215.064C246.328 215.792 245.622 216.156 244.747 216.156C243.915 216.156 243.239 215.861 242.719 215.272C242.207 214.674 241.952 213.872 241.952 212.867C241.952 211.87 242.212 211.073 242.732 210.475C243.252 209.868 243.923 209.565 244.747 209.565C245.613 209.565 246.32 209.933 246.866 210.67V207.329H247.841V216ZM244.994 215.285C245.366 215.285 245.726 215.19 246.073 214.999C246.428 214.8 246.692 214.561 246.866 214.284V211.45C246.692 211.164 246.428 210.926 246.073 210.735C245.726 210.536 245.366 210.436 244.994 210.436C244.37 210.436 243.876 210.666 243.512 211.125C243.148 211.576 242.966 212.156 242.966 212.867C242.966 213.578 243.148 214.158 243.512 214.609C243.876 215.06 244.37 215.285 244.994 215.285ZM252.64 216.156C251.696 216.156 250.924 215.853 250.326 215.246C249.728 214.631 249.429 213.833 249.429 212.854C249.429 211.935 249.724 211.16 250.313 210.527C250.903 209.886 251.639 209.565 252.523 209.565C253.451 209.565 254.183 209.886 254.72 210.527C255.266 211.16 255.539 211.961 255.539 212.932V213.179H250.469C250.513 213.794 250.734 214.31 251.132 214.726C251.54 215.142 252.068 215.35 252.718 215.35C253.498 215.35 254.148 215.081 254.668 214.544L255.136 215.181C254.469 215.831 253.637 216.156 252.64 216.156ZM254.577 212.451C254.569 211.922 254.387 211.446 254.031 211.021C253.676 210.588 253.169 210.371 252.51 210.371C251.886 210.371 251.392 210.583 251.028 211.008C250.673 211.433 250.482 211.914 250.456 212.451H254.577ZM262.901 216H261.822V208.746L260.431 210.228L259.781 209.565L261.952 207.329H262.901V216ZM269.529 216H268.45V213.803H264.329V212.906L268.047 207.329H269.529V212.854H270.751V213.803H269.529V216ZM268.45 212.854V208.33L265.408 212.854H268.45ZM281.026 216H280.051V215.064C279.514 215.792 278.808 216.156 277.932 216.156C277.1 216.156 276.424 215.861 275.904 215.272C275.393 214.674 275.137 213.872 275.137 212.867C275.137 211.87 275.397 211.073 275.917 210.475C276.437 209.868 277.109 209.565 277.932 209.565C278.799 209.565 279.505 209.933 280.051 210.67V209.721H281.026V216ZM278.179 215.285C278.552 215.285 278.912 215.19 279.258 214.999C279.614 214.8 279.878 214.561 280.051 214.284V211.45C279.878 211.164 279.614 210.926 279.258 210.735C278.912 210.536 278.552 210.436 278.179 210.436C277.555 210.436 277.061 210.666 276.697 211.125C276.333 211.576 276.151 212.156 276.151 212.867C276.151 213.578 276.333 214.158 276.697 214.609C277.061 215.06 277.555 215.285 278.179 215.285ZM288.231 216H287.269V211.892C287.269 211.363 287.148 210.991 286.905 210.774C286.662 210.549 286.311 210.436 285.852 210.436C285.488 210.436 285.137 210.531 284.799 210.722C284.461 210.913 284.192 211.142 283.993 211.411V216H283.018V209.721H283.993V210.631C284.236 210.336 284.561 210.085 284.968 209.877C285.375 209.669 285.8 209.565 286.242 209.565C287.568 209.565 288.231 210.241 288.231 211.593V216ZM286.372 208.798C286.164 208.798 285.978 208.737 285.813 208.616C285.657 208.486 285.536 208.347 285.449 208.2C285.371 208.053 285.271 207.918 285.15 207.797C285.037 207.667 284.912 207.602 284.773 207.602C284.591 207.602 284.439 207.697 284.318 207.888C284.205 208.07 284.149 208.347 284.149 208.72H283.564C283.564 208.2 283.672 207.78 283.889 207.459C284.114 207.138 284.426 206.978 284.825 206.978C285.033 206.978 285.215 207.043 285.371 207.173C285.536 207.294 285.657 207.429 285.735 207.576C285.822 207.723 285.921 207.862 286.034 207.992C286.155 208.113 286.285 208.174 286.424 208.174C286.606 208.174 286.753 208.083 286.866 207.901C286.987 207.71 287.048 207.429 287.048 207.056H287.633C287.633 207.576 287.52 207.996 287.295 208.317C287.078 208.638 286.771 208.798 286.372 208.798ZM295.144 215.207C294.58 215.84 293.831 216.156 292.895 216.156C291.959 216.156 291.205 215.84 290.633 215.207C290.069 214.574 289.788 213.79 289.788 212.854C289.788 211.918 290.069 211.138 290.633 210.514C291.205 209.881 291.959 209.565 292.895 209.565C293.831 209.565 294.58 209.881 295.144 210.514C295.716 211.138 296.002 211.918 296.002 212.854C296.002 213.79 295.716 214.574 295.144 215.207ZM291.374 214.583C291.746 215.051 292.253 215.285 292.895 215.285C293.536 215.285 294.043 215.051 294.416 214.583C294.788 214.106 294.975 213.53 294.975 212.854C294.975 212.178 294.788 211.606 294.416 211.138C294.043 210.67 293.536 210.436 292.895 210.436C292.253 210.436 291.746 210.67 291.374 211.138C291.001 211.606 290.815 212.178 290.815 212.854C290.815 213.53 291.001 214.106 291.374 214.583ZM299.593 216.156C298.536 216.156 297.691 215.827 297.058 215.168L297.552 214.466C297.769 214.717 298.064 214.93 298.436 215.103C298.818 215.276 299.212 215.363 299.619 215.363C300.087 215.363 300.451 215.263 300.711 215.064C300.98 214.865 301.114 214.605 301.114 214.284C301.114 214.007 300.98 213.79 300.711 213.634C300.443 213.469 300.118 213.348 299.736 213.27C299.355 213.183 298.974 213.088 298.592 212.984C298.22 212.871 297.899 212.685 297.63 212.425C297.362 212.156 297.227 211.805 297.227 211.372C297.227 210.861 297.435 210.432 297.851 210.085C298.267 209.738 298.835 209.565 299.554 209.565C300.516 209.565 301.292 209.868 301.881 210.475L301.426 211.151C300.984 210.622 300.36 210.358 299.554 210.358C299.13 210.358 298.792 210.453 298.54 210.644C298.289 210.826 298.163 211.06 298.163 211.346C298.163 211.554 298.259 211.727 298.449 211.866C298.64 212.005 298.878 212.104 299.164 212.165C299.459 212.226 299.771 212.304 300.1 212.399C300.438 212.494 300.75 212.603 301.036 212.724C301.331 212.837 301.574 213.027 301.764 213.296C301.955 213.556 302.05 213.877 302.05 214.258C302.05 214.813 301.834 215.268 301.4 215.623C300.976 215.978 300.373 216.156 299.593 216.156Z" fill="#1A1A1A"/>
<path d="M117.442 209H116.207L115.44 207.063H111.124L110.357 209H109.122L112.619 200.329H113.958L117.442 209ZM115.128 206.114L113.282 201.434L111.449 206.114H115.128ZM124.062 209H123.087V208.064C122.55 208.792 121.843 209.156 120.968 209.156C120.136 209.156 119.46 208.861 118.94 208.272C118.429 207.674 118.173 206.872 118.173 205.867C118.173 204.87 118.433 204.073 118.953 203.475C119.473 202.868 120.145 202.565 120.968 202.565C121.835 202.565 122.541 202.933 123.087 203.67V200.329H124.062V209ZM121.215 208.285C121.588 208.285 121.947 208.19 122.294 207.999C122.649 207.8 122.914 207.561 123.087 207.284V204.45C122.914 204.164 122.649 203.926 122.294 203.735C121.947 203.536 121.588 203.436 121.215 203.436C120.591 203.436 120.097 203.666 119.733 204.125C119.369 204.576 119.187 205.156 119.187 205.867C119.187 206.578 119.369 207.158 119.733 207.609C120.097 208.06 120.591 208.285 121.215 208.285ZM131.228 209H130.253V208.116C129.993 208.411 129.663 208.658 129.265 208.857C128.875 209.056 128.459 209.156 128.017 209.156C126.682 209.156 126.015 208.489 126.015 207.154V202.721H126.99V206.855C126.99 207.375 127.111 207.743 127.354 207.96C127.596 208.177 127.947 208.285 128.407 208.285C128.771 208.285 129.122 208.194 129.46 208.012C129.798 207.83 130.062 207.605 130.253 207.336V202.721H131.228V209ZM134.566 209.156C134.106 209.156 133.76 209.03 133.526 208.779C133.292 208.528 133.175 208.164 133.175 207.687V200.329H134.15V207.479C134.15 207.722 134.202 207.917 134.306 208.064C134.418 208.211 134.579 208.285 134.787 208.285C135.073 208.285 135.289 208.194 135.437 208.012L135.736 208.753C135.441 209.022 135.051 209.156 134.566 209.156ZM138.265 209.156C137.329 209.156 136.861 208.666 136.861 207.687V203.579H135.821V202.721H136.861V201.005H137.849V202.721H139.123V203.579H137.849V207.479C137.849 207.722 137.901 207.917 138.005 208.064C138.118 208.211 138.274 208.285 138.473 208.285C138.75 208.285 138.971 208.194 139.136 208.012L139.422 208.753C139.136 209.022 138.75 209.156 138.265 209.156ZM145.479 208.207C144.916 208.84 144.166 209.156 143.23 209.156C142.294 209.156 141.54 208.84 140.968 208.207C140.405 207.574 140.123 206.79 140.123 205.854C140.123 204.918 140.405 204.138 140.968 203.514C141.54 202.881 142.294 202.565 143.23 202.565C144.166 202.565 144.916 202.881 145.479 203.514C146.051 204.138 146.337 204.918 146.337 205.854C146.337 206.79 146.051 207.574 145.479 208.207ZM141.709 207.583C142.082 208.051 142.589 208.285 143.23 208.285C143.872 208.285 144.379 208.051 144.751 207.583C145.124 207.106 145.31 206.53 145.31 205.854C145.31 205.178 145.124 204.606 144.751 204.138C144.379 203.67 143.872 203.436 143.23 203.436C142.589 203.436 142.082 203.67 141.709 204.138C141.337 204.606 141.15 205.178 141.15 205.854C141.15 206.53 141.337 207.106 141.709 207.583ZM149.929 209.156C148.871 209.156 148.026 208.827 147.394 208.168L147.888 207.466C148.104 207.717 148.399 207.93 148.772 208.103C149.153 208.276 149.547 208.363 149.955 208.363C150.423 208.363 150.787 208.263 151.047 208.064C151.315 207.865 151.45 207.605 151.45 207.284C151.45 207.007 151.315 206.79 151.047 206.634C150.778 206.469 150.453 206.348 150.072 206.27C149.69 206.183 149.309 206.088 148.928 205.984C148.555 205.871 148.234 205.685 147.966 205.425C147.697 205.156 147.563 204.805 147.563 204.372C147.563 203.861 147.771 203.432 148.187 203.085C148.603 202.738 149.17 202.565 149.89 202.565C150.852 202.565 151.627 202.868 152.217 203.475L151.762 204.151C151.32 203.622 150.696 203.358 149.89 203.358C149.465 203.358 149.127 203.453 148.876 203.644C148.624 203.826 148.499 204.06 148.499 204.346C148.499 204.554 148.594 204.727 148.785 204.866C148.975 205.005 149.214 205.104 149.5 205.165C149.794 205.226 150.106 205.304 150.436 205.399C150.774 205.494 151.086 205.603 151.372 205.724C151.666 205.837 151.909 206.027 152.1 206.296C152.29 206.556 152.386 206.877 152.386 207.258C152.386 207.813 152.169 208.268 151.736 208.623C151.311 208.978 150.709 209.156 149.929 209.156Z" fill="#1A1A1A"/>
<path d="M180.481 209.156C179.545 209.156 178.791 208.822 178.219 208.155L178.791 207.336C179.25 207.908 179.792 208.194 180.416 208.194C180.944 208.194 181.365 208.029 181.677 207.7C181.997 207.362 182.158 206.92 182.158 206.374V200.329H183.237V206.387C183.237 207.288 182.981 207.977 182.47 208.454C181.958 208.922 181.295 209.156 180.481 209.156ZM190.213 208.207C189.649 208.84 188.9 209.156 187.964 209.156C187.028 209.156 186.274 208.84 185.702 208.207C185.138 207.574 184.857 206.79 184.857 205.854C184.857 204.918 185.138 204.138 185.702 203.514C186.274 202.881 187.028 202.565 187.964 202.565C188.9 202.565 189.649 202.881 190.213 203.514C190.785 204.138 191.071 204.918 191.071 205.854C191.071 206.79 190.785 207.574 190.213 208.207ZM186.443 207.583C186.815 208.051 187.322 208.285 187.964 208.285C188.605 208.285 189.112 208.051 189.485 207.583C189.857 207.106 190.044 206.53 190.044 205.854C190.044 205.178 189.857 204.606 189.485 204.138C189.112 203.67 188.605 203.436 187.964 203.436C187.322 203.436 186.815 203.67 186.443 204.138C186.07 204.606 185.884 205.178 185.884 205.854C185.884 206.53 186.07 207.106 186.443 207.583ZM190.044 199.9L187.847 201.772H187.106L189.03 199.9H190.044ZM195.403 209H194.337L191.724 202.721H192.79L194.87 207.869L196.963 202.721H198.016L195.403 209ZM201.88 209.156C200.935 209.156 200.164 208.853 199.566 208.246C198.968 207.631 198.669 206.833 198.669 205.854C198.669 204.935 198.964 204.16 199.553 203.527C200.142 202.886 200.879 202.565 201.763 202.565C202.69 202.565 203.423 202.886 203.96 203.527C204.506 204.16 204.779 204.961 204.779 205.932V206.179H199.709C199.752 206.794 199.973 207.31 200.372 207.726C200.779 208.142 201.308 208.35 201.958 208.35C202.738 208.35 203.388 208.081 203.908 207.544L204.376 208.181C203.709 208.831 202.877 209.156 201.88 209.156ZM203.817 205.451C203.808 204.922 203.626 204.446 203.271 204.021C202.916 203.588 202.409 203.371 201.75 203.371C201.126 203.371 200.632 203.583 200.268 204.008C199.913 204.433 199.722 204.914 199.696 205.451H203.817ZM211.571 209H210.609V204.892C210.609 204.363 210.488 203.991 210.245 203.774C210.003 203.549 209.652 203.436 209.192 203.436C208.828 203.436 208.477 203.531 208.139 203.722C207.801 203.913 207.533 204.142 207.333 204.411V209H206.358V202.721H207.333V203.631C207.576 203.336 207.901 203.085 208.308 202.877C208.716 202.669 209.14 202.565 209.582 202.565C210.908 202.565 211.571 203.241 211.571 204.593V209ZM216.378 209.156C215.433 209.156 214.662 208.853 214.064 208.246C213.466 207.631 213.167 206.833 213.167 205.854C213.167 204.935 213.462 204.16 214.051 203.527C214.64 202.886 215.377 202.565 216.261 202.565C217.188 202.565 217.921 202.886 218.458 203.527C219.004 204.16 219.277 204.961 219.277 205.932V206.179H214.207C214.25 206.794 214.471 207.31 214.87 207.726C215.277 208.142 215.806 208.35 216.456 208.35C217.236 208.35 217.886 208.081 218.406 207.544L218.874 208.181C218.207 208.831 217.375 209.156 216.378 209.156ZM218.315 205.451C218.306 204.922 218.124 204.446 217.769 204.021C217.414 203.588 216.907 203.371 216.248 203.371C215.624 203.371 215.13 203.583 214.766 204.008C214.411 204.433 214.22 204.914 214.194 205.451H218.315ZM222.858 209.156C221.801 209.156 220.956 208.827 220.323 208.168L220.817 207.466C221.034 207.717 221.329 207.93 221.701 208.103C222.083 208.276 222.477 208.363 222.884 208.363C223.352 208.363 223.716 208.263 223.976 208.064C224.245 207.865 224.379 207.605 224.379 207.284C224.379 207.007 224.245 206.79 223.976 206.634C223.708 206.469 223.383 206.348 223.001 206.27C222.62 206.183 222.239 206.088 221.857 205.984C221.485 205.871 221.164 205.685 220.895 205.425C220.627 205.156 220.492 204.805 220.492 204.372C220.492 203.861 220.7 203.432 221.116 203.085C221.532 202.738 222.1 202.565 222.819 202.565C223.781 202.565 224.557 202.868 225.146 203.475L224.691 204.151C224.249 203.622 223.625 203.358 222.819 203.358C222.395 203.358 222.057 203.453 221.805 203.644C221.554 203.826 221.428 204.06 221.428 204.346C221.428 204.554 221.524 204.727 221.714 204.866C221.905 205.005 222.143 205.104 222.429 205.165C222.724 205.226 223.036 205.304 223.365 205.399C223.703 205.494 224.015 205.603 224.301 205.724C224.596 205.837 224.839 206.027 225.029 206.296C225.22 206.556 225.315 206.877 225.315 207.258C225.315 207.813 225.099 208.268 224.665 208.623C224.241 208.978 223.638 209.156 222.858 209.156Z" fill="#1A1A1A"/>
<path d="M36.4646 203H35.3856V194.329H38.8696C39.7102 194.329 40.3732 194.58 40.8586 195.083C41.3439 195.586 41.5866 196.205 41.5866 196.942C41.5866 197.679 41.3396 198.298 40.8456 198.801C40.3602 199.304 39.7016 199.555 38.8696 199.555H36.4646V203ZM38.7396 198.593C39.2509 198.593 39.6669 198.441 39.9876 198.138C40.3082 197.826 40.4686 197.427 40.4686 196.942C40.4686 196.457 40.3082 196.062 39.9876 195.759C39.6669 195.447 39.2509 195.291 38.7396 195.291H36.4646V198.593H38.7396ZM45.6584 203.156C44.7138 203.156 43.9424 202.853 43.3444 202.246C42.7464 201.631 42.4474 200.833 42.4474 199.854C42.4474 198.935 42.7421 198.16 43.3314 197.527C43.9208 196.886 44.6574 196.565 45.5414 196.565C46.4688 196.565 47.2011 196.886 47.7384 197.527C48.2844 198.16 48.5574 198.961 48.5574 199.932V200.179H43.4874C43.5308 200.794 43.7518 201.31 44.1504 201.726C44.5578 202.142 45.0864 202.35 45.7364 202.35C46.5164 202.35 47.1664 202.081 47.6864 201.544L48.1544 202.181C47.4871 202.831 46.6551 203.156 45.6584 203.156ZM47.5954 199.451C47.5868 198.922 47.4048 198.446 47.0494 198.021C46.6941 197.588 46.1871 197.371 45.5284 197.371C44.9044 197.371 44.4104 197.583 44.0464 198.008C43.6911 198.433 43.5004 198.914 43.4744 199.451H47.5954ZM51.1116 203H50.1366V196.721H51.1116V197.722C51.7096 196.959 52.4073 196.578 53.2046 196.578V197.579C53.0486 197.562 52.923 197.553 52.8276 197.553C52.5243 197.553 52.1993 197.657 51.8526 197.865C51.506 198.064 51.259 198.294 51.1116 198.554V203ZM56.4296 203.156C55.3723 203.156 54.5273 202.827 53.8946 202.168L54.3886 201.466C54.6053 201.717 54.9 201.93 55.2726 202.103C55.654 202.276 56.0483 202.363 56.4556 202.363C56.9236 202.363 57.2876 202.263 57.5476 202.064C57.8163 201.865 57.9506 201.605 57.9506 201.284C57.9506 201.007 57.8163 200.79 57.5476 200.634C57.279 200.469 56.954 200.348 56.5726 200.27C56.1913 200.183 55.81 200.088 55.4286 199.984C55.056 199.871 54.7353 199.685 54.4666 199.425C54.198 199.156 54.0636 198.805 54.0636 198.372C54.0636 197.861 54.2716 197.432 54.6876 197.085C55.1036 196.738 55.6713 196.565 56.3906 196.565C57.3526 196.565 58.1283 196.868 58.7176 197.475L58.2626 198.151C57.8206 197.622 57.1966 197.358 56.3906 197.358C55.966 197.358 55.628 197.453 55.3766 197.644C55.1253 197.826 54.9996 198.06 54.9996 198.346C54.9996 198.554 55.095 198.727 55.2856 198.866C55.4763 199.005 55.7146 199.104 56.0006 199.165C56.2953 199.226 56.6073 199.304 56.9366 199.399C57.2746 199.494 57.5866 199.603 57.8726 199.724C58.1673 199.837 58.41 200.027 58.6006 200.296C58.7913 200.556 58.8866 200.877 58.8866 201.258C58.8866 201.813 58.67 202.268 58.2366 202.623C57.812 202.978 57.2096 203.156 56.4296 203.156ZM65.4626 202.207C64.8993 202.84 64.1496 203.156 63.2136 203.156C62.2776 203.156 61.5236 202.84 60.9516 202.207C60.3883 201.574 60.1066 200.79 60.1066 199.854C60.1066 198.918 60.3883 198.138 60.9516 197.514C61.5236 196.881 62.2776 196.565 63.2136 196.565C64.1496 196.565 64.8993 196.881 65.4626 197.514C66.0346 198.138 66.3206 198.918 66.3206 199.854C66.3206 200.79 66.0346 201.574 65.4626 202.207ZM61.6926 201.583C62.0653 202.051 62.5723 202.285 63.2136 202.285C63.8549 202.285 64.3619 202.051 64.7346 201.583C65.1073 201.106 65.2936 200.53 65.2936 199.854C65.2936 199.178 65.1073 198.606 64.7346 198.138C64.3619 197.67 63.8549 197.436 63.2136 197.436C62.5723 197.436 62.0653 197.67 61.6926 198.138C61.3199 198.606 61.1336 199.178 61.1336 199.854C61.1336 200.53 61.3199 201.106 61.6926 201.583ZM73.1231 203H72.1611V198.892C72.1611 198.363 72.0397 197.991 71.7971 197.774C71.5544 197.549 71.2034 197.436 70.7441 197.436C70.3801 197.436 70.0291 197.531 69.6911 197.722C69.3531 197.913 69.0844 198.142 68.8851 198.411V203H67.9101V196.721H68.8851V197.631C69.1277 197.336 69.4527 197.085 69.8601 196.877C70.2674 196.669 70.6921 196.565 71.1341 196.565C72.4601 196.565 73.1231 197.241 73.1231 198.593V203ZM80.6079 203H79.6329V202.064C79.0956 202.792 78.3892 203.156 77.5139 203.156C76.6819 203.156 76.0059 202.861 75.4859 202.272C74.9746 201.674 74.7189 200.872 74.7189 199.867C74.7189 198.87 74.9789 198.073 75.4989 197.475C76.0189 196.868 76.6906 196.565 77.5139 196.565C78.3806 196.565 79.0869 196.933 79.6329 197.67V196.721H80.6079V203ZM77.7609 202.285C78.1336 202.285 78.4932 202.19 78.8399 201.999C79.1952 201.8 79.4596 201.561 79.6329 201.284V198.45C79.4596 198.164 79.1952 197.926 78.8399 197.735C78.4932 197.536 78.1336 197.436 77.7609 197.436C77.1369 197.436 76.6429 197.666 76.2789 198.125C75.9149 198.576 75.7329 199.156 75.7329 199.867C75.7329 200.578 75.9149 201.158 76.2789 201.609C76.6429 202.06 77.1369 202.285 77.7609 202.285ZM84.5624 203.156C83.5051 203.156 82.6601 202.827 82.0274 202.168L82.5214 201.466C82.7381 201.717 83.0328 201.93 83.4054 202.103C83.7868 202.276 84.1811 202.363 84.5884 202.363C85.0564 202.363 85.4204 202.263 85.6804 202.064C85.9491 201.865 86.0834 201.605 86.0834 201.284C86.0834 201.007 85.9491 200.79 85.6804 200.634C85.4118 200.469 85.0868 200.348 84.7054 200.27C84.3241 200.183 83.9428 200.088 83.5614 199.984C83.1888 199.871 82.8681 199.685 82.5994 199.425C82.3308 199.156 82.1964 198.805 82.1964 198.372C82.1964 197.861 82.4044 197.432 82.8204 197.085C83.2364 196.738 83.8041 196.565 84.5234 196.565C85.4854 196.565 86.2611 196.868 86.8504 197.475L86.3954 198.151C85.9534 197.622 85.3294 197.358 84.5234 197.358C84.0988 197.358 83.7608 197.453 83.5094 197.644C83.2581 197.826 83.1324 198.06 83.1324 198.346C83.1324 198.554 83.2278 198.727 83.4184 198.866C83.6091 199.005 83.8474 199.104 84.1334 199.165C84.4281 199.226 84.7401 199.304 85.0694 199.399C85.4074 199.494 85.7194 199.603 86.0054 199.724C86.3001 199.837 86.5428 200.027 86.7334 200.296C86.9241 200.556 87.0194 200.877 87.0194 201.258C87.0194 201.813 86.8028 202.268 86.3694 202.623C85.9448 202.978 85.3424 203.156 84.5624 203.156ZM45.4113 216H44.4363V211.736C44.4363 210.869 44.0507 210.436 43.2793 210.436C42.9673 210.436 42.6553 210.531 42.3433 210.722C42.0313 210.904 41.7887 211.129 41.6153 211.398V216H40.6403V211.736C40.6403 210.869 40.2547 210.436 39.4833 210.436C39.18 210.436 38.8723 210.531 38.5603 210.722C38.257 210.913 38.0143 211.142 37.8323 211.411V216H36.8573V209.721H37.8323V210.631C37.997 210.38 38.27 210.141 38.6513 209.916C39.0413 209.682 39.4487 209.565 39.8733 209.565C40.324 209.565 40.6923 209.673 40.9783 209.89C41.2643 210.107 41.455 210.388 41.5503 210.735C41.741 210.423 42.0313 210.15 42.4213 209.916C42.8113 209.682 43.223 209.565 43.6563 209.565C44.8263 209.565 45.4113 210.198 45.4113 211.463V216ZM52.8813 216H51.9063V215.064C51.369 215.792 50.6627 216.156 49.7873 216.156C48.9553 216.156 48.2793 215.861 47.7593 215.272C47.248 214.674 46.9923 213.872 46.9923 212.867C46.9923 211.87 47.2523 211.073 47.7723 210.475C48.2923 209.868 48.964 209.565 49.7873 209.565C50.654 209.565 51.3603 209.933 51.9063 210.67V209.721H52.8813V216ZM50.0343 215.285C50.407 215.285 50.7667 215.19 51.1133 214.999C51.4687 214.8 51.733 214.561 51.9063 214.284V211.45C51.733 211.164 51.4687 210.926 51.1133 210.735C50.7667 210.536 50.407 210.436 50.0343 210.436C49.4103 210.436 48.9163 210.666 48.5523 211.125C48.1883 211.576 48.0063 212.156 48.0063 212.867C48.0063 213.578 48.1883 214.158 48.5523 214.609C48.9163 215.06 49.4103 215.285 50.0343 215.285ZM57.1739 218.548C56.2032 218.548 55.4016 218.232 54.7689 217.599L55.2629 216.897C55.7136 217.46 56.3506 217.742 57.1739 217.742C57.7632 217.742 58.2269 217.582 58.5649 217.261C58.9029 216.94 59.0719 216.494 59.0719 215.922V214.986C58.8119 215.281 58.4826 215.528 58.0839 215.727C57.6939 215.926 57.2779 216.026 56.8359 216.026C55.5012 216.026 54.8339 215.359 54.8339 214.024V209.721H55.8089V213.725C55.8089 214.254 55.9302 214.626 56.1729 214.843C56.4156 215.06 56.7666 215.168 57.2259 215.168C57.5812 215.168 57.9279 215.077 58.2659 214.895C58.6126 214.704 58.8812 214.479 59.0719 214.219V209.721H60.0469V215.922C60.0469 216.771 59.7739 217.421 59.2279 217.872C58.6819 218.323 57.9972 218.548 57.1739 218.548ZM66.986 215.207C66.4227 215.84 65.673 216.156 64.737 216.156C63.801 216.156 63.047 215.84 62.475 215.207C61.9117 214.574 61.63 213.79 61.63 212.854C61.63 211.918 61.9117 211.138 62.475 210.514C63.047 209.881 63.801 209.565 64.737 209.565C65.673 209.565 66.4227 209.881 66.986 210.514C67.558 211.138 67.844 211.918 67.844 212.854C67.844 213.79 67.558 214.574 66.986 215.207ZM63.216 214.583C63.5887 215.051 64.0957 215.285 64.737 215.285C65.3784 215.285 65.8854 215.051 66.258 214.583C66.6307 214.106 66.817 213.53 66.817 212.854C66.817 212.178 66.6307 211.606 66.258 211.138C65.8854 210.67 65.3784 210.436 64.737 210.436C64.0957 210.436 63.5887 210.67 63.216 211.138C62.8434 211.606 62.657 212.178 62.657 212.854C62.657 213.53 62.8434 214.106 63.216 214.583ZM70.4085 216H69.4335V209.721H70.4085V210.722C71.0065 209.959 71.7042 209.578 72.5015 209.578V210.579C72.3455 210.562 72.2198 210.553 72.1245 210.553C71.8212 210.553 71.4962 210.657 71.1495 210.865C70.8028 211.064 70.5558 211.294 70.4085 211.554V216ZM76.5715 216.156C75.6268 216.156 74.8555 215.853 74.2575 215.246C73.6595 214.631 73.3605 213.833 73.3605 212.854C73.3605 211.935 73.6552 211.16 74.2445 210.527C74.8338 209.886 75.5705 209.565 76.4545 209.565C77.3818 209.565 78.1142 209.886 78.6515 210.527C79.1975 211.16 79.4705 211.961 79.4705 212.932V213.179H74.4005C74.4438 213.794 74.6648 214.31 75.0635 214.726C75.4708 215.142 75.9995 215.35 76.6495 215.35C77.4295 215.35 78.0795 215.081 78.5995 214.544L79.0675 215.181C78.4002 215.831 77.5682 216.156 76.5715 216.156ZM78.5085 212.451C78.4998 211.922 78.3178 211.446 77.9625 211.021C77.6072 210.588 77.1002 210.371 76.4415 210.371C75.8175 210.371 75.3235 210.583 74.9595 211.008C74.6042 211.433 74.4135 211.914 74.3875 212.451H78.5085ZM83.0517 216.156C81.9944 216.156 81.1494 215.827 80.5167 215.168L81.0107 214.466C81.2274 214.717 81.522 214.93 81.8947 215.103C82.276 215.276 82.6704 215.363 83.0777 215.363C83.5457 215.363 83.9097 215.263 84.1697 215.064C84.4384 214.865 84.5727 214.605 84.5727 214.284C84.5727 214.007 84.4384 213.79 84.1697 213.634C83.901 213.469 83.576 213.348 83.1947 213.27C82.8134 213.183 82.432 213.088 82.0507 212.984C81.678 212.871 81.3574 212.685 81.0887 212.425C80.82 212.156 80.6857 211.805 80.6857 211.372C80.6857 210.861 80.8937 210.432 81.3097 210.085C81.7257 209.738 82.2934 209.565 83.0127 209.565C83.9747 209.565 84.7504 209.868 85.3397 210.475L84.8847 211.151C84.4427 210.622 83.8187 210.358 83.0127 210.358C82.588 210.358 82.25 210.453 81.9987 210.644C81.7474 210.826 81.6217 211.06 81.6217 211.346C81.6217 211.554 81.717 211.727 81.9077 211.866C82.0984 212.005 82.3367 212.104 82.6227 212.165C82.9174 212.226 83.2294 212.304 83.5587 212.399C83.8967 212.494 84.2087 212.603 84.4947 212.724C84.7894 212.837 85.032 213.027 85.2227 213.296C85.4134 213.556 85.5087 213.877 85.5087 214.258C85.5087 214.813 85.292 215.268 84.8587 215.623C84.434 215.978 83.8317 216.156 83.0517 216.156Z" fill="#1A1A1A"/>
</svg>
