<svg width="287" height="217" viewBox="0 0 287 217" fill="none" xmlns="http://www.w3.org/2000/svg">
<rect y="160" width="11" height="11" rx="2" fill="#1D5556"/>
<path d="M19.576 171H18.248V160.328H22.536C23.5707 160.328 24.3867 160.637 24.984 161.256C25.5813 161.875 25.88 162.637 25.88 163.544C25.88 164.451 25.576 165.213 24.968 165.832C24.3707 166.451 23.56 166.76 22.536 166.76H19.576V171ZM22.376 165.576C23.0053 165.576 23.5173 165.389 23.912 165.016C24.3067 164.632 24.504 164.141 24.504 163.544C24.504 162.947 24.3067 162.461 23.912 162.088C23.5173 161.704 23.0053 161.512 22.376 161.512H19.576V165.576H22.376ZM28.7906 171H27.5906V163.272H28.7906V164.504C29.5266 163.565 30.3853 163.096 31.3666 163.096V164.328C31.1746 164.307 31.02 164.296 30.9026 164.296C30.5293 164.296 30.1293 164.424 29.7026 164.68C29.276 164.925 28.972 165.208 28.7906 165.528V171ZM34.0399 161.944C33.8905 162.093 33.7039 162.168 33.4799 162.168C33.2559 162.168 33.0639 162.093 32.9039 161.944C32.7439 161.784 32.6639 161.592 32.6639 161.368C32.6639 161.144 32.7439 160.952 32.9039 160.792C33.0639 160.632 33.2559 160.552 33.4799 160.552C33.7039 160.552 33.8905 160.632 34.0399 160.792C34.1999 160.952 34.2799 161.144 34.2799 161.368C34.2799 161.592 34.1999 161.784 34.0399 161.944ZM34.0719 171H32.8719V163.272H34.0719V171ZM46.9936 171H45.7936V165.752C45.7936 164.685 45.319 164.152 44.3696 164.152C43.9856 164.152 43.6016 164.269 43.2176 164.504C42.8336 164.728 42.535 165.005 42.3216 165.336V171H41.1216V165.752C41.1216 164.685 40.647 164.152 39.6976 164.152C39.3243 164.152 38.9456 164.269 38.5616 164.504C38.1883 164.739 37.8896 165.021 37.6656 165.352V171H36.4656V163.272H37.6656V164.392C37.8683 164.083 38.2043 163.789 38.6736 163.512C39.1536 163.224 39.655 163.08 40.1776 163.08C40.7323 163.08 41.1856 163.213 41.5376 163.48C41.8896 163.747 42.1243 164.093 42.2416 164.52C42.4763 164.136 42.8336 163.8 43.3136 163.512C43.7936 163.224 44.3003 163.08 44.8336 163.08C46.2736 163.08 46.9936 163.859 46.9936 165.416V171ZM52.8915 171.192C51.7288 171.192 50.7795 170.819 50.0435 170.072C49.3075 169.315 48.9395 168.333 48.9395 167.128C48.9395 165.997 49.3022 165.043 50.0275 164.264C50.7528 163.475 51.6595 163.08 52.7475 163.08C53.8888 163.08 54.7902 163.475 55.4515 164.264C56.1235 165.043 56.4595 166.029 56.4595 167.224V167.528H50.2195C50.2728 168.285 50.5448 168.92 51.0355 169.432C51.5368 169.944 52.1875 170.2 52.9875 170.2C53.9475 170.2 54.7475 169.869 55.3875 169.208L55.9635 169.992C55.1422 170.792 54.1182 171.192 52.8915 171.192ZM55.2755 166.632C55.2648 165.981 55.0408 165.395 54.6035 164.872C54.1662 164.339 53.5422 164.072 52.7315 164.072C51.9635 164.072 51.3555 164.333 50.9075 164.856C50.4702 165.379 50.2355 165.971 50.2035 166.632H55.2755ZM59.6031 171H58.4031V163.272H59.6031V164.504C60.3391 163.565 61.1978 163.096 62.1791 163.096V164.328C61.9871 164.307 61.8325 164.296 61.7151 164.296C61.3418 164.296 60.9418 164.424 60.5151 164.68C60.0885 164.925 59.7845 165.208 59.6031 165.528V171ZM70.4844 171H69.2844V169.848C68.623 170.744 67.7537 171.192 66.6764 171.192C65.6524 171.192 64.8204 170.829 64.1804 170.104C63.551 169.368 63.2364 168.381 63.2364 167.144C63.2364 165.917 63.5564 164.936 64.1964 164.2C64.8364 163.453 65.663 163.08 66.6764 163.08C67.743 163.08 68.6124 163.533 69.2844 164.44V163.272H70.4844V171ZM66.9804 170.12C67.439 170.12 67.8817 170.003 68.3084 169.768C68.7457 169.523 69.071 169.229 69.2844 168.888V165.4C69.071 165.048 68.7457 164.755 68.3084 164.52C67.8817 164.275 67.439 164.152 66.9804 164.152C66.2124 164.152 65.6044 164.435 65.1564 165C64.7084 165.555 64.4844 166.269 64.4844 167.144C64.4844 168.019 64.7084 168.733 65.1564 169.288C65.6044 169.843 66.2124 170.12 66.9804 170.12ZM78.4041 171H77.0761V160.328H78.4041V171ZM87.2723 171H86.0883V165.944C86.0883 165.293 85.9389 164.835 85.6403 164.568C85.3416 164.291 84.9096 164.152 84.3443 164.152C83.8963 164.152 83.4643 164.269 83.0483 164.504C82.6323 164.739 82.3016 165.021 82.0563 165.352V171H80.8563V163.272H82.0563V164.392C82.3549 164.029 82.7549 163.72 83.2563 163.464C83.7576 163.208 84.2803 163.08 84.8243 163.08C86.4563 163.08 87.2723 163.912 87.2723 165.576V171ZM91.2204 171H90.0204V164.328H88.7404V163.272H90.0204V162.68C90.0204 161.891 90.223 161.277 90.6284 160.84C91.0444 160.392 91.5884 160.168 92.2604 160.168C92.7404 160.168 93.135 160.253 93.4444 160.424L93.1404 161.336C92.9377 161.219 92.7084 161.16 92.4524 161.16C91.631 161.16 91.2204 161.667 91.2204 162.68V163.272H92.7884V164.328H91.2204V171ZM101.031 171H99.8313V169.848C99.1699 170.744 98.3006 171.192 97.2233 171.192C96.1993 171.192 95.3673 170.829 94.7273 170.104C94.0979 169.368 93.7833 168.381 93.7833 167.144C93.7833 165.917 94.1033 164.936 94.7433 164.2C95.3833 163.453 96.2099 163.08 97.2233 163.08C98.2899 163.08 99.1593 163.533 99.8313 164.44V163.272H101.031V171ZM97.5273 170.12C97.9859 170.12 98.4286 170.003 98.8553 169.768C99.2926 169.523 99.6179 169.229 99.8313 168.888V165.4C99.6179 165.048 99.2926 164.755 98.8553 164.52C98.4286 164.275 97.9859 164.152 97.5273 164.152C96.7593 164.152 96.1513 164.435 95.7033 165C95.2553 165.555 95.0312 166.269 95.0312 167.144C95.0312 168.019 95.2553 168.733 95.7033 169.288C96.1513 169.843 96.7593 170.12 97.5273 170.12ZM109.85 171H108.666V165.944C108.666 165.293 108.517 164.835 108.218 164.568C107.92 164.291 107.488 164.152 106.922 164.152C106.474 164.152 106.042 164.269 105.626 164.504C105.21 164.739 104.88 165.021 104.634 165.352V171H103.434V163.272H104.634V164.392C104.933 164.029 105.333 163.72 105.834 163.464C106.336 163.208 106.858 163.08 107.402 163.08C109.034 163.08 109.85 163.912 109.85 165.576V171ZM115.671 171.192C114.529 171.192 113.601 170.808 112.887 170.04C112.172 169.261 111.815 168.291 111.815 167.128C111.815 165.965 112.172 165 112.887 164.232C113.601 163.464 114.529 163.08 115.671 163.08C116.865 163.08 117.809 163.528 118.503 164.424L117.703 165.144C117.223 164.483 116.567 164.152 115.735 164.152C114.935 164.152 114.289 164.435 113.799 165C113.308 165.555 113.062 166.264 113.062 167.128C113.062 168.003 113.308 168.723 113.799 169.288C114.289 169.843 114.935 170.12 115.735 170.12C116.545 170.12 117.201 169.784 117.703 169.112L118.503 169.848C117.809 170.744 116.865 171.192 115.671 171.192ZM121.368 161.944C121.219 162.093 121.032 162.168 120.808 162.168C120.584 162.168 120.392 162.093 120.232 161.944C120.072 161.784 119.992 161.592 119.992 161.368C119.992 161.144 120.072 160.952 120.232 160.792C120.392 160.632 120.584 160.552 120.808 160.552C121.032 160.552 121.219 160.632 121.368 160.792C121.528 160.952 121.608 161.144 121.608 161.368C121.608 161.592 121.528 161.784 121.368 161.944ZM121.4 171H120.2V163.272H121.4V171ZM130.594 171H129.394V169.848C128.732 170.744 127.863 171.192 126.786 171.192C125.762 171.192 124.93 170.829 124.29 170.104C123.66 169.368 123.346 168.381 123.346 167.144C123.346 165.917 123.666 164.936 124.306 164.2C124.946 163.453 125.772 163.08 126.786 163.08C127.852 163.08 128.722 163.533 129.394 164.44V163.272H130.594V171ZM127.09 170.12C127.548 170.12 127.991 170.003 128.418 169.768C128.855 169.523 129.18 169.229 129.394 168.888V165.4C129.18 165.048 128.855 164.755 128.418 164.52C127.991 164.275 127.548 164.152 127.09 164.152C126.322 164.152 125.714 164.435 125.266 165C124.818 165.555 124.594 166.269 124.594 167.144C124.594 168.019 124.818 168.733 125.266 169.288C125.714 169.843 126.322 170.12 127.09 170.12Z" fill="#1A1A1A"/>
<rect y="181" width="11" height="11" rx="2" fill="#FAAA8D"/>
<path d="M19.576 192H18.248V181.328H19.576V192ZM28.4441 192H27.2601V186.944C27.2601 186.293 27.1108 185.835 26.8121 185.568C26.5135 185.291 26.0815 185.152 25.5161 185.152C25.0681 185.152 24.6361 185.269 24.2201 185.504C23.8041 185.739 23.4735 186.021 23.2281 186.352V192H22.0281V184.272H23.2281V185.392C23.5268 185.029 23.9268 184.72 24.4281 184.464C24.9295 184.208 25.4521 184.08 25.9961 184.08C27.6281 184.08 28.4441 184.912 28.4441 186.576V192ZM32.3923 192H31.1923V185.328H29.9123V184.272H31.1923V183.68C31.1923 182.891 31.3949 182.277 31.8003 181.84C32.2163 181.392 32.7603 181.168 33.4323 181.168C33.9123 181.168 34.3069 181.253 34.6163 181.424L34.3123 182.336C34.1096 182.219 33.8803 182.16 33.6243 182.16C32.8029 182.16 32.3923 182.667 32.3923 183.68V184.272H33.9603V185.328H32.3923V192ZM42.2031 192H41.0031V190.848C40.3418 191.744 39.4725 192.192 38.3951 192.192C37.3711 192.192 36.5391 191.829 35.8991 191.104C35.2698 190.368 34.9551 189.381 34.9551 188.144C34.9551 186.917 35.2751 185.936 35.9151 185.2C36.5551 184.453 37.3818 184.08 38.3951 184.08C39.4618 184.08 40.3311 184.533 41.0031 185.44V184.272H42.2031V192ZM38.6991 191.12C39.1578 191.12 39.6005 191.003 40.0271 190.768C40.4645 190.523 40.7898 190.229 41.0031 189.888V186.4C40.7898 186.048 40.4645 185.755 40.0271 185.52C39.6005 185.275 39.1578 185.152 38.6991 185.152C37.9311 185.152 37.3231 185.435 36.8751 186C36.4271 186.555 36.2031 187.269 36.2031 188.144C36.2031 189.019 36.4271 189.733 36.8751 190.288C37.3231 190.843 37.9311 191.12 38.6991 191.12ZM51.0223 192H49.8383V186.944C49.8383 186.293 49.6889 185.835 49.3903 185.568C49.0916 185.291 48.6596 185.152 48.0943 185.152C47.6463 185.152 47.2143 185.269 46.7983 185.504C46.3823 185.739 46.0516 186.021 45.8063 186.352V192H44.6063V184.272H45.8063V185.392C46.1049 185.029 46.5049 184.72 47.0063 184.464C47.5076 184.208 48.0303 184.08 48.5743 184.08C50.2063 184.08 51.0223 184.912 51.0223 186.576V192ZM56.8424 192.192C55.701 192.192 54.773 191.808 54.0584 191.04C53.3437 190.261 52.9864 189.291 52.9864 188.128C52.9864 186.965 53.3437 186 54.0584 185.232C54.773 184.464 55.701 184.08 56.8424 184.08C58.037 184.08 58.981 184.528 59.6744 185.424L58.8744 186.144C58.3944 185.483 57.7384 185.152 56.9064 185.152C56.1064 185.152 55.461 185.435 54.9704 186C54.4797 186.555 54.2344 187.264 54.2344 188.128C54.2344 189.003 54.4797 189.723 54.9704 190.288C55.461 190.843 56.1064 191.12 56.9064 191.12C57.717 191.12 58.373 190.784 58.8744 190.112L59.6744 190.848C58.981 191.744 58.037 192.192 56.8424 192.192ZM62.5399 182.944C62.3905 183.093 62.2039 183.168 61.9799 183.168C61.7559 183.168 61.5639 183.093 61.4039 182.944C61.2439 182.784 61.1639 182.592 61.1639 182.368C61.1639 182.144 61.2439 181.952 61.4039 181.792C61.5639 181.632 61.7559 181.552 61.9799 181.552C62.2039 181.552 62.3905 181.632 62.5399 181.792C62.6999 181.952 62.7799 182.144 62.7799 182.368C62.7799 182.592 62.6999 182.784 62.5399 182.944ZM62.5719 192H61.3719V184.272H62.5719V192ZM71.7656 192H70.5656V190.848C69.9043 191.744 69.035 192.192 67.9576 192.192C66.9336 192.192 66.1016 191.829 65.4616 191.104C64.8323 190.368 64.5176 189.381 64.5176 188.144C64.5176 186.917 64.8376 185.936 65.4776 185.2C66.1176 184.453 66.9443 184.08 67.9576 184.08C69.0243 184.08 69.8936 184.533 70.5656 185.44V184.272H71.7656V192ZM68.2616 191.12C68.7203 191.12 69.163 191.003 69.5896 190.768C70.027 190.523 70.3523 190.229 70.5656 189.888V186.4C70.3523 186.048 70.027 185.755 69.5896 185.52C69.163 185.275 68.7203 185.152 68.2616 185.152C67.4936 185.152 66.8856 185.435 66.4376 186C65.9896 186.555 65.7656 187.269 65.7656 188.144C65.7656 189.019 65.9896 189.733 66.4376 190.288C66.8856 190.843 67.4936 191.12 68.2616 191.12Z" fill="#1A1A1A"/>
<rect y="202" width="11" height="11" rx="2" fill="#B6174B"/>
<path d="M27.384 213H25.864L24.92 210.616H19.608L18.664 213H17.144L21.448 202.328H23.096L27.384 213ZM24.536 209.448L22.264 203.688L20.008 209.448H24.536ZM35.5312 213H34.3313V211.848C33.6699 212.744 32.8006 213.192 31.7233 213.192C30.6993 213.192 29.8673 212.829 29.2273 212.104C28.5979 211.368 28.2833 210.381 28.2833 209.144C28.2833 207.917 28.6033 206.936 29.2433 206.2C29.8833 205.453 30.7099 205.08 31.7233 205.08C32.7899 205.08 33.6593 205.533 34.3313 206.44V202.328H35.5312V213ZM32.0273 212.12C32.4859 212.12 32.9286 212.003 33.3553 211.768C33.7926 211.523 34.1179 211.229 34.3313 210.888V207.4C34.1179 207.048 33.7926 206.755 33.3553 206.52C32.9286 206.275 32.4859 206.152 32.0273 206.152C31.2593 206.152 30.6513 206.435 30.2033 207C29.7553 207.555 29.5312 208.269 29.5312 209.144C29.5312 210.019 29.7553 210.733 30.2033 211.288C30.6513 211.843 31.2593 212.12 32.0273 212.12ZM44.0784 212.024C43.385 212.803 42.4624 213.192 41.3104 213.192C40.1584 213.192 39.2304 212.803 38.5264 212.024C37.833 211.245 37.4864 210.28 37.4864 209.128C37.4864 207.976 37.833 207.016 38.5264 206.248C39.2304 205.469 40.1584 205.08 41.3104 205.08C42.4624 205.08 43.385 205.469 44.0784 206.248C44.7824 207.016 45.1344 207.976 45.1344 209.128C45.1344 210.28 44.7824 211.245 44.0784 212.024ZM39.4384 211.256C39.897 211.832 40.521 212.12 41.3104 212.12C42.0997 212.12 42.7237 211.832 43.1824 211.256C43.641 210.669 43.8704 209.96 43.8704 209.128C43.8704 208.296 43.641 207.592 43.1824 207.016C42.7237 206.44 42.0997 206.152 41.3104 206.152C40.521 206.152 39.897 206.44 39.4384 207.016C38.9797 207.592 38.7504 208.296 38.7504 209.128C38.7504 209.96 38.9797 210.669 39.4384 211.256ZM48.8026 213.192C48.2373 213.192 47.8106 213.037 47.5226 212.728C47.2346 212.419 47.0906 211.971 47.0906 211.384V202.328H48.2906V211.128C48.2906 211.427 48.3546 211.667 48.4826 211.848C48.6213 212.029 48.8186 212.12 49.0746 212.12C49.4266 212.12 49.6933 212.008 49.8746 211.784L50.2426 212.696C49.88 213.027 49.4 213.192 48.8026 213.192ZM54.8915 213.192C53.7288 213.192 52.7795 212.819 52.0435 212.072C51.3075 211.315 50.9395 210.333 50.9395 209.128C50.9395 207.997 51.3022 207.043 52.0275 206.264C52.7528 205.475 53.6595 205.08 54.7475 205.08C55.8888 205.08 56.7902 205.475 57.4515 206.264C58.1235 207.043 58.4595 208.029 58.4595 209.224V209.528H52.2195C52.2728 210.285 52.5448 210.92 53.0355 211.432C53.5368 211.944 54.1875 212.2 54.9875 212.2C55.9475 212.2 56.7475 211.869 57.3875 211.208L57.9635 211.992C57.1422 212.792 56.1182 213.192 54.8915 213.192ZM57.2755 208.632C57.2648 207.981 57.0408 207.395 56.6035 206.872C56.1662 206.339 55.5422 206.072 54.7315 206.072C53.9635 206.072 53.3555 206.333 52.9075 206.856C52.4702 207.379 52.2355 207.971 52.2035 208.632H57.2755ZM62.8671 213.192C61.5658 213.192 60.5258 212.787 59.7471 211.976L60.3551 211.112C60.6218 211.421 60.9845 211.683 61.4431 211.896C61.9125 212.109 62.3978 212.216 62.8991 212.216C63.4751 212.216 63.9231 212.093 64.2431 211.848C64.5738 211.603 64.7391 211.283 64.7391 210.888C64.7391 210.547 64.5738 210.28 64.2431 210.088C63.9125 209.885 63.5125 209.736 63.0431 209.64C62.5738 209.533 62.1045 209.416 61.6351 209.288C61.1765 209.149 60.7818 208.92 60.4511 208.6C60.1205 208.269 59.9551 207.837 59.9551 207.304C59.9551 206.675 60.2111 206.147 60.7231 205.72C61.2351 205.293 61.9338 205.08 62.8191 205.08C64.0031 205.08 64.9578 205.453 65.6831 206.2L65.1231 207.032C64.5791 206.381 63.8111 206.056 62.8191 206.056C62.2965 206.056 61.8805 206.173 61.5711 206.408C61.2618 206.632 61.1071 206.92 61.1071 207.272C61.1071 207.528 61.2245 207.741 61.4591 207.912C61.6938 208.083 61.9871 208.205 62.3391 208.28C62.7018 208.355 63.0858 208.451 63.4911 208.568C63.9071 208.685 64.2911 208.819 64.6431 208.968C65.0058 209.107 65.3045 209.341 65.5391 209.672C65.7738 209.992 65.8911 210.387 65.8911 210.856C65.8911 211.539 65.6245 212.099 65.0911 212.536C64.5685 212.973 63.8271 213.192 62.8671 213.192ZM71.2486 213.192C70.1073 213.192 69.1793 212.808 68.4646 212.04C67.75 211.261 67.3926 210.291 67.3926 209.128C67.3926 207.965 67.75 207 68.4646 206.232C69.1793 205.464 70.1073 205.08 71.2486 205.08C72.4433 205.08 73.3873 205.528 74.0806 206.424L73.2806 207.144C72.8006 206.483 72.1446 206.152 71.3126 206.152C70.5126 206.152 69.8673 206.435 69.3766 207C68.886 207.555 68.6406 208.264 68.6406 209.128C68.6406 210.003 68.886 210.723 69.3766 211.288C69.8673 211.843 70.5126 212.12 71.3126 212.12C72.1233 212.12 72.7793 211.784 73.2806 211.112L74.0806 211.848C73.3873 212.744 72.4433 213.192 71.2486 213.192ZM79.2821 213.192C78.1195 213.192 77.1701 212.819 76.4341 212.072C75.6981 211.315 75.3301 210.333 75.3301 209.128C75.3301 207.997 75.6928 207.043 76.4181 206.264C77.1435 205.475 78.0501 205.08 79.1381 205.08C80.2795 205.08 81.1808 205.475 81.8421 206.264C82.5141 207.043 82.8501 208.029 82.8501 209.224V209.528H76.6101C76.6635 210.285 76.9355 210.92 77.4261 211.432C77.9275 211.944 78.5781 212.2 79.3781 212.2C80.3381 212.2 81.1381 211.869 81.7781 211.208L82.3541 211.992C81.5328 212.792 80.5088 213.192 79.2821 213.192ZM81.6661 208.632C81.6555 207.981 81.4315 207.395 80.9941 206.872C80.5568 206.339 79.9328 206.072 79.1221 206.072C78.3541 206.072 77.7461 206.333 77.2981 206.856C76.8608 207.379 76.6261 207.971 76.5941 208.632H81.6661ZM91.2098 213H90.0258V207.944C90.0258 207.293 89.8764 206.835 89.5778 206.568C89.2791 206.291 88.8471 206.152 88.2818 206.152C87.8338 206.152 87.4018 206.269 86.9858 206.504C86.5698 206.739 86.2391 207.021 85.9938 207.352V213H84.7938V205.272H85.9938V206.392C86.2924 206.029 86.6924 205.72 87.1938 205.464C87.6951 205.208 88.2178 205.08 88.7618 205.08C90.3938 205.08 91.2098 205.912 91.2098 207.576V213ZM97.0299 213.192C95.8885 213.192 94.9605 212.808 94.2459 212.04C93.5312 211.261 93.1739 210.291 93.1739 209.128C93.1739 207.965 93.5312 207 94.2459 206.232C94.9605 205.464 95.8885 205.08 97.0299 205.08C98.2245 205.08 99.1685 205.528 99.8619 206.424L99.0619 207.144C98.5819 206.483 97.9259 206.152 97.0939 206.152C96.2939 206.152 95.6485 206.435 95.1579 207C94.6672 207.555 94.4219 208.264 94.4219 209.128C94.4219 210.003 94.6672 210.723 95.1579 211.288C95.6485 211.843 96.2939 212.12 97.0939 212.12C97.9045 212.12 98.5605 211.784 99.0619 211.112L99.8619 211.848C99.1685 212.744 98.2245 213.192 97.0299 213.192ZM102.727 203.944C102.578 204.093 102.391 204.168 102.167 204.168C101.943 204.168 101.751 204.093 101.591 203.944C101.431 203.784 101.351 203.592 101.351 203.368C101.351 203.144 101.431 202.952 101.591 202.792C101.751 202.632 101.943 202.552 102.167 202.552C102.391 202.552 102.578 202.632 102.727 202.792C102.887 202.952 102.967 203.144 102.967 203.368C102.967 203.592 102.887 203.784 102.727 203.944ZM102.759 213H101.559V205.272H102.759V213ZM111.953 213H110.753V211.848C110.092 212.744 109.222 213.192 108.145 213.192C107.121 213.192 106.289 212.829 105.649 212.104C105.02 211.368 104.705 210.381 104.705 209.144C104.705 207.917 105.025 206.936 105.665 206.2C106.305 205.453 107.132 205.08 108.145 205.08C109.212 205.08 110.081 205.533 110.753 206.44V205.272H111.953V213ZM108.449 212.12C108.908 212.12 109.35 212.003 109.777 211.768C110.214 211.523 110.54 211.229 110.753 210.888V207.4C110.54 207.048 110.214 206.755 109.777 206.52C109.35 206.275 108.908 206.152 108.449 206.152C107.681 206.152 107.073 206.435 106.625 207C106.177 207.555 105.953 208.269 105.953 209.144C105.953 210.019 106.177 210.733 106.625 211.288C107.073 211.843 107.681 212.12 108.449 212.12Z" fill="#1A1A1A"/>
<rect x="162" y="160" width="11" height="11" rx="2" fill="#4B034F"/>
<path d="M181.96 171.192C180.808 171.192 179.88 170.781 179.176 169.96L179.88 168.952C180.445 169.656 181.112 170.008 181.88 170.008C182.531 170.008 183.048 169.805 183.432 169.4C183.827 168.984 184.024 168.44 184.024 167.768V160.328H185.352V167.784C185.352 168.893 185.037 169.741 184.408 170.328C183.779 170.904 182.963 171.192 181.96 171.192ZM194.21 171H193.01V169.912C192.69 170.275 192.284 170.579 191.794 170.824C191.314 171.069 190.802 171.192 190.258 171.192C188.615 171.192 187.794 170.371 187.794 168.728V163.272H188.994V168.36C188.994 169 189.143 169.453 189.442 169.72C189.74 169.987 190.172 170.12 190.738 170.12C191.186 170.12 191.618 170.008 192.034 169.784C192.45 169.56 192.775 169.283 193.01 168.952V163.272H194.21V171ZM199.982 171H198.67L195.454 163.272H196.766L199.326 169.608L201.902 163.272H203.198L199.982 171ZM207.954 171.192C206.791 171.192 205.842 170.819 205.106 170.072C204.37 169.315 204.002 168.333 204.002 167.128C204.002 165.997 204.365 165.043 205.09 164.264C205.815 163.475 206.722 163.08 207.81 163.08C208.951 163.08 209.853 163.475 210.514 164.264C211.186 165.043 211.522 166.029 211.522 167.224V167.528H205.282C205.335 168.285 205.607 168.92 206.098 169.432C206.599 169.944 207.25 170.2 208.05 170.2C209.01 170.2 209.81 169.869 210.45 169.208L211.026 169.992C210.205 170.792 209.181 171.192 207.954 171.192ZM210.338 166.632C210.327 165.981 210.103 165.395 209.666 164.872C209.229 164.339 208.605 164.072 207.794 164.072C207.026 164.072 206.418 164.333 205.97 164.856C205.533 165.379 205.298 165.971 205.266 166.632H210.338ZM219.882 171H218.698V165.944C218.698 165.293 218.548 164.835 218.25 164.568C217.951 164.291 217.519 164.152 216.954 164.152C216.506 164.152 216.074 164.269 215.658 164.504C215.242 164.739 214.911 165.021 214.666 165.352V171H213.466V163.272H214.666V164.392C214.964 164.029 215.364 163.72 215.866 163.464C216.367 163.208 216.89 163.08 217.434 163.08C219.066 163.08 219.882 163.912 219.882 165.576V171ZM224.262 171.192C223.11 171.192 222.534 170.589 222.534 169.384V164.328H221.254V163.272H222.534V161.16H223.75V163.272H225.318V164.328H223.75V169.128C223.75 169.427 223.814 169.667 223.942 169.848C224.08 170.029 224.272 170.12 224.518 170.12C224.859 170.12 225.131 170.008 225.334 169.784L225.686 170.696C225.334 171.027 224.859 171.192 224.262 171.192ZM233.413 171H232.213V169.912C231.893 170.275 231.488 170.579 230.997 170.824C230.517 171.069 230.005 171.192 229.461 171.192C227.818 171.192 226.997 170.371 226.997 168.728V163.272H228.197V168.36C228.197 169 228.346 169.453 228.645 169.72C228.944 169.987 229.376 170.12 229.941 170.12C230.389 170.12 230.821 170.008 231.237 169.784C231.653 169.56 231.978 169.283 232.213 168.952V163.272H233.413V171ZM242.609 171H241.409V169.848C240.748 170.744 239.879 171.192 238.801 171.192C237.777 171.192 236.945 170.829 236.305 170.104C235.676 169.368 235.361 168.381 235.361 167.144C235.361 165.917 235.681 164.936 236.321 164.2C236.961 163.453 237.788 163.08 238.801 163.08C239.868 163.08 240.737 163.533 241.409 164.44V160.328H242.609V171ZM239.105 170.12C239.564 170.12 240.007 170.003 240.433 169.768C240.871 169.523 241.196 169.229 241.409 168.888V165.4C241.196 165.048 240.871 164.755 240.433 164.52C240.007 164.275 239.564 164.152 239.105 164.152C238.337 164.152 237.729 164.435 237.281 165C236.833 165.555 236.609 166.269 236.609 167.144C236.609 168.019 236.833 168.733 237.281 169.288C237.729 169.843 238.337 170.12 239.105 170.12Z" fill="#1A1A1A"/>
<rect x="162" y="181" width="11" height="11" rx="2" fill="#41A5B4"/>
<path d="M189.384 192H187.864L186.92 189.616H181.608L180.664 192H179.144L183.448 181.328H185.096L189.384 192ZM186.536 188.448L184.264 182.688L182.008 188.448H186.536ZM197.531 192H196.331V190.848C195.67 191.744 194.801 192.192 193.723 192.192C192.699 192.192 191.867 191.829 191.227 191.104C190.598 190.368 190.283 189.381 190.283 188.144C190.283 186.917 190.603 185.936 191.243 185.2C191.883 184.453 192.71 184.08 193.723 184.08C194.79 184.08 195.659 184.533 196.331 185.44V181.328H197.531V192ZM194.027 191.12C194.486 191.12 194.929 191.003 195.355 190.768C195.793 190.523 196.118 190.229 196.331 189.888V186.4C196.118 186.048 195.793 185.755 195.355 185.52C194.929 185.275 194.486 185.152 194.027 185.152C193.259 185.152 192.651 185.435 192.203 186C191.755 186.555 191.531 187.269 191.531 188.144C191.531 189.019 191.755 189.733 192.203 190.288C192.651 190.843 193.259 191.12 194.027 191.12ZM206.35 192H205.15V190.912C204.83 191.275 204.425 191.579 203.934 191.824C203.454 192.069 202.942 192.192 202.398 192.192C200.756 192.192 199.934 191.371 199.934 189.728V184.272H201.134V189.36C201.134 190 201.284 190.453 201.582 190.72C201.881 190.987 202.313 191.12 202.878 191.12C203.326 191.12 203.758 191.008 204.174 190.784C204.59 190.56 204.916 190.283 205.15 189.952V184.272H206.35V192ZM210.459 192.192C209.894 192.192 209.467 192.037 209.179 191.728C208.891 191.419 208.747 190.971 208.747 190.384V181.328H209.947V190.128C209.947 190.427 210.011 190.667 210.139 190.848C210.278 191.029 210.475 191.12 210.731 191.12C211.083 191.12 211.35 191.008 211.531 190.784L211.899 191.696C211.536 192.027 211.056 192.192 210.459 192.192ZM215.012 192.192C213.86 192.192 213.284 191.589 213.284 190.384V185.328H212.004V184.272H213.284V182.16H214.5V184.272H216.068V185.328H214.5V190.128C214.5 190.427 214.564 190.667 214.692 190.848C214.83 191.029 215.022 191.12 215.268 191.12C215.609 191.12 215.881 191.008 216.084 190.784L216.436 191.696C216.084 192.027 215.609 192.192 215.012 192.192ZM221.251 192.192C220.088 192.192 219.139 191.819 218.403 191.072C217.667 190.315 217.299 189.333 217.299 188.128C217.299 186.997 217.662 186.043 218.387 185.264C219.112 184.475 220.019 184.08 221.107 184.08C222.248 184.08 223.15 184.475 223.811 185.264C224.483 186.043 224.819 187.029 224.819 188.224V188.528H218.579C218.632 189.285 218.904 189.92 219.395 190.432C219.896 190.944 220.547 191.2 221.347 191.2C222.307 191.2 223.107 190.869 223.747 190.208L224.323 190.992C223.502 191.792 222.478 192.192 221.251 192.192ZM223.635 187.632C223.624 186.981 223.4 186.395 222.963 185.872C222.526 185.339 221.902 185.072 221.091 185.072C220.323 185.072 219.715 185.333 219.267 185.856C218.83 186.379 218.595 186.971 218.563 187.632H223.635ZM232.283 192H226.395V191.056L230.651 185.328H226.395V184.272H232.219V185.184L227.931 190.944H232.283V192Z" fill="#1A1A1A"/>
<rect x="162" y="202" width="11" height="11" rx="2" fill="#698F3F"/>
<path d="M181.576 213H180.248V202.328H184.536C185.571 202.328 186.387 202.637 186.984 203.256C187.581 203.875 187.88 204.637 187.88 205.544C187.88 206.451 187.576 207.213 186.968 207.832C186.371 208.451 185.56 208.76 184.536 208.76H181.576V213ZM184.376 207.576C185.005 207.576 185.517 207.389 185.912 207.016C186.307 206.632 186.504 206.141 186.504 205.544C186.504 204.947 186.307 204.461 185.912 204.088C185.517 203.704 185.005 203.512 184.376 203.512H181.576V207.576H184.376ZM192.891 213.192C191.729 213.192 190.78 212.819 190.044 212.072C189.308 211.315 188.94 210.333 188.94 209.128C188.94 207.997 189.302 207.043 190.028 206.264C190.753 205.475 191.66 205.08 192.748 205.08C193.889 205.08 194.79 205.475 195.452 206.264C196.124 207.043 196.46 208.029 196.46 209.224V209.528H190.22C190.273 210.285 190.545 210.92 191.036 211.432C191.537 211.944 192.188 212.2 192.988 212.2C193.948 212.2 194.748 211.869 195.388 211.208L195.964 211.992C195.142 212.792 194.118 213.192 192.891 213.192ZM195.276 208.632C195.265 207.981 195.041 207.395 194.604 206.872C194.166 206.339 193.542 206.072 192.732 206.072C191.964 206.072 191.356 206.333 190.908 206.856C190.47 207.379 190.236 207.971 190.204 208.632H195.276ZM199.603 213H198.403V205.272H199.603V206.504C200.339 205.565 201.198 205.096 202.179 205.096V206.328C201.987 206.307 201.832 206.296 201.715 206.296C201.342 206.296 200.942 206.424 200.515 206.68C200.088 206.925 199.784 207.208 199.603 207.528V213ZM206.148 213.192C204.847 213.192 203.807 212.787 203.028 211.976L203.636 211.112C203.903 211.421 204.266 211.683 204.724 211.896C205.194 212.109 205.679 212.216 206.18 212.216C206.756 212.216 207.204 212.093 207.524 211.848C207.855 211.603 208.02 211.283 208.02 210.888C208.02 210.547 207.855 210.28 207.524 210.088C207.194 209.885 206.794 209.736 206.324 209.64C205.855 209.533 205.386 209.416 204.916 209.288C204.458 209.149 204.063 208.92 203.732 208.6C203.402 208.269 203.236 207.837 203.236 207.304C203.236 206.675 203.492 206.147 204.004 205.72C204.516 205.293 205.215 205.08 206.1 205.08C207.284 205.08 208.239 205.453 208.964 206.2L208.404 207.032C207.86 206.381 207.092 206.056 206.1 206.056C205.578 206.056 205.162 206.173 204.852 206.408C204.543 206.632 204.388 206.92 204.388 207.272C204.388 207.528 204.506 207.741 204.74 207.912C204.975 208.083 205.268 208.205 205.62 208.28C205.983 208.355 206.367 208.451 206.772 208.568C207.188 208.685 207.572 208.819 207.924 208.968C208.287 209.107 208.586 209.341 208.82 209.672C209.055 209.992 209.172 210.387 209.172 210.856C209.172 211.539 208.906 212.099 208.372 212.536C207.85 212.973 207.108 213.192 206.148 213.192ZM217.266 212.024C216.573 212.803 215.65 213.192 214.498 213.192C213.346 213.192 212.418 212.803 211.714 212.024C211.021 211.245 210.674 210.28 210.674 209.128C210.674 207.976 211.021 207.016 211.714 206.248C212.418 205.469 213.346 205.08 214.498 205.08C215.65 205.08 216.573 205.469 217.266 206.248C217.97 207.016 218.322 207.976 218.322 209.128C218.322 210.28 217.97 211.245 217.266 212.024ZM212.626 211.256C213.085 211.832 213.709 212.12 214.498 212.12C215.287 212.12 215.911 211.832 216.37 211.256C216.829 210.669 217.058 209.96 217.058 209.128C217.058 208.296 216.829 207.592 216.37 207.016C215.911 206.44 215.287 206.152 214.498 206.152C213.709 206.152 213.085 206.44 212.626 207.016C212.167 207.592 211.938 208.296 211.938 209.128C211.938 209.96 212.167 210.669 212.626 211.256ZM226.694 213H225.51V207.944C225.51 207.293 225.361 206.835 225.062 206.568C224.763 206.291 224.331 206.152 223.766 206.152C223.318 206.152 222.886 206.269 222.47 206.504C222.054 206.739 221.723 207.021 221.478 207.352V213H220.278V205.272H221.478V206.392C221.777 206.029 222.177 205.72 222.678 205.464C223.179 205.208 223.702 205.08 224.246 205.08C225.878 205.08 226.694 205.912 226.694 207.576V213ZM235.906 213H234.706V211.848C234.045 212.744 233.176 213.192 232.098 213.192C231.074 213.192 230.242 212.829 229.602 212.104C228.973 211.368 228.658 210.381 228.658 209.144C228.658 207.917 228.978 206.936 229.618 206.2C230.258 205.453 231.085 205.08 232.098 205.08C233.165 205.08 234.034 205.533 234.706 206.44V205.272H235.906V213ZM232.402 212.12C232.861 212.12 233.304 212.003 233.73 211.768C234.168 211.523 234.493 211.229 234.706 210.888V207.4C234.493 207.048 234.168 206.755 233.73 206.52C233.304 206.275 232.861 206.152 232.402 206.152C231.634 206.152 231.026 206.435 230.578 207C230.13 207.555 229.906 208.269 229.906 209.144C229.906 210.019 230.13 210.733 230.578 211.288C231.026 211.843 231.634 212.12 232.402 212.12ZM252.946 213H251.618V204.024L248.002 213H247.458L243.826 204.024V213H242.498V202.328H244.402L247.73 210.552L251.042 202.328H252.946V213ZM262.188 213H260.988V211.848C260.326 212.744 259.457 213.192 258.38 213.192C257.356 213.192 256.524 212.829 255.884 212.104C255.254 211.368 254.94 210.381 254.94 209.144C254.94 207.917 255.26 206.936 255.9 206.2C256.54 205.453 257.366 205.08 258.38 205.08C259.446 205.08 260.316 205.533 260.988 206.44V205.272H262.188V213ZM258.684 212.12C259.142 212.12 259.585 212.003 260.012 211.768C260.449 211.523 260.774 211.229 260.988 210.888V207.4C260.774 207.048 260.449 206.755 260.012 206.52C259.585 206.275 259.142 206.152 258.684 206.152C257.916 206.152 257.308 206.435 256.86 207C256.412 207.555 256.188 208.269 256.188 209.144C256.188 210.019 256.412 210.733 256.86 211.288C257.308 211.843 257.916 212.12 258.684 212.12ZM267.471 216.136C266.276 216.136 265.289 215.747 264.511 214.968L265.119 214.104C265.673 214.797 266.457 215.144 267.471 215.144C268.196 215.144 268.767 214.947 269.183 214.552C269.599 214.157 269.807 213.608 269.807 212.904V211.752C269.487 212.115 269.081 212.419 268.591 212.664C268.111 212.909 267.599 213.032 267.055 213.032C265.412 213.032 264.591 212.211 264.591 210.568V205.272H265.791V210.2C265.791 210.851 265.94 211.309 266.239 211.576C266.537 211.843 266.969 211.976 267.535 211.976C267.972 211.976 268.399 211.864 268.815 211.64C269.241 211.405 269.572 211.128 269.807 210.808V205.272H271.007V212.904C271.007 213.949 270.671 214.749 269.999 215.304C269.327 215.859 268.484 216.136 267.471 216.136ZM279.547 212.024C278.854 212.803 277.931 213.192 276.779 213.192C275.627 213.192 274.699 212.803 273.995 212.024C273.302 211.245 272.955 210.28 272.955 209.128C272.955 207.976 273.302 207.016 273.995 206.248C274.699 205.469 275.627 205.08 276.779 205.08C277.931 205.08 278.854 205.469 279.547 206.248C280.251 207.016 280.603 207.976 280.603 209.128C280.603 210.28 280.251 211.245 279.547 212.024ZM274.907 211.256C275.366 211.832 275.99 212.12 276.779 212.12C277.568 212.12 278.192 211.832 278.651 211.256C279.11 210.669 279.339 209.96 279.339 209.128C279.339 208.296 279.11 207.592 278.651 207.016C278.192 206.44 277.568 206.152 276.779 206.152C275.99 206.152 275.366 206.44 274.907 207.016C274.448 207.592 274.219 208.296 274.219 209.128C274.219 209.96 274.448 210.669 274.907 211.256ZM283.759 213H282.559V205.272H283.759V206.504C284.495 205.565 285.354 205.096 286.335 205.096V206.328C286.143 206.307 285.989 206.296 285.871 206.296C285.498 206.296 285.098 206.424 284.671 206.68C284.245 206.925 283.941 207.208 283.759 207.528V213Z" fill="#1A1A1A"/>
<rect opacity="0.2" x="11" width="20" height="109" rx="10" fill="#1A1A1A"/>
<rect x="11" y="78.4375" width="20" height="30.5607" rx="10" fill="#1D5556"/>
<path d="M11.176 130H9.848V121.072L8.136 122.896L7.336 122.08L10.008 119.328H11.176V130ZM17.3179 130.192C16.6139 130.192 15.9899 130.032 15.4459 129.712C14.9125 129.381 14.4859 128.944 14.1659 128.4C13.8565 127.856 13.6219 127.269 13.4619 126.64C13.3125 126.011 13.2379 125.355 13.2379 124.672C13.2379 123.989 13.3125 123.333 13.4619 122.704C13.6219 122.075 13.8565 121.493 14.1659 120.96C14.4859 120.416 14.9125 119.984 15.4459 119.664C15.9899 119.333 16.6139 119.168 17.3179 119.168C18.0112 119.168 18.6299 119.333 19.1739 119.664C19.7179 119.984 20.1445 120.416 20.4539 120.96C20.7739 121.493 21.0085 122.075 21.1579 122.704C21.3179 123.333 21.3979 123.989 21.3979 124.672C21.3979 125.355 21.3179 126.011 21.1579 126.64C21.0085 127.269 20.7739 127.856 20.4539 128.4C20.1445 128.944 19.7179 129.381 19.1739 129.712C18.6299 130.032 18.0112 130.192 17.3179 130.192ZM15.7179 128.352C16.1445 128.789 16.6779 129.008 17.3179 129.008C17.9579 129.008 18.4912 128.789 18.9179 128.352C19.3445 127.904 19.6379 127.371 19.7979 126.752C19.9579 126.133 20.0379 125.44 20.0379 124.672C20.0379 123.904 19.9579 123.211 19.7979 122.592C19.6379 121.973 19.3445 121.445 18.9179 121.008C18.4912 120.571 17.9579 120.352 17.3179 120.352C16.6779 120.352 16.1445 120.571 15.7179 121.008C15.2912 121.445 14.9979 121.973 14.8379 122.592C14.6779 123.211 14.5979 123.904 14.5979 124.672C14.5979 125.44 14.6779 126.133 14.8379 126.752C14.9979 127.371 15.2912 127.904 15.7179 128.352ZM27.1468 123.696C26.6668 124.187 26.0481 124.432 25.2908 124.432C24.5334 124.432 23.9148 124.187 23.4348 123.696C22.9548 123.195 22.7148 122.571 22.7148 121.824C22.7148 121.056 22.9548 120.421 23.4348 119.92C23.9148 119.419 24.5334 119.168 25.2908 119.168C26.0481 119.168 26.6668 119.419 27.1468 119.92C27.6268 120.421 27.8668 121.056 27.8668 121.824C27.8668 122.571 27.6268 123.195 27.1468 123.696ZM25.1468 130H24.2668L31.0828 119.328H31.9788L25.1468 130ZM32.6988 129.456C32.2294 129.947 31.6161 130.192 30.8588 130.192C30.1014 130.192 29.4828 129.941 29.0028 129.44C28.5228 128.939 28.2828 128.315 28.2828 127.568C28.2828 126.811 28.5228 126.181 29.0028 125.68C29.4828 125.179 30.1014 124.928 30.8588 124.928C31.6054 124.928 32.2188 125.179 32.6988 125.68C33.1788 126.181 33.4188 126.811 33.4188 127.568C33.4188 128.325 33.1788 128.955 32.6988 129.456ZM24.1228 123.104C24.4321 123.445 24.8214 123.616 25.2908 123.616C25.7601 123.616 26.1441 123.445 26.4427 123.104C26.7521 122.763 26.9068 122.336 26.9068 121.824C26.9068 121.291 26.7574 120.853 26.4588 120.512C26.1601 120.16 25.7708 119.984 25.2908 119.984C24.8214 119.984 24.4321 120.16 24.1228 120.512C23.8241 120.853 23.6748 121.291 23.6748 121.824C23.6748 122.336 23.8241 122.763 24.1228 123.104ZM29.6748 128.864C29.9841 129.205 30.3788 129.376 30.8588 129.376C31.3388 129.376 31.7281 129.205 32.0268 128.864C32.3254 128.523 32.4748 128.091 32.4748 127.568C32.4748 127.045 32.3254 126.613 32.0268 126.272C31.7281 125.92 31.3388 125.744 30.8588 125.744C30.3788 125.744 29.9841 125.92 29.6748 126.272C29.3761 126.613 29.2268 127.045 29.2268 127.568C29.2268 128.091 29.3761 128.523 29.6748 128.864Z" fill="#1A1A1A"/>
<rect opacity="0.2" x="105" width="20" height="109" rx="10" fill="#1A1A1A"/>
<rect x="105" y="68.25" width="20" height="40.7477" rx="10" fill="#B6174B"/>
<path d="M105.176 130H103.848V121.072L102.136 122.896L101.336 122.08L104.008 119.328H105.176V130ZM113.334 130H112.006V127.296H106.934V126.192L111.51 119.328H113.334V126.128H114.838V127.296H113.334V130ZM112.006 126.128V120.56L108.262 126.128H112.006ZM120.272 123.696C119.792 124.187 119.173 124.432 118.416 124.432C117.658 124.432 117.04 124.187 116.56 123.696C116.08 123.195 115.84 122.571 115.84 121.824C115.84 121.056 116.08 120.421 116.56 119.92C117.04 119.419 117.658 119.168 118.416 119.168C119.173 119.168 119.792 119.419 120.272 119.92C120.752 120.421 120.992 121.056 120.992 121.824C120.992 122.571 120.752 123.195 120.272 123.696ZM118.272 130H117.392L124.208 119.328H125.104L118.272 130ZM125.824 129.456C125.354 129.947 124.741 130.192 123.984 130.192C123.226 130.192 122.608 129.941 122.128 129.44C121.648 128.939 121.408 128.315 121.408 127.568C121.408 126.811 121.648 126.181 122.128 125.68C122.608 125.179 123.226 124.928 123.984 124.928C124.73 124.928 125.344 125.179 125.824 125.68C126.304 126.181 126.544 126.811 126.544 127.568C126.544 128.325 126.304 128.955 125.824 129.456ZM117.248 123.104C117.557 123.445 117.946 123.616 118.416 123.616C118.885 123.616 119.269 123.445 119.568 123.104C119.877 122.763 120.032 122.336 120.032 121.824C120.032 121.291 119.882 120.853 119.584 120.512C119.285 120.16 118.896 119.984 118.416 119.984C117.946 119.984 117.557 120.16 117.248 120.512C116.949 120.853 116.8 121.291 116.8 121.824C116.8 122.336 116.949 122.763 117.248 123.104ZM122.8 128.864C123.109 129.205 123.504 129.376 123.984 129.376C124.464 129.376 124.853 129.205 125.152 128.864C125.45 128.523 125.6 128.091 125.6 127.568C125.6 127.045 125.45 126.613 125.152 126.272C124.853 125.92 124.464 125.744 123.984 125.744C123.504 125.744 123.109 125.92 122.8 126.272C122.501 126.613 122.352 127.045 122.352 127.568C122.352 128.091 122.501 128.523 122.8 128.864Z" fill="#1A1A1A"/>
<rect opacity="0.2" x="58" width="20" height="109" rx="10" fill="#1A1A1A"/>
<rect x="58" y="68.25" width="20" height="40.7477" rx="10" fill="#FAAA8D"/>
<path d="M58.176 130H56.848V121.072L55.136 122.896L54.336 122.08L57.008 119.328H58.176V130ZM67.6139 130H60.2859V128.928C62.4725 127.221 64.0085 125.904 64.8939 124.976C65.7792 124.048 66.2219 123.157 66.2219 122.304C66.2219 121.664 65.9979 121.179 65.5499 120.848C65.1125 120.517 64.5899 120.352 63.9819 120.352C62.7552 120.352 61.7899 120.8 61.0859 121.696L60.2699 120.848C60.6752 120.315 61.2032 119.904 61.8539 119.616C62.5152 119.317 63.2245 119.168 63.9819 119.168C64.9525 119.168 65.7899 119.44 66.4939 119.984C67.2085 120.528 67.5659 121.301 67.5659 122.304C67.5659 123.296 67.1392 124.288 66.2859 125.28C65.4325 126.261 64.1312 127.44 62.3819 128.816H67.6139V130ZM73.7561 123.696C73.2761 124.187 72.6575 124.432 71.9001 124.432C71.1428 124.432 70.5241 124.187 70.0441 123.696C69.5641 123.195 69.3241 122.571 69.3241 121.824C69.3241 121.056 69.5641 120.421 70.0441 119.92C70.5241 119.419 71.1428 119.168 71.9001 119.168C72.6575 119.168 73.2761 119.419 73.7561 119.92C74.2361 120.421 74.4761 121.056 74.4761 121.824C74.4761 122.571 74.2361 123.195 73.7561 123.696ZM71.7561 130H70.8761L77.6921 119.328H78.5881L71.7561 130ZM79.3081 129.456C78.8388 129.947 78.2255 130.192 77.4681 130.192C76.7108 130.192 76.0921 129.941 75.6121 129.44C75.1321 128.939 74.8921 128.315 74.8921 127.568C74.8921 126.811 75.1321 126.181 75.6121 125.68C76.0921 125.179 76.7108 124.928 77.4681 124.928C78.2148 124.928 78.8281 125.179 79.3081 125.68C79.7881 126.181 80.0281 126.811 80.0281 127.568C80.0281 128.325 79.7881 128.955 79.3081 129.456ZM70.7321 123.104C71.0415 123.445 71.4308 123.616 71.9001 123.616C72.3695 123.616 72.7535 123.445 73.0521 123.104C73.3615 122.763 73.5161 122.336 73.5161 121.824C73.5161 121.291 73.3668 120.853 73.0681 120.512C72.7695 120.16 72.3801 119.984 71.9001 119.984C71.4308 119.984 71.0415 120.16 70.7321 120.512C70.4335 120.853 70.2841 121.291 70.2841 121.824C70.2841 122.336 70.4335 122.763 70.7321 123.104ZM76.2841 128.864C76.5935 129.205 76.9881 129.376 77.4681 129.376C77.9481 129.376 78.3375 129.205 78.6361 128.864C78.9348 128.523 79.0841 128.091 79.0841 127.568C79.0841 127.045 78.9348 126.613 78.6361 126.272C78.3375 125.92 77.9481 125.744 77.4681 125.744C76.9881 125.744 76.5935 125.92 76.2841 126.272C75.9855 126.613 75.8361 127.045 75.8361 127.568C75.8361 128.091 75.9855 128.523 76.2841 128.864Z" fill="#1A1A1A"/>
<rect opacity="0.2" x="254" width="20" height="109" rx="10" fill="#1A1A1A"/>
<rect x="254" y="27.5" width="20" height="81.4953" rx="10" fill="#4B034F"/>
<path d="M253.408 130H251.936L256.24 120.512H250.496V119.328H257.776V120.24L253.408 130ZM265.61 129.408C264.885 129.931 263.978 130.192 262.89 130.192C261.802 130.192 260.89 129.931 260.154 129.408C259.429 128.885 259.066 128.181 259.066 127.296C259.066 126.624 259.306 126.043 259.786 125.552C260.277 125.061 260.885 124.709 261.61 124.496C260.928 124.304 260.362 123.995 259.914 123.568C259.466 123.131 259.242 122.587 259.242 121.936C259.242 121.04 259.605 120.357 260.33 119.888C261.056 119.408 261.909 119.168 262.89 119.168C263.872 119.168 264.725 119.408 265.45 119.888C266.186 120.357 266.554 121.04 266.554 121.936C266.554 122.587 266.325 123.131 265.866 123.568C265.418 123.995 264.853 124.304 264.17 124.496C264.896 124.709 265.498 125.061 265.978 125.552C266.469 126.043 266.714 126.624 266.714 127.296C266.714 128.171 266.346 128.875 265.61 129.408ZM262.89 123.952C263.104 123.92 263.317 123.867 263.53 123.792C263.754 123.717 264.005 123.616 264.282 123.488C264.56 123.349 264.784 123.163 264.954 122.928C265.125 122.683 265.21 122.411 265.21 122.112C265.21 121.579 264.986 121.152 264.538 120.832C264.101 120.512 263.552 120.352 262.89 120.352C262.229 120.352 261.68 120.512 261.242 120.832C260.805 121.141 260.586 121.568 260.586 122.112C260.586 122.411 260.672 122.683 260.842 122.928C261.013 123.163 261.237 123.349 261.514 123.488C261.792 123.616 262.037 123.717 262.25 123.792C262.464 123.867 262.677 123.92 262.89 123.952ZM262.89 129.008C263.573 129.008 264.154 128.837 264.634 128.496C265.125 128.155 265.37 127.707 265.37 127.152C265.37 126.725 265.2 126.352 264.858 126.032C264.528 125.701 264.186 125.472 263.834 125.344C263.493 125.205 263.178 125.12 262.89 125.088C262.602 125.12 262.282 125.205 261.93 125.344C261.589 125.472 261.248 125.701 260.906 126.032C260.576 126.352 260.41 126.725 260.41 127.152C260.41 127.707 260.65 128.155 261.13 128.496C261.61 128.837 262.197 129.008 262.89 129.008ZM272.475 123.696C271.995 124.187 271.376 124.432 270.619 124.432C269.862 124.432 269.243 124.187 268.763 123.696C268.283 123.195 268.043 122.571 268.043 121.824C268.043 121.056 268.283 120.421 268.763 119.92C269.243 119.419 269.862 119.168 270.619 119.168C271.376 119.168 271.995 119.419 272.475 119.92C272.955 120.421 273.195 121.056 273.195 121.824C273.195 122.571 272.955 123.195 272.475 123.696ZM270.475 130H269.595L276.411 119.328H277.307L270.475 130ZM278.027 129.456C277.558 129.947 276.944 130.192 276.187 130.192C275.43 130.192 274.811 129.941 274.331 129.44C273.851 128.939 273.611 128.315 273.611 127.568C273.611 126.811 273.851 126.181 274.331 125.68C274.811 125.179 275.43 124.928 276.187 124.928C276.934 124.928 277.547 125.179 278.027 125.68C278.507 126.181 278.747 126.811 278.747 127.568C278.747 128.325 278.507 128.955 278.027 129.456ZM269.451 123.104C269.76 123.445 270.15 123.616 270.619 123.616C271.088 123.616 271.472 123.445 271.771 123.104C272.08 122.763 272.235 122.336 272.235 121.824C272.235 121.291 272.086 120.853 271.787 120.512C271.488 120.16 271.099 119.984 270.619 119.984C270.15 119.984 269.76 120.16 269.451 120.512C269.152 120.853 269.003 121.291 269.003 121.824C269.003 122.336 269.152 122.763 269.451 123.104ZM275.003 128.864C275.312 129.205 275.707 129.376 276.187 129.376C276.667 129.376 277.056 129.205 277.355 128.864C277.654 128.523 277.803 128.091 277.803 127.568C277.803 127.045 277.654 126.613 277.355 126.272C277.056 125.92 276.667 125.744 276.187 125.744C275.707 125.744 275.312 125.92 275.003 126.272C274.704 126.613 274.555 127.045 274.555 127.568C274.555 128.091 274.704 128.523 275.003 128.864Z" fill="#1A1A1A"/>
<rect opacity="0.2" x="204" width="20" height="109" rx="10" fill="#1A1A1A"/>
<rect x="204" y="47.875" width="20" height="61.1215" rx="10" fill="#41A5B4"/>
<path d="M203.944 130.192C203.219 130.192 202.584 130.043 202.04 129.744C201.496 129.445 201.064 129.035 200.744 128.512C200.435 127.989 200.2 127.408 200.04 126.768C199.891 126.128 199.816 125.429 199.816 124.672C199.816 123.115 200.184 121.808 200.92 120.752C201.667 119.696 202.749 119.168 204.168 119.168C205.405 119.168 206.387 119.595 207.112 120.448L206.44 121.44C205.821 120.715 205.064 120.352 204.168 120.352C203.197 120.352 202.451 120.763 201.928 121.584C201.416 122.405 201.16 123.392 201.16 124.544V124.96C201.427 124.533 201.837 124.149 202.392 123.808C202.957 123.467 203.555 123.296 204.184 123.296C205.197 123.296 206.029 123.595 206.68 124.192C207.341 124.779 207.672 125.616 207.672 126.704C207.672 127.664 207.331 128.485 206.648 129.168C205.965 129.851 205.064 130.192 203.944 130.192ZM203.88 129.008C204.648 129.008 205.245 128.773 205.672 128.304C206.109 127.835 206.328 127.317 206.328 126.752C206.328 126.005 206.099 125.435 205.64 125.04C205.181 124.645 204.595 124.448 203.88 124.448C203.357 124.448 202.856 124.597 202.376 124.896C201.896 125.184 201.507 125.563 201.208 126.032C201.272 126.821 201.523 127.515 201.96 128.112C202.397 128.709 203.037 129.008 203.88 129.008ZM212.709 130.192C211.856 130.192 211.098 130.027 210.437 129.696C209.776 129.365 209.269 128.944 208.917 128.432L209.701 127.6C210.021 128.027 210.442 128.368 210.965 128.624C211.488 128.88 212.058 129.008 212.677 129.008C213.445 129.008 214.053 128.827 214.501 128.464C214.949 128.101 215.173 127.616 215.173 127.008C215.173 126.368 214.933 125.893 214.453 125.584C213.984 125.275 213.338 125.12 212.517 125.12C211.888 125.12 211.52 125.125 211.413 125.136V123.92C211.53 123.931 211.898 123.936 212.517 123.936C213.242 123.936 213.834 123.792 214.293 123.504C214.762 123.205 214.997 122.763 214.997 122.176C214.997 121.611 214.768 121.168 214.309 120.848C213.861 120.517 213.296 120.352 212.613 120.352C211.536 120.352 210.597 120.784 209.797 121.648L209.061 120.816C209.957 119.717 211.178 119.168 212.725 119.168C213.781 119.168 214.645 119.424 215.317 119.936C215.989 120.437 216.325 121.125 216.325 122C216.325 122.704 216.09 123.269 215.621 123.696C215.152 124.123 214.624 124.384 214.037 124.48C214.624 124.544 215.178 124.805 215.701 125.264C216.234 125.723 216.501 126.341 216.501 127.12C216.501 128.027 216.154 128.768 215.461 129.344C214.778 129.909 213.861 130.192 212.709 130.192ZM222.287 123.696C221.807 124.187 221.189 124.432 220.431 124.432C219.674 124.432 219.055 124.187 218.575 123.696C218.095 123.195 217.855 122.571 217.855 121.824C217.855 121.056 218.095 120.421 218.575 119.92C219.055 119.419 219.674 119.168 220.431 119.168C221.189 119.168 221.807 119.419 222.287 119.92C222.767 120.421 223.007 121.056 223.007 121.824C223.007 122.571 222.767 123.195 222.287 123.696ZM220.287 130H219.407L226.223 119.328H227.119L220.287 130ZM227.839 129.456C227.37 129.947 226.757 130.192 225.999 130.192C225.242 130.192 224.623 129.941 224.143 129.44C223.663 128.939 223.423 128.315 223.423 127.568C223.423 126.811 223.663 126.181 224.143 125.68C224.623 125.179 225.242 124.928 225.999 124.928C226.746 124.928 227.359 125.179 227.839 125.68C228.319 126.181 228.559 126.811 228.559 127.568C228.559 128.325 228.319 128.955 227.839 129.456ZM219.263 123.104C219.573 123.445 219.962 123.616 220.431 123.616C220.901 123.616 221.285 123.445 221.583 123.104C221.893 122.763 222.047 122.336 222.047 121.824C222.047 121.291 221.898 120.853 221.599 120.512C221.301 120.16 220.911 119.984 220.431 119.984C219.962 119.984 219.573 120.16 219.263 120.512C218.965 120.853 218.815 121.291 218.815 121.824C218.815 122.336 218.965 122.763 219.263 123.104ZM224.815 128.864C225.125 129.205 225.519 129.376 225.999 129.376C226.479 129.376 226.869 129.205 227.167 128.864C227.466 128.523 227.615 128.091 227.615 127.568C227.615 127.045 227.466 126.613 227.167 126.272C226.869 125.92 226.479 125.744 225.999 125.744C225.519 125.744 225.125 125.92 224.815 126.272C224.517 126.613 224.367 127.045 224.367 127.568C224.367 128.091 224.517 128.523 224.815 128.864Z" fill="#1A1A1A"/>
<rect opacity="0.2" x="154" width="20" height="109" rx="10" fill="#1A1A1A"/>
<rect x="154" y="47.875" width="20" height="61.1215" rx="10" fill="#698F3F"/>
<path d="M152.944 130.192C152.219 130.192 151.584 130.043 151.04 129.744C150.496 129.445 150.064 129.035 149.744 128.512C149.435 127.989 149.2 127.408 149.04 126.768C148.891 126.128 148.816 125.429 148.816 124.672C148.816 123.115 149.184 121.808 149.92 120.752C150.667 119.696 151.749 119.168 153.168 119.168C154.405 119.168 155.387 119.595 156.112 120.448L155.44 121.44C154.821 120.715 154.064 120.352 153.168 120.352C152.197 120.352 151.451 120.763 150.928 121.584C150.416 122.405 150.16 123.392 150.16 124.544V124.96C150.427 124.533 150.837 124.149 151.392 123.808C151.957 123.467 152.555 123.296 153.184 123.296C154.197 123.296 155.029 123.595 155.68 124.192C156.341 124.779 156.672 125.616 156.672 126.704C156.672 127.664 156.331 128.485 155.648 129.168C154.965 129.851 154.064 130.192 152.944 130.192ZM152.88 129.008C153.648 129.008 154.245 128.773 154.672 128.304C155.109 127.835 155.328 127.317 155.328 126.752C155.328 126.005 155.099 125.435 154.64 125.04C154.181 124.645 153.595 124.448 152.88 124.448C152.357 124.448 151.856 124.597 151.376 124.896C150.896 125.184 150.507 125.563 150.208 126.032C150.272 126.821 150.523 127.515 150.96 128.112C151.397 128.709 152.037 129.008 152.88 129.008ZM165.645 130H158.317V128.928C160.504 127.221 162.04 125.904 162.925 124.976C163.81 124.048 164.253 123.157 164.253 122.304C164.253 121.664 164.029 121.179 163.581 120.848C163.144 120.517 162.621 120.352 162.013 120.352C160.786 120.352 159.821 120.8 159.117 121.696L158.301 120.848C158.706 120.315 159.234 119.904 159.885 119.616C160.546 119.317 161.256 119.168 162.013 119.168C162.984 119.168 163.821 119.44 164.525 119.984C165.24 120.528 165.597 121.301 165.597 122.304C165.597 123.296 165.17 124.288 164.317 125.28C163.464 126.261 162.162 127.44 160.413 128.816H165.645V130ZM171.787 123.696C171.307 124.187 170.689 124.432 169.931 124.432C169.174 124.432 168.555 124.187 168.075 123.696C167.595 123.195 167.355 122.571 167.355 121.824C167.355 121.056 167.595 120.421 168.075 119.92C168.555 119.419 169.174 119.168 169.931 119.168C170.689 119.168 171.307 119.419 171.787 119.92C172.267 120.421 172.507 121.056 172.507 121.824C172.507 122.571 172.267 123.195 171.787 123.696ZM169.787 130H168.907L175.723 119.328H176.619L169.787 130ZM177.339 129.456C176.87 129.947 176.257 130.192 175.499 130.192C174.742 130.192 174.123 129.941 173.643 129.44C173.163 128.939 172.923 128.315 172.923 127.568C172.923 126.811 173.163 126.181 173.643 125.68C174.123 125.179 174.742 124.928 175.499 124.928C176.246 124.928 176.859 125.179 177.339 125.68C177.819 126.181 178.059 126.811 178.059 127.568C178.059 128.325 177.819 128.955 177.339 129.456ZM168.763 123.104C169.073 123.445 169.462 123.616 169.931 123.616C170.401 123.616 170.785 123.445 171.083 123.104C171.393 122.763 171.547 122.336 171.547 121.824C171.547 121.291 171.398 120.853 171.099 120.512C170.801 120.16 170.411 119.984 169.931 119.984C169.462 119.984 169.073 120.16 168.763 120.512C168.465 120.853 168.315 121.291 168.315 121.824C168.315 122.336 168.465 122.763 168.763 123.104ZM174.315 128.864C174.625 129.205 175.019 129.376 175.499 129.376C175.979 129.376 176.369 129.205 176.667 128.864C176.966 128.523 177.115 128.091 177.115 127.568C177.115 127.045 176.966 126.613 176.667 126.272C176.369 125.92 175.979 125.744 175.499 125.744C175.019 125.744 174.625 125.92 174.315 126.272C174.017 126.613 173.867 127.045 173.867 127.568C173.867 128.091 174.017 128.523 174.315 128.864Z" fill="#1A1A1A"/>
</svg>
