<svg width="306" height="219" viewBox="0 0 306 219" fill="none" xmlns="http://www.w3.org/2000/svg">
<path opacity="0.4" d="M26 13L26 184L306 184" stroke="#1A1A1A"/>
<path opacity="0.8" d="M11.978 187.156C11.406 187.156 10.899 187.026 10.457 186.766C10.0237 186.497 9.677 186.142 9.417 185.7C9.16567 185.258 8.975 184.781 8.845 184.27C8.72367 183.759 8.663 183.226 8.663 182.671C8.663 182.116 8.72367 181.583 8.845 181.072C8.975 180.561 9.16567 180.088 9.417 179.655C9.677 179.213 10.0237 178.862 10.457 178.602C10.899 178.333 11.406 178.199 11.978 178.199C12.5413 178.199 13.044 178.333 13.486 178.602C13.928 178.862 14.2747 179.213 14.526 179.655C14.786 180.088 14.9767 180.561 15.098 181.072C15.228 181.583 15.293 182.116 15.293 182.671C15.293 183.226 15.228 183.759 15.098 184.27C14.9767 184.781 14.786 185.258 14.526 185.7C14.2747 186.142 13.928 186.497 13.486 186.766C13.044 187.026 12.5413 187.156 11.978 187.156ZM10.678 185.661C11.0247 186.016 11.458 186.194 11.978 186.194C12.498 186.194 12.9313 186.016 13.278 185.661C13.6247 185.297 13.863 184.864 13.993 184.361C14.123 183.858 14.188 183.295 14.188 182.671C14.188 182.047 14.123 181.484 13.993 180.981C13.863 180.478 13.6247 180.049 13.278 179.694C12.9313 179.339 12.498 179.161 11.978 179.161C11.458 179.161 11.0247 179.339 10.678 179.694C10.3313 180.049 10.093 180.478 9.963 180.981C9.833 181.484 9.768 182.047 9.768 182.671C9.768 183.295 9.833 183.858 9.963 184.361C10.093 184.864 10.3313 185.297 10.678 185.661Z" fill="#1A1A1A"/>
<path opacity="0.8" d="M6.393 151H5.314V143.746L3.923 145.228L3.273 144.565L5.444 142.329H6.393V151ZM11.3833 151.156C10.8113 151.156 10.3043 151.026 9.86227 150.766C9.42894 150.497 9.08227 150.142 8.82227 149.7C8.57094 149.258 8.38027 148.781 8.25027 148.27C8.12894 147.759 8.06827 147.226 8.06827 146.671C8.06827 146.116 8.12894 145.583 8.25027 145.072C8.38027 144.561 8.57094 144.088 8.82227 143.655C9.08227 143.213 9.42894 142.862 9.86227 142.602C10.3043 142.333 10.8113 142.199 11.3833 142.199C11.9466 142.199 12.4493 142.333 12.8913 142.602C13.3333 142.862 13.6799 143.213 13.9313 143.655C14.1913 144.088 14.3819 144.561 14.5033 145.072C14.6333 145.583 14.6983 146.116 14.6983 146.671C14.6983 147.226 14.6333 147.759 14.5033 148.27C14.3819 148.781 14.1913 149.258 13.9313 149.7C13.6799 150.142 13.3333 150.497 12.8913 150.766C12.4493 151.026 11.9466 151.156 11.3833 151.156ZM10.0833 149.661C10.4299 150.016 10.8633 150.194 11.3833 150.194C11.9033 150.194 12.3366 150.016 12.6833 149.661C13.0299 149.297 13.2683 148.864 13.3983 148.361C13.5283 147.858 13.5933 147.295 13.5933 146.671C13.5933 146.047 13.5283 145.484 13.3983 144.981C13.2683 144.478 13.0299 144.049 12.6833 143.694C12.3366 143.339 11.9033 143.161 11.3833 143.161C10.8633 143.161 10.4299 143.339 10.0833 143.694C9.73661 144.049 9.49827 144.478 9.36827 144.981C9.23827 145.484 9.17327 146.047 9.17327 146.671C9.17327 147.295 9.23827 147.858 9.36827 148.361C9.49827 148.864 9.73661 149.297 10.0833 149.661Z" fill="#1A1A1A"/>
<path opacity="0.8" d="M6.656 115H0.702V114.129C2.47867 112.742 3.72667 111.672 4.446 110.918C5.16533 110.164 5.525 109.44 5.525 108.747C5.525 108.227 5.343 107.833 4.979 107.564C4.62367 107.295 4.199 107.161 3.705 107.161C2.70833 107.161 1.924 107.525 1.352 108.253L0.689 107.564C1.01833 107.131 1.44733 106.797 1.976 106.563C2.51333 106.32 3.08967 106.199 3.705 106.199C4.49367 106.199 5.174 106.42 5.746 106.862C6.32667 107.304 6.617 107.932 6.617 108.747C6.617 109.553 6.27033 110.359 5.577 111.165C4.88367 111.962 3.82633 112.92 2.405 114.038H6.656V115ZM11.6206 115.156C11.0486 115.156 10.5416 115.026 10.0996 114.766C9.66624 114.497 9.31958 114.142 9.05958 113.7C8.80824 113.258 8.61758 112.781 8.48758 112.27C8.36624 111.759 8.30558 111.226 8.30558 110.671C8.30558 110.116 8.36624 109.583 8.48758 109.072C8.61758 108.561 8.80824 108.088 9.05958 107.655C9.31958 107.213 9.66624 106.862 10.0996 106.602C10.5416 106.333 11.0486 106.199 11.6206 106.199C12.1839 106.199 12.6866 106.333 13.1286 106.602C13.5706 106.862 13.9172 107.213 14.1686 107.655C14.4286 108.088 14.6192 108.561 14.7406 109.072C14.8706 109.583 14.9356 110.116 14.9356 110.671C14.9356 111.226 14.8706 111.759 14.7406 112.27C14.6192 112.781 14.4286 113.258 14.1686 113.7C13.9172 114.142 13.5706 114.497 13.1286 114.766C12.6866 115.026 12.1839 115.156 11.6206 115.156ZM10.3206 113.661C10.6672 114.016 11.1006 114.194 11.6206 114.194C12.1406 114.194 12.5739 114.016 12.9206 113.661C13.2672 113.297 13.5056 112.864 13.6356 112.361C13.7656 111.858 13.8306 111.295 13.8306 110.671C13.8306 110.047 13.7656 109.484 13.6356 108.981C13.5056 108.478 13.2672 108.049 12.9206 107.694C12.5739 107.339 12.1406 107.161 11.6206 107.161C11.1006 107.161 10.6672 107.339 10.3206 107.694C9.97391 108.049 9.73558 108.478 9.60558 108.981C9.47558 109.484 9.41058 110.047 9.41058 110.671C9.41058 111.295 9.47558 111.858 9.60558 112.361C9.73558 112.864 9.97391 113.297 10.3206 113.661Z" fill="#1A1A1A"/>
<path opacity="0.8" d="M3.458 79.156C2.76467 79.156 2.14933 79.0217 1.612 78.753C1.07467 78.4843 0.663 78.142 0.377 77.726L1.014 77.05C1.274 77.3967 1.61633 77.674 2.041 77.882C2.46567 78.09 2.92933 78.194 3.432 78.194C4.056 78.194 4.55 78.0467 4.914 77.752C5.278 77.4573 5.46 77.063 5.46 76.569C5.46 76.049 5.265 75.6633 4.875 75.412C4.49367 75.1607 3.96933 75.035 3.302 75.035C2.79067 75.035 2.49167 75.0393 2.405 75.048V74.06C2.50033 74.0687 2.79933 74.073 3.302 74.073C3.89133 74.073 4.37233 73.956 4.745 73.722C5.12633 73.4793 5.317 73.1197 5.317 72.643C5.317 72.1837 5.13067 71.824 4.758 71.564C4.394 71.2953 3.93467 71.161 3.38 71.161C2.50467 71.161 1.742 71.512 1.092 72.214L0.494 71.538C1.222 70.6453 2.21433 70.199 3.471 70.199C4.329 70.199 5.031 70.407 5.577 70.823C6.123 71.2303 6.396 71.7893 6.396 72.5C6.396 73.072 6.20533 73.5313 5.824 73.878C5.44267 74.2247 5.01367 74.437 4.537 74.515C5.01367 74.567 5.46433 74.7793 5.889 75.152C6.32233 75.5247 6.539 76.0273 6.539 76.66C6.539 77.3967 6.25733 77.999 5.694 78.467C5.13933 78.9263 4.394 79.156 3.458 79.156ZM11.2143 79.156C10.6423 79.156 10.1353 79.026 9.69333 78.766C9.25999 78.4973 8.91333 78.142 8.65333 77.7C8.40199 77.258 8.21133 76.7813 8.08133 76.27C7.95999 75.7587 7.89933 75.2257 7.89933 74.671C7.89933 74.1163 7.95999 73.5833 8.08133 73.072C8.21133 72.5607 8.40199 72.0883 8.65333 71.655C8.91333 71.213 9.25999 70.862 9.69333 70.602C10.1353 70.3333 10.6423 70.199 11.2143 70.199C11.7777 70.199 12.2803 70.3333 12.7223 70.602C13.1643 70.862 13.511 71.213 13.7623 71.655C14.0223 72.0883 14.213 72.5607 14.3343 73.072C14.4643 73.5833 14.5293 74.1163 14.5293 74.671C14.5293 75.2257 14.4643 75.7587 14.3343 76.27C14.213 76.7813 14.0223 77.258 13.7623 77.7C13.511 78.142 13.1643 78.4973 12.7223 78.766C12.2803 79.026 11.7777 79.156 11.2143 79.156ZM9.91433 77.661C10.261 78.0163 10.6943 78.194 11.2143 78.194C11.7343 78.194 12.1677 78.0163 12.5143 77.661C12.861 77.297 13.0993 76.8637 13.2293 76.361C13.3593 75.8583 13.4243 75.295 13.4243 74.671C13.4243 74.047 13.3593 73.4837 13.2293 72.981C13.0993 72.4783 12.861 72.0493 12.5143 71.694C12.1677 71.3387 11.7343 71.161 11.2143 71.161C10.6943 71.161 10.261 71.3387 9.91433 71.694C9.56766 72.0493 9.32933 72.4783 9.19933 72.981C9.06933 73.4837 9.00433 74.047 9.00433 74.671C9.00433 75.295 9.06933 75.8583 9.19933 76.361C9.32933 76.8637 9.56766 77.297 9.91433 77.661Z" fill="#1A1A1A"/>
<path opacity="0.8" d="M5.616 43H4.537V40.803H0.416V39.906L4.134 34.329H5.616V39.854H6.838V40.803H5.616V43ZM4.537 39.854V35.33L1.495 39.854H4.537ZM11.227 43.156C10.655 43.156 10.148 43.026 9.70602 42.766C9.27269 42.4973 8.92602 42.142 8.66602 41.7C8.41469 41.258 8.22402 40.7813 8.09402 40.27C7.97269 39.7587 7.91202 39.2257 7.91202 38.671C7.91202 38.1163 7.97269 37.5833 8.09402 37.072C8.22402 36.5607 8.41469 36.0883 8.66602 35.655C8.92602 35.213 9.27269 34.862 9.70602 34.602C10.148 34.3333 10.655 34.199 11.227 34.199C11.7904 34.199 12.293 34.3333 12.735 34.602C13.177 34.862 13.5237 35.213 13.775 35.655C14.035 36.0883 14.2257 36.5607 14.347 37.072C14.477 37.5833 14.542 38.1163 14.542 38.671C14.542 39.2257 14.477 39.7587 14.347 40.27C14.2257 40.7813 14.035 41.258 13.775 41.7C13.5237 42.142 13.177 42.4973 12.735 42.766C12.293 43.026 11.7904 43.156 11.227 43.156ZM9.92702 41.661C10.2737 42.0163 10.707 42.194 11.227 42.194C11.747 42.194 12.1804 42.0163 12.527 41.661C12.8737 41.297 13.112 40.8637 13.242 40.361C13.372 39.8583 13.437 39.295 13.437 38.671C13.437 38.047 13.372 37.4837 13.242 36.981C13.112 36.4783 12.8737 36.0493 12.527 35.694C12.1804 35.3387 11.747 35.161 11.227 35.161C10.707 35.161 10.2737 35.3387 9.92702 35.694C9.58036 36.0493 9.34202 36.4783 9.21202 36.981C9.08202 37.4837 9.01702 38.047 9.01702 38.671C9.01702 39.295 9.08202 39.8583 9.21202 40.361C9.34202 40.8637 9.58036 41.297 9.92702 41.661Z" fill="#1A1A1A"/>
<g opacity="0.4">
<path d="M26 40L306 40L26 40Z" fill="#1A1A1A"/>
<path d="M26 40L306 40" stroke="#1A1A1A" stroke-width="1.06667" stroke-dasharray="4 4"/>
</g>
<g opacity="0.4">
<path d="M26 76L306 76L26 76Z" fill="#1A1A1A"/>
<path d="M26 76L306 76" stroke="#1A1A1A" stroke-width="1.06667" stroke-dasharray="4 4"/>
</g>
<g opacity="0.4">
<path d="M26 112L306 112L26 112Z" fill="#1A1A1A"/>
<path d="M26 112L306 112" stroke="#1A1A1A" stroke-width="1.06667" stroke-dasharray="4 4"/>
</g>
<g opacity="0.4">
<path d="M26 148L306 148L26 148Z" fill="#1A1A1A"/>
<path d="M26 148L306 148" stroke="#1A1A1A" stroke-width="1.06667" stroke-dasharray="4 4"/>
</g>
<path d="M49.944 125H48.072V116.744L46.328 118.568L45.24 117.432L48.312 114.328H49.944V125ZM55.4941 125.192C54.5981 125.192 53.7981 125.032 53.0941 124.712C52.4008 124.392 51.8568 123.976 51.4621 123.464L52.4861 122.232C52.8275 122.637 53.2595 122.957 53.7821 123.192C54.3155 123.416 54.8648 123.528 55.4301 123.528C56.1235 123.528 56.6675 123.379 57.0621 123.08C57.4568 122.781 57.6541 122.387 57.6541 121.896C57.6541 120.883 56.8648 120.376 55.2861 120.376C54.6888 120.376 54.2835 120.387 54.0701 120.408V118.712C54.1875 118.723 54.5928 118.728 55.2861 118.728C55.9475 118.728 56.4808 118.611 56.8861 118.376C57.2915 118.141 57.4941 117.789 57.4941 117.32C57.4941 116.851 57.2861 116.488 56.8701 116.232C56.4648 115.965 55.9528 115.832 55.3341 115.832C54.2568 115.832 53.3341 116.227 52.5661 117.016L51.6061 115.848C52.5661 114.728 53.8675 114.168 55.5101 114.168C56.6728 114.168 57.6008 114.424 58.2941 114.936C58.9981 115.448 59.3501 116.147 59.3501 117.032C59.3501 117.704 59.1155 118.259 58.6461 118.696C58.1875 119.123 57.6541 119.384 57.0461 119.48C57.6541 119.544 58.2195 119.805 58.7421 120.264C59.2648 120.723 59.5261 121.325 59.5261 122.072C59.5261 123 59.1581 123.752 58.4221 124.328C57.6968 124.904 56.7208 125.192 55.4941 125.192ZM63.4336 124.392C63.4336 124.936 63.295 125.448 63.0176 125.928C62.751 126.408 62.3936 126.808 61.9456 127.128L61.1776 126.504C61.4443 126.344 61.6896 126.12 61.9136 125.832C62.1483 125.544 62.287 125.267 62.3296 125C62.2656 125.032 62.175 125.048 62.0576 125.048C61.791 125.048 61.567 124.952 61.3856 124.76C61.2043 124.568 61.1136 124.323 61.1136 124.024C61.1136 123.725 61.2203 123.469 61.4336 123.256C61.647 123.043 61.903 122.936 62.2016 122.936C62.543 122.936 62.831 123.069 63.0656 123.336C63.311 123.592 63.4336 123.944 63.4336 124.392ZM67.0625 125H64.9985L69.0305 115.976H63.4945V114.328H71.1905V115.624L67.0625 125ZM74.6821 119.464C73.9035 119.464 73.2635 119.213 72.7621 118.712C72.2715 118.211 72.0261 117.581 72.0261 116.824C72.0261 116.067 72.2715 115.437 72.7621 114.936C73.2635 114.424 73.9035 114.168 74.6821 114.168C75.4715 114.168 76.1115 114.419 76.6021 114.92C77.0928 115.421 77.3381 116.056 77.3381 116.824C77.3381 117.581 77.0928 118.211 76.6021 118.712C76.1115 119.213 75.4715 119.464 74.6821 119.464ZM74.7141 125H73.6421L80.4581 114.328H81.5461L74.7141 125ZM82.3301 124.44C81.8395 124.941 81.2048 125.192 80.4261 125.192C79.6475 125.192 79.0075 124.941 78.5061 124.44C78.0155 123.939 77.7701 123.309 77.7701 122.552C77.7701 121.795 78.0155 121.165 78.5061 120.664C79.0075 120.152 79.6475 119.896 80.4261 119.896C81.2048 119.896 81.8395 120.152 82.3301 120.664C82.8315 121.165 83.0821 121.795 83.0821 122.552C83.0821 123.309 82.8315 123.939 82.3301 124.44ZM74.6821 118.392C75.0981 118.392 75.4395 118.248 75.7061 117.96C75.9728 117.661 76.1061 117.283 76.1061 116.824C76.1061 116.355 75.9728 115.971 75.7061 115.672C75.4395 115.373 75.0981 115.224 74.6821 115.224C74.2768 115.224 73.9408 115.373 73.6741 115.672C73.4075 115.971 73.2741 116.355 73.2741 116.824C73.2741 117.283 73.4075 117.661 73.6741 117.96C73.9408 118.248 74.2768 118.392 74.6821 118.392ZM79.4021 123.688C79.6688 123.976 80.0101 124.12 80.4261 124.12C80.8421 124.12 81.1835 123.976 81.4501 123.688C81.7168 123.389 81.8501 123.011 81.8501 122.552C81.8501 122.083 81.7168 121.699 81.4501 121.4C81.1835 121.101 80.8421 120.952 80.4261 120.952C80.0101 120.952 79.6688 121.101 79.4021 121.4C79.1355 121.699 79.0021 122.083 79.0021 122.552C79.0021 123.011 79.1355 123.389 79.4021 123.688Z" fill="#1A1A1A"/>
<path d="M89 184.066L89 135L39 135L39 184.066L89 184.066Z" fill="#41A5B4"/>
<path d="M49.4488 203H48.3698V195.707L45.4318 203H44.9898L42.0388 195.707V203H40.9598V194.329H42.5068L45.2108 201.011L47.9018 194.329H49.4488V203ZM54.2795 203.156C53.3349 203.156 52.5635 202.853 51.9655 202.246C51.3675 201.631 51.0685 200.833 51.0685 199.854C51.0685 198.935 51.3632 198.16 51.9525 197.527C52.5419 196.886 53.2785 196.565 54.1625 196.565C55.0899 196.565 55.8222 196.886 56.3595 197.527C56.9055 198.16 57.1785 198.961 57.1785 199.932V200.179H52.1085C52.1519 200.794 52.3729 201.31 52.7715 201.726C53.1789 202.142 53.7075 202.35 54.3575 202.35C55.1375 202.35 55.7875 202.081 56.3075 201.544L56.7755 202.181C56.1082 202.831 55.2762 203.156 54.2795 203.156ZM56.2165 199.451C56.2079 198.922 56.0259 198.446 55.6705 198.021C55.3152 197.588 54.8082 197.371 54.1495 197.371C53.5255 197.371 53.0315 197.583 52.6675 198.008C52.3122 198.433 52.1215 198.914 52.0955 199.451H56.2165ZM63.9707 203H63.0087V198.892C63.0087 198.363 62.8874 197.991 62.6447 197.774C62.402 197.549 62.051 197.436 61.5917 197.436C61.2277 197.436 60.8767 197.531 60.5387 197.722C60.2007 197.913 59.932 198.142 59.7327 198.411V203H58.7577V196.721H59.7327V197.631C59.9754 197.336 60.3004 197.085 60.7077 196.877C61.115 196.669 61.5397 196.565 61.9817 196.565C63.3077 196.565 63.9707 197.241 63.9707 198.593V203ZM70.9226 202.207C70.3592 202.84 69.6096 203.156 68.6736 203.156C67.7376 203.156 66.9836 202.84 66.4116 202.207C65.8482 201.574 65.5666 200.79 65.5666 199.854C65.5666 198.918 65.8482 198.138 66.4116 197.514C66.9836 196.881 67.7376 196.565 68.6736 196.565C69.6096 196.565 70.3592 196.881 70.9226 197.514C71.4946 198.138 71.7806 198.918 71.7806 199.854C71.7806 200.79 71.4946 201.574 70.9226 202.207ZM67.1526 201.583C67.5252 202.051 68.0322 202.285 68.6736 202.285C69.3149 202.285 69.8219 202.051 70.1946 201.583C70.5672 201.106 70.7536 200.53 70.7536 199.854C70.7536 199.178 70.5672 198.606 70.1946 198.138C69.8219 197.67 69.3149 197.436 68.6736 197.436C68.0322 197.436 67.5252 197.67 67.1526 198.138C66.7799 198.606 66.5936 199.178 66.5936 199.854C66.5936 200.53 66.7799 201.106 67.1526 201.583ZM74.345 203H73.37V196.721H74.345V197.722C74.943 196.959 75.6407 196.578 76.438 196.578V197.579C76.282 197.562 76.1564 197.553 76.061 197.553C75.7577 197.553 75.4327 197.657 75.086 197.865C74.7394 198.064 74.4924 198.294 74.345 198.554V203ZM80.508 203.156C79.5634 203.156 78.792 202.853 78.194 202.246C77.596 201.631 77.297 200.833 77.297 199.854C77.297 198.935 77.5917 198.16 78.181 197.527C78.7704 196.886 79.507 196.565 80.391 196.565C81.3184 196.565 82.0507 196.886 82.588 197.527C83.134 198.16 83.407 198.961 83.407 199.932V200.179H78.337C78.3804 200.794 78.6014 201.31 79 201.726C79.4074 202.142 79.936 202.35 80.586 202.35C81.366 202.35 82.016 202.081 82.536 201.544L83.004 202.181C82.3367 202.831 81.5047 203.156 80.508 203.156ZM82.445 199.451C82.4364 198.922 82.2544 198.446 81.899 198.021C81.5437 197.588 81.0367 197.371 80.378 197.371C79.754 197.371 79.26 197.583 78.896 198.008C78.5407 198.433 78.35 198.914 78.324 199.451H82.445ZM86.9882 203.156C85.9309 203.156 85.0859 202.827 84.4532 202.168L84.9472 201.466C85.1639 201.717 85.4586 201.93 85.8312 202.103C86.2126 202.276 86.6069 202.363 87.0142 202.363C87.4822 202.363 87.8462 202.263 88.1062 202.064C88.3749 201.865 88.5092 201.605 88.5092 201.284C88.5092 201.007 88.3749 200.79 88.1062 200.634C87.8376 200.469 87.5126 200.348 87.1312 200.27C86.7499 200.183 86.3686 200.088 85.9872 199.984C85.6146 199.871 85.2939 199.685 85.0252 199.425C84.7566 199.156 84.6222 198.805 84.6222 198.372C84.6222 197.861 84.8302 197.432 85.2462 197.085C85.6622 196.738 86.2299 196.565 86.9492 196.565C87.9112 196.565 88.6869 196.868 89.2762 197.475L88.8212 198.151C88.3792 197.622 87.7552 197.358 86.9492 197.358C86.5246 197.358 86.1866 197.453 85.9352 197.644C85.6839 197.826 85.5582 198.06 85.5582 198.346C85.5582 198.554 85.6536 198.727 85.8442 198.866C86.0349 199.005 86.2732 199.104 86.5592 199.165C86.8539 199.226 87.1659 199.304 87.4952 199.399C87.8332 199.494 88.1452 199.603 88.4312 199.724C88.7259 199.837 88.9686 200.027 89.1592 200.296C89.3499 200.556 89.4452 200.877 89.4452 201.258C89.4452 201.813 89.2286 202.268 88.7952 202.623C88.3706 202.978 87.7682 203.156 86.9882 203.156ZM40.8408 216H39.8658V215.064C39.3285 215.792 38.6222 216.156 37.7468 216.156C36.9148 216.156 36.2388 215.861 35.7188 215.272C35.2075 214.674 34.9518 213.872 34.9518 212.867C34.9518 211.87 35.2118 211.073 35.7318 210.475C36.2518 209.868 36.9235 209.565 37.7468 209.565C38.6135 209.565 39.3198 209.933 39.8658 210.67V207.329H40.8408V216ZM37.9938 215.285C38.3665 215.285 38.7262 215.19 39.0728 214.999C39.4282 214.8 39.6925 214.561 39.8658 214.284V211.45C39.6925 211.164 39.4282 210.926 39.0728 210.735C38.7262 210.536 38.3665 210.436 37.9938 210.436C37.3698 210.436 36.8758 210.666 36.5118 211.125C36.1478 211.576 35.9658 212.156 35.9658 212.867C35.9658 213.578 36.1478 214.158 36.5118 214.609C36.8758 215.06 37.3698 215.285 37.9938 215.285ZM45.6404 216.156C44.6957 216.156 43.9244 215.853 43.3264 215.246C42.7284 214.631 42.4294 213.833 42.4294 212.854C42.4294 211.935 42.724 211.16 43.3134 210.527C43.9027 209.886 44.6394 209.565 45.5234 209.565C46.4507 209.565 47.183 209.886 47.7204 210.527C48.2664 211.16 48.5394 211.961 48.5394 212.932V213.179H43.4694C43.5127 213.794 43.7337 214.31 44.1324 214.726C44.5397 215.142 45.0684 215.35 45.7184 215.35C46.4984 215.35 47.1484 215.081 47.6684 214.544L48.1364 215.181C47.469 215.831 46.637 216.156 45.6404 216.156ZM47.5774 212.451C47.5687 211.922 47.3867 211.446 47.0314 211.021C46.676 210.588 46.169 210.371 45.5104 210.371C44.8864 210.371 44.3924 210.583 44.0284 211.008C43.673 211.433 43.4824 211.914 43.4564 212.451H47.5774ZM55.9008 216H54.8218V208.746L53.4308 210.228L52.7808 209.565L54.9518 207.329H55.9008V216ZM62.5291 216H61.4501V213.803H57.3291V212.906L61.0471 207.329H62.5291V212.854H63.7511V213.803H62.5291V216ZM61.4501 212.854V208.33L58.4081 212.854H61.4501ZM74.0264 216H73.0514V215.064C72.514 215.792 71.8077 216.156 70.9324 216.156C70.1004 216.156 69.4244 215.861 68.9044 215.272C68.393 214.674 68.1374 213.872 68.1374 212.867C68.1374 211.87 68.3974 211.073 68.9174 210.475C69.4374 209.868 70.109 209.565 70.9324 209.565C71.799 209.565 72.5054 209.933 73.0514 210.67V209.721H74.0264V216ZM71.1794 215.285C71.552 215.285 71.9117 215.19 72.2584 214.999C72.6137 214.8 72.878 214.561 73.0514 214.284V211.45C72.878 211.164 72.6137 210.926 72.2584 210.735C71.9117 210.536 71.552 210.436 71.1794 210.436C70.5554 210.436 70.0614 210.666 69.6974 211.125C69.3334 211.576 69.1514 212.156 69.1514 212.867C69.1514 213.578 69.3334 214.158 69.6974 214.609C70.0614 215.06 70.5554 215.285 71.1794 215.285ZM81.2309 216H80.2689V211.892C80.2689 211.363 80.1476 210.991 79.9049 210.774C79.6622 210.549 79.3112 210.436 78.8519 210.436C78.4879 210.436 78.1369 210.531 77.7989 210.722C77.4609 210.913 77.1922 211.142 76.9929 211.411V216H76.0179V209.721H76.9929V210.631C77.2356 210.336 77.5606 210.085 77.9679 209.877C78.3752 209.669 78.7999 209.565 79.2419 209.565C80.5679 209.565 81.2309 210.241 81.2309 211.593V216ZM79.3719 208.798C79.1639 208.798 78.9776 208.737 78.8129 208.616C78.6569 208.486 78.5356 208.347 78.4489 208.2C78.3709 208.053 78.2712 207.918 78.1499 207.797C78.0372 207.667 77.9116 207.602 77.7729 207.602C77.5909 207.602 77.4392 207.697 77.3179 207.888C77.2052 208.07 77.1489 208.347 77.1489 208.72H76.5639C76.5639 208.2 76.6722 207.78 76.8889 207.459C77.1142 207.138 77.4262 206.978 77.8249 206.978C78.0329 206.978 78.2149 207.043 78.3709 207.173C78.5356 207.294 78.6569 207.429 78.7349 207.576C78.8216 207.723 78.9212 207.862 79.0339 207.992C79.1552 208.113 79.2852 208.174 79.4239 208.174C79.6059 208.174 79.7532 208.083 79.8659 207.901C79.9872 207.71 80.0479 207.429 80.0479 207.056H80.6329C80.6329 207.576 80.5202 207.996 80.2949 208.317C80.0782 208.638 79.7706 208.798 79.3719 208.798ZM88.1438 215.207C87.5804 215.84 86.8308 216.156 85.8948 216.156C84.9588 216.156 84.2048 215.84 83.6328 215.207C83.0694 214.574 82.7878 213.79 82.7878 212.854C82.7878 211.918 83.0694 211.138 83.6328 210.514C84.2048 209.881 84.9588 209.565 85.8948 209.565C86.8308 209.565 87.5804 209.881 88.1438 210.514C88.7158 211.138 89.0018 211.918 89.0018 212.854C89.0018 213.79 88.7158 214.574 88.1438 215.207ZM84.3738 214.583C84.7464 215.051 85.2534 215.285 85.8948 215.285C86.5361 215.285 87.0431 215.051 87.4158 214.583C87.7884 214.106 87.9748 213.53 87.9748 212.854C87.9748 212.178 87.7884 211.606 87.4158 211.138C87.0431 210.67 86.5361 210.436 85.8948 210.436C85.2534 210.436 84.7464 210.67 84.3738 211.138C84.0011 211.606 83.8148 212.178 83.8148 212.854C83.8148 213.53 84.0011 214.106 84.3738 214.583ZM92.5932 216.156C91.5359 216.156 90.6909 215.827 90.0582 215.168L90.5522 214.466C90.7689 214.717 91.0635 214.93 91.4362 215.103C91.8175 215.276 92.2119 215.363 92.6192 215.363C93.0872 215.363 93.4512 215.263 93.7112 215.064C93.9799 214.865 94.1142 214.605 94.1142 214.284C94.1142 214.007 93.9799 213.79 93.7112 213.634C93.4425 213.469 93.1175 213.348 92.7362 213.27C92.3549 213.183 91.9735 213.088 91.5922 212.984C91.2195 212.871 90.8989 212.685 90.6302 212.425C90.3615 212.156 90.2272 211.805 90.2272 211.372C90.2272 210.861 90.4352 210.432 90.8512 210.085C91.2672 209.738 91.8349 209.565 92.5542 209.565C93.5162 209.565 94.2919 209.868 94.8812 210.475L94.4262 211.151C93.9842 210.622 93.3602 210.358 92.5542 210.358C92.1295 210.358 91.7915 210.453 91.5402 210.644C91.2889 210.826 91.1632 211.06 91.1632 211.346C91.1632 211.554 91.2585 211.727 91.4492 211.866C91.6399 212.005 91.8782 212.104 92.1642 212.165C92.4589 212.226 92.7709 212.304 93.1002 212.399C93.4382 212.494 93.7502 212.603 94.0362 212.724C94.3309 212.837 94.5735 213.027 94.7642 213.296C94.9549 213.556 95.0502 213.877 95.0502 214.258C95.0502 214.813 94.8335 215.268 94.4002 215.623C93.9755 215.978 93.3732 216.156 92.5932 216.156Z" fill="#1A1A1A"/>
<path d="M186.408 11H184.536V8.584L179.448 8.584V7.08L183.832 0.327999L186.408 0.327999V6.936L187.832 6.936V8.584H186.408V11ZM184.536 6.936V2.008L181.288 6.936L184.536 6.936ZM193.145 11.192C191.449 11.192 190.132 10.6427 189.193 9.544L190.265 8.248C190.991 9.10133 191.945 9.528 193.129 9.528C193.791 9.528 194.319 9.352 194.713 9C195.119 8.63733 195.321 8.184 195.321 7.64C195.321 7.07467 195.124 6.62133 194.729 6.28C194.345 5.928 193.828 5.752 193.177 5.752C192.271 5.752 191.492 6.056 190.841 6.664L189.513 6.28V0.327999L196.505 0.327999V1.976L191.385 1.976V5.048C192.036 4.44 192.841 4.136 193.801 4.136C194.751 4.136 195.556 4.44533 196.217 5.064C196.889 5.68267 197.225 6.52 197.225 7.576C197.225 8.664 196.847 9.53867 196.089 10.2C195.332 10.8613 194.351 11.192 193.145 11.192ZM201.043 10.392C201.043 10.936 200.904 11.448 200.627 11.928C200.36 12.408 200.003 12.808 199.555 13.128L198.787 12.504C199.054 12.344 199.299 12.12 199.523 11.832C199.758 11.544 199.896 11.2667 199.939 11C199.875 11.032 199.784 11.048 199.667 11.048C199.4 11.048 199.176 10.952 198.995 10.76C198.814 10.568 198.723 10.3227 198.723 10.024C198.723 9.72533 198.83 9.46933 199.043 9.256C199.256 9.04267 199.512 8.936 199.811 8.936C200.152 8.936 200.44 9.06933 200.675 9.336C200.92 9.592 201.043 9.944 201.043 10.392ZM206.661 11.192C204.965 11.192 203.648 10.6427 202.709 9.544L203.781 8.248C204.506 9.10133 205.461 9.528 206.645 9.528C207.306 9.528 207.834 9.352 208.229 9C208.634 8.63733 208.837 8.184 208.837 7.64C208.837 7.07467 208.64 6.62133 208.245 6.28C207.861 5.928 207.344 5.752 206.693 5.752C205.786 5.752 205.008 6.056 204.357 6.664L203.029 6.28V0.327999L210.021 0.327999V1.976L204.901 1.976V5.048C205.552 4.44 206.357 4.136 207.317 4.136C208.266 4.136 209.072 4.44533 209.733 5.064C210.405 5.68267 210.741 6.52 210.741 7.576C210.741 8.664 210.362 9.53867 209.605 10.2C208.848 10.8613 207.866 11.192 206.661 11.192ZM214.495 5.464C213.716 5.464 213.076 5.21333 212.575 4.712C212.084 4.21067 211.839 3.58133 211.839 2.824C211.839 2.06667 212.084 1.43733 212.575 0.936C213.076 0.423999 213.716 0.167999 214.495 0.167999C215.284 0.167999 215.924 0.418666 216.415 0.919999C216.905 1.42133 217.151 2.056 217.151 2.824C217.151 3.58133 216.905 4.21067 216.415 4.712C215.924 5.21333 215.284 5.464 214.495 5.464ZM214.527 11H213.455L220.271 0.327999L221.359 0.327999L214.527 11ZM222.143 10.44C221.652 10.9413 221.017 11.192 220.239 11.192C219.46 11.192 218.82 10.9413 218.319 10.44C217.828 9.93867 217.583 9.30933 217.583 8.552C217.583 7.79467 217.828 7.16533 218.319 6.664C218.82 6.152 219.46 5.896 220.239 5.896C221.017 5.896 221.652 6.152 222.143 6.664C222.644 7.16533 222.895 7.79467 222.895 8.552C222.895 9.30933 222.644 9.93867 222.143 10.44ZM214.495 4.392C214.911 4.392 215.252 4.248 215.519 3.96C215.785 3.66133 215.919 3.28267 215.919 2.824C215.919 2.35467 215.785 1.97067 215.519 1.672C215.252 1.37333 214.911 1.224 214.495 1.224C214.089 1.224 213.753 1.37333 213.487 1.672C213.22 1.97067 213.087 2.35467 213.087 2.824C213.087 3.28267 213.22 3.66133 213.487 3.96C213.753 4.248 214.089 4.392 214.495 4.392ZM219.215 9.688C219.481 9.976 219.823 10.12 220.239 10.12C220.655 10.12 220.996 9.976 221.263 9.688C221.529 9.38933 221.663 9.01067 221.663 8.552C221.663 8.08267 221.529 7.69867 221.263 7.4C220.996 7.10133 220.655 6.952 220.239 6.952C219.823 6.952 219.481 7.10133 219.215 7.4C218.948 7.69867 218.815 8.08267 218.815 8.552C218.815 9.01067 218.948 9.38933 219.215 9.688Z" fill="#1A1A1A"/>
<path d="M226 184.107L226 21.1488L176 21.1488L176 184.107L226 184.107Z" fill="#B6174B"/>
<path d="M187.442 209H186.207L185.44 207.063H181.124L180.357 209H179.122L182.619 200.329H183.958L187.442 209ZM185.128 206.114L183.282 201.434L181.449 206.114H185.128ZM194.062 209H193.087V208.064C192.55 208.792 191.843 209.156 190.968 209.156C190.136 209.156 189.46 208.861 188.94 208.272C188.429 207.674 188.173 206.872 188.173 205.867C188.173 204.87 188.433 204.073 188.953 203.475C189.473 202.868 190.145 202.565 190.968 202.565C191.835 202.565 192.541 202.933 193.087 203.67V200.329H194.062V209ZM191.215 208.285C191.588 208.285 191.947 208.19 192.294 207.999C192.649 207.8 192.914 207.561 193.087 207.284V204.45C192.914 204.164 192.649 203.926 192.294 203.735C191.947 203.536 191.588 203.436 191.215 203.436C190.591 203.436 190.097 203.666 189.733 204.125C189.369 204.576 189.187 205.156 189.187 205.867C189.187 206.578 189.369 207.158 189.733 207.609C190.097 208.06 190.591 208.285 191.215 208.285ZM201.228 209H200.253V208.116C199.993 208.411 199.663 208.658 199.265 208.857C198.875 209.056 198.459 209.156 198.017 209.156C196.682 209.156 196.015 208.489 196.015 207.154V202.721H196.99V206.855C196.99 207.375 197.111 207.743 197.354 207.96C197.596 208.177 197.947 208.285 198.407 208.285C198.771 208.285 199.122 208.194 199.46 208.012C199.798 207.83 200.062 207.605 200.253 207.336V202.721H201.228V209ZM204.566 209.156C204.106 209.156 203.76 209.03 203.526 208.779C203.292 208.528 203.175 208.164 203.175 207.687V200.329H204.15V207.479C204.15 207.722 204.202 207.917 204.306 208.064C204.418 208.211 204.579 208.285 204.787 208.285C205.073 208.285 205.289 208.194 205.437 208.012L205.736 208.753C205.441 209.022 205.051 209.156 204.566 209.156ZM208.265 209.156C207.329 209.156 206.861 208.666 206.861 207.687V203.579H205.821V202.721H206.861V201.005H207.849V202.721H209.123V203.579H207.849V207.479C207.849 207.722 207.901 207.917 208.005 208.064C208.118 208.211 208.274 208.285 208.473 208.285C208.75 208.285 208.971 208.194 209.136 208.012L209.422 208.753C209.136 209.022 208.75 209.156 208.265 209.156ZM215.479 208.207C214.916 208.84 214.166 209.156 213.23 209.156C212.294 209.156 211.54 208.84 210.968 208.207C210.405 207.574 210.123 206.79 210.123 205.854C210.123 204.918 210.405 204.138 210.968 203.514C211.54 202.881 212.294 202.565 213.23 202.565C214.166 202.565 214.916 202.881 215.479 203.514C216.051 204.138 216.337 204.918 216.337 205.854C216.337 206.79 216.051 207.574 215.479 208.207ZM211.709 207.583C212.082 208.051 212.589 208.285 213.23 208.285C213.872 208.285 214.379 208.051 214.751 207.583C215.124 207.106 215.31 206.53 215.31 205.854C215.31 205.178 215.124 204.606 214.751 204.138C214.379 203.67 213.872 203.436 213.23 203.436C212.589 203.436 212.082 203.67 211.709 204.138C211.337 204.606 211.15 205.178 211.15 205.854C211.15 206.53 211.337 207.106 211.709 207.583ZM219.929 209.156C218.871 209.156 218.026 208.827 217.394 208.168L217.888 207.466C218.104 207.717 218.399 207.93 218.772 208.103C219.153 208.276 219.547 208.363 219.955 208.363C220.423 208.363 220.787 208.263 221.047 208.064C221.315 207.865 221.45 207.605 221.45 207.284C221.45 207.007 221.315 206.79 221.047 206.634C220.778 206.469 220.453 206.348 220.072 206.27C219.69 206.183 219.309 206.088 218.928 205.984C218.555 205.871 218.234 205.685 217.966 205.425C217.697 205.156 217.563 204.805 217.563 204.372C217.563 203.861 217.771 203.432 218.187 203.085C218.603 202.738 219.17 202.565 219.89 202.565C220.852 202.565 221.627 202.868 222.217 203.475L221.762 204.151C221.32 203.622 220.696 203.358 219.89 203.358C219.465 203.358 219.127 203.453 218.876 203.644C218.624 203.826 218.499 204.06 218.499 204.346C218.499 204.554 218.594 204.727 218.785 204.866C218.975 205.005 219.214 205.104 219.5 205.165C219.794 205.226 220.106 205.304 220.436 205.399C220.774 205.494 221.086 205.603 221.372 205.724C221.666 205.837 221.909 206.027 222.1 206.296C222.29 206.556 222.386 206.877 222.386 207.258C222.386 207.813 222.169 208.268 221.736 208.623C221.311 208.978 220.709 209.156 219.929 209.156Z" fill="#1A1A1A"/>
<path d="M115.944 121H114.072V112.744L112.328 114.568L111.24 113.432L114.312 110.328H115.944V121ZM124.486 121H122.614V118.584H117.526V117.08L121.91 110.328H124.486V116.936H125.91V118.584H124.486V121ZM122.614 116.936V112.008L119.366 116.936H122.614ZM129.527 120.392C129.527 120.936 129.389 121.448 129.111 121.928C128.845 122.408 128.487 122.808 128.039 123.128L127.271 122.504C127.538 122.344 127.783 122.12 128.007 121.832C128.242 121.544 128.381 121.267 128.423 121C128.359 121.032 128.269 121.048 128.151 121.048C127.885 121.048 127.661 120.952 127.479 120.76C127.298 120.568 127.207 120.323 127.207 120.024C127.207 119.725 127.314 119.469 127.527 119.256C127.741 119.043 127.997 118.936 128.295 118.936C128.637 118.936 128.925 119.069 129.159 119.336C129.405 119.592 129.527 119.944 129.527 120.392ZM137.961 120.408C137.172 120.931 136.201 121.192 135.049 121.192C133.897 121.192 132.927 120.931 132.137 120.408C131.348 119.885 130.953 119.165 130.953 118.248C130.953 117.608 131.177 117.048 131.625 116.568C132.084 116.088 132.66 115.731 133.353 115.496C132.692 115.283 132.153 114.968 131.737 114.552C131.332 114.125 131.129 113.597 131.129 112.968C131.129 112.051 131.519 111.357 132.297 110.888C133.076 110.408 133.993 110.168 135.049 110.168C136.105 110.168 137.023 110.408 137.801 110.888C138.58 111.357 138.969 112.051 138.969 112.968C138.969 113.597 138.761 114.125 138.345 114.552C137.94 114.968 137.407 115.283 136.745 115.496C137.439 115.731 138.009 116.088 138.457 116.568C138.916 117.048 139.145 117.608 139.145 118.248C139.145 119.165 138.751 119.885 137.961 120.408ZM135.049 114.744C135.252 114.712 135.449 114.664 135.641 114.6C135.844 114.536 136.057 114.451 136.281 114.344C136.516 114.227 136.703 114.077 136.841 113.896C136.991 113.704 137.065 113.491 137.065 113.256C137.065 112.808 136.879 112.461 136.505 112.216C136.132 111.96 135.647 111.832 135.049 111.832C134.452 111.832 133.967 111.96 133.593 112.216C133.22 112.461 133.033 112.808 133.033 113.256C133.033 113.491 133.103 113.704 133.241 113.896C133.391 114.077 133.577 114.227 133.801 114.344C134.036 114.451 134.249 114.536 134.441 114.6C134.644 114.664 134.847 114.712 135.049 114.744ZM135.049 119.528C135.668 119.528 136.185 119.389 136.601 119.112C137.028 118.835 137.241 118.467 137.241 118.008C137.241 117.528 136.996 117.149 136.505 116.872C136.025 116.584 135.54 116.403 135.049 116.328C134.559 116.403 134.068 116.584 133.577 116.872C133.097 117.149 132.857 117.528 132.857 118.008C132.857 118.467 133.065 118.835 133.481 119.112C133.897 119.389 134.42 119.528 135.049 119.528ZM142.917 115.464C142.138 115.464 141.498 115.213 140.997 114.712C140.506 114.211 140.261 113.581 140.261 112.824C140.261 112.067 140.506 111.437 140.997 110.936C141.498 110.424 142.138 110.168 142.917 110.168C143.706 110.168 144.346 110.419 144.837 110.92C145.327 111.421 145.573 112.056 145.573 112.824C145.573 113.581 145.327 114.211 144.837 114.712C144.346 115.213 143.706 115.464 142.917 115.464ZM142.949 121H141.877L148.693 110.328H149.781L142.949 121ZM150.565 120.44C150.074 120.941 149.439 121.192 148.661 121.192C147.882 121.192 147.242 120.941 146.741 120.44C146.25 119.939 146.005 119.309 146.005 118.552C146.005 117.795 146.25 117.165 146.741 116.664C147.242 116.152 147.882 115.896 148.661 115.896C149.439 115.896 150.074 116.152 150.565 116.664C151.066 117.165 151.317 117.795 151.317 118.552C151.317 119.309 151.066 119.939 150.565 120.44ZM142.917 114.392C143.333 114.392 143.674 114.248 143.941 113.96C144.207 113.661 144.341 113.283 144.341 112.824C144.341 112.355 144.207 111.971 143.941 111.672C143.674 111.373 143.333 111.224 142.917 111.224C142.511 111.224 142.175 111.373 141.909 111.672C141.642 111.971 141.509 112.355 141.509 112.824C141.509 113.283 141.642 113.661 141.909 113.96C142.175 114.248 142.511 114.392 142.917 114.392ZM147.637 119.688C147.903 119.976 148.245 120.12 148.661 120.12C149.077 120.12 149.418 119.976 149.685 119.688C149.951 119.389 150.085 119.011 150.085 118.552C150.085 118.083 149.951 117.699 149.685 117.4C149.418 117.101 149.077 116.952 148.661 116.952C148.245 116.952 147.903 117.101 147.637 117.4C147.37 117.699 147.237 118.083 147.237 118.552C147.237 119.011 147.37 119.389 147.637 119.688Z" fill="#1A1A1A"/>
<path d="M156 184.107L156 131.101L106 131.101L106 184.107L156 184.107Z" fill="#1D5556"/>
<path d="M110.481 209.156C109.545 209.156 108.791 208.822 108.219 208.155L108.791 207.336C109.25 207.908 109.792 208.194 110.416 208.194C110.944 208.194 111.365 208.029 111.677 207.7C111.997 207.362 112.158 206.92 112.158 206.374V200.329H113.237V206.387C113.237 207.288 112.981 207.977 112.47 208.454C111.958 208.922 111.295 209.156 110.481 209.156ZM120.213 208.207C119.649 208.84 118.9 209.156 117.964 209.156C117.028 209.156 116.274 208.84 115.702 208.207C115.138 207.574 114.857 206.79 114.857 205.854C114.857 204.918 115.138 204.138 115.702 203.514C116.274 202.881 117.028 202.565 117.964 202.565C118.9 202.565 119.649 202.881 120.213 203.514C120.785 204.138 121.071 204.918 121.071 205.854C121.071 206.79 120.785 207.574 120.213 208.207ZM116.443 207.583C116.815 208.051 117.322 208.285 117.964 208.285C118.605 208.285 119.112 208.051 119.485 207.583C119.857 207.106 120.044 206.53 120.044 205.854C120.044 205.178 119.857 204.606 119.485 204.138C119.112 203.67 118.605 203.436 117.964 203.436C117.322 203.436 116.815 203.67 116.443 204.138C116.07 204.606 115.884 205.178 115.884 205.854C115.884 206.53 116.07 207.106 116.443 207.583ZM120.044 199.9L117.847 201.772H117.106L119.03 199.9H120.044ZM125.403 209H124.337L121.724 202.721H122.79L124.87 207.869L126.963 202.721H128.016L125.403 209ZM131.88 209.156C130.935 209.156 130.164 208.853 129.566 208.246C128.968 207.631 128.669 206.833 128.669 205.854C128.669 204.935 128.964 204.16 129.553 203.527C130.142 202.886 130.879 202.565 131.763 202.565C132.69 202.565 133.423 202.886 133.96 203.527C134.506 204.16 134.779 204.961 134.779 205.932V206.179H129.709C129.752 206.794 129.973 207.31 130.372 207.726C130.779 208.142 131.308 208.35 131.958 208.35C132.738 208.35 133.388 208.081 133.908 207.544L134.376 208.181C133.709 208.831 132.877 209.156 131.88 209.156ZM133.817 205.451C133.808 204.922 133.626 204.446 133.271 204.021C132.916 203.588 132.409 203.371 131.75 203.371C131.126 203.371 130.632 203.583 130.268 204.008C129.913 204.433 129.722 204.914 129.696 205.451H133.817ZM141.571 209H140.609V204.892C140.609 204.363 140.488 203.991 140.245 203.774C140.003 203.549 139.652 203.436 139.192 203.436C138.828 203.436 138.477 203.531 138.139 203.722C137.801 203.913 137.533 204.142 137.333 204.411V209H136.358V202.721H137.333V203.631C137.576 203.336 137.901 203.085 138.308 202.877C138.716 202.669 139.14 202.565 139.582 202.565C140.908 202.565 141.571 203.241 141.571 204.593V209ZM146.378 209.156C145.433 209.156 144.662 208.853 144.064 208.246C143.466 207.631 143.167 206.833 143.167 205.854C143.167 204.935 143.462 204.16 144.051 203.527C144.64 202.886 145.377 202.565 146.261 202.565C147.188 202.565 147.921 202.886 148.458 203.527C149.004 204.16 149.277 204.961 149.277 205.932V206.179H144.207C144.25 206.794 144.471 207.31 144.87 207.726C145.277 208.142 145.806 208.35 146.456 208.35C147.236 208.35 147.886 208.081 148.406 207.544L148.874 208.181C148.207 208.831 147.375 209.156 146.378 209.156ZM148.315 205.451C148.306 204.922 148.124 204.446 147.769 204.021C147.414 203.588 146.907 203.371 146.248 203.371C145.624 203.371 145.13 203.583 144.766 204.008C144.411 204.433 144.22 204.914 144.194 205.451H148.315ZM152.858 209.156C151.801 209.156 150.956 208.827 150.323 208.168L150.817 207.466C151.034 207.717 151.329 207.93 151.701 208.103C152.083 208.276 152.477 208.363 152.884 208.363C153.352 208.363 153.716 208.263 153.976 208.064C154.245 207.865 154.379 207.605 154.379 207.284C154.379 207.007 154.245 206.79 153.976 206.634C153.708 206.469 153.383 206.348 153.001 206.27C152.62 206.183 152.239 206.088 151.857 205.984C151.485 205.871 151.164 205.685 150.895 205.425C150.627 205.156 150.492 204.805 150.492 204.372C150.492 203.861 150.7 203.432 151.116 203.085C151.532 202.738 152.1 202.565 152.819 202.565C153.781 202.565 154.557 202.868 155.146 203.475L154.691 204.151C154.249 203.622 153.625 203.358 152.819 203.358C152.395 203.358 152.057 203.453 151.805 203.644C151.554 203.826 151.428 204.06 151.428 204.346C151.428 204.554 151.524 204.727 151.714 204.866C151.905 205.005 152.143 205.104 152.429 205.165C152.724 205.226 153.036 205.304 153.365 205.399C153.703 205.494 154.015 205.603 154.301 205.724C154.596 205.837 154.839 206.027 155.029 206.296C155.22 206.556 155.315 206.877 155.315 207.258C155.315 207.813 155.099 208.268 154.665 208.623C154.241 208.978 153.638 209.156 152.858 209.156Z" fill="#1A1A1A"/>
<path d="M262.528 82H254.8V80.512C257.051 78.8053 258.576 77.552 259.376 76.752C260.176 75.952 260.576 75.184 260.576 74.448C260.576 73.9253 260.384 73.5253 260 73.248C259.616 72.9707 259.157 72.832 258.624 72.832C257.461 72.832 256.501 73.2533 255.744 74.096L254.656 72.88C255.115 72.3253 255.691 71.904 256.384 71.616C257.088 71.3173 257.829 71.168 258.608 71.168C259.696 71.168 260.608 71.4613 261.344 72.048C262.091 72.624 262.464 73.424 262.464 74.448C262.464 75.376 262.08 76.2933 261.312 77.2C260.555 78.1067 259.387 79.1573 257.808 80.352H262.528V82ZM268.38 82.192C266.684 82.192 265.366 81.6427 264.428 80.544L265.5 79.248C266.225 80.1013 267.18 80.528 268.364 80.528C269.025 80.528 269.553 80.352 269.948 80C270.353 79.6373 270.556 79.184 270.556 78.64C270.556 78.0747 270.358 77.6213 269.964 77.28C269.58 76.928 269.062 76.752 268.412 76.752C267.505 76.752 266.726 77.056 266.076 77.664L264.748 77.28V71.328H271.74V72.976H266.62V76.048C267.27 75.44 268.076 75.136 269.036 75.136C269.985 75.136 270.79 75.4453 271.452 76.064C272.124 76.6827 272.46 77.52 272.46 78.576C272.46 79.664 272.081 80.5387 271.324 81.2C270.566 81.8613 269.585 82.192 268.38 82.192ZM276.277 81.392C276.277 81.936 276.139 82.448 275.861 82.928C275.595 83.408 275.237 83.808 274.789 84.128L274.021 83.504C274.288 83.344 274.533 83.12 274.757 82.832C274.992 82.544 275.131 82.2667 275.173 82C275.109 82.032 275.019 82.048 274.901 82.048C274.635 82.048 274.411 81.952 274.229 81.76C274.048 81.568 273.957 81.3227 273.957 81.024C273.957 80.7253 274.064 80.4693 274.277 80.256C274.491 80.0427 274.747 79.936 275.045 79.936C275.387 79.936 275.675 80.0693 275.909 80.336C276.155 80.592 276.277 80.944 276.277 81.392ZM284.711 81.408C283.922 81.9307 282.951 82.192 281.799 82.192C280.647 82.192 279.677 81.9307 278.887 81.408C278.098 80.8853 277.703 80.1653 277.703 79.248C277.703 78.608 277.927 78.048 278.375 77.568C278.834 77.088 279.41 76.7307 280.103 76.496C279.442 76.2827 278.903 75.968 278.487 75.552C278.082 75.1253 277.879 74.5973 277.879 73.968C277.879 73.0507 278.269 72.3573 279.047 71.888C279.826 71.408 280.743 71.168 281.799 71.168C282.855 71.168 283.773 71.408 284.551 71.888C285.33 72.3573 285.719 73.0507 285.719 73.968C285.719 74.5973 285.511 75.1253 285.095 75.552C284.69 75.968 284.157 76.2827 283.495 76.496C284.189 76.7307 284.759 77.088 285.207 77.568C285.666 78.048 285.895 78.608 285.895 79.248C285.895 80.1653 285.501 80.8853 284.711 81.408ZM281.799 75.744C282.002 75.712 282.199 75.664 282.391 75.6C282.594 75.536 282.807 75.4507 283.031 75.344C283.266 75.2267 283.453 75.0773 283.591 74.896C283.741 74.704 283.815 74.4907 283.815 74.256C283.815 73.808 283.629 73.4613 283.255 73.216C282.882 72.96 282.397 72.832 281.799 72.832C281.202 72.832 280.717 72.96 280.343 73.216C279.97 73.4613 279.783 73.808 279.783 74.256C279.783 74.4907 279.853 74.704 279.991 74.896C280.141 75.0773 280.327 75.2267 280.551 75.344C280.786 75.4507 280.999 75.536 281.191 75.6C281.394 75.664 281.597 75.712 281.799 75.744ZM281.799 80.528C282.418 80.528 282.935 80.3893 283.351 80.112C283.778 79.8347 283.991 79.4667 283.991 79.008C283.991 78.528 283.746 78.1493 283.255 77.872C282.775 77.584 282.29 77.4027 281.799 77.328C281.309 77.4027 280.818 77.584 280.327 77.872C279.847 78.1493 279.607 78.528 279.607 79.008C279.607 79.4667 279.815 79.8347 280.231 80.112C280.647 80.3893 281.17 80.528 281.799 80.528ZM289.667 76.464C288.888 76.464 288.248 76.2133 287.747 75.712C287.256 75.2107 287.011 74.5813 287.011 73.824C287.011 73.0667 287.256 72.4373 287.747 71.936C288.248 71.424 288.888 71.168 289.667 71.168C290.456 71.168 291.096 71.4187 291.587 71.92C292.077 72.4213 292.323 73.056 292.323 73.824C292.323 74.5813 292.077 75.2107 291.587 75.712C291.096 76.2133 290.456 76.464 289.667 76.464ZM289.699 82H288.627L295.443 71.328H296.531L289.699 82ZM297.315 81.44C296.824 81.9413 296.189 82.192 295.411 82.192C294.632 82.192 293.992 81.9413 293.491 81.44C293 80.9387 292.755 80.3093 292.755 79.552C292.755 78.7947 293 78.1653 293.491 77.664C293.992 77.152 294.632 76.896 295.411 76.896C296.189 76.896 296.824 77.152 297.315 77.664C297.816 78.1653 298.067 78.7947 298.067 79.552C298.067 80.3093 297.816 80.9387 297.315 81.44ZM289.667 75.392C290.083 75.392 290.424 75.248 290.691 74.96C290.957 74.6613 291.091 74.2827 291.091 73.824C291.091 73.3547 290.957 72.9707 290.691 72.672C290.424 72.3733 290.083 72.224 289.667 72.224C289.261 72.224 288.925 72.3733 288.659 72.672C288.392 72.9707 288.259 73.3547 288.259 73.824C288.259 74.2827 288.392 74.6613 288.659 74.96C288.925 75.248 289.261 75.392 289.667 75.392ZM294.387 80.688C294.653 80.976 294.995 81.12 295.411 81.12C295.827 81.12 296.168 80.976 296.435 80.688C296.701 80.3893 296.835 80.0107 296.835 79.552C296.835 79.0827 296.701 78.6987 296.435 78.4C296.168 78.1013 295.827 77.952 295.411 77.952C294.995 77.952 294.653 78.1013 294.387 78.4C294.12 78.6987 293.987 79.0827 293.987 79.552C293.987 80.0107 294.12 80.3893 294.387 80.688Z" fill="#1A1A1A"/>
<path d="M301 184.107L301 91.7045L251 91.7045L251 184.107L301 184.107Z" fill="#698F3F"/>
<path d="M251.465 203H250.386V194.329H253.87C254.71 194.329 255.373 194.58 255.859 195.083C256.344 195.586 256.587 196.205 256.587 196.942C256.587 197.679 256.34 198.298 255.846 198.801C255.36 199.304 254.702 199.555 253.87 199.555H251.465V203ZM253.74 198.593C254.251 198.593 254.667 198.441 254.988 198.138C255.308 197.826 255.469 197.427 255.469 196.942C255.469 196.457 255.308 196.062 254.988 195.759C254.667 195.447 254.251 195.291 253.74 195.291H251.465V198.593H253.74ZM260.658 203.156C259.714 203.156 258.942 202.853 258.344 202.246C257.746 201.631 257.447 200.833 257.447 199.854C257.447 198.935 257.742 198.16 258.331 197.527C258.921 196.886 259.657 196.565 260.541 196.565C261.469 196.565 262.201 196.886 262.738 197.527C263.284 198.16 263.557 198.961 263.557 199.932V200.179H258.487C258.531 200.794 258.752 201.31 259.15 201.726C259.558 202.142 260.086 202.35 260.736 202.35C261.516 202.35 262.166 202.081 262.686 201.544L263.154 202.181C262.487 202.831 261.655 203.156 260.658 203.156ZM262.595 199.451C262.587 198.922 262.405 198.446 262.049 198.021C261.694 197.588 261.187 197.371 260.528 197.371C259.904 197.371 259.41 197.583 259.046 198.008C258.691 198.433 258.5 198.914 258.474 199.451H262.595ZM266.112 203H265.137V196.721H266.112V197.722C266.71 196.959 267.407 196.578 268.205 196.578V197.579C268.049 197.562 267.923 197.553 267.828 197.553C267.524 197.553 267.199 197.657 266.853 197.865C266.506 198.064 266.259 198.294 266.112 198.554V203ZM271.43 203.156C270.372 203.156 269.527 202.827 268.895 202.168L269.389 201.466C269.605 201.717 269.9 201.93 270.273 202.103C270.654 202.276 271.048 202.363 271.456 202.363C271.924 202.363 272.288 202.263 272.548 202.064C272.816 201.865 272.951 201.605 272.951 201.284C272.951 201.007 272.816 200.79 272.548 200.634C272.279 200.469 271.954 200.348 271.573 200.27C271.191 200.183 270.81 200.088 270.429 199.984C270.056 199.871 269.735 199.685 269.467 199.425C269.198 199.156 269.064 198.805 269.064 198.372C269.064 197.861 269.272 197.432 269.688 197.085C270.104 196.738 270.671 196.565 271.391 196.565C272.353 196.565 273.128 196.868 273.718 197.475L273.263 198.151C272.821 197.622 272.197 197.358 271.391 197.358C270.966 197.358 270.628 197.453 270.377 197.644C270.125 197.826 270 198.06 270 198.346C270 198.554 270.095 198.727 270.286 198.866C270.476 199.005 270.715 199.104 271.001 199.165C271.295 199.226 271.607 199.304 271.937 199.399C272.275 199.494 272.587 199.603 272.873 199.724C273.167 199.837 273.41 200.027 273.601 200.296C273.791 200.556 273.887 200.877 273.887 201.258C273.887 201.813 273.67 202.268 273.237 202.623C272.812 202.978 272.21 203.156 271.43 203.156ZM280.463 202.207C279.899 202.84 279.15 203.156 278.214 203.156C277.278 203.156 276.524 202.84 275.952 202.207C275.388 201.574 275.107 200.79 275.107 199.854C275.107 198.918 275.388 198.138 275.952 197.514C276.524 196.881 277.278 196.565 278.214 196.565C279.15 196.565 279.899 196.881 280.463 197.514C281.035 198.138 281.321 198.918 281.321 199.854C281.321 200.79 281.035 201.574 280.463 202.207ZM276.693 201.583C277.065 202.051 277.572 202.285 278.214 202.285C278.855 202.285 279.362 202.051 279.735 201.583C280.107 201.106 280.294 200.53 280.294 199.854C280.294 199.178 280.107 198.606 279.735 198.138C279.362 197.67 278.855 197.436 278.214 197.436C277.572 197.436 277.065 197.67 276.693 198.138C276.32 198.606 276.134 199.178 276.134 199.854C276.134 200.53 276.32 201.106 276.693 201.583ZM288.123 203H287.161V198.892C287.161 198.363 287.04 197.991 286.797 197.774C286.554 197.549 286.203 197.436 285.744 197.436C285.38 197.436 285.029 197.531 284.691 197.722C284.353 197.913 284.084 198.142 283.885 198.411V203H282.91V196.721H283.885V197.631C284.128 197.336 284.453 197.085 284.86 196.877C285.267 196.669 285.692 196.565 286.134 196.565C287.46 196.565 288.123 197.241 288.123 198.593V203ZM295.608 203H294.633V202.064C294.096 202.792 293.389 203.156 292.514 203.156C291.682 203.156 291.006 202.861 290.486 202.272C289.975 201.674 289.719 200.872 289.719 199.867C289.719 198.87 289.979 198.073 290.499 197.475C291.019 196.868 291.691 196.565 292.514 196.565C293.381 196.565 294.087 196.933 294.633 197.67V196.721H295.608V203ZM292.761 202.285C293.134 202.285 293.493 202.19 293.84 201.999C294.195 201.8 294.46 201.561 294.633 201.284V198.45C294.46 198.164 294.195 197.926 293.84 197.735C293.493 197.536 293.134 197.436 292.761 197.436C292.137 197.436 291.643 197.666 291.279 198.125C290.915 198.576 290.733 199.156 290.733 199.867C290.733 200.578 290.915 201.158 291.279 201.609C291.643 202.06 292.137 202.285 292.761 202.285ZM299.562 203.156C298.505 203.156 297.66 202.827 297.027 202.168L297.521 201.466C297.738 201.717 298.033 201.93 298.405 202.103C298.787 202.276 299.181 202.363 299.588 202.363C300.056 202.363 300.42 202.263 300.68 202.064C300.949 201.865 301.083 201.605 301.083 201.284C301.083 201.007 300.949 200.79 300.68 200.634C300.412 200.469 300.087 200.348 299.705 200.27C299.324 200.183 298.943 200.088 298.561 199.984C298.189 199.871 297.868 199.685 297.599 199.425C297.331 199.156 297.196 198.805 297.196 198.372C297.196 197.861 297.404 197.432 297.82 197.085C298.236 196.738 298.804 196.565 299.523 196.565C300.485 196.565 301.261 196.868 301.85 197.475L301.395 198.151C300.953 197.622 300.329 197.358 299.523 197.358C299.099 197.358 298.761 197.453 298.509 197.644C298.258 197.826 298.132 198.06 298.132 198.346C298.132 198.554 298.228 198.727 298.418 198.866C298.609 199.005 298.847 199.104 299.133 199.165C299.428 199.226 299.74 199.304 300.069 199.399C300.407 199.494 300.719 199.603 301.005 199.724C301.3 199.837 301.543 200.027 301.733 200.296C301.924 200.556 302.019 200.877 302.019 201.258C302.019 201.813 301.803 202.268 301.369 202.623C300.945 202.978 300.342 203.156 299.562 203.156ZM260.411 216H259.436V211.736C259.436 210.869 259.051 210.436 258.279 210.436C257.967 210.436 257.655 210.531 257.343 210.722C257.031 210.904 256.789 211.129 256.615 211.398V216H255.64V211.736C255.64 210.869 255.255 210.436 254.483 210.436C254.18 210.436 253.872 210.531 253.56 210.722C253.257 210.913 253.014 211.142 252.832 211.411V216H251.857V209.721H252.832V210.631C252.997 210.38 253.27 210.141 253.651 209.916C254.041 209.682 254.449 209.565 254.873 209.565C255.324 209.565 255.692 209.673 255.978 209.89C256.264 210.107 256.455 210.388 256.55 210.735C256.741 210.423 257.031 210.15 257.421 209.916C257.811 209.682 258.223 209.565 258.656 209.565C259.826 209.565 260.411 210.198 260.411 211.463V216ZM267.881 216H266.906V215.064C266.369 215.792 265.663 216.156 264.787 216.156C263.955 216.156 263.279 215.861 262.759 215.272C262.248 214.674 261.992 213.872 261.992 212.867C261.992 211.87 262.252 211.073 262.772 210.475C263.292 209.868 263.964 209.565 264.787 209.565C265.654 209.565 266.36 209.933 266.906 210.67V209.721H267.881V216ZM265.034 215.285C265.407 215.285 265.767 215.19 266.113 214.999C266.469 214.8 266.733 214.561 266.906 214.284V211.45C266.733 211.164 266.469 210.926 266.113 210.735C265.767 210.536 265.407 210.436 265.034 210.436C264.41 210.436 263.916 210.666 263.552 211.125C263.188 211.576 263.006 212.156 263.006 212.867C263.006 213.578 263.188 214.158 263.552 214.609C263.916 215.06 264.41 215.285 265.034 215.285ZM272.174 218.548C271.203 218.548 270.402 218.232 269.769 217.599L270.263 216.897C270.714 217.46 271.351 217.742 272.174 217.742C272.763 217.742 273.227 217.582 273.565 217.261C273.903 216.94 274.072 216.494 274.072 215.922V214.986C273.812 215.281 273.483 215.528 273.084 215.727C272.694 215.926 272.278 216.026 271.836 216.026C270.501 216.026 269.834 215.359 269.834 214.024V209.721H270.809V213.725C270.809 214.254 270.93 214.626 271.173 214.843C271.416 215.06 271.767 215.168 272.226 215.168C272.581 215.168 272.928 215.077 273.266 214.895C273.613 214.704 273.881 214.479 274.072 214.219V209.721H275.047V215.922C275.047 216.771 274.774 217.421 274.228 217.872C273.682 218.323 272.997 218.548 272.174 218.548ZM281.986 215.207C281.423 215.84 280.673 216.156 279.737 216.156C278.801 216.156 278.047 215.84 277.475 215.207C276.912 214.574 276.63 213.79 276.63 212.854C276.63 211.918 276.912 211.138 277.475 210.514C278.047 209.881 278.801 209.565 279.737 209.565C280.673 209.565 281.423 209.881 281.986 210.514C282.558 211.138 282.844 211.918 282.844 212.854C282.844 213.79 282.558 214.574 281.986 215.207ZM278.216 214.583C278.589 215.051 279.096 215.285 279.737 215.285C280.378 215.285 280.885 215.051 281.258 214.583C281.631 214.106 281.817 213.53 281.817 212.854C281.817 212.178 281.631 211.606 281.258 211.138C280.885 210.67 280.378 210.436 279.737 210.436C279.096 210.436 278.589 210.67 278.216 211.138C277.843 211.606 277.657 212.178 277.657 212.854C277.657 213.53 277.843 214.106 278.216 214.583ZM285.408 216H284.433V209.721H285.408V210.722C286.006 209.959 286.704 209.578 287.501 209.578V210.579C287.345 210.562 287.22 210.553 287.124 210.553C286.821 210.553 286.496 210.657 286.149 210.865C285.803 211.064 285.556 211.294 285.408 211.554V216ZM291.572 216.156C290.627 216.156 289.856 215.853 289.258 215.246C288.66 214.631 288.361 213.833 288.361 212.854C288.361 211.935 288.655 211.16 289.245 210.527C289.834 209.886 290.571 209.565 291.455 209.565C292.382 209.565 293.114 209.886 293.652 210.527C294.198 211.16 294.471 211.961 294.471 212.932V213.179H289.401C289.444 213.794 289.665 214.31 290.064 214.726C290.471 215.142 291 215.35 291.65 215.35C292.43 215.35 293.08 215.081 293.6 214.544L294.068 215.181C293.4 215.831 292.568 216.156 291.572 216.156ZM293.509 212.451C293.5 211.922 293.318 211.446 292.963 211.021C292.607 210.588 292.1 210.371 291.442 210.371C290.818 210.371 290.324 210.583 289.96 211.008C289.604 211.433 289.414 211.914 289.388 212.451H293.509ZM298.052 216.156C296.994 216.156 296.149 215.827 295.517 215.168L296.011 214.466C296.227 214.717 296.522 214.93 296.895 215.103C297.276 215.276 297.67 215.363 298.078 215.363C298.546 215.363 298.91 215.263 299.17 215.064C299.438 214.865 299.573 214.605 299.573 214.284C299.573 214.007 299.438 213.79 299.17 213.634C298.901 213.469 298.576 213.348 298.195 213.27C297.813 213.183 297.432 213.088 297.051 212.984C296.678 212.871 296.357 212.685 296.089 212.425C295.82 212.156 295.686 211.805 295.686 211.372C295.686 210.861 295.894 210.432 296.31 210.085C296.726 209.738 297.293 209.565 298.013 209.565C298.975 209.565 299.75 209.868 300.34 210.475L299.885 211.151C299.443 210.622 298.819 210.358 298.013 210.358C297.588 210.358 297.25 210.453 296.999 210.644C296.747 210.826 296.622 211.06 296.622 211.346C296.622 211.554 296.717 211.727 296.908 211.866C297.098 212.005 297.337 212.104 297.623 212.165C297.917 212.226 298.229 212.304 298.559 212.399C298.897 212.494 299.209 212.603 299.495 212.724C299.789 212.837 300.032 213.027 300.223 213.296C300.413 213.556 300.509 213.877 300.509 214.258C300.509 214.813 300.292 215.268 299.859 215.623C299.434 215.978 298.832 216.156 298.052 216.156Z" fill="#1A1A1A"/>
</svg>
