<svg width="401" height="128" viewBox="0 0 401 128" fill="none" xmlns="http://www.w3.org/2000/svg">
<path d="M22.75 36H18.751L26.563 18.516H15.837V15.323H30.748V17.834L22.75 36ZM40.055 36.372C38.319 36.372 36.769 36.062 35.405 35.442C34.0617 34.822 33.0077 34.016 32.243 33.024L34.227 30.637C34.8884 31.4223 35.7254 32.0423 36.738 32.497C37.7714 32.931 38.8357 33.148 39.931 33.148C41.2744 33.148 42.3284 32.8587 43.093 32.28C43.8577 31.7013 44.24 30.9367 44.24 29.986C44.24 28.0227 42.7107 27.041 39.652 27.041C38.4947 27.041 37.7094 27.0617 37.296 27.103V23.817C37.5234 23.8377 38.3087 23.848 39.652 23.848C40.9334 23.848 41.9667 23.6207 42.752 23.166C43.5374 22.7113 43.93 22.0293 43.93 21.12C43.93 20.2107 43.527 19.508 42.721 19.012C41.9357 18.4953 40.9437 18.237 39.745 18.237C37.6577 18.237 35.87 19.0017 34.382 20.531L32.522 18.268C34.382 16.098 36.9034 15.013 40.086 15.013C42.3387 15.013 44.1367 15.509 45.48 16.501C46.844 17.493 47.526 18.8467 47.526 20.562C47.526 21.864 47.0714 22.9387 46.162 23.786C45.2734 24.6127 44.24 25.119 43.062 25.305C44.24 25.429 45.3354 25.9353 46.348 26.824C47.3607 27.7127 47.867 28.8803 47.867 30.327C47.867 32.125 47.154 33.582 45.728 34.698C44.3227 35.814 42.4317 36.372 40.055 36.372ZM73.195 36H69.94V33.954C68.7 35.566 67.0983 36.372 65.135 36.372C63.1923 36.372 61.601 35.6693 60.361 34.264C59.121 32.8587 58.501 30.9367 58.501 28.498C58.501 26.1213 59.121 24.22 60.361 22.794C61.601 21.368 63.1923 20.655 65.135 20.655C67.119 20.655 68.7207 21.4713 69.94 23.104V21.027H73.195V36ZM66.096 33.489C66.84 33.489 67.5737 33.2927 68.297 32.9C69.0203 32.5073 69.568 32.032 69.94 31.474V25.553C69.568 24.995 69.0203 24.5197 68.297 24.127C67.5737 23.7343 66.84 23.538 66.096 23.538C64.8147 23.538 63.7813 24.003 62.996 24.933C62.2313 25.8423 61.849 27.0307 61.849 28.498C61.849 29.9653 62.2313 31.164 62.996 32.094C63.7813 33.024 64.8147 33.489 66.096 33.489ZM90.9597 36H87.7047V26.638C87.7047 25.522 87.436 24.7263 86.8987 24.251C86.382 23.7757 85.638 23.538 84.6667 23.538C83.902 23.538 83.1787 23.7343 82.4967 24.127C81.8147 24.499 81.2567 24.964 80.8227 25.522V36H77.5677V21.027H80.8227V23.042C81.3807 22.3807 82.1247 21.8227 83.0547 21.368C84.0054 20.8927 85.0284 20.655 86.1237 20.655C87.715 20.655 88.9137 21.0683 89.7197 21.895C90.5464 22.7217 90.9597 23.91 90.9597 25.46V36ZM85.9067 18.826C85.2867 18.826 84.7597 18.6297 84.3257 18.237C83.9124 17.8237 83.5404 17.4207 83.2097 17.028C82.8997 16.6147 82.569 16.408 82.2177 16.408C81.3704 16.408 80.9467 17.152 80.9467 18.64H79.1487C79.1487 17.3587 79.4174 16.346 79.9547 15.602C80.5127 14.858 81.3084 14.486 82.3417 14.486C82.7344 14.486 83.0857 14.5687 83.3957 14.734C83.7264 14.8993 83.995 15.106 84.2017 15.354C84.4084 15.5813 84.5944 15.819 84.7597 16.067C84.9457 16.2943 85.142 16.4907 85.3487 16.656C85.576 16.8213 85.8034 16.904 86.0307 16.904C86.4027 16.904 86.7127 16.718 86.9607 16.346C87.2087 15.974 87.3327 15.416 87.3327 14.672H89.0997C89.0997 15.9533 88.8207 16.966 88.2627 17.71C87.7254 18.454 86.94 18.826 85.9067 18.826ZM107.401 34.109C105.995 35.6177 104.135 36.372 101.821 36.372C99.5062 36.372 97.6462 35.6177 96.2408 34.109C94.8355 32.5797 94.1328 30.7093 94.1328 28.498C94.1328 26.266 94.8355 24.406 96.2408 22.918C97.6462 21.4093 99.5062 20.655 101.821 20.655C104.135 20.655 105.995 21.4093 107.401 22.918C108.806 24.406 109.509 26.266 109.509 28.498C109.509 30.7093 108.806 32.5797 107.401 34.109ZM101.821 33.489C103.164 33.489 104.218 33.0137 104.983 32.063C105.747 31.0917 106.13 29.9033 106.13 28.498C106.13 27.1133 105.747 25.9457 104.983 24.995C104.218 24.0237 103.164 23.538 101.821 23.538C100.498 23.538 99.4442 24.0237 98.6588 24.995C97.8942 25.9457 97.5118 27.1133 97.5118 28.498C97.5118 29.9033 97.8942 31.0917 98.6588 32.063C99.4442 33.0137 100.498 33.489 101.821 33.489ZM117.979 36.372C115.313 36.372 113.174 35.5867 111.562 34.016L113.05 31.691C113.608 32.2697 114.352 32.7657 115.282 33.179C116.232 33.5717 117.173 33.768 118.103 33.768C119.053 33.768 119.787 33.5923 120.304 33.241C120.82 32.869 121.079 32.3833 121.079 31.784C121.079 31.2467 120.769 30.8333 120.149 30.544C119.529 30.234 118.774 29.9963 117.886 29.831C116.997 29.645 116.108 29.428 115.22 29.18C114.331 28.9113 113.577 28.4463 112.957 27.785C112.337 27.1237 112.027 26.2557 112.027 25.181C112.027 23.8997 112.554 22.825 113.608 21.957C114.662 21.089 116.098 20.655 117.917 20.655C120.211 20.655 122.143 21.3473 123.714 22.732L122.35 25.026C121.254 23.8273 119.777 23.228 117.917 23.228C117.09 23.228 116.418 23.4037 115.902 23.755C115.406 24.1063 115.158 24.5507 115.158 25.088C115.158 25.5633 115.468 25.9353 116.088 26.204C116.708 26.4727 117.462 26.7 118.351 26.886C119.239 27.0513 120.128 27.2683 121.017 27.537C121.905 27.8057 122.66 28.2913 123.28 28.994C123.9 29.6967 124.21 30.5957 124.21 31.691C124.21 33.0757 123.662 34.202 122.567 35.07C121.471 35.938 119.942 36.372 117.979 36.372ZM132.192 36H130.992V29.328H129.712V28.272H130.992V27.68C130.992 26.8907 131.195 26.2773 131.6 25.84C132.016 25.392 132.56 25.168 133.232 25.168C133.712 25.168 134.107 25.2533 134.416 25.424L134.112 26.336C133.909 26.2187 133.68 26.16 133.424 26.16C132.603 26.16 132.192 26.6667 132.192 27.68V28.272H133.76V29.328H132.192V36ZM141.619 36H140.419V34.912C140.099 35.2747 139.694 35.5787 139.203 35.824C138.723 36.0693 138.211 36.192 137.667 36.192C136.024 36.192 135.203 35.3707 135.203 33.728V28.272H136.403V33.36C136.403 34 136.552 34.4533 136.851 34.72C137.15 34.9867 137.582 35.12 138.147 35.12C138.595 35.12 139.027 35.008 139.443 34.784C139.859 34.56 140.184 34.2827 140.419 33.952V28.272H141.619V36ZM147.519 36.192C146.357 36.192 145.407 35.8187 144.671 35.072C143.935 34.3147 143.567 33.3333 143.567 32.128C143.567 30.9973 143.93 30.0427 144.655 29.264C145.381 28.4747 146.287 28.08 147.375 28.08C148.517 28.08 149.418 28.4747 150.079 29.264C150.751 30.0427 151.087 31.0293 151.087 32.224V32.528H144.847C144.901 33.2853 145.173 33.92 145.663 34.432C146.165 34.944 146.815 35.2 147.615 35.2C148.575 35.2 149.375 34.8693 150.015 34.208L150.591 34.992C149.77 35.792 148.746 36.192 147.519 36.192ZM149.903 31.632C149.893 30.9813 149.669 30.3947 149.231 29.872C148.794 29.3387 148.17 29.072 147.359 29.072C146.591 29.072 145.983 29.3333 145.535 29.856C145.098 30.3787 144.863 30.9707 144.831 31.632H149.903ZM158.884 36.192C158.318 36.192 157.892 36.0373 157.604 35.728C157.316 35.4187 157.172 34.9707 157.172 34.384V25.328H158.372V34.128C158.372 34.4267 158.436 34.6667 158.564 34.848C158.702 35.0293 158.9 35.12 159.156 35.12C159.508 35.12 159.774 35.008 159.956 34.784L160.324 35.696C159.961 36.0267 159.481 36.192 158.884 36.192ZM168.269 36H167.069V34.848C166.407 35.744 165.538 36.192 164.461 36.192C163.437 36.192 162.605 35.8293 161.965 35.104C161.335 34.368 161.021 33.3813 161.021 32.144C161.021 30.9173 161.341 29.936 161.981 29.2C162.621 28.4533 163.447 28.08 164.461 28.08C165.527 28.08 166.397 28.5333 167.069 29.44V28.272H168.269V36ZM164.765 35.12C165.223 35.12 165.666 35.0027 166.093 34.768C166.53 34.5227 166.855 34.2293 167.069 33.888V30.4C166.855 30.048 166.53 29.7547 166.093 29.52C165.666 29.2747 165.223 29.152 164.765 29.152C163.997 29.152 163.389 29.4347 162.941 30C162.493 30.5547 162.269 31.2693 162.269 32.144C162.269 33.0187 162.493 33.7333 162.941 34.288C163.389 34.8427 163.997 35.12 164.765 35.12ZM178.316 36.192C177.154 36.192 176.204 35.8187 175.468 35.072C174.732 34.3147 174.364 33.3333 174.364 32.128C174.364 30.9973 174.727 30.0427 175.452 29.264C176.178 28.4747 177.084 28.08 178.172 28.08C179.314 28.08 180.215 28.4747 180.876 29.264C181.548 30.0427 181.884 31.0293 181.884 32.224V32.528H175.644C175.698 33.2853 175.97 33.92 176.46 34.432C176.962 34.944 177.612 35.2 178.412 35.2C179.372 35.2 180.172 34.8693 180.812 34.208L181.388 34.992C180.567 35.792 179.543 36.192 178.316 36.192ZM180.7 31.632C180.69 30.9813 180.466 30.3947 180.028 29.872C179.591 29.3387 178.967 29.072 178.156 29.072C177.388 29.072 176.78 29.3333 176.332 29.856C175.895 30.3787 175.66 30.9707 175.628 31.632H180.7ZM190.228 36H188.852L186.516 32.832L184.196 36H182.82L185.78 32.032L182.98 28.272H184.372L186.516 31.216L188.676 28.272H190.052L187.252 32.032L190.228 36ZM195.433 36.192C194.377 36.192 193.507 35.7387 192.825 34.832V38.944H191.625V28.272H192.825V29.424C193.113 29.0187 193.486 28.6933 193.945 28.448C194.403 28.2027 194.899 28.08 195.433 28.08C196.457 28.08 197.283 28.448 197.913 29.184C198.553 29.9093 198.873 30.8907 198.873 32.128C198.873 33.3653 198.553 34.352 197.913 35.088C197.283 35.824 196.457 36.192 195.433 36.192ZM195.129 35.12C195.886 35.12 196.489 34.8427 196.937 34.288C197.385 33.7227 197.609 33.0027 197.609 32.128C197.609 31.2533 197.385 30.5387 196.937 29.984C196.489 29.4293 195.886 29.152 195.129 29.152C194.67 29.152 194.222 29.2747 193.785 29.52C193.358 29.7547 193.038 30.0427 192.825 30.384V33.872C193.038 34.224 193.358 34.5227 193.785 34.768C194.222 35.0027 194.67 35.12 195.129 35.12ZM204.285 36.192C203.122 36.192 202.173 35.8187 201.437 35.072C200.701 34.3147 200.333 33.3333 200.333 32.128C200.333 30.9973 200.696 30.0427 201.421 29.264C202.146 28.4747 203.053 28.08 204.141 28.08C205.282 28.08 206.184 28.4747 206.845 29.264C207.517 30.0427 207.853 31.0293 207.853 32.224V32.528H201.613C201.666 33.2853 201.938 33.92 202.429 34.432C202.93 34.944 203.581 35.2 204.381 35.2C205.341 35.2 206.141 34.8693 206.781 34.208L207.357 34.992C206.536 35.792 205.512 36.192 204.285 36.192ZM206.669 31.632C206.658 30.9813 206.434 30.3947 205.997 29.872C205.56 29.3387 204.936 29.072 204.125 29.072C203.357 29.072 202.749 29.3333 202.301 29.856C201.864 30.3787 201.629 30.9707 201.597 31.632H206.669ZM213.205 36.192C212.063 36.192 211.135 35.808 210.421 35.04C209.706 34.2613 209.349 33.2907 209.349 32.128C209.349 30.9653 209.706 30 210.421 29.232C211.135 28.464 212.063 28.08 213.205 28.08C214.399 28.08 215.343 28.528 216.037 29.424L215.237 30.144C214.757 29.4827 214.101 29.152 213.269 29.152C212.469 29.152 211.823 29.4347 211.333 30C210.842 30.5547 210.597 31.264 210.597 32.128C210.597 33.0027 210.842 33.7227 211.333 34.288C211.823 34.8427 212.469 35.12 213.269 35.12C214.079 35.12 214.735 34.784 215.237 34.112L216.037 34.848C215.343 35.744 214.399 36.192 213.205 36.192ZM219.702 36.192C218.55 36.192 217.974 35.5893 217.974 34.384V29.328H216.694V28.272H217.974V26.16H219.19V28.272H220.758V29.328H219.19V34.128C219.19 34.4267 219.254 34.6667 219.382 34.848C219.521 35.0293 219.713 35.12 219.958 35.12C220.3 35.12 220.572 35.008 220.774 34.784L221.126 35.696C220.774 36.0267 220.3 36.192 219.702 36.192ZM229.237 36H228.037V34.848C227.376 35.744 226.507 36.192 225.429 36.192C224.405 36.192 223.573 35.8293 222.933 35.104C222.304 34.368 221.989 33.3813 221.989 32.144C221.989 30.9173 222.309 29.936 222.949 29.2C223.589 28.4533 224.416 28.08 225.429 28.08C226.496 28.08 227.365 28.5333 228.037 29.44V28.272H229.237V36ZM225.733 35.12C226.192 35.12 226.635 35.0027 227.061 34.768C227.499 34.5227 227.824 34.2293 228.037 33.888V30.4C227.824 30.048 227.499 29.7547 227.061 29.52C226.635 29.2747 226.192 29.152 225.733 29.152C224.965 29.152 224.357 29.4347 223.909 30C223.461 30.5547 223.237 31.2693 223.237 32.144C223.237 33.0187 223.461 33.7333 223.909 34.288C224.357 34.8427 224.965 35.12 225.733 35.12ZM233.608 36.192C232.456 36.192 231.88 35.5893 231.88 34.384V29.328H230.6V28.272H231.88V26.16H233.096V28.272H234.664V29.328H233.096V34.128C233.096 34.4267 233.16 34.6667 233.288 34.848C233.427 35.0293 233.619 35.12 233.864 35.12C234.206 35.12 234.478 35.008 234.68 34.784L235.032 35.696C234.68 36.0267 234.206 36.192 233.608 36.192ZM237.512 26.944C237.362 27.0933 237.176 27.168 236.952 27.168C236.728 27.168 236.536 27.0933 236.376 26.944C236.216 26.784 236.136 26.592 236.136 26.368C236.136 26.144 236.216 25.952 236.376 25.792C236.536 25.632 236.728 25.552 236.952 25.552C237.176 25.552 237.362 25.632 237.512 25.792C237.672 25.952 237.752 26.144 237.752 26.368C237.752 26.592 237.672 26.784 237.512 26.944ZM237.544 36H236.344V28.272H237.544V36ZM243.313 36H242.001L238.785 28.272H240.097L242.657 34.608L245.233 28.272H246.529L243.313 36ZM254.581 36H253.381V34.848C252.72 35.744 251.85 36.192 250.773 36.192C249.749 36.192 248.917 35.8293 248.277 35.104C247.648 34.368 247.333 33.3813 247.333 32.144C247.333 30.9173 247.653 29.936 248.293 29.2C248.933 28.4533 249.76 28.08 250.773 28.08C251.84 28.08 252.709 28.5333 253.381 29.44V28.272H254.581V36ZM251.077 35.12C251.536 35.12 251.978 35.0027 252.405 34.768C252.842 34.5227 253.168 34.2293 253.381 33.888V30.4C253.168 30.048 252.842 29.7547 252.405 29.52C251.978 29.2747 251.536 29.152 251.077 29.152C250.309 29.152 249.701 29.4347 249.253 30C248.805 30.5547 248.581 31.2693 248.581 32.144C248.581 33.0187 248.805 33.7333 249.253 34.288C249.701 34.8427 250.309 35.12 251.077 35.12ZM267.925 36H266.725V34.848C266.063 35.744 265.194 36.192 264.117 36.192C263.093 36.192 262.261 35.8293 261.621 35.104C260.991 34.368 260.677 33.3813 260.677 32.144C260.677 30.9173 260.997 29.936 261.637 29.2C262.277 28.4533 263.103 28.08 264.117 28.08C265.183 28.08 266.053 28.5333 266.725 29.44V25.328H267.925V36ZM264.421 35.12C264.879 35.12 265.322 35.0027 265.749 34.768C266.186 34.5227 266.511 34.2293 266.725 33.888V30.4C266.511 30.048 266.186 29.7547 265.749 29.52C265.322 29.2747 264.879 29.152 264.421 29.152C263.653 29.152 263.045 29.4347 262.597 30C262.149 30.5547 261.925 31.2693 261.925 32.144C261.925 33.0187 262.149 33.7333 262.597 34.288C263.045 34.8427 263.653 35.12 264.421 35.12ZM273.832 36.192C272.669 36.192 271.72 35.8187 270.984 35.072C270.248 34.3147 269.88 33.3333 269.88 32.128C269.88 30.9973 270.243 30.0427 270.968 29.264C271.693 28.4747 272.6 28.08 273.688 28.08C274.829 28.08 275.731 28.4747 276.392 29.264C277.064 30.0427 277.4 31.0293 277.4 32.224V32.528H271.16C271.213 33.2853 271.485 33.92 271.976 34.432C272.477 34.944 273.128 35.2 273.928 35.2C274.888 35.2 275.688 34.8693 276.328 34.208L276.904 34.992C276.083 35.792 275.059 36.192 273.832 36.192ZM276.216 31.632C276.205 30.9813 275.981 30.3947 275.544 29.872C275.107 29.3387 274.483 29.072 273.672 29.072C272.904 29.072 272.296 29.3333 271.848 29.856C271.411 30.3787 271.176 30.9707 271.144 31.632H276.216ZM286.86 36H285.548L282.332 28.272H283.644L286.204 34.608L288.78 28.272H290.076L286.86 36ZM292.496 26.944C292.347 27.0933 292.16 27.168 291.936 27.168C291.712 27.168 291.52 27.0933 291.36 26.944C291.2 26.784 291.12 26.592 291.12 26.368C291.12 26.144 291.2 25.952 291.36 25.792C291.52 25.632 291.712 25.552 291.936 25.552C292.16 25.552 292.347 25.632 292.496 25.792C292.656 25.952 292.736 26.144 292.736 26.368C292.736 26.592 292.656 26.784 292.496 26.944ZM292.528 36H291.328V28.272H292.528V36ZM301.722 36H300.522V34.848C299.86 35.744 298.991 36.192 297.914 36.192C296.89 36.192 296.058 35.8293 295.418 35.104C294.788 34.368 294.474 33.3813 294.474 32.144C294.474 30.9173 294.794 29.936 295.434 29.2C296.074 28.4533 296.9 28.08 297.914 28.08C298.98 28.08 299.85 28.5333 300.522 29.44V25.328H301.722V36ZM298.218 35.12C298.676 35.12 299.119 35.0027 299.546 34.768C299.983 34.5227 300.308 34.2293 300.522 33.888V30.4C300.308 30.048 299.983 29.7547 299.546 29.52C299.119 29.2747 298.676 29.152 298.218 29.152C297.45 29.152 296.842 29.4347 296.394 30C295.946 30.5547 295.722 31.2693 295.722 32.144C295.722 33.0187 295.946 33.7333 296.394 34.288C296.842 34.8427 297.45 35.12 298.218 35.12ZM310.925 36H309.725V34.848C309.063 35.744 308.194 36.192 307.117 36.192C306.093 36.192 305.261 35.8293 304.621 35.104C303.991 34.368 303.677 33.3813 303.677 32.144C303.677 30.9173 303.997 29.936 304.637 29.2C305.277 28.4533 306.103 28.08 307.117 28.08C308.183 28.08 309.053 28.5333 309.725 29.44V28.272H310.925V36ZM307.421 35.12C307.879 35.12 308.322 35.0027 308.749 34.768C309.186 34.5227 309.511 34.2293 309.725 33.888V30.4C309.511 30.048 309.186 29.7547 308.749 29.52C308.322 29.2747 307.879 29.152 307.421 29.152C306.653 29.152 306.045 29.4347 305.597 30C305.149 30.5547 304.925 31.2693 304.925 32.144C304.925 33.0187 305.149 33.7333 305.597 34.288C306.045 34.8427 306.653 35.12 307.421 35.12ZM324.269 36H323.069V34.848C322.407 35.744 321.538 36.192 320.461 36.192C319.437 36.192 318.605 35.8293 317.965 35.104C317.335 34.368 317.021 33.3813 317.021 32.144C317.021 30.9173 317.341 29.936 317.981 29.2C318.621 28.4533 319.447 28.08 320.461 28.08C321.527 28.08 322.397 28.5333 323.069 29.44V28.272H324.269V36ZM320.765 35.12C321.223 35.12 321.666 35.0027 322.093 34.768C322.53 34.5227 322.855 34.2293 323.069 33.888V30.4C322.855 30.048 322.53 29.7547 322.093 29.52C321.666 29.2747 321.223 29.152 320.765 29.152C319.997 29.152 319.389 29.4347 318.941 30C318.493 30.5547 318.269 31.2693 318.269 32.144C318.269 33.0187 318.493 33.7333 318.941 34.288C319.389 34.8427 319.997 35.12 320.765 35.12ZM328.384 36.192C327.818 36.192 327.392 36.0373 327.104 35.728C326.816 35.4187 326.672 34.9707 326.672 34.384V25.328H327.872V34.128C327.872 34.4267 327.936 34.6667 328.064 34.848C328.202 35.0293 328.4 35.12 328.656 35.12C329.008 35.12 329.274 35.008 329.456 34.784L329.824 35.696C329.461 36.0267 328.981 36.192 328.384 36.192ZM341.525 36H340.341V30.944C340.341 30.2933 340.192 29.8347 339.893 29.568C339.595 29.2907 339.163 29.152 338.597 29.152C338.149 29.152 337.717 29.2693 337.301 29.504C336.885 29.7387 336.555 30.0213 336.309 30.352V36H335.109V28.272H336.309V29.392C336.608 29.0293 337.008 28.72 337.509 28.464C338.011 28.208 338.533 28.08 339.077 28.08C340.709 28.08 341.525 28.912 341.525 30.576V36ZM350.737 36H349.537V34.848C348.876 35.744 348.007 36.192 346.929 36.192C345.905 36.192 345.073 35.8293 344.433 35.104C343.804 34.368 343.489 33.3813 343.489 32.144C343.489 30.9173 343.809 29.936 344.449 29.2C345.089 28.4533 345.916 28.08 346.929 28.08C347.996 28.08 348.865 28.5333 349.537 29.44V28.272H350.737V36ZM347.233 35.12C347.692 35.12 348.135 35.0027 348.561 34.768C348.999 34.5227 349.324 34.2293 349.537 33.888V30.4C349.324 30.048 348.999 29.7547 348.561 29.52C348.135 29.2747 347.692 29.152 347.233 29.152C346.465 29.152 345.857 29.4347 345.409 30C344.961 30.5547 344.737 31.2693 344.737 32.144C344.737 33.0187 344.961 33.7333 345.409 34.288C345.857 34.8427 346.465 35.12 347.233 35.12ZM356.548 36.192C355.407 36.192 354.479 35.808 353.764 35.04C353.05 34.2613 352.692 33.2907 352.692 32.128C352.692 30.9653 353.05 30 353.764 29.232C354.479 28.464 355.407 28.08 356.548 28.08C357.743 28.08 358.687 28.528 359.38 29.424L358.58 30.144C358.1 29.4827 357.444 29.152 356.612 29.152C355.812 29.152 355.167 29.4347 354.676 30C354.186 30.5547 353.94 31.264 353.94 32.128C353.94 33.0027 354.186 33.7227 354.676 34.288C355.167 34.8427 355.812 35.12 356.612 35.12C357.423 35.12 358.079 34.784 358.58 34.112L359.38 34.848C358.687 35.744 357.743 36.192 356.548 36.192ZM364.582 36.192C363.419 36.192 362.47 35.8187 361.734 35.072C360.998 34.3147 360.63 33.3333 360.63 32.128C360.63 30.9973 360.993 30.0427 361.718 29.264C362.443 28.4747 363.35 28.08 364.438 28.08C365.579 28.08 366.481 28.4747 367.142 29.264C367.814 30.0427 368.15 31.0293 368.15 32.224V32.528H361.91C361.963 33.2853 362.235 33.92 362.726 34.432C363.227 34.944 363.878 35.2 364.678 35.2C365.638 35.2 366.438 34.8693 367.078 34.208L367.654 34.992C366.833 35.792 365.809 36.192 364.582 36.192ZM366.966 31.632C366.955 30.9813 366.731 30.3947 366.294 29.872C365.857 29.3387 365.233 29.072 364.422 29.072C363.654 29.072 363.046 29.3333 362.598 29.856C362.161 30.3787 361.926 30.9707 361.894 31.632H366.966ZM371.294 36H370.094V28.272H371.294V29.504C372.03 28.5653 372.888 28.096 373.87 28.096V29.328C373.678 29.3067 373.523 29.296 373.406 29.296C373.032 29.296 372.632 29.424 372.206 29.68C371.779 29.9253 371.475 30.208 371.294 30.528V36ZM19.704 57.192C18.5413 57.192 17.592 56.8187 16.856 56.072C16.12 55.3147 15.752 54.3333 15.752 53.128C15.752 51.9973 16.1147 51.0427 16.84 50.264C17.5653 49.4747 18.472 49.08 19.56 49.08C20.7013 49.08 21.6027 49.4747 22.264 50.264C22.936 51.0427 23.272 52.0293 23.272 53.224V53.528H17.032C17.0853 54.2853 17.3573 54.92 17.848 55.432C18.3493 55.944 19 56.2 19.8 56.2C20.76 56.2 21.56 55.8693 22.2 55.208L22.776 55.992C21.9547 56.792 20.9307 57.192 19.704 57.192ZM22.088 52.632C22.0773 51.9813 21.8533 51.3947 21.416 50.872C20.9787 50.3387 20.3547 50.072 19.544 50.072C18.776 50.072 18.168 50.3333 17.72 50.856C17.2827 51.3787 17.048 51.9707 17.016 52.632H22.088ZM31.6316 57H30.4476V51.944C30.4476 51.2933 30.2983 50.8347 29.9996 50.568C29.701 50.2907 29.269 50.152 28.7036 50.152C28.2556 50.152 27.8236 50.2693 27.4076 50.504C26.9916 50.7387 26.661 51.0213 26.4156 51.352V57H25.2156V49.272H26.4156V50.392C26.7143 50.0293 27.1143 49.72 27.6156 49.464C28.117 49.208 28.6396 49.08 29.1836 49.08C30.8156 49.08 31.6316 49.912 31.6316 51.576V57ZM43.2884 57.192C41.731 57.192 40.4244 56.68 39.3684 55.656C38.323 54.6213 37.8004 53.2933 37.8004 51.672C37.8004 50.0507 38.323 48.728 39.3684 47.704C40.4244 46.6693 41.731 46.152 43.2884 46.152C45.0057 46.152 46.355 46.856 47.3364 48.264L46.2324 48.888C45.923 48.4187 45.5017 48.0453 44.9684 47.768C44.4457 47.48 43.8857 47.336 43.2884 47.336C42.1044 47.336 41.123 47.7413 40.3444 48.552C39.5657 49.3627 39.1764 50.4027 39.1764 51.672C39.1764 52.9307 39.5657 53.9707 40.3444 54.792C41.1337 55.6027 42.115 56.008 43.2884 56.008C43.8857 56.008 44.4457 55.864 44.9684 55.576C45.5017 55.288 45.923 54.9147 46.2324 54.456L47.3524 55.064C46.3177 56.4827 44.963 57.192 43.2884 57.192ZM55.1409 56.024C54.4475 56.8027 53.5249 57.192 52.3729 57.192C51.2209 57.192 50.2929 56.8027 49.5889 56.024C48.8955 55.2453 48.5489 54.28 48.5489 53.128C48.5489 51.976 48.8955 51.016 49.5889 50.248C50.2929 49.4693 51.2209 49.08 52.3729 49.08C53.5249 49.08 54.4475 49.4693 55.1409 50.248C55.8449 51.016 56.1969 51.976 56.1969 53.128C56.1969 54.28 55.8449 55.2453 55.1409 56.024ZM50.5009 55.256C50.9595 55.832 51.5835 56.12 52.3729 56.12C53.1622 56.12 53.7862 55.832 54.2449 55.256C54.7035 54.6693 54.9329 53.96 54.9329 53.128C54.9329 52.296 54.7035 51.592 54.2449 51.016C53.7862 50.44 53.1622 50.152 52.3729 50.152C51.5835 50.152 50.9595 50.44 50.5009 51.016C50.0422 51.592 49.8129 52.296 49.8129 53.128C49.8129 53.96 50.0422 54.6693 50.5009 55.256ZM59.8651 57.192C59.2998 57.192 58.8731 57.0373 58.5851 56.728C58.2971 56.4187 58.1531 55.9707 58.1531 55.384V46.328H59.3531V55.128C59.3531 55.4267 59.4171 55.6667 59.5451 55.848C59.6838 56.0293 59.8811 56.12 60.1371 56.12C60.4891 56.12 60.7558 56.008 60.9371 55.784L61.3051 56.696C60.9425 57.0267 60.4625 57.192 59.8651 57.192ZM68.594 56.024C67.9007 56.8027 66.978 57.192 65.826 57.192C64.674 57.192 63.746 56.8027 63.042 56.024C62.3487 55.2453 62.002 54.28 62.002 53.128C62.002 51.976 62.3487 51.016 63.042 50.248C63.746 49.4693 64.674 49.08 65.826 49.08C66.978 49.08 67.9007 49.4693 68.594 50.248C69.298 51.016 69.65 51.976 69.65 53.128C69.65 54.28 69.298 55.2453 68.594 56.024ZM63.954 55.256C64.4127 55.832 65.0367 56.12 65.826 56.12C66.6153 56.12 67.2393 55.832 67.698 55.256C68.1567 54.6693 68.386 53.96 68.386 53.128C68.386 52.296 68.1567 51.592 67.698 51.016C67.2393 50.44 66.6153 50.152 65.826 50.152C65.0367 50.152 64.4127 50.44 63.954 51.016C63.4953 51.592 63.266 52.296 63.266 53.128C63.266 53.96 63.4953 54.6693 63.954 55.256ZM82.1343 57H80.9343V51.752C80.9343 50.6853 80.4596 50.152 79.5103 50.152C79.1263 50.152 78.7423 50.2693 78.3583 50.504C77.9743 50.728 77.6756 51.0053 77.4623 51.336V57H76.2623V51.752C76.2623 50.6853 75.7876 50.152 74.8383 50.152C74.4649 50.152 74.0863 50.2693 73.7023 50.504C73.3289 50.7387 73.0303 51.0213 72.8063 51.352V57H71.6063V49.272H72.8063V50.392C73.0089 50.0827 73.3449 49.7893 73.8143 49.512C74.2943 49.224 74.7956 49.08 75.3183 49.08C75.8729 49.08 76.3263 49.2133 76.6783 49.48C77.0303 49.7467 77.2649 50.0933 77.3823 50.52C77.6169 50.136 77.9743 49.8 78.4543 49.512C78.9343 49.224 79.4409 49.08 79.9743 49.08C81.4143 49.08 82.1343 49.8587 82.1343 51.416V57ZM85.7281 54.904C85.9415 55.2453 86.2615 55.5333 86.6881 55.768C87.1255 56.0027 87.5788 56.12 88.0481 56.12C88.8055 56.12 89.4081 55.8427 89.8561 55.288C90.3041 54.7333 90.5281 54.0187 90.5281 53.144C90.5281 52.2693 90.3041 51.5547 89.8561 51C89.4081 50.4347 88.8055 50.152 88.0481 50.152C87.5788 50.152 87.1255 50.2747 86.6881 50.52C86.2615 50.7547 85.9415 51.048 85.7281 51.4V54.904ZM85.7281 57H84.5281V46.328H85.7281V50.44C86.4001 49.5333 87.2695 49.08 88.3361 49.08C89.3601 49.08 90.1868 49.4533 90.8161 50.2C91.4561 50.936 91.7761 51.9173 91.7761 53.144C91.7761 54.3813 91.4561 55.368 90.8161 56.104C90.1868 56.8293 89.3601 57.192 88.3361 57.192C87.2588 57.192 86.3895 56.744 85.7281 55.848V57ZM94.8993 47.944C94.7499 48.0933 94.5633 48.168 94.3393 48.168C94.1153 48.168 93.9233 48.0933 93.7633 47.944C93.6033 47.784 93.5233 47.592 93.5233 47.368C93.5233 47.144 93.6033 46.952 93.7633 46.792C93.9233 46.632 94.1153 46.552 94.3393 46.552C94.5633 46.552 94.7499 46.632 94.8993 46.792C95.0593 46.952 95.1393 47.144 95.1393 47.368C95.1393 47.592 95.0593 47.784 94.8993 47.944ZM94.9313 57H93.7313V49.272H94.9313V57ZM104.125 57H102.925V55.848C102.264 56.744 101.394 57.192 100.317 57.192C99.293 57.192 98.461 56.8293 97.821 56.104C97.1917 55.368 96.877 54.3813 96.877 53.144C96.877 51.9173 97.197 50.936 97.837 50.2C98.477 49.4533 99.3037 49.08 100.317 49.08C101.384 49.08 102.253 49.5333 102.925 50.44V49.272H104.125V57ZM100.621 56.12C101.08 56.12 101.522 56.0027 101.949 55.768C102.386 55.5227 102.712 55.2293 102.925 54.888V51.4C102.712 51.048 102.386 50.7547 101.949 50.52C101.522 50.2747 101.08 50.152 100.621 50.152C99.853 50.152 99.245 50.4347 98.797 51C98.349 51.5547 98.125 52.2693 98.125 53.144C98.125 54.0187 98.349 54.7333 98.797 55.288C99.245 55.8427 99.853 56.12 100.621 56.12ZM114.173 57.192C113.01 57.192 112.061 56.8187 111.325 56.072C110.589 55.3147 110.221 54.3333 110.221 53.128C110.221 51.9973 110.583 51.0427 111.309 50.264C112.034 49.4747 112.941 49.08 114.029 49.08C115.17 49.08 116.071 49.4747 116.733 50.264C117.405 51.0427 117.741 52.0293 117.741 53.224V53.528H111.501C111.554 54.2853 111.826 54.92 112.317 55.432C112.818 55.944 113.469 56.2 114.269 56.2C115.229 56.2 116.029 55.8693 116.669 55.208L117.245 55.992C116.423 56.792 115.399 57.192 114.173 57.192ZM116.557 52.632C116.546 51.9813 116.322 51.3947 115.885 50.872C115.447 50.3387 114.823 50.072 114.013 50.072C113.245 50.072 112.637 50.3333 112.189 50.856C111.751 51.3787 111.517 51.9707 111.485 52.632H116.557ZM126.1 57H124.916V51.944C124.916 51.2933 124.767 50.8347 124.468 50.568C124.17 50.2907 123.738 50.152 123.172 50.152C122.724 50.152 122.292 50.2693 121.876 50.504C121.46 50.7387 121.13 51.0213 120.884 51.352V57H119.684V49.272H120.884V50.392C121.183 50.0293 121.583 49.72 122.084 49.464C122.586 49.208 123.108 49.08 123.652 49.08C125.284 49.08 126.1 49.912 126.1 51.576V57ZM139.645 57H132.317V55.928C134.504 54.2213 136.04 52.904 136.925 51.976C137.81 51.048 138.253 50.1573 138.253 49.304C138.253 48.664 138.029 48.1787 137.581 47.848C137.144 47.5173 136.621 47.352 136.013 47.352C134.786 47.352 133.821 47.8 133.117 48.696L132.301 47.848C132.706 47.3147 133.234 46.904 133.885 46.616C134.546 46.3173 135.256 46.168 136.013 46.168C136.984 46.168 137.821 46.44 138.525 46.984C139.24 47.528 139.597 48.3013 139.597 49.304C139.597 50.296 139.17 51.288 138.317 52.28C137.464 53.2613 136.162 54.44 134.413 55.816H139.645V57ZM145.755 57.192C145.051 57.192 144.427 57.032 143.883 56.712C143.35 56.3813 142.923 55.944 142.603 55.4C142.294 54.856 142.059 54.2693 141.899 53.64C141.75 53.0107 141.675 52.3547 141.675 51.672C141.675 50.9893 141.75 50.3333 141.899 49.704C142.059 49.0747 142.294 48.4933 142.603 47.96C142.923 47.416 143.35 46.984 143.883 46.664C144.427 46.3333 145.051 46.168 145.755 46.168C146.449 46.168 147.067 46.3333 147.611 46.664C148.155 46.984 148.582 47.416 148.891 47.96C149.211 48.4933 149.446 49.0747 149.595 49.704C149.755 50.3333 149.835 50.9893 149.835 51.672C149.835 52.3547 149.755 53.0107 149.595 53.64C149.446 54.2693 149.211 54.856 148.891 55.4C148.582 55.944 148.155 56.3813 147.611 56.712C147.067 57.032 146.449 57.192 145.755 57.192ZM144.155 55.352C144.582 55.7893 145.115 56.008 145.755 56.008C146.395 56.008 146.929 55.7893 147.355 55.352C147.782 54.904 148.075 54.3707 148.235 53.752C148.395 53.1333 148.475 52.44 148.475 51.672C148.475 50.904 148.395 50.2107 148.235 49.592C148.075 48.9733 147.782 48.4453 147.355 48.008C146.929 47.5707 146.395 47.352 145.755 47.352C145.115 47.352 144.582 47.5707 144.155 48.008C143.729 48.4453 143.435 48.9733 143.275 49.592C143.115 50.2107 143.035 50.904 143.035 51.672C143.035 52.44 143.115 53.1333 143.275 53.752C143.435 54.3707 143.729 54.904 144.155 55.352ZM158.848 57H151.52V55.928C153.707 54.2213 155.243 52.904 156.128 51.976C157.014 51.048 157.456 50.1573 157.456 49.304C157.456 48.664 157.232 48.1787 156.784 47.848C156.347 47.5173 155.824 47.352 155.216 47.352C153.99 47.352 153.024 47.8 152.32 48.696L151.504 47.848C151.91 47.3147 152.438 46.904 153.088 46.616C153.75 46.3173 154.459 46.168 155.216 46.168C156.187 46.168 157.024 46.44 157.728 46.984C158.443 47.528 158.8 48.3013 158.8 49.304C158.8 50.296 158.374 51.288 157.52 52.28C156.667 53.2613 155.366 54.44 153.616 55.816H158.848V57ZM164.239 57H162.911V48.072L161.199 49.896L160.399 49.08L163.071 46.328H164.239V57ZM167.948 56.904C167.778 57.0747 167.57 57.16 167.324 57.16C167.079 57.16 166.871 57.0747 166.7 56.904C166.53 56.7333 166.444 56.5253 166.444 56.28C166.444 56.0347 166.53 55.8267 166.7 55.656C166.871 55.4853 167.079 55.4 167.324 55.4C167.57 55.4 167.778 55.4853 167.948 55.656C168.119 55.8267 168.204 56.0347 168.204 56.28C168.204 56.5253 168.119 56.7333 167.948 56.904ZM183.712 57H182.192L181.248 54.616H175.936L174.992 57H173.472L177.776 46.328H179.424L183.712 57ZM180.864 53.448L178.592 47.688L176.336 53.448H180.864ZM191.288 57H190.088V55.912C189.768 56.2747 189.363 56.5787 188.872 56.824C188.392 57.0693 187.88 57.192 187.336 57.192C185.693 57.192 184.872 56.3707 184.872 54.728V49.272H186.072V54.36C186.072 55 186.221 55.4533 186.52 55.72C186.819 55.9867 187.251 56.12 187.816 56.12C188.264 56.12 188.696 56.008 189.112 55.784C189.528 55.56 189.853 55.2827 190.088 54.952V49.272H191.288V57ZM200.1 57H198.916V51.944C198.916 51.2933 198.767 50.8347 198.468 50.568C198.17 50.2907 197.738 50.152 197.172 50.152C196.724 50.152 196.292 50.2693 195.876 50.504C195.46 50.7387 195.13 51.0213 194.884 51.352V57H193.684V49.272H194.884V50.392C195.183 50.0293 195.583 49.72 196.084 49.464C196.586 49.208 197.108 49.08 197.652 49.08C199.284 49.08 200.1 49.912 200.1 51.576V57ZM205.761 56.12C206.219 56.12 206.662 56.0027 207.089 55.768C207.526 55.5227 207.851 55.224 208.065 54.872V51.384C207.851 51.0427 207.526 50.7547 207.089 50.52C206.662 50.2747 206.219 50.152 205.761 50.152C205.003 50.152 204.401 50.4293 203.953 50.984C203.505 51.5387 203.281 52.2533 203.281 53.128C203.281 54.0027 203.505 54.7227 203.953 55.288C204.401 55.8427 205.003 56.12 205.761 56.12ZM205.457 57.192C204.433 57.192 203.601 56.824 202.961 56.088C202.331 55.352 202.017 54.3653 202.017 53.128C202.017 51.8907 202.331 50.9093 202.961 50.184C203.601 49.448 204.433 49.08 205.457 49.08C205.99 49.08 206.486 49.2027 206.945 49.448C207.403 49.6933 207.777 50.0187 208.065 50.424V49.272H209.265V59.944H208.065V55.832C207.382 56.7387 206.513 57.192 205.457 57.192ZM218.085 57H216.885V55.912C216.565 56.2747 216.159 56.5787 215.669 56.824C215.189 57.0693 214.677 57.192 214.133 57.192C212.49 57.192 211.669 56.3707 211.669 54.728V49.272H212.869V54.36C212.869 55 213.018 55.4533 213.317 55.72C213.615 55.9867 214.047 56.12 214.613 56.12C215.061 56.12 215.493 56.008 215.909 55.784C216.325 55.56 216.65 55.2827 216.885 54.952V49.272H218.085V57ZM223.985 57.192C222.823 57.192 221.873 56.8187 221.137 56.072C220.401 55.3147 220.033 54.3333 220.033 53.128C220.033 51.9973 220.396 51.0427 221.121 50.264C221.847 49.4747 222.753 49.08 223.841 49.08C224.983 49.08 225.884 49.4747 226.545 50.264C227.217 51.0427 227.553 52.0293 227.553 53.224V53.528H221.313C221.367 54.2853 221.639 54.92 222.129 55.432C222.631 55.944 223.281 56.2 224.081 56.2C225.041 56.2 225.841 55.8693 226.481 55.208L227.057 55.992C226.236 56.792 225.212 57.192 223.985 57.192ZM226.369 52.632C226.359 51.9813 226.135 51.3947 225.697 50.872C225.26 50.3387 224.636 50.072 223.825 50.072C223.057 50.072 222.449 50.3333 222.001 50.856C221.564 51.3787 221.329 51.9707 221.297 52.632H226.369ZM240.07 57H238.87V51.912C238.87 51.2613 238.72 50.808 238.422 50.552C238.123 50.2853 237.691 50.152 237.126 50.152C236.688 50.152 236.256 50.2693 235.83 50.504C235.414 50.7387 235.088 51.0213 234.854 51.352V57H233.654V46.328H234.854V50.392C235.142 50.0293 235.536 49.72 236.038 49.464C236.539 49.208 237.062 49.08 237.606 49.08C239.248 49.08 240.07 49.9013 240.07 51.544V57ZM249.266 57H248.066V55.848C247.404 56.744 246.535 57.192 245.458 57.192C244.434 57.192 243.602 56.8293 242.962 56.104C242.332 55.368 242.018 54.3813 242.018 53.144C242.018 51.9173 242.338 50.936 242.978 50.2C243.618 49.4533 244.444 49.08 245.458 49.08C246.524 49.08 247.394 49.5333 248.066 50.44V49.272H249.266V57ZM245.762 56.12C246.22 56.12 246.663 56.0027 247.09 55.768C247.527 55.5227 247.852 55.2293 248.066 54.888V51.4C247.852 51.048 247.527 50.7547 247.09 50.52C246.663 50.2747 246.22 50.152 245.762 50.152C244.994 50.152 244.386 50.4347 243.938 51C243.49 51.5547 243.266 52.2693 243.266 53.144C243.266 54.0187 243.49 54.7333 243.938 55.288C244.386 55.8427 244.994 56.12 245.762 56.12ZM262.609 57H261.409V55.848C260.748 56.744 259.879 57.192 258.801 57.192C257.777 57.192 256.945 56.8293 256.305 56.104C255.676 55.368 255.361 54.3813 255.361 53.144C255.361 51.9173 255.681 50.936 256.321 50.2C256.961 49.4533 257.788 49.08 258.801 49.08C259.868 49.08 260.737 49.5333 261.409 50.44V49.272H262.609V57ZM259.105 56.12C259.564 56.12 260.007 56.0027 260.433 55.768C260.871 55.5227 261.196 55.2293 261.409 54.888V51.4C261.196 51.048 260.871 50.7547 260.433 50.52C260.007 50.2747 259.564 50.152 259.105 50.152C258.337 50.152 257.729 50.4347 257.281 51C256.833 51.5547 256.609 52.2693 256.609 53.144C256.609 54.0187 256.833 54.7333 257.281 55.288C257.729 55.8427 258.337 56.12 259.105 56.12ZM271.429 57H270.229V55.912C269.909 56.2747 269.503 56.5787 269.013 56.824C268.533 57.0693 268.021 57.192 267.477 57.192C265.834 57.192 265.013 56.3707 265.013 54.728V49.272H266.213V54.36C266.213 55 266.362 55.4533 266.661 55.72C266.959 55.9867 267.391 56.12 267.957 56.12C268.405 56.12 268.837 56.008 269.253 55.784C269.669 55.56 269.994 55.2827 270.229 54.952V49.272H271.429V57ZM284.353 57H283.153V51.752C283.153 50.6853 282.678 50.152 281.729 50.152C281.345 50.152 280.961 50.2693 280.577 50.504C280.193 50.728 279.894 51.0053 279.681 51.336V57H278.481V51.752C278.481 50.6853 278.006 50.152 277.057 50.152C276.684 50.152 276.305 50.2693 275.921 50.504C275.548 50.7387 275.249 51.0213 275.025 51.352V57H273.825V49.272H275.025V50.392C275.228 50.0827 275.564 49.7893 276.033 49.512C276.513 49.224 277.014 49.08 277.537 49.08C278.092 49.08 278.545 49.2133 278.897 49.48C279.249 49.7467 279.484 50.0933 279.601 50.52C279.836 50.136 280.193 49.8 280.673 49.512C281.153 49.224 281.66 49.08 282.193 49.08C283.633 49.08 284.353 49.8587 284.353 51.416V57ZM290.251 57.192C289.088 57.192 288.139 56.8187 287.403 56.072C286.667 55.3147 286.299 54.3333 286.299 53.128C286.299 51.9973 286.662 51.0427 287.387 50.264C288.112 49.4747 289.019 49.08 290.107 49.08C291.248 49.08 292.15 49.4747 292.811 50.264C293.483 51.0427 293.819 52.0293 293.819 53.224V53.528H287.579C287.632 54.2853 287.904 54.92 288.395 55.432C288.896 55.944 289.547 56.2 290.347 56.2C291.307 56.2 292.107 55.8693 292.747 55.208L293.323 55.992C292.502 56.792 291.478 57.192 290.251 57.192ZM292.635 52.632C292.624 51.9813 292.4 51.3947 291.963 50.872C291.526 50.3387 290.902 50.072 290.091 50.072C289.323 50.072 288.715 50.3333 288.267 50.856C287.83 51.3787 287.595 51.9707 287.563 52.632H292.635ZM302.179 57H300.995V51.944C300.995 51.2933 300.845 50.8347 300.547 50.568C300.248 50.2907 299.816 50.152 299.251 50.152C298.803 50.152 298.371 50.2693 297.955 50.504C297.539 50.7387 297.208 51.0213 296.963 51.352V57H295.763V49.272H296.963V50.392C297.261 50.0293 297.661 49.72 298.163 49.464C298.664 49.208 299.187 49.08 299.731 49.08C301.363 49.08 302.179 49.912 302.179 51.576V57ZM306.559 57.192C305.407 57.192 304.831 56.5893 304.831 55.384V50.328H303.551V49.272H304.831V47.16H306.047V49.272H307.615V50.328H306.047V55.128C306.047 55.4267 306.111 55.6667 306.239 55.848C306.377 56.0293 306.569 56.12 306.815 56.12C307.156 56.12 307.428 56.008 307.631 55.784L307.983 56.696C307.631 57.0267 307.156 57.192 306.559 57.192ZM316.094 57H314.894V55.848C314.232 56.744 313.363 57.192 312.286 57.192C311.262 57.192 310.43 56.8293 309.79 56.104C309.16 55.368 308.846 54.3813 308.846 53.144C308.846 51.9173 309.166 50.936 309.806 50.2C310.446 49.4533 311.272 49.08 312.286 49.08C313.352 49.08 314.222 49.5333 314.894 50.44V49.272H316.094V57ZM312.59 56.12C313.048 56.12 313.491 56.0027 313.918 55.768C314.355 55.5227 314.68 55.2293 314.894 54.888V51.4C314.68 51.048 314.355 50.7547 313.918 50.52C313.491 50.2747 313.048 50.152 312.59 50.152C311.822 50.152 311.214 50.4347 310.766 51C310.318 51.5547 310.094 52.2693 310.094 53.144C310.094 54.0187 310.318 54.7333 310.766 55.288C311.214 55.8427 311.822 56.12 312.59 56.12ZM325.297 57H324.097V55.848C323.436 56.744 322.566 57.192 321.489 57.192C320.465 57.192 319.633 56.8293 318.993 56.104C318.364 55.368 318.049 54.3813 318.049 53.144C318.049 51.9173 318.369 50.936 319.009 50.2C319.649 49.4533 320.476 49.08 321.489 49.08C322.556 49.08 323.425 49.5333 324.097 50.44V46.328H325.297V57ZM321.793 56.12C322.252 56.12 322.694 56.0027 323.121 55.768C323.558 55.5227 323.884 55.2293 324.097 54.888V51.4C323.884 51.048 323.558 50.7547 323.121 50.52C322.694 50.2747 322.252 50.152 321.793 50.152C321.025 50.152 320.417 50.4347 319.969 51C319.521 51.5547 319.297 52.2693 319.297 53.144C319.297 54.0187 319.521 54.7333 319.969 55.288C320.417 55.8427 321.025 56.12 321.793 56.12ZM333.844 56.024C333.151 56.8027 332.228 57.192 331.076 57.192C329.924 57.192 328.996 56.8027 328.292 56.024C327.599 55.2453 327.252 54.28 327.252 53.128C327.252 51.976 327.599 51.016 328.292 50.248C328.996 49.4693 329.924 49.08 331.076 49.08C332.228 49.08 333.151 49.4693 333.844 50.248C334.548 51.016 334.9 51.976 334.9 53.128C334.9 54.28 334.548 55.2453 333.844 56.024ZM329.204 55.256C329.663 55.832 330.287 56.12 331.076 56.12C331.865 56.12 332.489 55.832 332.948 55.256C333.407 54.6693 333.636 53.96 333.636 53.128C333.636 52.296 333.407 51.592 332.948 51.016C332.489 50.44 331.865 50.152 331.076 50.152C330.287 50.152 329.663 50.44 329.204 51.016C328.745 51.592 328.516 52.296 328.516 53.128C328.516 53.96 328.745 54.6693 329.204 55.256ZM344.405 57.192C343.264 57.192 342.336 56.808 341.621 56.04C340.906 55.2613 340.549 54.2907 340.549 53.128C340.549 51.9653 340.906 51 341.621 50.232C342.336 49.464 343.264 49.08 344.405 49.08C345.6 49.08 346.544 49.528 347.237 50.424L346.437 51.144C345.957 50.4827 345.301 50.152 344.469 50.152C343.669 50.152 343.024 50.4347 342.533 51C342.042 51.5547 341.797 52.264 341.797 53.128C341.797 54.0027 342.042 54.7227 342.533 55.288C343.024 55.8427 343.669 56.12 344.469 56.12C345.28 56.12 345.936 55.784 346.437 55.112L347.237 55.848C346.544 56.744 345.6 57.192 344.405 57.192ZM355.078 56.024C354.385 56.8027 353.462 57.192 352.31 57.192C351.158 57.192 350.23 56.8027 349.526 56.024C348.833 55.2453 348.486 54.28 348.486 53.128C348.486 51.976 348.833 51.016 349.526 50.248C350.23 49.4693 351.158 49.08 352.31 49.08C353.462 49.08 354.385 49.4693 355.078 50.248C355.782 51.016 356.134 51.976 356.134 53.128C356.134 54.28 355.782 55.2453 355.078 56.024ZM350.438 55.256C350.897 55.832 351.521 56.12 352.31 56.12C353.1 56.12 353.724 55.832 354.182 55.256C354.641 54.6693 354.87 53.96 354.87 53.128C354.87 52.296 354.641 51.592 354.182 51.016C353.724 50.44 353.1 50.152 352.31 50.152C351.521 50.152 350.897 50.44 350.438 51.016C349.98 51.592 349.75 52.296 349.75 53.128C349.75 53.96 349.98 54.6693 350.438 55.256ZM364.507 57H363.323V51.944C363.323 51.2933 363.173 50.8347 362.875 50.568C362.576 50.2907 362.144 50.152 361.579 50.152C361.131 50.152 360.699 50.2693 360.283 50.504C359.867 50.7387 359.536 51.0213 359.291 51.352V57H358.091V49.272H359.291V50.392C359.589 50.0293 359.989 49.72 360.491 49.464C360.992 49.208 361.515 49.08 362.059 49.08C363.691 49.08 364.507 49.912 364.507 51.576V57ZM374.563 57.192C373.401 57.192 372.451 56.8187 371.715 56.072C370.979 55.3147 370.611 54.3333 370.611 53.128C370.611 51.9973 370.974 51.0427 371.699 50.264C372.425 49.4747 373.331 49.08 374.419 49.08C375.561 49.08 376.462 49.4747 377.123 50.264C377.795 51.0427 378.131 52.0293 378.131 53.224V53.528H371.891C371.945 54.2853 372.217 54.92 372.707 55.432C373.209 55.944 373.859 56.2 374.659 56.2C375.619 56.2 376.419 55.8693 377.059 55.208L377.635 55.992C376.814 56.792 375.79 57.192 374.563 57.192ZM376.947 52.632C376.937 51.9813 376.713 51.3947 376.275 50.872C375.838 50.3387 375.214 50.072 374.403 50.072C373.635 50.072 373.027 50.3333 372.579 50.856C372.142 51.3787 371.907 51.9707 371.875 52.632H376.947ZM381.787 57.192C381.222 57.192 380.795 57.0373 380.507 56.728C380.219 56.4187 380.075 55.9707 380.075 55.384V46.328H381.275V55.128C381.275 55.4267 381.339 55.6667 381.467 55.848C381.606 56.0293 381.803 56.12 382.059 56.12C382.411 56.12 382.678 56.008 382.859 55.784L383.227 56.696C382.864 57.0267 382.384 57.192 381.787 57.192ZM20.008 78.192C18.952 78.192 18.0827 77.7387 17.4 76.832V80.944H16.2V70.272H17.4V71.424C17.688 71.0187 18.0613 70.6933 18.52 70.448C18.9787 70.2027 19.4747 70.08 20.008 70.08C21.032 70.08 21.8587 70.448 22.488 71.184C23.128 71.9093 23.448 72.8907 23.448 74.128C23.448 75.3653 23.128 76.352 22.488 77.088C21.8587 77.824 21.032 78.192 20.008 78.192ZM19.704 77.12C20.4613 77.12 21.064 76.8427 21.512 76.288C21.96 75.7227 22.184 75.0027 22.184 74.128C22.184 73.2533 21.96 72.5387 21.512 71.984C21.064 71.4293 20.4613 71.152 19.704 71.152C19.2453 71.152 18.7973 71.2747 18.36 71.52C17.9333 71.7547 17.6133 72.0427 17.4 72.384V75.872C17.6133 76.224 17.9333 76.5227 18.36 76.768C18.7973 77.0027 19.2453 77.12 19.704 77.12ZM26.5563 78H25.3563V70.272H26.5563V71.504C27.2923 70.5653 28.1509 70.096 29.1323 70.096V71.328C28.9403 71.3067 28.7856 71.296 28.6683 71.296C28.2949 71.296 27.8949 71.424 27.4683 71.68C27.0416 71.9253 26.7376 72.208 26.5563 72.528V78ZM36.7815 77.024C36.0882 77.8027 35.1655 78.192 34.0135 78.192C32.8615 78.192 31.9335 77.8027 31.2295 77.024C30.5362 76.2453 30.1895 75.28 30.1895 74.128C30.1895 72.976 30.5362 72.016 31.2295 71.248C31.9335 70.4693 32.8615 70.08 34.0135 70.08C35.1655 70.08 36.0882 70.4693 36.7815 71.248C37.4855 72.016 37.8375 72.976 37.8375 74.128C37.8375 75.28 37.4855 76.2453 36.7815 77.024ZM32.1415 76.256C32.6002 76.832 33.2242 77.12 34.0135 77.12C34.8028 77.12 35.4268 76.832 35.8855 76.256C36.3442 75.6693 36.5735 74.96 36.5735 74.128C36.5735 73.296 36.3442 72.592 35.8855 72.016C35.4268 71.44 34.8028 71.152 34.0135 71.152C33.2242 71.152 32.6002 71.44 32.1415 72.016C31.6828 72.592 31.4535 73.296 31.4535 74.128C31.4535 74.96 31.6828 75.6693 32.1415 76.256ZM50.3218 78H49.1218V72.752C49.1218 71.6853 48.6471 71.152 47.6978 71.152C47.3138 71.152 46.9298 71.2693 46.5458 71.504C46.1618 71.728 45.8631 72.0053 45.6498 72.336V78H44.4498V72.752C44.4498 71.6853 43.9751 71.152 43.0258 71.152C42.6524 71.152 42.2738 71.2693 41.8898 71.504C41.5164 71.7387 41.2178 72.0213 40.9938 72.352V78H39.7938V70.272H40.9938V71.392C41.1964 71.0827 41.5324 70.7893 42.0018 70.512C42.4818 70.224 42.9831 70.08 43.5058 70.08C44.0604 70.08 44.5138 70.2133 44.8658 70.48C45.2178 70.7467 45.4524 71.0933 45.5698 71.52C45.8044 71.136 46.1618 70.8 46.6418 70.512C47.1218 70.224 47.6284 70.08 48.1618 70.08C49.6018 70.08 50.3218 70.8587 50.3218 72.416V78ZM56.2196 78.192C55.057 78.192 54.1076 77.8187 53.3716 77.072C52.6356 76.3147 52.2676 75.3333 52.2676 74.128C52.2676 72.9973 52.6303 72.0427 53.3556 71.264C54.081 70.4747 54.9876 70.08 56.0756 70.08C57.217 70.08 58.1183 70.4747 58.7796 71.264C59.4516 72.0427 59.7876 73.0293 59.7876 74.224V74.528H53.5476C53.601 75.2853 53.873 75.92 54.3636 76.432C54.865 76.944 55.5156 77.2 56.3156 77.2C57.2756 77.2 58.0756 76.8693 58.7156 76.208L59.2916 76.992C58.4703 77.792 57.4463 78.192 56.2196 78.192ZM58.6036 73.632C58.593 72.9813 58.369 72.3947 57.9316 71.872C57.4943 71.3387 56.8703 71.072 56.0596 71.072C55.2916 71.072 54.6836 71.3333 54.2356 71.856C53.7983 72.3787 53.5636 72.9707 53.5316 73.632H58.6036ZM68.5312 78H67.3313V76.848C66.6699 77.744 65.8006 78.192 64.7233 78.192C63.6993 78.192 62.8673 77.8293 62.2273 77.104C61.5979 76.368 61.2833 75.3813 61.2833 74.144C61.2833 72.9173 61.6033 71.936 62.2433 71.2C62.8833 70.4533 63.7099 70.08 64.7233 70.08C65.7899 70.08 66.6593 70.5333 67.3313 71.44V67.328H68.5312V78ZM65.0273 77.12C65.4859 77.12 65.9286 77.0027 66.3553 76.768C66.7926 76.5227 67.1179 76.2293 67.3313 75.888V72.4C67.1179 72.048 66.7926 71.7547 66.3553 71.52C65.9286 71.2747 65.4859 71.152 65.0273 71.152C64.2593 71.152 63.6513 71.4347 63.2033 72C62.7553 72.5547 62.5312 73.2693 62.5312 74.144C62.5312 75.0187 62.7553 75.7333 63.2033 76.288C63.6513 76.8427 64.2593 77.12 65.0273 77.12ZM72.1024 68.944C71.953 69.0933 71.7664 69.168 71.5424 69.168C71.3184 69.168 71.1264 69.0933 70.9664 68.944C70.8064 68.784 70.7264 68.592 70.7264 68.368C70.7264 68.144 70.8064 67.952 70.9664 67.792C71.1264 67.632 71.3184 67.552 71.5424 67.552C71.7664 67.552 71.953 67.632 72.1024 67.792C72.2624 67.952 72.3424 68.144 72.3424 68.368C72.3424 68.592 72.2624 68.784 72.1024 68.944ZM72.1344 78H70.9344V70.272H72.1344V78ZM80.6721 77.024C79.9788 77.8027 79.0561 78.192 77.9041 78.192C76.7521 78.192 75.8241 77.8027 75.1201 77.024C74.4268 76.2453 74.0801 75.28 74.0801 74.128C74.0801 72.976 74.4268 72.016 75.1201 71.248C75.8241 70.4693 76.7521 70.08 77.9041 70.08C79.0561 70.08 79.9788 70.4693 80.6721 71.248C81.3761 72.016 81.7281 72.976 81.7281 74.128C81.7281 75.28 81.3761 76.2453 80.6721 77.024ZM76.0321 76.256C76.4908 76.832 77.1148 77.12 77.9041 77.12C78.6935 77.12 79.3175 76.832 79.7761 76.256C80.2348 75.6693 80.4641 74.96 80.4641 74.128C80.4641 73.296 80.2348 72.592 79.7761 72.016C79.3175 71.44 78.6935 71.152 77.9041 71.152C77.1148 71.152 76.4908 71.44 76.0321 72.016C75.5735 72.592 75.3441 73.296 75.3441 74.128C75.3441 74.96 75.5735 75.6693 76.0321 76.256ZM98.353 78H97.153V72.752C97.153 71.6853 96.6783 71.152 95.729 71.152C95.345 71.152 94.961 71.2693 94.577 71.504C94.193 71.728 93.8943 72.0053 93.681 72.336V78H92.481V72.752C92.481 71.6853 92.0063 71.152 91.057 71.152C90.6837 71.152 90.305 71.2693 89.921 71.504C89.5477 71.7387 89.249 72.0213 89.025 72.352V78H87.825V70.272H89.025V71.392C89.2277 71.0827 89.5637 70.7893 90.033 70.512C90.513 70.224 91.0143 70.08 91.537 70.08C92.0917 70.08 92.545 70.2133 92.897 70.48C93.249 70.7467 93.4837 71.0933 93.601 71.52C93.8357 71.136 94.193 70.8 94.673 70.512C95.153 70.224 95.6597 70.08 96.193 70.08C97.633 70.08 98.353 70.8587 98.353 72.416V78ZM107.163 78H105.963V76.912C105.643 77.2747 105.238 77.5787 104.747 77.824C104.267 78.0693 103.755 78.192 103.211 78.192C101.568 78.192 100.747 77.3707 100.747 75.728V70.272H101.947V75.36C101.947 76 102.096 76.4533 102.395 76.72C102.694 76.9867 103.126 77.12 103.691 77.12C104.139 77.12 104.571 77.008 104.987 76.784C105.403 76.56 105.728 76.2827 105.963 75.952V70.272H107.163V78ZM115.975 78H114.791V72.944C114.791 72.2933 114.642 71.8347 114.343 71.568C114.045 71.2907 113.613 71.152 113.047 71.152C112.599 71.152 112.167 71.2693 111.751 71.504C111.335 71.7387 111.005 72.0213 110.759 72.352V78H109.559V70.272H110.759V71.392C111.058 71.0293 111.458 70.72 111.959 70.464C112.461 70.208 112.983 70.08 113.527 70.08C115.159 70.08 115.975 70.912 115.975 72.576V78ZM125.188 78H123.988V76.848C123.326 77.744 122.457 78.192 121.38 78.192C120.356 78.192 119.524 77.8293 118.884 77.104C118.254 76.368 117.94 75.3813 117.94 74.144C117.94 72.9173 118.26 71.936 118.9 71.2C119.54 70.4533 120.366 70.08 121.38 70.08C122.446 70.08 123.316 70.5333 123.988 71.44V67.328H125.188V78ZM121.684 77.12C122.142 77.12 122.585 77.0027 123.012 76.768C123.449 76.5227 123.774 76.2293 123.988 75.888V72.4C123.774 72.048 123.449 71.7547 123.012 71.52C122.585 71.2747 122.142 71.152 121.684 71.152C120.916 71.152 120.308 71.4347 119.86 72C119.412 72.5547 119.188 73.2693 119.188 74.144C119.188 75.0187 119.412 75.7333 119.86 76.288C120.308 76.8427 120.916 77.12 121.684 77.12ZM128.759 68.944C128.609 69.0933 128.423 69.168 128.199 69.168C127.975 69.168 127.783 69.0933 127.623 68.944C127.463 68.784 127.383 68.592 127.383 68.368C127.383 68.144 127.463 67.952 127.623 67.792C127.783 67.632 127.975 67.552 128.199 67.552C128.423 67.552 128.609 67.632 128.759 67.792C128.919 67.952 128.999 68.144 128.999 68.368C128.999 68.592 128.919 68.784 128.759 68.944ZM128.791 78H127.591V70.272H128.791V78ZM137.984 78H136.784V76.848C136.123 77.744 135.254 78.192 134.176 78.192C133.152 78.192 132.32 77.8293 131.68 77.104C131.051 76.368 130.736 75.3813 130.736 74.144C130.736 72.9173 131.056 71.936 131.696 71.2C132.336 70.4533 133.163 70.08 134.176 70.08C135.243 70.08 136.112 70.5333 136.784 71.44V70.272H137.984V78ZM134.48 77.12C134.939 77.12 135.382 77.0027 135.808 76.768C136.246 76.5227 136.571 76.2293 136.784 75.888V72.4C136.571 72.048 136.246 71.7547 135.808 71.52C135.382 71.2747 134.939 71.152 134.48 71.152C133.712 71.152 133.104 71.4347 132.656 72C132.208 72.5547 131.984 73.2693 131.984 74.144C131.984 75.0187 132.208 75.7333 132.656 76.288C133.104 76.8427 133.712 77.12 134.48 77.12ZM142.1 78.192C141.534 78.192 141.108 78.0373 140.82 77.728C140.532 77.4187 140.388 76.9707 140.388 76.384V67.328H141.588V76.128C141.588 76.4267 141.652 76.6667 141.78 76.848C141.918 77.0293 142.116 77.12 142.372 77.12C142.724 77.12 142.99 77.008 143.172 76.784L143.54 77.696C143.177 78.0267 142.697 78.192 142.1 78.192ZM155.625 78H154.425V76.848C153.764 77.744 152.894 78.192 151.817 78.192C150.793 78.192 149.961 77.8293 149.321 77.104C148.692 76.368 148.377 75.3813 148.377 74.144C148.377 72.9173 148.697 71.936 149.337 71.2C149.977 70.4533 150.804 70.08 151.817 70.08C152.884 70.08 153.753 70.5333 154.425 71.44V67.328H155.625V78ZM152.121 77.12C152.58 77.12 153.022 77.0027 153.449 76.768C153.886 76.5227 154.212 76.2293 154.425 75.888V72.4C154.212 72.048 153.886 71.7547 153.449 71.52C153.022 71.2747 152.58 71.152 152.121 71.152C151.353 71.152 150.745 71.4347 150.297 72C149.849 72.5547 149.625 73.2693 149.625 74.144C149.625 75.0187 149.849 75.7333 150.297 76.288C150.745 76.8427 151.353 77.12 152.121 77.12ZM161.532 78.192C160.369 78.192 159.42 77.8187 158.684 77.072C157.948 76.3147 157.58 75.3333 157.58 74.128C157.58 72.9973 157.943 72.0427 158.668 71.264C159.393 70.4747 160.3 70.08 161.388 70.08C162.529 70.08 163.431 70.4747 164.092 71.264C164.764 72.0427 165.1 73.0293 165.1 74.224V74.528H158.86C158.913 75.2853 159.185 75.92 159.676 76.432C160.177 76.944 160.828 77.2 161.628 77.2C162.588 77.2 163.388 76.8693 164.028 76.208L164.604 76.992C163.783 77.792 162.759 78.192 161.532 78.192ZM163.916 73.632C163.905 72.9813 163.681 72.3947 163.244 71.872C162.807 71.3387 162.183 71.072 161.372 71.072C160.604 71.072 159.996 71.3333 159.548 71.856C159.111 72.3787 158.876 72.9707 158.844 73.632H163.916ZM169.508 78.192C168.206 78.192 167.166 77.7867 166.388 76.976L166.996 76.112C167.262 76.4213 167.625 76.6827 168.084 76.896C168.553 77.1093 169.038 77.216 169.54 77.216C170.116 77.216 170.564 77.0933 170.884 76.848C171.214 76.6027 171.38 76.2827 171.38 75.888C171.38 75.5467 171.214 75.28 170.884 75.088C170.553 74.8853 170.153 74.736 169.684 74.64C169.214 74.5333 168.745 74.416 168.276 74.288C167.817 74.1493 167.422 73.92 167.092 73.6C166.761 73.2693 166.596 72.8373 166.596 72.304C166.596 71.6747 166.852 71.1467 167.364 70.72C167.876 70.2933 168.574 70.08 169.46 70.08C170.644 70.08 171.598 70.4533 172.324 71.2L171.764 72.032C171.22 71.3813 170.452 71.056 169.46 71.056C168.937 71.056 168.521 71.1733 168.212 71.408C167.902 71.632 167.748 71.92 167.748 72.272C167.748 72.528 167.865 72.7413 168.1 72.912C168.334 73.0827 168.628 73.2053 168.98 73.28C169.342 73.3547 169.726 73.4507 170.132 73.568C170.548 73.6853 170.932 73.8187 171.284 73.968C171.646 74.1067 171.945 74.3413 172.18 74.672C172.414 74.992 172.532 75.3867 172.532 75.856C172.532 76.5387 172.265 77.0987 171.732 77.536C171.209 77.9733 170.468 78.192 169.508 78.192ZM181.281 78H180.081V76.848C179.42 77.744 178.551 78.192 177.473 78.192C176.449 78.192 175.617 77.8293 174.977 77.104C174.348 76.368 174.033 75.3813 174.033 74.144C174.033 72.9173 174.353 71.936 174.993 71.2C175.633 70.4533 176.46 70.08 177.473 70.08C178.54 70.08 179.409 70.5333 180.081 71.44V67.328H181.281V78ZM177.777 77.12C178.236 77.12 178.679 77.0027 179.105 76.768C179.543 76.5227 179.868 76.2293 180.081 75.888V72.4C179.868 72.048 179.543 71.7547 179.105 71.52C178.679 71.2747 178.236 71.152 177.777 71.152C177.009 71.152 176.401 71.4347 175.953 72C175.505 72.5547 175.281 73.2693 175.281 74.144C175.281 75.0187 175.505 75.7333 175.953 76.288C176.401 76.8427 177.009 77.12 177.777 77.12ZM187.188 78.192C186.026 78.192 185.076 77.8187 184.34 77.072C183.604 76.3147 183.236 75.3333 183.236 74.128C183.236 72.9973 183.599 72.0427 184.324 71.264C185.05 70.4747 185.956 70.08 187.044 70.08C188.186 70.08 189.087 70.4747 189.748 71.264C190.42 72.0427 190.756 73.0293 190.756 74.224V74.528H184.516C184.57 75.2853 184.842 75.92 185.332 76.432C185.834 76.944 186.484 77.2 187.284 77.2C188.244 77.2 189.044 76.8693 189.684 76.208L190.26 76.992C189.439 77.792 188.415 78.192 187.188 78.192ZM189.572 73.632C189.562 72.9813 189.338 72.3947 188.9 71.872C188.463 71.3387 187.839 71.072 187.028 71.072C186.26 71.072 185.652 71.3333 185.204 71.856C184.767 72.3787 184.532 72.9707 184.5 73.632H189.572ZM199.817 78H198.489V69.072L196.777 70.896L195.977 70.08L198.649 67.328H199.817V78ZM205.367 78.176C204.151 78.176 203.164 77.7493 202.407 76.896L203.079 75.904C203.697 76.6293 204.46 76.992 205.367 76.992C206.049 76.992 206.625 76.7787 207.095 76.352C207.564 75.9253 207.895 75.408 208.087 74.8C208.279 74.192 208.375 73.5253 208.375 72.8C208.375 72.6187 208.369 72.48 208.359 72.384C208.092 72.8107 207.681 73.1947 207.127 73.536C206.572 73.8773 205.98 74.048 205.351 74.048C204.337 74.048 203.5 73.7547 202.839 73.168C202.177 72.5707 201.847 71.728 201.847 70.64C201.847 69.68 202.188 68.8587 202.871 68.176C203.553 67.4933 204.46 67.152 205.591 67.152C206.305 67.152 206.935 67.3013 207.479 67.6C208.023 67.8987 208.455 68.3093 208.775 68.832C209.095 69.3547 209.329 69.936 209.479 70.576C209.639 71.216 209.719 71.9147 209.719 72.672C209.719 73.6747 209.569 74.5813 209.271 75.392C208.972 76.192 208.487 76.8587 207.815 77.392C207.143 77.9147 206.327 78.176 205.367 78.176ZM205.655 72.896C206.177 72.896 206.679 72.752 207.159 72.464C207.649 72.1653 208.039 71.776 208.327 71.296C208.295 70.944 208.22 70.6027 208.103 70.272C207.996 69.9413 207.841 69.6267 207.639 69.328C207.436 69.0293 207.159 68.7893 206.807 68.608C206.465 68.4267 206.076 68.336 205.639 68.336C204.881 68.336 204.284 68.5707 203.847 69.04C203.409 69.4987 203.191 70.016 203.191 70.592C203.191 71.3387 203.42 71.9093 203.879 72.304C204.337 72.6987 204.929 72.896 205.655 72.896ZM215.46 78.192C214.734 78.192 214.1 78.0427 213.556 77.744C213.012 77.4453 212.58 77.0347 212.26 76.512C211.95 75.9893 211.716 75.408 211.556 74.768C211.406 74.128 211.332 73.4293 211.332 72.672C211.332 71.1147 211.7 69.808 212.436 68.752C213.182 67.696 214.265 67.168 215.684 67.168C216.921 67.168 217.902 67.5947 218.628 68.448L217.956 69.44C217.337 68.7147 216.58 68.352 215.684 68.352C214.713 68.352 213.966 68.7627 213.444 69.584C212.932 70.4053 212.676 71.392 212.676 72.544V72.96C212.942 72.5333 213.353 72.1493 213.908 71.808C214.473 71.4667 215.07 71.296 215.7 71.296C216.713 71.296 217.545 71.5947 218.196 72.192C218.857 72.7787 219.188 73.616 219.188 74.704C219.188 75.664 218.846 76.4853 218.164 77.168C217.481 77.8507 216.58 78.192 215.46 78.192ZM215.396 77.008C216.164 77.008 216.761 76.7733 217.188 76.304C217.625 75.8347 217.844 75.3173 217.844 74.752C217.844 74.0053 217.614 73.4347 217.156 73.04C216.697 72.6453 216.11 72.448 215.396 72.448C214.873 72.448 214.372 72.5973 213.892 72.896C213.412 73.184 213.022 73.5627 212.724 74.032C212.788 74.8213 213.038 75.5147 213.476 76.112C213.913 76.7093 214.553 77.008 215.396 77.008ZM224.865 78.192C224.161 78.192 223.537 78.032 222.993 77.712C222.459 77.3813 222.033 76.944 221.713 76.4C221.403 75.856 221.169 75.2693 221.009 74.64C220.859 74.0107 220.785 73.3547 220.785 72.672C220.785 71.9893 220.859 71.3333 221.009 70.704C221.169 70.0747 221.403 69.4933 221.713 68.96C222.033 68.416 222.459 67.984 222.993 67.664C223.537 67.3333 224.161 67.168 224.865 67.168C225.558 67.168 226.177 67.3333 226.721 67.664C227.265 67.984 227.691 68.416 228.001 68.96C228.321 69.4933 228.555 70.0747 228.705 70.704C228.865 71.3333 228.945 71.9893 228.945 72.672C228.945 73.3547 228.865 74.0107 228.705 74.64C228.555 75.2693 228.321 75.856 228.001 76.4C227.691 76.944 227.265 77.3813 226.721 77.712C226.177 78.032 225.558 78.192 224.865 78.192ZM223.265 76.352C223.691 76.7893 224.225 77.008 224.865 77.008C225.505 77.008 226.038 76.7893 226.465 76.352C226.891 75.904 227.185 75.3707 227.345 74.752C227.505 74.1333 227.585 73.44 227.585 72.672C227.585 71.904 227.505 71.2107 227.345 70.592C227.185 69.9733 226.891 69.4453 226.465 69.008C226.038 68.5707 225.505 68.352 224.865 68.352C224.225 68.352 223.691 68.5707 223.265 69.008C222.838 69.4453 222.545 69.9733 222.385 70.592C222.225 71.2107 222.145 71.904 222.145 72.672C222.145 73.44 222.225 74.1333 222.385 74.752C222.545 75.3707 222.838 75.904 223.265 76.352ZM232.082 77.616C232.082 78.0853 231.959 78.5333 231.714 78.96C231.479 79.3973 231.17 79.7547 230.786 80.032L230.178 79.536C230.444 79.3653 230.674 79.136 230.866 78.848C231.068 78.5707 231.186 78.304 231.218 78.048C231.175 78.0693 231.1 78.08 230.994 78.08C230.78 78.08 230.599 78.0053 230.45 77.856C230.3 77.696 230.226 77.4987 230.226 77.264C230.226 77.0293 230.306 76.8267 230.466 76.656C230.636 76.4853 230.839 76.4 231.074 76.4C231.362 76.4 231.602 76.512 231.794 76.736C231.986 76.9493 232.082 77.2427 232.082 77.616ZM241.798 78.192C240.635 78.192 239.686 77.8187 238.95 77.072C238.214 76.3147 237.846 75.3333 237.846 74.128C237.846 72.9973 238.208 72.0427 238.934 71.264C239.659 70.4747 240.566 70.08 241.654 70.08C242.795 70.08 243.696 70.4747 244.358 71.264C245.03 72.0427 245.366 73.0293 245.366 74.224V74.528H239.126C239.179 75.2853 239.451 75.92 239.942 76.432C240.443 76.944 241.094 77.2 241.894 77.2C242.854 77.2 243.654 76.8693 244.294 76.208L244.87 76.992C244.048 77.792 243.024 78.192 241.798 78.192ZM244.182 73.632C244.171 72.9813 243.947 72.3947 243.51 71.872C243.072 71.3387 242.448 71.072 241.638 71.072C240.87 71.072 240.262 71.3333 239.814 71.856C239.376 72.3787 239.142 72.9707 239.11 73.632H244.182ZM253.725 78H252.541V72.944C252.541 72.2933 252.392 71.8347 252.093 71.568C251.795 71.2907 251.363 71.152 250.797 71.152C250.349 71.152 249.917 71.2693 249.501 71.504C249.085 71.7387 248.755 72.0213 248.509 72.352V78H247.309V70.272H248.509V71.392C248.808 71.0293 249.208 70.72 249.709 70.464C250.211 70.208 250.733 70.08 251.277 70.08C252.909 70.08 253.725 70.912 253.725 72.576V78ZM267.27 78H259.942V76.928C262.129 75.2213 263.665 73.904 264.55 72.976C265.435 72.048 265.878 71.1573 265.878 70.304C265.878 69.664 265.654 69.1787 265.206 68.848C264.769 68.5173 264.246 68.352 263.638 68.352C262.411 68.352 261.446 68.8 260.742 69.696L259.926 68.848C260.331 68.3147 260.859 67.904 261.51 67.616C262.171 67.3173 262.881 67.168 263.638 67.168C264.609 67.168 265.446 67.44 266.15 67.984C266.865 68.528 267.222 69.3013 267.222 70.304C267.222 71.296 266.795 72.288 265.942 73.28C265.089 74.2613 263.787 75.44 262.038 76.816H267.27V78ZM273.38 78.192C272.676 78.192 272.052 78.032 271.508 77.712C270.975 77.3813 270.548 76.944 270.228 76.4C269.919 75.856 269.684 75.2693 269.524 74.64C269.375 74.0107 269.3 73.3547 269.3 72.672C269.3 71.9893 269.375 71.3333 269.524 70.704C269.684 70.0747 269.919 69.4933 270.228 68.96C270.548 68.416 270.975 67.984 271.508 67.664C272.052 67.3333 272.676 67.168 273.38 67.168C274.074 67.168 274.692 67.3333 275.236 67.664C275.78 67.984 276.207 68.416 276.516 68.96C276.836 69.4933 277.071 70.0747 277.22 70.704C277.38 71.3333 277.46 71.9893 277.46 72.672C277.46 73.3547 277.38 74.0107 277.22 74.64C277.071 75.2693 276.836 75.856 276.516 76.4C276.207 76.944 275.78 77.3813 275.236 77.712C274.692 78.032 274.074 78.192 273.38 78.192ZM271.78 76.352C272.207 76.7893 272.74 77.008 273.38 77.008C274.02 77.008 274.554 76.7893 274.98 76.352C275.407 75.904 275.7 75.3707 275.86 74.752C276.02 74.1333 276.1 73.44 276.1 72.672C276.1 71.904 276.02 71.2107 275.86 70.592C275.7 69.9733 275.407 69.4453 274.98 69.008C274.554 68.5707 274.02 68.352 273.38 68.352C272.74 68.352 272.207 68.5707 271.78 69.008C271.354 69.4453 271.06 69.9733 270.9 70.592C270.74 71.2107 270.66 71.904 270.66 72.672C270.66 73.44 270.74 74.1333 270.9 74.752C271.06 75.3707 271.354 75.904 271.78 76.352ZM286.473 78H279.145V76.928C281.332 75.2213 282.868 73.904 283.753 72.976C284.639 72.048 285.081 71.1573 285.081 70.304C285.081 69.664 284.857 69.1787 284.409 68.848C283.972 68.5173 283.449 68.352 282.841 68.352C281.615 68.352 280.649 68.8 279.945 69.696L279.129 68.848C279.535 68.3147 280.063 67.904 280.713 67.616C281.375 67.3173 282.084 67.168 282.841 67.168C283.812 67.168 284.649 67.44 285.353 67.984C286.068 68.528 286.425 69.3013 286.425 70.304C286.425 71.296 285.999 72.288 285.145 73.28C284.292 74.2613 282.991 75.44 281.241 76.816H286.473V78ZM292.584 78.192C291.88 78.192 291.256 78.032 290.712 77.712C290.178 77.3813 289.752 76.944 289.432 76.4C289.122 75.856 288.888 75.2693 288.728 74.64C288.578 74.0107 288.504 73.3547 288.504 72.672C288.504 71.9893 288.578 71.3333 288.728 70.704C288.888 70.0747 289.122 69.4933 289.432 68.96C289.752 68.416 290.178 67.984 290.712 67.664C291.256 67.3333 291.88 67.168 292.584 67.168C293.277 67.168 293.896 67.3333 294.44 67.664C294.984 67.984 295.41 68.416 295.72 68.96C296.04 69.4933 296.274 70.0747 296.424 70.704C296.584 71.3333 296.664 71.9893 296.664 72.672C296.664 73.3547 296.584 74.0107 296.424 74.64C296.274 75.2693 296.04 75.856 295.72 76.4C295.41 76.944 294.984 77.3813 294.44 77.712C293.896 78.032 293.277 78.192 292.584 78.192ZM290.984 76.352C291.41 76.7893 291.944 77.008 292.584 77.008C293.224 77.008 293.757 76.7893 294.184 76.352C294.61 75.904 294.904 75.3707 295.064 74.752C295.224 74.1333 295.304 73.44 295.304 72.672C295.304 71.904 295.224 71.2107 295.064 70.592C294.904 69.9733 294.61 69.4453 294.184 69.008C293.757 68.5707 293.224 68.352 292.584 68.352C291.944 68.352 291.41 68.5707 290.984 69.008C290.557 69.4453 290.264 69.9733 290.104 70.592C289.944 71.2107 289.864 71.904 289.864 72.672C289.864 73.44 289.944 74.1333 290.104 74.752C290.264 75.3707 290.557 75.904 290.984 76.352ZM306.329 78.192C305.166 78.192 304.217 77.8187 303.481 77.072C302.745 76.3147 302.377 75.3333 302.377 74.128C302.377 72.9973 302.74 72.0427 303.465 71.264C304.19 70.4747 305.097 70.08 306.185 70.08C307.326 70.08 308.228 70.4747 308.889 71.264C309.561 72.0427 309.897 73.0293 309.897 74.224V74.528H303.657C303.71 75.2853 303.982 75.92 304.473 76.432C304.974 76.944 305.625 77.2 306.425 77.2C307.385 77.2 308.185 76.8693 308.825 76.208L309.401 76.992C308.58 77.792 307.556 78.192 306.329 78.192ZM308.713 73.632C308.702 72.9813 308.478 72.3947 308.041 71.872C307.604 71.3387 306.98 71.072 306.169 71.072C305.401 71.072 304.793 71.3333 304.345 71.856C303.908 72.3787 303.673 72.9707 303.641 73.632H308.713ZM322.369 78H321.169V72.752C321.169 71.6853 320.694 71.152 319.745 71.152C319.361 71.152 318.977 71.2693 318.593 71.504C318.209 71.728 317.91 72.0053 317.697 72.336V78H316.497V72.752C316.497 71.6853 316.022 71.152 315.073 71.152C314.699 71.152 314.321 71.2693 313.937 71.504C313.563 71.7387 313.265 72.0213 313.041 72.352V78H311.841V70.272H313.041V71.392C313.243 71.0827 313.579 70.7893 314.049 70.512C314.529 70.224 315.03 70.08 315.553 70.08C316.107 70.08 316.561 70.2133 316.913 70.48C317.265 70.7467 317.499 71.0933 317.617 71.52C317.851 71.136 318.209 70.8 318.689 70.512C319.169 70.224 319.675 70.08 320.209 70.08C321.649 70.08 322.369 70.8587 322.369 72.416V78ZM328.571 78.192C327.515 78.192 326.645 77.7387 325.963 76.832V80.944H324.763V70.272H325.963V71.424C326.251 71.0187 326.624 70.6933 327.083 70.448C327.541 70.2027 328.037 70.08 328.571 70.08C329.595 70.08 330.421 70.448 331.051 71.184C331.691 71.9093 332.01 72.8907 332.01 74.128C332.01 75.3653 331.691 76.352 331.051 77.088C330.421 77.824 329.595 78.192 328.571 78.192ZM328.266 77.12C329.024 77.12 329.627 76.8427 330.075 76.288C330.523 75.7227 330.747 75.0027 330.747 74.128C330.747 73.2533 330.523 72.5387 330.075 71.984C329.627 71.4293 329.024 71.152 328.266 71.152C327.808 71.152 327.36 71.2747 326.923 71.52C326.496 71.7547 326.176 72.0427 325.963 72.384V75.872C326.176 76.224 326.496 76.5227 326.923 76.768C327.36 77.0027 327.808 77.12 328.266 77.12ZM337.423 78.192C336.26 78.192 335.311 77.8187 334.575 77.072C333.839 76.3147 333.471 75.3333 333.471 74.128C333.471 72.9973 333.833 72.0427 334.559 71.264C335.284 70.4747 336.191 70.08 337.279 70.08C338.42 70.08 339.321 70.4747 339.983 71.264C340.655 72.0427 340.991 73.0293 340.991 74.224V74.528H334.751C334.804 75.2853 335.076 75.92 335.567 76.432C336.068 76.944 336.719 77.2 337.519 77.2C338.479 77.2 339.279 76.8693 339.919 76.208L340.495 76.992C339.673 77.792 338.649 78.192 337.423 78.192ZM339.807 73.632C339.796 72.9813 339.572 72.3947 339.135 71.872C338.697 71.3387 338.073 71.072 337.263 71.072C336.495 71.072 335.887 71.3333 335.439 71.856C335.001 72.3787 334.767 72.9707 334.735 73.632H339.807ZM348.454 78H342.566V77.056L346.822 71.328H342.566V70.272H348.39V71.184L344.102 76.944H348.454V78ZM356.625 77.024C355.932 77.8027 355.009 78.192 353.857 78.192C352.705 78.192 351.777 77.8027 351.073 77.024C350.38 76.2453 350.033 75.28 350.033 74.128C350.033 72.976 350.38 72.016 351.073 71.248C351.777 70.4693 352.705 70.08 353.857 70.08C355.009 70.08 355.932 70.4693 356.625 71.248C357.329 72.016 357.681 72.976 357.681 74.128C357.681 75.28 357.329 76.2453 356.625 77.024ZM351.985 76.256C352.444 76.832 353.068 77.12 353.857 77.12C354.647 77.12 355.271 76.832 355.729 76.256C356.188 75.6693 356.417 74.96 356.417 74.128C356.417 73.296 356.188 72.592 355.729 72.016C355.271 71.44 354.647 71.152 353.857 71.152C353.068 71.152 352.444 71.44 351.985 72.016C351.527 72.592 351.297 73.296 351.297 74.128C351.297 74.96 351.527 75.6693 351.985 76.256ZM356.417 66.8L353.713 69.104H352.801L355.169 66.8H356.417ZM370.578 78H369.378V76.848C368.717 77.744 367.847 78.192 366.77 78.192C365.746 78.192 364.914 77.8293 364.274 77.104C363.645 76.368 363.33 75.3813 363.33 74.144C363.33 72.9173 363.65 71.936 364.29 71.2C364.93 70.4533 365.757 70.08 366.77 70.08C367.837 70.08 368.706 70.5333 369.378 71.44V70.272H370.578V78ZM367.074 77.12C367.533 77.12 367.975 77.0027 368.402 76.768C368.839 76.5227 369.165 76.2293 369.378 75.888V72.4C369.165 72.048 368.839 71.7547 368.402 71.52C367.975 71.2747 367.533 71.152 367.074 71.152C366.306 71.152 365.698 71.4347 365.25 72C364.802 72.5547 364.578 73.2693 364.578 74.144C364.578 75.0187 364.802 75.7333 365.25 76.288C365.698 76.8427 366.306 77.12 367.074 77.12ZM23 99H21.8V97.848C21.1387 98.744 20.2693 99.192 19.192 99.192C18.168 99.192 17.336 98.8293 16.696 98.104C16.0667 97.368 15.752 96.3813 15.752 95.144C15.752 93.9173 16.072 92.936 16.712 92.2C17.352 91.4533 18.1787 91.08 19.192 91.08C20.2587 91.08 21.128 91.5333 21.8 92.44V88.328H23V99ZM19.496 98.12C19.9547 98.12 20.3973 98.0027 20.824 97.768C21.2613 97.5227 21.5867 97.2293 21.8 96.888V93.4C21.5867 93.048 21.2613 92.7547 20.824 92.52C20.3973 92.2747 19.9547 92.152 19.496 92.152C18.728 92.152 18.12 92.4347 17.672 93C17.224 93.5547 17 94.2693 17 95.144C17 96.0187 17.224 96.7333 17.672 97.288C18.12 97.8427 18.728 98.12 19.496 98.12ZM26.5711 89.944C26.4218 90.0933 26.2351 90.168 26.0111 90.168C25.7871 90.168 25.5951 90.0933 25.4351 89.944C25.2751 89.784 25.1951 89.592 25.1951 89.368C25.1951 89.144 25.2751 88.952 25.4351 88.792C25.5951 88.632 25.7871 88.552 26.0111 88.552C26.2351 88.552 26.4218 88.632 26.5711 88.792C26.7311 88.952 26.8111 89.144 26.8111 89.368C26.8111 89.592 26.7311 89.784 26.5711 89.944ZM26.6031 99H25.4031V91.272H26.6031V99ZM31.4609 99.192C30.1595 99.192 29.1195 98.7867 28.3409 97.976L28.9489 97.112C29.2155 97.4213 29.5782 97.6827 30.0369 97.896C30.5062 98.1093 30.9915 98.216 31.4929 98.216C32.0689 98.216 32.5169 98.0933 32.8369 97.848C33.1675 97.6027 33.3329 97.2827 33.3329 96.888C33.3329 96.5467 33.1675 96.28 32.8369 96.088C32.5062 95.8853 32.1062 95.736 31.6369 95.64C31.1675 95.5333 30.6982 95.416 30.2289 95.288C29.7702 95.1493 29.3755 94.92 29.0449 94.6C28.7142 94.2693 28.5489 93.8373 28.5489 93.304C28.5489 92.6747 28.8049 92.1467 29.3169 91.72C29.8289 91.2933 30.5275 91.08 31.4129 91.08C32.5969 91.08 33.5515 91.4533 34.2769 92.2L33.7169 93.032C33.1729 92.3813 32.4049 92.056 31.4129 92.056C30.8902 92.056 30.4742 92.1733 30.1649 92.408C29.8555 92.632 29.7009 92.92 29.7009 93.272C29.7009 93.528 29.8182 93.7413 30.0529 93.912C30.2875 94.0827 30.5809 94.2053 30.9329 94.28C31.2955 94.3547 31.6795 94.4507 32.0849 94.568C32.5009 94.6853 32.8849 94.8187 33.2369 94.968C33.5995 95.1067 33.8982 95.3413 34.1329 95.672C34.3675 95.992 34.4849 96.3867 34.4849 96.856C34.4849 97.5387 34.2182 98.0987 33.6849 98.536C33.1622 98.9733 32.4209 99.192 31.4609 99.192ZM46.9624 99H45.7624V93.752C45.7624 92.6853 45.2877 92.152 44.3384 92.152C43.9544 92.152 43.5704 92.2693 43.1864 92.504C42.8024 92.728 42.5037 93.0053 42.2904 93.336V99H41.0904V93.752C41.0904 92.6853 40.6157 92.152 39.6664 92.152C39.293 92.152 38.9144 92.2693 38.5304 92.504C38.157 92.7387 37.8584 93.0213 37.6344 93.352V99H36.4344V91.272H37.6344V92.392C37.837 92.0827 38.173 91.7893 38.6424 91.512C39.1224 91.224 39.6237 91.08 40.1464 91.08C40.701 91.08 41.1544 91.2133 41.5064 91.48C41.8584 91.7467 42.093 92.0933 42.2104 92.52C42.445 92.136 42.8024 91.8 43.2824 91.512C43.7624 91.224 44.269 91.08 44.8024 91.08C46.2424 91.08 46.9624 91.8587 46.9624 93.416V99ZM50.5243 89.944C50.3749 90.0933 50.1883 90.168 49.9643 90.168C49.7403 90.168 49.5483 90.0933 49.3883 89.944C49.2283 89.784 49.1483 89.592 49.1483 89.368C49.1483 89.144 49.2283 88.952 49.3883 88.792C49.5483 88.632 49.7403 88.552 49.9643 88.552C50.1883 88.552 50.3749 88.632 50.5243 88.792C50.6843 88.952 50.7643 89.144 50.7643 89.368C50.7643 89.592 50.6843 89.784 50.5243 89.944ZM50.5563 99H49.3563V91.272H50.5563V99ZM59.366 99H58.182V93.944C58.182 93.2933 58.0327 92.8347 57.734 92.568C57.4353 92.2907 57.0033 92.152 56.438 92.152C55.99 92.152 55.558 92.2693 55.142 92.504C54.726 92.7387 54.3953 93.0213 54.15 93.352V99H52.95V91.272H54.15V92.392C54.4487 92.0293 54.8487 91.72 55.35 91.464C55.8513 91.208 56.374 91.08 56.918 91.08C58.55 91.08 59.366 91.912 59.366 93.576V99ZM68.1941 99H66.9941V97.912C66.6741 98.2747 66.2688 98.5787 65.7781 98.824C65.2981 99.0693 64.7861 99.192 64.2421 99.192C62.5995 99.192 61.7781 98.3707 61.7781 96.728V91.272H62.9781V96.36C62.9781 97 63.1275 97.4533 63.4261 97.72C63.7248 97.9867 64.1568 98.12 64.7221 98.12C65.1701 98.12 65.6021 98.008 66.0181 97.784C66.4341 97.56 66.7595 97.2827 66.9941 96.952V91.272H68.1941V99ZM71.7586 89.944C71.6093 90.0933 71.4226 90.168 71.1986 90.168C70.9746 90.168 70.7826 90.0933 70.6226 89.944C70.4626 89.784 70.3826 89.592 70.3826 89.368C70.3826 89.144 70.4626 88.952 70.6226 88.792C70.7826 88.632 70.9746 88.552 71.1986 88.552C71.4226 88.552 71.6093 88.632 71.7586 88.792C71.9186 88.952 71.9986 89.144 71.9986 89.368C71.9986 89.592 71.9186 89.784 71.7586 89.944ZM71.7906 99H70.5906V91.272H71.7906V99ZM75.3844 99H74.1844V91.272H75.3844V92.504C76.1204 91.5653 76.979 91.096 77.9604 91.096V92.328C77.7684 92.3067 77.6137 92.296 77.4964 92.296C77.123 92.296 76.723 92.424 76.2964 92.68C75.8697 92.9253 75.5657 93.208 75.3844 93.528V99ZM79.4015 98.904C79.2308 99.0747 79.0228 99.16 78.7775 99.16C78.5322 99.16 78.3242 99.0747 78.1535 98.904C77.9828 98.7333 77.8975 98.5253 77.8975 98.28C77.8975 98.0347 77.9828 97.8267 78.1535 97.656C78.3242 97.4853 78.5322 97.4 78.7775 97.4C79.0228 97.4 79.2308 97.4853 79.4015 97.656C79.5722 97.8267 79.6575 98.0347 79.6575 98.28C79.6575 98.5253 79.5722 98.7333 79.4015 98.904Z" fill="#1D5556"/>
<mask id="path-2-inside-1_2202_960" fill="white">
<path fill-rule="evenodd" clip-rule="evenodd" d="M396 114C398.761 114 401 111.761 401 109V5C401 2.23858 398.761 0 396 0L4.99999 3.46194e-05C2.23857 3.48608e-05 -9.7705e-06 2.23861 -9.52909e-06 5.00004L0 109C0 111.761 2.23857 114 4.99999 114H20.0001V128L36.8001 114L396 114Z"/>
</mask>
<path d="M396 114L396 112L396 112L396 114ZM396 0L396 -2L396 -2L396 0ZM4.99999 3.46194e-05L4.99999 2.00003L4.99999 3.46194e-05ZM-9.52909e-06 5.00004L-2.00001 5.00004L-9.52909e-06 5.00004ZM0 109L2 109L2 109L0 109ZM20.0001 114H22.0001V112H20.0001V114ZM20.0001 128H18.0001V132.27L21.2805 129.536L20.0001 128ZM36.8001 114L36.8001 112L36.076 112L35.5197 112.464L36.8001 114ZM399 109C399 110.657 397.657 112 396 112V116C399.866 116 403 112.866 403 109H399ZM399 5V109H403V5H399ZM396 2C397.657 2 399 3.34315 399 5H403C403 1.134 399.866 -2 396 -2V2ZM4.99999 2.00003L396 2L396 -2L4.99999 -1.99997L4.99999 2.00003ZM1.99999 5.00004C1.99999 3.34318 3.34314 2.00003 4.99999 2.00003L4.99999 -1.99997C1.134 -1.99997 -2.00001 1.13405 -2.00001 5.00004L1.99999 5.00004ZM2 109L1.99999 5.00004L-2.00001 5.00004L-2 109L2 109ZM4.99999 112C3.34314 112 2 110.657 2 109H-2C-2 112.866 1.134 116 4.99999 116V112ZM20.0001 112H4.99999V116H20.0001V112ZM22.0001 128V114H18.0001V128H22.0001ZM35.5197 112.464L18.7198 126.464L21.2805 129.536L38.0805 115.537L35.5197 112.464ZM396 112L36.8001 112L36.8001 116L396 116L396 112Z" fill="#1D5556" mask="url(#path-2-inside-1_2202_960)"/>
</svg>
