<svg width="401" height="107" viewBox="0 0 401 107" fill="none" xmlns="http://www.w3.org/2000/svg">
<path d="M22.75 36H18.751L26.563 18.516H15.837V15.323H30.748V17.834L22.75 36ZM40.055 36.372C38.319 36.372 36.769 36.062 35.405 35.442C34.0617 34.822 33.0077 34.016 32.243 33.024L34.227 30.637C34.8884 31.4223 35.7254 32.0423 36.738 32.497C37.7714 32.931 38.8357 33.148 39.931 33.148C41.2744 33.148 42.3284 32.8587 43.093 32.28C43.8577 31.7013 44.24 30.9367 44.24 29.986C44.24 28.0227 42.7107 27.041 39.652 27.041C38.4947 27.041 37.7094 27.0617 37.296 27.103V23.817C37.5234 23.8377 38.3087 23.848 39.652 23.848C40.9334 23.848 41.9667 23.6207 42.752 23.166C43.5374 22.7113 43.93 22.0293 43.93 21.12C43.93 20.2107 43.527 19.508 42.721 19.012C41.9357 18.4953 40.9437 18.237 39.745 18.237C37.6577 18.237 35.87 19.0017 34.382 20.531L32.522 18.268C34.382 16.098 36.9034 15.013 40.086 15.013C42.3387 15.013 44.1367 15.509 45.48 16.501C46.844 17.493 47.526 18.8467 47.526 20.562C47.526 21.864 47.0714 22.9387 46.162 23.786C45.2734 24.6127 44.24 25.119 43.062 25.305C44.24 25.429 45.3354 25.9353 46.348 26.824C47.3607 27.7127 47.867 28.8803 47.867 30.327C47.867 32.125 47.154 33.582 45.728 34.698C44.3227 35.814 42.4317 36.372 40.055 36.372ZM73.195 36H69.94V33.954C68.7 35.566 67.0983 36.372 65.135 36.372C63.1923 36.372 61.601 35.6693 60.361 34.264C59.121 32.8587 58.501 30.9367 58.501 28.498C58.501 26.1213 59.121 24.22 60.361 22.794C61.601 21.368 63.1923 20.655 65.135 20.655C67.119 20.655 68.7207 21.4713 69.94 23.104V21.027H73.195V36ZM66.096 33.489C66.84 33.489 67.5737 33.2927 68.297 32.9C69.0203 32.5073 69.568 32.032 69.94 31.474V25.553C69.568 24.995 69.0203 24.5197 68.297 24.127C67.5737 23.7343 66.84 23.538 66.096 23.538C64.8147 23.538 63.7813 24.003 62.996 24.933C62.2313 25.8423 61.849 27.0307 61.849 28.498C61.849 29.9653 62.2313 31.164 62.996 32.094C63.7813 33.024 64.8147 33.489 66.096 33.489ZM90.9597 36H87.7047V26.638C87.7047 25.522 87.436 24.7263 86.8987 24.251C86.382 23.7757 85.638 23.538 84.6667 23.538C83.902 23.538 83.1787 23.7343 82.4967 24.127C81.8147 24.499 81.2567 24.964 80.8227 25.522V36H77.5677V21.027H80.8227V23.042C81.3807 22.3807 82.1247 21.8227 83.0547 21.368C84.0054 20.8927 85.0284 20.655 86.1237 20.655C87.715 20.655 88.9137 21.0683 89.7197 21.895C90.5464 22.7217 90.9597 23.91 90.9597 25.46V36ZM85.9067 18.826C85.2867 18.826 84.7597 18.6297 84.3257 18.237C83.9124 17.8237 83.5404 17.4207 83.2097 17.028C82.8997 16.6147 82.569 16.408 82.2177 16.408C81.3704 16.408 80.9467 17.152 80.9467 18.64H79.1487C79.1487 17.3587 79.4174 16.346 79.9547 15.602C80.5127 14.858 81.3084 14.486 82.3417 14.486C82.7344 14.486 83.0857 14.5687 83.3957 14.734C83.7264 14.8993 83.995 15.106 84.2017 15.354C84.4084 15.5813 84.5944 15.819 84.7597 16.067C84.9457 16.2943 85.142 16.4907 85.3487 16.656C85.576 16.8213 85.8034 16.904 86.0307 16.904C86.4027 16.904 86.7127 16.718 86.9607 16.346C87.2087 15.974 87.3327 15.416 87.3327 14.672H89.0997C89.0997 15.9533 88.8207 16.966 88.2627 17.71C87.7254 18.454 86.94 18.826 85.9067 18.826ZM107.401 34.109C105.995 35.6177 104.135 36.372 101.821 36.372C99.5062 36.372 97.6462 35.6177 96.2408 34.109C94.8355 32.5797 94.1328 30.7093 94.1328 28.498C94.1328 26.266 94.8355 24.406 96.2408 22.918C97.6462 21.4093 99.5062 20.655 101.821 20.655C104.135 20.655 105.995 21.4093 107.401 22.918C108.806 24.406 109.509 26.266 109.509 28.498C109.509 30.7093 108.806 32.5797 107.401 34.109ZM101.821 33.489C103.164 33.489 104.218 33.0137 104.983 32.063C105.747 31.0917 106.13 29.9033 106.13 28.498C106.13 27.1133 105.747 25.9457 104.983 24.995C104.218 24.0237 103.164 23.538 101.821 23.538C100.498 23.538 99.4442 24.0237 98.6588 24.995C97.8942 25.9457 97.5118 27.1133 97.5118 28.498C97.5118 29.9033 97.8942 31.0917 98.6588 32.063C99.4442 33.0137 100.498 33.489 101.821 33.489ZM117.979 36.372C115.313 36.372 113.174 35.5867 111.562 34.016L113.05 31.691C113.608 32.2697 114.352 32.7657 115.282 33.179C116.232 33.5717 117.173 33.768 118.103 33.768C119.053 33.768 119.787 33.5923 120.304 33.241C120.82 32.869 121.079 32.3833 121.079 31.784C121.079 31.2467 120.769 30.8333 120.149 30.544C119.529 30.234 118.774 29.9963 117.886 29.831C116.997 29.645 116.108 29.428 115.22 29.18C114.331 28.9113 113.577 28.4463 112.957 27.785C112.337 27.1237 112.027 26.2557 112.027 25.181C112.027 23.8997 112.554 22.825 113.608 21.957C114.662 21.089 116.098 20.655 117.917 20.655C120.211 20.655 122.143 21.3473 123.714 22.732L122.35 25.026C121.254 23.8273 119.777 23.228 117.917 23.228C117.09 23.228 116.418 23.4037 115.902 23.755C115.406 24.1063 115.158 24.5507 115.158 25.088C115.158 25.5633 115.468 25.9353 116.088 26.204C116.708 26.4727 117.462 26.7 118.351 26.886C119.239 27.0513 120.128 27.2683 121.017 27.537C121.905 27.8057 122.66 28.2913 123.28 28.994C123.9 29.6967 124.21 30.5957 124.21 31.691C124.21 33.0757 123.662 34.202 122.567 35.07C121.471 35.938 119.942 36.372 117.979 36.372ZM134.16 36.192C132.997 36.192 132.048 35.8187 131.312 35.072C130.576 34.3147 130.208 33.3333 130.208 32.128C130.208 30.9973 130.571 30.0427 131.296 29.264C132.021 28.4747 132.928 28.08 134.016 28.08C135.157 28.08 136.059 28.4747 136.72 29.264C137.392 30.0427 137.728 31.0293 137.728 32.224V32.528H131.488C131.541 33.2853 131.813 33.92 132.304 34.432C132.805 34.944 133.456 35.2 134.256 35.2C135.216 35.2 136.016 34.8693 136.656 34.208L137.232 34.992C136.411 35.792 135.387 36.192 134.16 36.192ZM136.544 31.632C136.533 30.9813 136.309 30.3947 135.872 29.872C135.435 29.3387 134.811 29.072 134 29.072C133.232 29.072 132.624 29.3333 132.176 29.856C131.739 30.3787 131.504 30.9707 131.472 31.632H136.544ZM142.136 36.192C140.834 36.192 139.794 35.7867 139.016 34.976L139.624 34.112C139.89 34.4213 140.253 34.6827 140.712 34.896C141.181 35.1093 141.666 35.216 142.168 35.216C142.744 35.216 143.192 35.0933 143.512 34.848C143.842 34.6027 144.008 34.2827 144.008 33.888C144.008 33.5467 143.842 33.28 143.512 33.088C143.181 32.8853 142.781 32.736 142.312 32.64C141.842 32.5333 141.373 32.416 140.904 32.288C140.445 32.1493 140.05 31.92 139.72 31.6C139.389 31.2693 139.224 30.8373 139.224 30.304C139.224 29.6747 139.48 29.1467 139.992 28.72C140.504 28.2933 141.202 28.08 142.088 28.08C143.272 28.08 144.226 28.4533 144.952 29.2L144.392 30.032C143.848 29.3813 143.08 29.056 142.088 29.056C141.565 29.056 141.149 29.1733 140.84 29.408C140.53 29.632 140.376 29.92 140.376 30.272C140.376 30.528 140.493 30.7413 140.728 30.912C140.962 31.0827 141.256 31.2053 141.608 31.28C141.97 31.3547 142.354 31.4507 142.76 31.568C143.176 31.6853 143.56 31.8187 143.912 31.968C144.274 32.1067 144.573 32.3413 144.808 32.672C145.042 32.992 145.16 33.3867 145.16 33.856C145.16 34.5387 144.893 35.0987 144.36 35.536C143.837 35.9733 143.096 36.192 142.136 36.192ZM152.962 36.192C152.396 36.192 151.97 36.0373 151.682 35.728C151.394 35.4187 151.25 34.9707 151.25 34.384V25.328H152.45V34.128C152.45 34.4267 152.514 34.6667 152.642 34.848C152.78 35.0293 152.978 35.12 153.234 35.12C153.586 35.12 153.852 35.008 154.034 34.784L154.402 35.696C154.039 36.0267 153.559 36.192 152.962 36.192ZM162.347 36H161.147V34.848C160.485 35.744 159.616 36.192 158.539 36.192C157.515 36.192 156.683 35.8293 156.043 35.104C155.413 34.368 155.099 33.3813 155.099 32.144C155.099 30.9173 155.419 29.936 156.059 29.2C156.699 28.4533 157.525 28.08 158.539 28.08C159.605 28.08 160.475 28.5333 161.147 29.44V28.272H162.347V36ZM158.843 35.12C159.301 35.12 159.744 35.0027 160.171 34.768C160.608 34.5227 160.933 34.2293 161.147 33.888V30.4C160.933 30.048 160.608 29.7547 160.171 29.52C159.744 29.2747 159.301 29.152 158.843 29.152C158.075 29.152 157.467 29.4347 157.019 30C156.571 30.5547 156.347 31.2693 156.347 32.144C156.347 33.0187 156.571 33.7333 157.019 34.288C157.467 34.8427 158.075 35.12 158.843 35.12ZM172.394 36.192C171.232 36.192 170.282 35.8187 169.546 35.072C168.81 34.3147 168.442 33.3333 168.442 32.128C168.442 30.9973 168.805 30.0427 169.53 29.264C170.256 28.4747 171.162 28.08 172.25 28.08C173.392 28.08 174.293 28.4747 174.954 29.264C175.626 30.0427 175.962 31.0293 175.962 32.224V32.528H169.722C169.776 33.2853 170.048 33.92 170.538 34.432C171.04 34.944 171.69 35.2 172.49 35.2C173.45 35.2 174.25 34.8693 174.89 34.208L175.466 34.992C174.645 35.792 173.621 36.192 172.394 36.192ZM174.778 31.632C174.768 30.9813 174.544 30.3947 174.106 29.872C173.669 29.3387 173.045 29.072 172.234 29.072C171.466 29.072 170.858 29.3333 170.41 29.856C169.973 30.3787 169.738 30.9707 169.706 31.632H174.778ZM184.306 36H182.93L180.594 32.832L178.274 36H176.898L179.858 32.032L177.058 28.272H178.45L180.594 31.216L182.754 28.272H184.13L181.33 32.032L184.306 36ZM189.511 36.192C188.455 36.192 187.586 35.7387 186.903 34.832V38.944H185.703V28.272H186.903V29.424C187.191 29.0187 187.564 28.6933 188.023 28.448C188.482 28.2027 188.978 28.08 189.511 28.08C190.535 28.08 191.362 28.448 191.991 29.184C192.631 29.9093 192.951 30.8907 192.951 32.128C192.951 33.3653 192.631 34.352 191.991 35.088C191.362 35.824 190.535 36.192 189.511 36.192ZM189.207 35.12C189.964 35.12 190.567 34.8427 191.015 34.288C191.463 33.7227 191.687 33.0027 191.687 32.128C191.687 31.2533 191.463 30.5387 191.015 29.984C190.567 29.4293 189.964 29.152 189.207 29.152C188.748 29.152 188.3 29.2747 187.863 29.52C187.436 29.7547 187.116 30.0427 186.903 30.384V33.872C187.116 34.224 187.436 34.5227 187.863 34.768C188.3 35.0027 188.748 35.12 189.207 35.12ZM198.363 36.192C197.201 36.192 196.251 35.8187 195.515 35.072C194.779 34.3147 194.411 33.3333 194.411 32.128C194.411 30.9973 194.774 30.0427 195.499 29.264C196.225 28.4747 197.131 28.08 198.219 28.08C199.361 28.08 200.262 28.4747 200.923 29.264C201.595 30.0427 201.931 31.0293 201.931 32.224V32.528H195.691C195.745 33.2853 196.017 33.92 196.507 34.432C197.009 34.944 197.659 35.2 198.459 35.2C199.419 35.2 200.219 34.8693 200.859 34.208L201.435 34.992C200.614 35.792 199.59 36.192 198.363 36.192ZM200.747 31.632C200.737 30.9813 200.513 30.3947 200.075 29.872C199.638 29.3387 199.014 29.072 198.203 29.072C197.435 29.072 196.827 29.3333 196.379 29.856C195.942 30.3787 195.707 30.9707 195.675 31.632H200.747ZM207.283 36.192C206.141 36.192 205.213 35.808 204.499 35.04C203.784 34.2613 203.427 33.2907 203.427 32.128C203.427 30.9653 203.784 30 204.499 29.232C205.213 28.464 206.141 28.08 207.283 28.08C208.477 28.08 209.421 28.528 210.115 29.424L209.315 30.144C208.835 29.4827 208.179 29.152 207.347 29.152C206.547 29.152 205.901 29.4347 205.411 30C204.92 30.5547 204.675 31.264 204.675 32.128C204.675 33.0027 204.92 33.7227 205.411 34.288C205.901 34.8427 206.547 35.12 207.347 35.12C208.157 35.12 208.813 34.784 209.315 34.112L210.115 34.848C209.421 35.744 208.477 36.192 207.283 36.192ZM213.78 36.192C212.628 36.192 212.052 35.5893 212.052 34.384V29.328H210.772V28.272H212.052V26.16H213.268V28.272H214.836V29.328H213.268V34.128C213.268 34.4267 213.332 34.6667 213.46 34.848C213.599 35.0293 213.791 35.12 214.036 35.12C214.378 35.12 214.65 35.008 214.852 34.784L215.204 35.696C214.852 36.0267 214.378 36.192 213.78 36.192ZM223.315 36H222.115V34.848C221.454 35.744 220.585 36.192 219.507 36.192C218.483 36.192 217.651 35.8293 217.011 35.104C216.382 34.368 216.067 33.3813 216.067 32.144C216.067 30.9173 216.387 29.936 217.027 29.2C217.667 28.4533 218.494 28.08 219.507 28.08C220.574 28.08 221.443 28.5333 222.115 29.44V28.272H223.315V36ZM219.811 35.12C220.27 35.12 220.713 35.0027 221.139 34.768C221.577 34.5227 221.902 34.2293 222.115 33.888V30.4C221.902 30.048 221.577 29.7547 221.139 29.52C220.713 29.2747 220.27 29.152 219.811 29.152C219.043 29.152 218.435 29.4347 217.987 30C217.539 30.5547 217.315 31.2693 217.315 32.144C217.315 33.0187 217.539 33.7333 217.987 34.288C218.435 34.8427 219.043 35.12 219.811 35.12ZM227.687 36.192C226.535 36.192 225.959 35.5893 225.959 34.384V29.328H224.679V28.272H225.959V26.16H227.175V28.272H228.743V29.328H227.175V34.128C227.175 34.4267 227.239 34.6667 227.367 34.848C227.505 35.0293 227.697 35.12 227.943 35.12C228.284 35.12 228.556 35.008 228.759 34.784L229.111 35.696C228.759 36.0267 228.284 36.192 227.687 36.192ZM231.59 26.944C231.44 27.0933 231.254 27.168 231.03 27.168C230.806 27.168 230.614 27.0933 230.454 26.944C230.294 26.784 230.214 26.592 230.214 26.368C230.214 26.144 230.294 25.952 230.454 25.792C230.614 25.632 230.806 25.552 231.03 25.552C231.254 25.552 231.44 25.632 231.59 25.792C231.75 25.952 231.83 26.144 231.83 26.368C231.83 26.592 231.75 26.784 231.59 26.944ZM231.622 36H230.422V28.272H231.622V36ZM237.391 36H236.079L232.863 28.272H234.175L236.735 34.608L239.311 28.272H240.607L237.391 36ZM248.659 36H247.459V34.848C246.798 35.744 245.929 36.192 244.851 36.192C243.827 36.192 242.995 35.8293 242.355 35.104C241.726 34.368 241.411 33.3813 241.411 32.144C241.411 30.9173 241.731 29.936 242.371 29.2C243.011 28.4533 243.838 28.08 244.851 28.08C245.918 28.08 246.787 28.5333 247.459 29.44V28.272H248.659V36ZM245.155 35.12C245.614 35.12 246.057 35.0027 246.483 34.768C246.921 34.5227 247.246 34.2293 247.459 33.888V30.4C247.246 30.048 246.921 29.7547 246.483 29.52C246.057 29.2747 245.614 29.152 245.155 29.152C244.387 29.152 243.779 29.4347 243.331 30C242.883 30.5547 242.659 31.2693 242.659 32.144C242.659 33.0187 242.883 33.7333 243.331 34.288C243.779 34.8427 244.387 35.12 245.155 35.12ZM262.003 36H260.803V34.848C260.142 35.744 259.272 36.192 258.195 36.192C257.171 36.192 256.339 35.8293 255.699 35.104C255.07 34.368 254.755 33.3813 254.755 32.144C254.755 30.9173 255.075 29.936 255.715 29.2C256.355 28.4533 257.182 28.08 258.195 28.08C259.262 28.08 260.131 28.5333 260.803 29.44V25.328H262.003V36ZM258.499 35.12C258.958 35.12 259.4 35.0027 259.827 34.768C260.264 34.5227 260.59 34.2293 260.803 33.888V30.4C260.59 30.048 260.264 29.7547 259.827 29.52C259.4 29.2747 258.958 29.152 258.499 29.152C257.731 29.152 257.123 29.4347 256.675 30C256.227 30.5547 256.003 31.2693 256.003 32.144C256.003 33.0187 256.227 33.7333 256.675 34.288C257.123 34.8427 257.731 35.12 258.499 35.12ZM267.91 36.192C266.747 36.192 265.798 35.8187 265.062 35.072C264.326 34.3147 263.958 33.3333 263.958 32.128C263.958 30.9973 264.321 30.0427 265.046 29.264C265.771 28.4747 266.678 28.08 267.766 28.08C268.907 28.08 269.809 28.4747 270.47 29.264C271.142 30.0427 271.478 31.0293 271.478 32.224V32.528H265.238C265.291 33.2853 265.563 33.92 266.054 34.432C266.555 34.944 267.206 35.2 268.006 35.2C268.966 35.2 269.766 34.8693 270.406 34.208L270.982 34.992C270.161 35.792 269.137 36.192 267.91 36.192ZM270.294 31.632C270.283 30.9813 270.059 30.3947 269.622 29.872C269.185 29.3387 268.561 29.072 267.75 29.072C266.982 29.072 266.374 29.3333 265.926 29.856C265.489 30.3787 265.254 30.9707 265.222 31.632H270.294ZM280.938 36H279.626L276.41 28.272H277.722L280.282 34.608L282.858 28.272H284.154L280.938 36ZM286.574 26.944C286.425 27.0933 286.238 27.168 286.014 27.168C285.79 27.168 285.598 27.0933 285.438 26.944C285.278 26.784 285.198 26.592 285.198 26.368C285.198 26.144 285.278 25.952 285.438 25.792C285.598 25.632 285.79 25.552 286.014 25.552C286.238 25.552 286.425 25.632 286.574 25.792C286.734 25.952 286.814 26.144 286.814 26.368C286.814 26.592 286.734 26.784 286.574 26.944ZM286.606 36H285.406V28.272H286.606V36ZM295.8 36H294.6V34.848C293.938 35.744 293.069 36.192 291.992 36.192C290.968 36.192 290.136 35.8293 289.496 35.104C288.866 34.368 288.552 33.3813 288.552 32.144C288.552 30.9173 288.872 29.936 289.512 29.2C290.152 28.4533 290.978 28.08 291.992 28.08C293.058 28.08 293.928 28.5333 294.6 29.44V25.328H295.8V36ZM292.296 35.12C292.754 35.12 293.197 35.0027 293.624 34.768C294.061 34.5227 294.386 34.2293 294.6 33.888V30.4C294.386 30.048 294.061 29.7547 293.624 29.52C293.197 29.2747 292.754 29.152 292.296 29.152C291.528 29.152 290.92 29.4347 290.472 30C290.024 30.5547 289.8 31.2693 289.8 32.144C289.8 33.0187 290.024 33.7333 290.472 34.288C290.92 34.8427 291.528 35.12 292.296 35.12ZM305.003 36H303.803V34.848C303.142 35.744 302.272 36.192 301.195 36.192C300.171 36.192 299.339 35.8293 298.699 35.104C298.07 34.368 297.755 33.3813 297.755 32.144C297.755 30.9173 298.075 29.936 298.715 29.2C299.355 28.4533 300.182 28.08 301.195 28.08C302.262 28.08 303.131 28.5333 303.803 29.44V28.272H305.003V36ZM301.499 35.12C301.958 35.12 302.4 35.0027 302.827 34.768C303.264 34.5227 303.59 34.2293 303.803 33.888V30.4C303.59 30.048 303.264 29.7547 302.827 29.52C302.4 29.2747 301.958 29.152 301.499 29.152C300.731 29.152 300.123 29.4347 299.675 30C299.227 30.5547 299.003 31.2693 299.003 32.144C299.003 33.0187 299.227 33.7333 299.675 34.288C300.123 34.8427 300.731 35.12 301.499 35.12ZM318.347 36H317.147V34.848C316.485 35.744 315.616 36.192 314.539 36.192C313.515 36.192 312.683 35.8293 312.043 35.104C311.413 34.368 311.099 33.3813 311.099 32.144C311.099 30.9173 311.419 29.936 312.059 29.2C312.699 28.4533 313.525 28.08 314.539 28.08C315.605 28.08 316.475 28.5333 317.147 29.44V28.272H318.347V36ZM314.843 35.12C315.301 35.12 315.744 35.0027 316.171 34.768C316.608 34.5227 316.933 34.2293 317.147 33.888V30.4C316.933 30.048 316.608 29.7547 316.171 29.52C315.744 29.2747 315.301 29.152 314.843 29.152C314.075 29.152 313.467 29.4347 313.019 30C312.571 30.5547 312.347 31.2693 312.347 32.144C312.347 33.0187 312.571 33.7333 313.019 34.288C313.467 34.8427 314.075 35.12 314.843 35.12ZM322.462 36.192C321.896 36.192 321.47 36.0373 321.182 35.728C320.894 35.4187 320.75 34.9707 320.75 34.384V25.328H321.95V34.128C321.95 34.4267 322.014 34.6667 322.142 34.848C322.28 35.0293 322.478 35.12 322.734 35.12C323.086 35.12 323.352 35.008 323.534 34.784L323.902 35.696C323.539 36.0267 323.059 36.192 322.462 36.192ZM335.603 36H334.419V30.944C334.419 30.2933 334.27 29.8347 333.971 29.568C333.673 29.2907 333.241 29.152 332.675 29.152C332.227 29.152 331.795 29.2693 331.379 29.504C330.963 29.7387 330.633 30.0213 330.387 30.352V36H329.187V28.272H330.387V29.392C330.686 29.0293 331.086 28.72 331.587 28.464C332.089 28.208 332.611 28.08 333.155 28.08C334.787 28.08 335.603 28.912 335.603 30.576V36ZM344.815 36H343.615V34.848C342.954 35.744 342.085 36.192 341.007 36.192C339.983 36.192 339.151 35.8293 338.511 35.104C337.882 34.368 337.567 33.3813 337.567 32.144C337.567 30.9173 337.887 29.936 338.527 29.2C339.167 28.4533 339.994 28.08 341.007 28.08C342.074 28.08 342.943 28.5333 343.615 29.44V28.272H344.815V36ZM341.311 35.12C341.77 35.12 342.213 35.0027 342.639 34.768C343.077 34.5227 343.402 34.2293 343.615 33.888V30.4C343.402 30.048 343.077 29.7547 342.639 29.52C342.213 29.2747 341.77 29.152 341.311 29.152C340.543 29.152 339.935 29.4347 339.487 30C339.039 30.5547 338.815 31.2693 338.815 32.144C338.815 33.0187 339.039 33.7333 339.487 34.288C339.935 34.8427 340.543 35.12 341.311 35.12ZM350.627 36.192C349.485 36.192 348.557 35.808 347.843 35.04C347.128 34.2613 346.771 33.2907 346.771 32.128C346.771 30.9653 347.128 30 347.843 29.232C348.557 28.464 349.485 28.08 350.627 28.08C351.821 28.08 352.765 28.528 353.459 29.424L352.659 30.144C352.179 29.4827 351.523 29.152 350.691 29.152C349.891 29.152 349.245 29.4347 348.755 30C348.264 30.5547 348.019 31.264 348.019 32.128C348.019 33.0027 348.264 33.7227 348.755 34.288C349.245 34.8427 349.891 35.12 350.691 35.12C351.501 35.12 352.157 34.784 352.659 34.112L353.459 34.848C352.765 35.744 351.821 36.192 350.627 36.192ZM358.66 36.192C357.497 36.192 356.548 35.8187 355.812 35.072C355.076 34.3147 354.708 33.3333 354.708 32.128C354.708 30.9973 355.071 30.0427 355.796 29.264C356.521 28.4747 357.428 28.08 358.516 28.08C359.657 28.08 360.559 28.4747 361.22 29.264C361.892 30.0427 362.228 31.0293 362.228 32.224V32.528H355.988C356.041 33.2853 356.313 33.92 356.804 34.432C357.305 34.944 357.956 35.2 358.756 35.2C359.716 35.2 360.516 34.8693 361.156 34.208L361.732 34.992C360.911 35.792 359.887 36.192 358.66 36.192ZM361.044 31.632C361.033 30.9813 360.809 30.3947 360.372 29.872C359.935 29.3387 359.311 29.072 358.5 29.072C357.732 29.072 357.124 29.3333 356.676 29.856C356.239 30.3787 356.004 30.9707 355.972 31.632H361.044ZM365.372 36H364.172V28.272H365.372V29.504C366.108 28.5653 366.966 28.096 367.948 28.096V29.328C367.756 29.3067 367.601 29.296 367.484 29.296C367.11 29.296 366.71 29.424 366.284 29.68C365.857 29.9253 365.553 30.208 365.372 30.528V36ZM19.704 57.192C18.5413 57.192 17.592 56.8187 16.856 56.072C16.12 55.3147 15.752 54.3333 15.752 53.128C15.752 51.9973 16.1147 51.0427 16.84 50.264C17.5653 49.4747 18.472 49.08 19.56 49.08C20.7013 49.08 21.6027 49.4747 22.264 50.264C22.936 51.0427 23.272 52.0293 23.272 53.224V53.528H17.032C17.0853 54.2853 17.3573 54.92 17.848 55.432C18.3493 55.944 19 56.2 19.8 56.2C20.76 56.2 21.56 55.8693 22.2 55.208L22.776 55.992C21.9547 56.792 20.9307 57.192 19.704 57.192ZM22.088 52.632C22.0773 51.9813 21.8533 51.3947 21.416 50.872C20.9787 50.3387 20.3547 50.072 19.544 50.072C18.776 50.072 18.168 50.3333 17.72 50.856C17.2827 51.3787 17.048 51.9707 17.016 52.632H22.088ZM31.6316 57H30.4476V51.944C30.4476 51.2933 30.2983 50.8347 29.9996 50.568C29.701 50.2907 29.269 50.152 28.7036 50.152C28.2556 50.152 27.8236 50.2693 27.4076 50.504C26.9916 50.7387 26.661 51.0213 26.4156 51.352V57H25.2156V49.272H26.4156V50.392C26.7143 50.0293 27.1143 49.72 27.6156 49.464C28.117 49.208 28.6396 49.08 29.1836 49.08C30.8156 49.08 31.6316 49.912 31.6316 51.576V57ZM43.2884 57.192C41.731 57.192 40.4244 56.68 39.3684 55.656C38.323 54.6213 37.8004 53.2933 37.8004 51.672C37.8004 50.0507 38.323 48.728 39.3684 47.704C40.4244 46.6693 41.731 46.152 43.2884 46.152C45.0057 46.152 46.355 46.856 47.3364 48.264L46.2324 48.888C45.923 48.4187 45.5017 48.0453 44.9684 47.768C44.4457 47.48 43.8857 47.336 43.2884 47.336C42.1044 47.336 41.123 47.7413 40.3444 48.552C39.5657 49.3627 39.1764 50.4027 39.1764 51.672C39.1764 52.9307 39.5657 53.9707 40.3444 54.792C41.1337 55.6027 42.115 56.008 43.2884 56.008C43.8857 56.008 44.4457 55.864 44.9684 55.576C45.5017 55.288 45.923 54.9147 46.2324 54.456L47.3524 55.064C46.3177 56.4827 44.963 57.192 43.2884 57.192ZM55.1409 56.024C54.4475 56.8027 53.5249 57.192 52.3729 57.192C51.2209 57.192 50.2929 56.8027 49.5889 56.024C48.8955 55.2453 48.5489 54.28 48.5489 53.128C48.5489 51.976 48.8955 51.016 49.5889 50.248C50.2929 49.4693 51.2209 49.08 52.3729 49.08C53.5249 49.08 54.4475 49.4693 55.1409 50.248C55.8449 51.016 56.1969 51.976 56.1969 53.128C56.1969 54.28 55.8449 55.2453 55.1409 56.024ZM50.5009 55.256C50.9595 55.832 51.5835 56.12 52.3729 56.12C53.1622 56.12 53.7862 55.832 54.2449 55.256C54.7035 54.6693 54.9329 53.96 54.9329 53.128C54.9329 52.296 54.7035 51.592 54.2449 51.016C53.7862 50.44 53.1622 50.152 52.3729 50.152C51.5835 50.152 50.9595 50.44 50.5009 51.016C50.0422 51.592 49.8129 52.296 49.8129 53.128C49.8129 53.96 50.0422 54.6693 50.5009 55.256ZM59.8651 57.192C59.2998 57.192 58.8731 57.0373 58.5851 56.728C58.2971 56.4187 58.1531 55.9707 58.1531 55.384V46.328H59.3531V55.128C59.3531 55.4267 59.4171 55.6667 59.5451 55.848C59.6838 56.0293 59.8811 56.12 60.1371 56.12C60.4891 56.12 60.7558 56.008 60.9371 55.784L61.3051 56.696C60.9425 57.0267 60.4625 57.192 59.8651 57.192ZM68.594 56.024C67.9007 56.8027 66.978 57.192 65.826 57.192C64.674 57.192 63.746 56.8027 63.042 56.024C62.3487 55.2453 62.002 54.28 62.002 53.128C62.002 51.976 62.3487 51.016 63.042 50.248C63.746 49.4693 64.674 49.08 65.826 49.08C66.978 49.08 67.9007 49.4693 68.594 50.248C69.298 51.016 69.65 51.976 69.65 53.128C69.65 54.28 69.298 55.2453 68.594 56.024ZM63.954 55.256C64.4127 55.832 65.0367 56.12 65.826 56.12C66.6153 56.12 67.2393 55.832 67.698 55.256C68.1567 54.6693 68.386 53.96 68.386 53.128C68.386 52.296 68.1567 51.592 67.698 51.016C67.2393 50.44 66.6153 50.152 65.826 50.152C65.0367 50.152 64.4127 50.44 63.954 51.016C63.4953 51.592 63.266 52.296 63.266 53.128C63.266 53.96 63.4953 54.6693 63.954 55.256ZM82.1343 57H80.9343V51.752C80.9343 50.6853 80.4596 50.152 79.5103 50.152C79.1263 50.152 78.7423 50.2693 78.3583 50.504C77.9743 50.728 77.6756 51.0053 77.4623 51.336V57H76.2623V51.752C76.2623 50.6853 75.7876 50.152 74.8383 50.152C74.4649 50.152 74.0863 50.2693 73.7023 50.504C73.3289 50.7387 73.0303 51.0213 72.8063 51.352V57H71.6063V49.272H72.8063V50.392C73.0089 50.0827 73.3449 49.7893 73.8143 49.512C74.2943 49.224 74.7956 49.08 75.3183 49.08C75.8729 49.08 76.3263 49.2133 76.6783 49.48C77.0303 49.7467 77.2649 50.0933 77.3823 50.52C77.6169 50.136 77.9743 49.8 78.4543 49.512C78.9343 49.224 79.4409 49.08 79.9743 49.08C81.4143 49.08 82.1343 49.8587 82.1343 51.416V57ZM85.7281 54.904C85.9415 55.2453 86.2615 55.5333 86.6881 55.768C87.1255 56.0027 87.5788 56.12 88.0481 56.12C88.8055 56.12 89.4081 55.8427 89.8561 55.288C90.3041 54.7333 90.5281 54.0187 90.5281 53.144C90.5281 52.2693 90.3041 51.5547 89.8561 51C89.4081 50.4347 88.8055 50.152 88.0481 50.152C87.5788 50.152 87.1255 50.2747 86.6881 50.52C86.2615 50.7547 85.9415 51.048 85.7281 51.4V54.904ZM85.7281 57H84.5281V46.328H85.7281V50.44C86.4001 49.5333 87.2695 49.08 88.3361 49.08C89.3601 49.08 90.1868 49.4533 90.8161 50.2C91.4561 50.936 91.7761 51.9173 91.7761 53.144C91.7761 54.3813 91.4561 55.368 90.8161 56.104C90.1868 56.8293 89.3601 57.192 88.3361 57.192C87.2588 57.192 86.3895 56.744 85.7281 55.848V57ZM94.8993 47.944C94.7499 48.0933 94.5633 48.168 94.3393 48.168C94.1153 48.168 93.9233 48.0933 93.7633 47.944C93.6033 47.784 93.5233 47.592 93.5233 47.368C93.5233 47.144 93.6033 46.952 93.7633 46.792C93.9233 46.632 94.1153 46.552 94.3393 46.552C94.5633 46.552 94.7499 46.632 94.8993 46.792C95.0593 46.952 95.1393 47.144 95.1393 47.368C95.1393 47.592 95.0593 47.784 94.8993 47.944ZM94.9313 57H93.7313V49.272H94.9313V57ZM104.125 57H102.925V55.848C102.264 56.744 101.394 57.192 100.317 57.192C99.293 57.192 98.461 56.8293 97.821 56.104C97.1917 55.368 96.877 54.3813 96.877 53.144C96.877 51.9173 97.197 50.936 97.837 50.2C98.477 49.4533 99.3037 49.08 100.317 49.08C101.384 49.08 102.253 49.5333 102.925 50.44V49.272H104.125V57ZM100.621 56.12C101.08 56.12 101.522 56.0027 101.949 55.768C102.386 55.5227 102.712 55.2293 102.925 54.888V51.4C102.712 51.048 102.386 50.7547 101.949 50.52C101.522 50.2747 101.08 50.152 100.621 50.152C99.853 50.152 99.245 50.4347 98.797 51C98.349 51.5547 98.125 52.2693 98.125 53.144C98.125 54.0187 98.349 54.7333 98.797 55.288C99.245 55.8427 99.853 56.12 100.621 56.12ZM113.549 60.136C112.354 60.136 111.367 59.7467 110.589 58.968L111.197 58.104C111.751 58.7973 112.535 59.144 113.549 59.144C114.274 59.144 114.845 58.9467 115.261 58.552C115.677 58.1573 115.885 57.608 115.885 56.904V55.752C115.565 56.1147 115.159 56.4187 114.669 56.664C114.189 56.9093 113.677 57.032 113.133 57.032C111.49 57.032 110.669 56.2107 110.669 54.568V49.272H111.869V54.2C111.869 54.8507 112.018 55.3093 112.317 55.576C112.615 55.8427 113.047 55.976 113.613 55.976C114.05 55.976 114.477 55.864 114.893 55.64C115.319 55.4053 115.65 55.128 115.885 54.808V49.272H117.085V56.904C117.085 57.9493 116.749 58.7493 116.077 59.304C115.405 59.8587 114.562 60.136 113.549 60.136ZM130.422 57H129.222V55.848C128.561 56.744 127.691 57.192 126.614 57.192C125.59 57.192 124.758 56.8293 124.118 56.104C123.489 55.368 123.174 54.3813 123.174 53.144C123.174 51.9173 123.494 50.936 124.134 50.2C124.774 49.4533 125.601 49.08 126.614 49.08C127.681 49.08 128.55 49.5333 129.222 50.44V49.272H130.422V57ZM126.918 56.12C127.377 56.12 127.819 56.0027 128.246 55.768C128.683 55.5227 129.009 55.2293 129.222 54.888V51.4C129.009 51.048 128.683 50.7547 128.246 50.52C127.819 50.2747 127.377 50.152 126.918 50.152C126.15 50.152 125.542 50.4347 125.094 51C124.646 51.5547 124.422 52.2693 124.422 53.144C124.422 54.0187 124.646 54.7333 125.094 55.288C125.542 55.8427 126.15 56.12 126.918 56.12ZM143.382 57H142.198V51.944C142.198 51.2933 142.048 50.8347 141.75 50.568C141.451 50.2907 141.019 50.152 140.454 50.152C140.006 50.152 139.574 50.2693 139.158 50.504C138.742 50.7387 138.411 51.0213 138.166 51.352V57H136.966V49.272H138.166V50.392C138.464 50.0293 138.864 49.72 139.366 49.464C139.867 49.208 140.39 49.08 140.934 49.08C142.566 49.08 143.382 49.912 143.382 51.576V57ZM146.962 47.944C146.812 48.0933 146.626 48.168 146.402 48.168C146.178 48.168 145.986 48.0933 145.826 47.944C145.666 47.784 145.586 47.592 145.586 47.368C145.586 47.144 145.666 46.952 145.826 46.792C145.986 46.632 146.178 46.552 146.402 46.552C146.626 46.552 146.812 46.632 146.962 46.792C147.122 46.952 147.202 47.144 147.202 47.368C147.202 47.592 147.122 47.784 146.962 47.944ZM146.994 57H145.794V49.272H146.994V57ZM152.764 57H151.452L148.236 49.272H149.548L152.108 55.608L154.684 49.272H155.98L152.764 57ZM160.735 57.192C159.573 57.192 158.623 56.8187 157.887 56.072C157.151 55.3147 156.783 54.3333 156.783 53.128C156.783 51.9973 157.146 51.0427 157.871 50.264C158.597 49.4747 159.503 49.08 160.591 49.08C161.733 49.08 162.634 49.4747 163.295 50.264C163.967 51.0427 164.303 52.0293 164.303 53.224V53.528H158.063C158.117 54.2853 158.389 54.92 158.879 55.432C159.381 55.944 160.031 56.2 160.831 56.2C161.791 56.2 162.591 55.8693 163.231 55.208L163.807 55.992C162.986 56.792 161.962 57.192 160.735 57.192ZM163.119 52.632C163.109 51.9813 162.885 51.3947 162.447 50.872C162.01 50.3387 161.386 50.072 160.575 50.072C159.807 50.072 159.199 50.3333 158.751 50.856C158.314 51.3787 158.079 51.9707 158.047 52.632H163.119ZM167.959 57.192C167.394 57.192 166.967 57.0373 166.679 56.728C166.391 56.4187 166.247 55.9707 166.247 55.384V46.328H167.447V55.128C167.447 55.4267 167.511 55.6667 167.639 55.848C167.778 56.0293 167.975 56.12 168.231 56.12C168.583 56.12 168.85 56.008 169.031 55.784L169.399 56.696C169.036 57.0267 168.556 57.192 167.959 57.192ZM185.212 57H184.012V51.752C184.012 50.6853 183.538 50.152 182.588 50.152C182.204 50.152 181.82 50.2693 181.436 50.504C181.052 50.728 180.754 51.0053 180.54 51.336V57H179.34V51.752C179.34 50.6853 178.866 50.152 177.916 50.152C177.543 50.152 177.164 50.2693 176.78 50.504C176.407 50.7387 176.108 51.0213 175.884 51.352V57H174.684V49.272H175.884V50.392C176.087 50.0827 176.423 49.7893 176.892 49.512C177.372 49.224 177.874 49.08 178.396 49.08C178.951 49.08 179.404 49.2133 179.756 49.48C180.108 49.7467 180.343 50.0933 180.46 50.52C180.695 50.136 181.052 49.8 181.532 49.512C182.012 49.224 182.519 49.08 183.052 49.08C184.492 49.08 185.212 49.8587 185.212 51.416V57ZM194.022 57H192.822V55.912C192.502 56.2747 192.097 56.5787 191.606 56.824C191.126 57.0693 190.614 57.192 190.07 57.192C188.428 57.192 187.606 56.3707 187.606 54.728V49.272H188.806V54.36C188.806 55 188.956 55.4533 189.254 55.72C189.553 55.9867 189.985 56.12 190.55 56.12C190.998 56.12 191.43 56.008 191.846 55.784C192.262 55.56 192.588 55.2827 192.822 54.952V49.272H194.022V57ZM202.835 57H201.651V51.944C201.651 51.2933 201.501 50.8347 201.203 50.568C200.904 50.2907 200.472 50.152 199.907 50.152C199.459 50.152 199.027 50.2693 198.611 50.504C198.195 50.7387 197.864 51.0213 197.619 51.352V57H196.419V49.272H197.619V50.392C197.917 50.0293 198.317 49.72 198.819 49.464C199.32 49.208 199.843 49.08 200.387 49.08C202.019 49.08 202.835 49.912 202.835 51.576V57ZM212.047 57H210.847V55.848C210.186 56.744 209.316 57.192 208.239 57.192C207.215 57.192 206.383 56.8293 205.743 56.104C205.114 55.368 204.799 54.3813 204.799 53.144C204.799 51.9173 205.119 50.936 205.759 50.2C206.399 49.4533 207.226 49.08 208.239 49.08C209.306 49.08 210.175 49.5333 210.847 50.44V46.328H212.047V57ZM208.543 56.12C209.002 56.12 209.444 56.0027 209.871 55.768C210.308 55.5227 210.634 55.2293 210.847 54.888V51.4C210.634 51.048 210.308 50.7547 209.871 50.52C209.444 50.2747 209.002 50.152 208.543 50.152C207.775 50.152 207.167 50.4347 206.719 51C206.271 51.5547 206.047 52.2693 206.047 53.144C206.047 54.0187 206.271 54.7333 206.719 55.288C207.167 55.8427 207.775 56.12 208.543 56.12ZM215.618 47.944C215.469 48.0933 215.282 48.168 215.058 48.168C214.834 48.168 214.642 48.0933 214.482 47.944C214.322 47.784 214.242 47.592 214.242 47.368C214.242 47.144 214.322 46.952 214.482 46.792C214.642 46.632 214.834 46.552 215.058 46.552C215.282 46.552 215.469 46.632 215.618 46.792C215.778 46.952 215.858 47.144 215.858 47.368C215.858 47.592 215.778 47.784 215.618 47.944ZM215.65 57H214.45V49.272H215.65V57ZM224.844 57H223.644V55.848C222.982 56.744 222.113 57.192 221.036 57.192C220.012 57.192 219.18 56.8293 218.54 56.104C217.91 55.368 217.596 54.3813 217.596 53.144C217.596 51.9173 217.916 50.936 218.556 50.2C219.196 49.4533 220.022 49.08 221.036 49.08C222.102 49.08 222.972 49.5333 223.644 50.44V49.272H224.844V57ZM221.34 56.12C221.798 56.12 222.241 56.0027 222.668 55.768C223.105 55.5227 223.43 55.2293 223.644 54.888V51.4C223.43 51.048 223.105 50.7547 222.668 50.52C222.241 50.2747 221.798 50.152 221.34 50.152C220.572 50.152 219.964 50.4347 219.516 51C219.068 51.5547 218.844 52.2693 218.844 53.144C218.844 54.0187 219.068 54.7333 219.516 55.288C219.964 55.8427 220.572 56.12 221.34 56.12ZM228.959 57.192C228.394 57.192 227.967 57.0373 227.679 56.728C227.391 56.4187 227.247 55.9707 227.247 55.384V46.328H228.447V55.128C228.447 55.4267 228.511 55.6667 228.639 55.848C228.778 56.0293 228.975 56.12 229.231 56.12C229.583 56.12 229.85 56.008 230.031 55.784L230.399 56.696C230.036 57.0267 229.556 57.192 228.959 57.192ZM242.116 57H240.916V51.912C240.916 51.2613 240.767 50.808 240.468 50.552C240.17 50.2853 239.738 50.152 239.172 50.152C238.735 50.152 238.303 50.2693 237.876 50.504C237.46 50.7387 237.135 51.0213 236.9 51.352V57H235.7V46.328H236.9V50.392C237.188 50.0293 237.583 49.72 238.084 49.464C238.586 49.208 239.108 49.08 239.652 49.08C241.295 49.08 242.116 49.9013 242.116 51.544V57ZM251.312 57H250.113V55.848C249.451 56.744 248.582 57.192 247.505 57.192C246.481 57.192 245.649 56.8293 245.009 56.104C244.379 55.368 244.065 54.3813 244.065 53.144C244.065 51.9173 244.385 50.936 245.025 50.2C245.665 49.4533 246.491 49.08 247.505 49.08C248.571 49.08 249.441 49.5333 250.113 50.44V49.272H251.312V57ZM247.809 56.12C248.267 56.12 248.71 56.0027 249.137 55.768C249.574 55.5227 249.899 55.2293 250.113 54.888V51.4C249.899 51.048 249.574 50.7547 249.137 50.52C248.71 50.2747 248.267 50.152 247.809 50.152C247.041 50.152 246.433 50.4347 245.985 51C245.537 51.5547 245.312 52.2693 245.312 53.144C245.312 54.0187 245.537 54.7333 245.985 55.288C246.433 55.8427 247.041 56.12 247.809 56.12ZM264.656 57H263.456V55.848C262.795 56.744 261.926 57.192 260.848 57.192C259.824 57.192 258.992 56.8293 258.352 56.104C257.723 55.368 257.408 54.3813 257.408 53.144C257.408 51.9173 257.728 50.936 258.368 50.2C259.008 49.4533 259.835 49.08 260.848 49.08C261.915 49.08 262.784 49.5333 263.456 50.44V49.272H264.656V57ZM261.152 56.12C261.611 56.12 262.054 56.0027 262.48 55.768C262.918 55.5227 263.243 55.2293 263.456 54.888V51.4C263.243 51.048 262.918 50.7547 262.48 50.52C262.054 50.2747 261.611 50.152 261.152 50.152C260.384 50.152 259.776 50.4347 259.328 51C258.88 51.5547 258.656 52.2693 258.656 53.144C258.656 54.0187 258.88 54.7333 259.328 55.288C259.776 55.8427 260.384 56.12 261.152 56.12ZM273.475 57H272.275V55.912C271.955 56.2747 271.55 56.5787 271.059 56.824C270.579 57.0693 270.067 57.192 269.523 57.192C267.881 57.192 267.059 56.3707 267.059 54.728V49.272H268.259V54.36C268.259 55 268.409 55.4533 268.707 55.72C269.006 55.9867 269.438 56.12 270.003 56.12C270.451 56.12 270.883 56.008 271.299 55.784C271.715 55.56 272.041 55.2827 272.275 54.952V49.272H273.475V57ZM286.4 57H285.2V51.752C285.2 50.6853 284.725 50.152 283.776 50.152C283.392 50.152 283.008 50.2693 282.624 50.504C282.24 50.728 281.941 51.0053 281.728 51.336V57H280.528V51.752C280.528 50.6853 280.053 50.152 279.104 50.152C278.731 50.152 278.352 50.2693 277.968 50.504C277.595 50.7387 277.296 51.0213 277.072 51.352V57H275.872V49.272H277.072V50.392C277.275 50.0827 277.611 49.7893 278.08 49.512C278.56 49.224 279.061 49.08 279.584 49.08C280.139 49.08 280.592 49.2133 280.944 49.48C281.296 49.7467 281.531 50.0933 281.648 50.52C281.883 50.136 282.24 49.8 282.72 49.512C283.2 49.224 283.707 49.08 284.24 49.08C285.68 49.08 286.4 49.8587 286.4 51.416V57ZM292.298 57.192C291.135 57.192 290.186 56.8187 289.45 56.072C288.714 55.3147 288.346 54.3333 288.346 53.128C288.346 51.9973 288.708 51.0427 289.434 50.264C290.159 49.4747 291.066 49.08 292.154 49.08C293.295 49.08 294.196 49.4747 294.858 50.264C295.53 51.0427 295.866 52.0293 295.866 53.224V53.528H289.626C289.679 54.2853 289.951 54.92 290.442 55.432C290.943 55.944 291.594 56.2 292.394 56.2C293.354 56.2 294.154 55.8693 294.794 55.208L295.37 55.992C294.548 56.792 293.524 57.192 292.298 57.192ZM294.682 52.632C294.671 51.9813 294.447 51.3947 294.01 50.872C293.572 50.3387 292.948 50.072 292.138 50.072C291.37 50.072 290.762 50.3333 290.314 50.856C289.876 51.3787 289.642 51.9707 289.61 52.632H294.682ZM304.225 57H303.041V51.944C303.041 51.2933 302.892 50.8347 302.593 50.568C302.295 50.2907 301.863 50.152 301.297 50.152C300.849 50.152 300.417 50.2693 300.001 50.504C299.585 50.7387 299.255 51.0213 299.009 51.352V57H297.809V49.272H299.009V50.392C299.308 50.0293 299.708 49.72 300.209 49.464C300.711 49.208 301.233 49.08 301.777 49.08C303.409 49.08 304.225 49.912 304.225 51.576V57ZM308.606 57.192C307.454 57.192 306.878 56.5893 306.878 55.384V50.328H305.598V49.272H306.878V47.16H308.094V49.272H309.661V50.328H308.094V55.128C308.094 55.4267 308.158 55.6667 308.286 55.848C308.424 56.0293 308.616 56.12 308.862 56.12C309.203 56.12 309.475 56.008 309.678 55.784L310.03 56.696C309.678 57.0267 309.203 57.192 308.606 57.192ZM318.141 57H316.941V55.848C316.279 56.744 315.41 57.192 314.333 57.192C313.309 57.192 312.477 56.8293 311.837 56.104C311.207 55.368 310.893 54.3813 310.893 53.144C310.893 51.9173 311.213 50.936 311.853 50.2C312.493 49.4533 313.319 49.08 314.333 49.08C315.399 49.08 316.269 49.5333 316.941 50.44V49.272H318.141V57ZM314.637 56.12C315.095 56.12 315.538 56.0027 315.965 55.768C316.402 55.5227 316.727 55.2293 316.941 54.888V51.4C316.727 51.048 316.402 50.7547 315.965 50.52C315.538 50.2747 315.095 50.152 314.637 50.152C313.869 50.152 313.261 50.4347 312.813 51C312.365 51.5547 312.141 52.2693 312.141 53.144C312.141 54.0187 312.365 54.7333 312.813 55.288C313.261 55.8427 313.869 56.12 314.637 56.12ZM327.344 57H326.144V55.848C325.482 56.744 324.613 57.192 323.536 57.192C322.512 57.192 321.68 56.8293 321.04 56.104C320.41 55.368 320.096 54.3813 320.096 53.144C320.096 51.9173 320.416 50.936 321.056 50.2C321.696 49.4533 322.522 49.08 323.536 49.08C324.602 49.08 325.472 49.5333 326.144 50.44V46.328H327.344V57ZM323.84 56.12C324.298 56.12 324.741 56.0027 325.168 55.768C325.605 55.5227 325.93 55.2293 326.144 54.888V51.4C325.93 51.048 325.605 50.7547 325.168 50.52C324.741 50.2747 324.298 50.152 323.84 50.152C323.072 50.152 322.464 50.4347 322.016 51C321.568 51.5547 321.344 52.2693 321.344 53.144C321.344 54.0187 321.568 54.7333 322.016 55.288C322.464 55.8427 323.072 56.12 323.84 56.12ZM335.891 56.024C335.198 56.8027 334.275 57.192 333.123 57.192C331.971 57.192 331.043 56.8027 330.339 56.024C329.646 55.2453 329.299 54.28 329.299 53.128C329.299 51.976 329.646 51.016 330.339 50.248C331.043 49.4693 331.971 49.08 333.123 49.08C334.275 49.08 335.198 49.4693 335.891 50.248C336.595 51.016 336.947 51.976 336.947 53.128C336.947 54.28 336.595 55.2453 335.891 56.024ZM331.251 55.256C331.71 55.832 332.334 56.12 333.123 56.12C333.912 56.12 334.536 55.832 334.995 55.256C335.454 54.6693 335.683 53.96 335.683 53.128C335.683 52.296 335.454 51.592 334.995 51.016C334.536 50.44 333.912 50.152 333.123 50.152C332.334 50.152 331.71 50.44 331.251 51.016C330.792 51.592 330.563 52.296 330.563 53.128C330.563 53.96 330.792 54.6693 331.251 55.256ZM349.844 57H348.644V55.848C347.982 56.744 347.113 57.192 346.036 57.192C345.012 57.192 344.18 56.8293 343.54 56.104C342.91 55.368 342.596 54.3813 342.596 53.144C342.596 51.9173 342.916 50.936 343.556 50.2C344.196 49.4533 345.022 49.08 346.036 49.08C347.102 49.08 347.972 49.5333 348.644 50.44V46.328H349.844V57ZM346.34 56.12C346.798 56.12 347.241 56.0027 347.668 55.768C348.105 55.5227 348.43 55.2293 348.644 54.888V51.4C348.43 51.048 348.105 50.7547 347.668 50.52C347.241 50.2747 346.798 50.152 346.34 50.152C345.572 50.152 344.964 50.4347 344.516 51C344.068 51.5547 343.844 52.2693 343.844 53.144C343.844 54.0187 344.068 54.7333 344.516 55.288C344.964 55.8427 345.572 56.12 346.34 56.12ZM355.751 57.192C354.588 57.192 353.639 56.8187 352.903 56.072C352.167 55.3147 351.799 54.3333 351.799 53.128C351.799 51.9973 352.162 51.0427 352.887 50.264C353.612 49.4747 354.519 49.08 355.607 49.08C356.748 49.08 357.65 49.4747 358.311 50.264C358.983 51.0427 359.319 52.0293 359.319 53.224V53.528H353.079C353.132 54.2853 353.404 54.92 353.895 55.432C354.396 55.944 355.047 56.2 355.847 56.2C356.807 56.2 357.607 55.8693 358.247 55.208L358.823 55.992C358.002 56.792 356.978 57.192 355.751 57.192ZM358.135 52.632C358.124 51.9813 357.9 51.3947 357.463 50.872C357.026 50.3387 356.402 50.072 355.591 50.072C354.823 50.072 354.215 50.3333 353.767 50.856C353.33 51.3787 353.095 51.9707 353.063 52.632H358.135ZM363.727 57.192C362.425 57.192 361.385 56.7867 360.607 55.976L361.215 55.112C361.481 55.4213 361.844 55.6827 362.303 55.896C362.772 56.1093 363.257 56.216 363.759 56.216C364.335 56.216 364.783 56.0933 365.103 55.848C365.433 55.6027 365.599 55.2827 365.599 54.888C365.599 54.5467 365.433 54.28 365.103 54.088C364.772 53.8853 364.372 53.736 363.903 53.64C363.433 53.5333 362.964 53.416 362.495 53.288C362.036 53.1493 361.641 52.92 361.311 52.6C360.98 52.2693 360.815 51.8373 360.815 51.304C360.815 50.6747 361.071 50.1467 361.583 49.72C362.095 49.2933 362.793 49.08 363.679 49.08C364.863 49.08 365.817 49.4533 366.543 50.2L365.983 51.032C365.439 50.3813 364.671 50.056 363.679 50.056C363.156 50.056 362.74 50.1733 362.431 50.408C362.121 50.632 361.967 50.92 361.967 51.272C361.967 51.528 362.084 51.7413 362.319 51.912C362.553 52.0827 362.847 52.2053 363.199 52.28C363.561 52.3547 363.945 52.4507 364.351 52.568C364.767 52.6853 365.151 52.8187 365.503 52.968C365.865 53.1067 366.164 53.3413 366.399 53.672C366.633 53.992 366.751 54.3867 366.751 54.856C366.751 55.5387 366.484 56.0987 365.951 56.536C365.428 56.9733 364.687 57.192 363.727 57.192ZM375.5 57H374.3V55.848C373.639 56.744 372.769 57.192 371.692 57.192C370.668 57.192 369.836 56.8293 369.196 56.104C368.567 55.368 368.252 54.3813 368.252 53.144C368.252 51.9173 368.572 50.936 369.212 50.2C369.852 49.4533 370.679 49.08 371.692 49.08C372.759 49.08 373.628 49.5333 374.3 50.44V46.328H375.5V57ZM371.996 56.12C372.455 56.12 372.897 56.0027 373.324 55.768C373.761 55.5227 374.087 55.2293 374.3 54.888V51.4C374.087 51.048 373.761 50.7547 373.324 50.52C372.897 50.2747 372.455 50.152 371.996 50.152C371.228 50.152 370.62 50.4347 370.172 51C369.724 51.5547 369.5 52.2693 369.5 53.144C369.5 54.0187 369.724 54.7333 370.172 55.288C370.62 55.8427 371.228 56.12 371.996 56.12ZM381.407 57.192C380.244 57.192 379.295 56.8187 378.559 56.072C377.823 55.3147 377.455 54.3333 377.455 53.128C377.455 51.9973 377.818 51.0427 378.543 50.264C379.268 49.4747 380.175 49.08 381.263 49.08C382.404 49.08 383.306 49.4747 383.967 50.264C384.639 51.0427 384.975 52.0293 384.975 53.224V53.528H378.735C378.788 54.2853 379.06 54.92 379.551 55.432C380.052 55.944 380.703 56.2 381.503 56.2C382.463 56.2 383.263 55.8693 383.903 55.208L384.479 55.992C383.658 56.792 382.634 57.192 381.407 57.192ZM383.791 52.632C383.78 51.9813 383.556 51.3947 383.119 50.872C382.682 50.3387 382.058 50.072 381.247 50.072C380.479 50.072 379.871 50.3333 379.423 50.856C378.986 51.3787 378.751 51.9707 378.719 52.632H383.791ZM19.176 78H17.848V69.072L16.136 70.896L15.336 70.08L18.008 67.328H19.176V78ZM24.7259 78.176C23.5099 78.176 22.5232 77.7493 21.7659 76.896L22.4379 75.904C23.0565 76.6293 23.8192 76.992 24.7259 76.992C25.4085 76.992 25.9845 76.7787 26.4539 76.352C26.9232 75.9253 27.2539 75.408 27.4459 74.8C27.6379 74.192 27.7339 73.5253 27.7339 72.8C27.7339 72.6187 27.7285 72.48 27.7179 72.384C27.4512 72.8107 27.0405 73.1947 26.4859 73.536C25.9312 73.8773 25.3392 74.048 24.7099 74.048C23.6965 74.048 22.8592 73.7547 22.1979 73.168C21.5365 72.5707 21.2059 71.728 21.2059 70.64C21.2059 69.68 21.5472 68.8587 22.2299 68.176C22.9125 67.4933 23.8192 67.152 24.9499 67.152C25.6645 67.152 26.2939 67.3013 26.8379 67.6C27.3819 67.8987 27.8139 68.3093 28.1339 68.832C28.4539 69.3547 28.6885 69.936 28.8379 70.576C28.9979 71.216 29.0779 71.9147 29.0779 72.672C29.0779 73.6747 28.9285 74.5813 28.6299 75.392C28.3312 76.192 27.8459 76.8587 27.1739 77.392C26.5019 77.9147 25.6859 78.176 24.7259 78.176ZM25.0139 72.896C25.5365 72.896 26.0379 72.752 26.5179 72.464C27.0085 72.1653 27.3979 71.776 27.6859 71.296C27.6539 70.944 27.5792 70.6027 27.4619 70.272C27.3552 69.9413 27.2005 69.6267 26.9979 69.328C26.7952 69.0293 26.5179 68.7893 26.1659 68.608C25.8245 68.4267 25.4352 68.336 24.9979 68.336C24.2405 68.336 23.6432 68.5707 23.2059 69.04C22.7685 69.4987 22.5499 70.016 22.5499 70.592C22.5499 71.3387 22.7792 71.9093 23.2379 72.304C23.6965 72.6987 24.2885 72.896 25.0139 72.896ZM34.819 78.192C34.0937 78.192 33.459 78.0427 32.915 77.744C32.371 77.4453 31.939 77.0347 31.619 76.512C31.3097 75.9893 31.075 75.408 30.915 74.768C30.7657 74.128 30.691 73.4293 30.691 72.672C30.691 71.1147 31.059 69.808 31.795 68.752C32.5417 67.696 33.6243 67.168 35.043 67.168C36.2803 67.168 37.2617 67.5947 37.987 68.448L37.315 69.44C36.6963 68.7147 35.939 68.352 35.043 68.352C34.0723 68.352 33.3257 68.7627 32.803 69.584C32.291 70.4053 32.035 71.392 32.035 72.544V72.96C32.3017 72.5333 32.7123 72.1493 33.267 71.808C33.8323 71.4667 34.4297 71.296 35.059 71.296C36.0723 71.296 36.9043 71.5947 37.555 72.192C38.2163 72.7787 38.547 73.616 38.547 74.704C38.547 75.664 38.2057 76.4853 37.523 77.168C36.8403 77.8507 35.939 78.192 34.819 78.192ZM34.755 77.008C35.523 77.008 36.1203 76.7733 36.547 76.304C36.9843 75.8347 37.203 75.3173 37.203 74.752C37.203 74.0053 36.9737 73.4347 36.515 73.04C36.0563 72.6453 35.4697 72.448 34.755 72.448C34.2323 72.448 33.731 72.5973 33.251 72.896C32.771 73.184 32.3817 73.5627 32.083 74.032C32.147 74.8213 32.3977 75.5147 32.835 76.112C33.2723 76.7093 33.9123 77.008 34.755 77.008ZM44.2241 78.192C43.5201 78.192 42.8961 78.032 42.3521 77.712C41.8188 77.3813 41.3921 76.944 41.0721 76.4C40.7628 75.856 40.5281 75.2693 40.3681 74.64C40.2188 74.0107 40.1441 73.3547 40.1441 72.672C40.1441 71.9893 40.2188 71.3333 40.3681 70.704C40.5281 70.0747 40.7628 69.4933 41.0721 68.96C41.3921 68.416 41.8188 67.984 42.3521 67.664C42.8961 67.3333 43.5201 67.168 44.2241 67.168C44.9175 67.168 45.5361 67.3333 46.0801 67.664C46.6241 67.984 47.0508 68.416 47.3601 68.96C47.6801 69.4933 47.9148 70.0747 48.0641 70.704C48.2241 71.3333 48.3041 71.9893 48.3041 72.672C48.3041 73.3547 48.2241 74.0107 48.0641 74.64C47.9148 75.2693 47.6801 75.856 47.3601 76.4C47.0508 76.944 46.6241 77.3813 46.0801 77.712C45.5361 78.032 44.9175 78.192 44.2241 78.192ZM42.6241 76.352C43.0508 76.7893 43.5841 77.008 44.2241 77.008C44.8641 77.008 45.3975 76.7893 45.8241 76.352C46.2508 75.904 46.5441 75.3707 46.7041 74.752C46.8641 74.1333 46.9441 73.44 46.9441 72.672C46.9441 71.904 46.8641 71.2107 46.7041 70.592C46.5441 69.9733 46.2508 69.4453 45.8241 69.008C45.3975 68.5707 44.8641 68.352 44.2241 68.352C43.5841 68.352 43.0508 68.5707 42.6241 69.008C42.1975 69.4453 41.9041 69.9733 41.7441 70.592C41.5841 71.2107 41.5041 71.904 41.5041 72.672C41.5041 73.44 41.5841 74.1333 41.7441 74.752C41.9041 75.3707 42.1975 75.904 42.6241 76.352ZM51.441 77.616C51.441 78.0853 51.3183 78.5333 51.073 78.96C50.8383 79.3973 50.529 79.7547 50.145 80.032L49.537 79.536C49.8037 79.3653 50.033 79.136 50.225 78.848C50.4277 78.5707 50.545 78.304 50.577 78.048C50.5343 78.0693 50.4597 78.08 50.353 78.08C50.1397 78.08 49.9583 78.0053 49.809 77.856C49.6597 77.696 49.585 77.4987 49.585 77.264C49.585 77.0293 49.665 76.8267 49.825 76.656C49.9957 76.4853 50.1983 76.4 50.433 76.4C50.721 76.4 50.961 76.512 51.153 76.736C51.345 76.9493 51.441 77.2427 51.441 77.616ZM61.4611 78.192C60.4051 78.192 59.5358 77.7387 58.8531 76.832V80.944H57.6531V70.272H58.8531V71.424C59.1411 71.0187 59.5145 70.6933 59.9731 70.448C60.4318 70.2027 60.9278 70.08 61.4611 70.08C62.4851 70.08 63.3118 70.448 63.9411 71.184C64.5811 71.9093 64.9011 72.8907 64.9011 74.128C64.9011 75.3653 64.5811 76.352 63.9411 77.088C63.3118 77.824 62.4851 78.192 61.4611 78.192ZM61.1571 77.12C61.9145 77.12 62.5171 76.8427 62.9651 76.288C63.4131 75.7227 63.6371 75.0027 63.6371 74.128C63.6371 73.2533 63.4131 72.5387 62.9651 71.984C62.5171 71.4293 61.9145 71.152 61.1571 71.152C60.6985 71.152 60.2505 71.2747 59.8131 71.52C59.3865 71.7547 59.0665 72.0427 58.8531 72.384V75.872C59.0665 76.224 59.3865 76.5227 59.8131 76.768C60.2505 77.0027 60.6985 77.12 61.1571 77.12ZM70.3134 78.192C69.1507 78.192 68.2014 77.8187 67.4654 77.072C66.7294 76.3147 66.3614 75.3333 66.3614 74.128C66.3614 72.9973 66.724 72.0427 67.4494 71.264C68.1747 70.4747 69.0814 70.08 70.1694 70.08C71.3107 70.08 72.212 70.4747 72.8734 71.264C73.5454 72.0427 73.8814 73.0293 73.8814 74.224V74.528H67.6414C67.6947 75.2853 67.9667 75.92 68.4574 76.432C68.9587 76.944 69.6094 77.2 70.4094 77.2C71.3694 77.2 72.1694 76.8693 72.8094 76.208L73.3854 76.992C72.564 77.792 71.54 78.192 70.3134 78.192ZM72.6974 73.632C72.6867 72.9813 72.4627 72.3947 72.0254 71.872C71.588 71.3387 70.964 71.072 70.1534 71.072C69.3854 71.072 68.7774 71.3333 68.3294 71.856C67.892 72.3787 67.6574 72.9707 67.6254 73.632H72.6974ZM77.025 78H75.825V70.272H77.025V71.504C77.761 70.5653 78.6197 70.096 79.601 70.096V71.328C79.409 71.3067 79.2543 71.296 79.137 71.296C78.7637 71.296 78.3637 71.424 77.937 71.68C77.5103 71.9253 77.2063 72.208 77.025 72.528V78ZM87.2503 77.024C86.5569 77.8027 85.6343 78.192 84.4823 78.192C83.3303 78.192 82.4023 77.8027 81.6983 77.024C81.0049 76.2453 80.6583 75.28 80.6583 74.128C80.6583 72.976 81.0049 72.016 81.6983 71.248C82.4023 70.4693 83.3303 70.08 84.4823 70.08C85.6343 70.08 86.5569 70.4693 87.2503 71.248C87.9543 72.016 88.3063 72.976 88.3063 74.128C88.3063 75.28 87.9543 76.2453 87.2503 77.024ZM82.6103 76.256C83.0689 76.832 83.6929 77.12 84.4823 77.12C85.2716 77.12 85.8956 76.832 86.3543 76.256C86.8129 75.6693 87.0423 74.96 87.0423 74.128C87.0423 73.296 86.8129 72.592 86.3543 72.016C85.8956 71.44 85.2716 71.152 84.4823 71.152C83.6929 71.152 83.0689 71.44 82.6103 72.016C82.1516 72.592 81.9223 73.296 81.9223 74.128C81.9223 74.96 82.1516 75.6693 82.6103 76.256ZM101.203 78H100.003V76.848C99.3418 77.744 98.4725 78.192 97.3951 78.192C96.3711 78.192 95.5391 77.8293 94.8991 77.104C94.2698 76.368 93.9551 75.3813 93.9551 74.144C93.9551 72.9173 94.2751 71.936 94.9151 71.2C95.5551 70.4533 96.3818 70.08 97.3951 70.08C98.4618 70.08 99.3311 70.5333 100.003 71.44V67.328H101.203V78ZM97.6991 77.12C98.1578 77.12 98.6005 77.0027 99.0271 76.768C99.4645 76.5227 99.7898 76.2293 100.003 75.888V72.4C99.7898 72.048 99.4645 71.7547 99.0271 71.52C98.6005 71.2747 98.1578 71.152 97.6991 71.152C96.9311 71.152 96.3231 71.4347 95.8751 72C95.4271 72.5547 95.2031 73.2693 95.2031 74.144C95.2031 75.0187 95.4271 75.7333 95.8751 76.288C96.3231 76.8427 96.9311 77.12 97.6991 77.12ZM104.774 68.944C104.625 69.0933 104.438 69.168 104.214 69.168C103.99 69.168 103.798 69.0933 103.638 68.944C103.478 68.784 103.398 68.592 103.398 68.368C103.398 68.144 103.478 67.952 103.638 67.792C103.798 67.632 103.99 67.552 104.214 67.552C104.438 67.552 104.625 67.632 104.774 67.792C104.934 67.952 105.014 68.144 105.014 68.368C105.014 68.592 104.934 68.784 104.774 68.944ZM104.806 78H103.606V70.272H104.806V78ZM109.664 78.192C108.363 78.192 107.323 77.7867 106.544 76.976L107.152 76.112C107.419 76.4213 107.781 76.6827 108.24 76.896C108.709 77.1093 109.195 77.216 109.696 77.216C110.272 77.216 110.72 77.0933 111.04 76.848C111.371 76.6027 111.536 76.2827 111.536 75.888C111.536 75.5467 111.371 75.28 111.04 75.088C110.709 74.8853 110.309 74.736 109.84 74.64C109.371 74.5333 108.901 74.416 108.432 74.288C107.973 74.1493 107.579 73.92 107.248 73.6C106.917 73.2693 106.752 72.8373 106.752 72.304C106.752 71.6747 107.008 71.1467 107.52 70.72C108.032 70.2933 108.731 70.08 109.616 70.08C110.8 70.08 111.755 70.4533 112.48 71.2L111.92 72.032C111.376 71.3813 110.608 71.056 109.616 71.056C109.093 71.056 108.677 71.1733 108.368 71.408C108.059 71.632 107.904 71.92 107.904 72.272C107.904 72.528 108.021 72.7413 108.256 72.912C108.491 73.0827 108.784 73.2053 109.136 73.28C109.499 73.3547 109.883 73.4507 110.288 73.568C110.704 73.6853 111.088 73.8187 111.44 73.968C111.803 74.1067 112.101 74.3413 112.336 74.672C112.571 74.992 112.688 75.3867 112.688 75.856C112.688 76.5387 112.421 77.0987 111.888 77.536C111.365 77.9733 110.624 78.192 109.664 78.192ZM125.166 78H123.966V72.752C123.966 71.6853 123.491 71.152 122.542 71.152C122.158 71.152 121.774 71.2693 121.39 71.504C121.006 71.728 120.707 72.0053 120.494 72.336V78H119.294V72.752C119.294 71.6853 118.819 71.152 117.87 71.152C117.496 71.152 117.118 71.2693 116.734 71.504C116.36 71.7387 116.062 72.0213 115.838 72.352V78H114.638V70.272H115.838V71.392C116.04 71.0827 116.376 70.7893 116.846 70.512C117.326 70.224 117.827 70.08 118.35 70.08C118.904 70.08 119.358 70.2133 119.71 70.48C120.062 70.7467 120.296 71.0933 120.414 71.52C120.648 71.136 121.006 70.8 121.486 70.512C121.966 70.224 122.472 70.08 123.006 70.08C124.446 70.08 125.166 70.8587 125.166 72.416V78ZM128.727 68.944C128.578 69.0933 128.391 69.168 128.167 69.168C127.943 69.168 127.751 69.0933 127.591 68.944C127.431 68.784 127.351 68.592 127.351 68.368C127.351 68.144 127.431 67.952 127.591 67.792C127.751 67.632 127.943 67.552 128.167 67.552C128.391 67.552 128.578 67.632 128.727 67.792C128.887 67.952 128.967 68.144 128.967 68.368C128.967 68.592 128.887 68.784 128.727 68.944ZM128.759 78H127.559V70.272H128.759V78ZM137.569 78H136.385V72.944C136.385 72.2933 136.236 71.8347 135.937 71.568C135.638 71.2907 135.206 71.152 134.641 71.152C134.193 71.152 133.761 71.2693 133.345 71.504C132.929 71.7387 132.598 72.0213 132.353 72.352V78H131.153V70.272H132.353V71.392C132.652 71.0293 133.052 70.72 133.553 70.464C134.054 70.208 134.577 70.08 135.121 70.08C136.753 70.08 137.569 70.912 137.569 72.576V78ZM146.397 78H145.197V76.912C144.877 77.2747 144.472 77.5787 143.981 77.824C143.501 78.0693 142.989 78.192 142.445 78.192C140.803 78.192 139.981 77.3707 139.981 75.728V70.272H141.181V75.36C141.181 76 141.331 76.4533 141.629 76.72C141.928 76.9867 142.36 77.12 142.925 77.12C143.373 77.12 143.805 77.008 144.221 76.784C144.637 76.56 144.963 76.2827 145.197 75.952V70.272H146.397V78ZM151.674 81.136C150.479 81.136 149.492 80.7467 148.714 79.968L149.322 79.104C149.876 79.7973 150.66 80.144 151.674 80.144C152.399 80.144 152.97 79.9467 153.386 79.552C153.802 79.1573 154.01 78.608 154.01 77.904V76.752C153.69 77.1147 153.284 77.4187 152.794 77.664C152.314 77.9093 151.802 78.032 151.258 78.032C149.615 78.032 148.794 77.2107 148.794 75.568V70.272H149.994V75.2C149.994 75.8507 150.143 76.3093 150.442 76.576C150.74 76.8427 151.172 76.976 151.738 76.976C152.175 76.976 152.602 76.864 153.018 76.64C153.444 76.4053 153.775 76.128 154.01 75.808V70.272H155.21V77.904C155.21 78.9493 154.874 79.7493 154.202 80.304C153.53 80.8587 152.687 81.136 151.674 81.136ZM163.75 77.024C163.057 77.8027 162.134 78.192 160.982 78.192C159.83 78.192 158.902 77.8027 158.198 77.024C157.505 76.2453 157.158 75.28 157.158 74.128C157.158 72.976 157.505 72.016 158.198 71.248C158.902 70.4693 159.83 70.08 160.982 70.08C162.134 70.08 163.057 70.4693 163.75 71.248C164.454 72.016 164.806 72.976 164.806 74.128C164.806 75.28 164.454 76.2453 163.75 77.024ZM159.11 76.256C159.569 76.832 160.193 77.12 160.982 77.12C161.772 77.12 162.396 76.832 162.854 76.256C163.313 75.6693 163.542 74.96 163.542 74.128C163.542 73.296 163.313 72.592 162.854 72.016C162.396 71.44 161.772 71.152 160.982 71.152C160.193 71.152 159.569 71.44 159.11 72.016C158.652 72.592 158.422 73.296 158.422 74.128C158.422 74.96 158.652 75.6693 159.11 76.256ZM163.542 66.8L160.838 69.104H159.926L162.294 66.8H163.542ZM174.407 78.192C173.244 78.192 172.295 77.8187 171.559 77.072C170.823 76.3147 170.455 75.3333 170.455 74.128C170.455 72.9973 170.818 72.0427 171.543 71.264C172.268 70.4747 173.175 70.08 174.263 70.08C175.404 70.08 176.306 70.4747 176.967 71.264C177.639 72.0427 177.975 73.0293 177.975 74.224V74.528H171.735C171.788 75.2853 172.06 75.92 172.551 76.432C173.052 76.944 173.703 77.2 174.503 77.2C175.463 77.2 176.263 76.8693 176.903 76.208L177.479 76.992C176.658 77.792 175.634 78.192 174.407 78.192ZM176.791 73.632C176.78 72.9813 176.556 72.3947 176.119 71.872C175.682 71.3387 175.058 71.072 174.247 71.072C173.479 71.072 172.871 71.3333 172.423 71.856C171.986 72.3787 171.751 72.9707 171.719 73.632H176.791ZM186.335 78H185.151V72.944C185.151 72.2933 185.001 71.8347 184.703 71.568C184.404 71.2907 183.972 71.152 183.407 71.152C182.959 71.152 182.527 71.2693 182.111 71.504C181.695 71.7387 181.364 72.0213 181.119 72.352V78H179.919V70.272H181.119V71.392C181.417 71.0293 181.817 70.72 182.319 70.464C182.82 70.208 183.343 70.08 183.887 70.08C185.519 70.08 186.335 70.912 186.335 72.576V78ZM199.88 78H192.552V76.928C194.738 75.2213 196.274 73.904 197.16 72.976C198.045 72.048 198.488 71.1573 198.488 70.304C198.488 69.664 198.264 69.1787 197.816 68.848C197.378 68.5173 196.856 68.352 196.248 68.352C195.021 68.352 194.056 68.8 193.352 69.696L192.536 68.848C192.941 68.3147 193.469 67.904 194.12 67.616C194.781 67.3173 195.49 67.168 196.248 67.168C197.218 67.168 198.056 67.44 198.76 67.984C199.474 68.528 199.832 69.3013 199.832 70.304C199.832 71.296 199.405 72.288 198.552 73.28C197.698 74.2613 196.397 75.44 194.648 76.816H199.88V78ZM205.99 78.192C205.286 78.192 204.662 78.032 204.118 77.712C203.584 77.3813 203.158 76.944 202.838 76.4C202.528 75.856 202.294 75.2693 202.134 74.64C201.984 74.0107 201.91 73.3547 201.91 72.672C201.91 71.9893 201.984 71.3333 202.134 70.704C202.294 70.0747 202.528 69.4933 202.838 68.96C203.158 68.416 203.584 67.984 204.118 67.664C204.662 67.3333 205.286 67.168 205.99 67.168C206.683 67.168 207.302 67.3333 207.846 67.664C208.39 67.984 208.816 68.416 209.126 68.96C209.446 69.4933 209.68 70.0747 209.83 70.704C209.99 71.3333 210.07 71.9893 210.07 72.672C210.07 73.3547 209.99 74.0107 209.83 74.64C209.68 75.2693 209.446 75.856 209.126 76.4C208.816 76.944 208.39 77.3813 207.846 77.712C207.302 78.032 206.683 78.192 205.99 78.192ZM204.39 76.352C204.816 76.7893 205.35 77.008 205.99 77.008C206.63 77.008 207.163 76.7893 207.59 76.352C208.016 75.904 208.31 75.3707 208.47 74.752C208.63 74.1333 208.71 73.44 208.71 72.672C208.71 71.904 208.63 71.2107 208.47 70.592C208.31 69.9733 208.016 69.4453 207.59 69.008C207.163 68.5707 206.63 68.352 205.99 68.352C205.35 68.352 204.816 68.5707 204.39 69.008C203.963 69.4453 203.67 69.9733 203.51 70.592C203.35 71.2107 203.27 71.904 203.27 72.672C203.27 73.44 203.35 74.1333 203.51 74.752C203.67 75.3707 203.963 75.904 204.39 76.352ZM219.083 78H211.755V76.928C213.941 75.2213 215.477 73.904 216.363 72.976C217.248 72.048 217.691 71.1573 217.691 70.304C217.691 69.664 217.467 69.1787 217.019 68.848C216.581 68.5173 216.059 68.352 215.451 68.352C214.224 68.352 213.259 68.8 212.555 69.696L211.739 68.848C212.144 68.3147 212.672 67.904 213.323 67.616C213.984 67.3173 214.693 67.168 215.451 67.168C216.421 67.168 217.259 67.44 217.963 67.984C218.677 68.528 219.035 69.3013 219.035 70.304C219.035 71.296 218.608 72.288 217.755 73.28C216.901 74.2613 215.6 75.44 213.851 76.816H219.083V78ZM225.193 78.192C224.489 78.192 223.865 78.032 223.321 77.712C222.788 77.3813 222.361 76.944 222.041 76.4C221.732 75.856 221.497 75.2693 221.337 74.64C221.188 74.0107 221.113 73.3547 221.113 72.672C221.113 71.9893 221.188 71.3333 221.337 70.704C221.497 70.0747 221.732 69.4933 222.041 68.96C222.361 68.416 222.788 67.984 223.321 67.664C223.865 67.3333 224.489 67.168 225.193 67.168C225.886 67.168 226.505 67.3333 227.049 67.664C227.593 67.984 228.02 68.416 228.329 68.96C228.649 69.4933 228.884 70.0747 229.033 70.704C229.193 71.3333 229.273 71.9893 229.273 72.672C229.273 73.3547 229.193 74.0107 229.033 74.64C228.884 75.2693 228.649 75.856 228.329 76.4C228.02 76.944 227.593 77.3813 227.049 77.712C226.505 78.032 225.886 78.192 225.193 78.192ZM223.593 76.352C224.02 76.7893 224.553 77.008 225.193 77.008C225.833 77.008 226.366 76.7893 226.793 76.352C227.22 75.904 227.513 75.3707 227.673 74.752C227.833 74.1333 227.913 73.44 227.913 72.672C227.913 71.904 227.833 71.2107 227.673 70.592C227.513 69.9733 227.22 69.4453 226.793 69.008C226.366 68.5707 225.833 68.352 225.193 68.352C224.553 68.352 224.02 68.5707 223.593 69.008C223.166 69.4453 222.873 69.9733 222.713 70.592C222.553 71.2107 222.473 71.904 222.473 72.672C222.473 73.44 222.553 74.1333 222.713 74.752C222.873 75.3707 223.166 75.904 223.593 76.352ZM232.058 77.904C231.887 78.0747 231.679 78.16 231.434 78.16C231.188 78.16 230.98 78.0747 230.81 77.904C230.639 77.7333 230.554 77.5253 230.554 77.28C230.554 77.0347 230.639 76.8267 230.81 76.656C230.98 76.4853 231.188 76.4 231.434 76.4C231.679 76.4 231.887 76.4853 232.058 76.656C232.228 76.8267 232.314 77.0347 232.314 77.28C232.314 77.5253 232.228 77.7333 232.058 77.904Z" fill="#1D5556"/>
<mask id="path-2-inside-1_1850_959" fill="white">
<path fill-rule="evenodd" clip-rule="evenodd" d="M396 93C398.761 93 401 90.7615 401 88V4.99999C401 2.23857 398.761 -7.4337e-06 396 -7.19228e-06L4.99999 2.699e-05C2.23858 2.72314e-05 -7.93462e-06 2.23861 -7.69321e-06 5.00003L0 88.0001C0 90.7615 2.23856 93.0001 5 93.0001H20V107L36.8 93.0001L396 93Z"/>
</mask>
<path d="M396 93V91V93ZM396 -7.19228e-06V1.99999V-7.19228e-06ZM4.99999 2.699e-05V-1.99997V2.699e-05ZM-7.69321e-06 5.00003H-2.00001H-7.69321e-06ZM0 88.0001H2H0ZM20 93.0001H22V91.0001H20V93.0001ZM20 107H18V111.27L21.2804 108.536L20 107ZM36.8 93.0001V91.0001H36.0759L35.5196 91.4636L36.8 93.0001ZM399 88C399 89.6569 397.657 91 396 91V95C399.866 95 403 91.866 403 88H399ZM399 4.99999V88H403V4.99999H399ZM396 1.99999C397.657 1.99999 399 3.34314 399 4.99999H403C403 1.134 399.866 -2.00001 396 -2.00001V1.99999ZM4.99999 2.00003L396 1.99999V-2.00001L4.99999 -1.99997V2.00003ZM1.99999 5.00003C1.99999 3.34318 3.34315 2.00003 4.99999 2.00003V-1.99997C1.13401 -1.99997 -2.00001 1.13403 -2.00001 5.00003H1.99999ZM2 88.0001L1.99999 5.00003H-2.00001L-2 88.0001H2ZM5 91.0001C3.34313 91.0001 2 89.6569 2 88.0001H-2C-2 91.8661 1.13398 95.0001 5 95.0001V91.0001ZM20 91.0001H5V95.0001H20V91.0001ZM22 107V93.0001H18V107H22ZM35.5196 91.4636L18.7196 105.464L21.2804 108.536L38.0803 94.5365L35.5196 91.4636ZM396 91L36.8 91.0001V95.0001L396 95V91Z" fill="#1D5556" mask="url(#path-2-inside-1_1850_959)"/>
</svg>
