<svg width="280" height="128" viewBox="0 0 280 128" fill="none" xmlns="http://www.w3.org/2000/svg">
<path d="M22.75 36H18.751L26.563 18.516H15.837V15.323H30.748V17.834L22.75 36ZM40.055 36.372C38.319 36.372 36.769 36.062 35.405 35.442C34.0617 34.822 33.0077 34.016 32.243 33.024L34.227 30.637C34.8884 31.4223 35.7254 32.0423 36.738 32.497C37.7714 32.931 38.8357 33.148 39.931 33.148C41.2744 33.148 42.3284 32.8587 43.093 32.28C43.8577 31.7013 44.24 30.9367 44.24 29.986C44.24 28.0227 42.7107 27.041 39.652 27.041C38.4947 27.041 37.7094 27.0617 37.296 27.103V23.817C37.5234 23.8377 38.3087 23.848 39.652 23.848C40.9334 23.848 41.9667 23.6207 42.752 23.166C43.5374 22.7113 43.93 22.0293 43.93 21.12C43.93 20.2107 43.527 19.508 42.721 19.012C41.9357 18.4953 40.9437 18.237 39.745 18.237C37.6577 18.237 35.87 19.0017 34.382 20.531L32.522 18.268C34.382 16.098 36.9034 15.013 40.086 15.013C42.3387 15.013 44.1367 15.509 45.48 16.501C46.844 17.493 47.526 18.8467 47.526 20.562C47.526 21.864 47.0714 22.9387 46.162 23.786C45.2734 24.6127 44.24 25.119 43.062 25.305C44.24 25.429 45.3354 25.9353 46.348 26.824C47.3607 27.7127 47.867 28.8803 47.867 30.327C47.867 32.125 47.154 33.582 45.728 34.698C44.3227 35.814 42.4317 36.372 40.055 36.372ZM73.195 36H69.94V33.954C68.7 35.566 67.0983 36.372 65.135 36.372C63.1923 36.372 61.601 35.6693 60.361 34.264C59.121 32.8587 58.501 30.9367 58.501 28.498C58.501 26.1213 59.121 24.22 60.361 22.794C61.601 21.368 63.1923 20.655 65.135 20.655C67.119 20.655 68.7207 21.4713 69.94 23.104V21.027H73.195V36ZM66.096 33.489C66.84 33.489 67.5737 33.2927 68.297 32.9C69.0203 32.5073 69.568 32.032 69.94 31.474V25.553C69.568 24.995 69.0203 24.5197 68.297 24.127C67.5737 23.7343 66.84 23.538 66.096 23.538C64.8147 23.538 63.7813 24.003 62.996 24.933C62.2313 25.8423 61.849 27.0307 61.849 28.498C61.849 29.9653 62.2313 31.164 62.996 32.094C63.7813 33.024 64.8147 33.489 66.096 33.489ZM90.9597 36H87.7047V26.638C87.7047 25.522 87.436 24.7263 86.8987 24.251C86.382 23.7757 85.638 23.538 84.6667 23.538C83.902 23.538 83.1787 23.7343 82.4967 24.127C81.8147 24.499 81.2567 24.964 80.8227 25.522V36H77.5677V21.027H80.8227V23.042C81.3807 22.3807 82.1247 21.8227 83.0547 21.368C84.0054 20.8927 85.0284 20.655 86.1237 20.655C87.715 20.655 88.9137 21.0683 89.7197 21.895C90.5464 22.7217 90.9597 23.91 90.9597 25.46V36ZM85.9067 18.826C85.2867 18.826 84.7597 18.6297 84.3257 18.237C83.9124 17.8237 83.5404 17.4207 83.2097 17.028C82.8997 16.6147 82.569 16.408 82.2177 16.408C81.3704 16.408 80.9467 17.152 80.9467 18.64H79.1487C79.1487 17.3587 79.4174 16.346 79.9547 15.602C80.5127 14.858 81.3084 14.486 82.3417 14.486C82.7344 14.486 83.0857 14.5687 83.3957 14.734C83.7264 14.8993 83.995 15.106 84.2017 15.354C84.4084 15.5813 84.5944 15.819 84.7597 16.067C84.9457 16.2943 85.142 16.4907 85.3487 16.656C85.576 16.8213 85.8034 16.904 86.0307 16.904C86.4027 16.904 86.7127 16.718 86.9607 16.346C87.2087 15.974 87.3327 15.416 87.3327 14.672H89.0997C89.0997 15.9533 88.8207 16.966 88.2627 17.71C87.7254 18.454 86.94 18.826 85.9067 18.826ZM107.401 34.109C105.995 35.6177 104.135 36.372 101.821 36.372C99.5062 36.372 97.6462 35.6177 96.2408 34.109C94.8355 32.5797 94.1328 30.7093 94.1328 28.498C94.1328 26.266 94.8355 24.406 96.2408 22.918C97.6462 21.4093 99.5062 20.655 101.821 20.655C104.135 20.655 105.995 21.4093 107.401 22.918C108.806 24.406 109.509 26.266 109.509 28.498C109.509 30.7093 108.806 32.5797 107.401 34.109ZM101.821 33.489C103.164 33.489 104.218 33.0137 104.983 32.063C105.747 31.0917 106.13 29.9033 106.13 28.498C106.13 27.1133 105.747 25.9457 104.983 24.995C104.218 24.0237 103.164 23.538 101.821 23.538C100.498 23.538 99.4442 24.0237 98.6588 24.995C97.8942 25.9457 97.5118 27.1133 97.5118 28.498C97.5118 29.9033 97.8942 31.0917 98.6588 32.063C99.4442 33.0137 100.498 33.489 101.821 33.489ZM117.979 36.372C115.313 36.372 113.174 35.5867 111.562 34.016L113.05 31.691C113.608 32.2697 114.352 32.7657 115.282 33.179C116.232 33.5717 117.173 33.768 118.103 33.768C119.053 33.768 119.787 33.5923 120.304 33.241C120.82 32.869 121.079 32.3833 121.079 31.784C121.079 31.2467 120.769 30.8333 120.149 30.544C119.529 30.234 118.774 29.9963 117.886 29.831C116.997 29.645 116.108 29.428 115.22 29.18C114.331 28.9113 113.577 28.4463 112.957 27.785C112.337 27.1237 112.027 26.2557 112.027 25.181C112.027 23.8997 112.554 22.825 113.608 21.957C114.662 21.089 116.098 20.655 117.917 20.655C120.211 20.655 122.143 21.3473 123.714 22.732L122.35 25.026C121.254 23.8273 119.777 23.228 117.917 23.228C117.09 23.228 116.418 23.4037 115.902 23.755C115.406 24.1063 115.158 24.5507 115.158 25.088C115.158 25.5633 115.468 25.9353 116.088 26.204C116.708 26.4727 117.462 26.7 118.351 26.886C119.239 27.0513 120.128 27.2683 121.017 27.537C121.905 27.8057 122.66 28.2913 123.28 28.994C123.9 29.6967 124.21 30.5957 124.21 31.691C124.21 33.0757 123.662 34.202 122.567 35.07C121.471 35.938 119.942 36.372 117.979 36.372ZM134.16 36.192C132.997 36.192 132.048 35.8187 131.312 35.072C130.576 34.3147 130.208 33.3333 130.208 32.128C130.208 30.9973 130.571 30.0427 131.296 29.264C132.021 28.4747 132.928 28.08 134.016 28.08C135.157 28.08 136.059 28.4747 136.72 29.264C137.392 30.0427 137.728 31.0293 137.728 32.224V32.528H131.488C131.541 33.2853 131.813 33.92 132.304 34.432C132.805 34.944 133.456 35.2 134.256 35.2C135.216 35.2 136.016 34.8693 136.656 34.208L137.232 34.992C136.411 35.792 135.387 36.192 134.16 36.192ZM136.544 31.632C136.533 30.9813 136.309 30.3947 135.872 29.872C135.435 29.3387 134.811 29.072 134 29.072C133.232 29.072 132.624 29.3333 132.176 29.856C131.739 30.3787 131.504 30.9707 131.472 31.632H136.544ZM142.136 36.192C140.834 36.192 139.794 35.7867 139.016 34.976L139.624 34.112C139.89 34.4213 140.253 34.6827 140.712 34.896C141.181 35.1093 141.666 35.216 142.168 35.216C142.744 35.216 143.192 35.0933 143.512 34.848C143.842 34.6027 144.008 34.2827 144.008 33.888C144.008 33.5467 143.842 33.28 143.512 33.088C143.181 32.8853 142.781 32.736 142.312 32.64C141.842 32.5333 141.373 32.416 140.904 32.288C140.445 32.1493 140.05 31.92 139.72 31.6C139.389 31.2693 139.224 30.8373 139.224 30.304C139.224 29.6747 139.48 29.1467 139.992 28.72C140.504 28.2933 141.202 28.08 142.088 28.08C143.272 28.08 144.226 28.4533 144.952 29.2L144.392 30.032C143.848 29.3813 143.08 29.056 142.088 29.056C141.565 29.056 141.149 29.1733 140.84 29.408C140.53 29.632 140.376 29.92 140.376 30.272C140.376 30.528 140.493 30.7413 140.728 30.912C140.962 31.0827 141.256 31.2053 141.608 31.28C141.97 31.3547 142.354 31.4507 142.76 31.568C143.176 31.6853 143.56 31.8187 143.912 31.968C144.274 32.1067 144.573 32.3413 144.808 32.672C145.042 32.992 145.16 33.3867 145.16 33.856C145.16 34.5387 144.893 35.0987 144.36 35.536C143.837 35.9733 143.096 36.192 142.136 36.192ZM152.962 36.192C152.396 36.192 151.97 36.0373 151.682 35.728C151.394 35.4187 151.25 34.9707 151.25 34.384V25.328H152.45V34.128C152.45 34.4267 152.514 34.6667 152.642 34.848C152.78 35.0293 152.978 35.12 153.234 35.12C153.586 35.12 153.852 35.008 154.034 34.784L154.402 35.696C154.039 36.0267 153.559 36.192 152.962 36.192ZM162.347 36H161.147V34.848C160.485 35.744 159.616 36.192 158.539 36.192C157.515 36.192 156.683 35.8293 156.043 35.104C155.413 34.368 155.099 33.3813 155.099 32.144C155.099 30.9173 155.419 29.936 156.059 29.2C156.699 28.4533 157.525 28.08 158.539 28.08C159.605 28.08 160.475 28.5333 161.147 29.44V28.272H162.347V36ZM158.843 35.12C159.301 35.12 159.744 35.0027 160.171 34.768C160.608 34.5227 160.933 34.2293 161.147 33.888V30.4C160.933 30.048 160.608 29.7547 160.171 29.52C159.744 29.2747 159.301 29.152 158.843 29.152C158.075 29.152 157.467 29.4347 157.019 30C156.571 30.5547 156.347 31.2693 156.347 32.144C156.347 33.0187 156.571 33.7333 157.019 34.288C157.467 34.8427 158.075 35.12 158.843 35.12ZM172.394 36.192C171.232 36.192 170.282 35.8187 169.546 35.072C168.81 34.3147 168.442 33.3333 168.442 32.128C168.442 30.9973 168.805 30.0427 169.53 29.264C170.256 28.4747 171.162 28.08 172.25 28.08C173.392 28.08 174.293 28.4747 174.954 29.264C175.626 30.0427 175.962 31.0293 175.962 32.224V32.528H169.722C169.776 33.2853 170.048 33.92 170.538 34.432C171.04 34.944 171.69 35.2 172.49 35.2C173.45 35.2 174.25 34.8693 174.89 34.208L175.466 34.992C174.645 35.792 173.621 36.192 172.394 36.192ZM174.778 31.632C174.768 30.9813 174.544 30.3947 174.106 29.872C173.669 29.3387 173.045 29.072 172.234 29.072C171.466 29.072 170.858 29.3333 170.41 29.856C169.973 30.3787 169.738 30.9707 169.706 31.632H174.778ZM184.306 36H182.93L180.594 32.832L178.274 36H176.898L179.858 32.032L177.058 28.272H178.45L180.594 31.216L182.754 28.272H184.13L181.33 32.032L184.306 36ZM189.511 36.192C188.455 36.192 187.586 35.7387 186.903 34.832V38.944H185.703V28.272H186.903V29.424C187.191 29.0187 187.564 28.6933 188.023 28.448C188.482 28.2027 188.978 28.08 189.511 28.08C190.535 28.08 191.362 28.448 191.991 29.184C192.631 29.9093 192.951 30.8907 192.951 32.128C192.951 33.3653 192.631 34.352 191.991 35.088C191.362 35.824 190.535 36.192 189.511 36.192ZM189.207 35.12C189.964 35.12 190.567 34.8427 191.015 34.288C191.463 33.7227 191.687 33.0027 191.687 32.128C191.687 31.2533 191.463 30.5387 191.015 29.984C190.567 29.4293 189.964 29.152 189.207 29.152C188.748 29.152 188.3 29.2747 187.863 29.52C187.436 29.7547 187.116 30.0427 186.903 30.384V33.872C187.116 34.224 187.436 34.5227 187.863 34.768C188.3 35.0027 188.748 35.12 189.207 35.12ZM198.363 36.192C197.201 36.192 196.251 35.8187 195.515 35.072C194.779 34.3147 194.411 33.3333 194.411 32.128C194.411 30.9973 194.774 30.0427 195.499 29.264C196.225 28.4747 197.131 28.08 198.219 28.08C199.361 28.08 200.262 28.4747 200.923 29.264C201.595 30.0427 201.931 31.0293 201.931 32.224V32.528H195.691C195.745 33.2853 196.017 33.92 196.507 34.432C197.009 34.944 197.659 35.2 198.459 35.2C199.419 35.2 200.219 34.8693 200.859 34.208L201.435 34.992C200.614 35.792 199.59 36.192 198.363 36.192ZM200.747 31.632C200.737 30.9813 200.513 30.3947 200.075 29.872C199.638 29.3387 199.014 29.072 198.203 29.072C197.435 29.072 196.827 29.3333 196.379 29.856C195.942 30.3787 195.707 30.9707 195.675 31.632H200.747ZM207.283 36.192C206.141 36.192 205.213 35.808 204.499 35.04C203.784 34.2613 203.427 33.2907 203.427 32.128C203.427 30.9653 203.784 30 204.499 29.232C205.213 28.464 206.141 28.08 207.283 28.08C208.477 28.08 209.421 28.528 210.115 29.424L209.315 30.144C208.835 29.4827 208.179 29.152 207.347 29.152C206.547 29.152 205.901 29.4347 205.411 30C204.92 30.5547 204.675 31.264 204.675 32.128C204.675 33.0027 204.92 33.7227 205.411 34.288C205.901 34.8427 206.547 35.12 207.347 35.12C208.157 35.12 208.813 34.784 209.315 34.112L210.115 34.848C209.421 35.744 208.477 36.192 207.283 36.192ZM213.78 36.192C212.628 36.192 212.052 35.5893 212.052 34.384V29.328H210.772V28.272H212.052V26.16H213.268V28.272H214.836V29.328H213.268V34.128C213.268 34.4267 213.332 34.6667 213.46 34.848C213.599 35.0293 213.791 35.12 214.036 35.12C214.378 35.12 214.65 35.008 214.852 34.784L215.204 35.696C214.852 36.0267 214.378 36.192 213.78 36.192ZM223.315 36H222.115V34.848C221.454 35.744 220.585 36.192 219.507 36.192C218.483 36.192 217.651 35.8293 217.011 35.104C216.382 34.368 216.067 33.3813 216.067 32.144C216.067 30.9173 216.387 29.936 217.027 29.2C217.667 28.4533 218.494 28.08 219.507 28.08C220.574 28.08 221.443 28.5333 222.115 29.44V28.272H223.315V36ZM219.811 35.12C220.27 35.12 220.713 35.0027 221.139 34.768C221.577 34.5227 221.902 34.2293 222.115 33.888V30.4C221.902 30.048 221.577 29.7547 221.139 29.52C220.713 29.2747 220.27 29.152 219.811 29.152C219.043 29.152 218.435 29.4347 217.987 30C217.539 30.5547 217.315 31.2693 217.315 32.144C217.315 33.0187 217.539 33.7333 217.987 34.288C218.435 34.8427 219.043 35.12 219.811 35.12ZM227.687 36.192C226.535 36.192 225.959 35.5893 225.959 34.384V29.328H224.679V28.272H225.959V26.16H227.175V28.272H228.743V29.328H227.175V34.128C227.175 34.4267 227.239 34.6667 227.367 34.848C227.505 35.0293 227.697 35.12 227.943 35.12C228.284 35.12 228.556 35.008 228.759 34.784L229.111 35.696C228.759 36.0267 228.284 36.192 227.687 36.192ZM231.59 26.944C231.44 27.0933 231.254 27.168 231.03 27.168C230.806 27.168 230.614 27.0933 230.454 26.944C230.294 26.784 230.214 26.592 230.214 26.368C230.214 26.144 230.294 25.952 230.454 25.792C230.614 25.632 230.806 25.552 231.03 25.552C231.254 25.552 231.44 25.632 231.59 25.792C231.75 25.952 231.83 26.144 231.83 26.368C231.83 26.592 231.75 26.784 231.59 26.944ZM231.622 36H230.422V28.272H231.622V36ZM237.391 36H236.079L232.863 28.272H234.175L236.735 34.608L239.311 28.272H240.607L237.391 36ZM248.659 36H247.459V34.848C246.798 35.744 245.929 36.192 244.851 36.192C243.827 36.192 242.995 35.8293 242.355 35.104C241.726 34.368 241.411 33.3813 241.411 32.144C241.411 30.9173 241.731 29.936 242.371 29.2C243.011 28.4533 243.838 28.08 244.851 28.08C245.918 28.08 246.787 28.5333 247.459 29.44V28.272H248.659V36ZM245.155 35.12C245.614 35.12 246.057 35.0027 246.483 34.768C246.921 34.5227 247.246 34.2293 247.459 33.888V30.4C247.246 30.048 246.921 29.7547 246.483 29.52C246.057 29.2747 245.614 29.152 245.155 29.152C244.387 29.152 243.779 29.4347 243.331 30C242.883 30.5547 242.659 31.2693 242.659 32.144C242.659 33.0187 242.883 33.7333 243.331 34.288C243.779 34.8427 244.387 35.12 245.155 35.12ZM23 57H21.8V55.848C21.1387 56.744 20.2693 57.192 19.192 57.192C18.168 57.192 17.336 56.8293 16.696 56.104C16.0667 55.368 15.752 54.3813 15.752 53.144C15.752 51.9173 16.072 50.936 16.712 50.2C17.352 49.4533 18.1787 49.08 19.192 49.08C20.2587 49.08 21.128 49.5333 21.8 50.44V46.328H23V57ZM19.496 56.12C19.9547 56.12 20.3973 56.0027 20.824 55.768C21.2613 55.5227 21.5867 55.2293 21.8 54.888V51.4C21.5867 51.048 21.2613 50.7547 20.824 50.52C20.3973 50.2747 19.9547 50.152 19.496 50.152C18.728 50.152 18.12 50.4347 17.672 51C17.224 51.5547 17 52.2693 17 53.144C17 54.0187 17.224 54.7333 17.672 55.288C18.12 55.8427 18.728 56.12 19.496 56.12ZM28.9071 57.192C27.7445 57.192 26.7951 56.8187 26.0591 56.072C25.3231 55.3147 24.9551 54.3333 24.9551 53.128C24.9551 51.9973 25.3178 51.0427 26.0431 50.264C26.7685 49.4747 27.6751 49.08 28.7631 49.08C29.9045 49.08 30.8058 49.4747 31.4671 50.264C32.1391 51.0427 32.4751 52.0293 32.4751 53.224V53.528H26.2351C26.2885 54.2853 26.5605 54.92 27.0511 55.432C27.5525 55.944 28.2031 56.2 29.0031 56.2C29.9631 56.2 30.7631 55.8693 31.4031 55.208L31.9791 55.992C31.1578 56.792 30.1338 57.192 28.9071 57.192ZM31.2911 52.632C31.2805 51.9813 31.0565 51.3947 30.6191 50.872C30.1818 50.3387 29.5578 50.072 28.7471 50.072C27.9791 50.072 27.3711 50.3333 26.9231 50.856C26.4858 51.3787 26.2511 51.9707 26.2191 52.632H31.2911ZM41.9354 57H40.6234L37.4074 49.272H38.7194L41.2794 55.608L43.8554 49.272H45.1514L41.9354 57ZM47.5711 47.944C47.4218 48.0933 47.2351 48.168 47.0111 48.168C46.7871 48.168 46.5951 48.0933 46.4351 47.944C46.2751 47.784 46.1951 47.592 46.1951 47.368C46.1951 47.144 46.2751 46.952 46.4351 46.792C46.5951 46.632 46.7871 46.552 47.0111 46.552C47.2351 46.552 47.4218 46.632 47.5711 46.792C47.7311 46.952 47.8111 47.144 47.8111 47.368C47.8111 47.592 47.7311 47.784 47.5711 47.944ZM47.6031 57H46.4031V49.272H47.6031V57ZM56.7969 57H55.5969V55.848C54.9355 56.744 54.0662 57.192 52.9889 57.192C51.9649 57.192 51.1329 56.8293 50.4929 56.104C49.8635 55.368 49.5489 54.3813 49.5489 53.144C49.5489 51.9173 49.8689 50.936 50.5089 50.2C51.1489 49.4533 51.9755 49.08 52.9889 49.08C54.0555 49.08 54.9249 49.5333 55.5969 50.44V46.328H56.7969V57ZM53.2929 56.12C53.7515 56.12 54.1942 56.0027 54.6209 55.768C55.0582 55.5227 55.3835 55.2293 55.5969 54.888V51.4C55.3835 51.048 55.0582 50.7547 54.6209 50.52C54.1942 50.2747 53.7515 50.152 53.2929 50.152C52.5249 50.152 51.9169 50.4347 51.4689 51C51.0209 51.5547 50.7969 52.2693 50.7969 53.144C50.7969 54.0187 51.0209 54.7333 51.4689 55.288C51.9169 55.8427 52.5249 56.12 53.2929 56.12ZM66 57H64.8V55.848C64.1387 56.744 63.2693 57.192 62.192 57.192C61.168 57.192 60.336 56.8293 59.696 56.104C59.0667 55.368 58.752 54.3813 58.752 53.144C58.752 51.9173 59.072 50.936 59.712 50.2C60.352 49.4533 61.1787 49.08 62.192 49.08C63.2587 49.08 64.128 49.5333 64.8 50.44V49.272H66V57ZM62.496 56.12C62.9547 56.12 63.3973 56.0027 63.824 55.768C64.2613 55.5227 64.5867 55.2293 64.8 54.888V51.4C64.5867 51.048 64.2613 50.7547 63.824 50.52C63.3973 50.2747 62.9547 50.152 62.496 50.152C61.728 50.152 61.12 50.4347 60.672 51C60.224 51.5547 60 52.2693 60 53.144C60 54.0187 60.224 54.7333 60.672 55.288C61.12 55.8427 61.728 56.12 62.496 56.12ZM79.3438 57H78.1438V55.848C77.4824 56.744 76.6131 57.192 75.5358 57.192C74.5118 57.192 73.6798 56.8293 73.0398 56.104C72.4104 55.368 72.0958 54.3813 72.0958 53.144C72.0958 51.9173 72.4158 50.936 73.0558 50.2C73.6958 49.4533 74.5224 49.08 75.5358 49.08C76.6024 49.08 77.4718 49.5333 78.1438 50.44V49.272H79.3438V57ZM75.8398 56.12C76.2984 56.12 76.7411 56.0027 77.1678 55.768C77.6051 55.5227 77.9304 55.2293 78.1438 54.888V51.4C77.9304 51.048 77.6051 50.7547 77.1678 50.52C76.7411 50.2747 76.2984 50.152 75.8398 50.152C75.0718 50.152 74.4638 50.4347 74.0158 51C73.5678 51.5547 73.3438 52.2693 73.3438 53.144C73.3438 54.0187 73.5678 54.7333 74.0158 55.288C74.4638 55.8427 75.0718 56.12 75.8398 56.12ZM83.4589 57.192C82.8935 57.192 82.4669 57.0373 82.1789 56.728C81.8909 56.4187 81.7469 55.9707 81.7469 55.384V46.328H82.9469V55.128C82.9469 55.4267 83.0109 55.6667 83.1389 55.848C83.2775 56.0293 83.4749 56.12 83.7309 56.12C84.0829 56.12 84.3495 56.008 84.5309 55.784L84.8989 56.696C84.5362 57.0267 84.0562 57.192 83.4589 57.192ZM96.6004 57H95.4164V51.944C95.4164 51.2933 95.267 50.8347 94.9684 50.568C94.6697 50.2907 94.2377 50.152 93.6724 50.152C93.2244 50.152 92.7924 50.2693 92.3764 50.504C91.9604 50.7387 91.6297 51.0213 91.3844 51.352V57H90.1844V49.272H91.3844V50.392C91.683 50.0293 92.083 49.72 92.5844 49.464C93.0857 49.208 93.6084 49.08 94.1524 49.08C95.7844 49.08 96.6004 49.912 96.6004 51.576V57ZM105.812 57H104.613V55.848C103.951 56.744 103.082 57.192 102.005 57.192C100.981 57.192 100.149 56.8293 99.5085 56.104C98.8792 55.368 98.5645 54.3813 98.5645 53.144C98.5645 51.9173 98.8845 50.936 99.5245 50.2C100.165 49.4533 100.991 49.08 102.005 49.08C103.071 49.08 103.941 49.5333 104.613 50.44V49.272H105.812V57ZM102.309 56.12C102.767 56.12 103.21 56.0027 103.637 55.768C104.074 55.5227 104.399 55.2293 104.613 54.888V51.4C104.399 51.048 104.074 50.7547 103.637 50.52C103.21 50.2747 102.767 50.152 102.309 50.152C101.541 50.152 100.933 50.4347 100.485 51C100.037 51.5547 99.8125 52.2693 99.8125 53.144C99.8125 54.0187 100.037 54.7333 100.485 55.288C100.933 55.8427 101.541 56.12 102.309 56.12ZM111.624 57.192C110.482 57.192 109.554 56.808 108.84 56.04C108.125 55.2613 107.768 54.2907 107.768 53.128C107.768 51.9653 108.125 51 108.84 50.232C109.554 49.464 110.482 49.08 111.624 49.08C112.818 49.08 113.762 49.528 114.456 50.424L113.656 51.144C113.176 50.4827 112.52 50.152 111.688 50.152C110.888 50.152 110.242 50.4347 109.752 51C109.261 51.5547 109.016 52.264 109.016 53.128C109.016 54.0027 109.261 54.7227 109.752 55.288C110.242 55.8427 110.888 56.12 111.688 56.12C112.498 56.12 113.154 55.784 113.656 55.112L114.456 55.848C113.762 56.744 112.818 57.192 111.624 57.192ZM119.657 57.192C118.494 57.192 117.545 56.8187 116.809 56.072C116.073 55.3147 115.705 54.3333 115.705 53.128C115.705 51.9973 116.068 51.0427 116.793 50.264C117.518 49.4747 118.425 49.08 119.513 49.08C120.654 49.08 121.556 49.4747 122.217 50.264C122.889 51.0427 123.225 52.0293 123.225 53.224V53.528H116.985C117.038 54.2853 117.31 54.92 117.801 55.432C118.302 55.944 118.953 56.2 119.753 56.2C120.713 56.2 121.513 55.8693 122.153 55.208L122.729 55.992C121.908 56.792 120.884 57.192 119.657 57.192ZM122.041 52.632C122.03 51.9813 121.806 51.3947 121.369 50.872C120.932 50.3387 120.308 50.072 119.497 50.072C118.729 50.072 118.121 50.3333 117.673 50.856C117.236 51.3787 117.001 51.9707 116.969 52.632H122.041ZM126.369 57H125.169V49.272H126.369V50.504C127.105 49.5653 127.963 49.096 128.945 49.096V50.328C128.753 50.3067 128.598 50.296 128.481 50.296C128.107 50.296 127.707 50.424 127.281 50.68C126.854 50.9253 126.55 51.208 126.369 51.528V57ZM138.095 57.192C136.932 57.192 135.983 56.8187 135.247 56.072C134.511 55.3147 134.143 54.3333 134.143 53.128C134.143 51.9973 134.505 51.0427 135.231 50.264C135.956 49.4747 136.863 49.08 137.951 49.08C139.092 49.08 139.993 49.4747 140.655 50.264C141.327 51.0427 141.663 52.0293 141.663 53.224V53.528H135.423C135.476 54.2853 135.748 54.92 136.239 55.432C136.74 55.944 137.391 56.2 138.191 56.2C139.151 56.2 139.951 55.8693 140.591 55.208L141.167 55.992C140.345 56.792 139.321 57.192 138.095 57.192ZM140.479 52.632C140.468 51.9813 140.244 51.3947 139.807 50.872C139.369 50.3387 138.745 50.072 137.935 50.072C137.167 50.072 136.559 50.3333 136.111 50.856C135.673 51.3787 135.439 51.9707 135.407 52.632H140.479ZM150.022 57H148.838V51.944C148.838 51.2933 148.689 50.8347 148.39 50.568C148.092 50.2907 147.66 50.152 147.094 50.152C146.646 50.152 146.214 50.2693 145.798 50.504C145.382 50.7387 145.052 51.0213 144.806 51.352V57H143.606V49.272H144.806V50.392C145.105 50.0293 145.505 49.72 146.006 49.464C146.508 49.208 147.03 49.08 147.574 49.08C149.206 49.08 150.022 49.912 150.022 51.576V57ZM161.679 57.192C160.122 57.192 158.815 56.68 157.759 55.656C156.714 54.6213 156.191 53.2933 156.191 51.672C156.191 50.0507 156.714 48.728 157.759 47.704C158.815 46.6693 160.122 46.152 161.679 46.152C163.396 46.152 164.746 46.856 165.727 48.264L164.623 48.888C164.314 48.4187 163.892 48.0453 163.359 47.768C162.836 47.48 162.276 47.336 161.679 47.336C160.495 47.336 159.514 47.7413 158.735 48.552C157.956 49.3627 157.567 50.4027 157.567 51.672C157.567 52.9307 157.956 53.9707 158.735 54.792C159.524 55.6027 160.506 56.008 161.679 56.008C162.276 56.008 162.836 55.864 163.359 55.576C163.892 55.288 164.314 54.9147 164.623 54.456L165.743 55.064C164.708 56.4827 163.354 57.192 161.679 57.192ZM173.532 56.024C172.838 56.8027 171.916 57.192 170.764 57.192C169.612 57.192 168.684 56.8027 167.98 56.024C167.286 55.2453 166.94 54.28 166.94 53.128C166.94 51.976 167.286 51.016 167.98 50.248C168.684 49.4693 169.612 49.08 170.764 49.08C171.916 49.08 172.838 49.4693 173.532 50.248C174.236 51.016 174.588 51.976 174.588 53.128C174.588 54.28 174.236 55.2453 173.532 56.024ZM168.892 55.256C169.35 55.832 169.974 56.12 170.764 56.12C171.553 56.12 172.177 55.832 172.636 55.256C173.094 54.6693 173.324 53.96 173.324 53.128C173.324 52.296 173.094 51.592 172.636 51.016C172.177 50.44 171.553 50.152 170.764 50.152C169.974 50.152 169.35 50.44 168.892 51.016C168.433 51.592 168.204 52.296 168.204 53.128C168.204 53.96 168.433 54.6693 168.892 55.256ZM178.256 57.192C177.69 57.192 177.264 57.0373 176.976 56.728C176.688 56.4187 176.544 55.9707 176.544 55.384V46.328H177.744V55.128C177.744 55.4267 177.808 55.6667 177.936 55.848C178.074 56.0293 178.272 56.12 178.528 56.12C178.88 56.12 179.146 56.008 179.328 55.784L179.696 56.696C179.333 57.0267 178.853 57.192 178.256 57.192ZM186.985 56.024C186.291 56.8027 185.369 57.192 184.217 57.192C183.065 57.192 182.137 56.8027 181.433 56.024C180.739 55.2453 180.393 54.28 180.393 53.128C180.393 51.976 180.739 51.016 181.433 50.248C182.137 49.4693 183.065 49.08 184.217 49.08C185.369 49.08 186.291 49.4693 186.985 50.248C187.689 51.016 188.041 51.976 188.041 53.128C188.041 54.28 187.689 55.2453 186.985 56.024ZM182.345 55.256C182.803 55.832 183.427 56.12 184.217 56.12C185.006 56.12 185.63 55.832 186.089 55.256C186.547 54.6693 186.777 53.96 186.777 53.128C186.777 52.296 186.547 51.592 186.089 51.016C185.63 50.44 185.006 50.152 184.217 50.152C183.427 50.152 182.803 50.44 182.345 51.016C181.886 51.592 181.657 52.296 181.657 53.128C181.657 53.96 181.886 54.6693 182.345 55.256ZM200.525 57H199.325V51.752C199.325 50.6853 198.85 50.152 197.901 50.152C197.517 50.152 197.133 50.2693 196.749 50.504C196.365 50.728 196.066 51.0053 195.853 51.336V57H194.653V51.752C194.653 50.6853 194.178 50.152 193.229 50.152C192.856 50.152 192.477 50.2693 192.093 50.504C191.72 50.7387 191.421 51.0213 191.197 51.352V57H189.997V49.272H191.197V50.392C191.4 50.0827 191.736 49.7893 192.205 49.512C192.685 49.224 193.186 49.08 193.709 49.08C194.264 49.08 194.717 49.2133 195.069 49.48C195.421 49.7467 195.656 50.0933 195.773 50.52C196.008 50.136 196.365 49.8 196.845 49.512C197.325 49.224 197.832 49.08 198.365 49.08C199.805 49.08 200.525 49.8587 200.525 51.416V57ZM204.119 54.904C204.332 55.2453 204.652 55.5333 205.079 55.768C205.516 56.0027 205.969 56.12 206.439 56.12C207.196 56.12 207.799 55.8427 208.247 55.288C208.695 54.7333 208.919 54.0187 208.919 53.144C208.919 52.2693 208.695 51.5547 208.247 51C207.799 50.4347 207.196 50.152 206.439 50.152C205.969 50.152 205.516 50.2747 205.079 50.52C204.652 50.7547 204.332 51.048 204.119 51.4V54.904ZM204.119 57H202.919V46.328H204.119V50.44C204.791 49.5333 205.66 49.08 206.727 49.08C207.751 49.08 208.577 49.4533 209.207 50.2C209.847 50.936 210.167 51.9173 210.167 53.144C210.167 54.3813 209.847 55.368 209.207 56.104C208.577 56.8293 207.751 57.192 206.727 57.192C205.649 57.192 204.78 56.744 204.119 55.848V57ZM213.29 47.944C213.141 48.0933 212.954 48.168 212.73 48.168C212.506 48.168 212.314 48.0933 212.154 47.944C211.994 47.784 211.914 47.592 211.914 47.368C211.914 47.144 211.994 46.952 212.154 46.792C212.314 46.632 212.506 46.552 212.73 46.552C212.954 46.552 213.141 46.632 213.29 46.792C213.45 46.952 213.53 47.144 213.53 47.368C213.53 47.592 213.45 47.784 213.29 47.944ZM213.322 57H212.122V49.272H213.322V57ZM222.516 57H221.316V55.848C220.654 56.744 219.785 57.192 218.708 57.192C217.684 57.192 216.852 56.8293 216.212 56.104C215.582 55.368 215.268 54.3813 215.268 53.144C215.268 51.9173 215.588 50.936 216.228 50.2C216.868 49.4533 217.694 49.08 218.708 49.08C219.774 49.08 220.644 49.5333 221.316 50.44V49.272H222.516V57ZM219.012 56.12C219.47 56.12 219.913 56.0027 220.34 55.768C220.777 55.5227 221.102 55.2293 221.316 54.888V51.4C221.102 51.048 220.777 50.7547 220.34 50.52C219.913 50.2747 219.47 50.152 219.012 50.152C218.244 50.152 217.636 50.4347 217.188 51C216.74 51.5547 216.516 52.2693 216.516 53.144C216.516 54.0187 216.74 54.7333 217.188 55.288C217.636 55.8427 218.244 56.12 219.012 56.12ZM231.939 60.136C230.745 60.136 229.758 59.7467 228.979 58.968L229.587 58.104C230.142 58.7973 230.926 59.144 231.939 59.144C232.665 59.144 233.235 58.9467 233.651 58.552C234.067 58.1573 234.275 57.608 234.275 56.904V55.752C233.955 56.1147 233.55 56.4187 233.059 56.664C232.579 56.9093 232.067 57.032 231.523 57.032C229.881 57.032 229.059 56.2107 229.059 54.568V49.272H230.259V54.2C230.259 54.8507 230.409 55.3093 230.707 55.576C231.006 55.8427 231.438 55.976 232.003 55.976C232.441 55.976 232.867 55.864 233.283 55.64C233.71 55.4053 234.041 55.128 234.275 54.808V49.272H235.475V56.904C235.475 57.9493 235.139 58.7493 234.467 59.304C233.795 59.8587 232.953 60.136 231.939 60.136ZM248.812 57H247.613V55.848C246.951 56.744 246.082 57.192 245.005 57.192C243.981 57.192 243.149 56.8293 242.509 56.104C241.879 55.368 241.565 54.3813 241.565 53.144C241.565 51.9173 241.885 50.936 242.525 50.2C243.165 49.4533 243.991 49.08 245.005 49.08C246.071 49.08 246.941 49.5333 247.613 50.44V49.272H248.812V57ZM245.309 56.12C245.767 56.12 246.21 56.0027 246.637 55.768C247.074 55.5227 247.399 55.2293 247.613 54.888V51.4C247.399 51.048 247.074 50.7547 246.637 50.52C246.21 50.2747 245.767 50.152 245.309 50.152C244.541 50.152 243.933 50.4347 243.485 51C243.037 51.5547 242.812 52.2693 242.812 53.144C242.812 54.0187 243.037 54.7333 243.485 55.288C243.933 55.8427 244.541 56.12 245.309 56.12ZM22.616 78H21.432V72.944C21.432 72.2933 21.2827 71.8347 20.984 71.568C20.6853 71.2907 20.2533 71.152 19.688 71.152C19.24 71.152 18.808 71.2693 18.392 71.504C17.976 71.7387 17.6453 72.0213 17.4 72.352V78H16.2V70.272H17.4V71.392C17.6987 71.0293 18.0987 70.72 18.6 70.464C19.1013 70.208 19.624 70.08 20.168 70.08C21.8 70.08 22.616 70.912 22.616 72.576V78ZM26.1961 68.944C26.0468 69.0933 25.8601 69.168 25.6361 69.168C25.4121 69.168 25.2201 69.0933 25.0601 68.944C24.9001 68.784 24.8201 68.592 24.8201 68.368C24.8201 68.144 24.9001 67.952 25.0601 67.792C25.2201 67.632 25.4121 67.552 25.6361 67.552C25.8601 67.552 26.0468 67.632 26.1961 67.792C26.3561 67.952 26.4361 68.144 26.4361 68.368C26.4361 68.592 26.3561 68.784 26.1961 68.944ZM26.2281 78H25.0281V70.272H26.2281V78ZM31.9979 78H30.6859L27.4699 70.272H28.7819L31.3419 76.608L33.9179 70.272H35.2139L31.9979 78ZM39.9696 78.192C38.807 78.192 37.8576 77.8187 37.1216 77.072C36.3856 76.3147 36.0176 75.3333 36.0176 74.128C36.0176 72.9973 36.3803 72.0427 37.1056 71.264C37.831 70.4747 38.7376 70.08 39.8256 70.08C40.967 70.08 41.8683 70.4747 42.5296 71.264C43.2016 72.0427 43.5376 73.0293 43.5376 74.224V74.528H37.2976C37.351 75.2853 37.623 75.92 38.1136 76.432C38.615 76.944 39.2656 77.2 40.0656 77.2C41.0256 77.2 41.8256 76.8693 42.4656 76.208L43.0416 76.992C42.2203 77.792 41.1963 78.192 39.9696 78.192ZM42.3536 73.632C42.343 72.9813 42.119 72.3947 41.6816 71.872C41.2443 71.3387 40.6203 71.072 39.8096 71.072C39.0416 71.072 38.4336 71.3333 37.9856 71.856C37.5483 72.3787 37.3136 72.9707 37.2816 73.632H42.3536ZM47.1933 78.192C46.6279 78.192 46.2013 78.0373 45.9133 77.728C45.6253 77.4187 45.4813 76.9707 45.4813 76.384V67.328H46.6813V76.128C46.6813 76.4267 46.7453 76.6667 46.8733 76.848C47.0119 77.0293 47.2093 77.12 47.4653 77.12C47.8173 77.12 48.0839 77.008 48.2653 76.784L48.6333 77.696C48.2706 78.0267 47.7906 78.192 47.1933 78.192ZM64.4468 78H63.2468V72.752C63.2468 71.6853 62.7721 71.152 61.8228 71.152C61.4388 71.152 61.0548 71.2693 60.6708 71.504C60.2868 71.728 59.9881 72.0053 59.7748 72.336V78H58.5748V72.752C58.5748 71.6853 58.1001 71.152 57.1508 71.152C56.7774 71.152 56.3988 71.2693 56.0148 71.504C55.6414 71.7387 55.3428 72.0213 55.1188 72.352V78H53.9188V70.272H55.1188V71.392C55.3214 71.0827 55.6574 70.7893 56.1268 70.512C56.6068 70.224 57.1081 70.08 57.6308 70.08C58.1854 70.08 58.6388 70.2133 58.9908 70.48C59.3428 70.7467 59.5774 71.0933 59.6948 71.52C59.9294 71.136 60.2868 70.8 60.7668 70.512C61.2468 70.224 61.7534 70.08 62.2868 70.08C63.7268 70.08 64.4468 70.8587 64.4468 72.416V78ZM73.2566 78H72.0566V76.912C71.7366 77.2747 71.3313 77.5787 70.8406 77.824C70.3606 78.0693 69.8486 78.192 69.3046 78.192C67.662 78.192 66.8406 77.3707 66.8406 75.728V70.272H68.0406V75.36C68.0406 76 68.19 76.4533 68.4886 76.72C68.7873 76.9867 69.2193 77.12 69.7846 77.12C70.2326 77.12 70.6646 77.008 71.0806 76.784C71.4966 76.56 71.822 76.2827 72.0566 75.952V70.272H73.2566V78ZM82.0691 78H80.8851V72.944C80.8851 72.2933 80.7358 71.8347 80.4371 71.568C80.1385 71.2907 79.7065 71.152 79.1411 71.152C78.6931 71.152 78.2611 71.2693 77.8451 71.504C77.4291 71.7387 77.0985 72.0213 76.8531 72.352V78H75.6531V70.272H76.8531V71.392C77.1518 71.0293 77.5518 70.72 78.0531 70.464C78.5545 70.208 79.0771 70.08 79.6211 70.08C81.2531 70.08 82.0691 70.912 82.0691 72.576V78ZM91.2812 78H90.0813V76.848C89.4199 77.744 88.5506 78.192 87.4733 78.192C86.4493 78.192 85.6173 77.8293 84.9773 77.104C84.3479 76.368 84.0333 75.3813 84.0333 74.144C84.0333 72.9173 84.3533 71.936 84.9933 71.2C85.6333 70.4533 86.4599 70.08 87.4733 70.08C88.5399 70.08 89.4093 70.5333 90.0813 71.44V67.328H91.2812V78ZM87.7773 77.12C88.2359 77.12 88.6786 77.0027 89.1053 76.768C89.5426 76.5227 89.8679 76.2293 90.0813 75.888V72.4C89.8679 72.048 89.5426 71.7547 89.1053 71.52C88.6786 71.2747 88.2359 71.152 87.7773 71.152C87.0093 71.152 86.4013 71.4347 85.9533 72C85.5053 72.5547 85.2812 73.2693 85.2812 74.144C85.2812 75.0187 85.5053 75.7333 85.9533 76.288C86.4013 76.8427 87.0093 77.12 87.7773 77.12ZM94.8524 68.944C94.703 69.0933 94.5164 69.168 94.2924 69.168C94.0684 69.168 93.8764 69.0933 93.7164 68.944C93.5564 68.784 93.4764 68.592 93.4764 68.368C93.4764 68.144 93.5564 67.952 93.7164 67.792C93.8764 67.632 94.0684 67.552 94.2924 67.552C94.5164 67.552 94.703 67.632 94.8524 67.792C95.0124 67.952 95.0924 68.144 95.0924 68.368C95.0924 68.592 95.0124 68.784 94.8524 68.944ZM94.8844 78H93.6844V70.272H94.8844V78ZM104.078 78H102.878V76.848C102.217 77.744 101.347 78.192 100.27 78.192C99.2461 78.192 98.4141 77.8293 97.7741 77.104C97.1448 76.368 96.8301 75.3813 96.8301 74.144C96.8301 72.9173 97.1501 71.936 97.7901 71.2C98.4301 70.4533 99.2568 70.08 100.27 70.08C101.337 70.08 102.206 70.5333 102.878 71.44V70.272H104.078V78ZM100.574 77.12C101.033 77.12 101.475 77.0027 101.902 76.768C102.339 76.5227 102.665 76.2293 102.878 75.888V72.4C102.665 72.048 102.339 71.7547 101.902 71.52C101.475 71.2747 101.033 71.152 100.574 71.152C99.8061 71.152 99.1981 71.4347 98.7501 72C98.3021 72.5547 98.0781 73.2693 98.0781 74.144C98.0781 75.0187 98.3021 75.7333 98.7501 76.288C99.1981 76.8427 99.8061 77.12 100.574 77.12ZM108.193 78.192C107.628 78.192 107.201 78.0373 106.913 77.728C106.625 77.4187 106.481 76.9707 106.481 76.384V67.328H107.681V76.128C107.681 76.4267 107.745 76.6667 107.873 76.848C108.012 77.0293 108.209 77.12 108.465 77.12C108.817 77.12 109.084 77.008 109.265 76.784L109.633 77.696C109.271 78.0267 108.791 78.192 108.193 78.192ZM121.351 78H120.151V72.912C120.151 72.2613 120.001 71.808 119.703 71.552C119.404 71.2853 118.972 71.152 118.407 71.152C117.969 71.152 117.537 71.2693 117.111 71.504C116.695 71.7387 116.369 72.0213 116.135 72.352V78H114.935V67.328H116.135V71.392C116.423 71.0293 116.817 70.72 117.319 70.464C117.82 70.208 118.343 70.08 118.887 70.08C120.529 70.08 121.351 70.9013 121.351 72.544V78ZM130.547 78H129.347V76.848C128.686 77.744 127.816 78.192 126.739 78.192C125.715 78.192 124.883 77.8293 124.243 77.104C123.614 76.368 123.299 75.3813 123.299 74.144C123.299 72.9173 123.619 71.936 124.259 71.2C124.899 70.4533 125.726 70.08 126.739 70.08C127.806 70.08 128.675 70.5333 129.347 71.44V70.272H130.547V78ZM127.043 77.12C127.502 77.12 127.944 77.0027 128.371 76.768C128.808 76.5227 129.134 76.2293 129.347 75.888V72.4C129.134 72.048 128.808 71.7547 128.371 71.52C127.944 71.2747 127.502 71.152 127.043 71.152C126.275 71.152 125.667 71.4347 125.219 72C124.771 72.5547 124.547 73.2693 124.547 74.144C124.547 75.0187 124.771 75.7333 125.219 76.288C125.667 76.8427 126.275 77.12 127.043 77.12ZM143.891 78H142.691V76.848C142.029 77.744 141.16 78.192 140.083 78.192C139.059 78.192 138.227 77.8293 137.587 77.104C136.957 76.368 136.643 75.3813 136.643 74.144C136.643 72.9173 136.963 71.936 137.603 71.2C138.243 70.4533 139.069 70.08 140.083 70.08C141.149 70.08 142.019 70.5333 142.691 71.44V70.272H143.891V78ZM140.387 77.12C140.845 77.12 141.288 77.0027 141.715 76.768C142.152 76.5227 142.477 76.2293 142.691 75.888V72.4C142.477 72.048 142.152 71.7547 141.715 71.52C141.288 71.2747 140.845 71.152 140.387 71.152C139.619 71.152 139.011 71.4347 138.563 72C138.115 72.5547 137.891 73.2693 137.891 74.144C137.891 75.0187 138.115 75.7333 138.563 76.288C139.011 76.8427 139.619 77.12 140.387 77.12ZM152.71 78H151.51V76.912C151.19 77.2747 150.784 77.5787 150.294 77.824C149.814 78.0693 149.302 78.192 148.758 78.192C147.115 78.192 146.294 77.3707 146.294 75.728V70.272H147.494V75.36C147.494 76 147.643 76.4533 147.942 76.72C148.24 76.9867 148.672 77.12 149.238 77.12C149.686 77.12 150.118 77.008 150.534 76.784C150.95 76.56 151.275 76.2827 151.51 75.952V70.272H152.71V78ZM165.634 78H164.434V72.752C164.434 71.6853 163.96 71.152 163.01 71.152C162.626 71.152 162.242 71.2693 161.858 71.504C161.474 71.728 161.176 72.0053 160.962 72.336V78H159.762V72.752C159.762 71.6853 159.288 71.152 158.338 71.152C157.965 71.152 157.586 71.2693 157.202 71.504C156.829 71.7387 156.53 72.0213 156.306 72.352V78H155.106V70.272H156.306V71.392C156.509 71.0827 156.845 70.7893 157.314 70.512C157.794 70.224 158.296 70.08 158.818 70.08C159.373 70.08 159.826 70.2133 160.178 70.48C160.53 70.7467 160.765 71.0933 160.882 71.52C161.117 71.136 161.474 70.8 161.954 70.512C162.434 70.224 162.941 70.08 163.474 70.08C164.914 70.08 165.634 70.8587 165.634 72.416V78ZM171.532 78.192C170.369 78.192 169.42 77.8187 168.684 77.072C167.948 76.3147 167.58 75.3333 167.58 74.128C167.58 72.9973 167.943 72.0427 168.668 71.264C169.393 70.4747 170.3 70.08 171.388 70.08C172.529 70.08 173.431 70.4747 174.092 71.264C174.764 72.0427 175.1 73.0293 175.1 74.224V74.528H168.86C168.913 75.2853 169.185 75.92 169.676 76.432C170.177 76.944 170.828 77.2 171.628 77.2C172.588 77.2 173.388 76.8693 174.028 76.208L174.604 76.992C173.783 77.792 172.759 78.192 171.532 78.192ZM173.916 73.632C173.905 72.9813 173.681 72.3947 173.244 71.872C172.807 71.3387 172.183 71.072 171.372 71.072C170.604 71.072 169.996 71.3333 169.548 71.856C169.111 72.3787 168.876 72.9707 168.844 73.632H173.916ZM183.46 78H182.276V72.944C182.276 72.2933 182.126 71.8347 181.828 71.568C181.529 71.2907 181.097 71.152 180.532 71.152C180.084 71.152 179.652 71.2693 179.236 71.504C178.82 71.7387 178.489 72.0213 178.244 72.352V78H177.044V70.272H178.244V71.392C178.542 71.0293 178.942 70.72 179.444 70.464C179.945 70.208 180.468 70.08 181.012 70.08C182.644 70.08 183.46 70.912 183.46 72.576V78ZM187.84 78.192C186.688 78.192 186.112 77.5893 186.112 76.384V71.328H184.832V70.272H186.112V68.16H187.328V70.272H188.896V71.328H187.328V76.128C187.328 76.4267 187.392 76.6667 187.52 76.848C187.659 77.0293 187.851 77.12 188.096 77.12C188.437 77.12 188.709 77.008 188.912 76.784L189.264 77.696C188.912 78.0267 188.437 78.192 187.84 78.192ZM197.375 78H196.175V76.848C195.514 77.744 194.644 78.192 193.567 78.192C192.543 78.192 191.711 77.8293 191.071 77.104C190.442 76.368 190.127 75.3813 190.127 74.144C190.127 72.9173 190.447 71.936 191.087 71.2C191.727 70.4533 192.554 70.08 193.567 70.08C194.634 70.08 195.503 70.5333 196.175 71.44V70.272H197.375V78ZM193.871 77.12C194.33 77.12 194.772 77.0027 195.199 76.768C195.636 76.5227 195.962 76.2293 196.175 75.888V72.4C195.962 72.048 195.636 71.7547 195.199 71.52C194.772 71.2747 194.33 71.152 193.871 71.152C193.103 71.152 192.495 71.4347 192.047 72C191.599 72.5547 191.375 73.2693 191.375 74.144C191.375 75.0187 191.599 75.7333 192.047 76.288C192.495 76.8427 193.103 77.12 193.871 77.12ZM206.578 78H205.378V76.848C204.717 77.744 203.847 78.192 202.77 78.192C201.746 78.192 200.914 77.8293 200.274 77.104C199.645 76.368 199.33 75.3813 199.33 74.144C199.33 72.9173 199.65 71.936 200.29 71.2C200.93 70.4533 201.757 70.08 202.77 70.08C203.837 70.08 204.706 70.5333 205.378 71.44V67.328H206.578V78ZM203.074 77.12C203.533 77.12 203.975 77.0027 204.402 76.768C204.839 76.5227 205.165 76.2293 205.378 75.888V72.4C205.165 72.048 204.839 71.7547 204.402 71.52C203.975 71.2747 203.533 71.152 203.074 71.152C202.306 71.152 201.698 71.4347 201.25 72C200.802 72.5547 200.578 73.2693 200.578 74.144C200.578 75.0187 200.802 75.7333 201.25 76.288C201.698 76.8427 202.306 77.12 203.074 77.12ZM215.125 77.024C214.432 77.8027 213.509 78.192 212.357 78.192C211.205 78.192 210.277 77.8027 209.573 77.024C208.88 76.2453 208.533 75.28 208.533 74.128C208.533 72.976 208.88 72.016 209.573 71.248C210.277 70.4693 211.205 70.08 212.357 70.08C213.509 70.08 214.432 70.4693 215.125 71.248C215.829 72.016 216.181 72.976 216.181 74.128C216.181 75.28 215.829 76.2453 215.125 77.024ZM210.485 76.256C210.944 76.832 211.568 77.12 212.357 77.12C213.147 77.12 213.771 76.832 214.229 76.256C214.688 75.6693 214.917 74.96 214.917 74.128C214.917 73.296 214.688 72.592 214.229 72.016C213.771 71.44 213.147 71.152 212.357 71.152C211.568 71.152 210.944 71.44 210.485 72.016C210.027 72.592 209.797 73.296 209.797 74.128C209.797 74.96 210.027 75.6693 210.485 76.256ZM229.078 78H227.878V76.848C227.217 77.744 226.347 78.192 225.27 78.192C224.246 78.192 223.414 77.8293 222.774 77.104C222.145 76.368 221.83 75.3813 221.83 74.144C221.83 72.9173 222.15 71.936 222.79 71.2C223.43 70.4533 224.257 70.08 225.27 70.08C226.337 70.08 227.206 70.5333 227.878 71.44V67.328H229.078V78ZM225.574 77.12C226.033 77.12 226.475 77.0027 226.902 76.768C227.339 76.5227 227.665 76.2293 227.878 75.888V72.4C227.665 72.048 227.339 71.7547 226.902 71.52C226.475 71.2747 226.033 71.152 225.574 71.152C224.806 71.152 224.198 71.4347 223.75 72C223.302 72.5547 223.078 73.2693 223.078 74.144C223.078 75.0187 223.302 75.7333 223.75 76.288C224.198 76.8427 224.806 77.12 225.574 77.12ZM234.985 78.192C233.823 78.192 232.873 77.8187 232.137 77.072C231.401 76.3147 231.033 75.3333 231.033 74.128C231.033 72.9973 231.396 72.0427 232.121 71.264C232.847 70.4747 233.753 70.08 234.841 70.08C235.983 70.08 236.884 70.4747 237.545 71.264C238.217 72.0427 238.553 73.0293 238.553 74.224V74.528H232.313C232.367 75.2853 232.639 75.92 233.129 76.432C233.631 76.944 234.281 77.2 235.081 77.2C236.041 77.2 236.841 76.8693 237.481 76.208L238.057 76.992C237.236 77.792 236.212 78.192 234.985 78.192ZM237.369 73.632C237.359 72.9813 237.135 72.3947 236.697 71.872C236.26 71.3387 235.636 71.072 234.825 71.072C234.057 71.072 233.449 71.3333 233.001 71.856C232.564 72.3787 232.329 72.9707 232.297 73.632H237.369ZM242.961 78.192C241.66 78.192 240.62 77.7867 239.841 76.976L240.449 76.112C240.716 76.4213 241.078 76.6827 241.537 76.896C242.006 77.1093 242.492 77.216 242.993 77.216C243.569 77.216 244.017 77.0933 244.337 76.848C244.668 76.6027 244.833 76.2827 244.833 75.888C244.833 75.5467 244.668 75.28 244.337 75.088C244.006 74.8853 243.606 74.736 243.137 74.64C242.668 74.5333 242.198 74.416 241.729 74.288C241.27 74.1493 240.876 73.92 240.545 73.6C240.214 73.2693 240.049 72.8373 240.049 72.304C240.049 71.6747 240.305 71.1467 240.817 70.72C241.329 70.2933 242.028 70.08 242.913 70.08C244.097 70.08 245.052 70.4533 245.777 71.2L245.217 72.032C244.673 71.3813 243.905 71.056 242.913 71.056C242.39 71.056 241.974 71.1733 241.665 71.408C241.356 71.632 241.201 71.92 241.201 72.272C241.201 72.528 241.318 72.7413 241.553 72.912C241.788 73.0827 242.081 73.2053 242.433 73.28C242.796 73.3547 243.18 73.4507 243.585 73.568C244.001 73.6853 244.385 73.8187 244.737 73.968C245.1 74.1067 245.398 74.3413 245.633 74.672C245.868 74.992 245.985 75.3867 245.985 75.856C245.985 76.5387 245.718 77.0987 245.185 77.536C244.662 77.9733 243.921 78.192 242.961 78.192ZM254.734 78H253.534V76.848C252.873 77.744 252.004 78.192 250.926 78.192C249.902 78.192 249.07 77.8293 248.43 77.104C247.801 76.368 247.486 75.3813 247.486 74.144C247.486 72.9173 247.806 71.936 248.446 71.2C249.086 70.4533 249.913 70.08 250.926 70.08C251.993 70.08 252.862 70.5333 253.534 71.44V67.328H254.734V78ZM251.23 77.12C251.689 77.12 252.132 77.0027 252.558 76.768C252.996 76.5227 253.321 76.2293 253.534 75.888V72.4C253.321 72.048 252.996 71.7547 252.558 71.52C252.132 71.2747 251.689 71.152 251.23 71.152C250.462 71.152 249.854 71.4347 249.406 72C248.958 72.5547 248.734 73.2693 248.734 74.144C248.734 75.0187 248.958 75.7333 249.406 76.288C249.854 76.8427 250.462 77.12 251.23 77.12ZM260.641 78.192C259.479 78.192 258.53 77.8187 257.794 77.072C257.058 76.3147 256.69 75.3333 256.69 74.128C256.69 72.9973 257.052 72.0427 257.778 71.264C258.503 70.4747 259.41 70.08 260.498 70.08C261.639 70.08 262.54 70.4747 263.202 71.264C263.874 72.0427 264.21 73.0293 264.21 74.224V74.528H257.97C258.023 75.2853 258.295 75.92 258.786 76.432C259.287 76.944 259.938 77.2 260.738 77.2C261.698 77.2 262.498 76.8693 263.138 76.208L263.714 76.992C262.892 77.792 261.868 78.192 260.641 78.192ZM263.026 73.632C263.015 72.9813 262.791 72.3947 262.354 71.872C261.916 71.3387 261.292 71.072 260.482 71.072C259.714 71.072 259.106 71.3333 258.658 71.856C258.22 72.3787 257.986 72.9707 257.954 73.632H263.026ZM19.176 99H17.848V90.072L16.136 91.896L15.336 91.08L18.008 88.328H19.176V99ZM24.7259 99.176C23.5099 99.176 22.5232 98.7493 21.7659 97.896L22.4379 96.904C23.0565 97.6293 23.8192 97.992 24.7259 97.992C25.4085 97.992 25.9845 97.7787 26.4539 97.352C26.9232 96.9253 27.2539 96.408 27.4459 95.8C27.6379 95.192 27.7339 94.5253 27.7339 93.8C27.7339 93.6187 27.7285 93.48 27.7179 93.384C27.4512 93.8107 27.0405 94.1947 26.4859 94.536C25.9312 94.8773 25.3392 95.048 24.7099 95.048C23.6965 95.048 22.8592 94.7547 22.1979 94.168C21.5365 93.5707 21.2059 92.728 21.2059 91.64C21.2059 90.68 21.5472 89.8587 22.2299 89.176C22.9125 88.4933 23.8192 88.152 24.9499 88.152C25.6645 88.152 26.2939 88.3013 26.8379 88.6C27.3819 88.8987 27.8139 89.3093 28.1339 89.832C28.4539 90.3547 28.6885 90.936 28.8379 91.576C28.9979 92.216 29.0779 92.9147 29.0779 93.672C29.0779 94.6747 28.9285 95.5813 28.6299 96.392C28.3312 97.192 27.8459 97.8587 27.1739 98.392C26.5019 98.9147 25.6859 99.176 24.7259 99.176ZM25.0139 93.896C25.5365 93.896 26.0379 93.752 26.5179 93.464C27.0085 93.1653 27.3979 92.776 27.6859 92.296C27.6539 91.944 27.5792 91.6027 27.4619 91.272C27.3552 90.9413 27.2005 90.6267 26.9979 90.328C26.7952 90.0293 26.5179 89.7893 26.1659 89.608C25.8245 89.4267 25.4352 89.336 24.9979 89.336C24.2405 89.336 23.6432 89.5707 23.2059 90.04C22.7685 90.4987 22.5499 91.016 22.5499 91.592C22.5499 92.3387 22.7792 92.9093 23.2379 93.304C23.6965 93.6987 24.2885 93.896 25.0139 93.896ZM34.819 99.192C34.0937 99.192 33.459 99.0427 32.915 98.744C32.371 98.4453 31.939 98.0347 31.619 97.512C31.3097 96.9893 31.075 96.408 30.915 95.768C30.7657 95.128 30.691 94.4293 30.691 93.672C30.691 92.1147 31.059 90.808 31.795 89.752C32.5417 88.696 33.6243 88.168 35.043 88.168C36.2803 88.168 37.2617 88.5947 37.987 89.448L37.315 90.44C36.6963 89.7147 35.939 89.352 35.043 89.352C34.0723 89.352 33.3257 89.7627 32.803 90.584C32.291 91.4053 32.035 92.392 32.035 93.544V93.96C32.3017 93.5333 32.7123 93.1493 33.267 92.808C33.8323 92.4667 34.4297 92.296 35.059 92.296C36.0723 92.296 36.9043 92.5947 37.555 93.192C38.2163 93.7787 38.547 94.616 38.547 95.704C38.547 96.664 38.2057 97.4853 37.523 98.168C36.8403 98.8507 35.939 99.192 34.819 99.192ZM34.755 98.008C35.523 98.008 36.1203 97.7733 36.547 97.304C36.9843 96.8347 37.203 96.3173 37.203 95.752C37.203 95.0053 36.9737 94.4347 36.515 94.04C36.0563 93.6453 35.4697 93.448 34.755 93.448C34.2323 93.448 33.731 93.5973 33.251 93.896C32.771 94.184 32.3817 94.5627 32.083 95.032C32.147 95.8213 32.3977 96.5147 32.835 97.112C33.2723 97.7093 33.9123 98.008 34.755 98.008ZM44.2241 99.192C43.5201 99.192 42.8961 99.032 42.3521 98.712C41.8188 98.3813 41.3921 97.944 41.0721 97.4C40.7628 96.856 40.5281 96.2693 40.3681 95.64C40.2188 95.0107 40.1441 94.3547 40.1441 93.672C40.1441 92.9893 40.2188 92.3333 40.3681 91.704C40.5281 91.0747 40.7628 90.4933 41.0721 89.96C41.3921 89.416 41.8188 88.984 42.3521 88.664C42.8961 88.3333 43.5201 88.168 44.2241 88.168C44.9175 88.168 45.5361 88.3333 46.0801 88.664C46.6241 88.984 47.0508 89.416 47.3601 89.96C47.6801 90.4933 47.9148 91.0747 48.0641 91.704C48.2241 92.3333 48.3041 92.9893 48.3041 93.672C48.3041 94.3547 48.2241 95.0107 48.0641 95.64C47.9148 96.2693 47.6801 96.856 47.3601 97.4C47.0508 97.944 46.6241 98.3813 46.0801 98.712C45.5361 99.032 44.9175 99.192 44.2241 99.192ZM42.6241 97.352C43.0508 97.7893 43.5841 98.008 44.2241 98.008C44.8641 98.008 45.3975 97.7893 45.8241 97.352C46.2508 96.904 46.5441 96.3707 46.7041 95.752C46.8641 95.1333 46.9441 94.44 46.9441 93.672C46.9441 92.904 46.8641 92.2107 46.7041 91.592C46.5441 90.9733 46.2508 90.4453 45.8241 90.008C45.3975 89.5707 44.8641 89.352 44.2241 89.352C43.5841 89.352 43.0508 89.5707 42.6241 90.008C42.1975 90.4453 41.9041 90.9733 41.7441 91.592C41.5841 92.2107 41.5041 92.904 41.5041 93.672C41.5041 94.44 41.5841 95.1333 41.7441 95.752C41.9041 96.3707 42.1975 96.904 42.6241 97.352ZM51.441 98.616C51.441 99.0853 51.3183 99.5333 51.073 99.96C50.8383 100.397 50.529 100.755 50.145 101.032L49.537 100.536C49.8037 100.365 50.033 100.136 50.225 99.848C50.4277 99.5707 50.545 99.304 50.577 99.048C50.5343 99.0693 50.4597 99.08 50.353 99.08C50.1397 99.08 49.9583 99.0053 49.809 98.856C49.6597 98.696 49.585 98.4987 49.585 98.264C49.585 98.0293 49.665 97.8267 49.825 97.656C49.9957 97.4853 50.1983 97.4 50.433 97.4C50.721 97.4 50.961 97.512 51.153 97.736C51.345 97.9493 51.441 98.2427 51.441 98.616ZM61.4611 99.192C60.4051 99.192 59.5358 98.7387 58.8531 97.832V101.944H57.6531V91.272H58.8531V92.424C59.1411 92.0187 59.5145 91.6933 59.9731 91.448C60.4318 91.2027 60.9278 91.08 61.4611 91.08C62.4851 91.08 63.3118 91.448 63.9411 92.184C64.5811 92.9093 64.9011 93.8907 64.9011 95.128C64.9011 96.3653 64.5811 97.352 63.9411 98.088C63.3118 98.824 62.4851 99.192 61.4611 99.192ZM61.1571 98.12C61.9145 98.12 62.5171 97.8427 62.9651 97.288C63.4131 96.7227 63.6371 96.0027 63.6371 95.128C63.6371 94.2533 63.4131 93.5387 62.9651 92.984C62.5171 92.4293 61.9145 92.152 61.1571 92.152C60.6985 92.152 60.2505 92.2747 59.8131 92.52C59.3865 92.7547 59.0665 93.0427 58.8531 93.384V96.872C59.0665 97.224 59.3865 97.5227 59.8131 97.768C60.2505 98.0027 60.6985 98.12 61.1571 98.12ZM70.3134 99.192C69.1507 99.192 68.2014 98.8187 67.4654 98.072C66.7294 97.3147 66.3614 96.3333 66.3614 95.128C66.3614 93.9973 66.724 93.0427 67.4494 92.264C68.1747 91.4747 69.0814 91.08 70.1694 91.08C71.3107 91.08 72.212 91.4747 72.8734 92.264C73.5454 93.0427 73.8814 94.0293 73.8814 95.224V95.528H67.6414C67.6947 96.2853 67.9667 96.92 68.4574 97.432C68.9587 97.944 69.6094 98.2 70.4094 98.2C71.3694 98.2 72.1694 97.8693 72.8094 97.208L73.3854 97.992C72.564 98.792 71.54 99.192 70.3134 99.192ZM72.6974 94.632C72.6867 93.9813 72.4627 93.3947 72.0254 92.872C71.588 92.3387 70.964 92.072 70.1534 92.072C69.3854 92.072 68.7774 92.3333 68.3294 92.856C67.892 93.3787 67.6574 93.9707 67.6254 94.632H72.6974ZM77.025 99H75.825V91.272H77.025V92.504C77.761 91.5653 78.6197 91.096 79.601 91.096V92.328C79.409 92.3067 79.2543 92.296 79.137 92.296C78.7637 92.296 78.3637 92.424 77.937 92.68C77.5103 92.9253 77.2063 93.208 77.025 93.528V99ZM87.2503 98.024C86.5569 98.8027 85.6343 99.192 84.4823 99.192C83.3303 99.192 82.4023 98.8027 81.6983 98.024C81.0049 97.2453 80.6583 96.28 80.6583 95.128C80.6583 93.976 81.0049 93.016 81.6983 92.248C82.4023 91.4693 83.3303 91.08 84.4823 91.08C85.6343 91.08 86.5569 91.4693 87.2503 92.248C87.9543 93.016 88.3063 93.976 88.3063 95.128C88.3063 96.28 87.9543 97.2453 87.2503 98.024ZM82.6103 97.256C83.0689 97.832 83.6929 98.12 84.4823 98.12C85.2716 98.12 85.8956 97.832 86.3543 97.256C86.8129 96.6693 87.0423 95.96 87.0423 95.128C87.0423 94.296 86.8129 93.592 86.3543 93.016C85.8956 92.44 85.2716 92.152 84.4823 92.152C83.6929 92.152 83.0689 92.44 82.6103 93.016C82.1516 93.592 81.9223 94.296 81.9223 95.128C81.9223 95.96 82.1516 96.6693 82.6103 97.256ZM101.203 99H100.003V97.848C99.3418 98.744 98.4725 99.192 97.3951 99.192C96.3711 99.192 95.5391 98.8293 94.8991 98.104C94.2698 97.368 93.9551 96.3813 93.9551 95.144C93.9551 93.9173 94.2751 92.936 94.9151 92.2C95.5551 91.4533 96.3818 91.08 97.3951 91.08C98.4618 91.08 99.3311 91.5333 100.003 92.44V88.328H101.203V99ZM97.6991 98.12C98.1578 98.12 98.6005 98.0027 99.0271 97.768C99.4645 97.5227 99.7898 97.2293 100.003 96.888V93.4C99.7898 93.048 99.4645 92.7547 99.0271 92.52C98.6005 92.2747 98.1578 92.152 97.6991 92.152C96.9311 92.152 96.3231 92.4347 95.8751 93C95.4271 93.5547 95.2031 94.2693 95.2031 95.144C95.2031 96.0187 95.4271 96.7333 95.8751 97.288C96.3231 97.8427 96.9311 98.12 97.6991 98.12ZM104.774 89.944C104.625 90.0933 104.438 90.168 104.214 90.168C103.99 90.168 103.798 90.0933 103.638 89.944C103.478 89.784 103.398 89.592 103.398 89.368C103.398 89.144 103.478 88.952 103.638 88.792C103.798 88.632 103.99 88.552 104.214 88.552C104.438 88.552 104.625 88.632 104.774 88.792C104.934 88.952 105.014 89.144 105.014 89.368C105.014 89.592 104.934 89.784 104.774 89.944ZM104.806 99H103.606V91.272H104.806V99ZM109.664 99.192C108.363 99.192 107.323 98.7867 106.544 97.976L107.152 97.112C107.419 97.4213 107.781 97.6827 108.24 97.896C108.709 98.1093 109.195 98.216 109.696 98.216C110.272 98.216 110.72 98.0933 111.04 97.848C111.371 97.6027 111.536 97.2827 111.536 96.888C111.536 96.5467 111.371 96.28 111.04 96.088C110.709 95.8853 110.309 95.736 109.84 95.64C109.371 95.5333 108.901 95.416 108.432 95.288C107.973 95.1493 107.579 94.92 107.248 94.6C106.917 94.2693 106.752 93.8373 106.752 93.304C106.752 92.6747 107.008 92.1467 107.52 91.72C108.032 91.2933 108.731 91.08 109.616 91.08C110.8 91.08 111.755 91.4533 112.48 92.2L111.92 93.032C111.376 92.3813 110.608 92.056 109.616 92.056C109.093 92.056 108.677 92.1733 108.368 92.408C108.059 92.632 107.904 92.92 107.904 93.272C107.904 93.528 108.021 93.7413 108.256 93.912C108.491 94.0827 108.784 94.2053 109.136 94.28C109.499 94.3547 109.883 94.4507 110.288 94.568C110.704 94.6853 111.088 94.8187 111.44 94.968C111.803 95.1067 112.101 95.3413 112.336 95.672C112.571 95.992 112.688 96.3867 112.688 96.856C112.688 97.5387 112.421 98.0987 111.888 98.536C111.365 98.9733 110.624 99.192 109.664 99.192ZM125.166 99H123.966V93.752C123.966 92.6853 123.491 92.152 122.542 92.152C122.158 92.152 121.774 92.2693 121.39 92.504C121.006 92.728 120.707 93.0053 120.494 93.336V99H119.294V93.752C119.294 92.6853 118.819 92.152 117.87 92.152C117.496 92.152 117.118 92.2693 116.734 92.504C116.36 92.7387 116.062 93.0213 115.838 93.352V99H114.638V91.272H115.838V92.392C116.04 92.0827 116.376 91.7893 116.846 91.512C117.326 91.224 117.827 91.08 118.35 91.08C118.904 91.08 119.358 91.2133 119.71 91.48C120.062 91.7467 120.296 92.0933 120.414 92.52C120.648 92.136 121.006 91.8 121.486 91.512C121.966 91.224 122.472 91.08 123.006 91.08C124.446 91.08 125.166 91.8587 125.166 93.416V99ZM128.727 89.944C128.578 90.0933 128.391 90.168 128.167 90.168C127.943 90.168 127.751 90.0933 127.591 89.944C127.431 89.784 127.351 89.592 127.351 89.368C127.351 89.144 127.431 88.952 127.591 88.792C127.751 88.632 127.943 88.552 128.167 88.552C128.391 88.552 128.578 88.632 128.727 88.792C128.887 88.952 128.967 89.144 128.967 89.368C128.967 89.592 128.887 89.784 128.727 89.944ZM128.759 99H127.559V91.272H128.759V99ZM137.569 99H136.385V93.944C136.385 93.2933 136.236 92.8347 135.937 92.568C135.638 92.2907 135.206 92.152 134.641 92.152C134.193 92.152 133.761 92.2693 133.345 92.504C132.929 92.7387 132.598 93.0213 132.353 93.352V99H131.153V91.272H132.353V92.392C132.652 92.0293 133.052 91.72 133.553 91.464C134.054 91.208 134.577 91.08 135.121 91.08C136.753 91.08 137.569 91.912 137.569 93.576V99ZM146.397 99H145.197V97.912C144.877 98.2747 144.472 98.5787 143.981 98.824C143.501 99.0693 142.989 99.192 142.445 99.192C140.803 99.192 139.981 98.3707 139.981 96.728V91.272H141.181V96.36C141.181 97 141.331 97.4533 141.629 97.72C141.928 97.9867 142.36 98.12 142.925 98.12C143.373 98.12 143.805 98.008 144.221 97.784C144.637 97.56 144.963 97.2827 145.197 96.952V91.272H146.397V99ZM151.674 102.136C150.479 102.136 149.492 101.747 148.714 100.968L149.322 100.104C149.876 100.797 150.66 101.144 151.674 101.144C152.399 101.144 152.97 100.947 153.386 100.552C153.802 100.157 154.01 99.608 154.01 98.904V97.752C153.69 98.1147 153.284 98.4187 152.794 98.664C152.314 98.9093 151.802 99.032 151.258 99.032C149.615 99.032 148.794 98.2107 148.794 96.568V91.272H149.994V96.2C149.994 96.8507 150.143 97.3093 150.442 97.576C150.74 97.8427 151.172 97.976 151.738 97.976C152.175 97.976 152.602 97.864 153.018 97.64C153.444 97.4053 153.775 97.128 154.01 96.808V91.272H155.21V98.904C155.21 99.9493 154.874 100.749 154.202 101.304C153.53 101.859 152.687 102.136 151.674 102.136ZM163.75 98.024C163.057 98.8027 162.134 99.192 160.982 99.192C159.83 99.192 158.902 98.8027 158.198 98.024C157.505 97.2453 157.158 96.28 157.158 95.128C157.158 93.976 157.505 93.016 158.198 92.248C158.902 91.4693 159.83 91.08 160.982 91.08C162.134 91.08 163.057 91.4693 163.75 92.248C164.454 93.016 164.806 93.976 164.806 95.128C164.806 96.28 164.454 97.2453 163.75 98.024ZM159.11 97.256C159.569 97.832 160.193 98.12 160.982 98.12C161.772 98.12 162.396 97.832 162.854 97.256C163.313 96.6693 163.542 95.96 163.542 95.128C163.542 94.296 163.313 93.592 162.854 93.016C162.396 92.44 161.772 92.152 160.982 92.152C160.193 92.152 159.569 92.44 159.11 93.016C158.652 93.592 158.422 94.296 158.422 95.128C158.422 95.96 158.652 96.6693 159.11 97.256ZM163.542 87.8L160.838 90.104H159.926L162.294 87.8H163.542ZM174.407 99.192C173.244 99.192 172.295 98.8187 171.559 98.072C170.823 97.3147 170.455 96.3333 170.455 95.128C170.455 93.9973 170.818 93.0427 171.543 92.264C172.268 91.4747 173.175 91.08 174.263 91.08C175.404 91.08 176.306 91.4747 176.967 92.264C177.639 93.0427 177.975 94.0293 177.975 95.224V95.528H171.735C171.788 96.2853 172.06 96.92 172.551 97.432C173.052 97.944 173.703 98.2 174.503 98.2C175.463 98.2 176.263 97.8693 176.903 97.208L177.479 97.992C176.658 98.792 175.634 99.192 174.407 99.192ZM176.791 94.632C176.78 93.9813 176.556 93.3947 176.119 92.872C175.682 92.3387 175.058 92.072 174.247 92.072C173.479 92.072 172.871 92.3333 172.423 92.856C171.986 93.3787 171.751 93.9707 171.719 94.632H176.791ZM186.335 99H185.151V93.944C185.151 93.2933 185.001 92.8347 184.703 92.568C184.404 92.2907 183.972 92.152 183.407 92.152C182.959 92.152 182.527 92.2693 182.111 92.504C181.695 92.7387 181.364 93.0213 181.119 93.352V99H179.919V91.272H181.119V92.392C181.417 92.0293 181.817 91.72 182.319 91.464C182.82 91.208 183.343 91.08 183.887 91.08C185.519 91.08 186.335 91.912 186.335 93.576V99ZM199.88 99H192.552V97.928C194.738 96.2213 196.274 94.904 197.16 93.976C198.045 93.048 198.488 92.1573 198.488 91.304C198.488 90.664 198.264 90.1787 197.816 89.848C197.378 89.5173 196.856 89.352 196.248 89.352C195.021 89.352 194.056 89.8 193.352 90.696L192.536 89.848C192.941 89.3147 193.469 88.904 194.12 88.616C194.781 88.3173 195.49 88.168 196.248 88.168C197.218 88.168 198.056 88.44 198.76 88.984C199.474 89.528 199.832 90.3013 199.832 91.304C199.832 92.296 199.405 93.288 198.552 94.28C197.698 95.2613 196.397 96.44 194.648 97.816H199.88V99ZM205.99 99.192C205.286 99.192 204.662 99.032 204.118 98.712C203.584 98.3813 203.158 97.944 202.838 97.4C202.528 96.856 202.294 96.2693 202.134 95.64C201.984 95.0107 201.91 94.3547 201.91 93.672C201.91 92.9893 201.984 92.3333 202.134 91.704C202.294 91.0747 202.528 90.4933 202.838 89.96C203.158 89.416 203.584 88.984 204.118 88.664C204.662 88.3333 205.286 88.168 205.99 88.168C206.683 88.168 207.302 88.3333 207.846 88.664C208.39 88.984 208.816 89.416 209.126 89.96C209.446 90.4933 209.68 91.0747 209.83 91.704C209.99 92.3333 210.07 92.9893 210.07 93.672C210.07 94.3547 209.99 95.0107 209.83 95.64C209.68 96.2693 209.446 96.856 209.126 97.4C208.816 97.944 208.39 98.3813 207.846 98.712C207.302 99.032 206.683 99.192 205.99 99.192ZM204.39 97.352C204.816 97.7893 205.35 98.008 205.99 98.008C206.63 98.008 207.163 97.7893 207.59 97.352C208.016 96.904 208.31 96.3707 208.47 95.752C208.63 95.1333 208.71 94.44 208.71 93.672C208.71 92.904 208.63 92.2107 208.47 91.592C208.31 90.9733 208.016 90.4453 207.59 90.008C207.163 89.5707 206.63 89.352 205.99 89.352C205.35 89.352 204.816 89.5707 204.39 90.008C203.963 90.4453 203.67 90.9733 203.51 91.592C203.35 92.2107 203.27 92.904 203.27 93.672C203.27 94.44 203.35 95.1333 203.51 95.752C203.67 96.3707 203.963 96.904 204.39 97.352ZM219.083 99H211.755V97.928C213.941 96.2213 215.477 94.904 216.363 93.976C217.248 93.048 217.691 92.1573 217.691 91.304C217.691 90.664 217.467 90.1787 217.019 89.848C216.581 89.5173 216.059 89.352 215.451 89.352C214.224 89.352 213.259 89.8 212.555 90.696L211.739 89.848C212.144 89.3147 212.672 88.904 213.323 88.616C213.984 88.3173 214.693 88.168 215.451 88.168C216.421 88.168 217.259 88.44 217.963 88.984C218.677 89.528 219.035 90.3013 219.035 91.304C219.035 92.296 218.608 93.288 217.755 94.28C216.901 95.2613 215.6 96.44 213.851 97.816H219.083V99ZM225.193 99.192C224.489 99.192 223.865 99.032 223.321 98.712C222.788 98.3813 222.361 97.944 222.041 97.4C221.732 96.856 221.497 96.2693 221.337 95.64C221.188 95.0107 221.113 94.3547 221.113 93.672C221.113 92.9893 221.188 92.3333 221.337 91.704C221.497 91.0747 221.732 90.4933 222.041 89.96C222.361 89.416 222.788 88.984 223.321 88.664C223.865 88.3333 224.489 88.168 225.193 88.168C225.886 88.168 226.505 88.3333 227.049 88.664C227.593 88.984 228.02 89.416 228.329 89.96C228.649 90.4933 228.884 91.0747 229.033 91.704C229.193 92.3333 229.273 92.9893 229.273 93.672C229.273 94.3547 229.193 95.0107 229.033 95.64C228.884 96.2693 228.649 96.856 228.329 97.4C228.02 97.944 227.593 98.3813 227.049 98.712C226.505 99.032 225.886 99.192 225.193 99.192ZM223.593 97.352C224.02 97.7893 224.553 98.008 225.193 98.008C225.833 98.008 226.366 97.7893 226.793 97.352C227.22 96.904 227.513 96.3707 227.673 95.752C227.833 95.1333 227.913 94.44 227.913 93.672C227.913 92.904 227.833 92.2107 227.673 91.592C227.513 90.9733 227.22 90.4453 226.793 90.008C226.366 89.5707 225.833 89.352 225.193 89.352C224.553 89.352 224.02 89.5707 223.593 90.008C223.166 90.4453 222.873 90.9733 222.713 91.592C222.553 92.2107 222.473 92.904 222.473 93.672C222.473 94.44 222.553 95.1333 222.713 95.752C222.873 96.3707 223.166 96.904 223.593 97.352ZM232.058 98.904C231.887 99.0747 231.679 99.16 231.434 99.16C231.188 99.16 230.98 99.0747 230.81 98.904C230.639 98.7333 230.554 98.5253 230.554 98.28C230.554 98.0347 230.639 97.8267 230.81 97.656C230.98 97.4853 231.188 97.4 231.434 97.4C231.679 97.4 231.887 97.4853 232.058 97.656C232.228 97.8267 232.314 98.0347 232.314 98.28C232.314 98.5253 232.228 98.7333 232.058 98.904Z" fill="#1D5556"/>
<mask id="path-2-inside-1_1856_959" fill="white">
<path fill-rule="evenodd" clip-rule="evenodd" d="M275 114C277.761 114 280 111.761 280 109V5C280 2.23858 277.761 -2.41411e-07 275 0L5 2.24511e-05C2.23858 2.24511e-05 -2.41412e-07 2.2386 0 5.00003L9.52909e-06 109C9.52909e-06 111.761 2.23858 114 5.00001 114H20V128L36.8 114L275 114Z"/>
</mask>
<path d="M275 114V112V114ZM275 0V2V0ZM5 2.24511e-05V2.00002V2.24511e-05ZM0 5.00003H-2H0ZM9.52909e-06 109H2.00001H9.52909e-06ZM20 114H22V112H20V114ZM20 128H18V132.27L21.2804 129.536L20 128ZM36.8 114V112H36.0759L35.5196 112.464L36.8 114ZM278 109C278 110.657 276.657 112 275 112V116C278.866 116 282 112.866 282 109H278ZM278 5V109H282V5H278ZM275 2C276.657 2 278 3.34315 278 5H282C282 1.134 278.866 -2 275 -2V2ZM5 2.00002L275 2V-2L5 -1.99998V2.00002ZM2 5.00003C2 3.34317 3.34315 2.00002 5 2.00002V-1.99998C1.134 -1.99998 -2 1.13404 -2 5.00003H2ZM2.00001 109L2 5.00003H-2L-1.99999 109H2.00001ZM5.00001 112C3.34315 112 2.00001 110.657 2.00001 109H-1.99999C-1.99999 112.866 1.13401 116 5.00001 116V112ZM20 112H5.00001V116H20V112ZM22 128V114H18V128H22ZM35.5196 112.464L18.7196 126.464L21.2804 129.536L38.0804 115.536L35.5196 112.464ZM275 112L36.8 112L36.8 116L275 116V112Z" fill="#1D5556" mask="url(#path-2-inside-1_1856_959)"/>
</svg>
