<svg width="256" height="86" viewBox="0 0 256 86" fill="none" xmlns="http://www.w3.org/2000/svg">
<path fill-rule="evenodd" clip-rule="evenodd" d="M251 72C253.761 72 256 69.7614 256 67V5C256 2.23858 253.761 -2.41412e-07 251 0L5 2.1506e-05C2.23858 2.17474e-05 -2.41411e-07 2.2386 0 5.00002L5.85733e-06 67C5.85733e-06 69.7615 2.23858 72 5.00001 72L219.2 72L236 86V72H251Z" fill="#1D5556"/>
<path d="M24.579 36H20.952V20.004L17.573 23.538L15.465 21.337L21.417 15.323H24.579V36ZM35.0224 36.341C32.625 36.341 30.641 35.5763 29.0704 34.047L30.7754 31.288C31.9327 32.5073 33.3484 33.117 35.0224 33.117C36.779 33.117 38.1224 32.4453 39.0524 31.102C40.003 29.7587 40.4784 28.157 40.4784 26.297C40.4784 26.0283 40.468 25.832 40.4474 25.708C39.9307 26.4727 39.166 27.1443 38.1534 27.723C37.1407 28.3017 36.0557 28.591 34.8984 28.591C32.935 28.591 31.292 28.0123 29.9694 26.855C28.6467 25.677 27.9854 24.034 27.9854 21.926C27.9854 19.9627 28.688 18.3197 30.0934 16.997C31.4987 15.6537 33.338 14.982 35.6114 14.982C37.0787 14.982 38.3704 15.2713 39.4864 15.85C40.6024 16.408 41.491 17.183 42.1524 18.175C42.8137 19.167 43.3097 20.2933 43.6404 21.554C43.971 22.794 44.1364 24.158 44.1364 25.646C44.1364 28.7667 43.3407 31.3293 41.7494 33.334C40.158 35.3387 37.9157 36.341 35.0224 36.341ZM35.8904 25.491C36.7584 25.491 37.5954 25.274 38.4014 24.84C39.2074 24.3853 39.879 23.786 40.4164 23.042C40.2924 21.7193 39.8584 20.5827 39.1144 19.632C38.3704 18.6813 37.2647 18.206 35.7974 18.206C34.516 18.206 33.5034 18.578 32.7594 19.322C32.0154 20.0453 31.6434 20.872 31.6434 21.802C31.6434 23.0007 32.0464 23.9203 32.8524 24.561C33.6584 25.181 34.671 25.491 35.8904 25.491ZM49.9394 35.69C49.5054 36.124 48.9991 36.341 48.4204 36.341C47.8418 36.341 47.3354 36.124 46.9014 35.69C46.4674 35.256 46.2504 34.7393 46.2504 34.14C46.2504 33.5613 46.4674 33.0653 46.9014 32.652C47.3354 32.218 47.8418 32.001 48.4204 32.001C48.9991 32.001 49.5054 32.218 49.9394 32.652C50.3734 33.0653 50.5904 33.5613 50.5904 34.14C50.5904 34.7393 50.3734 35.256 49.9394 35.69ZM68.7593 36H53.7863V33.117C58.147 29.8103 61.1023 27.382 62.6523 25.832C64.2023 24.282 64.9773 22.794 64.9773 21.368C64.9773 20.3553 64.6053 19.5803 63.8613 19.043C63.1173 18.5057 62.2287 18.237 61.1953 18.237C58.9427 18.237 57.0827 19.0533 55.6153 20.686L53.5073 18.33C54.396 17.2553 55.512 16.439 56.8553 15.881C58.2193 15.3023 59.6557 15.013 61.1643 15.013C63.2723 15.013 65.0393 15.5813 66.4653 16.718C67.912 17.834 68.6353 19.384 68.6353 21.368C68.6353 23.166 67.8913 24.9433 66.4033 26.7C64.936 28.4567 62.673 30.4923 59.6143 32.807H68.7593V36ZM76.6869 25.274C75.1782 25.274 73.9382 24.7883 72.9669 23.817C72.0162 22.8457 71.5409 21.6263 71.5409 20.159C71.5409 18.6917 72.0162 17.4723 72.9669 16.501C73.9382 15.509 75.1782 15.013 76.6869 15.013C78.2162 15.013 79.4562 15.4987 80.4069 16.47C81.3575 17.4413 81.8329 18.671 81.8329 20.159C81.8329 21.6263 81.3575 22.8457 80.4069 23.817C79.4562 24.7883 78.2162 25.274 76.6869 25.274ZM76.7489 36H74.6719L87.8779 15.323H89.9859L76.7489 36ZM91.5049 34.915C90.5542 35.8863 89.3245 36.372 87.8159 36.372C86.3072 36.372 85.0672 35.8863 84.0959 34.915C83.1452 33.9437 82.6699 32.7243 82.6699 31.257C82.6699 29.7897 83.1452 28.5703 84.0959 27.599C85.0672 26.607 86.3072 26.111 87.8159 26.111C89.3245 26.111 90.5542 26.607 91.5049 27.599C92.4762 28.5703 92.9619 29.7897 92.9619 31.257C92.9619 32.7243 92.4762 33.9437 91.5049 34.915ZM76.6869 23.197C77.4929 23.197 78.1542 22.918 78.6709 22.36C79.1875 21.7813 79.4459 21.0477 79.4459 20.159C79.4459 19.2497 79.1875 18.5057 78.6709 17.927C78.1542 17.3483 77.4929 17.059 76.6869 17.059C75.9015 17.059 75.2505 17.3483 74.7339 17.927C74.2172 18.5057 73.9589 19.2497 73.9589 20.159C73.9589 21.0477 74.2172 21.7813 74.7339 22.36C75.2505 22.918 75.9015 23.197 76.6869 23.197ZM85.8319 33.458C86.3485 34.016 87.0099 34.295 87.8159 34.295C88.6219 34.295 89.2832 34.016 89.7999 33.458C90.3165 32.8793 90.5749 32.1457 90.5749 31.257C90.5749 30.3477 90.3165 29.6037 89.7999 29.025C89.2832 28.4463 88.6219 28.157 87.8159 28.157C87.0099 28.157 86.3485 28.4463 85.8319 29.025C85.3152 29.6037 85.0569 30.3477 85.0569 31.257C85.0569 32.1457 85.3152 32.8793 85.8319 33.458ZM104.4 36H103.072V25.328H107.36C108.395 25.328 109.211 25.6373 109.808 26.256C110.406 26.8747 110.704 27.6373 110.704 28.544C110.704 29.4507 110.4 30.2133 109.792 30.832C109.195 31.4507 108.384 31.76 107.36 31.76H104.4V36ZM107.2 30.576C107.83 30.576 108.342 30.3893 108.736 30.016C109.131 29.632 109.328 29.1413 109.328 28.544C109.328 27.9467 109.131 27.4613 108.736 27.088C108.342 26.704 107.83 26.512 107.2 26.512H104.4V30.576H107.2ZM118.356 35.024C117.662 35.8027 116.74 36.192 115.588 36.192C114.436 36.192 113.508 35.8027 112.804 35.024C112.11 34.2453 111.764 33.28 111.764 32.128C111.764 30.976 112.11 30.016 112.804 29.248C113.508 28.4693 114.436 28.08 115.588 28.08C116.74 28.08 117.662 28.4693 118.356 29.248C119.06 30.016 119.412 30.976 119.412 32.128C119.412 33.28 119.06 34.2453 118.356 35.024ZM113.716 34.256C114.174 34.832 114.798 35.12 115.588 35.12C116.377 35.12 117.001 34.832 117.46 34.256C117.918 33.6693 118.148 32.96 118.148 32.128C118.148 31.296 117.918 30.592 117.46 30.016C117.001 29.44 116.377 29.152 115.588 29.152C114.798 29.152 114.174 29.44 113.716 30.016C113.257 30.592 113.028 31.296 113.028 32.128C113.028 32.96 113.257 33.6693 113.716 34.256ZM122.568 36H121.368V28.272H122.568V29.504C123.304 28.5653 124.163 28.096 125.144 28.096V29.328C124.952 29.3067 124.797 29.296 124.68 29.296C124.307 29.296 123.907 29.424 123.48 29.68C123.053 29.9253 122.749 30.208 122.568 30.528V36ZM130.057 36.192C128.916 36.192 127.988 35.808 127.273 35.04C126.559 34.2613 126.201 33.2907 126.201 32.128C126.201 30.9653 126.559 30 127.273 29.232C127.988 28.464 128.916 28.08 130.057 28.08C131.252 28.08 132.196 28.528 132.889 29.424L132.089 30.144C131.609 29.4827 130.953 29.152 130.121 29.152C129.321 29.152 128.676 29.4347 128.185 30C127.695 30.5547 127.449 31.264 127.449 32.128C127.449 33.0027 127.695 33.7227 128.185 34.288C128.676 34.8427 129.321 35.12 130.121 35.12C130.932 35.12 131.588 34.784 132.089 34.112L132.889 34.848C132.196 35.744 131.252 36.192 130.057 36.192ZM138.091 36.192C136.928 36.192 135.979 35.8187 135.243 35.072C134.507 34.3147 134.139 33.3333 134.139 32.128C134.139 30.9973 134.501 30.0427 135.227 29.264C135.952 28.4747 136.859 28.08 137.947 28.08C139.088 28.08 139.989 28.4747 140.651 29.264C141.323 30.0427 141.659 31.0293 141.659 32.224V32.528H135.419C135.472 33.2853 135.744 33.92 136.235 34.432C136.736 34.944 137.387 35.2 138.187 35.2C139.147 35.2 139.947 34.8693 140.587 34.208L141.163 34.992C140.341 35.792 139.317 36.192 138.091 36.192ZM140.475 31.632C140.464 30.9813 140.24 30.3947 139.803 29.872C139.365 29.3387 138.741 29.072 137.931 29.072C137.163 29.072 136.555 29.3333 136.107 29.856C135.669 30.3787 135.435 30.9707 135.403 31.632H140.475ZM150.018 36H148.834V30.944C148.834 30.2933 148.685 29.8347 148.386 29.568C148.088 29.2907 147.656 29.152 147.09 29.152C146.642 29.152 146.21 29.2693 145.794 29.504C145.378 29.7387 145.048 30.0213 144.802 30.352V36H143.602V28.272H144.802V29.392C145.101 29.0293 145.501 28.72 146.002 28.464C146.504 28.208 147.026 28.08 147.57 28.08C149.202 28.08 150.018 28.912 150.018 30.576V36ZM154.398 36.192C153.246 36.192 152.67 35.5893 152.67 34.384V29.328H151.39V28.272H152.67V26.16H153.886V28.272H155.454V29.328H153.886V34.128C153.886 34.4267 153.95 34.6667 154.078 34.848C154.217 35.0293 154.409 35.12 154.654 35.12C154.996 35.12 155.268 35.008 155.47 34.784L155.822 35.696C155.47 36.0267 154.996 36.192 154.398 36.192ZM163.934 36H162.734V34.848C162.072 35.744 161.203 36.192 160.126 36.192C159.102 36.192 158.27 35.8293 157.63 35.104C157 34.368 156.686 33.3813 156.686 32.144C156.686 30.9173 157.006 29.936 157.646 29.2C158.286 28.4533 159.112 28.08 160.126 28.08C161.192 28.08 162.062 28.5333 162.734 29.44V28.272H163.934V36ZM160.43 35.12C160.888 35.12 161.331 35.0027 161.758 34.768C162.195 34.5227 162.52 34.2293 162.734 33.888V30.4C162.52 30.048 162.195 29.7547 161.758 29.52C161.331 29.2747 160.888 29.152 160.43 29.152C159.662 29.152 159.054 29.4347 158.606 30C158.158 30.5547 157.934 31.2693 157.934 32.144C157.934 33.0187 158.158 33.7333 158.606 34.288C159.054 34.8427 159.662 35.12 160.43 35.12ZM167.505 26.944C167.355 27.0933 167.169 27.168 166.945 27.168C166.721 27.168 166.529 27.0933 166.369 26.944C166.209 26.784 166.129 26.592 166.129 26.368C166.129 26.144 166.209 25.952 166.369 25.792C166.529 25.632 166.721 25.552 166.945 25.552C167.169 25.552 167.355 25.632 167.505 25.792C167.665 25.952 167.745 26.144 167.745 26.368C167.745 26.592 167.665 26.784 167.505 26.944ZM165.249 39.136C164.609 39.136 164.049 38.944 163.569 38.56L163.985 37.664C164.305 37.984 164.673 38.144 165.089 38.144C165.473 38.144 165.777 38.0267 166.001 37.792C166.225 37.568 166.337 37.2213 166.337 36.752V28.272H167.537V36.752C167.537 37.52 167.339 38.1067 166.945 38.512C166.55 38.928 165.985 39.136 165.249 39.136ZM173.434 36.192C172.272 36.192 171.322 35.8187 170.586 35.072C169.85 34.3147 169.482 33.3333 169.482 32.128C169.482 30.9973 169.845 30.0427 170.57 29.264C171.296 28.4747 172.202 28.08 173.29 28.08C174.432 28.08 175.333 28.4747 175.994 29.264C176.666 30.0427 177.002 31.0293 177.002 32.224V32.528H170.762C170.816 33.2853 171.088 33.92 171.578 34.432C172.08 34.944 172.73 35.2 173.53 35.2C174.49 35.2 175.29 34.8693 175.93 34.208L176.506 34.992C175.685 35.792 174.661 36.192 173.434 36.192ZM175.818 31.632C175.808 30.9813 175.584 30.3947 175.146 29.872C174.709 29.3387 174.085 29.072 173.274 29.072C172.506 29.072 171.898 29.3333 171.45 29.856C171.013 30.3787 170.778 30.9707 170.746 31.632H175.818ZM189.887 36H188.687V34.848C188.025 35.744 187.156 36.192 186.079 36.192C185.055 36.192 184.223 35.8293 183.583 35.104C182.953 34.368 182.639 33.3813 182.639 32.144C182.639 30.9173 182.959 29.936 183.599 29.2C184.239 28.4533 185.065 28.08 186.079 28.08C187.145 28.08 188.015 28.5333 188.687 29.44V25.328H189.887V36ZM186.383 35.12C186.841 35.12 187.284 35.0027 187.711 34.768C188.148 34.5227 188.473 34.2293 188.687 33.888V30.4C188.473 30.048 188.148 29.7547 187.711 29.52C187.284 29.2747 186.841 29.152 186.383 29.152C185.615 29.152 185.007 29.4347 184.559 30C184.111 30.5547 183.887 31.2693 183.887 32.144C183.887 33.0187 184.111 33.7333 184.559 34.288C185.007 34.8427 185.615 35.12 186.383 35.12ZM195.794 36.192C194.631 36.192 193.682 35.8187 192.946 35.072C192.21 34.3147 191.842 33.3333 191.842 32.128C191.842 30.9973 192.205 30.0427 192.93 29.264C193.655 28.4747 194.562 28.08 195.65 28.08C196.791 28.08 197.693 28.4747 198.354 29.264C199.026 30.0427 199.362 31.0293 199.362 32.224V32.528H193.122C193.175 33.2853 193.447 33.92 193.938 34.432C194.439 34.944 195.09 35.2 195.89 35.2C196.85 35.2 197.65 34.8693 198.29 34.208L198.866 34.992C198.045 35.792 197.021 36.192 195.794 36.192ZM198.178 31.632C198.167 30.9813 197.943 30.3947 197.506 29.872C197.069 29.3387 196.445 29.072 195.634 29.072C194.866 29.072 194.258 29.3333 193.81 29.856C193.373 30.3787 193.138 30.9707 193.106 31.632H198.178ZM20.008 57.192C18.952 57.192 18.0827 56.7387 17.4 55.832V59.944H16.2V49.272H17.4V50.424C17.688 50.0187 18.0613 49.6933 18.52 49.448C18.9787 49.2027 19.4747 49.08 20.008 49.08C21.032 49.08 21.8587 49.448 22.488 50.184C23.128 50.9093 23.448 51.8907 23.448 53.128C23.448 54.3653 23.128 55.352 22.488 56.088C21.8587 56.824 21.032 57.192 20.008 57.192ZM19.704 56.12C20.4613 56.12 21.064 55.8427 21.512 55.288C21.96 54.7227 22.184 54.0027 22.184 53.128C22.184 52.2533 21.96 51.5387 21.512 50.984C21.064 50.4293 20.4613 50.152 19.704 50.152C19.2453 50.152 18.7973 50.2747 18.36 50.52C17.9333 50.7547 17.6133 51.0427 17.4 51.384V54.872C17.6133 55.224 17.9333 55.5227 18.36 55.768C18.7973 56.0027 19.2453 56.12 19.704 56.12ZM28.8602 57.192C27.6976 57.192 26.7483 56.8187 26.0123 56.072C25.2763 55.3147 24.9083 54.3333 24.9083 53.128C24.9083 51.9973 25.2709 51.0427 25.9963 50.264C26.7216 49.4747 27.6283 49.08 28.7163 49.08C29.8576 49.08 30.7589 49.4747 31.4203 50.264C32.0923 51.0427 32.4283 52.0293 32.4283 53.224V53.528H26.1883C26.2416 54.2853 26.5136 54.92 27.0043 55.432C27.5056 55.944 28.1563 56.2 28.9563 56.2C29.9163 56.2 30.7163 55.8693 31.3563 55.208L31.9323 55.992C31.1109 56.792 30.0869 57.192 28.8602 57.192ZM31.2443 52.632C31.2336 51.9813 31.0096 51.3947 30.5723 50.872C30.1349 50.3387 29.5109 50.072 28.7003 50.072C27.9323 50.072 27.3243 50.3333 26.8763 50.856C26.4389 51.3787 26.2043 51.9707 26.1723 52.632H31.2443ZM35.5719 57H34.3719V49.272H35.5719V50.504C36.3079 49.5653 37.1665 49.096 38.1479 49.096V50.328C37.9559 50.3067 37.8012 50.296 37.6839 50.296C37.3105 50.296 36.9105 50.424 36.4839 50.68C36.0572 50.9253 35.7532 51.208 35.5719 51.528V57ZM42.1171 57.192C40.8158 57.192 39.7758 56.7867 38.9971 55.976L39.6051 55.112C39.8718 55.4213 40.2345 55.6827 40.6931 55.896C41.1625 56.1093 41.6478 56.216 42.1491 56.216C42.7251 56.216 43.1731 56.0933 43.4931 55.848C43.8238 55.6027 43.9891 55.2827 43.9891 54.888C43.9891 54.5467 43.8238 54.28 43.4931 54.088C43.1625 53.8853 42.7625 53.736 42.2931 53.64C41.8238 53.5333 41.3545 53.416 40.8851 53.288C40.4265 53.1493 40.0318 52.92 39.7011 52.6C39.3705 52.2693 39.2051 51.8373 39.2051 51.304C39.2051 50.6747 39.4611 50.1467 39.9731 49.72C40.4851 49.2933 41.1838 49.08 42.0691 49.08C43.2531 49.08 44.2078 49.4533 44.9331 50.2L44.3731 51.032C43.8291 50.3813 43.0611 50.056 42.0691 50.056C41.5465 50.056 41.1305 50.1733 40.8211 50.408C40.5118 50.632 40.3571 50.92 40.3571 51.272C40.3571 51.528 40.4745 51.7413 40.7091 51.912C40.9438 52.0827 41.2371 52.2053 41.5891 52.28C41.9518 52.3547 42.3358 52.4507 42.7411 52.568C43.1571 52.6853 43.5411 52.8187 43.8931 52.968C44.2558 53.1067 44.5545 53.3413 44.7891 53.672C45.0238 53.992 45.1411 54.3867 45.1411 54.856C45.1411 55.5387 44.8745 56.0987 44.3411 56.536C43.8185 56.9733 43.0771 57.192 42.1171 57.192ZM53.2346 56.024C52.5413 56.8027 51.6186 57.192 50.4666 57.192C49.3146 57.192 48.3866 56.8027 47.6826 56.024C46.9893 55.2453 46.6426 54.28 46.6426 53.128C46.6426 51.976 46.9893 51.016 47.6826 50.248C48.3866 49.4693 49.3146 49.08 50.4666 49.08C51.6186 49.08 52.5413 49.4693 53.2346 50.248C53.9386 51.016 54.2906 51.976 54.2906 53.128C54.2906 54.28 53.9386 55.2453 53.2346 56.024ZM48.5946 55.256C49.0533 55.832 49.6773 56.12 50.4666 56.12C51.256 56.12 51.88 55.832 52.3386 55.256C52.7973 54.6693 53.0266 53.96 53.0266 53.128C53.0266 52.296 52.7973 51.592 52.3386 51.016C51.88 50.44 51.256 50.152 50.4666 50.152C49.6773 50.152 49.0533 50.44 48.5946 51.016C48.136 51.592 47.9066 52.296 47.9066 53.128C47.9066 53.96 48.136 54.6693 48.5946 55.256ZM62.6629 57H61.4789V51.944C61.4789 51.2933 61.3295 50.8347 61.0309 50.568C60.7322 50.2907 60.3002 50.152 59.7349 50.152C59.2869 50.152 58.8549 50.2693 58.4389 50.504C58.0229 50.7387 57.6922 51.0213 57.4469 51.352V57H56.2469V49.272H57.4469V50.392C57.7455 50.0293 58.1455 49.72 58.6469 49.464C59.1482 49.208 59.6709 49.08 60.2149 49.08C61.8469 49.08 62.6629 49.912 62.6629 51.576V57ZM71.875 57H70.675V55.848C70.0137 56.744 69.1443 57.192 68.067 57.192C67.043 57.192 66.211 56.8293 65.571 56.104C64.9417 55.368 64.627 54.3813 64.627 53.144C64.627 51.9173 64.947 50.936 65.587 50.2C66.227 49.4533 67.0537 49.08 68.067 49.08C69.1337 49.08 70.003 49.5333 70.675 50.44V49.272H71.875V57ZM68.371 56.12C68.8297 56.12 69.2723 56.0027 69.699 55.768C70.1363 55.5227 70.4617 55.2293 70.675 54.888V51.4C70.4617 51.048 70.1363 50.7547 69.699 50.52C69.2723 50.2747 68.8297 50.152 68.371 50.152C67.603 50.152 66.995 50.4347 66.547 51C66.099 51.5547 65.875 52.2693 65.875 53.144C65.875 54.0187 66.099 54.7333 66.547 55.288C66.995 55.8427 67.603 56.12 68.371 56.12ZM76.7421 57.192C75.4408 57.192 74.4008 56.7867 73.6221 55.976L74.2301 55.112C74.4968 55.4213 74.8595 55.6827 75.3181 55.896C75.7875 56.1093 76.2728 56.216 76.7741 56.216C77.3501 56.216 77.7981 56.0933 78.1181 55.848C78.4488 55.6027 78.6141 55.2827 78.6141 54.888C78.6141 54.5467 78.4488 54.28 78.1181 54.088C77.7875 53.8853 77.3875 53.736 76.9181 53.64C76.4488 53.5333 75.9795 53.416 75.5101 53.288C75.0515 53.1493 74.6568 52.92 74.3261 52.6C73.9955 52.2693 73.8301 51.8373 73.8301 51.304C73.8301 50.6747 74.0861 50.1467 74.5981 49.72C75.1101 49.2933 75.8088 49.08 76.6941 49.08C77.8781 49.08 78.8328 49.4533 79.5581 50.2L78.9981 51.032C78.4541 50.3813 77.6861 50.056 76.6941 50.056C76.1715 50.056 75.7555 50.1733 75.4461 50.408C75.1368 50.632 74.9821 50.92 74.9821 51.272C74.9821 51.528 75.0995 51.7413 75.3341 51.912C75.5688 52.0827 75.8621 52.2053 76.2141 52.28C76.5768 52.3547 76.9608 52.4507 77.3661 52.568C77.7821 52.6853 78.1661 52.8187 78.5181 52.968C78.8808 53.1067 79.1795 53.3413 79.4141 53.672C79.6488 53.992 79.7661 54.3867 79.7661 54.856C79.7661 55.5387 79.4995 56.0987 78.9661 56.536C78.4435 56.9733 77.7021 57.192 76.7421 57.192ZM96.3843 57H95.1843V51.752C95.1843 50.6853 94.7096 50.152 93.7603 50.152C93.3763 50.152 92.9923 50.2693 92.6083 50.504C92.2243 50.728 91.9256 51.0053 91.7123 51.336V57H90.5123V51.752C90.5123 50.6853 90.0376 50.152 89.0883 50.152C88.7149 50.152 88.3363 50.2693 87.9523 50.504C87.5789 50.7387 87.2803 51.0213 87.0563 51.352V57H85.8563V49.272H87.0563V50.392C87.2589 50.0827 87.5949 49.7893 88.0643 49.512C88.5443 49.224 89.0456 49.08 89.5683 49.08C90.1229 49.08 90.5763 49.2133 90.9283 49.48C91.2803 49.7467 91.5149 50.0933 91.6323 50.52C91.8669 50.136 92.2243 49.8 92.7043 49.512C93.1843 49.224 93.6909 49.08 94.2243 49.08C95.6643 49.08 96.3843 49.8587 96.3843 51.416V57ZM105.578 57H104.378V55.848C103.717 56.744 102.847 57.192 101.77 57.192C100.746 57.192 99.9141 56.8293 99.2741 56.104C98.6448 55.368 98.3301 54.3813 98.3301 53.144C98.3301 51.9173 98.6501 50.936 99.2901 50.2C99.9301 49.4533 100.757 49.08 101.77 49.08C102.837 49.08 103.706 49.5333 104.378 50.44V49.272H105.578V57ZM102.074 56.12C102.533 56.12 102.975 56.0027 103.402 55.768C103.839 55.5227 104.165 55.2293 104.378 54.888V51.4C104.165 51.048 103.839 50.7547 103.402 50.52C102.975 50.2747 102.533 50.152 102.074 50.152C101.306 50.152 100.698 50.4347 100.25 51C99.8021 51.5547 99.5781 52.2693 99.5781 53.144C99.5781 54.0187 99.8021 54.7333 100.25 55.288C100.698 55.8427 101.306 56.12 102.074 56.12ZM110.861 60.136C109.667 60.136 108.68 59.7467 107.901 58.968L108.509 58.104C109.064 58.7973 109.848 59.144 110.861 59.144C111.587 59.144 112.157 58.9467 112.573 58.552C112.989 58.1573 113.197 57.608 113.197 56.904V55.752C112.877 56.1147 112.472 56.4187 111.981 56.664C111.501 56.9093 110.989 57.032 110.445 57.032C108.803 57.032 107.981 56.2107 107.981 54.568V49.272H109.181V54.2C109.181 54.8507 109.331 55.3093 109.629 55.576C109.928 55.8427 110.36 55.976 110.925 55.976C111.363 55.976 111.789 55.864 112.205 55.64C112.632 55.4053 112.963 55.128 113.197 54.808V49.272H114.397V56.904C114.397 57.9493 114.061 58.7493 113.389 59.304C112.717 59.8587 111.875 60.136 110.861 60.136ZM122.938 56.024C122.244 56.8027 121.322 57.192 120.17 57.192C119.018 57.192 118.09 56.8027 117.386 56.024C116.692 55.2453 116.346 54.28 116.346 53.128C116.346 51.976 116.692 51.016 117.386 50.248C118.09 49.4693 119.018 49.08 120.17 49.08C121.322 49.08 122.244 49.4693 122.938 50.248C123.642 51.016 123.994 51.976 123.994 53.128C123.994 54.28 123.642 55.2453 122.938 56.024ZM118.298 55.256C118.756 55.832 119.38 56.12 120.17 56.12C120.959 56.12 121.583 55.832 122.042 55.256C122.5 54.6693 122.73 53.96 122.73 53.128C122.73 52.296 122.5 51.592 122.042 51.016C121.583 50.44 120.959 50.152 120.17 50.152C119.38 50.152 118.756 50.44 118.298 51.016C117.839 51.592 117.61 52.296 117.61 53.128C117.61 53.96 117.839 54.6693 118.298 55.256ZM127.15 57H125.95V49.272H127.15V50.504C127.886 49.5653 128.745 49.096 129.726 49.096V50.328C129.534 50.3067 129.379 50.296 129.262 50.296C128.889 50.296 128.489 50.424 128.062 50.68C127.635 50.9253 127.331 51.208 127.15 51.528V57ZM134.735 57.192C133.573 57.192 132.623 56.8187 131.887 56.072C131.151 55.3147 130.783 54.3333 130.783 53.128C130.783 51.9973 131.146 51.0427 131.871 50.264C132.597 49.4747 133.503 49.08 134.591 49.08C135.733 49.08 136.634 49.4747 137.295 50.264C137.967 51.0427 138.303 52.0293 138.303 53.224V53.528H132.063C132.117 54.2853 132.389 54.92 132.879 55.432C133.381 55.944 134.031 56.2 134.831 56.2C135.791 56.2 136.591 55.8693 137.231 55.208L137.807 55.992C136.986 56.792 135.962 57.192 134.735 57.192ZM137.119 52.632C137.109 51.9813 136.885 51.3947 136.447 50.872C136.01 50.3387 135.386 50.072 134.575 50.072C133.807 50.072 133.199 50.3333 132.751 50.856C132.314 51.3787 132.079 51.9707 132.047 52.632H137.119ZM142.711 57.192C141.41 57.192 140.37 56.7867 139.591 55.976L140.199 55.112C140.466 55.4213 140.828 55.6827 141.287 55.896C141.756 56.1093 142.242 56.216 142.743 56.216C143.319 56.216 143.767 56.0933 144.087 55.848C144.418 55.6027 144.583 55.2827 144.583 54.888C144.583 54.5467 144.418 54.28 144.087 54.088C143.756 53.8853 143.356 53.736 142.887 53.64C142.418 53.5333 141.948 53.416 141.479 53.288C141.02 53.1493 140.626 52.92 140.295 52.6C139.964 52.2693 139.799 51.8373 139.799 51.304C139.799 50.6747 140.055 50.1467 140.567 49.72C141.079 49.2933 141.778 49.08 142.663 49.08C143.847 49.08 144.802 49.4533 145.527 50.2L144.967 51.032C144.423 50.3813 143.655 50.056 142.663 50.056C142.14 50.056 141.724 50.1733 141.415 50.408C141.106 50.632 140.951 50.92 140.951 51.272C140.951 51.528 141.068 51.7413 141.303 51.912C141.538 52.0827 141.831 52.2053 142.183 52.28C142.546 52.3547 142.93 52.4507 143.335 52.568C143.751 52.6853 144.135 52.8187 144.487 52.968C144.85 53.1067 145.148 53.3413 145.383 53.672C145.618 53.992 145.735 54.3867 145.735 54.856C145.735 55.5387 145.468 56.0987 144.935 56.536C144.412 56.9733 143.671 57.192 142.711 57.192ZM155.329 57.192C154.166 57.192 153.217 56.8187 152.481 56.072C151.745 55.3147 151.377 54.3333 151.377 53.128C151.377 51.9973 151.74 51.0427 152.465 50.264C153.19 49.4747 154.097 49.08 155.185 49.08C156.326 49.08 157.228 49.4747 157.889 50.264C158.561 51.0427 158.897 52.0293 158.897 53.224V53.528H152.657C152.71 54.2853 152.982 54.92 153.473 55.432C153.974 55.944 154.625 56.2 155.425 56.2C156.385 56.2 157.185 55.8693 157.825 55.208L158.401 55.992C157.58 56.792 156.556 57.192 155.329 57.192ZM157.713 52.632C157.702 51.9813 157.478 51.3947 157.041 50.872C156.604 50.3387 155.98 50.072 155.169 50.072C154.401 50.072 153.793 50.3333 153.345 50.856C152.908 51.3787 152.673 51.9707 152.641 52.632H157.713ZM167.257 57H166.073V51.944C166.073 51.2933 165.923 50.8347 165.625 50.568C165.326 50.2907 164.894 50.152 164.329 50.152C163.881 50.152 163.449 50.2693 163.033 50.504C162.617 50.7387 162.286 51.0213 162.041 51.352V57H160.841V49.272H162.041V50.392C162.339 50.0293 162.739 49.72 163.241 49.464C163.742 49.208 164.265 49.08 164.809 49.08C166.441 49.08 167.257 49.912 167.257 51.576V57ZM178.913 57.192C177.356 57.192 176.049 56.68 174.993 55.656C173.948 54.6213 173.425 53.2933 173.425 51.672C173.425 50.0507 173.948 48.728 174.993 47.704C176.049 46.6693 177.356 46.152 178.913 46.152C180.631 46.152 181.98 46.856 182.961 48.264L181.857 48.888C181.548 48.4187 181.127 48.0453 180.593 47.768C180.071 47.48 179.511 47.336 178.913 47.336C177.729 47.336 176.748 47.7413 175.969 48.552C175.191 49.3627 174.801 50.4027 174.801 51.672C174.801 52.9307 175.191 53.9707 175.969 54.792C176.759 55.6027 177.74 56.008 178.913 56.008C179.511 56.008 180.071 55.864 180.593 55.576C181.127 55.288 181.548 54.9147 181.857 54.456L182.977 55.064C181.943 56.4827 180.588 57.192 178.913 57.192ZM190.766 56.024C190.073 56.8027 189.15 57.192 187.998 57.192C186.846 57.192 185.918 56.8027 185.214 56.024C184.521 55.2453 184.174 54.28 184.174 53.128C184.174 51.976 184.521 51.016 185.214 50.248C185.918 49.4693 186.846 49.08 187.998 49.08C189.15 49.08 190.073 49.4693 190.766 50.248C191.47 51.016 191.822 51.976 191.822 53.128C191.822 54.28 191.47 55.2453 190.766 56.024ZM186.126 55.256C186.585 55.832 187.209 56.12 187.998 56.12C188.787 56.12 189.411 55.832 189.87 55.256C190.329 54.6693 190.558 53.96 190.558 53.128C190.558 52.296 190.329 51.592 189.87 51.016C189.411 50.44 188.787 50.152 187.998 50.152C187.209 50.152 186.585 50.44 186.126 51.016C185.667 51.592 185.438 52.296 185.438 53.128C185.438 53.96 185.667 54.6693 186.126 55.256ZM195.49 57.192C194.925 57.192 194.498 57.0373 194.21 56.728C193.922 56.4187 193.778 55.9707 193.778 55.384V46.328H194.978V55.128C194.978 55.4267 195.042 55.6667 195.17 55.848C195.309 56.0293 195.506 56.12 195.762 56.12C196.114 56.12 196.381 56.008 196.562 55.784L196.93 56.696C196.567 57.0267 196.087 57.192 195.49 57.192ZM204.219 56.024C203.526 56.8027 202.603 57.192 201.451 57.192C200.299 57.192 199.371 56.8027 198.667 56.024C197.974 55.2453 197.627 54.28 197.627 53.128C197.627 51.976 197.974 51.016 198.667 50.248C199.371 49.4693 200.299 49.08 201.451 49.08C202.603 49.08 203.526 49.4693 204.219 50.248C204.923 51.016 205.275 51.976 205.275 53.128C205.275 54.28 204.923 55.2453 204.219 56.024ZM199.579 55.256C200.038 55.832 200.662 56.12 201.451 56.12C202.24 56.12 202.864 55.832 203.323 55.256C203.782 54.6693 204.011 53.96 204.011 53.128C204.011 52.296 203.782 51.592 203.323 51.016C202.864 50.44 202.24 50.152 201.451 50.152C200.662 50.152 200.038 50.44 199.579 51.016C199.12 51.592 198.891 52.296 198.891 53.128C198.891 53.96 199.12 54.6693 199.579 55.256ZM217.759 57H216.559V51.752C216.559 50.6853 216.085 50.152 215.135 50.152C214.751 50.152 214.367 50.2693 213.983 50.504C213.599 50.728 213.301 51.0053 213.087 51.336V57H211.887V51.752C211.887 50.6853 211.413 50.152 210.463 50.152C210.09 50.152 209.711 50.2693 209.327 50.504C208.954 50.7387 208.655 51.0213 208.431 51.352V57H207.231V49.272H208.431V50.392C208.634 50.0827 208.97 49.7893 209.439 49.512C209.919 49.224 210.421 49.08 210.943 49.08C211.498 49.08 211.951 49.2133 212.303 49.48C212.655 49.7467 212.89 50.0933 213.007 50.52C213.242 50.136 213.599 49.8 214.079 49.512C214.559 49.224 215.066 49.08 215.599 49.08C217.039 49.08 217.759 49.8587 217.759 51.416V57ZM221.353 54.904C221.566 55.2453 221.886 55.5333 222.313 55.768C222.75 56.0027 223.204 56.12 223.673 56.12C224.43 56.12 225.033 55.8427 225.481 55.288C225.929 54.7333 226.153 54.0187 226.153 53.144C226.153 52.2693 225.929 51.5547 225.481 51C225.033 50.4347 224.43 50.152 223.673 50.152C223.204 50.152 222.75 50.2747 222.313 50.52C221.886 50.7547 221.566 51.048 221.353 51.4V54.904ZM221.353 57H220.153V46.328H221.353V50.44C222.025 49.5333 222.894 49.08 223.961 49.08C224.985 49.08 225.812 49.4533 226.441 50.2C227.081 50.936 227.401 51.9173 227.401 53.144C227.401 54.3813 227.081 55.368 226.441 56.104C225.812 56.8293 224.985 57.192 223.961 57.192C222.884 57.192 222.014 56.744 221.353 55.848V57ZM230.524 47.944C230.375 48.0933 230.188 48.168 229.964 48.168C229.74 48.168 229.548 48.0933 229.388 47.944C229.228 47.784 229.148 47.592 229.148 47.368C229.148 47.144 229.228 46.952 229.388 46.792C229.548 46.632 229.74 46.552 229.964 46.552C230.188 46.552 230.375 46.632 230.524 46.792C230.684 46.952 230.764 47.144 230.764 47.368C230.764 47.592 230.684 47.784 230.524 47.944ZM230.556 57H229.356V49.272H230.556V57ZM239.75 57H238.55V55.848C237.889 56.744 237.019 57.192 235.942 57.192C234.918 57.192 234.086 56.8293 233.446 56.104C232.817 55.368 232.502 54.3813 232.502 53.144C232.502 51.9173 232.822 50.936 233.462 50.2C234.102 49.4533 234.929 49.08 235.942 49.08C237.009 49.08 237.878 49.5333 238.55 50.44V49.272H239.75V57ZM236.246 56.12C236.705 56.12 237.147 56.0027 237.574 55.768C238.011 55.5227 238.337 55.2293 238.55 54.888V51.4C238.337 51.048 238.011 50.7547 237.574 50.52C237.147 50.2747 236.705 50.152 236.246 50.152C235.478 50.152 234.87 50.4347 234.422 51C233.974 51.5547 233.75 52.2693 233.75 53.144C233.75 54.0187 233.974 54.7333 234.422 55.288C234.87 55.8427 235.478 56.12 236.246 56.12Z" fill="#FAFAFA"/>
</svg>
