<svg width="256" height="86" viewBox="0 0 256 86" fill="none" xmlns="http://www.w3.org/2000/svg">
<path fill-rule="evenodd" clip-rule="evenodd" d="M251 72C253.761 72 256 69.7614 256 67V5C256 2.23858 253.761 -2.41412e-07 251 0L5 2.1506e-05C2.23858 2.17474e-05 -2.41411e-07 2.2386 0 5.00002L5.85733e-06 67C5.85733e-06 69.7615 2.23858 72 5.00001 72L219.2 72L236 86V72H251Z" fill="#1D5556"/>
<path d="M24.579 36H20.952V20.004L17.573 23.538L15.465 21.337L21.417 15.323H24.579V36ZM41.1294 36H37.5024V31.319H27.6444V28.405L36.1384 15.323H41.1294V28.126H43.8884V31.319H41.1294V36ZM37.5024 28.126V18.578L31.2094 28.126H37.5024ZM50.8968 34.822C50.8968 35.876 50.6281 36.868 50.0908 37.798C49.5741 38.728 48.8818 39.503 48.0138 40.123L46.5258 38.914C47.0425 38.604 47.5178 38.17 47.9518 37.612C48.4065 37.054 48.6751 36.5167 48.7578 36C48.6338 36.062 48.4581 36.093 48.2308 36.093C47.7141 36.093 47.2801 35.907 46.9288 35.535C46.5775 35.163 46.4018 34.6877 46.4018 34.109C46.4018 33.5303 46.6085 33.0343 47.0218 32.621C47.4351 32.2077 47.9311 32.001 48.5098 32.001C49.1711 32.001 49.7291 32.2593 50.1838 32.776C50.6591 33.272 50.8968 33.954 50.8968 34.822ZM60.6034 36.341C58.2061 36.341 56.2221 35.5763 54.6514 34.047L56.3564 31.288C57.5138 32.5073 58.9294 33.117 60.6034 33.117C62.3601 33.117 63.7034 32.4453 64.6334 31.102C65.5841 29.7587 66.0594 28.157 66.0594 26.297C66.0594 26.0283 66.0491 25.832 66.0284 25.708C65.5118 26.4727 64.7471 27.1443 63.7344 27.723C62.7218 28.3017 61.6368 28.591 60.4794 28.591C58.5161 28.591 56.8731 28.0123 55.5504 26.855C54.2278 25.677 53.5664 24.034 53.5664 21.926C53.5664 19.9627 54.2691 18.3197 55.6744 16.997C57.0798 15.6537 58.9191 14.982 61.1924 14.982C62.6598 14.982 63.9514 15.2713 65.0674 15.85C66.1834 16.408 67.0721 17.183 67.7334 18.175C68.3948 19.167 68.8908 20.2933 69.2214 21.554C69.5521 22.794 69.7174 24.158 69.7174 25.646C69.7174 28.7667 68.9218 31.3293 67.3304 33.334C65.7391 35.3387 63.4968 36.341 60.6034 36.341ZM61.4714 25.491C62.3394 25.491 63.1764 25.274 63.9824 24.84C64.7884 24.3853 65.4601 23.786 65.9974 23.042C65.8734 21.7193 65.4394 20.5827 64.6954 19.632C63.9514 18.6813 62.8458 18.206 61.3784 18.206C60.0971 18.206 59.0844 18.578 58.3404 19.322C57.5964 20.0453 57.2244 20.872 57.2244 21.802C57.2244 23.0007 57.6274 23.9203 58.4334 24.561C59.2394 25.181 60.2521 25.491 61.4714 25.491ZM76.9896 25.274C75.4809 25.274 74.2409 24.7883 73.2696 23.817C72.3189 22.8457 71.8436 21.6263 71.8436 20.159C71.8436 18.6917 72.3189 17.4723 73.2696 16.501C74.2409 15.509 75.4809 15.013 76.9896 15.013C78.5189 15.013 79.7589 15.4987 80.7096 16.47C81.6603 17.4413 82.1356 18.671 82.1356 20.159C82.1356 21.6263 81.6603 22.8457 80.7096 23.817C79.7589 24.7883 78.5189 25.274 76.9896 25.274ZM77.0516 36H74.9746L88.1806 15.323H90.2886L77.0516 36ZM91.8076 34.915C90.8569 35.8863 89.6273 36.372 88.1186 36.372C86.6099 36.372 85.3699 35.8863 84.3986 34.915C83.4479 33.9437 82.9726 32.7243 82.9726 31.257C82.9726 29.7897 83.4479 28.5703 84.3986 27.599C85.3699 26.607 86.6099 26.111 88.1186 26.111C89.6273 26.111 90.8569 26.607 91.8076 27.599C92.7789 28.5703 93.2646 29.7897 93.2646 31.257C93.2646 32.7243 92.7789 33.9437 91.8076 34.915ZM76.9896 23.197C77.7956 23.197 78.4569 22.918 78.9736 22.36C79.4903 21.7813 79.7486 21.0477 79.7486 20.159C79.7486 19.2497 79.4903 18.5057 78.9736 17.927C78.4569 17.3483 77.7956 17.059 76.9896 17.059C76.2043 17.059 75.5533 17.3483 75.0366 17.927C74.5199 18.5057 74.2616 19.2497 74.2616 20.159C74.2616 21.0477 74.5199 21.7813 75.0366 22.36C75.5533 22.918 76.2043 23.197 76.9896 23.197ZM86.1346 33.458C86.6513 34.016 87.3126 34.295 88.1186 34.295C88.9246 34.295 89.5859 34.016 90.1026 33.458C90.6193 32.8793 90.8776 32.1457 90.8776 31.257C90.8776 30.3477 90.6193 29.6037 90.1026 29.025C89.5859 28.4463 88.9246 28.157 88.1186 28.157C87.3126 28.157 86.6513 28.4463 86.1346 29.025C85.6179 29.6037 85.3596 30.3477 85.3596 31.257C85.3596 32.1457 85.6179 32.8793 86.1346 33.458ZM106.831 36.192C105.668 36.192 104.719 35.8187 103.983 35.072C103.247 34.3147 102.879 33.3333 102.879 32.128C102.879 30.9973 103.242 30.0427 103.967 29.264C104.692 28.4747 105.599 28.08 106.687 28.08C107.828 28.08 108.73 28.4747 109.391 29.264C110.063 30.0427 110.399 31.0293 110.399 32.224V32.528H104.159C104.212 33.2853 104.484 33.92 104.975 34.432C105.476 34.944 106.127 35.2 106.927 35.2C107.887 35.2 108.687 34.8693 109.327 34.208L109.903 34.992C109.082 35.792 108.058 36.192 106.831 36.192ZM109.215 31.632C109.204 30.9813 108.98 30.3947 108.543 29.872C108.106 29.3387 107.482 29.072 106.671 29.072C105.903 29.072 105.295 29.3333 104.847 29.856C104.41 30.3787 104.175 30.9707 104.143 31.632H109.215ZM114.807 36.192C113.505 36.192 112.465 35.7867 111.687 34.976L112.295 34.112C112.561 34.4213 112.924 34.6827 113.383 34.896C113.852 35.1093 114.337 35.216 114.839 35.216C115.415 35.216 115.863 35.0933 116.183 34.848C116.513 34.6027 116.679 34.2827 116.679 33.888C116.679 33.5467 116.513 33.28 116.183 33.088C115.852 32.8853 115.452 32.736 114.983 32.64C114.513 32.5333 114.044 32.416 113.575 32.288C113.116 32.1493 112.721 31.92 112.391 31.6C112.06 31.2693 111.895 30.8373 111.895 30.304C111.895 29.6747 112.151 29.1467 112.663 28.72C113.175 28.2933 113.873 28.08 114.759 28.08C115.943 28.08 116.897 28.4533 117.623 29.2L117.063 30.032C116.519 29.3813 115.751 29.056 114.759 29.056C114.236 29.056 113.82 29.1733 113.511 29.408C113.201 29.632 113.047 29.92 113.047 30.272C113.047 30.528 113.164 30.7413 113.399 30.912C113.633 31.0827 113.927 31.2053 114.279 31.28C114.641 31.3547 115.025 31.4507 115.431 31.568C115.847 31.6853 116.231 31.8187 116.583 31.968C116.945 32.1067 117.244 32.3413 117.479 32.672C117.713 32.992 117.831 33.3867 117.831 33.856C117.831 34.5387 117.564 35.0987 117.031 35.536C116.508 35.9733 115.767 36.192 114.807 36.192ZM127.425 36.192C126.262 36.192 125.313 35.8187 124.577 35.072C123.841 34.3147 123.473 33.3333 123.473 32.128C123.473 30.9973 123.835 30.0427 124.561 29.264C125.286 28.4747 126.193 28.08 127.281 28.08C128.422 28.08 129.323 28.4747 129.985 29.264C130.657 30.0427 130.993 31.0293 130.993 32.224V32.528H124.753C124.806 33.2853 125.078 33.92 125.569 34.432C126.07 34.944 126.721 35.2 127.521 35.2C128.481 35.2 129.281 34.8693 129.921 34.208L130.497 34.992C129.675 35.792 128.651 36.192 127.425 36.192ZM129.809 31.632C129.798 30.9813 129.574 30.3947 129.137 29.872C128.699 29.3387 128.075 29.072 127.265 29.072C126.497 29.072 125.889 29.3333 125.441 29.856C125.003 30.3787 124.769 30.9707 124.737 31.632H129.809ZM134.648 36.192C134.083 36.192 133.656 36.0373 133.368 35.728C133.08 35.4187 132.936 34.9707 132.936 34.384V25.328H134.136V34.128C134.136 34.4267 134.2 34.6667 134.328 34.848C134.467 35.0293 134.664 35.12 134.92 35.12C135.272 35.12 135.539 35.008 135.72 34.784L136.088 35.696C135.726 36.0267 135.246 36.192 134.648 36.192ZM145.182 36.192C144.126 36.192 143.256 35.7387 142.574 34.832V38.944H141.374V28.272H142.574V29.424C142.862 29.0187 143.235 28.6933 143.694 28.448C144.152 28.2027 144.648 28.08 145.182 28.08C146.206 28.08 147.032 28.448 147.662 29.184C148.302 29.9093 148.622 30.8907 148.622 32.128C148.622 33.3653 148.302 34.352 147.662 35.088C147.032 35.824 146.206 36.192 145.182 36.192ZM144.878 35.12C145.635 35.12 146.238 34.8427 146.686 34.288C147.134 33.7227 147.358 33.0027 147.358 32.128C147.358 31.2533 147.134 30.5387 146.686 29.984C146.238 29.4293 145.635 29.152 144.878 29.152C144.419 29.152 143.971 29.2747 143.534 29.52C143.107 29.7547 142.787 30.0427 142.574 30.384V33.872C142.787 34.224 143.107 34.5227 143.534 34.768C143.971 35.0027 144.419 35.12 144.878 35.12ZM156.674 35.024C155.981 35.8027 155.058 36.192 153.906 36.192C152.754 36.192 151.826 35.8027 151.122 35.024C150.429 34.2453 150.082 33.28 150.082 32.128C150.082 30.976 150.429 30.016 151.122 29.248C151.826 28.4693 152.754 28.08 153.906 28.08C155.058 28.08 155.981 28.4693 156.674 29.248C157.378 30.016 157.73 30.976 157.73 32.128C157.73 33.28 157.378 34.2453 156.674 35.024ZM152.034 34.256C152.493 34.832 153.117 35.12 153.906 35.12C154.695 35.12 155.319 34.832 155.778 34.256C156.237 33.6693 156.466 32.96 156.466 32.128C156.466 31.296 156.237 30.592 155.778 30.016C155.319 29.44 154.695 29.152 153.906 29.152C153.117 29.152 152.493 29.44 152.034 30.016C151.575 30.592 151.346 31.296 151.346 32.128C151.346 32.96 151.575 33.6693 152.034 34.256ZM160.886 36H159.686V28.272H160.886V29.504C161.622 28.5653 162.481 28.096 163.462 28.096V29.328C163.27 29.3067 163.116 29.296 162.998 29.296C162.625 29.296 162.225 29.424 161.798 29.68C161.372 29.9253 161.068 30.208 160.886 30.528V36ZM168.376 36.192C167.234 36.192 166.306 35.808 165.592 35.04C164.877 34.2613 164.52 33.2907 164.52 32.128C164.52 30.9653 164.877 30 165.592 29.232C166.306 28.464 167.234 28.08 168.376 28.08C169.57 28.08 170.514 28.528 171.208 29.424L170.408 30.144C169.928 29.4827 169.272 29.152 168.44 29.152C167.64 29.152 166.994 29.4347 166.504 30C166.013 30.5547 165.768 31.264 165.768 32.128C165.768 33.0027 166.013 33.7227 166.504 34.288C166.994 34.8427 167.64 35.12 168.44 35.12C169.25 35.12 169.906 34.784 170.408 34.112L171.208 34.848C170.514 35.744 169.57 36.192 168.376 36.192ZM176.409 36.192C175.246 36.192 174.297 35.8187 173.561 35.072C172.825 34.3147 172.457 33.3333 172.457 32.128C172.457 30.9973 172.82 30.0427 173.545 29.264C174.27 28.4747 175.177 28.08 176.265 28.08C177.406 28.08 178.308 28.4747 178.969 29.264C179.641 30.0427 179.977 31.0293 179.977 32.224V32.528H173.737C173.79 33.2853 174.062 33.92 174.553 34.432C175.054 34.944 175.705 35.2 176.505 35.2C177.465 35.2 178.265 34.8693 178.905 34.208L179.481 34.992C178.66 35.792 177.636 36.192 176.409 36.192ZM178.793 31.632C178.782 30.9813 178.558 30.3947 178.121 29.872C177.684 29.3387 177.06 29.072 176.249 29.072C175.481 29.072 174.873 29.3333 174.425 29.856C173.988 30.3787 173.753 30.9707 173.721 31.632H178.793ZM188.337 36H187.153V30.944C187.153 30.2933 187.003 29.8347 186.705 29.568C186.406 29.2907 185.974 29.152 185.409 29.152C184.961 29.152 184.529 29.2693 184.113 29.504C183.697 29.7387 183.366 30.0213 183.121 30.352V36H181.921V28.272H183.121V29.392C183.419 29.0293 183.819 28.72 184.321 28.464C184.822 28.208 185.345 28.08 185.889 28.08C187.521 28.08 188.337 28.912 188.337 30.576V36ZM192.717 36.192C191.565 36.192 190.989 35.5893 190.989 34.384V29.328H189.709V28.272H190.989V26.16H192.205V28.272H193.773V29.328H192.205V34.128C192.205 34.4267 192.269 34.6667 192.397 34.848C192.535 35.0293 192.727 35.12 192.973 35.12C193.314 35.12 193.586 35.008 193.789 34.784L194.141 35.696C193.789 36.0267 193.314 36.192 192.717 36.192ZM202.252 36H201.052V34.848C200.391 35.744 199.521 36.192 198.444 36.192C197.42 36.192 196.588 35.8293 195.948 35.104C195.319 34.368 195.004 33.3813 195.004 32.144C195.004 30.9173 195.324 29.936 195.964 29.2C196.604 28.4533 197.431 28.08 198.444 28.08C199.511 28.08 200.38 28.5333 201.052 29.44V28.272H202.252V36ZM198.748 35.12C199.207 35.12 199.649 35.0027 200.076 34.768C200.513 34.5227 200.839 34.2293 201.052 33.888V30.4C200.839 30.048 200.513 29.7547 200.076 29.52C199.649 29.2747 199.207 29.152 198.748 29.152C197.98 29.152 197.372 29.4347 196.924 30C196.476 30.5547 196.252 31.2693 196.252 32.144C196.252 33.0187 196.476 33.7333 196.924 34.288C197.372 34.8427 197.98 35.12 198.748 35.12ZM205.823 26.944C205.674 27.0933 205.487 27.168 205.263 27.168C205.039 27.168 204.847 27.0933 204.687 26.944C204.527 26.784 204.447 26.592 204.447 26.368C204.447 26.144 204.527 25.952 204.687 25.792C204.847 25.632 205.039 25.552 205.263 25.552C205.487 25.552 205.674 25.632 205.823 25.792C205.983 25.952 206.063 26.144 206.063 26.368C206.063 26.592 205.983 26.784 205.823 26.944ZM203.567 39.136C202.927 39.136 202.367 38.944 201.887 38.56L202.303 37.664C202.623 37.984 202.991 38.144 203.407 38.144C203.791 38.144 204.095 38.0267 204.319 37.792C204.543 37.568 204.655 37.2213 204.655 36.752V28.272H205.855V36.752C205.855 37.52 205.658 38.1067 205.263 38.512C204.868 38.928 204.303 39.136 203.567 39.136ZM211.753 36.192C210.59 36.192 209.641 35.8187 208.905 35.072C208.169 34.3147 207.801 33.3333 207.801 32.128C207.801 30.9973 208.163 30.0427 208.889 29.264C209.614 28.4747 210.521 28.08 211.609 28.08C212.75 28.08 213.651 28.4747 214.313 29.264C214.985 30.0427 215.321 31.0293 215.321 32.224V32.528H209.081C209.134 33.2853 209.406 33.92 209.897 34.432C210.398 34.944 211.049 35.2 211.849 35.2C212.809 35.2 213.609 34.8693 214.249 34.208L214.825 34.992C214.003 35.792 212.979 36.192 211.753 36.192ZM214.137 31.632C214.126 30.9813 213.902 30.3947 213.465 29.872C213.027 29.3387 212.403 29.072 211.593 29.072C210.825 29.072 210.217 29.3333 209.769 29.856C209.331 30.3787 209.097 30.9707 209.065 31.632H214.137ZM228.205 36H227.005V34.848C226.344 35.744 225.474 36.192 224.397 36.192C223.373 36.192 222.541 35.8293 221.901 35.104C221.272 34.368 220.957 33.3813 220.957 32.144C220.957 30.9173 221.277 29.936 221.917 29.2C222.557 28.4533 223.384 28.08 224.397 28.08C225.464 28.08 226.333 28.5333 227.005 29.44V25.328H228.205V36ZM224.701 35.12C225.16 35.12 225.602 35.0027 226.029 34.768C226.466 34.5227 226.792 34.2293 227.005 33.888V30.4C226.792 30.048 226.466 29.7547 226.029 29.52C225.602 29.2747 225.16 29.152 224.701 29.152C223.933 29.152 223.325 29.4347 222.877 30C222.429 30.5547 222.205 31.2693 222.205 32.144C222.205 33.0187 222.429 33.7333 222.877 34.288C223.325 34.8427 223.933 35.12 224.701 35.12ZM234.112 36.192C232.95 36.192 232 35.8187 231.264 35.072C230.528 34.3147 230.16 33.3333 230.16 32.128C230.16 30.9973 230.523 30.0427 231.248 29.264C231.974 28.4747 232.88 28.08 233.968 28.08C235.11 28.08 236.011 28.4747 236.672 29.264C237.344 30.0427 237.68 31.0293 237.68 32.224V32.528H231.44C231.494 33.2853 231.766 33.92 232.256 34.432C232.758 34.944 233.408 35.2 234.208 35.2C235.168 35.2 235.968 34.8693 236.608 34.208L237.184 34.992C236.363 35.792 235.339 36.192 234.112 36.192ZM236.496 31.632C236.486 30.9813 236.262 30.3947 235.824 29.872C235.387 29.3387 234.763 29.072 233.952 29.072C233.184 29.072 232.576 29.3333 232.128 29.856C231.691 30.3787 231.456 30.9707 231.424 31.632H236.496ZM20.008 57.192C18.952 57.192 18.0827 56.7387 17.4 55.832V59.944H16.2V49.272H17.4V50.424C17.688 50.0187 18.0613 49.6933 18.52 49.448C18.9787 49.2027 19.4747 49.08 20.008 49.08C21.032 49.08 21.8587 49.448 22.488 50.184C23.128 50.9093 23.448 51.8907 23.448 53.128C23.448 54.3653 23.128 55.352 22.488 56.088C21.8587 56.824 21.032 57.192 20.008 57.192ZM19.704 56.12C20.4613 56.12 21.064 55.8427 21.512 55.288C21.96 54.7227 22.184 54.0027 22.184 53.128C22.184 52.2533 21.96 51.5387 21.512 50.984C21.064 50.4293 20.4613 50.152 19.704 50.152C19.2453 50.152 18.7973 50.2747 18.36 50.52C17.9333 50.7547 17.6133 51.0427 17.4 51.384V54.872C17.6133 55.224 17.9333 55.5227 18.36 55.768C18.7973 56.0027 19.2453 56.12 19.704 56.12ZM28.8602 57.192C27.6976 57.192 26.7483 56.8187 26.0123 56.072C25.2763 55.3147 24.9083 54.3333 24.9083 53.128C24.9083 51.9973 25.2709 51.0427 25.9963 50.264C26.7216 49.4747 27.6283 49.08 28.7163 49.08C29.8576 49.08 30.7589 49.4747 31.4203 50.264C32.0923 51.0427 32.4283 52.0293 32.4283 53.224V53.528H26.1883C26.2416 54.2853 26.5136 54.92 27.0043 55.432C27.5056 55.944 28.1563 56.2 28.9563 56.2C29.9163 56.2 30.7163 55.8693 31.3563 55.208L31.9323 55.992C31.1109 56.792 30.0869 57.192 28.8602 57.192ZM31.2443 52.632C31.2336 51.9813 31.0096 51.3947 30.5723 50.872C30.1349 50.3387 29.5109 50.072 28.7003 50.072C27.9323 50.072 27.3243 50.3333 26.8763 50.856C26.4389 51.3787 26.2043 51.9707 26.1723 52.632H31.2443ZM35.5719 57H34.3719V49.272H35.5719V50.504C36.3079 49.5653 37.1665 49.096 38.1479 49.096V50.328C37.9559 50.3067 37.8012 50.296 37.6839 50.296C37.3105 50.296 36.9105 50.424 36.4839 50.68C36.0572 50.9253 35.7532 51.208 35.5719 51.528V57ZM42.1171 57.192C40.8158 57.192 39.7758 56.7867 38.9971 55.976L39.6051 55.112C39.8718 55.4213 40.2345 55.6827 40.6931 55.896C41.1625 56.1093 41.6478 56.216 42.1491 56.216C42.7251 56.216 43.1731 56.0933 43.4931 55.848C43.8238 55.6027 43.9891 55.2827 43.9891 54.888C43.9891 54.5467 43.8238 54.28 43.4931 54.088C43.1625 53.8853 42.7625 53.736 42.2931 53.64C41.8238 53.5333 41.3545 53.416 40.8851 53.288C40.4265 53.1493 40.0318 52.92 39.7011 52.6C39.3705 52.2693 39.2051 51.8373 39.2051 51.304C39.2051 50.6747 39.4611 50.1467 39.9731 49.72C40.4851 49.2933 41.1838 49.08 42.0691 49.08C43.2531 49.08 44.2078 49.4533 44.9331 50.2L44.3731 51.032C43.8291 50.3813 43.0611 50.056 42.0691 50.056C41.5465 50.056 41.1305 50.1733 40.8211 50.408C40.5118 50.632 40.3571 50.92 40.3571 51.272C40.3571 51.528 40.4745 51.7413 40.7091 51.912C40.9438 52.0827 41.2371 52.2053 41.5891 52.28C41.9518 52.3547 42.3358 52.4507 42.7411 52.568C43.1571 52.6853 43.5411 52.8187 43.8931 52.968C44.2558 53.1067 44.5545 53.3413 44.7891 53.672C45.0238 53.992 45.1411 54.3867 45.1411 54.856C45.1411 55.5387 44.8745 56.0987 44.3411 56.536C43.8185 56.9733 43.0771 57.192 42.1171 57.192ZM53.2346 56.024C52.5413 56.8027 51.6186 57.192 50.4666 57.192C49.3146 57.192 48.3866 56.8027 47.6826 56.024C46.9893 55.2453 46.6426 54.28 46.6426 53.128C46.6426 51.976 46.9893 51.016 47.6826 50.248C48.3866 49.4693 49.3146 49.08 50.4666 49.08C51.6186 49.08 52.5413 49.4693 53.2346 50.248C53.9386 51.016 54.2906 51.976 54.2906 53.128C54.2906 54.28 53.9386 55.2453 53.2346 56.024ZM48.5946 55.256C49.0533 55.832 49.6773 56.12 50.4666 56.12C51.256 56.12 51.88 55.832 52.3386 55.256C52.7973 54.6693 53.0266 53.96 53.0266 53.128C53.0266 52.296 52.7973 51.592 52.3386 51.016C51.88 50.44 51.256 50.152 50.4666 50.152C49.6773 50.152 49.0533 50.44 48.5946 51.016C48.136 51.592 47.9066 52.296 47.9066 53.128C47.9066 53.96 48.136 54.6693 48.5946 55.256ZM62.6629 57H61.4789V51.944C61.4789 51.2933 61.3295 50.8347 61.0309 50.568C60.7322 50.2907 60.3002 50.152 59.7349 50.152C59.2869 50.152 58.8549 50.2693 58.4389 50.504C58.0229 50.7387 57.6922 51.0213 57.4469 51.352V57H56.2469V49.272H57.4469V50.392C57.7455 50.0293 58.1455 49.72 58.6469 49.464C59.1482 49.208 59.6709 49.08 60.2149 49.08C61.8469 49.08 62.6629 49.912 62.6629 51.576V57ZM71.875 57H70.675V55.848C70.0137 56.744 69.1443 57.192 68.067 57.192C67.043 57.192 66.211 56.8293 65.571 56.104C64.9417 55.368 64.627 54.3813 64.627 53.144C64.627 51.9173 64.947 50.936 65.587 50.2C66.227 49.4533 67.0537 49.08 68.067 49.08C69.1337 49.08 70.003 49.5333 70.675 50.44V49.272H71.875V57ZM68.371 56.12C68.8297 56.12 69.2723 56.0027 69.699 55.768C70.1363 55.5227 70.4617 55.2293 70.675 54.888V51.4C70.4617 51.048 70.1363 50.7547 69.699 50.52C69.2723 50.2747 68.8297 50.152 68.371 50.152C67.603 50.152 66.995 50.4347 66.547 51C66.099 51.5547 65.875 52.2693 65.875 53.144C65.875 54.0187 66.099 54.7333 66.547 55.288C66.995 55.8427 67.603 56.12 68.371 56.12ZM76.7421 57.192C75.4408 57.192 74.4008 56.7867 73.6221 55.976L74.2301 55.112C74.4968 55.4213 74.8595 55.6827 75.3181 55.896C75.7875 56.1093 76.2728 56.216 76.7741 56.216C77.3501 56.216 77.7981 56.0933 78.1181 55.848C78.4488 55.6027 78.6141 55.2827 78.6141 54.888C78.6141 54.5467 78.4488 54.28 78.1181 54.088C77.7875 53.8853 77.3875 53.736 76.9181 53.64C76.4488 53.5333 75.9795 53.416 75.5101 53.288C75.0515 53.1493 74.6568 52.92 74.3261 52.6C73.9955 52.2693 73.8301 51.8373 73.8301 51.304C73.8301 50.6747 74.0861 50.1467 74.5981 49.72C75.1101 49.2933 75.8088 49.08 76.6941 49.08C77.8781 49.08 78.8328 49.4533 79.5581 50.2L78.9981 51.032C78.4541 50.3813 77.6861 50.056 76.6941 50.056C76.1715 50.056 75.7555 50.1733 75.4461 50.408C75.1368 50.632 74.9821 50.92 74.9821 51.272C74.9821 51.528 75.0995 51.7413 75.3341 51.912C75.5688 52.0827 75.8621 52.2053 76.2141 52.28C76.5768 52.3547 76.9608 52.4507 77.3661 52.568C77.7821 52.6853 78.1661 52.8187 78.5181 52.968C78.8808 53.1067 79.1795 53.3413 79.4141 53.672C79.6488 53.992 79.7661 54.3867 79.7661 54.856C79.7661 55.5387 79.4995 56.0987 78.9661 56.536C78.4435 56.9733 77.7021 57.192 76.7421 57.192ZM96.3843 57H95.1843V51.752C95.1843 50.6853 94.7096 50.152 93.7603 50.152C93.3763 50.152 92.9923 50.2693 92.6083 50.504C92.2243 50.728 91.9256 51.0053 91.7123 51.336V57H90.5123V51.752C90.5123 50.6853 90.0376 50.152 89.0883 50.152C88.7149 50.152 88.3363 50.2693 87.9523 50.504C87.5789 50.7387 87.2803 51.0213 87.0563 51.352V57H85.8563V49.272H87.0563V50.392C87.2589 50.0827 87.5949 49.7893 88.0643 49.512C88.5443 49.224 89.0456 49.08 89.5683 49.08C90.1229 49.08 90.5763 49.2133 90.9283 49.48C91.2803 49.7467 91.5149 50.0933 91.6323 50.52C91.8669 50.136 92.2243 49.8 92.7043 49.512C93.1843 49.224 93.6909 49.08 94.2243 49.08C95.6643 49.08 96.3843 49.8587 96.3843 51.416V57ZM105.578 57H104.378V55.848C103.717 56.744 102.847 57.192 101.77 57.192C100.746 57.192 99.9141 56.8293 99.2741 56.104C98.6448 55.368 98.3301 54.3813 98.3301 53.144C98.3301 51.9173 98.6501 50.936 99.2901 50.2C99.9301 49.4533 100.757 49.08 101.77 49.08C102.837 49.08 103.706 49.5333 104.378 50.44V49.272H105.578V57ZM102.074 56.12C102.533 56.12 102.975 56.0027 103.402 55.768C103.839 55.5227 104.165 55.2293 104.378 54.888V51.4C104.165 51.048 103.839 50.7547 103.402 50.52C102.975 50.2747 102.533 50.152 102.074 50.152C101.306 50.152 100.698 50.4347 100.25 51C99.8021 51.5547 99.5781 52.2693 99.5781 53.144C99.5781 54.0187 99.8021 54.7333 100.25 55.288C100.698 55.8427 101.306 56.12 102.074 56.12ZM110.861 60.136C109.667 60.136 108.68 59.7467 107.901 58.968L108.509 58.104C109.064 58.7973 109.848 59.144 110.861 59.144C111.587 59.144 112.157 58.9467 112.573 58.552C112.989 58.1573 113.197 57.608 113.197 56.904V55.752C112.877 56.1147 112.472 56.4187 111.981 56.664C111.501 56.9093 110.989 57.032 110.445 57.032C108.803 57.032 107.981 56.2107 107.981 54.568V49.272H109.181V54.2C109.181 54.8507 109.331 55.3093 109.629 55.576C109.928 55.8427 110.36 55.976 110.925 55.976C111.363 55.976 111.789 55.864 112.205 55.64C112.632 55.4053 112.963 55.128 113.197 54.808V49.272H114.397V56.904C114.397 57.9493 114.061 58.7493 113.389 59.304C112.717 59.8587 111.875 60.136 110.861 60.136ZM122.938 56.024C122.244 56.8027 121.322 57.192 120.17 57.192C119.018 57.192 118.09 56.8027 117.386 56.024C116.692 55.2453 116.346 54.28 116.346 53.128C116.346 51.976 116.692 51.016 117.386 50.248C118.09 49.4693 119.018 49.08 120.17 49.08C121.322 49.08 122.244 49.4693 122.938 50.248C123.642 51.016 123.994 51.976 123.994 53.128C123.994 54.28 123.642 55.2453 122.938 56.024ZM118.298 55.256C118.756 55.832 119.38 56.12 120.17 56.12C120.959 56.12 121.583 55.832 122.042 55.256C122.5 54.6693 122.73 53.96 122.73 53.128C122.73 52.296 122.5 51.592 122.042 51.016C121.583 50.44 120.959 50.152 120.17 50.152C119.38 50.152 118.756 50.44 118.298 51.016C117.839 51.592 117.61 52.296 117.61 53.128C117.61 53.96 117.839 54.6693 118.298 55.256ZM127.15 57H125.95V49.272H127.15V50.504C127.886 49.5653 128.745 49.096 129.726 49.096V50.328C129.534 50.3067 129.379 50.296 129.262 50.296C128.889 50.296 128.489 50.424 128.062 50.68C127.635 50.9253 127.331 51.208 127.15 51.528V57ZM134.735 57.192C133.573 57.192 132.623 56.8187 131.887 56.072C131.151 55.3147 130.783 54.3333 130.783 53.128C130.783 51.9973 131.146 51.0427 131.871 50.264C132.597 49.4747 133.503 49.08 134.591 49.08C135.733 49.08 136.634 49.4747 137.295 50.264C137.967 51.0427 138.303 52.0293 138.303 53.224V53.528H132.063C132.117 54.2853 132.389 54.92 132.879 55.432C133.381 55.944 134.031 56.2 134.831 56.2C135.791 56.2 136.591 55.8693 137.231 55.208L137.807 55.992C136.986 56.792 135.962 57.192 134.735 57.192ZM137.119 52.632C137.109 51.9813 136.885 51.3947 136.447 50.872C136.01 50.3387 135.386 50.072 134.575 50.072C133.807 50.072 133.199 50.3333 132.751 50.856C132.314 51.3787 132.079 51.9707 132.047 52.632H137.119ZM142.711 57.192C141.41 57.192 140.37 56.7867 139.591 55.976L140.199 55.112C140.466 55.4213 140.828 55.6827 141.287 55.896C141.756 56.1093 142.242 56.216 142.743 56.216C143.319 56.216 143.767 56.0933 144.087 55.848C144.418 55.6027 144.583 55.2827 144.583 54.888C144.583 54.5467 144.418 54.28 144.087 54.088C143.756 53.8853 143.356 53.736 142.887 53.64C142.418 53.5333 141.948 53.416 141.479 53.288C141.02 53.1493 140.626 52.92 140.295 52.6C139.964 52.2693 139.799 51.8373 139.799 51.304C139.799 50.6747 140.055 50.1467 140.567 49.72C141.079 49.2933 141.778 49.08 142.663 49.08C143.847 49.08 144.802 49.4533 145.527 50.2L144.967 51.032C144.423 50.3813 143.655 50.056 142.663 50.056C142.14 50.056 141.724 50.1733 141.415 50.408C141.106 50.632 140.951 50.92 140.951 51.272C140.951 51.528 141.068 51.7413 141.303 51.912C141.538 52.0827 141.831 52.2053 142.183 52.28C142.546 52.3547 142.93 52.4507 143.335 52.568C143.751 52.6853 144.135 52.8187 144.487 52.968C144.85 53.1067 145.148 53.3413 145.383 53.672C145.618 53.992 145.735 54.3867 145.735 54.856C145.735 55.5387 145.468 56.0987 144.935 56.536C144.412 56.9733 143.671 57.192 142.711 57.192ZM155.329 57.192C154.166 57.192 153.217 56.8187 152.481 56.072C151.745 55.3147 151.377 54.3333 151.377 53.128C151.377 51.9973 151.74 51.0427 152.465 50.264C153.19 49.4747 154.097 49.08 155.185 49.08C156.326 49.08 157.228 49.4747 157.889 50.264C158.561 51.0427 158.897 52.0293 158.897 53.224V53.528H152.657C152.71 54.2853 152.982 54.92 153.473 55.432C153.974 55.944 154.625 56.2 155.425 56.2C156.385 56.2 157.185 55.8693 157.825 55.208L158.401 55.992C157.58 56.792 156.556 57.192 155.329 57.192ZM157.713 52.632C157.702 51.9813 157.478 51.3947 157.041 50.872C156.604 50.3387 155.98 50.072 155.169 50.072C154.401 50.072 153.793 50.3333 153.345 50.856C152.908 51.3787 152.673 51.9707 152.641 52.632H157.713ZM167.257 57H166.073V51.944C166.073 51.2933 165.923 50.8347 165.625 50.568C165.326 50.2907 164.894 50.152 164.329 50.152C163.881 50.152 163.449 50.2693 163.033 50.504C162.617 50.7387 162.286 51.0213 162.041 51.352V57H160.841V49.272H162.041V50.392C162.339 50.0293 162.739 49.72 163.241 49.464C163.742 49.208 164.265 49.08 164.809 49.08C166.441 49.08 167.257 49.912 167.257 51.576V57ZM178.913 57.192C177.356 57.192 176.049 56.68 174.993 55.656C173.948 54.6213 173.425 53.2933 173.425 51.672C173.425 50.0507 173.948 48.728 174.993 47.704C176.049 46.6693 177.356 46.152 178.913 46.152C180.631 46.152 181.98 46.856 182.961 48.264L181.857 48.888C181.548 48.4187 181.127 48.0453 180.593 47.768C180.071 47.48 179.511 47.336 178.913 47.336C177.729 47.336 176.748 47.7413 175.969 48.552C175.191 49.3627 174.801 50.4027 174.801 51.672C174.801 52.9307 175.191 53.9707 175.969 54.792C176.759 55.6027 177.74 56.008 178.913 56.008C179.511 56.008 180.071 55.864 180.593 55.576C181.127 55.288 181.548 54.9147 181.857 54.456L182.977 55.064C181.943 56.4827 180.588 57.192 178.913 57.192ZM190.766 56.024C190.073 56.8027 189.15 57.192 187.998 57.192C186.846 57.192 185.918 56.8027 185.214 56.024C184.521 55.2453 184.174 54.28 184.174 53.128C184.174 51.976 184.521 51.016 185.214 50.248C185.918 49.4693 186.846 49.08 187.998 49.08C189.15 49.08 190.073 49.4693 190.766 50.248C191.47 51.016 191.822 51.976 191.822 53.128C191.822 54.28 191.47 55.2453 190.766 56.024ZM186.126 55.256C186.585 55.832 187.209 56.12 187.998 56.12C188.787 56.12 189.411 55.832 189.87 55.256C190.329 54.6693 190.558 53.96 190.558 53.128C190.558 52.296 190.329 51.592 189.87 51.016C189.411 50.44 188.787 50.152 187.998 50.152C187.209 50.152 186.585 50.44 186.126 51.016C185.667 51.592 185.438 52.296 185.438 53.128C185.438 53.96 185.667 54.6693 186.126 55.256ZM195.49 57.192C194.925 57.192 194.498 57.0373 194.21 56.728C193.922 56.4187 193.778 55.9707 193.778 55.384V46.328H194.978V55.128C194.978 55.4267 195.042 55.6667 195.17 55.848C195.309 56.0293 195.506 56.12 195.762 56.12C196.114 56.12 196.381 56.008 196.562 55.784L196.93 56.696C196.567 57.0267 196.087 57.192 195.49 57.192ZM204.219 56.024C203.526 56.8027 202.603 57.192 201.451 57.192C200.299 57.192 199.371 56.8027 198.667 56.024C197.974 55.2453 197.627 54.28 197.627 53.128C197.627 51.976 197.974 51.016 198.667 50.248C199.371 49.4693 200.299 49.08 201.451 49.08C202.603 49.08 203.526 49.4693 204.219 50.248C204.923 51.016 205.275 51.976 205.275 53.128C205.275 54.28 204.923 55.2453 204.219 56.024ZM199.579 55.256C200.038 55.832 200.662 56.12 201.451 56.12C202.24 56.12 202.864 55.832 203.323 55.256C203.782 54.6693 204.011 53.96 204.011 53.128C204.011 52.296 203.782 51.592 203.323 51.016C202.864 50.44 202.24 50.152 201.451 50.152C200.662 50.152 200.038 50.44 199.579 51.016C199.12 51.592 198.891 52.296 198.891 53.128C198.891 53.96 199.12 54.6693 199.579 55.256ZM217.759 57H216.559V51.752C216.559 50.6853 216.085 50.152 215.135 50.152C214.751 50.152 214.367 50.2693 213.983 50.504C213.599 50.728 213.301 51.0053 213.087 51.336V57H211.887V51.752C211.887 50.6853 211.413 50.152 210.463 50.152C210.09 50.152 209.711 50.2693 209.327 50.504C208.954 50.7387 208.655 51.0213 208.431 51.352V57H207.231V49.272H208.431V50.392C208.634 50.0827 208.97 49.7893 209.439 49.512C209.919 49.224 210.421 49.08 210.943 49.08C211.498 49.08 211.951 49.2133 212.303 49.48C212.655 49.7467 212.89 50.0933 213.007 50.52C213.242 50.136 213.599 49.8 214.079 49.512C214.559 49.224 215.066 49.08 215.599 49.08C217.039 49.08 217.759 49.8587 217.759 51.416V57ZM221.353 54.904C221.566 55.2453 221.886 55.5333 222.313 55.768C222.75 56.0027 223.204 56.12 223.673 56.12C224.43 56.12 225.033 55.8427 225.481 55.288C225.929 54.7333 226.153 54.0187 226.153 53.144C226.153 52.2693 225.929 51.5547 225.481 51C225.033 50.4347 224.43 50.152 223.673 50.152C223.204 50.152 222.75 50.2747 222.313 50.52C221.886 50.7547 221.566 51.048 221.353 51.4V54.904ZM221.353 57H220.153V46.328H221.353V50.44C222.025 49.5333 222.894 49.08 223.961 49.08C224.985 49.08 225.812 49.4533 226.441 50.2C227.081 50.936 227.401 51.9173 227.401 53.144C227.401 54.3813 227.081 55.368 226.441 56.104C225.812 56.8293 224.985 57.192 223.961 57.192C222.884 57.192 222.014 56.744 221.353 55.848V57ZM230.524 47.944C230.375 48.0933 230.188 48.168 229.964 48.168C229.74 48.168 229.548 48.0933 229.388 47.944C229.228 47.784 229.148 47.592 229.148 47.368C229.148 47.144 229.228 46.952 229.388 46.792C229.548 46.632 229.74 46.552 229.964 46.552C230.188 46.552 230.375 46.632 230.524 46.792C230.684 46.952 230.764 47.144 230.764 47.368C230.764 47.592 230.684 47.784 230.524 47.944ZM230.556 57H229.356V49.272H230.556V57ZM239.75 57H238.55V55.848C237.889 56.744 237.019 57.192 235.942 57.192C234.918 57.192 234.086 56.8293 233.446 56.104C232.817 55.368 232.502 54.3813 232.502 53.144C232.502 51.9173 232.822 50.936 233.462 50.2C234.102 49.4533 234.929 49.08 235.942 49.08C237.009 49.08 237.878 49.5333 238.55 50.44V49.272H239.75V57ZM236.246 56.12C236.705 56.12 237.147 56.0027 237.574 55.768C238.011 55.5227 238.337 55.2293 238.55 54.888V51.4C238.337 51.048 238.011 50.7547 237.574 50.52C237.147 50.2747 236.705 50.152 236.246 50.152C235.478 50.152 234.87 50.4347 234.422 51C233.974 51.5547 233.75 52.2693 233.75 53.144C233.75 54.0187 233.974 54.7333 234.422 55.288C234.87 55.8427 235.478 56.12 236.246 56.12Z" fill="#FAFAFA"/>
</svg>
