<svg width="80" height="80" viewBox="0 0 80 80" fill="none" xmlns="http://www.w3.org/2000/svg">
<circle opacity="0.1" cx="40" cy="40" r="40" fill="#1D5556"/>
<path d="M40.4857 65.0035C44.457 65.0035 47.6764 64.3898 47.6764 63.6326C47.6764 62.8755 44.457 62.2617 40.4857 62.2617C36.5143 62.2617 33.2949 62.8755 33.2949 63.6326C33.2949 64.3898 36.5143 65.0035 40.4857 65.0035Z" fill="#4B034F"/>
<path fill-rule="evenodd" clip-rule="evenodd" d="M24.0067 31.4833C24.0067 49.5579 40.49 60.9831 40.49 60.9831V41.8482C40.4895 41.8482 40.4891 41.8482 40.4886 41.8482C34.7618 41.8482 30.1192 37.2057 30.1192 31.4788C30.1192 25.7519 34.7618 21.1094 40.4886 21.1094C40.4891 21.1094 40.4895 21.1094 40.49 21.1094V15C31.3864 15 24.0067 22.3797 24.0067 31.4833Z" fill="#4B034F"/>
<path fill-rule="evenodd" clip-rule="evenodd" d="M56.9711 31.4833C56.9711 49.5579 40.4879 60.9831 40.4879 60.9831V41.8482C46.2142 41.8476 50.856 37.2053 50.856 31.4788C50.856 25.7523 46.2142 21.11 40.4879 21.1094V15C49.5914 15 56.9711 22.3797 56.9711 31.4833Z" fill="#4B034F"/>
<path opacity="0.2" fill-rule="evenodd" clip-rule="evenodd" d="M24.0067 31.4833C24.0067 49.5579 40.49 60.9831 40.49 60.9831V41.8482C40.4895 41.8482 40.4891 41.8482 40.4886 41.8482C34.7618 41.8482 30.1192 37.2057 30.1192 31.4788C30.1192 25.7519 34.7618 21.1094 40.4886 21.1094C40.4891 21.1094 40.4895 21.1094 40.49 21.1094V15C31.3864 15 24.0067 22.3797 24.0067 31.4833Z" fill="#FAFAFA"/>
<path opacity="0.4" d="M40.4857 65.0035C44.457 65.0035 47.6764 64.3898 47.6764 63.6326C47.6764 62.8755 44.457 62.2617 40.4857 62.2617C36.5143 62.2617 33.2949 62.8755 33.2949 63.6326C33.2949 64.3898 36.5143 65.0035 40.4857 65.0035Z" fill="#FAFAFA"/>
</svg>
