<svg width="428" height="648" viewBox="0 0 428 648" fill="none" xmlns="http://www.w3.org/2000/svg">
<g opacity="0.1">
<ellipse cx="310" cy="627.5" rx="86" ry="20.5" fill="#1A1A1A"/>
<ellipse cx="136.5" cy="629.5" rx="58.5" ry="16.5" fill="#1A1A1A"/>
<ellipse cx="48.5" cy="618.5" rx="14.5" ry="3.5" fill="#1A1A1A"/>
</g>
<g clip-path="url(#clip0_1148_4729)">
<path d="M107.208 583.695C107.208 583.695 109.496 598.476 108.664 601.807C107.831 605.138 105.541 615.963 110.537 619.502C115.533 623.041 126.523 630.439 129.69 634.699C133.506 639.834 147.107 646.218 168.827 640.736C183.086 637.138 175.04 616.102 164.664 613.27C156.394 611.013 148.009 603.856 151.132 586.907L107.208 583.695Z" fill="#1A1A1A"/>
<path d="M84.1159 507.221C84.1159 507.221 88.0211 521.658 90.1338 524.365C92.2464 527.071 98.7308 536.036 95.6004 541.298C92.47 546.561 85.4266 557.781 84.2604 562.959C82.8552 569.2 82.221 604.305 44.6737 601.256C30.0163 600.065 32.3237 583.979 37.3354 574.462C42.669 564.335 55.0036 542.202 45.2712 527.977L84.1139 507.221H84.1159Z" fill="#1A1A1A"/>
<path d="M179.861 294.118C179.861 294.118 186.523 312.437 181.943 338.252C177.363 364.066 182.717 373.642 181.705 382.802C180.693 391.962 181.11 423.189 175.697 449.003C170.285 474.817 175.697 478.98 175.697 486.891C175.697 494.802 167.786 523.947 163.206 539.352C158.627 554.758 158.627 560.849 158.627 567.379C158.627 573.91 162.929 585.915 159.459 588.066C155.99 590.217 147.107 592.091 138.294 590.634C129.481 589.176 134.547 589.454 128.024 589.801C121.501 590.148 108.294 588.575 106.212 586.771C104.13 584.967 104.176 581.081 103.529 580.017C102.881 578.953 104.778 548.235 109.08 537.826C113.382 527.417 114.215 498.966 113.382 496.19C112.55 493.414 120.738 476.899 118.656 470.376C116.574 463.853 111.023 448.031 113.799 443.59C116.574 439.149 116.991 427.63 116.158 418.053C115.325 408.477 116.019 392.933 116.991 386.271C117.962 379.61 119.35 375.446 116.436 368.646C113.521 361.845 113.937 353.379 112.411 350.881C110.884 348.383 109.913 346.024 107.97 349.354C106.027 352.685 104.084 365.454 102.696 371.699C101.308 377.944 100.753 395.848 100.475 401.677C100.198 407.506 98.1159 412.502 96.728 417.221C95.3402 421.939 93.6747 434.569 93.6747 441.092C93.6747 447.615 91.7317 459.273 89.5112 463.575C87.2906 467.878 84.0985 484.948 85.07 496.745C86.0415 508.542 87.4294 517.84 88.4009 519.228C88.4009 519.228 71.3302 549.761 61.6152 550.872C51.9002 551.982 55.231 551.982 48.5693 553.647C41.9076 555.313 40.5197 558.644 38.8543 554.48C37.1889 550.316 38.4379 539.352 39.2707 532.968C40.1034 526.584 40.5197 515.204 37.744 501.603C34.9683 488.002 37.3296 481.34 35.3847 476.621C33.4397 471.902 31.6374 457.885 33.5804 449.835C35.5234 441.786 34.0874 405.979 33.139 399.04C32.1926 392.1 28.534 389.047 33.139 370.45C37.744 351.853 37.4664 320.765 37.4664 317.156C37.4664 313.548 35.801 309.107 35.801 309.107L73.5508 272.189L159.876 282.46L179.861 294.118Z" fill="#1A1A1A"/>
<path d="M106.859 88.5374C106.859 88.5374 119.697 68.2052 120.322 64.6662C120.946 61.1271 144.47 81.1123 144.47 81.1123L160.014 88.5374L161.479 97.8996L157.169 105.886L138.433 108.523L117.893 106.094L105.888 96.3094L106.859 88.5374Z" fill="#974430"/>
<path d="M112.966 94.2673C112.966 94.2673 137.184 114.461 157.377 92.1855L165.705 116.924V177.123L155.712 289.747C155.712 289.747 122.82 309.941 70.9832 278.297L75.7713 221.673L82.2249 162.342L103.251 110.297L112.966 94.2673Z" fill="white"/>
<path d="M149.328 114.945C149.328 114.945 141.833 139.233 142.805 168.794C143.776 198.356 144.748 225.141 145.164 231.664C145.581 238.187 149.05 270.524 150.299 273.3C151.548 276.076 153.214 287.179 154.047 290.371C154.879 293.563 163.9 320.21 161.957 328.259C161.957 328.259 172.366 324.929 180.231 306.054C180.231 306.054 200.031 297.726 203.732 285.328C203.732 285.328 225.521 245.959 229.13 225.974C232.738 205.989 230.101 186.42 227.881 181.84C225.66 177.26 222.19 142.148 221.08 138.123C219.97 134.098 216.223 120.636 201.373 110.504C186.522 100.373 168.897 86.2168 168.897 86.2168L157.933 96.9033L149.328 114.945Z" fill="#41A5B4"/>
<path d="M98.2547 83.4414C98.2547 83.4414 78.8246 89.8256 74.1059 90.3807C69.3872 90.9358 49.6796 100.689 40.7973 115.243C31.915 129.796 10.8195 181.979 8.04381 187.808C5.26809 193.637 0.549373 207.238 0.271801 211.68C-0.00577088 216.121 -0.560915 221.95 1.65966 226.391C3.88023 230.832 4.99052 236.383 4.99052 239.992C4.99052 243.6 6.93352 247.209 9.43167 249.984C11.9298 252.76 16.6485 261.643 17.4813 265.529C18.314 269.415 21.9224 275.521 24.9757 280.517C28.029 285.514 31.2056 290.232 30.8664 294.118C30.5271 298.004 29.5402 301.89 30.8664 303.556C32.1926 305.221 34.6907 314.381 38.2991 313.132C41.9076 311.883 82.1555 273.856 85.2088 265.39C88.2621 256.924 93.5359 240.131 95.6177 232.081C97.6995 224.032 103.806 211.124 104.639 207.238C105.472 203.352 111.717 179.481 111.994 175.734C112.272 171.987 117.268 152.973 117.268 147.699C117.268 142.425 120.322 123.828 119.766 121.608C119.211 119.387 120.044 97.8751 112.966 94.2667C105.888 90.6583 98.2547 83.4414 98.2547 83.4414Z" fill="#41A5B4"/>
<path d="M112.966 94.2672C112.966 94.2672 102.418 91.9079 98.9486 106.897C98.9486 106.897 85.9027 91.9079 102.835 74.0045C102.835 74.0045 110.745 65.8161 118.656 68.5918C118.656 68.5918 116.991 79.8142 110.607 87.4571C110.607 87.4571 109.496 90.7976 112.966 94.2672Z" fill="#347983"/>
<path d="M157.377 92.1846C157.377 92.1846 150.438 110.782 149.328 114.945C148.218 119.109 163.762 77.6121 174.032 108.006C174.032 108.006 182.359 97.736 168.897 86.2168L157.377 92.1846Z" fill="#347983"/>
<path d="M172.921 70.3582C172.921 70.3582 191.796 41.8049 180.138 18.4888C168.48 -4.82718 134.196 -6.77018 119.834 16.5458C105.472 39.8619 121.293 61.2349 121.293 61.2349C121.293 61.2349 143.776 86.6983 172.921 70.3582Z" fill="#974430"/>
<path d="M129.898 51.1036C129.898 51.1036 129.801 53.2876 130.731 55.406C131.679 57.5707 139.162 65.6376 142.718 68.0162C146.275 70.3949 150.338 67.3455 151.965 65.2598C155.897 60.2173 174.124 63.0855 174.587 69.4234C175.077 76.1372 166.967 100.095 149.976 92.6006C132.984 85.1062 118.795 77.0566 118.656 65.815C118.517 54.5733 119.834 48.0504 119.834 48.0504C119.834 48.0504 129.863 44.7889 130.037 48.3279L129.898 51.1036Z" fill="#D7D7D7"/>
<path d="M118.17 59.6628C122.535 59.6628 126.074 53.967 126.074 46.9408C126.074 39.9146 122.535 34.2188 118.17 34.2188C113.806 34.2188 110.267 39.9146 110.267 46.9408C110.267 53.967 113.806 59.6628 118.17 59.6628Z" fill="#974430"/>
<path d="M64.8247 145.682C66.0332 155.333 63.2517 165.216 59.0573 173.992C56.7616 170.977 55.26 167.365 54.7434 163.61C53.2013 164.95 54.1034 167.423 54.8571 169.32C58.7932 179.222 55.2099 190.351 51.6246 200.386C48.9915 207.761 46.1907 215.4 40.6161 220.9C44.5812 220.258 47.5265 224.73 48.0258 228.716C48.525 232.702 47.7945 236.978 49.5756 240.578C50.6184 242.685 52.438 244.345 53.3979 246.49C54.7916 249.607 54.169 253.229 54.7897 256.587C55.472 260.276 57.6271 263.524 58.7007 267.119C60.8191 274.213 58.9995 283.066 64.3929 288.14C62.6446 267.06 57.7543 246.244 49.936 226.59C48.8489 223.859 47.6846 220.996 48.047 218.082C48.34 215.734 49.5929 213.635 50.6685 211.528C58.481 196.223 57.7138 177.98 63.1862 161.692C64.9557 156.424 65.5128 151.196 64.8227 145.682H64.8247Z" fill="#347983"/>
<path d="M63.6681 145.681C64.8208 155.269 62.1492 164.803 58.0589 173.407H60.0558C57.816 170.42 56.3954 166.998 55.8595 163.303C55.7284 162.401 54.489 162.249 53.9261 162.792C52.652 164.024 52.5826 165.737 52.9778 167.374C53.4327 169.257 54.3232 171.002 54.7685 172.896C55.7438 177.033 55.5318 181.376 54.7685 185.528C53.9897 189.761 52.6809 193.878 51.268 197.936C49.9669 201.669 48.6638 205.424 47.0389 209.033C45.2173 213.077 42.9582 216.93 39.8008 220.082C38.9045 220.978 39.8606 222.16 40.9265 222.015C42.9948 221.736 44.6487 223.411 45.5951 225.049C46.7786 227.096 47.0003 229.342 47.0716 231.663C47.1507 234.242 47.0928 236.902 47.8697 239.392C48.6465 241.883 50.4565 243.725 51.8039 245.948C53.2245 248.294 53.1936 250.965 53.3305 253.616C53.4674 256.266 54.0437 258.788 55.0904 261.284C56.1371 263.78 57.2628 265.97 57.8757 268.491C58.4078 270.679 58.6082 272.926 58.8222 275.162C59.2925 280.074 59.8322 285.34 63.5795 288.958C64.2503 289.606 65.642 289.182 65.5533 288.141C63.8879 268.279 59.518 248.66 52.4939 230.003C50.8536 225.645 48.0142 220.843 49.7356 216.115C50.5239 213.95 51.8 211.97 52.7445 209.869C53.689 207.768 54.4697 205.727 55.1656 203.595C57.9933 194.927 59.0766 185.829 60.6919 176.889C61.6133 171.79 62.741 166.751 64.3601 161.826C66.0737 156.612 66.6366 151.13 65.9812 145.681C65.8058 144.222 63.4908 144.204 63.6681 145.681C64.258 150.573 63.8782 155.46 62.4557 160.182C61.1276 164.592 59.8746 168.953 58.988 173.481C57.2261 182.471 56.2373 191.634 53.7064 200.459C53.1011 202.57 52.4072 204.657 51.5957 206.699C50.7244 208.89 49.6295 210.953 48.579 213.058C47.5285 215.163 46.7285 217.298 46.8384 219.65C46.9483 222.002 47.8099 224.342 48.6927 226.57C52.3474 235.784 55.4046 245.221 57.7774 254.848C60.4722 265.783 62.2995 276.918 63.2402 288.141L65.214 287.324C61.8735 284.099 61.5247 279.243 61.1083 274.879C60.8847 272.535 60.663 270.17 60.1079 267.876C59.4698 265.247 58.2285 262.849 57.1953 260.362C56.6903 259.146 56.2431 257.897 55.9732 256.604C55.6764 255.183 55.6513 253.726 55.5858 252.28C55.4605 249.533 55.1444 246.875 53.6331 244.508C52.1219 242.141 50.3543 240.331 49.7876 237.538C49.2209 234.745 49.5158 232.077 49.2575 229.365C48.8142 224.696 45.757 219.047 40.3135 219.785L41.4392 221.718C47.0447 216.121 49.911 208.609 52.5306 201.292C55.3448 193.433 58.2863 185.083 57.6541 176.601C57.4787 174.238 57.0315 171.888 56.2219 169.658C55.7207 168.276 54.2365 165.709 55.5646 164.427L53.6312 163.916C54.1921 167.777 55.7207 171.453 58.0608 174.573C58.5292 175.196 59.6453 175.441 60.0578 174.573C64.3119 165.62 67.1821 155.668 65.9831 145.679C65.8077 144.22 63.4927 144.202 63.6701 145.679L63.6681 145.681Z" fill="#347983"/>
<path d="M64.6761 289.216C64.6761 289.216 59.5314 288.18 54.6739 292.76C49.8164 297.34 35.9918 307.898 37.4221 313.237C38.8523 318.576 64.6761 289.217 64.6761 289.217V289.216Z" fill="#974430"/>
<path d="M180.231 306.053C188.928 301.304 185.004 262.77 185.004 262.77L191.102 265.975L200.262 276.662L203.177 281.658L203.736 285.264C203.736 285.264 201.835 295.259 184.277 304.095L180.229 306.053H180.231Z" fill="#974430"/>
<path d="M188.627 159.235C191.295 169.202 193.294 179.351 194.607 189.584C195.012 192.742 195.351 195.942 194.959 199.099C194.564 202.291 193.439 205.342 192.776 208.488C190.626 218.693 193.439 229.289 192.673 239.69C192.141 246.911 189.851 253.997 186.056 260.163C185.414 261.204 184.703 262.428 185.131 263.575C185.439 264.402 186.255 264.907 187.004 265.375C194.47 270.046 200.411 277.108 203.736 285.262C205.116 282.777 204.43 281.152 203.138 279.342C200.008 274.955 196.877 270.57 193.747 266.183C192.766 264.808 191.756 263.367 191.496 261.697C190.975 258.359 193.514 255.435 195.013 252.408C197.003 248.397 197.226 243.765 197.305 239.289C197.417 232.969 197.315 226.644 196.997 220.331C196.791 216.226 196.498 212.074 197.253 208.033C198.333 202.26 201.538 196.653 200.492 190.874C200.031 188.335 198.757 185.926 198.807 183.345C198.923 177.506 205.665 173.1 205.012 167.298C202.159 165.393 200.137 173.453 197.055 171.949C196.498 171.677 196.135 171.126 195.831 170.586C194.703 168.587 193.961 166.374 193.655 164.1C193.429 162.421 193.406 160.613 192.432 159.227C191.459 157.841 189.036 157.367 188.184 158.83" fill="#347983"/>
<path d="M163.552 31.2806C165.761 32.3857 168.158 33.1197 170.622 33.3517C173.21 33.5959 175.78 33.177 178.323 32.7327C179.168 32.5856 178.907 31.277 178.06 31.4252C175.629 31.8495 173.191 32.2554 170.717 32.0216C168.366 31.8 166.102 31.0764 163.996 30.0233C163.229 29.6401 162.794 30.9015 163.552 31.2806Z" fill="#A84E39"/>
<path d="M164.61 34.6793C167.674 36.977 171.619 36.725 175.227 36.4121C176.08 36.3379 175.813 35.0312 174.964 35.1045C171.716 35.3872 168.123 35.6487 165.363 33.5787C164.674 33.0619 163.925 34.1661 164.61 34.6793Z" fill="#A84E39"/>
</g>
<g clip-path="url(#clip1_1148_4729)">
<path d="M329.273 577.963C329.273 577.963 328.995 592.952 328.162 594.756C327.33 596.56 356.891 596.977 356.891 596.977C356.891 596.977 357.724 580.877 359.528 578.657C361.332 576.436 329.273 577.963 329.273 577.963Z" fill="#FECC8D"/>
<path d="M291.091 568.475C291.091 568.475 291.369 583.463 292.201 585.268C293.034 587.072 263.473 587.488 263.473 587.488C263.473 587.488 262.64 571.389 260.836 569.169C259.032 566.948 291.091 568.475 291.091 568.475Z" fill="#FECC8D"/>
<path d="M382.844 415.722C382.844 415.722 381.179 449.03 379.513 460.688C377.848 472.346 380.068 480.118 379.513 491.776C378.958 503.434 373.241 528.416 373.324 533.412C373.407 538.408 374.906 578.934 373.324 580.599C371.741 582.265 332.465 588.371 328.093 580.599C323.721 572.827 320.807 541.601 323.097 530.775C325.387 519.95 326.219 492.887 324.97 486.85C323.721 480.812 322.472 446.046 324.346 438.76C326.219 431.474 322.952 409.615 322.295 408.366C321.638 407.117 382.844 415.722 382.844 415.722Z" fill="#4B034F"/>
<path d="M257.567 290.425L362.234 278.75L323.652 404.49L319.974 350.215C319.974 350.215 320.807 352.158 314.7 374.641C308.594 397.125 299.156 429.601 299.156 429.601C299.615 438.067 296.643 471.325 295.394 477.362C294.144 483.399 294.977 510.463 297.267 521.288C299.557 532.113 296.643 563.34 292.271 571.112C287.899 578.884 248.623 572.778 247.04 571.112C245.458 569.447 246.957 528.921 247.04 523.925C247.123 518.929 244.336 496.634 243.781 484.976C243.225 473.318 246.279 461.868 244.613 450.21C242.948 438.552 247.32 386.448 247.32 386.448L257.567 290.425Z" fill="#4B034F"/>
<path d="M299.229 40.9298C299.229 40.9298 281.459 40.7216 278.336 58.4168C275.214 76.112 272.662 89.6803 279.585 98.4354C286.509 107.19 283.038 108.38 286.723 113.168C290.409 117.956 296.448 122.916 306.024 120.955C315.6 118.995 306.024 81.1623 306.024 81.1623L309.355 44.0525L299.229 40.9298Z" fill="#040C21"/>
<path d="M304.985 110.532C304.985 110.532 306.105 123.439 299.231 127.464L300.822 132.599L322.889 137.456L338.554 130.101L347.176 118.72L342.18 104.842L343.013 90.726L333.02 85.9668L324.554 90.726L311.092 103.87L304.985 110.532Z" fill="#F1B378"/>
<path d="M298.532 127.741C298.532 127.741 327.679 141.967 343.466 117.506L348.564 123.023L351.201 148.42L348.009 179.925L349.258 239.325L349.397 280.128L338.849 300.391H333.857C333.857 300.391 314.423 307.469 305.957 307.191C297.491 306.914 283.751 301.64 280.975 301.64C278.2 301.64 280.975 279.712 280.975 279.712L277.089 244.738V189.917L280.281 168.544L291.083 130.378L298.532 127.741Z" fill="#FAFAFA"/>
<path d="M298.532 127.742C304.361 125.868 304.985 115.459 304.985 115.459C304.985 115.459 269.595 137.11 268.554 140.649C267.513 144.188 276.048 142.939 278.963 142.939C281.877 142.939 291.037 171.875 291.037 171.875L298.532 127.742Z" fill="#173D3E"/>
<path d="M335.171 159.385C335.171 159.385 336.837 178.954 333.922 193.943C331.008 208.932 337.253 220.174 336.837 224.753C336.42 229.333 330.215 247.445 336.856 260.352C343.498 273.259 333.298 299.49 332.257 307.4C331.216 315.311 328.301 361.943 324.554 371.311C320.807 380.679 316.227 412.323 320.182 415.862C324.138 419.401 387.008 427.103 391.171 421.066C395.335 415.029 406.16 360.486 401.441 308.58C396.723 256.674 397.555 264.724 397.555 264.724C397.555 264.724 424.202 269.72 427.533 243.628C430.864 217.537 414.765 196.164 413.655 189.224C412.544 182.285 410.046 156.748 399.498 147.866C388.951 138.984 357.028 120.957 357.028 120.957L335.171 159.385Z" fill="#1D5556"/>
<path d="M326.081 595.171C326.081 595.171 335.657 576.852 358.695 595.171C358.695 595.171 361.055 608.772 363.136 612.936C365.218 617.1 372.574 634.725 364.802 638.75C357.03 642.775 339.82 646.106 326.081 637.224C326.081 637.224 322.611 632.366 326.081 623.9C329.55 615.434 326.081 595.171 326.081 595.171Z" fill="#1A1A1A"/>
<path d="M294.283 585.685C294.283 585.685 284.707 567.365 261.669 585.685C261.669 585.685 259.309 599.286 257.227 603.45C255.146 607.613 247.79 625.239 255.562 629.264C263.334 633.289 280.543 636.62 294.283 627.737C294.283 627.737 297.753 622.88 294.283 614.414C290.814 605.948 294.283 585.685 294.283 585.685Z" fill="#1A1A1A"/>
<path d="M372.435 182.492C372.435 182.492 368.272 171.111 365.926 171.875C363.491 172.667 363.376 174.211 363.414 175.899C363.462 178.112 363.553 177.704 364.455 184.643C365.357 191.582 365.982 195.191 365.704 196.856C365.426 198.522 372.435 182.492 372.435 182.492Z" fill="#F1B378"/>
<path d="M294.576 54.4629C294.576 54.4629 276.257 64.0391 282.086 94.0169C287.915 123.995 305.055 115.816 314.908 110.542C324.762 105.268 332.633 92.0739 334.699 86.8C336.767 81.5261 318.659 56.961 318.659 56.961L294.574 54.4629H294.576Z" fill="#FECC8D"/>
<path d="M291.083 156.47L287.915 141.064C287.915 141.064 276.048 139.191 273.342 139.399C271.613 139.532 266.31 145.619 262.709 149.993C262.709 149.993 255.791 155.914 252.669 170.695C249.546 185.476 232.475 216.286 231.434 233.357C230.394 250.428 230.596 283.987 234.925 297.337C236.425 302.954 240.132 312.97 240.658 314.894C241.282 317.184 241.074 328.009 241.491 335.295C241.907 342.582 228.375 390.046 237.535 397.124C246.695 404.202 279.587 400.039 284.167 398.79C288.747 397.541 288.331 353.407 287.976 346.329C287.62 339.251 282.296 301.987 284.867 288.663C287.44 275.34 285.416 251.816 285 245.778C284.584 239.741 285 211.637 288.331 202.269C291.662 192.901 291.037 171.875 291.037 171.875L291.083 156.47Z" fill="#1D5556"/>
<path d="M332.727 93.6771C334.856 93.6771 336.582 91.9511 336.582 89.822C336.582 87.6928 334.856 85.9668 332.727 85.9668C330.598 85.9668 328.872 87.6928 328.872 89.822C328.872 91.9511 330.598 93.6771 332.727 93.6771Z" fill="white"/>
<path d="M369.729 177.705C369.729 177.705 369.619 187.489 365.926 193.11C362.232 198.731 361.498 207.058 365.926 211.43C370.353 215.801 372.435 216.009 372.435 216.009C372.435 216.009 387.008 205.184 387.84 199.355C388.673 193.526 382.22 164.797 377.848 162.924C373.476 161.05 369.729 164.381 369.312 168.753C368.896 173.125 369.781 176.432 369.729 177.705Z" fill="#FECC8D"/>
<path d="M335.171 159.384C353.907 120.247 339.335 111.295 339.335 111.295C339.335 111.295 368.272 118.165 365.773 144.604C365.773 144.604 365.982 150.433 359.32 146.685C352.658 142.938 348.138 141.144 343.082 147.102C338.026 153.06 335.171 159.384 335.171 159.384Z" fill="#173D3E"/>
<path d="M296.866 40.5142C296.866 40.5142 281.392 57.5155 301.03 59.2503C317.019 60.6632 319.855 68.202 326.636 79.86C333.417 91.518 337.253 89.8526 339.543 92.5589C341.833 95.2652 329.165 108.3 343.915 115.459C358.665 122.618 364.206 105.466 365.926 104.841C367.645 104.217 395.921 90.4058 375.936 68.547C375.936 68.547 369.891 63.4833 365.912 52.7968C362.377 43.3034 326.497 6.58105 296.866 40.5142Z" fill="#040C21"/>
<path d="M238.405 308.223C238.405 308.223 256.231 299.456 258.313 284.676C258.313 284.676 264.766 293.419 264.558 294.877C264.35 296.334 249.159 310.403 240.207 313.472C240.207 313.472 239.38 311.049 238.405 308.223Z" fill="#FECC8D"/>
<path d="M387.914 197.699C387.443 201.227 383.241 206.562 380.554 208.895C376.776 212.177 372.167 213.64 368.387 216.921C367.63 217.578 366.809 218.369 366.81 219.371C366.814 220.857 368.495 221.64 369.764 222.415C375.415 225.867 375.506 233.924 378.655 239.751C380.88 243.867 384.7 246.889 387.249 250.81C390.443 255.725 392.07 262.431 397.498 264.644C392.887 260.376 392.725 253.175 389.6 247.724C387.788 244.563 384.882 241.739 384.731 238.097C384.627 235.572 385.863 232.781 384.477 230.669C382.95 231.983 380.489 230.89 379.278 229.279C378.068 227.667 377.485 225.618 376.098 224.157C374.471 222.445 373.239 222.027 372.431 219.809C371.855 218.228 372.237 217.765 373.32 216.478C374.403 215.19 377.268 213.565 378.7 212.684C381.107 211.204 382.545 209.59 384.344 207.41C386.142 205.23 388.324 200.49 387.91 197.695L387.914 197.699Z" fill="#173D3E"/>
<path d="M258.307 284.675C260.113 276.824 255.392 268.863 255.77 260.817C255.88 258.469 256.426 256.168 256.848 253.856C258 247.538 258.243 241.092 258.484 234.673C258.565 232.485 258.648 230.294 258.494 228.112C258.147 223.198 256.996 218.848 256.456 213.954C255.576 205.975 257.503 197.534 261.709 190.697C256.759 196.883 257.293 202.436 254.157 207.876C251.021 213.316 250.211 216.174 252.667 217.325C253.804 217.859 254.556 219 255.284 220.022C256.133 221.213 256.3 222.741 256.441 224.199C257.397 234.079 258.311 244.332 255.001 253.691C254.44 255.277 253.756 256.848 253.58 258.523C253.399 260.264 253.779 262.01 254.157 263.718C255.622 270.335 258.23 275.972 258.307 284.677V284.675Z" fill="#173D3E"/>
<path d="M310.962 94.4662C312.001 95.578 312.275 97.2045 311.733 98.6631C311.504 99.2793 312.494 99.5126 312.721 98.8999C313.391 97.0965 312.971 95.0958 311.701 93.737C311.266 93.2714 310.527 94.0013 310.962 94.467L310.962 94.4662Z" fill="#F1B378"/>
</g>
<defs>
<clipPath id="clip0_1148_4729">
<rect width="230.909" height="642.839" fill="white"/>
</clipPath>
<clipPath id="clip1_1148_4729">
<rect width="197.076" height="616.445" fill="white" transform="translate(230.91 26.4062)"/>
</clipPath>
</defs>
</svg>
