<svg width="80" height="80" viewBox="0 0 80 80" fill="none" xmlns="http://www.w3.org/2000/svg">
<circle opacity="0.1" cx="40" cy="40" r="40" fill="#1D5556"/>
<g clip-path="url(#clip0_1148_5263)">
<path d="M39.2576 13.1416L19.5929 22.3114C17.0563 23.4942 15.9589 26.5094 17.1417 29.046L33.9892 65.1756C35.172 67.7122 38.1872 68.8096 40.7238 67.6268L60.3885 58.457C62.9251 57.2742 64.0226 54.259 62.8397 51.7224L45.9922 15.5928C44.8094 13.0562 41.7942 11.9588 39.2576 13.1416Z" fill="#1A1A1A"/>
<path opacity="0.2" d="M43.8987 16.9461L19.5192 28.3145L34.2615 59.9294L58.641 48.5611L43.8987 16.9461Z" fill="#FAFAFA"/>
<path opacity="0.4" d="M51.0083 57.5037C51.6498 58.8794 51.055 60.5136 49.6793 61.1551C48.3036 61.7966 46.6695 61.2018 46.028 59.8261C45.3865 58.4504 45.9813 56.8162 47.357 56.1747C48.7327 55.5332 50.3668 56.128 51.0083 57.5037Z" fill="#FAFAFA"/>
<path opacity="0.4" d="M34.4406 18.3726L26.6914 21.9861C26.3788 22.1318 26.2436 22.5034 26.3894 22.816C26.5351 23.1285 26.9067 23.2637 27.2192 23.118L34.9684 19.5045C35.281 19.3587 35.4162 18.9872 35.2705 18.6746C35.1247 18.3621 34.7532 18.2268 34.4406 18.3726Z" fill="#FAFAFA"/>
<path opacity="0.4" d="M19.5192 28.3145L58.6453 48.5591L34.2615 59.9294L19.5192 28.3145Z" fill="#FAFAFA"/>
</g>
<defs>
<clipPath id="clip0_1148_5263">
<rect width="31.833" height="50" fill="white" transform="translate(15 24.4531) rotate(-25)"/>
</clipPath>
</defs>
</svg>
