<svg width="363" height="283" viewBox="0 0 363 283" fill="none" xmlns="http://www.w3.org/2000/svg">
<path d="M150.846 79.2367C160.188 86.9276 167.664 96.6377 172.711 107.636C177.757 118.634 180.243 130.634 179.981 142.732L100 141L150.846 79.2367Z" fill="#B6174B"/>
<path d="M72.12 55.4272C86.5338 50.7311 101.9 49.752 116.794 52.5807C131.687 55.4094 145.624 61.9542 157.313 71.6079L100 141L72.12 55.4272Z" fill="#FAAA8D"/>
<path d="M200 141C200 159.442 194.9 177.525 185.264 193.25C175.628 208.974 161.831 221.728 145.399 230.101C128.967 238.473 110.539 242.139 92.154 240.692C73.7687 239.245 56.1415 232.742 41.2214 221.902C26.3013 211.062 14.6695 196.307 7.61202 179.268C0.55449 162.23 -1.65384 143.572 1.23118 125.356C4.1162 107.141 11.9822 90.0787 23.9595 76.0551C35.9368 62.0315 51.5588 51.5933 69.0984 45.8943L100 141H200Z" fill="#1D5556"/>
<path d="M51 181H48.42L53.46 169.72H46.54V167.66H56.16V169.28L51 181ZM66.2445 180.26C65.2579 180.913 64.0445 181.24 62.6045 181.24C61.1645 181.24 59.9512 180.913 58.9645 180.26C57.9779 179.607 57.4845 178.707 57.4845 177.56C57.4845 176.76 57.7645 176.06 58.3245 175.46C58.8979 174.86 59.6179 174.413 60.4845 174.12C59.6579 173.853 58.9845 173.46 58.4645 172.94C57.9579 172.407 57.7045 171.747 57.7045 170.96C57.7045 169.813 58.1912 168.947 59.1645 168.36C60.1379 167.76 61.2845 167.46 62.6045 167.46C63.9245 167.46 65.0712 167.76 66.0445 168.36C67.0179 168.947 67.5045 169.813 67.5045 170.96C67.5045 171.747 67.2445 172.407 66.7245 172.94C66.2179 173.46 65.5512 173.853 64.7245 174.12C65.5912 174.413 66.3045 174.86 66.8645 175.46C67.4379 176.06 67.7245 176.76 67.7245 177.56C67.7245 178.707 67.2312 179.607 66.2445 180.26ZM62.6045 173.18C62.8579 173.14 63.1045 173.08 63.3445 173C63.5979 172.92 63.8645 172.813 64.1445 172.68C64.4379 172.533 64.6712 172.347 64.8445 172.12C65.0312 171.88 65.1245 171.613 65.1245 171.32C65.1245 170.76 64.8912 170.327 64.4245 170.02C63.9579 169.7 63.3512 169.54 62.6045 169.54C61.8579 169.54 61.2512 169.7 60.7845 170.02C60.3179 170.327 60.0845 170.76 60.0845 171.32C60.0845 171.613 60.1712 171.88 60.3445 172.12C60.5312 172.347 60.7645 172.533 61.0445 172.68C61.3379 172.813 61.6045 172.92 61.8445 173C62.0979 173.08 62.3512 173.14 62.6045 173.18ZM62.6045 179.16C63.3779 179.16 64.0245 178.987 64.5445 178.64C65.0779 178.293 65.3445 177.833 65.3445 177.26C65.3445 176.66 65.0379 176.187 64.4245 175.84C63.8245 175.48 63.2179 175.253 62.6045 175.16C61.9912 175.253 61.3779 175.48 60.7645 175.84C60.1645 176.187 59.8645 176.66 59.8645 177.26C59.8645 177.833 60.1245 178.293 60.6445 178.64C61.1645 178.987 61.8179 179.16 62.6045 179.16ZM71.9986 180.8C71.7186 181.08 71.3919 181.22 71.0186 181.22C70.6453 181.22 70.3186 181.08 70.0386 180.8C69.7586 180.52 69.6186 180.187 69.6186 179.8C69.6186 179.427 69.7586 179.107 70.0386 178.84C70.3186 178.56 70.6453 178.42 71.0186 178.42C71.3919 178.42 71.7186 178.56 71.9986 178.84C72.2786 179.107 72.4186 179.427 72.4186 179.8C72.4186 180.187 72.2786 180.52 71.9986 180.8ZM84.1405 181H74.4805V179.14C77.2938 177.007 79.2005 175.44 80.2005 174.44C81.2005 173.44 81.7005 172.48 81.7005 171.56C81.7005 170.907 81.4605 170.407 80.9805 170.06C80.5005 169.713 79.9271 169.54 79.2605 169.54C77.8071 169.54 76.6071 170.067 75.6605 171.12L74.3005 169.6C74.8738 168.907 75.5938 168.38 76.4605 168.02C77.3405 167.647 78.2671 167.46 79.2405 167.46C80.6005 167.46 81.7405 167.827 82.6605 168.56C83.5938 169.28 84.0605 170.28 84.0605 171.56C84.0605 172.72 83.5805 173.867 82.6205 175C81.6738 176.133 80.2138 177.447 78.2405 178.94H84.1405V181ZM89.255 174.08C88.2817 174.08 87.4817 173.767 86.855 173.14C86.2417 172.513 85.935 171.727 85.935 170.78C85.935 169.833 86.2417 169.047 86.855 168.42C87.4817 167.78 88.2817 167.46 89.255 167.46C90.2417 167.46 91.0417 167.773 91.655 168.4C92.2683 169.027 92.575 169.82 92.575 170.78C92.575 171.727 92.2683 172.513 91.655 173.14C91.0417 173.767 90.2417 174.08 89.255 174.08ZM89.295 181H87.955L96.475 167.66H97.835L89.295 181ZM98.815 180.3C98.2017 180.927 97.4083 181.24 96.435 181.24C95.4617 181.24 94.6617 180.927 94.035 180.3C93.4217 179.673 93.115 178.887 93.115 177.94C93.115 176.993 93.4217 176.207 94.035 175.58C94.6617 174.94 95.4617 174.62 96.435 174.62C97.4083 174.62 98.2017 174.94 98.815 175.58C99.4417 176.207 99.755 176.993 99.755 177.94C99.755 178.887 99.4417 179.673 98.815 180.3ZM89.255 172.74C89.775 172.74 90.2017 172.56 90.535 172.2C90.8683 171.827 91.035 171.353 91.035 170.78C91.035 170.193 90.8683 169.713 90.535 169.34C90.2017 168.967 89.775 168.78 89.255 168.78C88.7483 168.78 88.3283 168.967 87.995 169.34C87.6617 169.713 87.495 170.193 87.495 170.78C87.495 171.353 87.6617 171.827 87.995 172.2C88.3283 172.56 88.7483 172.74 89.255 172.74ZM95.155 179.36C95.4883 179.72 95.915 179.9 96.435 179.9C96.955 179.9 97.3817 179.72 97.715 179.36C98.0483 178.987 98.215 178.513 98.215 177.94C98.215 177.353 98.0483 176.873 97.715 176.5C97.3817 176.127 96.955 175.94 96.435 175.94C95.915 175.94 95.4883 176.127 95.155 176.5C94.8217 176.873 94.655 177.353 94.655 177.94C94.655 178.513 94.8217 178.987 95.155 179.36Z" fill="white"/>
<path d="M95.944 85H94.072V76.744L92.328 78.568L91.24 77.432L94.312 74.328H95.944V85ZM101.942 85.192C100.246 85.192 98.9288 84.6427 97.9901 83.544L99.0621 82.248C99.7875 83.1013 100.742 83.528 101.926 83.528C102.587 83.528 103.115 83.352 103.51 83C103.915 82.6373 104.118 82.184 104.118 81.64C104.118 81.0747 103.921 80.6213 103.526 80.28C103.142 79.928 102.625 79.752 101.974 79.752C101.067 79.752 100.289 80.056 99.6381 80.664L98.3101 80.28V74.328H105.302V75.976H100.182V79.048C100.833 78.44 101.638 78.136 102.598 78.136C103.547 78.136 104.353 78.4453 105.014 79.064C105.686 79.6827 106.022 80.52 106.022 81.576C106.022 82.664 105.643 83.5387 104.886 84.2C104.129 84.8613 103.147 85.192 101.942 85.192ZM109.424 84.84C109.2 85.064 108.939 85.176 108.64 85.176C108.341 85.176 108.08 85.064 107.856 84.84C107.632 84.616 107.52 84.3493 107.52 84.04C107.52 83.7413 107.632 83.4853 107.856 83.272C108.08 83.048 108.341 82.936 108.64 82.936C108.939 82.936 109.2 83.048 109.424 83.272C109.648 83.4853 109.76 83.7413 109.76 84.04C109.76 84.3493 109.648 84.616 109.424 84.84ZM118.017 85H116.145V82.584H111.057V81.08L115.441 74.328H118.017V80.936H119.441V82.584H118.017V85ZM116.145 80.936V76.008L112.897 80.936H116.145ZM122.995 79.464C122.216 79.464 121.576 79.2133 121.075 78.712C120.584 78.2107 120.339 77.5813 120.339 76.824C120.339 76.0667 120.584 75.4373 121.075 74.936C121.576 74.424 122.216 74.168 122.995 74.168C123.784 74.168 124.424 74.4187 124.915 74.92C125.405 75.4213 125.651 76.056 125.651 76.824C125.651 77.5813 125.405 78.2107 124.915 78.712C124.424 79.2133 123.784 79.464 122.995 79.464ZM123.027 85H121.955L128.771 74.328H129.859L123.027 85ZM130.643 84.44C130.152 84.9413 129.517 85.192 128.739 85.192C127.96 85.192 127.32 84.9413 126.819 84.44C126.328 83.9387 126.083 83.3093 126.083 82.552C126.083 81.7947 126.328 81.1653 126.819 80.664C127.32 80.152 127.96 79.896 128.739 79.896C129.517 79.896 130.152 80.152 130.643 80.664C131.144 81.1653 131.395 81.7947 131.395 82.552C131.395 83.3093 131.144 83.9387 130.643 84.44ZM122.995 78.392C123.411 78.392 123.752 78.248 124.019 77.96C124.285 77.6613 124.419 77.2827 124.419 76.824C124.419 76.3547 124.285 75.9707 124.019 75.672C123.752 75.3733 123.411 75.224 122.995 75.224C122.589 75.224 122.253 75.3733 121.987 75.672C121.72 75.9707 121.587 76.3547 121.587 76.824C121.587 77.2827 121.72 77.6613 121.987 77.96C122.253 78.248 122.589 78.392 122.995 78.392ZM127.715 83.688C127.981 83.976 128.323 84.12 128.739 84.12C129.155 84.12 129.496 83.976 129.763 83.688C130.029 83.3893 130.163 83.0107 130.163 82.552C130.163 82.0827 130.029 81.6987 129.763 81.4C129.496 81.1013 129.155 80.952 128.739 80.952C128.323 80.952 127.981 81.1013 127.715 81.4C127.448 81.6987 127.315 82.0827 127.315 82.552C127.315 83.0107 127.448 83.3893 127.715 83.688Z" fill="#1A1A1A"/>
<path d="M137.072 125.192C136.069 125.192 135.227 124.936 134.544 124.424C133.872 123.901 133.392 123.24 133.104 122.44C132.816 121.629 132.672 120.707 132.672 119.672C132.672 118.072 133.083 116.755 133.904 115.72C134.725 114.685 135.883 114.168 137.376 114.168C138.624 114.168 139.643 114.563 140.432 115.352L139.568 116.76C138.971 116.141 138.24 115.832 137.376 115.832C136.512 115.832 135.824 116.173 135.312 116.856C134.811 117.539 134.56 118.371 134.56 119.352V119.656C134.837 119.261 135.237 118.915 135.76 118.616C136.283 118.307 136.837 118.152 137.424 118.152C138.437 118.152 139.285 118.456 139.968 119.064C140.661 119.672 141.008 120.52 141.008 121.608C141.008 122.621 140.64 123.475 139.904 124.168C139.179 124.851 138.235 125.192 137.072 125.192ZM136.96 123.528C137.621 123.528 138.144 123.336 138.528 122.952C138.912 122.568 139.104 122.141 139.104 121.672C139.104 121.053 138.896 120.584 138.48 120.264C138.064 119.933 137.547 119.768 136.928 119.768C136.469 119.768 136.032 119.88 135.616 120.104C135.2 120.328 134.859 120.632 134.592 121.016C134.645 121.688 134.864 122.275 135.248 122.776C135.643 123.277 136.213 123.528 136.96 123.528ZM144.361 124.84C144.137 125.064 143.876 125.176 143.577 125.176C143.279 125.176 143.017 125.064 142.793 124.84C142.569 124.616 142.457 124.349 142.457 124.04C142.457 123.741 142.569 123.485 142.793 123.272C143.017 123.048 143.279 122.936 143.577 122.936C143.876 122.936 144.137 123.048 144.361 123.272C144.585 123.485 144.697 123.741 144.697 124.04C144.697 124.349 144.585 124.616 144.361 124.84ZM152.955 125H151.083V122.584H145.995V121.08L150.379 114.328H152.955V120.936H154.379V122.584H152.955V125ZM151.083 120.936V116.008L147.835 120.936H151.083ZM157.932 119.464C157.153 119.464 156.513 119.213 156.012 118.712C155.521 118.211 155.276 117.581 155.276 116.824C155.276 116.067 155.521 115.437 156.012 114.936C156.513 114.424 157.153 114.168 157.932 114.168C158.721 114.168 159.361 114.419 159.852 114.92C160.343 115.421 160.588 116.056 160.588 116.824C160.588 117.581 160.343 118.211 159.852 118.712C159.361 119.213 158.721 119.464 157.932 119.464ZM157.964 125H156.892L163.708 114.328H164.796L157.964 125ZM165.58 124.44C165.089 124.941 164.455 125.192 163.676 125.192C162.897 125.192 162.257 124.941 161.756 124.44C161.265 123.939 161.02 123.309 161.02 122.552C161.02 121.795 161.265 121.165 161.756 120.664C162.257 120.152 162.897 119.896 163.676 119.896C164.455 119.896 165.089 120.152 165.58 120.664C166.081 121.165 166.332 121.795 166.332 122.552C166.332 123.309 166.081 123.939 165.58 124.44ZM157.932 118.392C158.348 118.392 158.689 118.248 158.956 117.96C159.223 117.661 159.356 117.283 159.356 116.824C159.356 116.355 159.223 115.971 158.956 115.672C158.689 115.373 158.348 115.224 157.932 115.224C157.527 115.224 157.191 115.373 156.924 115.672C156.657 115.971 156.524 116.355 156.524 116.824C156.524 117.283 156.657 117.661 156.924 117.96C157.191 118.248 157.527 118.392 157.932 118.392ZM162.652 123.688C162.919 123.976 163.26 124.12 163.676 124.12C164.092 124.12 164.433 123.976 164.7 123.688C164.967 123.389 165.1 123.011 165.1 122.552C165.1 122.083 164.967 121.699 164.7 121.4C164.433 121.101 164.092 120.952 163.676 120.952C163.26 120.952 162.919 121.101 162.652 121.4C162.385 121.699 162.252 122.083 162.252 122.552C162.252 123.011 162.385 123.389 162.652 123.688Z" fill="#FAFAFA"/>
<rect x="155" y="244" width="116" height="39" rx="19.5" fill="#1D5556"/>
<path d="M177.36 270.24C175.573 270.24 174.1 269.707 172.94 268.64C171.78 267.56 171.2 266.147 171.2 264.4C171.2 263.227 171.407 262.14 171.82 261.14C172.247 260.127 172.807 259.28 173.5 258.6C174.193 257.92 174.993 257.393 175.9 257.02C176.807 256.633 177.74 256.44 178.7 256.44C179.993 256.44 181.107 256.72 182.04 257.28C182.973 257.84 183.68 258.607 184.16 259.58L182.56 260.2C182.187 259.44 181.653 258.873 180.96 258.5C180.267 258.113 179.487 257.92 178.62 257.92C177.113 257.92 175.793 258.52 174.66 259.72C173.527 260.92 172.96 262.453 172.96 264.32C172.96 265.64 173.367 266.713 174.18 267.54C174.993 268.353 176.087 268.76 177.46 268.76C178.78 268.76 179.973 268.247 181.04 267.22L182.28 268.16C180.947 269.547 179.307 270.24 177.36 270.24ZM191.576 270H190.076L190.316 268.96C189.436 269.813 188.436 270.24 187.316 270.24C186.409 270.24 185.636 270 184.996 269.52C184.369 269.027 184.056 268.333 184.056 267.44C184.056 266.347 184.402 265.48 185.096 264.84C185.802 264.187 186.662 263.86 187.676 263.86C189.129 263.86 190.276 264.34 191.116 265.3L191.476 263.68C191.516 263.52 191.536 263.327 191.536 263.1C191.536 262.58 191.302 262.16 190.836 261.84C190.369 261.52 189.749 261.36 188.976 261.36C187.936 261.36 186.989 261.74 186.136 262.5L185.656 261.42C186.736 260.54 187.929 260.1 189.236 260.1C190.342 260.1 191.256 260.333 191.976 260.8C192.709 261.253 193.076 261.933 193.076 262.84C193.076 262.973 193.036 263.28 192.956 263.76L191.576 270ZM187.896 269.16C188.909 269.16 189.782 268.773 190.516 268L190.936 266.2C190.442 265.36 189.509 264.94 188.136 264.94C187.389 264.94 186.782 265.167 186.316 265.62C185.862 266.06 185.636 266.627 185.636 267.32C185.636 267.907 185.842 268.36 186.256 268.68C186.669 269 187.216 269.16 187.896 269.16ZM199.702 270.24C198.969 270.24 198.302 270.087 197.702 269.78C197.115 269.46 196.662 269.027 196.342 268.48L196.002 270H194.502L197.442 256.66H198.942L197.842 261.72C198.709 260.64 199.769 260.1 201.022 260.1C202.155 260.1 203.062 260.453 203.742 261.16C204.422 261.867 204.762 262.84 204.762 264.08C204.762 265.733 204.289 267.173 203.342 268.4C202.409 269.627 201.195 270.24 199.702 270.24ZM199.502 268.9C200.569 268.9 201.449 268.447 202.142 267.54C202.835 266.633 203.182 265.573 203.182 264.36C203.182 263.467 202.935 262.76 202.442 262.24C201.949 261.707 201.295 261.44 200.482 261.44C199.909 261.44 199.355 261.6 198.822 261.92C198.302 262.227 197.869 262.613 197.522 263.08L196.582 267.34C196.835 267.793 197.215 268.167 197.722 268.46C198.242 268.753 198.835 268.9 199.502 268.9ZM211.106 270.24C209.653 270.24 208.499 269.853 207.646 269.08C206.806 268.293 206.386 267.253 206.386 265.96C206.386 264.347 206.913 262.967 207.966 261.82C209.019 260.673 210.306 260.1 211.826 260.1C213.093 260.1 214.099 260.493 214.846 261.28C215.606 262.067 215.986 263.08 215.986 264.32C215.986 264.72 215.933 265.167 215.826 265.66H207.966C207.939 265.767 207.926 265.92 207.926 266.12C207.926 266.92 208.213 267.6 208.786 268.16C209.359 268.72 210.166 269 211.206 269C212.286 269 213.213 268.68 213.986 268.04L214.506 269.1C213.493 269.86 212.359 270.24 211.106 270.24ZM214.546 264.54H214.606C214.606 264.513 214.606 264.46 214.606 264.38C214.619 264.287 214.626 264.22 214.626 264.18C214.626 263.34 214.366 262.66 213.846 262.14C213.339 261.607 212.619 261.34 211.686 261.34C210.819 261.34 210.046 261.66 209.366 262.3C208.686 262.927 208.266 263.673 208.106 264.54H214.546ZM222.095 270.24C220.775 270.24 219.702 269.853 218.875 269.08C218.062 268.307 217.655 267.253 217.655 265.92C217.655 264.32 218.182 262.953 219.235 261.82C220.302 260.673 221.589 260.1 223.095 260.1C224.789 260.1 225.995 260.7 226.715 261.9L225.575 262.76C225.082 261.88 224.269 261.44 223.135 261.44C221.962 261.44 221.015 261.88 220.295 262.76C219.575 263.64 219.215 264.687 219.215 265.9C219.215 266.86 219.495 267.6 220.055 268.12C220.629 268.64 221.355 268.9 222.235 268.9C223.222 268.9 224.042 268.513 224.695 267.74L225.535 268.76C224.575 269.747 223.429 270.24 222.095 270.24ZM232.297 270.24C230.844 270.24 229.691 269.853 228.837 269.08C227.997 268.293 227.577 267.253 227.577 265.96C227.577 264.347 228.104 262.967 229.157 261.82C230.211 260.673 231.497 260.1 233.017 260.1C234.284 260.1 235.291 260.493 236.037 261.28C236.797 262.067 237.177 263.08 237.177 264.32C237.177 264.72 237.124 265.167 237.017 265.66H229.157C229.131 265.767 229.117 265.92 229.117 266.12C229.117 266.92 229.404 267.6 229.977 268.16C230.551 268.72 231.357 269 232.397 269C233.477 269 234.404 268.68 235.177 268.04L235.697 269.1C234.684 269.86 233.551 270.24 232.297 270.24ZM235.737 264.54H235.797C235.797 264.513 235.797 264.46 235.797 264.38C235.811 264.287 235.817 264.22 235.817 264.18C235.817 263.34 235.557 262.66 235.037 262.14C234.531 261.607 233.811 261.34 232.877 261.34C232.011 261.34 231.237 261.66 230.557 262.3C229.877 262.927 229.457 263.673 229.297 264.54H235.737ZM239.967 270H238.467L240.607 260.34H242.107L241.767 261.8C242.274 261.227 242.8 260.807 243.347 260.54C243.907 260.26 244.58 260.12 245.367 260.12L245.027 261.68C244.867 261.627 244.614 261.6 244.267 261.6C243.734 261.6 243.214 261.753 242.707 262.06C242.214 262.367 241.8 262.74 241.467 263.18L239.967 270ZM252.708 270H251.208L251.448 268.96C250.568 269.813 249.568 270.24 248.448 270.24C247.542 270.24 246.768 270 246.128 269.52C245.502 269.027 245.188 268.333 245.188 267.44C245.188 266.347 245.535 265.48 246.228 264.84C246.935 264.187 247.795 263.86 248.808 263.86C250.262 263.86 251.408 264.34 252.248 265.3L252.608 263.68C252.648 263.52 252.668 263.327 252.668 263.1C252.668 262.58 252.435 262.16 251.968 261.84C251.502 261.52 250.882 261.36 250.108 261.36C249.068 261.36 248.122 261.74 247.268 262.5L246.788 261.42C247.868 260.54 249.062 260.1 250.368 260.1C251.475 260.1 252.388 260.333 253.108 260.8C253.842 261.253 254.208 261.933 254.208 262.84C254.208 262.973 254.168 263.28 254.088 263.76L252.708 270ZM249.028 269.16C250.042 269.16 250.915 268.773 251.648 268L252.068 266.2C251.575 265.36 250.642 264.94 249.268 264.94C248.522 264.94 247.915 265.167 247.448 265.62C246.995 266.06 246.768 266.627 246.768 267.32C246.768 267.907 246.975 268.36 247.388 268.68C247.802 269 248.348 269.16 249.028 269.16Z" fill="#FAFAFA"/>
<rect x="136" width="157" height="39" rx="19.5" fill="#FAAA8D"/>
<path d="M161.16 26H159.32L157.08 20.7H154.3L153.14 26H151.48L154.42 12.66H159.32C160.333 12.66 161.213 12.98 161.96 13.62C162.72 14.2467 163.1 15.0867 163.1 16.14C163.1 17.38 162.7 18.4133 161.9 19.24C161.1 20.0667 160.053 20.5267 158.76 20.62L161.16 26ZM158.1 19.24H158.14C159.14 19.24 159.927 18.96 160.5 18.4C161.073 17.8267 161.36 17.12 161.36 16.28C161.36 15.6667 161.127 15.16 160.66 14.76C160.207 14.3467 159.68 14.14 159.08 14.14H155.76L154.62 19.24H158.1ZM165.748 16.34H167.248L165.848 22.68C165.781 22.9733 165.748 23.1933 165.748 23.34C165.748 24.38 166.414 24.9 167.748 24.9C168.761 24.9 169.748 24.3933 170.708 23.38L172.268 16.34H173.768L171.628 26H170.128L170.448 24.6C169.328 25.6933 168.194 26.24 167.048 26.24C166.168 26.24 165.468 26.0333 164.948 25.62C164.428 25.2067 164.168 24.62 164.168 23.86C164.168 23.6867 164.201 23.4133 164.268 23.04L165.748 16.34ZM176.123 26H174.623L176.763 16.34H178.263L177.923 17.8C178.43 17.2267 178.956 16.8067 179.503 16.54C180.063 16.26 180.736 16.12 181.523 16.12L181.183 17.68C181.023 17.6267 180.77 17.6 180.423 17.6C179.89 17.6 179.37 17.7533 178.863 18.06C178.37 18.3667 177.956 18.74 177.623 19.18L176.123 26ZM188.865 26H187.365L187.605 24.96C186.725 25.8133 185.725 26.24 184.605 26.24C183.698 26.24 182.925 26 182.285 25.52C181.658 25.0267 181.345 24.3333 181.345 23.44C181.345 22.3467 181.691 21.48 182.385 20.84C183.091 20.1867 183.951 19.86 184.965 19.86C186.418 19.86 187.565 20.34 188.405 21.3L188.765 19.68C188.805 19.52 188.825 19.3267 188.825 19.1C188.825 18.58 188.591 18.16 188.125 17.84C187.658 17.52 187.038 17.36 186.265 17.36C185.225 17.36 184.278 17.74 183.425 18.5L182.945 17.42C184.025 16.54 185.218 16.1 186.525 16.1C187.631 16.1 188.545 16.3333 189.265 16.8C189.998 17.2533 190.365 17.9333 190.365 18.84C190.365 18.9733 190.325 19.28 190.245 19.76L188.865 26ZM185.185 25.16C186.198 25.16 187.071 24.7733 187.805 24L188.225 22.2C187.731 21.36 186.798 20.94 185.425 20.94C184.678 20.94 184.071 21.1667 183.605 21.62C183.151 22.06 182.925 22.6267 182.925 23.32C182.925 23.9067 183.131 24.36 183.545 24.68C183.958 25 184.505 25.16 185.185 25.16ZM194.391 26.24C193.711 26.24 193.171 26.1 192.771 25.82C192.371 25.5267 192.171 25.12 192.171 24.6C192.171 24.36 192.198 24.1333 192.251 23.92L194.731 12.66H196.231L193.811 23.62C193.771 23.78 193.751 23.9333 193.751 24.08C193.751 24.6267 194.084 24.9 194.751 24.9C195.098 24.9 195.404 24.7933 195.671 24.58L195.831 25.78C195.444 26.0867 194.964 26.24 194.391 26.24ZM207.778 16.1C208.511 16.1 209.171 16.26 209.758 16.58C210.358 16.8867 210.818 17.3133 211.138 17.86L212.298 12.66H213.798L210.838 26H209.338L209.638 24.62C208.771 25.7 207.711 26.24 206.458 26.24C205.338 26.24 204.431 25.8867 203.738 25.18C203.058 24.4733 202.718 23.5 202.718 22.26C202.718 20.6067 203.185 19.1667 204.118 17.94C205.065 16.7133 206.285 16.1 207.778 16.1ZM207.978 17.44C206.911 17.44 206.031 17.8933 205.338 18.8C204.645 19.7067 204.298 20.7667 204.298 21.98C204.298 22.8733 204.545 23.5867 205.038 24.12C205.531 24.64 206.185 24.9 206.998 24.9C207.571 24.9 208.118 24.7467 208.638 24.44C209.171 24.12 209.611 23.7267 209.958 23.26L210.898 19C210.645 18.5467 210.258 18.1733 209.738 17.88C209.231 17.5867 208.645 17.44 207.978 17.44ZM217.142 14.96C216.875 14.96 216.655 14.8733 216.482 14.7C216.309 14.5267 216.222 14.32 216.222 14.08C216.222 13.7467 216.342 13.4733 216.582 13.26C216.822 13.0467 217.082 12.94 217.362 12.94C217.615 12.94 217.829 13.0267 218.002 13.2C218.189 13.3733 218.282 13.58 218.282 13.82C218.282 14.1533 218.162 14.4267 217.922 14.64C217.682 14.8533 217.422 14.96 217.142 14.96ZM215.342 26H213.842L215.982 16.34H217.482L215.342 26ZM222.054 26.24C220.254 26.24 218.894 25.6667 217.974 24.52L218.934 23.5C219.214 23.9133 219.647 24.2733 220.234 24.58C220.821 24.8733 221.454 25.02 222.134 25.02C222.801 25.02 223.334 24.8533 223.734 24.52C224.147 24.1867 224.354 23.7867 224.354 23.32C224.354 22.9867 224.181 22.6933 223.834 22.44C223.487 22.1867 223.061 21.9733 222.554 21.8C222.061 21.6133 221.561 21.42 221.054 21.22C220.561 21.0067 220.141 20.72 219.794 20.36C219.447 20 219.274 19.5733 219.274 19.08C219.274 18.24 219.601 17.5333 220.254 16.96C220.907 16.3867 221.801 16.1 222.934 16.1C223.721 16.1 224.447 16.2533 225.114 16.56C225.781 16.8533 226.287 17.2267 226.634 17.68L225.754 18.66C225.527 18.2867 225.141 17.9733 224.594 17.72C224.047 17.4533 223.467 17.32 222.854 17.32C222.227 17.32 221.721 17.46 221.334 17.74C220.961 18.02 220.774 18.3733 220.774 18.8C220.774 19.1067 220.947 19.38 221.294 19.62C221.641 19.86 222.061 20.0667 222.554 20.24C223.061 20.4133 223.561 20.6067 224.054 20.82C224.561 21.0333 224.987 21.3333 225.334 21.72C225.681 22.0933 225.854 22.54 225.854 23.06C225.854 23.94 225.514 24.6933 224.834 25.32C224.154 25.9333 223.227 26.24 222.054 26.24ZM232.831 26.24C232.098 26.24 231.431 26.0867 230.831 25.78C230.244 25.46 229.791 25.0267 229.471 24.48L228.311 29.68H226.811L229.771 16.34H231.271L230.971 17.72C231.838 16.64 232.898 16.1 234.151 16.1C235.284 16.1 236.191 16.4533 236.871 17.16C237.551 17.8667 237.891 18.84 237.891 20.08C237.891 21.7333 237.418 23.1733 236.471 24.4C235.538 25.6267 234.324 26.24 232.831 26.24ZM232.631 24.9C233.698 24.9 234.578 24.4467 235.271 23.54C235.964 22.6333 236.311 21.5733 236.311 20.36C236.311 19.4667 236.064 18.76 235.571 18.24C235.078 17.7067 234.424 17.44 233.611 17.44C233.038 17.44 232.484 17.6 231.951 17.92C231.431 18.2267 230.998 18.6133 230.651 19.08L229.711 23.34C229.964 23.7933 230.344 24.1667 230.851 24.46C231.371 24.7533 231.964 24.9 232.631 24.9ZM244.176 26.24C242.723 26.24 241.57 25.8533 240.716 25.08C239.876 24.2933 239.456 23.2533 239.456 21.96C239.456 20.3467 239.983 18.9667 241.036 17.82C242.09 16.6733 243.376 16.1 244.896 16.1C246.163 16.1 247.17 16.4933 247.916 17.28C248.676 18.0667 249.056 19.08 249.056 20.32C249.056 20.72 249.003 21.1667 248.896 21.66H241.036C241.01 21.7667 240.996 21.92 240.996 22.12C240.996 22.92 241.283 23.6 241.856 24.16C242.43 24.72 243.236 25 244.276 25C245.356 25 246.283 24.68 247.056 24.04L247.576 25.1C246.563 25.86 245.43 26.24 244.176 26.24ZM247.616 20.54H247.676C247.676 20.5133 247.676 20.46 247.676 20.38C247.69 20.2867 247.696 20.22 247.696 20.18C247.696 19.34 247.436 18.66 246.916 18.14C246.41 17.6067 245.69 17.34 244.756 17.34C243.89 17.34 243.116 17.66 242.436 18.3C241.756 18.9267 241.336 19.6733 241.176 20.54H247.616ZM251.846 26H250.346L252.486 16.34H253.986L253.646 17.8C254.152 17.2267 254.679 16.8067 255.226 16.54C255.786 16.26 256.459 16.12 257.246 16.12L256.906 17.68C256.746 17.6267 256.492 17.6 256.146 17.6C255.612 17.6 255.092 17.7533 254.586 18.06C254.092 18.3667 253.679 18.74 253.346 19.18L251.846 26ZM260.667 26.24C258.867 26.24 257.507 25.6667 256.587 24.52L257.547 23.5C257.827 23.9133 258.261 24.2733 258.847 24.58C259.434 24.8733 260.067 25.02 260.747 25.02C261.414 25.02 261.947 24.8533 262.347 24.52C262.761 24.1867 262.967 23.7867 262.967 23.32C262.967 22.9867 262.794 22.6933 262.447 22.44C262.101 22.1867 261.674 21.9733 261.167 21.8C260.674 21.6133 260.174 21.42 259.667 21.22C259.174 21.0067 258.754 20.72 258.407 20.36C258.061 20 257.887 19.5733 257.887 19.08C257.887 18.24 258.214 17.5333 258.867 16.96C259.521 16.3867 260.414 16.1 261.547 16.1C262.334 16.1 263.061 16.2533 263.727 16.56C264.394 16.8533 264.901 17.2267 265.247 17.68L264.367 18.66C264.141 18.2867 263.754 17.9733 263.207 17.72C262.661 17.4533 262.081 17.32 261.467 17.32C260.841 17.32 260.334 17.46 259.947 17.74C259.574 18.02 259.387 18.3733 259.387 18.8C259.387 19.1067 259.561 19.38 259.907 19.62C260.254 19.86 260.674 20.0667 261.167 20.24C261.674 20.4133 262.174 20.6067 262.667 20.82C263.174 21.0333 263.601 21.3333 263.947 21.72C264.294 22.0933 264.467 22.54 264.467 23.06C264.467 23.94 264.127 24.6933 263.447 25.32C262.767 25.9333 261.841 26.24 260.667 26.24ZM271.044 26.24C269.684 26.24 268.604 25.8467 267.804 25.06C267.018 24.2733 266.624 23.2333 266.624 21.94C266.624 20.38 267.138 19.02 268.164 17.86C269.204 16.6867 270.484 16.1 272.004 16.1C273.364 16.1 274.438 16.4933 275.224 17.28C276.024 18.0667 276.424 19.1 276.424 20.38C276.424 21.9533 275.904 23.3267 274.864 24.5C273.838 25.66 272.564 26.24 271.044 26.24ZM271.084 24.9C272.151 24.9 273.044 24.4533 273.764 23.56C274.484 22.6533 274.844 21.6133 274.844 20.44C274.844 19.52 274.591 18.7933 274.084 18.26C273.578 17.7133 272.871 17.44 271.964 17.44C270.898 17.44 270.004 17.8933 269.284 18.8C268.564 19.6933 268.204 20.7267 268.204 21.9C268.204 22.82 268.458 23.5533 268.964 24.1C269.471 24.6333 270.178 24.9 271.084 24.9Z" fill="#1A1A1A"/>
<rect x="194" y="74" width="169" height="39" rx="19.5" fill="#B6174B"/>
<path d="M216.36 100.24C214.573 100.24 213.1 99.7067 211.94 98.64C210.78 97.56 210.2 96.1467 210.2 94.4C210.2 93.2267 210.407 92.14 210.82 91.14C211.247 90.1267 211.807 89.28 212.5 88.6C213.193 87.92 213.993 87.3933 214.9 87.02C215.807 86.6333 216.74 86.44 217.7 86.44C218.993 86.44 220.107 86.72 221.04 87.28C221.973 87.84 222.68 88.6067 223.16 89.58L221.56 90.2C221.187 89.44 220.653 88.8733 219.96 88.5C219.267 88.1133 218.487 87.92 217.62 87.92C216.113 87.92 214.793 88.52 213.66 89.72C212.527 90.92 211.96 92.4533 211.96 94.32C211.96 95.64 212.367 96.7133 213.18 97.54C213.993 98.3533 215.087 98.76 216.46 98.76C217.78 98.76 218.973 98.2467 220.04 97.22L221.28 98.16C219.947 99.5467 218.307 100.24 216.36 100.24ZM228.036 100.24C226.582 100.24 225.429 99.8533 224.576 99.08C223.736 98.2933 223.316 97.2533 223.316 95.96C223.316 94.3467 223.842 92.9667 224.896 91.82C225.949 90.6733 227.236 90.1 228.756 90.1C230.022 90.1 231.029 90.4933 231.776 91.28C232.536 92.0667 232.916 93.08 232.916 94.32C232.916 94.72 232.862 95.1667 232.756 95.66H224.896C224.869 95.7667 224.856 95.92 224.856 96.12C224.856 96.92 225.142 97.6 225.716 98.16C226.289 98.72 227.096 99 228.136 99C229.216 99 230.142 98.68 230.916 98.04L231.436 99.1C230.422 99.86 229.289 100.24 228.036 100.24ZM231.476 94.54H231.536C231.536 94.5133 231.536 94.46 231.536 94.38C231.549 94.2867 231.556 94.22 231.556 94.18C231.556 93.34 231.296 92.66 230.776 92.14C230.269 91.6067 229.549 91.34 228.616 91.34C227.749 91.34 226.976 91.66 226.296 92.3C225.616 92.9267 225.196 93.6733 225.036 94.54H231.476ZM242.225 100H240.745L242.145 93.66C242.212 93.3267 242.245 93.1 242.245 92.98C242.245 91.9533 241.578 91.44 240.245 91.44C239.218 91.44 238.225 91.9467 237.265 92.96L235.705 100H234.205L236.345 90.34H237.845L237.525 91.74C238.645 90.6467 239.785 90.1 240.945 90.1C241.812 90.1 242.505 90.3067 243.025 90.72C243.558 91.1333 243.825 91.72 243.825 92.48C243.825 92.7333 243.785 93.0067 243.705 93.3L242.225 100ZM248.16 100.24C246.68 100.24 245.94 99.6533 245.94 98.48C245.94 98.32 245.96 98.1333 246 97.92L247.4 91.66H245.8L246.1 90.34H247.7L248.28 87.7H249.76L249.18 90.34H251.16L250.86 91.66H248.9L247.56 97.62C247.547 97.6867 247.54 97.8133 247.54 98C247.54 98.6 247.86 98.9 248.5 98.9C248.847 98.9 249.154 98.7933 249.42 98.58L249.58 99.78C249.18 100.087 248.707 100.24 248.16 100.24ZM252.619 100H251.119L253.259 90.34H254.759L254.419 91.8C254.926 91.2267 255.453 90.8067 255.999 90.54C256.559 90.26 257.233 90.12 258.019 90.12L257.679 91.68C257.519 91.6267 257.266 91.6 256.919 91.6C256.386 91.6 255.866 91.7533 255.359 92.06C254.866 92.3667 254.453 92.74 254.119 93.18L252.619 100ZM262.521 100.24C261.161 100.24 260.081 99.8467 259.281 99.06C258.494 98.2733 258.101 97.2333 258.101 95.94C258.101 94.38 258.614 93.02 259.641 91.86C260.681 90.6867 261.961 90.1 263.481 90.1C264.841 90.1 265.914 90.4933 266.701 91.28C267.501 92.0667 267.901 93.1 267.901 94.38C267.901 95.9533 267.381 97.3267 266.341 98.5C265.314 99.66 264.041 100.24 262.521 100.24ZM262.561 98.9C263.627 98.9 264.521 98.4533 265.241 97.56C265.961 96.6533 266.321 95.6133 266.321 94.44C266.321 93.52 266.067 92.7933 265.561 92.26C265.054 91.7133 264.347 91.44 263.441 91.44C262.374 91.44 261.481 91.8933 260.761 92.8C260.041 93.6933 259.681 94.7267 259.681 95.9C259.681 96.82 259.934 97.5533 260.441 98.1C260.947 98.6333 261.654 98.9 262.561 98.9ZM279.542 100.24C278.809 100.24 278.142 100.087 277.542 99.78C276.955 99.46 276.502 99.0267 276.182 98.48L275.022 103.68H273.522L276.482 90.34H277.982L277.682 91.72C278.549 90.64 279.609 90.1 280.862 90.1C281.995 90.1 282.902 90.4533 283.582 91.16C284.262 91.8667 284.602 92.84 284.602 94.08C284.602 95.7333 284.129 97.1733 283.182 98.4C282.249 99.6267 281.035 100.24 279.542 100.24ZM279.342 98.9C280.409 98.9 281.289 98.4467 281.982 97.54C282.675 96.6333 283.022 95.5733 283.022 94.36C283.022 93.4667 282.775 92.76 282.282 92.24C281.789 91.7067 281.135 91.44 280.322 91.44C279.749 91.44 279.195 91.6 278.662 91.92C278.142 92.2267 277.709 92.6133 277.362 93.08L276.422 97.34C276.675 97.7933 277.055 98.1667 277.562 98.46C278.082 98.7533 278.675 98.9 279.342 98.9ZM290.587 100.24C289.227 100.24 288.147 99.8467 287.347 99.06C286.561 98.2733 286.167 97.2333 286.167 95.94C286.167 94.38 286.681 93.02 287.707 91.86C288.747 90.6867 290.027 90.1 291.547 90.1C292.907 90.1 293.981 90.4933 294.767 91.28C295.567 92.0667 295.967 93.1 295.967 94.38C295.967 95.9533 295.447 97.3267 294.407 98.5C293.381 99.66 292.107 100.24 290.587 100.24ZM290.627 98.9C291.694 98.9 292.587 98.4533 293.307 97.56C294.027 96.6533 294.387 95.6133 294.387 94.44C294.387 93.52 294.134 92.7933 293.627 92.26C293.121 91.7133 292.414 91.44 291.507 91.44C290.441 91.44 289.547 91.8933 288.827 92.8C288.107 93.6933 287.747 94.7267 287.747 95.9C287.747 96.82 288.001 97.5533 288.507 98.1C289.014 98.6333 289.721 98.9 290.627 98.9ZM302.433 100.24C301.699 100.24 301.033 100.087 300.433 99.78C299.846 99.46 299.393 99.0267 299.073 98.48L298.733 100H297.233L300.173 86.66H301.673L300.573 91.72C301.439 90.64 302.499 90.1 303.753 90.1C304.886 90.1 305.793 90.4533 306.473 91.16C307.153 91.8667 307.493 92.84 307.493 94.08C307.493 95.7333 307.019 97.1733 306.073 98.4C305.139 99.6267 303.926 100.24 302.433 100.24ZM302.233 98.9C303.299 98.9 304.179 98.4467 304.873 97.54C305.566 96.6333 305.913 95.5733 305.913 94.36C305.913 93.4667 305.666 92.76 305.173 92.24C304.679 91.7067 304.026 91.44 303.213 91.44C302.639 91.44 302.086 91.6 301.553 91.92C301.033 92.2267 300.599 92.6133 300.253 93.08L299.312 97.34C299.566 97.7933 299.946 98.1667 300.453 98.46C300.973 98.7533 301.566 98.9 302.233 98.9ZM311.336 100.24C310.656 100.24 310.116 100.1 309.716 99.82C309.316 99.5267 309.116 99.12 309.116 98.6C309.116 98.36 309.143 98.1333 309.196 97.92L311.676 86.66H313.176L310.756 97.62C310.716 97.78 310.696 97.9333 310.696 98.08C310.696 98.6267 311.03 98.9 311.696 98.9C312.043 98.9 312.35 98.7933 312.616 98.58L312.776 99.78C312.39 100.087 311.91 100.24 311.336 100.24ZM321.748 100H320.248L320.488 98.96C319.608 99.8133 318.608 100.24 317.488 100.24C316.581 100.24 315.808 100 315.168 99.52C314.541 99.0267 314.228 98.3333 314.228 97.44C314.228 96.3467 314.574 95.48 315.268 94.84C315.974 94.1867 316.834 93.86 317.848 93.86C319.301 93.86 320.448 94.34 321.288 95.3L321.648 93.68C321.688 93.52 321.708 93.3267 321.708 93.1C321.708 92.58 321.474 92.16 321.008 91.84C320.541 91.52 319.921 91.36 319.148 91.36C318.108 91.36 317.161 91.74 316.308 92.5L315.828 91.42C316.908 90.54 318.101 90.1 319.408 90.1C320.514 90.1 321.428 90.3333 322.148 90.8C322.881 91.2533 323.248 91.9333 323.248 92.84C323.248 92.9733 323.208 93.28 323.128 93.76L321.748 100ZM318.068 99.16C319.081 99.16 319.954 98.7733 320.688 98L321.108 96.2C320.614 95.36 319.681 94.94 318.308 94.94C317.561 94.94 316.954 95.1667 316.488 95.62C316.034 96.06 315.808 96.6267 315.808 97.32C315.808 97.9067 316.014 98.36 316.428 98.68C316.841 99 317.388 99.16 318.068 99.16ZM330.114 90.1C330.847 90.1 331.507 90.26 332.094 90.58C332.694 90.8867 333.154 91.3133 333.474 91.86L334.634 86.66H336.134L333.174 100H331.674L331.974 98.62C331.107 99.7 330.047 100.24 328.794 100.24C327.674 100.24 326.767 99.8867 326.074 99.18C325.394 98.4733 325.054 97.5 325.054 96.26C325.054 94.6067 325.521 93.1667 326.454 91.94C327.401 90.7133 328.621 90.1 330.114 90.1ZM330.314 91.44C329.247 91.44 328.367 91.8933 327.674 92.8C326.981 93.7067 326.634 94.7667 326.634 95.98C326.634 96.8733 326.881 97.5867 327.374 98.12C327.867 98.64 328.521 98.9 329.334 98.9C329.907 98.9 330.454 98.7467 330.974 98.44C331.507 98.12 331.947 97.7267 332.294 97.26L333.234 93C332.981 92.5467 332.594 92.1733 332.074 91.88C331.567 91.5867 330.981 91.44 330.314 91.44ZM340.978 100.24C339.618 100.24 338.538 99.8467 337.738 99.06C336.951 98.2733 336.558 97.2333 336.558 95.94C336.558 94.38 337.071 93.02 338.098 91.86C339.138 90.6867 340.418 90.1 341.938 90.1C343.298 90.1 344.371 90.4933 345.158 91.28C345.958 92.0667 346.358 93.1 346.358 94.38C346.358 95.9533 345.838 97.3267 344.798 98.5C343.771 99.66 342.498 100.24 340.978 100.24ZM341.018 98.9C342.084 98.9 342.978 98.4533 343.698 97.56C344.418 96.6533 344.778 95.6133 344.778 94.44C344.778 93.52 344.524 92.7933 344.018 92.26C343.511 91.7133 342.804 91.44 341.898 91.44C340.831 91.44 339.938 91.8933 339.218 92.8C338.498 93.6933 338.138 94.7267 338.138 95.9C338.138 96.82 338.391 97.5533 338.898 98.1C339.404 98.6333 340.111 98.9 341.018 98.9Z" fill="#FAFAFA"/>
<path d="M136 19.5H113V53" stroke="#FAAA8D"/>
<path d="M156 264.5H133V231" stroke="#1D5556"/>
<path d="M194.5 93.5H179.5V105H168.5" stroke="#B6174B"/>
</svg>
