<svg width="353" height="272" viewBox="0 0 353 272" fill="none" xmlns="http://www.w3.org/2000/svg">
<path d="M64.908 43.9845C78.4238 39.581 92.8603 38.8119 106.767 41.7545C120.675 44.6971 133.562 51.2477 144.136 60.7482C154.71 70.2488 162.597 82.3647 167.006 95.8787C171.415 109.393 172.189 123.829 169.252 137.737L90 121L64.908 43.9845Z" fill="#B6174B"/>
<path d="M180 121C180 139.186 174.491 156.945 164.198 171.938C153.905 186.93 139.312 198.453 122.341 204.988C105.37 211.523 86.8174 212.764 69.1274 208.546C51.4375 204.329 35.4402 194.851 23.2432 181.362C11.0463 167.873 3.22194 151.005 0.801022 132.981C-1.61989 114.957 1.47622 96.6225 9.68145 80.393C17.8867 64.1635 30.8161 50.8004 46.7661 42.0644C62.7162 33.3284 80.9386 29.6293 99.0326 31.4544L90 121L180 121Z" fill="#1D5556"/>
<path d="M42 155H39.42L44.46 143.72H37.54V141.66H47.16V143.28L42 155ZM53.9845 155.24C52.7312 155.24 51.6779 154.92 50.8245 154.28C49.9845 153.627 49.3845 152.8 49.0245 151.8C48.6645 150.787 48.4845 149.633 48.4845 148.34C48.4845 146.34 48.9979 144.693 50.0245 143.4C51.0512 142.107 52.4979 141.46 54.3645 141.46C55.9245 141.46 57.1979 141.953 58.1845 142.94L57.1045 144.7C56.3579 143.927 55.4445 143.54 54.3645 143.54C53.2845 143.54 52.4245 143.967 51.7845 144.82C51.1579 145.673 50.8445 146.713 50.8445 147.94V148.32C51.1912 147.827 51.6912 147.393 52.3445 147.02C52.9979 146.633 53.6912 146.44 54.4245 146.44C55.6912 146.44 56.7512 146.82 57.6045 147.58C58.4712 148.34 58.9045 149.4 58.9045 150.76C58.9045 152.027 58.4445 153.093 57.5245 153.96C56.6179 154.813 55.4379 155.24 53.9845 155.24ZM53.8445 153.16C54.6712 153.16 55.3245 152.92 55.8045 152.44C56.2845 151.96 56.5245 151.427 56.5245 150.84C56.5245 150.067 56.2645 149.48 55.7445 149.08C55.2245 148.667 54.5779 148.46 53.8045 148.46C53.2312 148.46 52.6845 148.6 52.1645 148.88C51.6445 149.16 51.2179 149.54 50.8845 150.02C50.9512 150.86 51.2245 151.593 51.7045 152.22C52.1979 152.847 52.9112 153.16 53.8445 153.16ZM63.6163 154.24C63.6163 154.92 63.4429 155.56 63.0963 156.16C62.7629 156.76 62.3163 157.26 61.7563 157.66L60.7963 156.88C61.1296 156.68 61.4363 156.4 61.7163 156.04C62.0096 155.68 62.1829 155.333 62.2363 155C62.1563 155.04 62.0429 155.06 61.8963 155.06C61.5629 155.06 61.2829 154.94 61.0563 154.7C60.8296 154.46 60.7163 154.153 60.7163 153.78C60.7163 153.407 60.8496 153.087 61.1163 152.82C61.3829 152.553 61.7029 152.42 62.0763 152.42C62.5029 152.42 62.8629 152.587 63.1563 152.92C63.4629 153.24 63.6163 153.68 63.6163 154.24ZM70.3908 155.24C69.1374 155.24 68.0841 154.92 67.2308 154.28C66.3908 153.627 65.7908 152.8 65.4308 151.8C65.0708 150.787 64.8908 149.633 64.8908 148.34C64.8908 146.34 65.4041 144.693 66.4308 143.4C67.4574 142.107 68.9041 141.46 70.7708 141.46C72.3308 141.46 73.6041 141.953 74.5908 142.94L73.5108 144.7C72.7641 143.927 71.8508 143.54 70.7708 143.54C69.6908 143.54 68.8308 143.967 68.1908 144.82C67.5641 145.673 67.2508 146.713 67.2508 147.94V148.32C67.5974 147.827 68.0974 147.393 68.7508 147.02C69.4041 146.633 70.0974 146.44 70.8308 146.44C72.0974 146.44 73.1574 146.82 74.0108 147.58C74.8774 148.34 75.3108 149.4 75.3108 150.76C75.3108 152.027 74.8508 153.093 73.9308 153.96C73.0241 154.813 71.8441 155.24 70.3908 155.24ZM70.2508 153.16C71.0774 153.16 71.7308 152.92 72.2108 152.44C72.6908 151.96 72.9308 151.427 72.9308 150.84C72.9308 150.067 72.6708 149.48 72.1508 149.08C71.6308 148.667 70.9841 148.46 70.2108 148.46C69.6374 148.46 69.0908 148.6 68.5708 148.88C68.0508 149.16 67.6241 149.54 67.2908 150.02C67.3574 150.86 67.6308 151.593 68.1108 152.22C68.6041 152.847 69.3174 153.16 70.2508 153.16ZM79.9425 148.08C78.9692 148.08 78.1692 147.767 77.5425 147.14C76.9292 146.513 76.6225 145.727 76.6225 144.78C76.6225 143.833 76.9292 143.047 77.5425 142.42C78.1692 141.78 78.9692 141.46 79.9425 141.46C80.9292 141.46 81.7292 141.773 82.3425 142.4C82.9558 143.027 83.2625 143.82 83.2625 144.78C83.2625 145.727 82.9558 146.513 82.3425 147.14C81.7292 147.767 80.9292 148.08 79.9425 148.08ZM79.9825 155H78.6425L87.1625 141.66H88.5225L79.9825 155ZM89.5025 154.3C88.8892 154.927 88.0958 155.24 87.1225 155.24C86.1492 155.24 85.3492 154.927 84.7225 154.3C84.1092 153.673 83.8025 152.887 83.8025 151.94C83.8025 150.993 84.1092 150.207 84.7225 149.58C85.3492 148.94 86.1492 148.62 87.1225 148.62C88.0958 148.62 88.8892 148.94 89.5025 149.58C90.1292 150.207 90.4425 150.993 90.4425 151.94C90.4425 152.887 90.1292 153.673 89.5025 154.3ZM79.9425 146.74C80.4625 146.74 80.8892 146.56 81.2225 146.2C81.5558 145.827 81.7225 145.353 81.7225 144.78C81.7225 144.193 81.5558 143.713 81.2225 143.34C80.8892 142.967 80.4625 142.78 79.9425 142.78C79.4358 142.78 79.0158 142.967 78.6825 143.34C78.3492 143.713 78.1825 144.193 78.1825 144.78C78.1825 145.353 78.3492 145.827 78.6825 146.2C79.0158 146.56 79.4358 146.74 79.9425 146.74ZM85.8425 153.36C86.1758 153.72 86.6025 153.9 87.1225 153.9C87.6425 153.9 88.0692 153.72 88.4025 153.36C88.7358 152.987 88.9025 152.513 88.9025 151.94C88.9025 151.353 88.7358 150.873 88.4025 150.5C88.0692 150.127 87.6425 149.94 87.1225 149.94C86.6025 149.94 86.1758 150.127 85.8425 150.5C85.5092 150.873 85.3425 151.353 85.3425 151.94C85.3425 152.513 85.5092 152.987 85.8425 153.36Z" fill="white"/>
<path d="M113.528 98H105.8V96.512C108.051 94.8053 109.576 93.552 110.376 92.752C111.176 91.952 111.576 91.184 111.576 90.448C111.576 89.9253 111.384 89.5253 111 89.248C110.616 88.9707 110.157 88.832 109.624 88.832C108.461 88.832 107.501 89.2533 106.744 90.096L105.656 88.88C106.115 88.3253 106.691 87.904 107.384 87.616C108.088 87.3173 108.829 87.168 109.608 87.168C110.696 87.168 111.608 87.4613 112.344 88.048C113.091 88.624 113.464 89.424 113.464 90.448C113.464 91.376 113.08 92.2933 112.312 93.2C111.555 94.1067 110.387 95.1573 108.808 96.352H113.528V98ZM118.932 98.192C118.036 98.192 117.236 98.032 116.532 97.712C115.838 97.392 115.294 96.976 114.9 96.464L115.924 95.232C116.265 95.6373 116.697 95.9573 117.22 96.192C117.753 96.416 118.302 96.528 118.868 96.528C119.561 96.528 120.105 96.3787 120.5 96.08C120.894 95.7813 121.092 95.3867 121.092 94.896C121.092 93.8827 120.302 93.376 118.724 93.376C118.126 93.376 117.721 93.3867 117.508 93.408V91.712C117.625 91.7227 118.03 91.728 118.724 91.728C119.385 91.728 119.918 91.6107 120.324 91.376C120.729 91.1413 120.932 90.7893 120.932 90.32C120.932 89.8507 120.724 89.488 120.308 89.232C119.902 88.9653 119.39 88.832 118.772 88.832C117.694 88.832 116.772 89.2267 116.004 90.016L115.044 88.848C116.004 87.728 117.305 87.168 118.948 87.168C120.11 87.168 121.038 87.424 121.732 87.936C122.436 88.448 122.788 89.1467 122.788 90.032C122.788 90.704 122.553 91.2587 122.084 91.696C121.625 92.1227 121.092 92.384 120.484 92.48C121.092 92.544 121.657 92.8053 122.18 93.264C122.702 93.7227 122.964 94.3253 122.964 95.072C122.964 96 122.596 96.752 121.86 97.328C121.134 97.904 120.158 98.192 118.932 98.192ZM126.871 97.392C126.871 97.936 126.732 98.448 126.455 98.928C126.188 99.408 125.831 99.808 125.383 100.128L124.615 99.504C124.882 99.344 125.127 99.12 125.351 98.832C125.586 98.544 125.724 98.2667 125.767 98C125.703 98.032 125.612 98.048 125.495 98.048C125.228 98.048 125.004 97.952 124.823 97.76C124.642 97.568 124.551 97.3227 124.551 97.024C124.551 96.7253 124.658 96.4693 124.871 96.256C125.084 96.0427 125.34 95.936 125.639 95.936C125.98 95.936 126.268 96.0693 126.503 96.336C126.748 96.592 126.871 96.944 126.871 97.392ZM132.041 98.192C131.145 98.192 130.345 98.032 129.641 97.712C128.948 97.392 128.404 96.976 128.009 96.464L129.033 95.232C129.374 95.6373 129.806 95.9573 130.329 96.192C130.862 96.416 131.412 96.528 131.977 96.528C132.67 96.528 133.214 96.3787 133.609 96.08C134.004 95.7813 134.201 95.3867 134.201 94.896C134.201 93.8827 133.412 93.376 131.833 93.376C131.236 93.376 130.83 93.3867 130.617 93.408V91.712C130.734 91.7227 131.14 91.728 131.833 91.728C132.494 91.728 133.028 91.6107 133.433 91.376C133.838 91.1413 134.041 90.7893 134.041 90.32C134.041 89.8507 133.833 89.488 133.417 89.232C133.012 88.9653 132.5 88.832 131.881 88.832C130.804 88.832 129.881 89.2267 129.113 90.016L128.153 88.848C129.113 87.728 130.414 87.168 132.057 87.168C133.22 87.168 134.148 87.424 134.841 87.936C135.545 88.448 135.897 89.1467 135.897 90.032C135.897 90.704 135.662 91.2587 135.193 91.696C134.734 92.1227 134.201 92.384 133.593 92.48C134.201 92.544 134.766 92.8053 135.289 93.264C135.812 93.7227 136.073 94.3253 136.073 95.072C136.073 96 135.705 96.752 134.969 97.328C134.244 97.904 133.268 98.192 132.041 98.192ZM139.917 92.464C139.138 92.464 138.498 92.2133 137.997 91.712C137.506 91.2107 137.261 90.5813 137.261 89.824C137.261 89.0667 137.506 88.4373 137.997 87.936C138.498 87.424 139.138 87.168 139.917 87.168C140.706 87.168 141.346 87.4187 141.837 87.92C142.327 88.4213 142.573 89.056 142.573 89.824C142.573 90.5813 142.327 91.2107 141.837 91.712C141.346 92.2133 140.706 92.464 139.917 92.464ZM139.949 98H138.877L145.693 87.328H146.781L139.949 98ZM147.565 97.44C147.074 97.9413 146.439 98.192 145.661 98.192C144.882 98.192 144.242 97.9413 143.741 97.44C143.25 96.9387 143.005 96.3093 143.005 95.552C143.005 94.7947 143.25 94.1653 143.741 93.664C144.242 93.152 144.882 92.896 145.661 92.896C146.439 92.896 147.074 93.152 147.565 93.664C148.066 94.1653 148.317 94.7947 148.317 95.552C148.317 96.3093 148.066 96.9387 147.565 97.44ZM139.917 91.392C140.333 91.392 140.674 91.248 140.941 90.96C141.207 90.6613 141.341 90.2827 141.341 89.824C141.341 89.3547 141.207 88.9707 140.941 88.672C140.674 88.3733 140.333 88.224 139.917 88.224C139.511 88.224 139.175 88.3733 138.909 88.672C138.642 88.9707 138.509 89.3547 138.509 89.824C138.509 90.2827 138.642 90.6613 138.909 90.96C139.175 91.248 139.511 91.392 139.917 91.392ZM144.637 96.688C144.903 96.976 145.245 97.12 145.661 97.12C146.077 97.12 146.418 96.976 146.685 96.688C146.951 96.3893 147.085 96.0107 147.085 95.552C147.085 95.0827 146.951 94.6987 146.685 94.4C146.418 94.1013 146.077 93.952 145.661 93.952C145.245 93.952 144.903 94.1013 144.637 94.4C144.37 94.6987 144.237 95.0827 144.237 95.552C144.237 96.0107 144.37 96.3893 144.637 96.688Z" fill="#FAFAFA"/>
<rect x="146" y="233" width="205" height="39" rx="19.5" fill="#1D5556"/>
<path d="M168.36 259.24C166.573 259.24 165.1 258.707 163.94 257.64C162.78 256.56 162.2 255.147 162.2 253.4C162.2 252.227 162.407 251.14 162.82 250.14C163.247 249.127 163.807 248.28 164.5 247.6C165.193 246.92 165.993 246.393 166.9 246.02C167.807 245.633 168.74 245.44 169.7 245.44C170.993 245.44 172.107 245.72 173.04 246.28C173.973 246.84 174.68 247.607 175.16 248.58L173.56 249.2C173.187 248.44 172.653 247.873 171.96 247.5C171.267 247.113 170.487 246.92 169.62 246.92C168.113 246.92 166.793 247.52 165.66 248.72C164.527 249.92 163.96 251.453 163.96 253.32C163.96 254.64 164.367 255.713 165.18 256.54C165.993 257.353 167.087 257.76 168.46 257.76C169.78 257.76 170.973 257.247 172.04 256.22L173.28 257.16C171.947 258.547 170.307 259.24 168.36 259.24ZM182.576 259H181.076L181.316 257.96C180.436 258.813 179.436 259.24 178.316 259.24C177.409 259.24 176.636 259 175.996 258.52C175.369 258.027 175.056 257.333 175.056 256.44C175.056 255.347 175.402 254.48 176.096 253.84C176.802 253.187 177.662 252.86 178.676 252.86C180.129 252.86 181.276 253.34 182.116 254.3L182.476 252.68C182.516 252.52 182.536 252.327 182.536 252.1C182.536 251.58 182.302 251.16 181.836 250.84C181.369 250.52 180.749 250.36 179.976 250.36C178.936 250.36 177.989 250.74 177.136 251.5L176.656 250.42C177.736 249.54 178.929 249.1 180.236 249.1C181.342 249.1 182.256 249.333 182.976 249.8C183.709 250.253 184.076 250.933 184.076 251.84C184.076 251.973 184.036 252.28 183.956 252.76L182.576 259ZM178.896 258.16C179.909 258.16 180.782 257.773 181.516 257L181.936 255.2C181.442 254.36 180.509 253.94 179.136 253.94C178.389 253.94 177.782 254.167 177.316 254.62C176.862 255.06 176.636 255.627 176.636 256.32C176.636 256.907 176.842 257.36 177.256 257.68C177.669 258 178.216 258.16 178.896 258.16ZM190.702 259.24C189.969 259.24 189.302 259.087 188.702 258.78C188.115 258.46 187.662 258.027 187.342 257.48L187.002 259H185.502L188.442 245.66H189.942L188.842 250.72C189.709 249.64 190.769 249.1 192.022 249.1C193.155 249.1 194.062 249.453 194.742 250.16C195.422 250.867 195.762 251.84 195.762 253.08C195.762 254.733 195.289 256.173 194.342 257.4C193.409 258.627 192.195 259.24 190.702 259.24ZM190.502 257.9C191.569 257.9 192.449 257.447 193.142 256.54C193.835 255.633 194.182 254.573 194.182 253.36C194.182 252.467 193.935 251.76 193.442 251.24C192.949 250.707 192.295 250.44 191.482 250.44C190.909 250.44 190.355 250.6 189.822 250.92C189.302 251.227 188.869 251.613 188.522 252.08L187.582 256.34C187.835 256.793 188.215 257.167 188.722 257.46C189.242 257.753 189.835 257.9 190.502 257.9ZM202.106 259.24C200.653 259.24 199.499 258.853 198.646 258.08C197.806 257.293 197.386 256.253 197.386 254.96C197.386 253.347 197.913 251.967 198.966 250.82C200.019 249.673 201.306 249.1 202.826 249.1C204.093 249.1 205.099 249.493 205.846 250.28C206.606 251.067 206.986 252.08 206.986 253.32C206.986 253.72 206.933 254.167 206.826 254.66H198.966C198.939 254.767 198.926 254.92 198.926 255.12C198.926 255.92 199.213 256.6 199.786 257.16C200.359 257.72 201.166 258 202.206 258C203.286 258 204.213 257.68 204.986 257.04L205.506 258.1C204.493 258.86 203.359 259.24 202.106 259.24ZM205.546 253.54H205.606C205.606 253.513 205.606 253.46 205.606 253.38C205.619 253.287 205.626 253.22 205.626 253.18C205.626 252.34 205.366 251.66 204.846 251.14C204.339 250.607 203.619 250.34 202.686 250.34C201.819 250.34 201.046 250.66 200.366 251.3C199.686 251.927 199.266 252.673 199.106 253.54H205.546ZM213.095 259.24C211.775 259.24 210.702 258.853 209.875 258.08C209.062 257.307 208.655 256.253 208.655 254.92C208.655 253.32 209.182 251.953 210.235 250.82C211.302 249.673 212.589 249.1 214.095 249.1C215.789 249.1 216.995 249.7 217.715 250.9L216.575 251.76C216.082 250.88 215.269 250.44 214.135 250.44C212.962 250.44 212.015 250.88 211.295 251.76C210.575 252.64 210.215 253.687 210.215 254.9C210.215 255.86 210.495 256.6 211.055 257.12C211.629 257.64 212.355 257.9 213.235 257.9C214.222 257.9 215.042 257.513 215.695 256.74L216.535 257.76C215.575 258.747 214.429 259.24 213.095 259.24ZM223.297 259.24C221.844 259.24 220.691 258.853 219.837 258.08C218.997 257.293 218.577 256.253 218.577 254.96C218.577 253.347 219.104 251.967 220.157 250.82C221.211 249.673 222.497 249.1 224.017 249.1C225.284 249.1 226.291 249.493 227.037 250.28C227.797 251.067 228.177 252.08 228.177 253.32C228.177 253.72 228.124 254.167 228.017 254.66H220.157C220.131 254.767 220.117 254.92 220.117 255.12C220.117 255.92 220.404 256.6 220.977 257.16C221.551 257.72 222.357 258 223.397 258C224.477 258 225.404 257.68 226.177 257.04L226.697 258.1C225.684 258.86 224.551 259.24 223.297 259.24ZM226.737 253.54H226.797C226.797 253.513 226.797 253.46 226.797 253.38C226.811 253.287 226.817 253.22 226.817 253.18C226.817 252.34 226.557 251.66 226.037 251.14C225.531 250.607 224.811 250.34 223.877 250.34C223.011 250.34 222.237 250.66 221.557 251.3C220.877 251.927 220.457 252.673 220.297 253.54H226.737ZM230.967 259H229.467L231.607 249.34H233.107L232.767 250.8C233.274 250.227 233.8 249.807 234.347 249.54C234.907 249.26 235.58 249.12 236.367 249.12L236.027 250.68C235.867 250.627 235.614 250.6 235.267 250.6C234.734 250.6 234.214 250.753 233.707 251.06C233.214 251.367 232.8 251.74 232.467 252.18L230.967 259ZM243.708 259H242.208L242.448 257.96C241.568 258.813 240.568 259.24 239.448 259.24C238.542 259.24 237.768 259 237.128 258.52C236.502 258.027 236.188 257.333 236.188 256.44C236.188 255.347 236.535 254.48 237.228 253.84C237.935 253.187 238.795 252.86 239.808 252.86C241.262 252.86 242.408 253.34 243.248 254.3L243.608 252.68C243.648 252.52 243.668 252.327 243.668 252.1C243.668 251.58 243.435 251.16 242.968 250.84C242.502 250.52 241.882 250.36 241.108 250.36C240.068 250.36 239.122 250.74 238.268 251.5L237.788 250.42C238.868 249.54 240.062 249.1 241.368 249.1C242.475 249.1 243.388 249.333 244.108 249.8C244.842 250.253 245.208 250.933 245.208 251.84C245.208 251.973 245.168 252.28 245.088 252.76L243.708 259ZM240.028 258.16C241.042 258.16 241.915 257.773 242.648 257L243.068 255.2C242.575 254.36 241.642 253.94 240.268 253.94C239.522 253.94 238.915 254.167 238.448 254.62C237.995 255.06 237.768 255.627 237.768 256.32C237.768 256.907 237.975 257.36 238.388 257.68C238.802 258 239.348 258.16 240.028 258.16ZM264.971 259H263.471L264.911 252.52C264.951 252.32 264.971 252.14 264.971 251.98C264.971 251.5 264.811 251.127 264.491 250.86C264.184 250.58 263.797 250.44 263.331 250.44C262.437 250.44 261.557 250.947 260.691 251.96L259.131 259H257.631L259.071 252.52C259.124 252.293 259.151 252.087 259.151 251.9C259.151 251.46 259.004 251.107 258.711 250.84C258.417 250.573 258.004 250.44 257.471 250.44C256.617 250.44 255.751 250.947 254.871 251.96L253.311 259H251.811L253.951 249.34H255.451L255.131 250.74C256.077 249.647 257.091 249.1 258.171 249.1C258.944 249.1 259.557 249.32 260.011 249.76C260.477 250.187 260.711 250.607 260.711 251.02V251.04C261.737 249.747 262.837 249.1 264.011 249.1C264.717 249.1 265.317 249.313 265.811 249.74C266.304 250.153 266.551 250.733 266.551 251.48C266.551 251.627 266.517 251.9 266.451 252.3L264.971 259ZM270.103 249.34H271.603L270.203 255.68C270.136 255.973 270.103 256.193 270.103 256.34C270.103 257.38 270.77 257.9 272.103 257.9C273.116 257.9 274.103 257.393 275.063 256.38L276.623 249.34H278.123L275.983 259H274.483L274.803 257.6C273.683 258.693 272.55 259.24 271.403 259.24C270.523 259.24 269.823 259.033 269.303 258.62C268.783 258.207 268.523 257.62 268.523 256.86C268.523 256.687 268.556 256.413 268.623 256.04L270.103 249.34ZM286.999 259H285.519L286.919 252.66C286.985 252.327 287.019 252.1 287.019 251.98C287.019 250.953 286.352 250.44 285.019 250.44C283.992 250.44 282.999 250.947 282.039 251.96L280.479 259H278.979L281.119 249.34H282.619L282.299 250.74C283.419 249.647 284.559 249.1 285.719 249.1C286.585 249.1 287.279 249.307 287.799 249.72C288.332 250.133 288.599 250.72 288.599 251.48C288.599 251.733 288.559 252.007 288.479 252.3L286.999 259ZM293.314 247.96C293.047 247.96 292.827 247.873 292.654 247.7C292.48 247.527 292.394 247.32 292.394 247.08C292.394 246.747 292.514 246.473 292.754 246.26C292.994 246.047 293.254 245.94 293.534 245.94C293.787 245.94 294 246.027 294.174 246.2C294.36 246.373 294.454 246.58 294.454 246.82C294.454 247.153 294.334 247.427 294.094 247.64C293.854 247.853 293.594 247.96 293.314 247.96ZM291.514 259H290.014L292.154 249.34H293.654L291.514 259ZM299.326 259.24C298.006 259.24 296.933 258.853 296.106 258.08C295.293 257.307 294.886 256.253 294.886 254.92C294.886 253.32 295.413 251.953 296.466 250.82C297.533 249.673 298.819 249.1 300.326 249.1C302.019 249.1 303.226 249.7 303.946 250.9L302.806 251.76C302.313 250.88 301.499 250.44 300.366 250.44C299.193 250.44 298.246 250.88 297.526 251.76C296.806 252.64 296.446 253.687 296.446 254.9C296.446 255.86 296.726 256.6 297.286 257.12C297.859 257.64 298.586 257.9 299.466 257.9C300.453 257.9 301.273 257.513 301.926 256.74L302.766 257.76C301.806 258.747 300.659 259.24 299.326 259.24ZM307.728 247.96C307.461 247.96 307.241 247.873 307.068 247.7C306.894 247.527 306.808 247.32 306.808 247.08C306.808 246.747 306.928 246.473 307.168 246.26C307.408 246.047 307.668 245.94 307.948 245.94C308.201 245.94 308.414 246.027 308.588 246.2C308.774 246.373 308.868 246.58 308.868 246.82C308.868 247.153 308.748 247.427 308.508 247.64C308.268 247.853 308.008 247.96 307.728 247.96ZM305.928 259H304.428L306.568 249.34H308.068L305.928 259ZM314.12 259.24C313.387 259.24 312.72 259.087 312.12 258.78C311.533 258.46 311.08 258.027 310.76 257.48L309.6 262.68H308.1L311.06 249.34H312.56L312.26 250.72C313.127 249.64 314.187 249.1 315.44 249.1C316.573 249.1 317.48 249.453 318.16 250.16C318.84 250.867 319.18 251.84 319.18 253.08C319.18 254.733 318.707 256.173 317.76 257.4C316.827 258.627 315.613 259.24 314.12 259.24ZM313.92 257.9C314.987 257.9 315.867 257.447 316.56 256.54C317.253 255.633 317.6 254.573 317.6 253.36C317.6 252.467 317.353 251.76 316.86 251.24C316.367 250.707 315.713 250.44 314.9 250.44C314.327 250.44 313.773 250.6 313.24 250.92C312.72 251.227 312.287 251.613 311.94 252.08L311 256.34C311.253 256.793 311.633 257.167 312.14 257.46C312.66 257.753 313.253 257.9 313.92 257.9ZM328.005 259H326.505L326.745 257.96C325.865 258.813 324.865 259.24 323.745 259.24C322.839 259.24 322.065 259 321.425 258.52C320.799 258.027 320.485 257.333 320.485 256.44C320.485 255.347 320.832 254.48 321.525 253.84C322.232 253.187 323.092 252.86 324.105 252.86C325.559 252.86 326.705 253.34 327.545 254.3L327.905 252.68C327.945 252.52 327.965 252.327 327.965 252.1C327.965 251.58 327.732 251.16 327.265 250.84C326.799 250.52 326.179 250.36 325.405 250.36C324.365 250.36 323.419 250.74 322.565 251.5L322.085 250.42C323.165 249.54 324.359 249.1 325.665 249.1C326.772 249.1 327.685 249.333 328.405 249.8C329.139 250.253 329.505 250.933 329.505 251.84C329.505 251.973 329.465 252.28 329.385 252.76L328.005 259ZM324.325 258.16C325.339 258.16 326.212 257.773 326.945 257L327.365 255.2C326.872 254.36 325.939 253.94 324.565 253.94C323.819 253.94 323.212 254.167 322.745 254.62C322.292 255.06 322.065 255.627 322.065 256.32C322.065 256.907 322.272 257.36 322.685 257.68C323.099 258 323.645 258.16 324.325 258.16ZM333.532 259.24C332.852 259.24 332.312 259.1 331.912 258.82C331.512 258.527 331.312 258.12 331.312 257.6C331.312 257.36 331.338 257.133 331.392 256.92L333.872 245.66H335.372L332.952 256.62C332.912 256.78 332.892 256.933 332.892 257.08C332.892 257.627 333.225 257.9 333.892 257.9C334.238 257.9 334.545 257.793 334.812 257.58L334.972 258.78C334.585 259.087 334.105 259.24 333.532 259.24Z" fill="#FAFAFA"/>
<rect x="184" width="169" height="61" rx="20" fill="#B6174B"/>
<path d="M206.36 26.24C204.573 26.24 203.1 25.7067 201.94 24.64C200.78 23.56 200.2 22.1467 200.2 20.4C200.2 19.2267 200.407 18.14 200.82 17.14C201.247 16.1267 201.807 15.28 202.5 14.6C203.193 13.92 203.993 13.3933 204.9 13.02C205.807 12.6333 206.74 12.44 207.7 12.44C208.993 12.44 210.107 12.72 211.04 13.28C211.973 13.84 212.68 14.6067 213.16 15.58L211.56 16.2C211.187 15.44 210.653 14.8733 209.96 14.5C209.267 14.1133 208.487 13.92 207.62 13.92C206.113 13.92 204.793 14.52 203.66 15.72C202.527 16.92 201.96 18.4533 201.96 20.32C201.96 21.64 202.367 22.7133 203.18 23.54C203.993 24.3533 205.087 24.76 206.46 24.76C207.78 24.76 208.973 24.2467 210.04 23.22L211.28 24.16C209.947 25.5467 208.307 26.24 206.36 26.24ZM218.036 26.24C216.582 26.24 215.429 25.8533 214.576 25.08C213.736 24.2933 213.316 23.2533 213.316 21.96C213.316 20.3467 213.842 18.9667 214.896 17.82C215.949 16.6733 217.236 16.1 218.756 16.1C220.022 16.1 221.029 16.4933 221.776 17.28C222.536 18.0667 222.916 19.08 222.916 20.32C222.916 20.72 222.862 21.1667 222.756 21.66H214.896C214.869 21.7667 214.856 21.92 214.856 22.12C214.856 22.92 215.142 23.6 215.716 24.16C216.289 24.72 217.096 25 218.136 25C219.216 25 220.142 24.68 220.916 24.04L221.436 25.1C220.422 25.86 219.289 26.24 218.036 26.24ZM221.476 20.54H221.536C221.536 20.5133 221.536 20.46 221.536 20.38C221.549 20.2867 221.556 20.22 221.556 20.18C221.556 19.34 221.296 18.66 220.776 18.14C220.269 17.6067 219.549 17.34 218.616 17.34C217.749 17.34 216.976 17.66 216.296 18.3C215.616 18.9267 215.196 19.6733 215.036 20.54H221.476ZM232.225 26H230.745L232.145 19.66C232.212 19.3267 232.245 19.1 232.245 18.98C232.245 17.9533 231.578 17.44 230.245 17.44C229.218 17.44 228.225 17.9467 227.265 18.96L225.705 26H224.205L226.345 16.34H227.845L227.525 17.74C228.645 16.6467 229.785 16.1 230.945 16.1C231.812 16.1 232.505 16.3067 233.025 16.72C233.558 17.1333 233.825 17.72 233.825 18.48C233.825 18.7333 233.785 19.0067 233.705 19.3L232.225 26ZM238.16 26.24C236.68 26.24 235.94 25.6533 235.94 24.48C235.94 24.32 235.96 24.1333 236 23.92L237.4 17.66H235.8L236.1 16.34H237.7L238.28 13.7H239.76L239.18 16.34H241.16L240.86 17.66H238.9L237.56 23.62C237.547 23.6867 237.54 23.8133 237.54 24C237.54 24.6 237.86 24.9 238.5 24.9C238.847 24.9 239.154 24.7933 239.42 24.58L239.58 25.78C239.18 26.0867 238.707 26.24 238.16 26.24ZM242.619 26H241.119L243.259 16.34H244.759L244.419 17.8C244.926 17.2267 245.453 16.8067 245.999 16.54C246.559 16.26 247.233 16.12 248.019 16.12L247.679 17.68C247.519 17.6267 247.266 17.6 246.919 17.6C246.386 17.6 245.866 17.7533 245.359 18.06C244.866 18.3667 244.453 18.74 244.119 19.18L242.619 26ZM252.521 26.24C251.161 26.24 250.081 25.8467 249.281 25.06C248.494 24.2733 248.101 23.2333 248.101 21.94C248.101 20.38 248.614 19.02 249.641 17.86C250.681 16.6867 251.961 16.1 253.481 16.1C254.841 16.1 255.914 16.4933 256.701 17.28C257.501 18.0667 257.901 19.1 257.901 20.38C257.901 21.9533 257.381 23.3267 256.341 24.5C255.314 25.66 254.041 26.24 252.521 26.24ZM252.561 24.9C253.627 24.9 254.521 24.4533 255.241 23.56C255.961 22.6533 256.321 21.6133 256.321 20.44C256.321 19.52 256.067 18.7933 255.561 18.26C255.054 17.7133 254.347 17.44 253.441 17.44C252.374 17.44 251.481 17.8933 250.761 18.8C250.041 19.6933 249.681 20.7267 249.681 21.9C249.681 22.82 249.934 23.5533 250.441 24.1C250.947 24.6333 251.654 24.9 252.561 24.9ZM269.542 26.24C268.809 26.24 268.142 26.0867 267.542 25.78C266.955 25.46 266.502 25.0267 266.182 24.48L265.022 29.68H263.522L266.482 16.34H267.982L267.682 17.72C268.549 16.64 269.609 16.1 270.862 16.1C271.995 16.1 272.902 16.4533 273.582 17.16C274.262 17.8667 274.602 18.84 274.602 20.08C274.602 21.7333 274.129 23.1733 273.182 24.4C272.249 25.6267 271.035 26.24 269.542 26.24ZM269.342 24.9C270.409 24.9 271.289 24.4467 271.982 23.54C272.675 22.6333 273.022 21.5733 273.022 20.36C273.022 19.4667 272.775 18.76 272.282 18.24C271.789 17.7067 271.135 17.44 270.322 17.44C269.749 17.44 269.195 17.6 268.662 17.92C268.142 18.2267 267.709 18.6133 267.362 19.08L266.422 23.34C266.675 23.7933 267.055 24.1667 267.562 24.46C268.082 24.7533 268.675 24.9 269.342 24.9ZM280.587 26.24C279.227 26.24 278.147 25.8467 277.347 25.06C276.561 24.2733 276.167 23.2333 276.167 21.94C276.167 20.38 276.681 19.02 277.707 17.86C278.747 16.6867 280.027 16.1 281.547 16.1C282.907 16.1 283.981 16.4933 284.767 17.28C285.567 18.0667 285.967 19.1 285.967 20.38C285.967 21.9533 285.447 23.3267 284.407 24.5C283.381 25.66 282.107 26.24 280.587 26.24ZM280.627 24.9C281.694 24.9 282.587 24.4533 283.307 23.56C284.027 22.6533 284.387 21.6133 284.387 20.44C284.387 19.52 284.134 18.7933 283.627 18.26C283.121 17.7133 282.414 17.44 281.507 17.44C280.441 17.44 279.547 17.8933 278.827 18.8C278.107 19.6933 277.747 20.7267 277.747 21.9C277.747 22.82 278.001 23.5533 278.507 24.1C279.014 24.6333 279.721 24.9 280.627 24.9ZM292.433 26.24C291.699 26.24 291.033 26.0867 290.433 25.78C289.846 25.46 289.393 25.0267 289.073 24.48L288.733 26H287.233L290.173 12.66H291.673L290.573 17.72C291.439 16.64 292.499 16.1 293.753 16.1C294.886 16.1 295.793 16.4533 296.473 17.16C297.153 17.8667 297.493 18.84 297.493 20.08C297.493 21.7333 297.019 23.1733 296.073 24.4C295.139 25.6267 293.926 26.24 292.433 26.24ZM292.233 24.9C293.299 24.9 294.179 24.4467 294.873 23.54C295.566 22.6333 295.913 21.5733 295.913 20.36C295.913 19.4667 295.666 18.76 295.173 18.24C294.679 17.7067 294.026 17.44 293.213 17.44C292.639 17.44 292.086 17.6 291.553 17.92C291.033 18.2267 290.599 18.6133 290.253 19.08L289.312 23.34C289.566 23.7933 289.946 24.1667 290.453 24.46C290.973 24.7533 291.566 24.9 292.233 24.9ZM301.336 26.24C300.656 26.24 300.116 26.1 299.716 25.82C299.316 25.5267 299.116 25.12 299.116 24.6C299.116 24.36 299.143 24.1333 299.196 23.92L301.676 12.66H303.176L300.756 23.62C300.716 23.78 300.696 23.9333 300.696 24.08C300.696 24.6267 301.03 24.9 301.696 24.9C302.043 24.9 302.35 24.7933 302.616 24.58L302.776 25.78C302.39 26.0867 301.91 26.24 301.336 26.24ZM311.748 26H310.248L310.488 24.96C309.608 25.8133 308.608 26.24 307.488 26.24C306.581 26.24 305.808 26 305.168 25.52C304.541 25.0267 304.228 24.3333 304.228 23.44C304.228 22.3467 304.574 21.48 305.268 20.84C305.974 20.1867 306.834 19.86 307.848 19.86C309.301 19.86 310.448 20.34 311.288 21.3L311.648 19.68C311.688 19.52 311.708 19.3267 311.708 19.1C311.708 18.58 311.474 18.16 311.008 17.84C310.541 17.52 309.921 17.36 309.148 17.36C308.108 17.36 307.161 17.74 306.308 18.5L305.828 17.42C306.908 16.54 308.101 16.1 309.408 16.1C310.514 16.1 311.428 16.3333 312.148 16.8C312.881 17.2533 313.248 17.9333 313.248 18.84C313.248 18.9733 313.208 19.28 313.128 19.76L311.748 26ZM308.068 25.16C309.081 25.16 309.954 24.7733 310.688 24L311.108 22.2C310.614 21.36 309.681 20.94 308.308 20.94C307.561 20.94 306.954 21.1667 306.488 21.62C306.034 22.06 305.808 22.6267 305.808 23.32C305.808 23.9067 306.014 24.36 306.428 24.68C306.841 25 307.388 25.16 308.068 25.16ZM320.114 16.1C320.847 16.1 321.507 16.26 322.094 16.58C322.694 16.8867 323.154 17.3133 323.474 17.86L324.634 12.66H326.134L323.174 26H321.674L321.974 24.62C321.107 25.7 320.047 26.24 318.794 26.24C317.674 26.24 316.767 25.8867 316.074 25.18C315.394 24.4733 315.054 23.5 315.054 22.26C315.054 20.6067 315.521 19.1667 316.454 17.94C317.401 16.7133 318.621 16.1 320.114 16.1ZM320.314 17.44C319.247 17.44 318.367 17.8933 317.674 18.8C316.981 19.7067 316.634 20.7667 316.634 21.98C316.634 22.8733 316.881 23.5867 317.374 24.12C317.867 24.64 318.521 24.9 319.334 24.9C319.907 24.9 320.454 24.7467 320.974 24.44C321.507 24.12 321.947 23.7267 322.294 23.26L323.234 19C322.981 18.5467 322.594 18.1733 322.074 17.88C321.567 17.5867 320.981 17.44 320.314 17.44ZM330.978 26.24C329.618 26.24 328.538 25.8467 327.738 25.06C326.951 24.2733 326.558 23.2333 326.558 21.94C326.558 20.38 327.071 19.02 328.098 17.86C329.138 16.6867 330.418 16.1 331.938 16.1C333.298 16.1 334.371 16.4933 335.158 17.28C335.958 18.0667 336.358 19.1 336.358 20.38C336.358 21.9533 335.838 23.3267 334.798 24.5C333.771 25.66 332.498 26.24 330.978 26.24ZM331.018 24.9C332.084 24.9 332.978 24.4533 333.698 23.56C334.418 22.6533 334.778 21.6133 334.778 20.44C334.778 19.52 334.524 18.7933 334.018 18.26C333.511 17.7133 332.804 17.44 331.898 17.44C330.831 17.44 329.938 17.8933 329.218 18.8C328.498 19.6933 328.138 20.7267 328.138 21.9C328.138 22.82 328.391 23.5533 328.898 24.1C329.404 24.6333 330.111 24.9 331.018 24.9ZM202.78 51.92C200.82 51.92 199.38 51.3733 198.46 50.28L199.4 49.26C200.013 50.2067 201.127 50.68 202.74 50.68C204.447 50.68 205.533 49.68 206 47.68L206.28 46.44C205.107 47.5067 203.98 48.04 202.9 48.04C202.06 48.04 201.367 47.8467 200.82 47.46C200.287 47.06 200.02 46.4667 200.02 45.68C200.02 45.4667 200.053 45.1867 200.12 44.84L201.56 38.34H203.06L201.7 44.48C201.633 44.7867 201.6 45.02 201.6 45.18C201.6 46.2067 202.267 46.72 203.6 46.72C204.613 46.72 205.6 46.2133 206.56 45.2L208.08 38.34H209.58L207.5 47.68C206.873 50.5067 205.3 51.92 202.78 51.92ZM217.111 48H215.611L217.751 38.34H219.251L218.911 39.8C219.418 39.2267 219.945 38.8067 220.491 38.54C221.051 38.26 221.725 38.12 222.511 38.12L222.171 39.68C222.011 39.6267 221.758 39.6 221.411 39.6C220.878 39.6 220.358 39.7533 219.851 40.06C219.358 40.3667 218.945 40.74 218.611 41.18L217.111 48ZM224.353 38.34H225.853L224.453 44.68C224.386 44.9733 224.353 45.1933 224.353 45.34C224.353 46.38 225.02 46.9 226.353 46.9C227.366 46.9 228.353 46.3933 229.313 45.38L230.873 38.34H232.373L230.233 48H228.733L229.053 46.6C227.933 47.6933 226.8 48.24 225.653 48.24C224.773 48.24 224.073 48.0333 223.553 47.62C223.033 47.2067 222.773 46.62 222.773 45.86C222.773 45.6867 222.806 45.4133 222.873 45.04L224.353 38.34ZM234.729 48H233.229L235.369 38.34H236.869L236.529 39.8C237.035 39.2267 237.562 38.8067 238.109 38.54C238.669 38.26 239.342 38.12 240.129 38.12L239.789 39.68C239.629 39.6267 239.375 39.6 239.029 39.6C238.495 39.6 237.975 39.7533 237.469 40.06C236.975 40.3667 236.562 40.74 236.229 41.18L234.729 48ZM247.47 48H245.97L246.21 46.96C245.33 47.8133 244.33 48.24 243.21 48.24C242.303 48.24 241.53 48 240.89 47.52C240.263 47.0267 239.95 46.3333 239.95 45.44C239.95 44.3467 240.297 43.48 240.99 42.84C241.697 42.1867 242.557 41.86 243.57 41.86C245.023 41.86 246.17 42.34 247.01 43.3L247.37 41.68C247.41 41.52 247.43 41.3267 247.43 41.1C247.43 40.58 247.197 40.16 246.73 39.84C246.263 39.52 245.643 39.36 244.87 39.36C243.83 39.36 242.883 39.74 242.03 40.5L241.55 39.42C242.63 38.54 243.823 38.1 245.13 38.1C246.237 38.1 247.15 38.3333 247.87 38.8C248.603 39.2533 248.97 39.9333 248.97 40.84C248.97 40.9733 248.93 41.28 248.85 41.76L247.47 48ZM243.79 47.16C244.803 47.16 245.677 46.7733 246.41 46L246.83 44.2C246.337 43.36 245.403 42.94 244.03 42.94C243.283 42.94 242.677 43.1667 242.21 43.62C241.757 44.06 241.53 44.6267 241.53 45.32C241.53 45.9067 241.737 46.36 242.15 46.68C242.563 47 243.11 47.16 243.79 47.16ZM252.997 48.24C252.317 48.24 251.777 48.1 251.377 47.82C250.977 47.5267 250.777 47.12 250.777 46.6C250.777 46.36 250.803 46.1333 250.857 45.92L253.337 34.66H254.837L252.417 45.62C252.377 45.78 252.357 45.9333 252.357 46.08C252.357 46.6267 252.69 46.9 253.357 46.9C253.703 46.9 254.01 46.7933 254.277 46.58L254.437 47.78C254.05 48.0867 253.57 48.24 252.997 48.24ZM266.383 38.1C267.117 38.1 267.777 38.26 268.363 38.58C268.963 38.8867 269.423 39.3133 269.743 39.86L270.903 34.66H272.403L269.443 48H267.943L268.243 46.62C267.377 47.7 266.317 48.24 265.063 48.24C263.943 48.24 263.037 47.8867 262.343 47.18C261.663 46.4733 261.323 45.5 261.323 44.26C261.323 42.6067 261.79 41.1667 262.723 39.94C263.67 38.7133 264.89 38.1 266.383 38.1ZM266.583 39.44C265.517 39.44 264.637 39.8933 263.943 40.8C263.25 41.7067 262.903 42.7667 262.903 43.98C262.903 44.8733 263.15 45.5867 263.643 46.12C264.137 46.64 264.79 46.9 265.603 46.9C266.177 46.9 266.723 46.7467 267.243 46.44C267.777 46.12 268.217 45.7267 268.563 45.26L269.503 41C269.25 40.5467 268.863 40.1733 268.343 39.88C267.837 39.5867 267.25 39.44 266.583 39.44ZM275.747 36.96C275.481 36.96 275.261 36.8733 275.087 36.7C274.914 36.5267 274.827 36.32 274.827 36.08C274.827 35.7467 274.947 35.4733 275.187 35.26C275.427 35.0467 275.687 34.94 275.967 34.94C276.221 34.94 276.434 35.0267 276.607 35.2C276.794 35.3733 276.887 35.58 276.887 35.82C276.887 36.1533 276.767 36.4267 276.527 36.64C276.287 36.8533 276.027 36.96 275.747 36.96ZM273.947 48H272.447L274.587 38.34H276.087L273.947 48ZM280.66 48.24C278.86 48.24 277.5 47.6667 276.58 46.52L277.54 45.5C277.82 45.9133 278.253 46.2733 278.84 46.58C279.426 46.8733 280.06 47.02 280.74 47.02C281.406 47.02 281.94 46.8533 282.34 46.52C282.753 46.1867 282.96 45.7867 282.96 45.32C282.96 44.9867 282.786 44.6933 282.44 44.44C282.093 44.1867 281.666 43.9733 281.16 43.8C280.666 43.6133 280.166 43.42 279.66 43.22C279.166 43.0067 278.746 42.72 278.4 42.36C278.053 42 277.88 41.5733 277.88 41.08C277.88 40.24 278.206 39.5333 278.86 38.96C279.513 38.3867 280.406 38.1 281.54 38.1C282.326 38.1 283.053 38.2533 283.72 38.56C284.386 38.8533 284.893 39.2267 285.24 39.68L284.36 40.66C284.133 40.2867 283.746 39.9733 283.2 39.72C282.653 39.4533 282.073 39.32 281.46 39.32C280.833 39.32 280.326 39.46 279.94 39.74C279.566 40.02 279.38 40.3733 279.38 40.8C279.38 41.1067 279.553 41.38 279.9 41.62C280.246 41.86 280.666 42.0667 281.16 42.24C281.666 42.4133 282.166 42.6067 282.66 42.82C283.166 43.0333 283.593 43.3333 283.94 43.72C284.286 44.0933 284.46 44.54 284.46 45.06C284.46 45.94 284.12 46.6933 283.44 47.32C282.76 47.9333 281.833 48.24 280.66 48.24ZM291.436 48.24C290.703 48.24 290.036 48.0867 289.436 47.78C288.85 47.46 288.396 47.0267 288.076 46.48L286.916 51.68H285.416L288.376 38.34H289.876L289.576 39.72C290.443 38.64 291.503 38.1 292.756 38.1C293.89 38.1 294.796 38.4533 295.476 39.16C296.156 39.8667 296.496 40.84 296.496 42.08C296.496 43.7333 296.023 45.1733 295.076 46.4C294.143 47.6267 292.93 48.24 291.436 48.24ZM291.236 46.9C292.303 46.9 293.183 46.4467 293.876 45.54C294.57 44.6333 294.916 43.5733 294.916 42.36C294.916 41.4667 294.67 40.76 294.176 40.24C293.683 39.7067 293.03 39.44 292.216 39.44C291.643 39.44 291.09 39.6 290.556 39.92C290.036 40.2267 289.603 40.6133 289.256 41.08L288.316 45.34C288.57 45.7933 288.95 46.1667 289.456 46.46C289.976 46.7533 290.57 46.9 291.236 46.9ZM302.782 48.24C301.328 48.24 300.175 47.8533 299.322 47.08C298.482 46.2933 298.062 45.2533 298.062 43.96C298.062 42.3467 298.588 40.9667 299.642 39.82C300.695 38.6733 301.982 38.1 303.502 38.1C304.768 38.1 305.775 38.4933 306.522 39.28C307.282 40.0667 307.662 41.08 307.662 42.32C307.662 42.72 307.608 43.1667 307.502 43.66H299.642C299.615 43.7667 299.602 43.92 299.602 44.12C299.602 44.92 299.888 45.6 300.462 46.16C301.035 46.72 301.842 47 302.882 47C303.962 47 304.888 46.68 305.662 46.04L306.182 47.1C305.168 47.86 304.035 48.24 302.782 48.24ZM306.222 42.54H306.282C306.282 42.5133 306.282 42.46 306.282 42.38C306.295 42.2867 306.302 42.22 306.302 42.18C306.302 41.34 306.042 40.66 305.522 40.14C305.015 39.6067 304.295 39.34 303.362 39.34C302.495 39.34 301.722 39.66 301.042 40.3C300.362 40.9267 299.942 41.6733 299.782 42.54H306.222ZM310.451 48H308.951L311.091 38.34H312.591L312.251 39.8C312.758 39.2267 313.285 38.8067 313.831 38.54C314.391 38.26 315.065 38.12 315.851 38.12L315.511 39.68C315.351 39.6267 315.098 39.6 314.751 39.6C314.218 39.6 313.698 39.7533 313.191 40.06C312.698 40.3667 312.285 40.74 311.951 41.18L310.451 48ZM319.273 48.24C317.473 48.24 316.113 47.6667 315.193 46.52L316.153 45.5C316.433 45.9133 316.866 46.2733 317.453 46.58C318.039 46.8733 318.673 47.02 319.353 47.02C320.019 47.02 320.553 46.8533 320.953 46.52C321.366 46.1867 321.573 45.7867 321.573 45.32C321.573 44.9867 321.399 44.6933 321.053 44.44C320.706 44.1867 320.279 43.9733 319.773 43.8C319.279 43.6133 318.779 43.42 318.273 43.22C317.779 43.0067 317.359 42.72 317.013 42.36C316.666 42 316.493 41.5733 316.493 41.08C316.493 40.24 316.819 39.5333 317.473 38.96C318.126 38.3867 319.019 38.1 320.153 38.1C320.939 38.1 321.666 38.2533 322.333 38.56C322.999 38.8533 323.506 39.2267 323.853 39.68L322.973 40.66C322.746 40.2867 322.359 39.9733 321.813 39.72C321.266 39.4533 320.686 39.32 320.073 39.32C319.446 39.32 318.939 39.46 318.553 39.74C318.179 40.02 317.993 40.3733 317.993 40.8C317.993 41.1067 318.166 41.38 318.513 41.62C318.859 41.86 319.279 42.0667 319.773 42.24C320.279 42.4133 320.779 42.6067 321.273 42.82C321.779 43.0333 322.206 43.3333 322.553 43.72C322.899 44.0933 323.073 44.54 323.073 45.06C323.073 45.94 322.733 46.6933 322.053 47.32C321.373 47.9333 320.446 48.24 319.273 48.24ZM329.65 48.24C328.29 48.24 327.21 47.8467 326.41 47.06C325.623 46.2733 325.23 45.2333 325.23 43.94C325.23 42.38 325.743 41.02 326.77 39.86C327.81 38.6867 329.09 38.1 330.61 38.1C331.97 38.1 333.043 38.4933 333.83 39.28C334.63 40.0667 335.03 41.1 335.03 42.38C335.03 43.9533 334.51 45.3267 333.47 46.5C332.443 47.66 331.17 48.24 329.65 48.24ZM329.69 46.9C330.756 46.9 331.65 46.4533 332.37 45.56C333.09 44.6533 333.45 43.6133 333.45 42.44C333.45 41.52 333.196 40.7933 332.69 40.26C332.183 39.7133 331.476 39.44 330.57 39.44C329.503 39.44 328.61 39.8933 327.89 40.8C327.17 41.6933 326.81 42.7267 326.81 43.9C326.81 44.82 327.063 45.5533 327.57 46.1C328.076 46.6333 328.783 46.9 329.69 46.9Z" fill="#FAFAFA"/>
<path d="M220 31H140V64" stroke="#B6174B"/>
<path d="M147 254H82V210" stroke="#1D5556"/>
</svg>
