<svg width="80" height="80" viewBox="0 0 80 80" fill="none" xmlns="http://www.w3.org/2000/svg">
<circle opacity="0.1" cx="40" cy="40" r="40" fill="#1C5253"/>
<path d="M67.0683 42.1383L66.0532 34.8467C65.9835 34.3456 65.6678 33.9125 65.2116 33.6928L62.6657 32.4665C62.409 32.3429 62.2096 32.1272 62.1017 31.8632C58.9081 24.0143 50.5087 18.4102 40.6487 18.4102C30.7887 18.4102 23.1617 23.5132 19.6664 30.8009C19.649 30.8037 19.6304 30.806 19.6108 30.8076C19.5445 30.8127 19.4653 30.8088 19.3771 30.7913C19.2894 30.7745 19.1956 30.7492 19.0984 30.7133C19.0013 30.6767 18.9013 30.6329 18.8007 30.5824C18.5996 30.479 18.3974 30.3532 18.2013 30.2105C18.103 30.1397 18.0064 30.0644 17.912 29.9869C17.8721 29.9543 17.8328 29.9206 17.794 29.8869C17.8362 29.8493 17.8783 29.8105 17.9193 29.7718C18.0502 29.647 18.171 29.5128 18.2856 29.3746C18.4007 29.2364 18.5075 29.092 18.608 28.9443C18.7086 28.796 18.8035 28.6449 18.8912 28.4898C18.9136 28.4516 18.9344 28.4123 18.9563 28.3735C18.9777 28.3348 18.999 28.296 19.0198 28.2539C19.0625 28.1724 19.1018 28.0882 19.1389 28.0033C19.213 27.8331 19.276 27.655 19.3215 27.4674C19.367 27.2798 19.3967 27.082 19.3939 26.8736C19.3911 26.6658 19.354 26.4433 19.2591 26.2321C19.1653 26.0214 19.0159 25.8293 18.8299 25.6866C18.6457 25.5439 18.4373 25.4479 18.2198 25.3951C18.0024 25.3423 17.7738 25.3288 17.5418 25.3647C17.3109 25.4001 17.0727 25.494 16.8694 25.6585C16.8447 25.6788 16.8177 25.7007 16.7958 25.7203L16.7419 25.7731C16.7059 25.8085 16.6694 25.8434 16.6346 25.8804C16.5677 25.9568 16.4986 26.0316 16.4391 26.1153C16.375 26.1956 16.3222 26.2832 16.266 26.3697C16.2166 26.4596 16.1644 26.5484 16.1239 26.6422C16.0374 26.8281 15.97 27.0225 15.9239 27.2197C15.8279 27.6146 15.8093 28.0168 15.8408 28.4078C15.8745 28.7993 15.9582 29.1813 16.0913 29.5538C16.1588 29.7403 16.2385 29.924 16.3413 30.1088C16.3582 30.1386 16.3756 30.1684 16.3936 30.1987C16.2453 30.2302 16.0925 30.2487 15.9408 30.2521C15.7801 30.256 15.6189 30.2431 15.4599 30.2144C15.3802 30.2021 15.3021 30.1802 15.2234 30.1605C15.1465 30.1352 15.0678 30.1127 14.9931 30.0802C14.6886 29.9616 14.4094 29.7746 14.1606 29.5527C13.9111 29.3296 13.6932 29.0684 13.5028 28.7881C13.3123 28.5072 13.1483 28.2073 13.0011 27.8983C13.1241 28.2174 13.2651 28.5308 13.4359 28.8297C13.6067 29.1285 13.8083 29.4134 14.0505 29.6661C14.2926 29.9178 14.5735 30.1408 14.8965 30.2964C14.9757 30.3386 15.0599 30.3695 15.1425 30.4043C15.2274 30.4329 15.3122 30.4633 15.4004 30.4846C15.5751 30.5301 15.7548 30.5582 15.9357 30.5683C16.1166 30.5779 16.2992 30.57 16.4795 30.5442C16.5278 30.5369 16.5761 30.5284 16.6245 30.5195C16.6301 30.5256 16.6357 30.5318 16.6419 30.5386C16.6666 30.5644 16.6891 30.5891 16.7166 30.6155C16.7239 30.6223 16.7317 30.6284 16.7391 30.6346L16.8126 30.7138L16.8907 30.7953C16.943 30.8486 16.9958 30.9009 17.0491 30.952C17.1559 31.0543 17.2654 31.1537 17.3789 31.2503C17.6058 31.4436 17.8485 31.625 18.1165 31.7902C18.3861 31.9531 18.6811 32.1025 19.031 32.2002C19.0406 32.2031 19.0507 32.2053 19.0602 32.2075C18.2558 34.3001 17.8182 36.5455 17.8182 38.8829C17.8182 44.1427 20.031 48.9396 23.6667 52.5652C24.934 53.8291 25.8778 55.3801 26.3878 57.0958L27.6316 61.2758C27.7597 61.7056 28.1546 62.0005 28.6034 62.0005H36.6321C37.0748 62.0005 37.4775 61.7426 37.6624 61.3399L38.3337 59.8793C38.4994 59.5192 38.8673 59.2956 39.2628 59.317C39.7212 59.3417 40.1835 59.354 40.6487 59.354C41.088 59.354 41.5245 59.3422 41.9576 59.3203C42.3531 59.3001 42.7205 59.5231 42.8856 59.8827L43.5007 61.2213C43.7187 61.696 44.194 62.0005 44.7164 62.0005H52.3726C52.9647 62.0005 53.486 61.6118 53.6551 61.0444L55.0887 56.2273C55.4365 55.0594 56.0903 54.0044 56.988 53.1797C59.0109 51.3214 60.6434 49.1193 61.7647 46.6807C62.0489 46.0622 62.545 45.5656 63.1635 45.2825L66.0773 43.9478C66.7705 43.6304 67.1733 42.8956 67.0683 42.1406V42.1383ZM17.457 29.5723C17.453 29.5667 17.4486 29.5611 17.4441 29.5555C17.4255 29.533 17.4075 29.5055 17.3896 29.4791C17.3171 29.3712 17.2491 29.2454 17.1896 29.1145C17.0711 28.851 16.9845 28.5657 16.9368 28.2786C16.8413 27.7034 16.9154 27.1219 17.2121 26.6596C17.2469 26.6001 17.2907 26.5467 17.3311 26.4905C17.3525 26.4635 17.3766 26.4377 17.3991 26.4113L17.4334 26.3714L17.4564 26.3489C17.5132 26.2911 17.598 26.2417 17.703 26.2164C17.9109 26.1624 18.1817 26.2012 18.3637 26.3225C18.4541 26.3804 18.5283 26.4596 18.5827 26.5562C18.6367 26.6529 18.6709 26.772 18.6833 26.9045C18.708 27.1714 18.6518 27.4786 18.5496 27.7724C18.5238 27.846 18.4962 27.9196 18.4653 27.9921C18.4507 28.0281 18.4339 28.0657 18.417 28.1028C18.4002 28.1398 18.3839 28.178 18.3653 28.2146C18.2962 28.3634 18.2198 28.5078 18.139 28.6499C18.0586 28.792 17.9716 28.9297 17.8777 29.0617C17.7839 29.1943 17.6851 29.3229 17.5772 29.4426C17.5379 29.4864 17.4974 29.5296 17.4564 29.5718L17.457 29.5723Z" fill="#FAAA8D"/>
<path d="M59.7539 33.1495C59.8719 33.8506 59.7601 34.4539 59.505 34.4972C59.2494 34.5399 58.9472 34.0068 58.8292 33.3051C58.7113 32.6041 58.8231 32.0007 59.0781 31.9575C59.3337 31.9148 59.6359 32.4484 59.7539 33.1495Z" fill="#1A1A1A"/>
<path d="M49.4682 21.4415C50.0805 20.8033 53.8106 17.2238 60.622 17.0002C60.8697 16.9918 61.0371 17.2507 60.9298 17.4743C60.1276 19.1456 57.5137 24.7811 56.7526 28.7792C56.7217 28.9415 56.5773 29.0561 56.4121 29.0494C55.0454 28.9893 49.3238 28.3399 49.3761 21.6662C49.3766 21.5825 49.4104 21.5021 49.4682 21.4415Z" fill="#FAAA8D"/>
<path d="M53.6842 23.8632C53.6842 23.7183 53.6904 23.5751 53.7022 23.4341C53.8146 22.0566 54.4437 20.7764 55.4268 19.8051C56.5767 18.6686 58.3305 17.4794 60.8298 17.0654C60.7731 17.0227 60.7017 16.9974 60.622 17.0002C53.8101 17.2238 50.08 20.8039 49.4677 21.4415C49.4098 21.5016 49.3766 21.5825 49.3761 21.6662C49.3238 28.3399 55.0454 28.9899 56.4121 29.0494C56.5773 29.0567 56.7217 28.9415 56.7526 28.7792C56.7733 28.6708 56.7953 28.5612 56.8189 28.4506C54.9768 27.863 53.9095 27.0462 53.6842 23.8632Z" fill="#FAAA8D"/>
<path opacity="0.2" d="M62.5607 45.6544C62.5607 45.6544 59.8766 46.2364 52.1036 47.2408C40.765 48.7064 31.828 41.48 33.375 31.3014C34.2452 25.5777 37.5152 21.0869 40.9948 18.413C40.8796 18.4113 40.7639 18.4102 40.6481 18.4102C31.2398 18.4102 23.1606 23.5132 19.6653 30.8009C19.6479 30.8037 19.6293 30.806 19.6097 30.8076C19.5434 30.8127 19.4642 30.8088 19.376 30.7913C19.2883 30.7745 19.1945 30.7492 19.0973 30.7133C19.0002 30.6767 18.9002 30.6329 18.7996 30.5824C18.5985 30.479 18.3963 30.3532 18.2002 30.2105C18.1019 30.1397 18.0053 30.0644 17.9109 29.9869C17.871 29.9543 17.8317 29.9206 17.7929 29.8869C17.8351 29.8493 17.8772 29.8105 17.9182 29.7718C18.0491 29.647 18.1699 29.5128 18.2845 29.3746C18.3996 29.2364 18.5064 29.092 18.6069 28.9443C18.7075 28.796 18.8024 28.6449 18.8901 28.4898C18.9125 28.4516 18.9333 28.4123 18.9552 28.3735C18.9766 28.3348 18.9979 28.296 19.0187 28.2539C19.0614 28.1724 19.1007 28.0882 19.1378 28.0033C19.2119 27.8331 19.2749 27.655 19.3204 27.4674C19.3659 27.2798 19.3956 27.082 19.3928 26.8736C19.39 26.6658 19.3529 26.4433 19.258 26.2321C19.1642 26.0214 19.0148 25.8293 18.8288 25.6866C18.6446 25.5439 18.4362 25.4479 18.2188 25.3951C18.0014 25.3423 17.7727 25.3288 17.5407 25.3647C17.3098 25.4001 17.0716 25.494 16.8683 25.6585C16.8436 25.6788 16.8166 25.7007 16.7947 25.7203L16.7408 25.7731C16.7048 25.8085 16.6683 25.8434 16.6335 25.8804C16.5666 25.9568 16.4975 26.0316 16.438 26.1153C16.3739 26.1956 16.3211 26.2832 16.2649 26.3697C16.2155 26.4596 16.1633 26.5484 16.1228 26.6422C16.0363 26.8281 15.9689 27.0225 15.9228 27.2197C15.8268 27.6146 15.8082 28.0168 15.8397 28.4078C15.8734 28.7993 15.9571 29.1813 16.0902 29.5538C16.1577 29.7403 16.2374 29.924 16.3402 30.1088C16.3571 30.1386 16.3745 30.1684 16.3925 30.1987C16.2442 30.2302 16.0914 30.2487 15.9397 30.2521C15.779 30.256 15.6178 30.2431 15.4588 30.2144C15.3791 30.2021 15.301 30.1802 15.2223 30.1605C15.1454 30.1352 15.0667 30.1127 14.992 30.0802C14.6875 29.9616 14.4083 29.7746 14.1595 29.5527C13.9101 29.3296 13.6921 29.0684 13.5017 28.7881C13.3112 28.5072 13.1472 28.2073 13 27.8983C13.123 28.2174 13.264 28.5308 13.4348 28.8297C13.6056 29.1285 13.8072 29.4134 14.0494 29.6661C14.2915 29.9178 14.5724 30.1408 14.8954 30.2964C14.9746 30.3386 15.0589 30.3695 15.1414 30.4043C15.2263 30.4329 15.3111 30.4633 15.3993 30.4846C15.574 30.5301 15.7537 30.5582 15.9346 30.5683C16.1155 30.5779 16.2981 30.57 16.4784 30.5442C16.5267 30.5369 16.575 30.5284 16.6234 30.5195C16.629 30.5256 16.6346 30.5318 16.6408 30.5386C16.6655 30.5644 16.688 30.5891 16.7155 30.6155C16.7228 30.6223 16.7306 30.6284 16.738 30.6346L16.8115 30.7138L16.8896 30.7953C16.9419 30.8486 16.9947 30.9009 17.048 30.952C17.1548 31.0543 17.2643 31.1537 17.3778 31.2503C17.6047 31.4436 17.8474 31.625 18.1154 31.7902C18.385 31.9531 18.68 32.1025 19.0299 32.2002C19.0395 32.2031 19.0496 32.2053 19.0591 32.2075C18.2547 34.3001 17.8171 36.5455 17.8171 38.8829C17.8171 44.1427 20.0299 48.9396 23.6656 52.5652C24.9329 53.8291 25.8767 55.3801 26.3867 57.0958L27.6305 61.2758C27.7586 61.7056 28.1535 62.0005 28.6023 62.0005H36.631C37.0737 62.0005 37.4765 61.7426 37.6613 61.3399L38.3326 59.8793C38.4983 59.5192 38.8662 59.2956 39.2617 59.317C39.7201 59.3417 40.1824 59.354 40.6476 59.354C41.0869 59.354 41.5234 59.3422 41.9565 59.3203C42.352 59.3001 42.7194 59.5231 42.8845 59.8827L43.4996 61.2213C43.7176 61.696 44.1929 62.0005 44.7153 62.0005H52.3715C52.9636 62.0005 53.4849 61.6118 53.654 61.0444L55.0876 56.2273C55.4354 55.0594 56.0893 54.0044 56.9869 53.1797C59.0098 51.3214 60.6423 49.1193 61.7636 46.6807C61.9484 46.2791 62.222 45.9297 62.5607 45.6561H62.5596L62.5607 45.6544ZM17.457 29.5723C17.4531 29.5667 17.4486 29.5611 17.4441 29.5555C17.4255 29.533 17.4076 29.5055 17.3896 29.4791C17.3171 29.3712 17.2492 29.2454 17.1896 29.1145C17.0711 28.851 16.9846 28.5657 16.9368 28.2786C16.8413 27.7034 16.9155 27.1219 17.2121 26.6596C17.2469 26.6001 17.2907 26.5467 17.3312 26.4905C17.3525 26.4635 17.3767 26.4377 17.3991 26.4113L17.4334 26.3714L17.4564 26.3489C17.5132 26.2911 17.598 26.2417 17.7031 26.2164C17.9109 26.1624 18.1817 26.2012 18.3637 26.3225C18.4541 26.3804 18.5283 26.4596 18.5828 26.5562C18.6367 26.6529 18.671 26.772 18.6833 26.9045C18.708 27.1714 18.6519 27.4786 18.5496 27.7724C18.5238 27.846 18.4963 27.9196 18.4654 27.9921C18.4508 28.0281 18.4339 28.0657 18.4171 28.1028C18.4002 28.1398 18.3839 28.178 18.3654 28.2146C18.2963 28.3634 18.2199 28.5078 18.139 28.6499C18.0587 28.792 17.9716 28.9297 17.8778 29.0617C17.7839 29.1943 17.6851 29.3229 17.5772 29.4426C17.5379 29.4864 17.4975 29.5296 17.4564 29.5718L17.457 29.5723Z" fill="#FAFAFA"/>
<path opacity="0.4" d="M30.6563 23.7458C31.3293 24.7924 30.3513 26.6203 28.4722 27.8281C26.5931 29.0359 24.5247 29.1668 23.8517 28.1202C23.1788 27.0737 24.1568 25.2457 26.0359 24.0379C27.915 22.8301 29.9834 22.6993 30.6563 23.7458Z" fill="#FAFAFA"/>
<path d="M46.2154 21.4256C39.5928 19.2605 33.7635 21.3952 33.705 21.4171L33.2742 20.5784C33.3382 20.5543 34.8729 19.9852 37.2846 19.6976C39.5058 19.433 42.9246 19.369 46.5974 20.57L46.2149 21.4256H46.2154Z" fill="#1A1A1A"/>
</svg>
