<svg width="491" height="319" viewBox="0 0 491 319" fill="none" xmlns="http://www.w3.org/2000/svg">
<path d="M32.576 165H31.248V154.328H35.536C36.5707 154.328 37.3867 154.637 37.984 155.256C38.5813 155.875 38.88 156.637 38.88 157.544C38.88 158.451 38.576 159.213 37.968 159.832C37.3707 160.451 36.56 160.76 35.536 160.76H32.576V165ZM35.376 159.576C36.0053 159.576 36.5173 159.389 36.912 159.016C37.3067 158.632 37.504 158.141 37.504 157.544C37.504 156.947 37.3067 156.461 36.912 156.088C36.5173 155.704 36.0053 155.512 35.376 155.512H32.576V159.576H35.376ZM46.5315 164.024C45.8382 164.803 44.9155 165.192 43.7635 165.192C42.6115 165.192 41.6835 164.803 40.9795 164.024C40.2862 163.245 39.9395 162.28 39.9395 161.128C39.9395 159.976 40.2862 159.016 40.9795 158.248C41.6835 157.469 42.6115 157.08 43.7635 157.08C44.9155 157.08 45.8382 157.469 46.5315 158.248C47.2355 159.016 47.5875 159.976 47.5875 161.128C47.5875 162.28 47.2355 163.245 46.5315 164.024ZM41.8915 163.256C42.3502 163.832 42.9742 164.12 43.7635 164.12C44.5528 164.12 45.1768 163.832 45.6355 163.256C46.0942 162.669 46.3235 161.96 46.3235 161.128C46.3235 160.296 46.0942 159.592 45.6355 159.016C45.1768 158.44 44.5528 158.152 43.7635 158.152C42.9742 158.152 42.3502 158.44 41.8915 159.016C41.4328 159.592 41.2035 160.296 41.2035 161.128C41.2035 161.96 41.4328 162.669 41.8915 163.256ZM50.7438 165H49.5438V157.272H50.7438V158.504C51.4798 157.565 52.3384 157.096 53.3198 157.096V158.328C53.1278 158.307 52.9731 158.296 52.8558 158.296C52.4824 158.296 52.0824 158.424 51.6558 158.68C51.2291 158.925 50.9251 159.208 50.7438 159.528V165ZM56.793 165.192C55.641 165.192 55.065 164.589 55.065 163.384V158.328H53.785V157.272H55.065V155.16H56.281V157.272H57.849V158.328H56.281V163.128C56.281 163.427 56.345 163.667 56.473 163.848C56.6117 164.029 56.8037 164.12 57.049 164.12C57.3903 164.12 57.6623 164.008 57.865 163.784L58.217 164.696C57.865 165.027 57.3903 165.192 56.793 165.192ZM65.5921 153.8L62.8881 156.104H61.9761L64.3441 153.8H65.5921ZM66.3281 165H65.1281V163.848C64.4668 164.744 63.5975 165.192 62.5201 165.192C61.4961 165.192 60.6641 164.829 60.0241 164.104C59.3948 163.368 59.0801 162.381 59.0801 161.144C59.0801 159.917 59.4001 158.936 60.0401 158.2C60.6801 157.453 61.5068 157.08 62.5201 157.08C63.5868 157.08 64.4561 157.533 65.1281 158.44V157.272H66.3281V165ZM62.8241 164.12C63.2828 164.12 63.7255 164.003 64.1521 163.768C64.5895 163.523 64.9148 163.229 65.1281 162.888V159.4C64.9148 159.048 64.5895 158.755 64.1521 158.52C63.7255 158.275 63.2828 158.152 62.8241 158.152C62.0561 158.152 61.4481 158.435 61.0001 159C60.5521 159.555 60.3281 160.269 60.3281 161.144C60.3281 162.019 60.5521 162.733 61.0001 163.288C61.4481 163.843 62.0561 164.12 62.8241 164.12ZM70.6993 165.192C69.5473 165.192 68.9713 164.589 68.9713 163.384V158.328H67.6913V157.272H68.9713V155.16H70.1873V157.272H71.7552V158.328H70.1873V163.128C70.1873 163.427 70.2513 163.667 70.3793 163.848C70.5179 164.029 70.7099 164.12 70.9553 164.12C71.2966 164.12 71.5686 164.008 71.7713 163.784L72.1233 164.696C71.7713 165.027 71.2966 165.192 70.6993 165.192ZM74.6024 155.944C74.453 156.093 74.2664 156.168 74.0424 156.168C73.8184 156.168 73.6264 156.093 73.4664 155.944C73.3064 155.784 73.2264 155.592 73.2264 155.368C73.2264 155.144 73.3064 154.952 73.4664 154.792C73.6264 154.632 73.8184 154.552 74.0424 154.552C74.2664 154.552 74.453 154.632 74.6024 154.792C74.7624 154.952 74.8424 155.144 74.8424 155.368C74.8424 155.592 74.7624 155.784 74.6024 155.944ZM74.6344 165H73.4344V157.272H74.6344V165ZM78.7401 165.192C78.1748 165.192 77.7481 165.037 77.4601 164.728C77.1721 164.419 77.0281 163.971 77.0281 163.384V154.328H78.2281V163.128C78.2281 163.427 78.2921 163.667 78.4201 163.848C78.5588 164.029 78.7561 164.12 79.0121 164.12C79.3641 164.12 79.6308 164.008 79.8121 163.784L80.1801 164.696C79.8175 165.027 79.3375 165.192 78.7401 165.192Z" fill="#1A1A1A"/>
<path d="M431.914 164.408C431.125 164.931 430.154 165.192 429.002 165.192C427.85 165.192 426.88 164.931 426.09 164.408C425.301 163.885 424.906 163.165 424.906 162.248C424.906 161.608 425.13 161.048 425.578 160.568C426.037 160.088 426.613 159.731 427.306 159.496C426.645 159.283 426.106 158.968 425.69 158.552C425.285 158.125 425.082 157.597 425.082 156.968C425.082 156.051 425.472 155.357 426.25 154.888C427.029 154.408 427.946 154.168 429.002 154.168C430.058 154.168 430.976 154.408 431.754 154.888C432.533 155.357 432.922 156.051 432.922 156.968C432.922 157.597 432.714 158.125 432.298 158.552C431.893 158.968 431.36 159.283 430.698 159.496C431.392 159.731 431.962 160.088 432.41 160.568C432.869 161.048 433.098 161.608 433.098 162.248C433.098 163.165 432.704 163.885 431.914 164.408ZM429.002 158.744C429.205 158.712 429.402 158.664 429.594 158.6C429.797 158.536 430.01 158.451 430.234 158.344C430.469 158.227 430.656 158.077 430.794 157.896C430.944 157.704 431.018 157.491 431.018 157.256C431.018 156.808 430.832 156.461 430.458 156.216C430.085 155.96 429.6 155.832 429.002 155.832C428.405 155.832 427.92 155.96 427.546 156.216C427.173 156.461 426.986 156.808 426.986 157.256C426.986 157.491 427.056 157.704 427.194 157.896C427.344 158.077 427.53 158.227 427.754 158.344C427.989 158.451 428.202 158.536 428.394 158.6C428.597 158.664 428.8 158.712 429.002 158.744ZM429.002 163.528C429.621 163.528 430.138 163.389 430.554 163.112C430.981 162.835 431.194 162.467 431.194 162.008C431.194 161.528 430.949 161.149 430.458 160.872C429.978 160.584 429.493 160.403 429.002 160.328C428.512 160.403 428.021 160.584 427.53 160.872C427.05 161.149 426.81 161.528 426.81 162.008C426.81 162.467 427.018 162.835 427.434 163.112C427.85 163.389 428.373 163.528 429.002 163.528ZM441.174 165H439.302V162.584H434.214V161.08L438.598 154.328H441.174V160.936H442.598V162.584H441.174V165ZM439.302 160.936V156.008L436.054 160.936H439.302ZM446.151 159.464C445.372 159.464 444.732 159.213 444.231 158.712C443.74 158.211 443.495 157.581 443.495 156.824C443.495 156.067 443.74 155.437 444.231 154.936C444.732 154.424 445.372 154.168 446.151 154.168C446.94 154.168 447.58 154.419 448.071 154.92C448.562 155.421 448.807 156.056 448.807 156.824C448.807 157.581 448.562 158.211 448.071 158.712C447.58 159.213 446.94 159.464 446.151 159.464ZM446.183 165H445.111L451.927 154.328H453.015L446.183 165ZM453.799 164.44C453.308 164.941 452.674 165.192 451.895 165.192C451.116 165.192 450.476 164.941 449.975 164.44C449.484 163.939 449.239 163.309 449.239 162.552C449.239 161.795 449.484 161.165 449.975 160.664C450.476 160.152 451.116 159.896 451.895 159.896C452.674 159.896 453.308 160.152 453.799 160.664C454.3 161.165 454.551 161.795 454.551 162.552C454.551 163.309 454.3 163.939 453.799 164.44ZM446.151 158.392C446.567 158.392 446.908 158.248 447.175 157.96C447.442 157.661 447.575 157.283 447.575 156.824C447.575 156.355 447.442 155.971 447.175 155.672C446.908 155.373 446.567 155.224 446.151 155.224C445.746 155.224 445.41 155.373 445.143 155.672C444.876 155.971 444.743 156.355 444.743 156.824C444.743 157.283 444.876 157.661 445.143 157.96C445.41 158.248 445.746 158.392 446.151 158.392ZM450.871 163.688C451.138 163.976 451.479 164.12 451.895 164.12C452.311 164.12 452.652 163.976 452.919 163.688C453.186 163.389 453.319 163.011 453.319 162.552C453.319 162.083 453.186 161.699 452.919 161.4C452.652 161.101 452.311 160.952 451.895 160.952C451.479 160.952 451.138 161.101 450.871 161.4C450.604 161.699 450.471 162.083 450.471 162.552C450.471 163.011 450.604 163.389 450.871 163.688Z" fill="#1A1A1A"/>
<rect opacity="0.2" x="129" y="154" width="280" height="11" rx="5.5" fill="#1A1A1A"/>
<rect x="129" y="154" width="235" height="11" rx="5.5" fill="#1D5556"/>
<path d="M36.304 103.192C34.7467 103.192 33.44 102.68 32.384 101.656C31.3387 100.621 30.816 99.2933 30.816 97.672C30.816 96.0507 31.3387 94.728 32.384 93.704C33.44 92.6693 34.7467 92.152 36.304 92.152C38.0213 92.152 39.3707 92.856 40.352 94.264L39.248 94.888C38.9387 94.4187 38.5173 94.0453 37.984 93.768C37.4613 93.48 36.9013 93.336 36.304 93.336C35.12 93.336 34.1387 93.7413 33.36 94.552C32.5813 95.3627 32.192 96.4027 32.192 97.672C32.192 98.9307 32.5813 99.9707 33.36 100.792C34.1493 101.603 35.1307 102.008 36.304 102.008C36.9013 102.008 37.4613 101.864 37.984 101.576C38.5173 101.288 38.9387 100.915 39.248 100.456L40.368 101.064C39.3333 102.483 37.9787 103.192 36.304 103.192ZM45.5165 103.192C44.3538 103.192 43.4045 102.819 42.6685 102.072C41.9325 101.315 41.5645 100.333 41.5645 99.128C41.5645 97.9973 41.9272 97.0427 42.6525 96.264C43.3778 95.4747 44.2845 95.08 45.3725 95.08C46.5138 95.08 47.4152 95.4747 48.0765 96.264C48.7485 97.0427 49.0845 98.0293 49.0845 99.224V99.528H42.8445C42.8978 100.285 43.1698 100.92 43.6605 101.432C44.1618 101.944 44.8125 102.2 45.6125 102.2C46.5725 102.2 47.3725 101.869 48.0125 101.208L48.5885 101.992C47.7672 102.792 46.7432 103.192 45.5165 103.192ZM47.9005 98.632C47.8898 97.9813 47.6658 97.3947 47.2285 96.872C46.7912 96.3387 46.1672 96.072 45.3565 96.072C44.5885 96.072 43.9805 96.3333 43.5325 96.856C43.0952 97.3787 42.8605 97.9707 42.8285 98.632H47.9005ZM52.7401 103.192C52.1748 103.192 51.7481 103.037 51.4601 102.728C51.1721 102.419 51.0281 101.971 51.0281 101.384V92.328H52.2281V101.128C52.2281 101.427 52.2921 101.667 52.4201 101.848C52.5588 102.029 52.7561 102.12 53.0121 102.12C53.3641 102.12 53.6308 102.008 53.8121 101.784L54.1801 102.696C53.8175 103.027 53.3375 103.192 52.7401 103.192ZM61.741 103H60.541V101.912C60.221 102.275 59.8157 102.579 59.325 102.824C58.845 103.069 58.333 103.192 57.789 103.192C56.1463 103.192 55.325 102.371 55.325 100.728V95.272H56.525V100.36C56.525 101 56.6743 101.453 56.973 101.72C57.2717 101.987 57.7037 102.12 58.269 102.12C58.717 102.12 59.149 102.008 59.565 101.784C59.981 101.56 60.3063 101.283 60.541 100.952V95.272H61.741V103ZM65.8495 103.192C65.2842 103.192 64.8575 103.037 64.5695 102.728C64.2815 102.419 64.1375 101.971 64.1375 101.384V92.328H65.3375V101.128C65.3375 101.427 65.4015 101.667 65.5295 101.848C65.6682 102.029 65.8655 102.12 66.1215 102.12C66.4735 102.12 66.7402 102.008 66.9215 101.784L67.2895 102.696C66.9268 103.027 66.4468 103.192 65.8495 103.192ZM75.2344 103H74.0344V101.848C73.373 102.744 72.5037 103.192 71.4264 103.192C70.4024 103.192 69.5704 102.829 68.9304 102.104C68.301 101.368 67.9864 100.381 67.9864 99.144C67.9864 97.9173 68.3064 96.936 68.9464 96.2C69.5864 95.4533 70.413 95.08 71.4264 95.08C72.493 95.08 73.3624 95.5333 74.0344 96.44V95.272H75.2344V103ZM71.7304 102.12C72.189 102.12 72.6317 102.003 73.0584 101.768C73.4957 101.523 73.821 101.229 74.0344 100.888V97.4C73.821 97.048 73.4957 96.7547 73.0584 96.52C72.6317 96.2747 72.189 96.152 71.7304 96.152C70.9624 96.152 70.3544 96.4347 69.9064 97C69.4584 97.5547 69.2344 98.2693 69.2344 99.144C69.2344 100.019 69.4584 100.733 69.9064 101.288C70.3544 101.843 70.9624 102.12 71.7304 102.12ZM78.8375 103H77.6375V95.272H78.8375V96.504C79.5735 95.5653 80.4322 95.096 81.4135 95.096V96.328C81.2215 96.3067 81.0668 96.296 80.9495 96.296C80.5762 96.296 80.1762 96.424 79.7495 96.68C79.3228 96.9253 79.0188 97.208 78.8375 97.528V103Z" fill="#1A1A1A"/>
<path d="M427.944 103H426.072V94.744L424.328 96.568L423.24 95.432L426.312 92.328H427.944V103ZM434.022 103.192C433.297 103.192 432.651 103.032 432.086 102.712C431.531 102.392 431.089 101.965 430.758 101.432C430.427 100.899 430.177 100.312 430.006 99.672C429.835 99.032 429.75 98.3653 429.75 97.672C429.75 96.9787 429.83 96.312 429.99 95.672C430.161 95.032 430.411 94.4453 430.742 93.912C431.083 93.3787 431.531 92.9573 432.086 92.648C432.651 92.328 433.297 92.168 434.022 92.168C434.971 92.168 435.777 92.4453 436.438 93C437.099 93.5547 437.569 94.2373 437.846 95.048C438.134 95.848 438.278 96.7227 438.278 97.672C438.278 98.6107 438.134 99.4853 437.846 100.296C437.569 101.107 437.099 101.795 436.438 102.36C435.777 102.915 434.971 103.192 434.022 103.192ZM432.23 100.44C432.614 101.165 433.211 101.528 434.022 101.528C434.833 101.528 435.425 101.165 435.798 100.44C436.182 99.7147 436.374 98.792 436.374 97.672C436.374 96.9467 436.299 96.312 436.15 95.768C436.011 95.2133 435.761 94.7547 435.398 94.392C435.035 94.0187 434.577 93.832 434.022 93.832C433.467 93.832 433.003 94.0187 432.63 94.392C432.267 94.7547 432.011 95.2133 431.862 95.768C431.723 96.312 431.654 96.9467 431.654 97.672C431.654 98.792 431.846 99.7147 432.23 100.44ZM443.897 103.192C443.172 103.192 442.526 103.032 441.961 102.712C441.406 102.392 440.964 101.965 440.633 101.432C440.302 100.899 440.052 100.312 439.881 99.672C439.71 99.032 439.625 98.3653 439.625 97.672C439.625 96.9787 439.705 96.312 439.865 95.672C440.036 95.032 440.286 94.4453 440.617 93.912C440.958 93.3787 441.406 92.9573 441.961 92.648C442.526 92.328 443.172 92.168 443.897 92.168C444.846 92.168 445.652 92.4453 446.313 93C446.974 93.5547 447.444 94.2373 447.721 95.048C448.009 95.848 448.153 96.7227 448.153 97.672C448.153 98.6107 448.009 99.4853 447.721 100.296C447.444 101.107 446.974 101.795 446.313 102.36C445.652 102.915 444.846 103.192 443.897 103.192ZM442.105 100.44C442.489 101.165 443.086 101.528 443.897 101.528C444.708 101.528 445.3 101.165 445.673 100.44C446.057 99.7147 446.249 98.792 446.249 97.672C446.249 96.9467 446.174 96.312 446.025 95.768C445.886 95.2133 445.636 94.7547 445.273 94.392C444.91 94.0187 444.452 93.832 443.897 93.832C443.342 93.832 442.878 94.0187 442.505 94.392C442.142 94.7547 441.886 95.2133 441.737 95.768C441.598 96.312 441.529 96.9467 441.529 97.672C441.529 98.792 441.721 99.7147 442.105 100.44ZM451.932 97.464C451.153 97.464 450.513 97.2133 450.012 96.712C449.521 96.2107 449.276 95.5813 449.276 94.824C449.276 94.0667 449.521 93.4373 450.012 92.936C450.513 92.424 451.153 92.168 451.932 92.168C452.721 92.168 453.361 92.4187 453.852 92.92C454.343 93.4213 454.588 94.056 454.588 94.824C454.588 95.5813 454.343 96.2107 453.852 96.712C453.361 97.2133 452.721 97.464 451.932 97.464ZM451.964 103H450.892L457.708 92.328H458.796L451.964 103ZM459.58 102.44C459.089 102.941 458.455 103.192 457.676 103.192C456.897 103.192 456.257 102.941 455.756 102.44C455.265 101.939 455.02 101.309 455.02 100.552C455.02 99.7947 455.265 99.1653 455.756 98.664C456.257 98.152 456.897 97.896 457.676 97.896C458.455 97.896 459.089 98.152 459.58 98.664C460.081 99.1653 460.332 99.7947 460.332 100.552C460.332 101.309 460.081 101.939 459.58 102.44ZM451.932 96.392C452.348 96.392 452.689 96.248 452.956 95.96C453.223 95.6613 453.356 95.2827 453.356 94.824C453.356 94.3547 453.223 93.9707 452.956 93.672C452.689 93.3733 452.348 93.224 451.932 93.224C451.527 93.224 451.191 93.3733 450.924 93.672C450.657 93.9707 450.524 94.3547 450.524 94.824C450.524 95.2827 450.657 95.6613 450.924 95.96C451.191 96.248 451.527 96.392 451.932 96.392ZM456.652 101.688C456.919 101.976 457.26 102.12 457.676 102.12C458.092 102.12 458.433 101.976 458.7 101.688C458.967 101.389 459.1 101.011 459.1 100.552C459.1 100.083 458.967 99.6987 458.7 99.4C458.433 99.1013 458.092 98.952 457.676 98.952C457.26 98.952 456.919 99.1013 456.652 99.4C456.385 99.6987 456.252 100.083 456.252 100.552C456.252 101.011 456.385 101.389 456.652 101.688Z" fill="#1A1A1A"/>
<rect x="129" y="92" width="280" height="11" rx="5.5" fill="#1D5556"/>
<path d="M35.216 196H33.888V186.512H30.512V185.328H38.608V186.512H35.216V196ZM45.2812 196H44.0813V194.848C43.4199 195.744 42.5506 196.192 41.4733 196.192C40.4493 196.192 39.6173 195.829 38.9773 195.104C38.3479 194.368 38.0333 193.381 38.0333 192.144C38.0333 190.917 38.3533 189.936 38.9933 189.2C39.6333 188.453 40.4599 188.08 41.4733 188.08C42.5399 188.08 43.4093 188.533 44.0813 189.44V188.272H45.2812V196ZM41.7773 195.12C42.2359 195.12 42.6786 195.003 43.1053 194.768C43.5426 194.523 43.8679 194.229 44.0813 193.888V190.4C43.8679 190.048 43.5426 189.755 43.1053 189.52C42.6786 189.275 42.2359 189.152 41.7773 189.152C41.0093 189.152 40.4013 189.435 39.9533 190C39.5053 190.555 39.2812 191.269 39.2812 192.144C39.2812 193.019 39.5053 193.733 39.9533 194.288C40.4013 194.843 41.0093 195.12 41.7773 195.12ZM48.8844 193.904C49.0977 194.245 49.4177 194.533 49.8444 194.768C50.2817 195.003 50.735 195.12 51.2044 195.12C51.9617 195.12 52.5644 194.843 53.0124 194.288C53.4604 193.733 53.6844 193.019 53.6844 192.144C53.6844 191.269 53.4604 190.555 53.0124 190C52.5644 189.435 51.9617 189.152 51.2044 189.152C50.735 189.152 50.2817 189.275 49.8444 189.52C49.4177 189.755 49.0977 190.048 48.8844 190.4V193.904ZM48.8844 196H47.6844V185.328H48.8844V189.44C49.5564 188.533 50.4257 188.08 51.4924 188.08C52.5164 188.08 53.343 188.453 53.9724 189.2C54.6124 189.936 54.9324 190.917 54.9324 192.144C54.9324 193.381 54.6124 194.368 53.9724 195.104C53.343 195.829 52.5164 196.192 51.4924 196.192C50.415 196.192 49.5457 195.744 48.8844 194.848V196ZM58.5995 196.192C58.0342 196.192 57.6075 196.037 57.3195 195.728C57.0315 195.419 56.8875 194.971 56.8875 194.384V185.328H58.0875V194.128C58.0875 194.427 58.1515 194.667 58.2795 194.848C58.4182 195.029 58.6155 195.12 58.8715 195.12C59.2235 195.12 59.4902 195.008 59.6715 194.784L60.0395 195.696C59.6768 196.027 59.1968 196.192 58.5995 196.192ZM64.6884 196.192C63.5257 196.192 62.5764 195.819 61.8404 195.072C61.1044 194.315 60.7364 193.333 60.7364 192.128C60.7364 190.997 61.099 190.043 61.8244 189.264C62.5497 188.475 63.4564 188.08 64.5444 188.08C65.6857 188.08 66.587 188.475 67.2484 189.264C67.9204 190.043 68.2564 191.029 68.2564 192.224V192.528H62.0164C62.0697 193.285 62.3417 193.92 62.8324 194.432C63.3337 194.944 63.9844 195.2 64.7844 195.2C65.7444 195.2 66.5444 194.869 67.1844 194.208L67.7604 194.992C66.939 195.792 65.915 196.192 64.6884 196.192ZM67.0724 191.632C67.0617 190.981 66.8377 190.395 66.4004 189.872C65.963 189.339 65.339 189.072 64.5284 189.072C63.7604 189.072 63.1524 189.333 62.7044 189.856C62.267 190.379 62.0324 190.971 62.0004 191.632H67.0724ZM72.168 196.192C71.016 196.192 70.44 195.589 70.44 194.384V189.328H69.16V188.272H70.44V186.16H71.656V188.272H73.224V189.328H71.656V194.128C71.656 194.427 71.72 194.667 71.848 194.848C71.9867 195.029 72.1787 195.12 72.424 195.12C72.7653 195.12 73.0373 195.008 73.24 194.784L73.592 195.696C73.24 196.027 72.7653 196.192 72.168 196.192Z" fill="#1A1A1A"/>
<path d="M429.072 196.192C428.069 196.192 427.227 195.936 426.544 195.424C425.872 194.901 425.392 194.24 425.104 193.44C424.816 192.629 424.672 191.707 424.672 190.672C424.672 189.072 425.083 187.755 425.904 186.72C426.725 185.685 427.883 185.168 429.376 185.168C430.624 185.168 431.643 185.563 432.432 186.352L431.568 187.76C430.971 187.141 430.24 186.832 429.376 186.832C428.512 186.832 427.824 187.173 427.312 187.856C426.811 188.539 426.56 189.371 426.56 190.352V190.656C426.837 190.261 427.237 189.915 427.76 189.616C428.283 189.307 428.837 189.152 429.424 189.152C430.437 189.152 431.285 189.456 431.968 190.064C432.661 190.672 433.008 191.52 433.008 192.608C433.008 193.621 432.64 194.475 431.904 195.168C431.179 195.851 430.235 196.192 429.072 196.192ZM428.96 194.528C429.621 194.528 430.144 194.336 430.528 193.952C430.912 193.568 431.104 193.141 431.104 192.672C431.104 192.053 430.896 191.584 430.48 191.264C430.064 190.933 429.547 190.768 428.928 190.768C428.469 190.768 428.032 190.88 427.616 191.104C427.2 191.328 426.859 191.632 426.592 192.016C426.645 192.688 426.864 193.275 427.248 193.776C427.643 194.277 428.213 194.528 428.96 194.528ZM441.017 196H439.145V193.584H434.057V192.08L438.441 185.328H441.017V191.936H442.441V193.584H441.017V196ZM439.145 191.936V187.008L435.897 191.936H439.145ZM445.995 190.464C445.216 190.464 444.576 190.213 444.075 189.712C443.584 189.211 443.339 188.581 443.339 187.824C443.339 187.067 443.584 186.437 444.075 185.936C444.576 185.424 445.216 185.168 445.995 185.168C446.784 185.168 447.424 185.419 447.915 185.92C448.405 186.421 448.651 187.056 448.651 187.824C448.651 188.581 448.405 189.211 447.915 189.712C447.424 190.213 446.784 190.464 445.995 190.464ZM446.027 196H444.955L451.771 185.328H452.859L446.027 196ZM453.643 195.44C453.152 195.941 452.517 196.192 451.739 196.192C450.96 196.192 450.32 195.941 449.819 195.44C449.328 194.939 449.083 194.309 449.083 193.552C449.083 192.795 449.328 192.165 449.819 191.664C450.32 191.152 450.96 190.896 451.739 190.896C452.517 190.896 453.152 191.152 453.643 191.664C454.144 192.165 454.395 192.795 454.395 193.552C454.395 194.309 454.144 194.939 453.643 195.44ZM445.995 189.392C446.411 189.392 446.752 189.248 447.019 188.96C447.285 188.661 447.419 188.283 447.419 187.824C447.419 187.355 447.285 186.971 447.019 186.672C446.752 186.373 446.411 186.224 445.995 186.224C445.589 186.224 445.253 186.373 444.987 186.672C444.72 186.971 444.587 187.355 444.587 187.824C444.587 188.283 444.72 188.661 444.987 188.96C445.253 189.248 445.589 189.392 445.995 189.392ZM450.715 194.688C450.981 194.976 451.323 195.12 451.739 195.12C452.155 195.12 452.496 194.976 452.763 194.688C453.029 194.389 453.163 194.011 453.163 193.552C453.163 193.083 453.029 192.699 452.763 192.4C452.496 192.101 452.155 191.952 451.739 191.952C451.323 191.952 450.981 192.101 450.715 192.4C450.448 192.699 450.315 193.083 450.315 193.552C450.315 194.011 450.448 194.389 450.715 194.688Z" fill="#1A1A1A"/>
<rect opacity="0.2" x="129" y="185" width="280" height="11" rx="5.5" fill="#1A1A1A"/>
<rect x="129" y="185" width="158" height="11" rx="5.5" fill="#1D5556"/>
<path d="M34.704 227.192C32.976 227.192 31.6107 226.627 30.608 225.496L31.408 224.472C32.2933 225.496 33.408 226.008 34.752 226.008C35.616 226.008 36.2507 225.821 36.656 225.448C37.0613 225.075 37.264 224.643 37.264 224.152C37.264 223.725 37.104 223.373 36.784 223.096C36.4747 222.808 36.0853 222.6 35.616 222.472C35.1573 222.344 34.6507 222.2 34.096 222.04C33.552 221.869 33.0453 221.693 32.576 221.512C32.1173 221.331 31.728 221.037 31.408 220.632C31.0987 220.227 30.944 219.725 30.944 219.128C30.944 218.253 31.2907 217.539 31.984 216.984C32.6773 216.429 33.5573 216.152 34.624 216.152C36.192 216.152 37.4507 216.653 38.4 217.656L37.6 218.632C36.8427 217.779 35.8133 217.352 34.512 217.352C33.872 217.352 33.344 217.512 32.928 217.832C32.5227 218.141 32.32 218.547 32.32 219.048C32.32 219.421 32.4747 219.731 32.784 219.976C33.104 220.221 33.4933 220.403 33.952 220.52C34.4213 220.637 34.928 220.787 35.472 220.968C36.0267 221.139 36.5333 221.325 36.992 221.528C37.4613 221.72 37.8507 222.035 38.16 222.472C38.48 222.909 38.64 223.437 38.64 224.056C38.64 224.92 38.3147 225.661 37.664 226.28C37.024 226.888 36.0373 227.192 34.704 227.192ZM51.103 227H49.903V221.752C49.903 220.685 49.4283 220.152 48.479 220.152C48.095 220.152 47.711 220.269 47.327 220.504C46.943 220.728 46.6443 221.005 46.431 221.336V227H45.231V221.752C45.231 220.685 44.7563 220.152 43.807 220.152C43.4337 220.152 43.055 220.269 42.671 220.504C42.2977 220.739 41.999 221.021 41.775 221.352V227H40.575V219.272H41.775V220.392C41.9777 220.083 42.3137 219.789 42.783 219.512C43.263 219.224 43.7643 219.08 44.287 219.08C44.8417 219.08 45.295 219.213 45.647 219.48C45.999 219.747 46.2337 220.093 46.351 220.52C46.5857 220.136 46.943 219.8 47.423 219.512C47.903 219.224 48.4097 219.08 48.943 219.08C50.383 219.08 51.103 219.859 51.103 221.416V227ZM60.2969 227H59.0969V225.848C58.4355 226.744 57.5662 227.192 56.4889 227.192C55.4649 227.192 54.6329 226.829 53.9929 226.104C53.3635 225.368 53.0489 224.381 53.0489 223.144C53.0489 221.917 53.3689 220.936 54.0089 220.2C54.6489 219.453 55.4755 219.08 56.4889 219.08C57.5555 219.08 58.4249 219.533 59.0969 220.44V219.272H60.2969V227ZM56.7929 226.12C57.2515 226.12 57.6942 226.003 58.1209 225.768C58.5582 225.523 58.8835 225.229 59.0969 224.888V221.4C58.8835 221.048 58.5582 220.755 58.1209 220.52C57.6942 220.275 57.2515 220.152 56.7929 220.152C56.0249 220.152 55.4169 220.435 54.9689 221C54.5209 221.555 54.2969 222.269 54.2969 223.144C54.2969 224.019 54.5209 224.733 54.9689 225.288C55.4169 225.843 56.0249 226.12 56.7929 226.12ZM63.9 227H62.7V219.272H63.9V220.504C64.636 219.565 65.4947 219.096 66.476 219.096V220.328C66.284 220.307 66.1293 220.296 66.012 220.296C65.6387 220.296 65.2387 220.424 64.812 220.68C64.3853 220.925 64.0813 221.208 63.9 221.528V227ZM69.9493 227.192C68.7973 227.192 68.2213 226.589 68.2213 225.384V220.328H66.9413V219.272H68.2213V217.16H69.4373V219.272H71.0052V220.328H69.4373V225.128C69.4373 225.427 69.5013 225.667 69.6293 225.848C69.7679 226.029 69.9599 226.12 70.2053 226.12C70.5466 226.12 70.8186 226.008 71.0213 225.784L71.3733 226.696C71.0213 227.027 70.5466 227.192 69.9493 227.192ZM80.841 227H79.513V217.512H76.137V216.328H84.233V217.512H80.841V227ZM90.846 227H89.198L84.894 216.328H86.414L90.014 225.544L93.614 216.328H95.134L90.846 227Z" fill="#1A1A1A"/>
<path d="M429.072 227.192C428.069 227.192 427.227 226.936 426.544 226.424C425.872 225.901 425.392 225.24 425.104 224.44C424.816 223.629 424.672 222.707 424.672 221.672C424.672 220.072 425.083 218.755 425.904 217.72C426.725 216.685 427.883 216.168 429.376 216.168C430.624 216.168 431.643 216.563 432.432 217.352L431.568 218.76C430.971 218.141 430.24 217.832 429.376 217.832C428.512 217.832 427.824 218.173 427.312 218.856C426.811 219.539 426.56 220.371 426.56 221.352V221.656C426.837 221.261 427.237 220.915 427.76 220.616C428.283 220.307 428.837 220.152 429.424 220.152C430.437 220.152 431.285 220.456 431.968 221.064C432.661 221.672 433.008 222.52 433.008 223.608C433.008 224.621 432.64 225.475 431.904 226.168C431.179 226.851 430.235 227.192 429.072 227.192ZM428.96 225.528C429.621 225.528 430.144 225.336 430.528 224.952C430.912 224.568 431.104 224.141 431.104 223.672C431.104 223.053 430.896 222.584 430.48 222.264C430.064 221.933 429.547 221.768 428.928 221.768C428.469 221.768 428.032 221.88 427.616 222.104C427.2 222.328 426.859 222.632 426.592 223.016C426.645 223.688 426.864 224.275 427.248 224.776C427.643 225.277 428.213 225.528 428.96 225.528ZM438.553 227H436.681V218.744L434.937 220.568L433.849 219.432L436.921 216.328H438.553V227ZM442.792 221.464C442.013 221.464 441.373 221.213 440.872 220.712C440.381 220.211 440.136 219.581 440.136 218.824C440.136 218.067 440.381 217.437 440.872 216.936C441.373 216.424 442.013 216.168 442.792 216.168C443.581 216.168 444.221 216.419 444.712 216.92C445.202 217.421 445.448 218.056 445.448 218.824C445.448 219.581 445.202 220.211 444.712 220.712C444.221 221.213 443.581 221.464 442.792 221.464ZM442.824 227H441.752L448.568 216.328H449.656L442.824 227ZM450.44 226.44C449.949 226.941 449.314 227.192 448.536 227.192C447.757 227.192 447.117 226.941 446.616 226.44C446.125 225.939 445.88 225.309 445.88 224.552C445.88 223.795 446.125 223.165 446.616 222.664C447.117 222.152 447.757 221.896 448.536 221.896C449.314 221.896 449.949 222.152 450.44 222.664C450.941 223.165 451.192 223.795 451.192 224.552C451.192 225.309 450.941 225.939 450.44 226.44ZM442.792 220.392C443.208 220.392 443.549 220.248 443.816 219.96C444.082 219.661 444.216 219.283 444.216 218.824C444.216 218.355 444.082 217.971 443.816 217.672C443.549 217.373 443.208 217.224 442.792 217.224C442.386 217.224 442.05 217.373 441.784 217.672C441.517 217.971 441.384 218.355 441.384 218.824C441.384 219.283 441.517 219.661 441.784 219.96C442.05 220.248 442.386 220.392 442.792 220.392ZM447.512 225.688C447.778 225.976 448.12 226.12 448.536 226.12C448.952 226.12 449.293 225.976 449.56 225.688C449.826 225.389 449.96 225.011 449.96 224.552C449.96 224.083 449.826 223.699 449.56 223.4C449.293 223.101 448.952 222.952 448.536 222.952C448.12 222.952 447.778 223.101 447.512 223.4C447.245 223.699 447.112 224.083 447.112 224.552C447.112 225.011 447.245 225.389 447.512 225.688Z" fill="#1A1A1A"/>
<rect opacity="0.2" x="129" y="216" width="280" height="11" rx="5.5" fill="#1A1A1A"/>
<rect x="129" y="216" width="140" height="11" rx="5.5" fill="#1D5556"/>
<path d="M36.304 258.192C34.7467 258.192 33.44 257.68 32.384 256.656C31.3387 255.621 30.816 254.293 30.816 252.672C30.816 251.051 31.3387 249.728 32.384 248.704C33.44 247.669 34.7467 247.152 36.304 247.152C38.0213 247.152 39.3707 247.856 40.352 249.264L39.248 249.888C38.9387 249.419 38.5173 249.045 37.984 248.768C37.4613 248.48 36.9013 248.336 36.304 248.336C35.12 248.336 34.1387 248.741 33.36 249.552C32.5813 250.363 32.192 251.403 32.192 252.672C32.192 253.931 32.5813 254.971 33.36 255.792C34.1493 256.603 35.1307 257.008 36.304 257.008C36.9013 257.008 37.4613 256.864 37.984 256.576C38.5173 256.288 38.9387 255.915 39.248 255.456L40.368 256.064C39.3333 257.483 37.9787 258.192 36.304 258.192ZM48.1565 257.024C47.4632 257.803 46.5405 258.192 45.3885 258.192C44.2365 258.192 43.3085 257.803 42.6045 257.024C41.9112 256.245 41.5645 255.28 41.5645 254.128C41.5645 252.976 41.9112 252.016 42.6045 251.248C43.3085 250.469 44.2365 250.08 45.3885 250.08C46.5405 250.08 47.4632 250.469 48.1565 251.248C48.8605 252.016 49.2125 252.976 49.2125 254.128C49.2125 255.28 48.8605 256.245 48.1565 257.024ZM43.5165 256.256C43.9752 256.832 44.5992 257.12 45.3885 257.12C46.1778 257.12 46.8018 256.832 47.2605 256.256C47.7192 255.669 47.9485 254.96 47.9485 254.128C47.9485 253.296 47.7192 252.592 47.2605 252.016C46.8018 251.44 46.1778 251.152 45.3885 251.152C44.5992 251.152 43.9752 251.44 43.5165 252.016C43.0578 252.592 42.8285 253.296 42.8285 254.128C42.8285 254.96 43.0578 255.669 43.5165 256.256ZM57.5848 258H56.4008V252.944C56.4008 252.293 56.2514 251.835 55.9528 251.568C55.6541 251.291 55.2221 251.152 54.6568 251.152C54.2088 251.152 53.7768 251.269 53.3608 251.504C52.9448 251.739 52.6141 252.021 52.3688 252.352V258H51.1688V250.272H52.3688V251.392C52.6674 251.029 53.0674 250.72 53.5688 250.464C54.0701 250.208 54.5928 250.08 55.1368 250.08C56.7688 250.08 57.5848 250.912 57.5848 252.576V258ZM62.4609 258.192C61.1595 258.192 60.1195 257.787 59.3409 256.976L59.9489 256.112C60.2155 256.421 60.5782 256.683 61.0369 256.896C61.5062 257.109 61.9915 257.216 62.4929 257.216C63.0689 257.216 63.5169 257.093 63.8369 256.848C64.1675 256.603 64.3329 256.283 64.3329 255.888C64.3329 255.547 64.1675 255.28 63.8369 255.088C63.5062 254.885 63.1062 254.736 62.6369 254.64C62.1675 254.533 61.6982 254.416 61.2289 254.288C60.7702 254.149 60.3755 253.92 60.0449 253.6C59.7142 253.269 59.5489 252.837 59.5489 252.304C59.5489 251.675 59.8049 251.147 60.3169 250.72C60.8289 250.293 61.5275 250.08 62.4129 250.08C63.5969 250.08 64.5515 250.453 65.2769 251.2L64.7169 252.032C64.1729 251.381 63.4049 251.056 62.4129 251.056C61.8902 251.056 61.4742 251.173 61.1649 251.408C60.8555 251.632 60.7009 251.92 60.7009 252.272C60.7009 252.528 60.8182 252.741 61.0529 252.912C61.2875 253.083 61.5809 253.205 61.9329 253.28C62.2955 253.355 62.6795 253.451 63.0849 253.568C63.5009 253.685 63.8849 253.819 64.2369 253.968C64.5995 254.107 64.8982 254.341 65.1329 254.672C65.3675 254.992 65.4849 255.387 65.4849 255.856C65.4849 256.539 65.2182 257.099 64.6849 257.536C64.1622 257.973 63.4209 258.192 62.4609 258.192ZM73.5784 257.024C72.885 257.803 71.9624 258.192 70.8104 258.192C69.6584 258.192 68.7304 257.803 68.0264 257.024C67.333 256.245 66.9864 255.28 66.9864 254.128C66.9864 252.976 67.333 252.016 68.0264 251.248C68.7304 250.469 69.6584 250.08 70.8104 250.08C71.9624 250.08 72.885 250.469 73.5784 251.248C74.2824 252.016 74.6344 252.976 74.6344 254.128C74.6344 255.28 74.2824 256.245 73.5784 257.024ZM68.9384 256.256C69.397 256.832 70.021 257.12 70.8104 257.12C71.5997 257.12 72.2237 256.832 72.6824 256.256C73.141 255.669 73.3704 254.96 73.3704 254.128C73.3704 253.296 73.141 252.592 72.6824 252.016C72.2237 251.44 71.5997 251.152 70.8104 251.152C70.021 251.152 69.397 251.44 68.9384 252.016C68.4797 252.592 68.2504 253.296 68.2504 254.128C68.2504 254.96 68.4797 255.669 68.9384 256.256ZM78.3026 258.192C77.7373 258.192 77.3106 258.037 77.0226 257.728C76.7346 257.419 76.5906 256.971 76.5906 256.384V247.328H77.7906V256.128C77.7906 256.427 77.8546 256.667 77.9826 256.848C78.1213 257.029 78.3186 257.12 78.5746 257.12C78.9266 257.12 79.1933 257.008 79.3746 256.784L79.7426 257.696C79.38 258.027 78.9 258.192 78.3026 258.192ZM87.6875 258H86.4875V256.848C85.8262 257.744 84.9568 258.192 83.8795 258.192C82.8555 258.192 82.0235 257.829 81.3835 257.104C80.7542 256.368 80.4395 255.381 80.4395 254.144C80.4395 252.917 80.7595 251.936 81.3995 251.2C82.0395 250.453 82.8662 250.08 83.8795 250.08C84.9462 250.08 85.8155 250.533 86.4875 251.44V250.272H87.6875V258ZM84.1835 257.12C84.6422 257.12 85.0848 257.003 85.5115 256.768C85.9488 256.523 86.2742 256.229 86.4875 255.888V252.4C86.2742 252.048 85.9488 251.755 85.5115 251.52C85.0848 251.275 84.6422 251.152 84.1835 251.152C83.4155 251.152 82.8075 251.435 82.3595 252C81.9115 252.555 81.6875 253.269 81.6875 254.144C81.6875 255.019 81.9115 255.733 82.3595 256.288C82.8075 256.843 83.4155 257.12 84.1835 257.12ZM92.5546 258.192C91.2533 258.192 90.2133 257.787 89.4346 256.976L90.0426 256.112C90.3093 256.421 90.672 256.683 91.1306 256.896C91.6 257.109 92.0853 257.216 92.5866 257.216C93.1626 257.216 93.6106 257.093 93.9306 256.848C94.2613 256.603 94.4266 256.283 94.4266 255.888C94.4266 255.547 94.2613 255.28 93.9306 255.088C93.6 254.885 93.2 254.736 92.7306 254.64C92.2613 254.533 91.792 254.416 91.3226 254.288C90.864 254.149 90.4693 253.92 90.1386 253.6C89.808 253.269 89.6426 252.837 89.6426 252.304C89.6426 251.675 89.8986 251.147 90.4106 250.72C90.9226 250.293 91.6213 250.08 92.5066 250.08C93.6906 250.08 94.6453 250.453 95.3706 251.2L94.8106 252.032C94.2666 251.381 93.4986 251.056 92.5066 251.056C91.984 251.056 91.568 251.173 91.2586 251.408C90.9493 251.632 90.7946 251.92 90.7946 252.272C90.7946 252.528 90.912 252.741 91.1466 252.912C91.3813 253.083 91.6746 253.205 92.0266 253.28C92.3893 253.355 92.7733 253.451 93.1786 253.568C93.5946 253.685 93.9786 253.819 94.3306 253.968C94.6933 254.107 94.992 254.341 95.2266 254.672C95.4613 254.992 95.5786 255.387 95.5786 255.856C95.5786 256.539 95.312 257.099 94.7786 257.536C94.256 257.973 93.5146 258.192 92.5546 258.192Z" fill="#1A1A1A"/>
<path d="M432.528 258H424.8V256.512C427.051 254.805 428.576 253.552 429.376 252.752C430.176 251.952 430.576 251.184 430.576 250.448C430.576 249.925 430.384 249.525 430 249.248C429.616 248.971 429.157 248.832 428.624 248.832C427.461 248.832 426.501 249.253 425.744 250.096L424.656 248.88C425.115 248.325 425.691 247.904 426.384 247.616C427.088 247.317 427.829 247.168 428.608 247.168C429.696 247.168 430.608 247.461 431.344 248.048C432.091 248.624 432.464 249.424 432.464 250.448C432.464 251.376 432.08 252.293 431.312 253.2C430.555 254.107 429.387 255.157 427.808 256.352H432.528V258ZM441.196 257.408C440.406 257.931 439.436 258.192 438.284 258.192C437.132 258.192 436.161 257.931 435.372 257.408C434.582 256.885 434.188 256.165 434.188 255.248C434.188 254.608 434.412 254.048 434.86 253.568C435.318 253.088 435.894 252.731 436.588 252.496C435.926 252.283 435.388 251.968 434.972 251.552C434.566 251.125 434.364 250.597 434.364 249.968C434.364 249.051 434.753 248.357 435.532 247.888C436.31 247.408 437.228 247.168 438.284 247.168C439.34 247.168 440.257 247.408 441.036 247.888C441.814 248.357 442.204 249.051 442.204 249.968C442.204 250.597 441.996 251.125 441.58 251.552C441.174 251.968 440.641 252.283 439.98 252.496C440.673 252.731 441.244 253.088 441.692 253.568C442.15 254.048 442.38 254.608 442.38 255.248C442.38 256.165 441.985 256.885 441.196 257.408ZM438.284 251.744C438.486 251.712 438.684 251.664 438.876 251.6C439.078 251.536 439.292 251.451 439.516 251.344C439.75 251.227 439.937 251.077 440.076 250.896C440.225 250.704 440.3 250.491 440.3 250.256C440.3 249.808 440.113 249.461 439.74 249.216C439.366 248.96 438.881 248.832 438.284 248.832C437.686 248.832 437.201 248.96 436.828 249.216C436.454 249.461 436.268 249.808 436.268 250.256C436.268 250.491 436.337 250.704 436.476 250.896C436.625 251.077 436.812 251.227 437.036 251.344C437.27 251.451 437.484 251.536 437.676 251.6C437.878 251.664 438.081 251.712 438.284 251.744ZM438.284 256.528C438.902 256.528 439.42 256.389 439.836 256.112C440.262 255.835 440.476 255.467 440.476 255.008C440.476 254.528 440.23 254.149 439.74 253.872C439.26 253.584 438.774 253.403 438.284 253.328C437.793 253.403 437.302 253.584 436.812 253.872C436.332 254.149 436.092 254.528 436.092 255.008C436.092 255.467 436.3 255.835 436.716 256.112C437.132 256.389 437.654 256.528 438.284 256.528ZM446.151 252.464C445.372 252.464 444.732 252.213 444.231 251.712C443.74 251.211 443.495 250.581 443.495 249.824C443.495 249.067 443.74 248.437 444.231 247.936C444.732 247.424 445.372 247.168 446.151 247.168C446.94 247.168 447.58 247.419 448.071 247.92C448.562 248.421 448.807 249.056 448.807 249.824C448.807 250.581 448.562 251.211 448.071 251.712C447.58 252.213 446.94 252.464 446.151 252.464ZM446.183 258H445.111L451.927 247.328H453.015L446.183 258ZM453.799 257.44C453.308 257.941 452.674 258.192 451.895 258.192C451.116 258.192 450.476 257.941 449.975 257.44C449.484 256.939 449.239 256.309 449.239 255.552C449.239 254.795 449.484 254.165 449.975 253.664C450.476 253.152 451.116 252.896 451.895 252.896C452.674 252.896 453.308 253.152 453.799 253.664C454.3 254.165 454.551 254.795 454.551 255.552C454.551 256.309 454.3 256.939 453.799 257.44ZM446.151 251.392C446.567 251.392 446.908 251.248 447.175 250.96C447.442 250.661 447.575 250.283 447.575 249.824C447.575 249.355 447.442 248.971 447.175 248.672C446.908 248.373 446.567 248.224 446.151 248.224C445.746 248.224 445.41 248.373 445.143 248.672C444.876 248.971 444.743 249.355 444.743 249.824C444.743 250.283 444.876 250.661 445.143 250.96C445.41 251.248 445.746 251.392 446.151 251.392ZM450.871 256.688C451.138 256.976 451.479 257.12 451.895 257.12C452.311 257.12 452.652 256.976 452.919 256.688C453.186 256.389 453.319 256.011 453.319 255.552C453.319 255.083 453.186 254.699 452.919 254.4C452.652 254.101 452.311 253.952 451.895 253.952C451.479 253.952 451.138 254.101 450.871 254.4C450.604 254.699 450.471 255.083 450.471 255.552C450.471 256.011 450.604 256.389 450.871 256.688Z" fill="#1A1A1A"/>
<rect opacity="0.2" x="129" y="247" width="280" height="11" rx="5.5" fill="#1A1A1A"/>
<rect x="129" y="247" width="76" height="11" rx="5.5" fill="#1D5556"/>
<path d="M39.936 287.624C38.944 288.669 37.6693 289.192 36.112 289.192C34.5547 289.192 33.28 288.669 32.288 287.624C31.3067 286.579 30.816 285.261 30.816 283.672C30.816 282.083 31.3067 280.765 32.288 279.72C33.28 278.675 34.5547 278.152 36.112 278.152C37.6693 278.152 38.944 278.675 39.936 279.72C40.928 280.765 41.424 282.083 41.424 283.672C41.424 285.261 40.928 286.579 39.936 287.624ZM36.112 288.008C37.2853 288.008 38.2347 287.603 38.96 286.792C39.6853 285.971 40.048 284.931 40.048 283.672C40.048 282.413 39.6853 281.379 38.96 280.568C38.2347 279.747 37.2853 279.336 36.112 279.336C34.928 279.336 33.9787 279.741 33.264 280.552C32.5493 281.363 32.192 282.403 32.192 283.672C32.192 284.931 32.5493 285.971 33.264 286.792C33.9787 287.603 34.928 288.008 36.112 288.008ZM45.4024 289.192C44.2504 289.192 43.6744 288.589 43.6744 287.384V282.328H42.3944V281.272H43.6744V279.16H44.8904V281.272H46.4584V282.328H44.8904V287.128C44.8904 287.427 44.9544 287.667 45.0824 287.848C45.221 288.029 45.413 288.12 45.6584 288.12C45.9997 288.12 46.2717 288.008 46.4744 287.784L46.8264 288.696C46.4744 289.027 45.9997 289.192 45.4024 289.192ZM49.3375 289H48.1375V281.272H49.3375V282.504C50.0735 281.565 50.9322 281.096 51.9135 281.096V282.328C51.7215 282.307 51.5668 282.296 51.4495 282.296C51.0762 282.296 50.6762 282.424 50.2495 282.68C49.8228 282.925 49.5188 283.208 49.3375 283.528V289ZM59.5628 288.024C58.8694 288.803 57.9468 289.192 56.7948 289.192C55.6428 289.192 54.7148 288.803 54.0108 288.024C53.3174 287.245 52.9708 286.28 52.9708 285.128C52.9708 283.976 53.3174 283.016 54.0108 282.248C54.7148 281.469 55.6428 281.08 56.7948 281.08C57.9468 281.08 58.8694 281.469 59.5628 282.248C60.2668 283.016 60.6188 283.976 60.6188 285.128C60.6188 286.28 60.2668 287.245 59.5628 288.024ZM54.9228 287.256C55.3814 287.832 56.0054 288.12 56.7948 288.12C57.5841 288.12 58.2081 287.832 58.6668 287.256C59.1254 286.669 59.3548 285.96 59.3548 285.128C59.3548 284.296 59.1254 283.592 58.6668 283.016C58.2081 282.44 57.5841 282.152 56.7948 282.152C56.0054 282.152 55.3814 282.44 54.9228 283.016C54.4641 283.592 54.2348 284.296 54.2348 285.128C54.2348 285.96 54.4641 286.669 54.9228 287.256ZM65.039 289.192C63.7377 289.192 62.6977 288.787 61.919 287.976L62.527 287.112C62.7937 287.421 63.1563 287.683 63.615 287.896C64.0843 288.109 64.5697 288.216 65.071 288.216C65.647 288.216 66.095 288.093 66.415 287.848C66.7457 287.603 66.911 287.283 66.911 286.888C66.911 286.547 66.7457 286.28 66.415 286.088C66.0843 285.885 65.6843 285.736 65.215 285.64C64.7457 285.533 64.2763 285.416 63.807 285.288C63.3483 285.149 62.9537 284.92 62.623 284.6C62.2923 284.269 62.127 283.837 62.127 283.304C62.127 282.675 62.383 282.147 62.895 281.72C63.407 281.293 64.1057 281.08 64.991 281.08C66.175 281.08 67.1297 281.453 67.855 282.2L67.295 283.032C66.751 282.381 65.983 282.056 64.991 282.056C64.4683 282.056 64.0523 282.173 63.743 282.408C63.4337 282.632 63.279 282.92 63.279 283.272C63.279 283.528 63.3963 283.741 63.631 283.912C63.8657 284.083 64.159 284.205 64.511 284.28C64.8737 284.355 65.2577 284.451 65.663 284.568C66.079 284.685 66.463 284.819 66.815 284.968C67.1777 285.107 67.4763 285.341 67.711 285.672C67.9457 285.992 68.063 286.387 68.063 286.856C68.063 287.539 67.7963 288.099 67.263 288.536C66.7403 288.973 65.999 289.192 65.039 289.192Z" fill="#1A1A1A"/>
<path d="M437.256 289.176C436.019 289.176 434.995 288.781 434.184 287.992L435.064 286.568C435.661 287.197 436.392 287.512 437.256 287.512C438.163 287.512 438.856 287.165 439.336 286.472C439.827 285.779 440.072 284.952 440.072 283.992C440.072 283.853 440.067 283.752 440.056 283.688C439.789 284.083 439.395 284.429 438.872 284.728C438.349 285.027 437.789 285.176 437.192 285.176C436.179 285.176 435.331 284.877 434.648 284.28C433.965 283.672 433.624 282.824 433.624 281.736C433.624 280.723 433.987 279.875 434.712 279.192C435.437 278.499 436.387 278.152 437.56 278.152C438.317 278.152 438.984 278.301 439.56 278.6C440.136 278.888 440.595 279.288 440.936 279.8C441.277 280.312 441.533 280.893 441.704 281.544C441.875 282.184 441.96 282.888 441.96 283.656C441.96 285.267 441.549 286.589 440.728 287.624C439.907 288.659 438.749 289.176 437.256 289.176ZM437.704 283.576C438.152 283.576 438.584 283.464 439 283.24C439.416 283.005 439.763 282.696 440.04 282.312C439.976 281.629 439.752 281.043 439.368 280.552C438.984 280.061 438.413 279.816 437.656 279.816C436.995 279.816 436.472 280.008 436.088 280.392C435.704 280.765 435.512 281.192 435.512 281.672C435.512 282.291 435.72 282.765 436.136 283.096C436.552 283.416 437.075 283.576 437.704 283.576ZM445.713 283.464C444.935 283.464 444.295 283.213 443.793 282.712C443.303 282.211 443.057 281.581 443.057 280.824C443.057 280.067 443.303 279.437 443.793 278.936C444.295 278.424 444.935 278.168 445.713 278.168C446.503 278.168 447.143 278.419 447.633 278.92C448.124 279.421 448.369 280.056 448.369 280.824C448.369 281.581 448.124 282.211 447.633 282.712C447.143 283.213 446.503 283.464 445.713 283.464ZM445.745 289H444.673L451.489 278.328H452.577L445.745 289ZM453.361 288.44C452.871 288.941 452.236 289.192 451.457 289.192C450.679 289.192 450.039 288.941 449.537 288.44C449.047 287.939 448.801 287.309 448.801 286.552C448.801 285.795 449.047 285.165 449.537 284.664C450.039 284.152 450.679 283.896 451.457 283.896C452.236 283.896 452.871 284.152 453.361 284.664C453.863 285.165 454.113 285.795 454.113 286.552C454.113 287.309 453.863 287.939 453.361 288.44ZM445.713 282.392C446.129 282.392 446.471 282.248 446.737 281.96C447.004 281.661 447.137 281.283 447.137 280.824C447.137 280.355 447.004 279.971 446.737 279.672C446.471 279.373 446.129 279.224 445.713 279.224C445.308 279.224 444.972 279.373 444.705 279.672C444.439 279.971 444.305 280.355 444.305 280.824C444.305 281.283 444.439 281.661 444.705 281.96C444.972 282.248 445.308 282.392 445.713 282.392ZM450.433 287.688C450.7 287.976 451.041 288.12 451.457 288.12C451.873 288.12 452.215 287.976 452.481 287.688C452.748 287.389 452.881 287.011 452.881 286.552C452.881 286.083 452.748 285.699 452.481 285.4C452.215 285.101 451.873 284.952 451.457 284.952C451.041 284.952 450.7 285.101 450.433 285.4C450.167 285.699 450.033 286.083 450.033 286.552C450.033 287.011 450.167 287.389 450.433 287.688Z" fill="#1A1A1A"/>
<rect opacity="0.2" x="129" y="278" width="280" height="11" rx="5.5" fill="#1A1A1A"/>
<rect x="129" y="278" width="15" height="11" rx="5.5" fill="#1D5556"/>
<path d="M36.304 134.192C34.7467 134.192 33.44 133.68 32.384 132.656C31.3387 131.621 30.816 130.293 30.816 128.672C30.816 127.051 31.3387 125.728 32.384 124.704C33.44 123.669 34.7467 123.152 36.304 123.152C38.0213 123.152 39.3707 123.856 40.352 125.264L39.248 125.888C38.9387 125.419 38.5173 125.045 37.984 124.768C37.4613 124.48 36.9013 124.336 36.304 124.336C35.12 124.336 34.1387 124.741 33.36 125.552C32.5813 126.363 32.192 127.403 32.192 128.672C32.192 129.931 32.5813 130.971 33.36 131.792C34.1493 132.603 35.1307 133.008 36.304 133.008C36.9013 133.008 37.4613 132.864 37.984 132.576C38.5173 132.288 38.9387 131.915 39.248 131.456L40.368 132.064C39.3333 133.483 37.9787 134.192 36.304 134.192ZM48.1565 133.024C47.4632 133.803 46.5405 134.192 45.3885 134.192C44.2365 134.192 43.3085 133.803 42.6045 133.024C41.9112 132.245 41.5645 131.28 41.5645 130.128C41.5645 128.976 41.9112 128.016 42.6045 127.248C43.3085 126.469 44.2365 126.08 45.3885 126.08C46.5405 126.08 47.4632 126.469 48.1565 127.248C48.8605 128.016 49.2125 128.976 49.2125 130.128C49.2125 131.28 48.8605 132.245 48.1565 133.024ZM43.5165 132.256C43.9752 132.832 44.5992 133.12 45.3885 133.12C46.1778 133.12 46.8018 132.832 47.2605 132.256C47.7192 131.669 47.9485 130.96 47.9485 130.128C47.9485 129.296 47.7192 128.592 47.2605 128.016C46.8018 127.44 46.1778 127.152 45.3885 127.152C44.5992 127.152 43.9752 127.44 43.5165 128.016C43.0578 128.592 42.8285 129.296 42.8285 130.128C42.8285 130.96 43.0578 131.669 43.5165 132.256ZM61.6968 134H60.4968V128.752C60.4968 127.685 60.0221 127.152 59.0728 127.152C58.6888 127.152 58.3048 127.269 57.9208 127.504C57.5368 127.728 57.2381 128.005 57.0248 128.336V134H55.8248V128.752C55.8248 127.685 55.3501 127.152 54.4008 127.152C54.0274 127.152 53.6488 127.269 53.2648 127.504C52.8914 127.739 52.5928 128.021 52.3688 128.352V134H51.1688V126.272H52.3688V127.392C52.5714 127.083 52.9074 126.789 53.3768 126.512C53.8568 126.224 54.3581 126.08 54.8808 126.08C55.4354 126.08 55.8888 126.213 56.2408 126.48C56.5928 126.747 56.8274 127.093 56.9448 127.52C57.1794 127.136 57.5368 126.8 58.0168 126.512C58.4968 126.224 59.0034 126.08 59.5368 126.08C60.9768 126.08 61.6968 126.859 61.6968 128.416V134ZM67.8986 134.192C66.8426 134.192 65.9733 133.739 65.2906 132.832V136.944H64.0906V126.272H65.2906V127.424C65.5786 127.019 65.952 126.693 66.4106 126.448C66.8693 126.203 67.3653 126.08 67.8986 126.08C68.9226 126.08 69.7493 126.448 70.3786 127.184C71.0186 127.909 71.3386 128.891 71.3386 130.128C71.3386 131.365 71.0186 132.352 70.3786 133.088C69.7493 133.824 68.9226 134.192 67.8986 134.192ZM67.5946 133.12C68.352 133.12 68.9546 132.843 69.4026 132.288C69.8506 131.723 70.0746 131.003 70.0746 130.128C70.0746 129.253 69.8506 128.539 69.4026 127.984C68.9546 127.429 68.352 127.152 67.5946 127.152C67.136 127.152 66.688 127.275 66.2506 127.52C65.824 127.755 65.504 128.043 65.2906 128.384V131.872C65.504 132.224 65.824 132.523 66.2506 132.768C66.688 133.003 67.136 133.12 67.5946 133.12ZM79.6629 134H78.4629V132.912C78.1429 133.275 77.7375 133.579 77.2469 133.824C76.7669 134.069 76.2549 134.192 75.7109 134.192C74.0682 134.192 73.2469 133.371 73.2469 131.728V126.272H74.4469V131.36C74.4469 132 74.5962 132.453 74.8949 132.72C75.1935 132.987 75.6255 133.12 76.1909 133.12C76.6389 133.12 77.0709 133.008 77.4869 132.784C77.9029 132.56 78.2282 132.283 78.4629 131.952V126.272H79.6629V134ZM84.0274 134.192C82.8754 134.192 82.2994 133.589 82.2994 132.384V127.328H81.0194V126.272H82.2994V124.16H83.5154V126.272H85.0834V127.328H83.5154V132.128C83.5154 132.427 83.5794 132.667 83.7074 132.848C83.846 133.029 84.038 133.12 84.2834 133.12C84.6247 133.12 84.8967 133.008 85.0994 132.784L85.4514 133.696C85.0994 134.027 84.6247 134.192 84.0274 134.192ZM93.5625 134H92.3625V132.848C91.7012 133.744 90.8318 134.192 89.7545 134.192C88.7305 134.192 87.8985 133.829 87.2585 133.104C86.6292 132.368 86.3145 131.381 86.3145 130.144C86.3145 128.917 86.6345 127.936 87.2745 127.2C87.9145 126.453 88.7412 126.08 89.7545 126.08C90.8212 126.08 91.6905 126.533 92.3625 127.44V126.272H93.5625V134ZM90.0585 133.12C90.5172 133.12 90.9598 133.003 91.3865 132.768C91.8238 132.523 92.1492 132.229 92.3625 131.888V128.4C92.1492 128.048 91.8238 127.755 91.3865 127.52C90.9598 127.275 90.5172 127.152 90.0585 127.152C89.2905 127.152 88.6825 127.435 88.2345 128C87.7865 128.555 87.5625 129.269 87.5625 130.144C87.5625 131.019 87.7865 131.733 88.2345 132.288C88.6825 132.843 89.2905 133.12 90.0585 133.12ZM102.766 134H101.566V132.848C100.904 133.744 100.035 134.192 98.9576 134.192C97.9336 134.192 97.1016 133.829 96.4616 133.104C95.8323 132.368 95.5176 131.381 95.5176 130.144C95.5176 128.917 95.8376 127.936 96.4776 127.2C97.1176 126.453 97.9443 126.08 98.9576 126.08C100.024 126.08 100.894 126.533 101.566 127.44V123.328H102.766V134ZM99.2616 133.12C99.7203 133.12 100.163 133.003 100.59 132.768C101.027 132.523 101.352 132.229 101.566 131.888V128.4C101.352 128.048 101.027 127.755 100.59 127.52C100.163 127.275 99.7203 127.152 99.2616 127.152C98.4936 127.152 97.8856 127.435 97.4376 128C96.9896 128.555 96.7656 129.269 96.7656 130.144C96.7656 131.019 96.9896 131.733 97.4376 132.288C97.8856 132.843 98.4936 133.12 99.2616 133.12ZM111.313 133.024C110.619 133.803 109.697 134.192 108.545 134.192C107.393 134.192 106.465 133.803 105.761 133.024C105.067 132.245 104.721 131.28 104.721 130.128C104.721 128.976 105.067 128.016 105.761 127.248C106.465 126.469 107.393 126.08 108.545 126.08C109.697 126.08 110.619 126.469 111.313 127.248C112.017 128.016 112.369 128.976 112.369 130.128C112.369 131.28 112.017 132.245 111.313 133.024ZM106.673 132.256C107.131 132.832 107.755 133.12 108.545 133.12C109.334 133.12 109.958 132.832 110.417 132.256C110.875 131.669 111.105 130.96 111.105 130.128C111.105 129.296 110.875 128.592 110.417 128.016C109.958 127.44 109.334 127.152 108.545 127.152C107.755 127.152 107.131 127.44 106.673 128.016C106.214 128.592 105.985 129.296 105.985 130.128C105.985 130.96 106.214 131.669 106.673 132.256ZM115.525 134H114.325V126.272H115.525V127.504C116.261 126.565 117.12 126.096 118.101 126.096V127.328C117.909 127.307 117.754 127.296 117.637 127.296C117.264 127.296 116.864 127.424 116.437 127.68C116.01 127.925 115.706 128.208 115.525 128.528V134Z" fill="#1A1A1A"/>
<path d="M427.256 134.176C426.019 134.176 424.995 133.781 424.184 132.992L425.064 131.568C425.661 132.197 426.392 132.512 427.256 132.512C428.163 132.512 428.856 132.165 429.336 131.472C429.827 130.779 430.072 129.952 430.072 128.992C430.072 128.853 430.067 128.752 430.056 128.688C429.789 129.083 429.395 129.429 428.872 129.728C428.349 130.027 427.789 130.176 427.192 130.176C426.179 130.176 425.331 129.877 424.648 129.28C423.965 128.672 423.624 127.824 423.624 126.736C423.624 125.723 423.987 124.875 424.712 124.192C425.437 123.499 426.387 123.152 427.56 123.152C428.317 123.152 428.984 123.301 429.56 123.6C430.136 123.888 430.595 124.288 430.936 124.8C431.277 125.312 431.533 125.893 431.704 126.544C431.875 127.184 431.96 127.888 431.96 128.656C431.96 130.267 431.549 131.589 430.728 132.624C429.907 133.659 428.749 134.176 427.256 134.176ZM427.704 128.576C428.152 128.576 428.584 128.464 429 128.24C429.416 128.005 429.763 127.696 430.04 127.312C429.976 126.629 429.752 126.043 429.368 125.552C428.984 125.061 428.413 124.816 427.656 124.816C426.995 124.816 426.472 125.008 426.088 125.392C425.704 125.765 425.512 126.192 425.512 126.672C425.512 127.291 425.72 127.765 426.136 128.096C426.552 128.416 427.075 128.576 427.704 128.576ZM440.017 134H438.145V131.584H433.057V130.08L437.441 123.328H440.017V129.936H441.441V131.584H440.017V134ZM438.145 129.936V125.008L434.897 129.936H438.145ZM444.995 128.464C444.216 128.464 443.576 128.213 443.075 127.712C442.584 127.211 442.339 126.581 442.339 125.824C442.339 125.067 442.584 124.437 443.075 123.936C443.576 123.424 444.216 123.168 444.995 123.168C445.784 123.168 446.424 123.419 446.915 123.92C447.405 124.421 447.651 125.056 447.651 125.824C447.651 126.581 447.405 127.211 446.915 127.712C446.424 128.213 445.784 128.464 444.995 128.464ZM445.027 134H443.955L450.771 123.328H451.859L445.027 134ZM452.643 133.44C452.152 133.941 451.517 134.192 450.739 134.192C449.96 134.192 449.32 133.941 448.819 133.44C448.328 132.939 448.083 132.309 448.083 131.552C448.083 130.795 448.328 130.165 448.819 129.664C449.32 129.152 449.96 128.896 450.739 128.896C451.517 128.896 452.152 129.152 452.643 129.664C453.144 130.165 453.395 130.795 453.395 131.552C453.395 132.309 453.144 132.939 452.643 133.44ZM444.995 127.392C445.411 127.392 445.752 127.248 446.019 126.96C446.285 126.661 446.419 126.283 446.419 125.824C446.419 125.355 446.285 124.971 446.019 124.672C445.752 124.373 445.411 124.224 444.995 124.224C444.589 124.224 444.253 124.373 443.987 124.672C443.72 124.971 443.587 125.355 443.587 125.824C443.587 126.283 443.72 126.661 443.987 126.96C444.253 127.248 444.589 127.392 444.995 127.392ZM449.715 132.688C449.981 132.976 450.323 133.12 450.739 133.12C451.155 133.12 451.496 132.976 451.763 132.688C452.029 132.389 452.163 132.011 452.163 131.552C452.163 131.083 452.029 130.699 451.763 130.4C451.496 130.101 451.155 129.952 450.739 129.952C450.323 129.952 449.981 130.101 449.715 130.4C449.448 130.699 449.315 131.083 449.315 131.552C449.315 132.011 449.448 132.389 449.715 132.688Z" fill="#1A1A1A"/>
<rect opacity="0.2" x="129" y="123" width="280" height="11" rx="5.5" fill="#1A1A1A"/>
<rect x="129" y="123" width="260" height="11" rx="5.5" fill="#1D5556"/>
<path d="M34.32 36.424C34.6933 36.7867 34.88 37.2453 34.88 37.8C34.88 38.1627 34.7893 38.488 34.608 38.776C34.4373 39.064 34.224 39.304 33.968 39.496C33.7227 39.688 33.472 39.8693 33.216 40.04C32.96 40.2107 32.7413 40.408 32.56 40.632C32.3893 40.8453 32.304 41.0747 32.304 41.32C32.304 41.6507 32.432 41.9227 32.688 42.136C32.9547 42.36 33.3333 42.472 33.824 42.472C34.72 42.472 35.4613 42.0987 36.048 41.352L37.136 42.552C36.272 43.608 35.1093 44.136 33.648 44.136C32.656 44.136 31.8667 43.9013 31.28 43.432C30.6933 42.9627 30.4 42.36 30.4 41.624C30.4 41.1867 30.496 40.792 30.688 40.44C30.8907 40.088 31.1307 39.8053 31.408 39.592C31.6853 39.368 31.9627 39.16 32.24 38.968C32.5173 38.776 32.752 38.568 32.944 38.344C33.1467 38.12 33.248 37.88 33.248 37.624C33.248 37.3147 33.1307 37.0747 32.896 36.904L34.32 36.424ZM32.96 33.432C33.184 33.208 33.4453 33.096 33.744 33.096C34.0427 33.096 34.304 33.208 34.528 33.432C34.752 33.656 34.864 33.9173 34.864 34.216C34.864 34.5147 34.752 34.776 34.528 35C34.304 35.224 34.0427 35.336 33.744 35.336C33.4453 35.336 33.184 35.224 32.96 35C32.736 34.776 32.624 34.5147 32.624 34.216C32.624 33.9173 32.736 33.656 32.96 33.432ZM42.6158 41.192C41.0158 41.192 39.6824 40.68 38.6158 39.656C37.5491 38.6213 37.0158 37.2933 37.0158 35.672C37.0158 34.0507 37.5491 32.728 38.6158 31.704C39.6824 30.6693 41.0158 30.152 42.6158 30.152C44.4931 30.152 45.9171 30.9467 46.8878 32.536L45.3038 33.368C45.0371 32.9093 44.6584 32.536 44.1678 32.248C43.6878 31.96 43.1704 31.816 42.6158 31.816C41.5598 31.816 40.6798 32.1787 39.9758 32.904C39.2824 33.6293 38.9358 34.552 38.9358 35.672C38.9358 36.7813 39.2824 37.704 39.9758 38.44C40.6798 39.1653 41.5598 39.528 42.6158 39.528C43.1704 39.528 43.6878 39.384 44.1678 39.096C44.6584 38.7973 45.0371 38.424 45.3038 37.976L46.9038 38.776C45.8798 40.3867 44.4504 41.192 42.6158 41.192ZM55.234 41H53.554V39.976C52.8287 40.7867 51.922 41.192 50.834 41.192C50.0127 41.192 49.3887 40.984 48.962 40.568C48.546 40.1413 48.338 39.5333 48.338 38.744V33.272H50.018V38.12C50.018 38.696 50.1513 39.1067 50.418 39.352C50.6847 39.5867 51.074 39.704 51.586 39.704C51.9807 39.704 52.354 39.608 52.706 39.416C53.058 39.2133 53.3407 38.9733 53.554 38.696V33.272H55.234V41ZM63.7361 29.8L61.0961 32.104H59.8961L62.1361 29.8H63.7361ZM64.5361 41H62.8561V39.944C62.2161 40.776 61.3895 41.192 60.3761 41.192C59.3735 41.192 58.5521 40.8293 57.9121 40.104C57.2721 39.3787 56.9521 38.3867 56.9521 37.128C56.9521 35.9013 57.2721 34.92 57.9121 34.184C58.5521 33.448 59.3735 33.08 60.3761 33.08C61.4001 33.08 62.2268 33.5013 62.8561 34.344V33.272H64.5361V41ZM60.8721 39.704C61.2561 39.704 61.6348 39.6027 62.0081 39.4C62.3815 39.1973 62.6641 38.952 62.8561 38.664V35.608C62.6641 35.32 62.3815 35.0747 62.0081 34.872C61.6348 34.6693 61.2561 34.568 60.8721 34.568C60.2108 34.568 59.6775 34.808 59.2721 35.288C58.8775 35.7573 58.6801 36.3707 58.6801 37.128C58.6801 37.8853 58.8775 38.504 59.2721 38.984C59.6775 39.464 60.2108 39.704 60.8721 39.704ZM68.697 41.192C68.0463 41.192 67.5503 41.0213 67.209 40.68C66.8783 40.3387 66.713 39.8427 66.713 39.192V30.328H68.393V38.776C68.393 39.0533 68.457 39.2773 68.585 39.448C68.713 39.6187 68.8943 39.704 69.129 39.704C69.4597 39.704 69.7103 39.608 69.881 39.416L70.281 40.696C69.9077 41.0267 69.3797 41.192 68.697 41.192ZM74.8751 41.192C73.6911 41.192 72.7205 40.8187 71.9631 40.072C71.2058 39.3253 70.8271 38.344 70.8271 37.128C70.8271 35.9973 71.1951 35.0427 71.9311 34.264C72.6778 33.4747 73.6165 33.08 74.7471 33.08C75.8885 33.08 76.8058 33.4747 77.4991 34.264C78.1925 35.0427 78.5391 36.0453 78.5391 37.272V37.688H72.5871C72.6511 38.296 72.9018 38.8027 73.3391 39.208C73.7765 39.6133 74.3418 39.816 75.0351 39.816C75.9311 39.816 76.6671 39.528 77.2431 38.952L78.0111 40.056C77.2005 40.8133 76.1551 41.192 74.8751 41.192ZM76.9231 36.488C76.8911 35.9547 76.6885 35.4853 76.3151 35.08C75.9525 34.664 75.4245 34.456 74.7311 34.456C74.0698 34.456 73.5525 34.664 73.1791 35.08C72.8058 35.4853 72.6031 35.9547 72.5711 36.488H76.9231ZM82.8534 41.192C81.4774 41.192 80.3734 40.7867 79.5414 39.976L80.3094 38.776C80.5974 39.0747 80.9814 39.3307 81.4614 39.544C81.952 39.7467 82.4374 39.848 82.9174 39.848C83.408 39.848 83.7867 39.7573 84.0534 39.576C84.32 39.384 84.4534 39.1333 84.4534 38.824C84.4534 38.5467 84.2934 38.3333 83.9734 38.184C83.6534 38.024 83.264 37.9013 82.8054 37.816C82.3467 37.72 81.888 37.608 81.4294 37.48C80.9707 37.3413 80.5814 37.1013 80.2614 36.76C79.9414 36.4187 79.7814 35.9707 79.7814 35.416C79.7814 34.7547 80.0534 34.2 80.5974 33.752C81.1414 33.304 81.8827 33.08 82.8214 33.08C84.0054 33.08 85.0027 33.4373 85.8134 34.152L85.1094 35.336C84.544 34.7173 83.7814 34.408 82.8214 34.408C82.3947 34.408 82.048 34.4987 81.7814 34.68C81.5254 34.8613 81.3974 35.0907 81.3974 35.368C81.3974 35.6133 81.5574 35.8053 81.8774 35.944C82.1974 36.0827 82.5867 36.2 83.0454 36.296C83.504 36.3813 83.9627 36.4933 84.4214 36.632C84.88 36.7707 85.2694 37.0213 85.5894 37.384C85.9094 37.7467 86.0694 38.2107 86.0694 38.776C86.0694 39.4907 85.7867 40.072 85.2214 40.52C84.656 40.968 83.8667 41.192 82.8534 41.192ZM98.9893 41H97.3093V39.944C96.6693 40.776 95.8426 41.192 94.8293 41.192C93.8266 41.192 93.0053 40.8293 92.3653 40.104C91.7253 39.3787 91.4053 38.3867 91.4053 37.128C91.4053 35.9013 91.7253 34.92 92.3653 34.184C93.0053 33.448 93.8266 33.08 94.8293 33.08C95.8639 33.08 96.6906 33.5013 97.3093 34.344V30.328H98.9893V41ZM95.3253 39.704C95.7093 39.704 96.0879 39.6027 96.4613 39.4C96.8346 39.1973 97.1173 38.952 97.3093 38.664V35.608C97.1173 35.32 96.8346 35.0747 96.4613 34.872C96.0879 34.6693 95.7093 34.568 95.3253 34.568C94.6639 34.568 94.1306 34.808 93.7253 35.288C93.3306 35.7573 93.1332 36.3707 93.1332 37.128C93.1332 37.8853 93.3306 38.504 93.7253 38.984C94.1306 39.464 94.6639 39.704 95.3253 39.704ZM104.75 41.192C103.566 41.192 102.595 40.8187 101.838 40.072C101.081 39.3253 100.702 38.344 100.702 37.128C100.702 35.9973 101.07 35.0427 101.806 34.264C102.553 33.4747 103.491 33.08 104.622 33.08C105.763 33.08 106.681 33.4747 107.374 34.264C108.067 35.0427 108.414 36.0453 108.414 37.272V37.688H102.462C102.526 38.296 102.777 38.8027 103.214 39.208C103.651 39.6133 104.217 39.816 104.91 39.816C105.806 39.816 106.542 39.528 107.118 38.952L107.886 40.056C107.075 40.8133 106.03 41.192 104.75 41.192ZM106.798 36.488C106.766 35.9547 106.563 35.4853 106.19 35.08C105.827 34.664 105.299 34.456 104.606 34.456C103.945 34.456 103.427 34.664 103.054 35.08C102.681 35.4853 102.478 35.9547 102.446 36.488H106.798ZM116.181 41.192C115.531 41.192 115.035 41.0213 114.693 40.68C114.363 40.3387 114.197 39.8427 114.197 39.192V30.328H115.877V38.776C115.877 39.0533 115.941 39.2773 116.069 39.448C116.197 39.6187 116.379 39.704 116.613 39.704C116.944 39.704 117.195 39.608 117.365 39.416L117.765 40.696C117.392 41.0267 116.864 41.192 116.181 41.192ZM125.16 40.024C124.434 40.8027 123.474 41.192 122.28 41.192C121.085 41.192 120.125 40.8027 119.4 40.024C118.674 39.2347 118.312 38.2693 118.312 37.128C118.312 35.976 118.674 35.016 119.4 34.248C120.125 33.4693 121.085 33.08 122.28 33.08C123.474 33.08 124.434 33.4693 125.16 34.248C125.885 35.016 126.248 35.976 126.248 37.128C126.248 38.2693 125.885 39.2347 125.16 40.024ZM122.28 39.704C122.973 39.704 123.517 39.4587 123.912 38.968C124.306 38.4667 124.504 37.8533 124.504 37.128C124.504 36.4133 124.306 35.8107 123.912 35.32C123.517 34.8187 122.973 34.568 122.28 34.568C121.597 34.568 121.053 34.8187 120.648 35.32C120.253 35.8107 120.056 36.4133 120.056 37.128C120.056 37.8533 120.253 38.4667 120.648 38.968C121.053 39.4587 121.597 39.704 122.28 39.704ZM130.619 41.192C129.243 41.192 128.139 40.7867 127.307 39.976L128.075 38.776C128.363 39.0747 128.747 39.3307 129.227 39.544C129.718 39.7467 130.203 39.848 130.683 39.848C131.174 39.848 131.552 39.7573 131.819 39.576C132.086 39.384 132.219 39.1333 132.219 38.824C132.219 38.5467 132.059 38.3333 131.739 38.184C131.419 38.024 131.03 37.9013 130.571 37.816C130.112 37.72 129.654 37.608 129.195 37.48C128.736 37.3413 128.347 37.1013 128.027 36.76C127.707 36.4187 127.547 35.9707 127.547 35.416C127.547 34.7547 127.819 34.2 128.363 33.752C128.907 33.304 129.648 33.08 130.587 33.08C131.771 33.08 132.768 33.4373 133.579 34.152L132.875 35.336C132.31 34.7173 131.547 34.408 130.587 34.408C130.16 34.408 129.814 34.4987 129.547 34.68C129.291 34.8613 129.163 35.0907 129.163 35.368C129.163 35.6133 129.323 35.8053 129.643 35.944C129.963 36.0827 130.352 36.2 130.811 36.296C131.27 36.3813 131.728 36.4933 132.187 36.632C132.646 36.7707 133.035 37.0213 133.355 37.384C133.675 37.7467 133.835 38.2107 133.835 38.776C133.835 39.4907 133.552 40.072 132.987 40.52C132.422 40.968 131.632 41.192 130.619 41.192ZM142.291 41.192C140.915 41.192 139.811 40.7867 138.979 39.976L139.747 38.776C140.035 39.0747 140.419 39.3307 140.899 39.544C141.39 39.7467 141.875 39.848 142.355 39.848C142.846 39.848 143.224 39.7573 143.491 39.576C143.758 39.384 143.891 39.1333 143.891 38.824C143.891 38.5467 143.731 38.3333 143.411 38.184C143.091 38.024 142.702 37.9013 142.243 37.816C141.784 37.72 141.326 37.608 140.867 37.48C140.408 37.3413 140.019 37.1013 139.699 36.76C139.379 36.4187 139.219 35.9707 139.219 35.416C139.219 34.7547 139.491 34.2 140.035 33.752C140.579 33.304 141.32 33.08 142.259 33.08C143.443 33.08 144.44 33.4373 145.251 34.152L144.547 35.336C143.982 34.7173 143.219 34.408 142.259 34.408C141.832 34.408 141.486 34.4987 141.219 34.68C140.963 34.8613 140.835 35.0907 140.835 35.368C140.835 35.6133 140.995 35.8053 141.315 35.944C141.635 36.0827 142.024 36.2 142.483 36.296C142.942 36.3813 143.4 36.4933 143.859 36.632C144.318 36.7707 144.707 37.0213 145.027 37.384C145.347 37.7467 145.507 38.2107 145.507 38.776C145.507 39.4907 145.224 40.072 144.659 40.52C144.094 40.968 143.304 41.192 142.291 41.192ZM148.766 32.024C148.563 32.2267 148.318 32.328 148.03 32.328C147.742 32.328 147.496 32.2267 147.294 32.024C147.091 31.8213 146.99 31.576 146.99 31.288C146.99 31 147.091 30.7547 147.294 30.552C147.496 30.3493 147.742 30.248 148.03 30.248C148.318 30.248 148.563 30.3493 148.766 30.552C148.968 30.7547 149.07 31 149.07 31.288C149.07 31.576 148.968 31.8213 148.766 32.024ZM148.862 41H147.182V33.272H148.862V41ZM154.193 44.136C152.881 44.136 151.798 43.752 150.945 42.984L151.729 41.768C152.316 42.4293 153.137 42.76 154.193 42.76C154.833 42.76 155.372 42.5893 155.809 42.248C156.257 41.9067 156.481 41.3573 156.481 40.6V39.72C155.83 40.584 155.004 41.016 154.001 41.016C152.988 41.016 152.161 40.664 151.521 39.96C150.892 39.256 150.577 38.2853 150.577 37.048C150.577 35.8107 150.892 34.84 151.521 34.136C152.15 33.432 152.977 33.08 154.001 33.08C155.025 33.08 155.852 33.5013 156.481 34.344V33.272H158.161V40.6C158.161 41.2613 158.044 41.832 157.809 42.312C157.585 42.8027 157.27 43.1707 156.865 43.416C156.47 43.672 156.054 43.8533 155.617 43.96C155.18 44.0773 154.705 44.136 154.193 44.136ZM154.497 39.512C154.881 39.512 155.254 39.416 155.617 39.224C155.99 39.0213 156.278 38.776 156.481 38.488V35.592C156.278 35.304 155.99 35.064 155.617 34.872C155.254 34.6693 154.881 34.568 154.497 34.568C153.825 34.568 153.292 34.7973 152.897 35.256C152.502 35.704 152.305 36.3013 152.305 37.048C152.305 37.7947 152.502 38.392 152.897 38.84C153.292 39.288 153.825 39.512 154.497 39.512ZM167.234 41H165.554V39.976C164.829 40.7867 163.922 41.192 162.834 41.192C162.013 41.192 161.389 40.984 160.962 40.568C160.546 40.1413 160.338 39.5333 160.338 38.744V33.272H162.018V38.12C162.018 38.696 162.151 39.1067 162.418 39.352C162.685 39.5867 163.074 39.704 163.586 39.704C163.981 39.704 164.354 39.608 164.706 39.416C165.058 39.2133 165.341 38.9733 165.554 38.696V33.272H167.234V41ZM171 32.024C170.797 32.2267 170.552 32.328 170.264 32.328C169.976 32.328 169.731 32.2267 169.528 32.024C169.325 31.8213 169.224 31.576 169.224 31.288C169.224 31 169.325 30.7547 169.528 30.552C169.731 30.3493 169.976 30.248 170.264 30.248C170.552 30.248 170.797 30.3493 171 30.552C171.203 30.7547 171.304 31 171.304 31.288C171.304 31.576 171.203 31.8213 171 32.024ZM171.096 41H169.416V33.272H171.096V41ZM176.86 41.192C175.676 41.192 174.705 40.8187 173.948 40.072C173.19 39.3253 172.812 38.344 172.812 37.128C172.812 35.9973 173.18 35.0427 173.916 34.264C174.662 33.4747 175.601 33.08 176.732 33.08C177.873 33.08 178.79 33.4747 179.484 34.264C180.177 35.0427 180.524 36.0453 180.524 37.272V37.688H174.572C174.636 38.296 174.886 38.8027 175.324 39.208C175.761 39.6133 176.326 39.816 177.02 39.816C177.916 39.816 178.652 39.528 179.228 38.952L179.996 40.056C179.185 40.8133 178.14 41.192 176.86 41.192ZM178.908 36.488C178.876 35.9547 178.673 35.4853 178.3 35.08C177.937 34.664 177.409 34.456 176.716 34.456C176.054 34.456 175.537 34.664 175.164 35.08C174.79 35.4853 174.588 35.9547 174.556 36.488H178.908ZM189.094 41H187.414V36.168C187.414 35.592 187.275 35.1813 186.998 34.936C186.731 34.6907 186.347 34.568 185.846 34.568C185.451 34.568 185.078 34.6693 184.726 34.872C184.374 35.064 184.086 35.304 183.862 35.592V41H182.182V33.272H183.862V34.312C184.15 33.9707 184.534 33.6827 185.014 33.448C185.504 33.2027 186.032 33.08 186.598 33.08C187.419 33.08 188.038 33.2933 188.454 33.72C188.88 34.1467 189.094 34.76 189.094 35.56V41ZM193.612 41.192C192.289 41.192 191.628 40.5253 191.628 39.192V34.728H190.348V33.272H191.628V31.16H193.308V33.272H194.876V34.728H193.308V38.776C193.308 39.0533 193.372 39.2773 193.5 39.448C193.628 39.6187 193.809 39.704 194.044 39.704C194.364 39.704 194.609 39.608 194.78 39.416L195.18 40.696C194.806 41.0267 194.284 41.192 193.612 41.192ZM199.969 41.192C198.785 41.192 197.814 40.8187 197.057 40.072C196.3 39.3253 195.921 38.344 195.921 37.128C195.921 35.9973 196.289 35.0427 197.025 34.264C197.772 33.4747 198.71 33.08 199.841 33.08C200.982 33.08 201.9 33.4747 202.593 34.264C203.286 35.0427 203.633 36.0453 203.633 37.272V37.688H197.681C197.745 38.296 197.996 38.8027 198.433 39.208C198.87 39.6133 199.436 39.816 200.129 39.816C201.025 39.816 201.761 39.528 202.337 38.952L203.105 40.056C202.294 40.8133 201.249 41.192 199.969 41.192ZM202.017 36.488C201.985 35.9547 201.782 35.4853 201.409 35.08C201.046 34.664 200.518 34.456 199.825 34.456C199.164 34.456 198.646 34.664 198.273 35.08C197.9 35.4853 197.697 35.9547 197.665 36.488H202.017ZM207.947 41.192C206.571 41.192 205.467 40.7867 204.635 39.976L205.403 38.776C205.691 39.0747 206.075 39.3307 206.555 39.544C207.046 39.7467 207.531 39.848 208.011 39.848C208.502 39.848 208.88 39.7573 209.147 39.576C209.414 39.384 209.547 39.1333 209.547 38.824C209.547 38.5467 209.387 38.3333 209.067 38.184C208.747 38.024 208.358 37.9013 207.899 37.816C207.44 37.72 206.982 37.608 206.523 37.48C206.064 37.3413 205.675 37.1013 205.355 36.76C205.035 36.4187 204.875 35.9707 204.875 35.416C204.875 34.7547 205.147 34.2 205.691 33.752C206.235 33.304 206.976 33.08 207.915 33.08C209.099 33.08 210.096 33.4373 210.907 34.152L210.203 35.336C209.638 34.7173 208.875 34.408 207.915 34.408C207.488 34.408 207.142 34.4987 206.875 34.68C206.619 34.8613 206.491 35.0907 206.491 35.368C206.491 35.6133 206.651 35.8053 206.971 35.944C207.291 36.0827 207.68 36.2 208.139 36.296C208.598 36.3813 209.056 36.4933 209.515 36.632C209.974 36.7707 210.363 37.0213 210.683 37.384C211.003 37.7467 211.163 38.2107 211.163 38.776C211.163 39.4907 210.88 40.072 210.315 40.52C209.75 40.968 208.96 41.192 207.947 41.192ZM224.083 41H222.403V39.944C221.763 40.776 220.936 41.192 219.923 41.192C218.92 41.192 218.099 40.8293 217.459 40.104C216.819 39.3787 216.499 38.3867 216.499 37.128C216.499 35.9013 216.819 34.92 217.459 34.184C218.099 33.448 218.92 33.08 219.923 33.08C220.958 33.08 221.784 33.5013 222.403 34.344V30.328H224.083V41ZM220.419 39.704C220.803 39.704 221.182 39.6027 221.555 39.4C221.928 39.1973 222.211 38.952 222.403 38.664V35.608C222.211 35.32 221.928 35.0747 221.555 34.872C221.182 34.6693 220.803 34.568 220.419 34.568C219.758 34.568 219.224 34.808 218.819 35.288C218.424 35.7573 218.227 36.3707 218.227 37.128C218.227 37.8853 218.424 38.504 218.819 38.984C219.224 39.464 219.758 39.704 220.419 39.704ZM227.844 32.024C227.641 32.2267 227.396 32.328 227.108 32.328C226.82 32.328 226.575 32.2267 226.372 32.024C226.169 31.8213 226.068 31.576 226.068 31.288C226.068 31 226.169 30.7547 226.372 30.552C226.575 30.3493 226.82 30.248 227.108 30.248C227.396 30.248 227.641 30.3493 227.844 30.552C228.047 30.7547 228.148 31 228.148 31.288C228.148 31.576 228.047 31.8213 227.844 32.024ZM227.94 41H226.26V33.272H227.94V41ZM232.775 41.192C231.399 41.192 230.295 40.7867 229.463 39.976L230.231 38.776C230.519 39.0747 230.903 39.3307 231.383 39.544C231.874 39.7467 232.359 39.848 232.839 39.848C233.33 39.848 233.709 39.7573 233.975 39.576C234.242 39.384 234.375 39.1333 234.375 38.824C234.375 38.5467 234.215 38.3333 233.895 38.184C233.575 38.024 233.186 37.9013 232.727 37.816C232.269 37.72 231.81 37.608 231.351 37.48C230.893 37.3413 230.503 37.1013 230.183 36.76C229.863 36.4187 229.703 35.9707 229.703 35.416C229.703 34.7547 229.975 34.2 230.519 33.752C231.063 33.304 231.805 33.08 232.743 33.08C233.927 33.08 234.925 33.4373 235.735 34.152L235.031 35.336C234.466 34.7173 233.703 34.408 232.743 34.408C232.317 34.408 231.97 34.4987 231.703 34.68C231.447 34.8613 231.319 35.0907 231.319 35.368C231.319 35.6133 231.479 35.8053 231.799 35.944C232.119 36.0827 232.509 36.2 232.967 36.296C233.426 36.3813 233.885 36.4933 234.343 36.632C234.802 36.7707 235.191 37.0213 235.511 37.384C235.831 37.7467 235.991 38.2107 235.991 38.776C235.991 39.4907 235.709 40.072 235.143 40.52C234.578 40.968 233.789 41.192 232.775 41.192ZM241.826 41.192C240.834 41.192 240.007 40.7707 239.346 39.928V43.944H237.666V33.272H239.346V34.328C239.965 33.496 240.791 33.08 241.826 33.08C242.839 33.08 243.661 33.4427 244.29 34.168C244.93 34.8933 245.25 35.88 245.25 37.128C245.25 38.376 244.93 39.368 244.29 40.104C243.661 40.8293 242.839 41.192 241.826 41.192ZM241.33 39.704C241.991 39.704 242.519 39.464 242.914 38.984C243.319 38.504 243.522 37.8853 243.522 37.128C243.522 36.3707 243.319 35.7573 242.914 35.288C242.519 34.808 241.991 34.568 241.33 34.568C240.946 34.568 240.567 34.6693 240.194 34.872C239.821 35.064 239.538 35.304 239.346 35.592V38.648C239.538 38.9467 239.821 39.1973 240.194 39.4C240.567 39.6027 240.946 39.704 241.33 39.704ZM253.316 40.024C252.59 40.8027 251.63 41.192 250.436 41.192C249.241 41.192 248.281 40.8027 247.556 40.024C246.83 39.2347 246.468 38.2693 246.468 37.128C246.468 35.976 246.83 35.016 247.556 34.248C248.281 33.4693 249.241 33.08 250.436 33.08C251.63 33.08 252.59 33.4693 253.316 34.248C254.041 35.016 254.404 35.976 254.404 37.128C254.404 38.2693 254.041 39.2347 253.316 40.024ZM250.436 39.704C251.129 39.704 251.673 39.4587 252.068 38.968C252.462 38.4667 252.66 37.8533 252.66 37.128C252.66 36.4133 252.462 35.8107 252.068 35.32C251.673 34.8187 251.129 34.568 250.436 34.568C249.753 34.568 249.209 34.8187 248.804 35.32C248.409 35.8107 248.212 36.4133 248.212 37.128C248.212 37.8533 248.409 38.4667 248.804 38.968C249.209 39.4587 249.753 39.704 250.436 39.704ZM258.775 41.192C257.399 41.192 256.295 40.7867 255.463 39.976L256.231 38.776C256.519 39.0747 256.903 39.3307 257.383 39.544C257.874 39.7467 258.359 39.848 258.839 39.848C259.33 39.848 259.709 39.7573 259.975 39.576C260.242 39.384 260.375 39.1333 260.375 38.824C260.375 38.5467 260.215 38.3333 259.895 38.184C259.575 38.024 259.186 37.9013 258.727 37.816C258.269 37.72 257.81 37.608 257.351 37.48C256.893 37.3413 256.503 37.1013 256.183 36.76C255.863 36.4187 255.703 35.9707 255.703 35.416C255.703 34.7547 255.975 34.2 256.519 33.752C257.063 33.304 257.805 33.08 258.743 33.08C259.927 33.08 260.925 33.4373 261.735 34.152L261.031 35.336C260.466 34.7173 259.703 34.408 258.743 34.408C258.317 34.408 257.97 34.4987 257.703 34.68C257.447 34.8613 257.319 35.0907 257.319 35.368C257.319 35.6133 257.479 35.8053 257.799 35.944C258.119 36.0827 258.509 36.2 258.967 36.296C259.426 36.3813 259.885 36.4933 260.343 36.632C260.802 36.7707 261.191 37.0213 261.511 37.384C261.831 37.7467 261.991 38.2107 261.991 38.776C261.991 39.4907 261.709 40.072 261.143 40.52C260.578 40.968 259.789 41.192 258.775 41.192ZM265.25 32.024C265.047 32.2267 264.802 32.328 264.514 32.328C264.226 32.328 263.981 32.2267 263.778 32.024C263.575 31.8213 263.474 31.576 263.474 31.288C263.474 31 263.575 30.7547 263.778 30.552C263.981 30.3493 264.226 30.248 264.514 30.248C264.802 30.248 265.047 30.3493 265.25 30.552C265.453 30.7547 265.554 31 265.554 31.288C265.554 31.576 265.453 31.8213 265.25 32.024ZM265.346 41H263.666V33.272H265.346V41ZM269.862 41.192C268.539 41.192 267.878 40.5253 267.878 39.192V34.728H266.598V33.272H267.878V31.16H269.558V33.272H271.126V34.728H269.558V38.776C269.558 39.0533 269.622 39.2773 269.75 39.448C269.878 39.6187 270.059 39.704 270.294 39.704C270.614 39.704 270.859 39.608 271.03 39.416L271.43 40.696C271.056 41.0267 270.534 41.192 269.862 41.192ZM274.219 32.024C274.016 32.2267 273.771 32.328 273.483 32.328C273.195 32.328 272.95 32.2267 272.747 32.024C272.544 31.8213 272.443 31.576 272.443 31.288C272.443 31 272.544 30.7547 272.747 30.552C272.95 30.3493 273.195 30.248 273.483 30.248C273.771 30.248 274.016 30.3493 274.219 30.552C274.422 30.7547 274.523 31 274.523 31.288C274.523 31.576 274.422 31.8213 274.219 32.024ZM274.315 41H272.635V33.272H274.315V41ZM280.334 41H278.526L275.374 33.272H277.182L279.438 39.064L281.694 33.272H283.486L280.334 41ZM290.925 40.024C290.2 40.8027 289.24 41.192 288.045 41.192C286.85 41.192 285.89 40.8027 285.165 40.024C284.44 39.2347 284.077 38.2693 284.077 37.128C284.077 35.976 284.44 35.016 285.165 34.248C285.89 33.4693 286.85 33.08 288.045 33.08C289.24 33.08 290.2 33.4693 290.925 34.248C291.65 35.016 292.013 35.976 292.013 37.128C292.013 38.2693 291.65 39.2347 290.925 40.024ZM288.045 39.704C288.738 39.704 289.282 39.4587 289.677 38.968C290.072 38.4667 290.269 37.8533 290.269 37.128C290.269 36.4133 290.072 35.8107 289.677 35.32C289.282 34.8187 288.738 34.568 288.045 34.568C287.362 34.568 286.818 34.8187 286.413 35.32C286.018 35.8107 285.821 36.4133 285.821 37.128C285.821 37.8533 286.018 38.4667 286.413 38.968C286.818 39.4587 287.362 39.704 288.045 39.704ZM296.385 41.192C295.009 41.192 293.905 40.7867 293.073 39.976L293.841 38.776C294.129 39.0747 294.513 39.3307 294.993 39.544C295.483 39.7467 295.969 39.848 296.449 39.848C296.939 39.848 297.318 39.7573 297.585 39.576C297.851 39.384 297.985 39.1333 297.985 38.824C297.985 38.5467 297.825 38.3333 297.505 38.184C297.185 38.024 296.795 37.9013 296.337 37.816C295.878 37.72 295.419 37.608 294.961 37.48C294.502 37.3413 294.113 37.1013 293.793 36.76C293.473 36.4187 293.313 35.9707 293.313 35.416C293.313 34.7547 293.585 34.2 294.129 33.752C294.673 33.304 295.414 33.08 296.353 33.08C297.537 33.08 298.534 33.4373 299.345 34.152L298.641 35.336C298.075 34.7173 297.313 34.408 296.353 34.408C295.926 34.408 295.579 34.4987 295.313 34.68C295.057 34.8613 294.929 35.0907 294.929 35.368C294.929 35.6133 295.089 35.8053 295.409 35.944C295.729 36.0827 296.118 36.2 296.577 36.296C297.035 36.3813 297.494 36.4933 297.953 36.632C298.411 36.7707 298.801 37.0213 299.121 37.384C299.441 37.7467 299.601 38.2107 299.601 38.776C299.601 39.4907 299.318 40.072 298.753 40.52C298.187 40.968 297.398 41.192 296.385 41.192ZM312.297 41H310.617V39.976C309.891 40.7867 308.985 41.192 307.897 41.192C307.075 41.192 306.451 40.984 306.025 40.568C305.609 40.1413 305.401 39.5333 305.401 38.744V33.272H307.081V38.12C307.081 38.696 307.214 39.1067 307.481 39.352C307.747 39.5867 308.137 39.704 308.649 39.704C309.043 39.704 309.417 39.608 309.769 39.416C310.121 39.2133 310.403 38.9733 310.617 38.696V33.272H312.297V41ZM316.815 41.192C315.492 41.192 314.831 40.5253 314.831 39.192V34.728H313.551V33.272H314.831V31.16H316.511V33.272H318.079V34.728H316.511V38.776C316.511 39.0533 316.575 39.2773 316.703 39.448C316.831 39.6187 317.012 39.704 317.247 39.704C317.567 39.704 317.812 39.608 317.983 39.416L318.383 40.696C318.009 41.0267 317.487 41.192 316.815 41.192ZM321.172 32.024C320.969 32.2267 320.724 32.328 320.436 32.328C320.148 32.328 319.903 32.2267 319.7 32.024C319.497 31.8213 319.396 31.576 319.396 31.288C319.396 31 319.497 30.7547 319.7 30.552C319.903 30.3493 320.148 30.248 320.436 30.248C320.724 30.248 320.969 30.3493 321.172 30.552C321.375 30.7547 321.476 31 321.476 31.288C321.476 31.576 321.375 31.8213 321.172 32.024ZM321.268 41H319.588V33.272H321.268V41ZM325.431 41.192C324.781 41.192 324.285 41.0213 323.943 40.68C323.613 40.3387 323.447 39.8427 323.447 39.192V30.328H325.127V38.776C325.127 39.0533 325.191 39.2773 325.319 39.448C325.447 39.6187 325.629 39.704 325.863 39.704C326.194 39.704 326.445 39.608 326.615 39.416L327.015 40.696C326.642 41.0267 326.114 41.192 325.431 41.192ZM329.61 32.024C329.407 32.2267 329.162 32.328 328.874 32.328C328.586 32.328 328.34 32.2267 328.138 32.024C327.935 31.8213 327.834 31.576 327.834 31.288C327.834 31 327.935 30.7547 328.138 30.552C328.34 30.3493 328.586 30.248 328.874 30.248C329.162 30.248 329.407 30.3493 329.61 30.552C329.812 30.7547 329.914 31 329.914 31.288C329.914 31.576 329.812 31.8213 329.61 32.024ZM329.706 41H328.026V33.272H329.706V41ZM337.677 41H331.549V39.72L335.357 34.728H331.549V33.272H337.613V34.488L333.741 39.528H337.677V41ZM346.614 41H344.934V39.944C344.294 40.776 343.468 41.192 342.454 41.192C341.452 41.192 340.63 40.8293 339.99 40.104C339.35 39.3787 339.03 38.3867 339.03 37.128C339.03 35.9013 339.35 34.92 339.99 34.184C340.63 33.448 341.452 33.08 342.454 33.08C343.478 33.08 344.305 33.5013 344.934 34.344V33.272H346.614V41ZM342.95 39.704C343.334 39.704 343.713 39.6027 344.086 39.4C344.46 39.1973 344.742 38.952 344.934 38.664V35.608C344.742 35.32 344.46 35.0747 344.086 34.872C343.713 34.6693 343.334 34.568 342.95 34.568C342.289 34.568 341.756 34.808 341.35 35.288C340.956 35.7573 340.758 36.3707 340.758 37.128C340.758 37.8853 340.956 38.504 341.35 38.984C341.756 39.464 342.289 39.704 342.95 39.704ZM357.076 41.192C356.084 41.192 355.257 40.7707 354.596 39.928V43.944H352.916V33.272H354.596V34.328C355.215 33.496 356.041 33.08 357.076 33.08C358.089 33.08 358.911 33.4427 359.54 34.168C360.18 34.8933 360.5 35.88 360.5 37.128C360.5 38.376 360.18 39.368 359.54 40.104C358.911 40.8293 358.089 41.192 357.076 41.192ZM356.58 39.704C357.241 39.704 357.769 39.464 358.164 38.984C358.569 38.504 358.772 37.8853 358.772 37.128C358.772 36.3707 358.569 35.7573 358.164 35.288C357.769 34.808 357.241 34.568 356.58 34.568C356.196 34.568 355.817 34.6693 355.444 34.872C355.071 35.064 354.788 35.304 354.596 35.592V38.648C354.788 38.9467 355.071 39.1973 355.444 39.4C355.817 39.6027 356.196 39.704 356.58 39.704ZM369.302 41H367.622V39.944C366.982 40.776 366.155 41.192 365.142 41.192C364.139 41.192 363.318 40.8293 362.678 40.104C362.038 39.3787 361.718 38.3867 361.718 37.128C361.718 35.9013 362.038 34.92 362.678 34.184C363.318 33.448 364.139 33.08 365.142 33.08C366.166 33.08 366.992 33.5013 367.622 34.344V33.272H369.302V41ZM365.638 39.704C366.022 39.704 366.4 39.6027 366.774 39.4C367.147 39.1973 367.43 38.952 367.622 38.664V35.608C367.43 35.32 367.147 35.0747 366.774 34.872C366.4 34.6693 366.022 34.568 365.638 34.568C364.976 34.568 364.443 34.808 364.038 35.288C363.643 35.7573 363.446 36.3707 363.446 37.128C363.446 37.8853 363.643 38.504 364.038 38.984C364.443 39.464 364.976 39.704 365.638 39.704ZM373.159 41H371.479V33.272H373.159V34.392C373.468 34.008 373.841 33.6933 374.279 33.448C374.727 33.2027 375.191 33.08 375.671 33.08V34.744C375.521 34.712 375.351 34.696 375.159 34.696C374.796 34.696 374.412 34.8027 374.007 35.016C373.612 35.2187 373.329 35.4587 373.159 35.736V41ZM384.146 41H382.466V39.944C381.826 40.776 380.999 41.192 379.986 41.192C378.983 41.192 378.162 40.8293 377.522 40.104C376.882 39.3787 376.562 38.3867 376.562 37.128C376.562 35.9013 376.882 34.92 377.522 34.184C378.162 33.448 378.983 33.08 379.986 33.08C381.01 33.08 381.836 33.5013 382.466 34.344V33.272H384.146V41ZM380.482 39.704C380.866 39.704 381.244 39.6027 381.618 39.4C381.991 39.1973 382.274 38.952 382.466 38.664V35.608C382.274 35.32 381.991 35.0747 381.618 34.872C381.244 34.6693 380.866 34.568 380.482 34.568C379.82 34.568 379.287 34.808 378.882 35.288C378.487 35.7573 378.289 36.3707 378.289 37.128C378.289 37.8853 378.487 38.504 378.882 38.984C379.287 39.464 379.82 39.704 380.482 39.704ZM397.567 41H395.887V39.944C395.247 40.776 394.421 41.192 393.407 41.192C392.405 41.192 391.583 40.8293 390.943 40.104C390.303 39.3787 389.983 38.3867 389.983 37.128C389.983 35.9013 390.303 34.92 390.943 34.184C391.583 33.448 392.405 33.08 393.407 33.08C394.431 33.08 395.258 33.5013 395.887 34.344V33.272H397.567V41ZM393.903 39.704C394.287 39.704 394.666 39.6027 395.039 39.4C395.413 39.1973 395.695 38.952 395.887 38.664V35.608C395.695 35.32 395.413 35.0747 395.039 34.872C394.666 34.6693 394.287 34.568 393.903 34.568C393.242 34.568 392.709 34.808 392.303 35.288C391.909 35.7573 391.711 36.3707 391.711 37.128C391.711 37.8853 391.909 38.504 392.303 38.984C392.709 39.464 393.242 39.704 393.903 39.704ZM403.264 41.192C402.102 41.192 401.147 40.808 400.4 40.04C399.654 39.272 399.28 38.3013 399.28 37.128C399.28 35.9547 399.654 34.9893 400.4 34.232C401.147 33.464 402.102 33.08 403.264 33.08C404.555 33.08 405.542 33.5387 406.224 34.456L405.12 35.464C404.694 34.8667 404.102 34.568 403.344 34.568C402.651 34.568 402.086 34.808 401.648 35.288C401.222 35.7573 401.008 36.3707 401.008 37.128C401.008 37.8853 401.222 38.504 401.648 38.984C402.086 39.464 402.651 39.704 403.344 39.704C404.091 39.704 404.683 39.3947 405.12 38.776L406.224 39.816C405.531 40.7333 404.544 41.192 403.264 41.192ZM411.233 41.192C410.07 41.192 409.116 40.808 408.369 40.04C407.622 39.272 407.249 38.3013 407.249 37.128C407.249 35.9547 407.622 34.9893 408.369 34.232C409.116 33.464 410.07 33.08 411.233 33.08C412.524 33.08 413.51 33.5387 414.193 34.456L413.089 35.464C412.662 34.8667 412.07 34.568 411.313 34.568C410.62 34.568 410.054 34.808 409.617 35.288C409.19 35.7573 408.977 36.3707 408.977 37.128C408.977 37.8853 409.19 38.504 409.617 38.984C410.054 39.464 410.62 39.704 411.313 39.704C412.06 39.704 412.652 39.3947 413.089 38.776L414.193 39.816C413.5 40.7333 412.513 41.192 411.233 41.192ZM419.266 41.192C418.082 41.192 417.111 40.8187 416.354 40.072C415.596 39.3253 415.218 38.344 415.218 37.128C415.218 35.9973 415.586 35.0427 416.322 34.264C417.068 33.4747 418.007 33.08 419.138 33.08C420.279 33.08 421.196 33.4747 421.89 34.264C422.583 35.0427 422.93 36.0453 422.93 37.272V37.688H416.978C417.042 38.296 417.292 38.8027 417.73 39.208C418.167 39.6133 418.732 39.816 419.426 39.816C420.322 39.816 421.058 39.528 421.634 38.952L422.402 40.056C421.591 40.8133 420.546 41.192 419.266 41.192ZM421.314 36.488C421.282 35.9547 421.079 35.4853 420.706 35.08C420.343 34.664 419.815 34.456 419.122 34.456C418.46 34.456 417.943 34.664 417.57 35.08C417.196 35.4853 416.994 35.9547 416.962 36.488H421.314ZM431.708 41H430.028V39.944C429.388 40.776 428.561 41.192 427.548 41.192C426.545 41.192 425.724 40.8293 425.084 40.104C424.444 39.3787 424.124 38.3867 424.124 37.128C424.124 35.9013 424.444 34.92 425.084 34.184C425.724 33.448 426.545 33.08 427.548 33.08C428.583 33.08 429.409 33.5013 430.028 34.344V30.328H431.708V41ZM428.044 39.704C428.428 39.704 428.807 39.6027 429.18 39.4C429.553 39.1973 429.836 38.952 430.028 38.664V35.608C429.836 35.32 429.553 35.0747 429.18 34.872C428.807 34.6693 428.428 34.568 428.044 34.568C427.383 34.568 426.849 34.808 426.444 35.288C426.049 35.7573 425.852 36.3707 425.852 37.128C425.852 37.8853 426.049 38.504 426.444 38.984C426.849 39.464 427.383 39.704 428.044 39.704ZM437.469 41.192C436.285 41.192 435.314 40.8187 434.557 40.072C433.8 39.3253 433.421 38.344 433.421 37.128C433.421 35.9973 433.789 35.0427 434.525 34.264C435.272 33.4747 436.21 33.08 437.341 33.08C438.482 33.08 439.4 33.4747 440.093 34.264C440.786 35.0427 441.133 36.0453 441.133 37.272V37.688H435.181C435.245 38.296 435.496 38.8027 435.933 39.208C436.37 39.6133 436.936 39.816 437.629 39.816C438.525 39.816 439.261 39.528 439.837 38.952L440.605 40.056C439.794 40.8133 438.749 41.192 437.469 41.192ZM439.517 36.488C439.485 35.9547 439.282 35.4853 438.909 35.08C438.546 34.664 438.018 34.456 437.325 34.456C436.664 34.456 436.146 34.664 435.773 35.08C435.4 35.4853 435.197 35.9547 435.165 36.488H439.517ZM444.471 41H442.791V33.272H444.471V34.392C444.78 34.008 445.154 33.6933 445.591 33.448C446.039 33.2027 446.503 33.08 446.983 33.08V34.744C446.834 34.712 446.663 34.696 446.471 34.696C446.108 34.696 445.724 34.8027 445.319 35.016C444.924 35.2187 444.642 35.4587 444.471 35.736V41ZM459.583 41H457.903V39.944C457.263 40.776 456.436 41.192 455.423 41.192C454.42 41.192 453.599 40.8293 452.959 40.104C452.319 39.3787 451.999 38.3867 451.999 37.128C451.999 35.9013 452.319 34.92 452.959 34.184C453.599 33.448 454.42 33.08 455.423 33.08C456.447 33.08 457.274 33.5013 457.903 34.344V33.272H459.583V41ZM455.919 39.704C456.303 39.704 456.682 39.6027 457.055 39.4C457.428 39.1973 457.711 38.952 457.903 38.664V35.608C457.711 35.32 457.428 35.0747 457.055 34.872C456.682 34.6693 456.303 34.568 455.919 34.568C455.258 34.568 454.724 34.808 454.319 35.288C453.924 35.7573 453.727 36.3707 453.727 37.128C453.727 37.8853 453.924 38.504 454.319 38.984C454.724 39.464 455.258 39.704 455.919 39.704ZM32.672 53.024C32.4693 53.2267 32.224 53.328 31.936 53.328C31.648 53.328 31.4027 53.2267 31.2 53.024C30.9973 52.8213 30.896 52.576 30.896 52.288C30.896 52 30.9973 51.7547 31.2 51.552C31.4027 51.3493 31.648 51.248 31.936 51.248C32.224 51.248 32.4693 51.3493 32.672 51.552C32.8747 51.7547 32.976 52 32.976 52.288C32.976 52.576 32.8747 52.8213 32.672 53.024ZM32.768 62H31.088V54.272H32.768V62ZM41.8594 62H40.1794V57.168C40.1794 56.592 40.0407 56.1813 39.7634 55.936C39.4967 55.6907 39.1127 55.568 38.6114 55.568C38.2167 55.568 37.8434 55.6693 37.4914 55.872C37.1394 56.064 36.8514 56.304 36.6274 56.592V62H34.9474V54.272H36.6274V55.312C36.9154 54.9707 37.2994 54.6827 37.7794 54.448C38.27 54.2027 38.798 54.08 39.3634 54.08C40.1847 54.08 40.8034 54.2933 41.2194 54.72C41.646 55.1467 41.8594 55.76 41.8594 56.56V62ZM46.3771 62.192C45.0545 62.192 44.3931 61.5253 44.3931 60.192V55.728H43.1131V54.272H44.3931V52.16H46.0731V54.272H47.6411V55.728H46.0731V59.776C46.0731 60.0533 46.1371 60.2773 46.2651 60.448C46.3931 60.6187 46.5745 60.704 46.8091 60.704C47.1291 60.704 47.3745 60.608 47.5451 60.416L47.9451 61.696C47.5718 62.0267 47.0491 62.192 46.3771 62.192ZM52.7345 62.192C51.5505 62.192 50.5798 61.8187 49.8225 61.072C49.0652 60.3253 48.6865 59.344 48.6865 58.128C48.6865 56.9973 49.0545 56.0427 49.7905 55.264C50.5372 54.4747 51.4758 54.08 52.6065 54.08C53.7478 54.08 54.6652 54.4747 55.3585 55.264C56.0518 56.0427 56.3985 57.0453 56.3985 58.272V58.688H50.4465C50.5105 59.296 50.7612 59.8027 51.1985 60.208C51.6358 60.6133 52.2012 60.816 52.8945 60.816C53.7905 60.816 54.5265 60.528 55.1025 59.952L55.8705 61.056C55.0598 61.8133 54.0145 62.192 52.7345 62.192ZM54.7825 57.488C54.7505 56.9547 54.5478 56.4853 54.1745 56.08C53.8118 55.664 53.2838 55.456 52.5905 55.456C51.9292 55.456 51.4118 55.664 51.0385 56.08C50.6652 56.4853 50.4625 56.9547 50.4305 57.488H54.7825ZM59.7368 62H58.0568V54.272H59.7368V55.392C60.0461 55.008 60.4194 54.6933 60.8568 54.448C61.3048 54.2027 61.7688 54.08 62.2488 54.08V55.744C62.0994 55.712 61.9288 55.696 61.7368 55.696C61.3741 55.696 60.9901 55.8027 60.5848 56.016C60.1901 56.2187 59.9074 56.4587 59.7368 56.736V62ZM70.5156 62H68.8356V57.168C68.8356 56.592 68.697 56.1813 68.4196 55.936C68.153 55.6907 67.769 55.568 67.2676 55.568C66.873 55.568 66.4996 55.6693 66.1476 55.872C65.7956 56.064 65.5076 56.304 65.2836 56.592V62H63.6036V54.272H65.2836V55.312C65.5716 54.9707 65.9556 54.6827 66.4356 54.448C66.9263 54.2027 67.4543 54.08 68.0196 54.08C68.841 54.08 69.4596 54.2933 69.8756 54.72C70.3023 55.1467 70.5156 55.76 70.5156 56.56V62ZM76.2814 62.192C75.0974 62.192 74.1267 61.8187 73.3694 61.072C72.612 60.3253 72.2334 59.344 72.2334 58.128C72.2334 56.9973 72.6014 56.0427 73.3374 55.264C74.084 54.4747 75.0227 54.08 76.1534 54.08C77.2947 54.08 78.212 54.4747 78.9054 55.264C79.5987 56.0427 79.9454 57.0453 79.9454 58.272V58.688H73.9934C74.0574 59.296 74.308 59.8027 74.7454 60.208C75.1827 60.6133 75.748 60.816 76.4414 60.816C77.3374 60.816 78.0734 60.528 78.6494 59.952L79.4174 61.056C78.6067 61.8133 77.5614 62.192 76.2814 62.192ZM78.3294 57.488C78.2974 56.9547 78.0947 56.4853 77.7214 56.08C77.3587 55.664 76.8307 55.456 76.1374 55.456C75.476 55.456 74.9587 55.664 74.5854 56.08C74.212 56.4853 74.0094 56.9547 73.9774 57.488H78.3294ZM83.9396 62.192C82.617 62.192 81.9556 61.5253 81.9556 60.192V55.728H80.6756V54.272H81.9556V52.16H83.6356V54.272H85.2036V55.728H83.6356V59.776C83.6356 60.0533 83.6996 60.2773 83.8276 60.448C83.9556 60.6187 84.137 60.704 84.3716 60.704C84.6916 60.704 84.937 60.608 85.1076 60.416L85.5076 61.696C85.1343 62.0267 84.6116 62.192 83.9396 62.192ZM88.649 58.864C88.2757 58.5013 88.089 58.0427 88.089 57.488C88.089 57.1253 88.1743 56.8 88.345 56.512C88.5263 56.224 88.7397 55.984 88.985 55.792C89.241 55.6 89.497 55.4187 89.753 55.248C90.009 55.0773 90.2223 54.8853 90.393 54.672C90.5743 54.4587 90.665 54.2293 90.665 53.984C90.665 53.6533 90.5317 53.3813 90.265 53.168C90.009 52.944 89.6357 52.832 89.145 52.832C88.2383 52.832 87.497 53.2053 86.921 53.952L85.833 52.752C86.6863 51.696 87.849 51.168 89.321 51.168C90.313 51.168 91.1023 51.4027 91.689 51.872C92.2757 52.3413 92.569 52.944 92.569 53.68C92.569 54.1173 92.4677 54.512 92.265 54.864C92.073 55.2053 91.8383 55.488 91.561 55.712C91.2837 55.9253 91.0063 56.128 90.729 56.32C90.4517 56.512 90.2117 56.72 90.009 56.944C89.817 57.168 89.721 57.408 89.721 57.664C89.721 57.9733 89.8383 58.2133 90.073 58.384L88.649 58.864ZM90.009 61.84C89.785 62.064 89.5237 62.176 89.225 62.176C88.9263 62.176 88.665 62.064 88.441 61.84C88.217 61.616 88.105 61.3493 88.105 61.04C88.105 60.7413 88.217 60.4853 88.441 60.272C88.665 60.048 88.9263 59.936 89.225 59.936C89.5237 59.936 89.785 60.048 90.009 60.272C90.233 60.4853 90.345 60.7413 90.345 61.04C90.345 61.3493 90.233 61.616 90.009 61.84Z" fill="#1A1A1A"/>
<rect opacity="0.4" x="0.5" y="0.5" width="490" height="318" rx="9.5" stroke="#1A1A1A"/>
</svg>
