<svg width="7" height="12" viewBox="0 0 7 12" fill="none" xmlns="http://www.w3.org/2000/svg">
<path d="M0.292893 10.2929C-0.097631 10.6834 -0.097631 11.3166 0.292893 11.7071C0.683417 12.0976 1.31658 12.0976 1.70711 11.7071L0.292893 10.2929ZM6.70711 6.70711C7.09763 6.31658 7.09763 5.68342 6.70711 5.29289C6.31658 4.90237 5.68342 4.90237 5.29289 5.29289L6.70711 6.70711ZM1.70711 11.7071L6.70711 6.70711L5.29289 5.29289L0.292893 10.2929L1.70711 11.7071Z" fill="#1D5556"/>
<path d="M5.29289 6.70711C5.68342 7.09763 6.31658 7.09763 6.70711 6.70711C7.09763 6.31658 7.09763 5.68342 6.70711 5.29289L5.29289 6.70711ZM1.70711 0.292893C1.31658 -0.097631 0.683417 -0.097631 0.292893 0.292893C-0.097631 0.683417 -0.097631 1.31658 0.292893 1.70711L1.70711 0.292893ZM6.70711 5.29289L1.70711 0.292893L0.292893 1.70711L5.29289 6.70711L6.70711 5.29289Z" fill="#1D5556"/>
</svg>
