<svg width="7" height="12" viewBox="0 0 7 12" fill="none" xmlns="http://www.w3.org/2000/svg">
<g opacity="0.6">
<path d="M6.70711 10.2929C7.09763 10.6834 7.09763 11.3166 6.70711 11.7071C6.31658 12.0976 5.68342 12.0976 5.29289 11.7071L6.70711 10.2929ZM0.292893 6.70711C-0.0976311 6.31658 -0.0976311 5.68342 0.292893 5.29289C0.683417 4.90237 1.31658 4.90237 1.70711 5.29289L0.292893 6.70711ZM5.29289 11.7071L0.292893 6.70711L1.70711 5.29289L6.70711 10.2929L5.29289 11.7071Z" fill="#1A1A1A"/>
<path d="M1.70711 6.70711C1.31658 7.09763 0.683417 7.09763 0.292893 6.70711C-0.0976311 6.31658 -0.0976311 5.68342 0.292893 5.29289L1.70711 6.70711ZM5.29289 0.292893C5.68342 -0.097631 6.31658 -0.097631 6.70711 0.292893C7.09763 0.683417 7.09763 1.31658 6.70711 1.70711L5.29289 0.292893ZM0.292893 5.29289L5.29289 0.292893L6.70711 1.70711L1.70711 6.70711L0.292893 5.29289Z" fill="#1A1A1A"/>
</g>
</svg>
