<svg width="60" height="60" viewBox="0 0 60 60" fill="none" xmlns="http://www.w3.org/2000/svg">
<g clip-path="url(#clip0_2370_4148)">
<circle cx="30" cy="30" r="30" fill="#698F3F" fill-opacity="0.4"/>
<path d="M28.125 28.125L28.2275 28.075C28.5481 27.9148 28.9078 27.8499 29.2642 27.8879C29.6205 27.9259 29.9585 28.0652 30.2381 28.2893C30.5177 28.5134 30.7273 28.8129 30.8419 29.1525C30.9566 29.492 30.9715 29.8572 30.885 30.205L29.115 37.295C29.0279 37.6429 29.0423 38.0085 29.1567 38.3485C29.2711 38.6884 29.4806 38.9884 29.7603 39.2129C30.0401 39.4374 30.3783 39.5769 30.735 39.615C31.0916 39.653 31.4517 39.5879 31.7725 39.4275L31.875 39.375M52.5 30C52.5 32.9547 51.918 35.8806 50.7873 38.6104C49.6566 41.3402 47.9992 43.8206 45.9099 45.9099C43.8206 47.9992 41.3402 49.6566 38.6104 50.7873C35.8806 51.918 32.9547 52.5 30 52.5C27.0453 52.5 24.1194 51.918 21.3896 50.7873C18.6598 49.6566 16.1794 47.9992 14.0901 45.9099C12.0008 43.8206 10.3434 41.3402 9.21271 38.6104C8.08198 35.8806 7.5 32.9547 7.5 30C7.5 24.0326 9.87053 18.3097 14.0901 14.0901C18.3097 9.87053 24.0326 7.5 30 7.5C35.9674 7.5 41.6903 9.87053 45.9099 14.0901C50.1295 18.3097 52.5 24.0326 52.5 30ZM30 20.625H30.02V20.645H30V20.625Z" stroke="#1D5556" stroke-width="4" stroke-linecap="round" stroke-linejoin="round"/>
</g>
<defs>
<clipPath id="clip0_2370_4148">
<rect width="60" height="60" fill="white"/>
</clipPath>
</defs>
</svg>
