<svg width="21" height="14" viewBox="0 0 21 14" fill="none" xmlns="http://www.w3.org/2000/svg">
<path d="M9.33333 14H11.6667C12.3083 14 12.8333 13.475 12.8333 12.8333C12.8333 12.1917 12.3083 11.6667 11.6667 11.6667H9.33333C8.69167 11.6667 8.16667 12.1917 8.16667 12.8333C8.16667 13.475 8.69167 14 9.33333 14ZM0 1.16667C0 1.80833 0.525 2.33333 1.16667 2.33333H19.8333C20.475 2.33333 21 1.80833 21 1.16667C21 0.525 20.475 0 19.8333 0H1.16667C0.525 0 0 0.525 0 1.16667ZM4.66667 8.16667H16.3333C16.975 8.16667 17.5 7.64167 17.5 7C17.5 6.35833 16.975 5.83333 16.3333 5.83333H4.66667C4.025 5.83333 3.5 6.35833 3.5 7C3.5 7.64167 4.025 8.16667 4.66667 8.16667Z" fill="#1A1A1A"/>
</svg>
