<svg width="21" height="21" viewBox="0 0 21 21" fill="none" xmlns="http://www.w3.org/2000/svg">
<path fill-rule="evenodd" clip-rule="evenodd" d="M21 10.5C21 16.299 16.299 21 10.5 21C4.70101 21 0 16.299 0 10.5C0 4.70101 4.70101 0 10.5 0C16.299 0 21 4.70101 21 10.5ZM11.8125 5.25C11.8125 5.97487 11.2249 6.5625 10.5 6.5625C9.77513 6.5625 9.1875 5.97487 9.1875 5.25C9.1875 4.52513 9.77513 3.9375 10.5 3.9375C11.2249 3.9375 11.8125 4.52513 11.8125 5.25ZM9.1875 9.1875C8.46263 9.1875 7.875 9.77513 7.875 10.5C7.875 11.2249 8.46263 11.8125 9.1875 11.8125V15.75C9.1875 16.4749 9.77513 17.0625 10.5 17.0625H11.8125C12.5374 17.0625 13.125 16.4749 13.125 15.75C13.125 15.0251 12.5374 14.4375 11.8125 14.4375V10.5C11.8125 9.77513 11.2249 9.1875 10.5 9.1875H9.1875Z" fill="#1D5556"/>
</svg>
