<svg width="30" height="30" viewBox="0 0 30 30" fill="none" xmlns="http://www.w3.org/2000/svg">
<path d="M9.375 17.8125V20.625M13.125 15V20.625M16.875 12.1875V20.625M20.625 9.375V20.625M7.5 25.3125H22.5C23.2459 25.3125 23.9613 25.0162 24.4887 24.4887C25.0162 23.9613 25.3125 23.2459 25.3125 22.5V7.5C25.3125 6.75408 25.0162 6.03871 24.4887 5.51126C23.9613 4.98382 23.2459 4.6875 22.5 4.6875H7.5C6.75408 4.6875 6.03871 4.98382 5.51126 5.51126C4.98382 6.03871 4.6875 6.75408 4.6875 7.5V22.5C4.6875 23.2459 4.98382 23.9613 5.51126 24.4887C6.03871 25.0162 6.75408 25.3125 7.5 25.3125Z" stroke="#4B034F" stroke-width="1.5" stroke-linecap="round" stroke-linejoin="round"/>
</svg>
